<?xml version="1.0" encoding="UTF-8" standalone="no"?>
<!-- Created with Inkscape (http://www.inkscape.org/) -->

<svg
   xmlns:dc="http://purl.org/dc/elements/1.1/"
   xmlns:cc="http://creativecommons.org/ns#"
   xmlns:rdf="http://www.w3.org/1999/02/22-rdf-syntax-ns#"
   xmlns:svg="http://www.w3.org/2000/svg"
   xmlns="http://www.w3.org/2000/svg"
   xmlns:sodipodi="http://sodipodi.sourceforge.net/DTD/sodipodi-0.dtd"
   xmlns:inkscape="http://www.inkscape.org/namespaces/inkscape"
   width="1920"
   height="1080"
   viewBox="0 0 508.00002 285.74999"
   version="1.1"
   id="svg8"
   inkscape:version="0.92.4 5da689c313, 2019-01-14"
   sodipodi:docname="dibujo2.svg">
  <defs
     id="defs2" />
  <sodipodi:namedview
     id="base"
     pagecolor="#ffffff"
     bordercolor="#666666"
     borderopacity="1.0"
     inkscape:pageopacity="0.0"
     inkscape:pageshadow="2"
     inkscape:zoom="0.49497475"
     inkscape:cx="714.56491"
     inkscape:cy="583.66832"
     inkscape:document-units="mm"
     inkscape:current-layer="layer1"
     showgrid="false"
     units="px"
     inkscape:window-width="1366"
     inkscape:window-height="741"
     inkscape:window-x="0"
     inkscape:window-y="27"
     inkscape:window-maximized="0"
     showguides="false" />
  <metadata
     id="metadata5">
    <rdf:RDF>
      <cc:Work
         rdf:about="">
        <dc:format>image/svg+xml</dc:format>
        <dc:type
           rdf:resource="http://purl.org/dc/dcmitype/StillImage" />
        <dc:title></dc:title>
      </cc:Work>
    </rdf:RDF>
  </metadata>
  <g
     inkscape:label="Capa 1"
     inkscape:groupmode="layer"
     id="layer1"
     transform="translate(0,-11.250015)">
    <path
       style="fill:none;fill-opacity:1;stroke:#000000;stroke-width:2.66847658;stroke-miterlimit:4;stroke-dasharray:none;stroke-opacity:1"
       d="m 298.81421,158.3936 c 0.0731,0.29235 0.14617,0.58471 0.21926,0.87706 0,0.21926 -0.043,0.44279 0,0.65779 0.0321,0.16026 0.18722,0.27828 0.21927,0.43854 0.086,0.43001 -0.0721,0.88303 0,1.31559 0.038,0.22798 0.18126,0.42981 0.21926,0.65779 0.13041,0.78246 -0.11222,1.62635 0,2.41192 0.0327,0.22881 0.18658,0.429 0.21927,0.6578 0.0414,0.28941 -0.0363,0.58697 0,0.87706 0.0374,0.29903 0.18189,0.57804 0.21926,0.87706 0.0635,0.50767 -0.0841,1.0302 0,1.53486 0.038,0.22798 0.18127,0.42982 0.21927,0.6578 0.0721,0.43256 -0.086,0.88558 0,1.31559 0.0321,0.16025 0.16758,0.28349 0.21926,0.43853 0.0731,0.21931 0,1.03704 0,1.31559"
       id="path979"
       inkscape:connector-curvature="0" />
    <path
       style="fill:none;fill-opacity:1;stroke:#000000;stroke-width:2.66847658;stroke-miterlimit:4;stroke-dasharray:none;stroke-opacity:1"
       d="m 298.81421,158.3936 c 0.29235,0.10963 0.57415,0.25317 0.87706,0.3289 0.14181,0.0354 0.29235,0 0.43853,0 0.18272,0 0.36544,0 0.54816,0 0.18272,0 0.36656,0.0202 0.54817,0 0.14975,-0.0166 0.29235,-0.0731 0.43853,-0.10963 0.18272,-0.0365 0.36274,-0.0911 0.54816,-0.10964 0.18181,-0.0182 0.36656,0.0202 0.54816,0 0.14976,-0.0166 0.28878,-0.093 0.43853,-0.10963 0.32689,-0.0363 0.66034,0.0408 0.9867,0 0.14951,-0.0187 0.28937,-0.0883 0.43853,-0.10964 0.25324,-0.0362 0.51162,0 0.76743,0 0.76743,0 1.53486,0 2.30229,0"
       id="path981"
       inkscape:connector-curvature="0" />
    <path
       style="fill:none;fill-opacity:1;stroke:#000000;stroke-width:2.66847658;stroke-miterlimit:4;stroke-dasharray:none;stroke-opacity:1"
       d="m 299.1431,165.41009 c 1.01187,-0.26913 2.04355,-0.45256 3.06972,-0.6578 0.18272,-0.0365 0.36626,-0.0692 0.54816,-0.10963 0.14709,-0.0327 0.28902,-0.0909 0.43853,-0.10963 0.94839,0 -0.0118,0.0462 0.76743,-0.10963 0.0717,-0.0143 0.14836,0.0178 0.21927,0 0.0793,-0.0198 0.13999,-0.0898 0.21926,-0.10964 0.23928,-0.0598 0.52589,0.0483 0.76743,0 0.0801,-0.016 0.13999,-0.0898 0.21927,-0.10963 0.17726,-0.0443 0.36544,0 0.54816,0 0.43853,0 0.87706,0 1.31559,0"
       id="path987"
       inkscape:connector-curvature="0" />
    <path
       style="fill:none;fill-opacity:1;stroke:#000000;stroke-width:2.66847658;stroke-miterlimit:4;stroke-dasharray:none;stroke-opacity:1"
       d="m 300.34906,172.42658 c 0.29236,-0.2558 0.54622,-0.56383 0.87707,-0.76743 0.2974,-0.18301 0.67097,-0.0746 0.98669,-0.10963 0.3704,-0.0411 0.72592,-0.17811 1.09633,-0.21926 0.14528,-0.0161 0.29348,0.0181 0.43853,0 0.14951,-0.0187 0.28936,-0.0883 0.43853,-0.10964 0.10853,-0.0155 0.22036,0.0155 0.3289,0 0.14916,-0.0213 0.28936,-0.0883 0.43853,-0.10963 0.18088,-0.0258 0.36899,0.0359 0.54816,0 0.11332,-0.0227 0.21558,-0.087 0.3289,-0.10963 0.0837,-0.0168 0.34873,0.0449 0.43853,0 0.0462,-0.0231 0.0634,-0.0865 0.10963,-0.10964 0.11412,-0.0571 0.43404,0.0571 0.54817,0 0.0462,-0.0231 0.0634,-0.0865 0.10964,-0.10963 0.098,-0.049 0.22488,0.0347 0.32888,0 0.049,-0.0164 0.0606,-0.0933 0.10964,-0.10963 0.0968,-0.0323 0.32336,0 0.43852,0"
       id="path1000"
       inkscape:connector-curvature="0" />
    <path
       style="fill:none;fill-opacity:1;stroke:#000000;stroke-width:2.66847658;stroke-miterlimit:4;stroke-dasharray:none;stroke-opacity:1"
       d="m 311.42197,171.98805 c 0,-0.25581 0.0212,-0.5125 0,-0.76743 -0.0155,-0.18569 -0.0911,-0.36275 -0.10964,-0.54816 -0.0364,-0.36363 0,-0.73088 0,-1.09633 0,-0.47507 -0.0364,-0.95155 0,-1.42522 0.0171,-0.22164 0.0912,-0.43628 0.10964,-0.6578 0.0394,-0.47343 0,-0.95015 0,-1.42522 0,-0.70191 -0.046,-1.50222 0,-2.19265 0.16331,-2.44971 0.049,0.56901 0.21927,-1.6445 0.0168,-0.21862 -0.0168,-0.43917 0,-0.65779 -0.025,-0.45381 0.17502,-0.87322 0.21925,-1.31559 0.0182,-0.18182 0,-0.36545 0,-0.54817 0,-0.47507 0,-0.95015 0,-1.42523 0,-0.10962 -0.0155,-0.22036 0,-0.32889 0.0213,-0.14916 0.0849,-0.28991 0.10963,-0.43853 0.0461,-0.27616 0,-0.59443 0,-0.87706 0,-0.0655 -0.0258,-0.21927 0.10964,-0.21927 0.0517,0 0.0731,0.0731 0.10964,0.10964 0.14618,0.14617 0.30938,0.2771 0.43852,0.43853 0.16463,0.20577 0.28536,0.44335 0.43854,0.65779 0.24218,0.33906 0.54372,0.63516 0.76743,0.9867 0.26322,0.41363 0.41074,0.89208 0.65779,1.31558 1.12302,1.92519 -0.27479,-0.71389 0.87707,1.42523 0.37657,0.69938 0.70172,1.45175 0.98668,2.19265 0.083,0.21573 0.13037,0.44446 0.21927,0.6578 0.0943,0.22629 0.23462,0.43151 0.3289,0.6578 0.37285,0.89483 0.10117,0.40466 0.32889,1.31559 0.0561,0.22422 0.14029,0.44058 0.21927,0.65779 0.21399,0.58849 0.26403,0.56614 0.43852,1.20597 0.0882,0.32335 0.15661,0.89256 0.21928,1.20595 0.0947,0.47353 0.19614,0.96058 0.3289,1.42523 0.37854,1.13566 -0.11259,-0.45336 0.10964,0.6578 0.016,0.0801 0.0898,0.13999 0.10961,0.21926 0.0354,0.14181 -0.0462,0.29985 0,0.43853 0.13549,0.40642 0.10964,-0.13363 0.10964,0.21927 0,0.0365 -0.0258,0.13547 0,0.10963 0.2437,-0.2437 0.0478,-1.52377 0.10963,-1.86376 0.0414,-0.22739 0.16322,-0.43357 0.21927,-0.65779 0.15769,-0.63077 0.22927,-1.43545 0.32889,-2.08302 0.0338,-0.21971 0.0758,-0.43809 0.10964,-0.6578 0.0393,-0.2554 0.0515,-0.51564 0.10963,-0.76743 0.052,-0.2252 0.15846,-0.43481 0.21927,-0.65779 0.049,-0.17978 0.0731,-0.36544 0.10964,-0.54816 0.0365,-0.21927 0.0512,-0.44335 0.10963,-0.6578 0.0518,-0.18986 0.16271,-0.35967 0.21926,-0.54816 0.0535,-0.17849 0.0584,-0.369 0.10963,-0.54817 0.0222,-0.0777 0.39884,-1.10757 0.43854,-1.42523 0.0181,-0.14504 -0.0206,-0.29382 0,-0.43852 0.0163,-0.11441 0.0731,-0.21927 0.10962,-0.3289 0.0366,-0.10963 0.0667,-0.22161 0.10963,-0.3289 0.0607,-0.15175 0.1676,-0.28349 0.21928,-0.43853 0.0279,-0.0838 0,-0.23996 0,-0.3289"
       id="path1002"
       inkscape:connector-curvature="0" />
    <path
       style="fill:none;fill-opacity:1;stroke:#000000;stroke-width:2.66847658;stroke-miterlimit:4;stroke-dasharray:none;stroke-opacity:1"
       d="m 330.38841,159.0514 c 0.18273,0 0.36636,0.0181 0.54817,0 0.32706,-0.0327 1.20285,-0.28443 1.42524,-0.3289 0.75485,-0.15098 1.54007,-0.22002 2.30228,-0.3289 0.2558,-0.0366 0.50977,-0.0898 0.76743,-0.10964 0.21861,-0.0168 0.43852,0 0.65779,0 0.51161,0 1.02323,0 1.53486,0 0.32889,0 0.65779,0 0.98668,0 0.0846,0 0.34177,-0.0323 0.43854,0 0.0775,0.0258 0.14174,0.0838 0.21927,0.10964 0.0347,0.0115 0.0731,0 0.10962,0 0.0731,0 0.14994,-0.0231 0.21927,0 0.049,0.0164 0.0634,0.0865 0.10964,0.10963 0.0662,0.0331 0.27822,-0.0507 0.3289,0 0.0258,0.0259 0,0.0731 0,0.10964 0,0.0365 0.0163,0.0769 0,0.10963 -0.0629,0.12568 -0.22875,0.1525 -0.3289,0.21926 -0.043,0.0287 -0.0666,0.081 -0.10964,0.10964 -0.068,0.0453 -0.15128,0.0643 -0.21927,0.10963 -0.043,0.0287 -0.0666,0.081 -0.10962,0.10963 -0.2004,0.1336 -0.46531,0.18452 -0.65781,0.3289 -0.0827,0.062 -0.13855,0.15469 -0.21925,0.21927 -0.1029,0.0823 -0.22601,0.13695 -0.32891,0.21926 -0.0807,0.0646 -0.13855,0.15469 -0.21927,0.21927 -0.10288,0.0823 -0.22766,0.13491 -0.32889,0.21926 -0.37601,0.31335 -0.55922,0.73309 -0.87706,1.09633 -1.08017,1.08017 0.13844,-0.17979 -0.76743,0.87706 -0.1009,0.11772 -0.22965,0.20979 -0.3289,0.3289 -0.0843,0.10122 -0.13492,0.22767 -0.21926,0.32889 -0.0993,0.11911 -0.22964,0.20979 -0.3289,0.32891 -0.1687,0.20244 -0.27391,0.45201 -0.43853,0.65779 -0.0646,0.0807 -0.15724,0.13657 -0.21927,0.21926 -0.049,0.0654 -0.0731,0.14618 -0.10963,0.21927 -0.0731,0.10963 -0.13696,0.22601 -0.21927,0.3289 -0.0946,0.11825 -0.4833,0.41844 -0.54816,0.54816 -0.0164,0.0327 0.0259,0.0838 0,0.10963 -0.0258,0.0258 -0.0769,-0.0164 -0.10963,0 -0.0462,0.0231 -0.0731,0.0731 -0.10964,0.10964 -0.0365,0.0365 -0.10962,0.058 -0.10962,0.10963 0,0.0647 0.52549,-0.20955 0.54816,-0.21927 0.0614,-0.0263 0.71035,-0.29555 0.87706,-0.3289 0.0717,-0.0143 0.1476,0.0143 0.21926,0 0.22579,-0.0451 0.35326,-0.12181 0.54817,-0.21926 0.16936,-0.0847 0.3585,-0.19217 0.54816,-0.21927 0.14471,-0.0206 0.29348,0.0182 0.43852,0 0.29904,-0.0373 0.57757,-0.18598 0.87707,-0.21926 0.1816,-0.0202 0.36657,0.0202 0.54817,0 0.14974,-0.0166 0.28902,-0.0909 0.43853,-0.10963 0.14504,-0.0182 0.29236,0 0.43852,0 0.18273,0 0.36686,-0.0227 0.54817,0 0.11467,0.0143 0.2145,0.0933 0.32889,0.10963 1.34268,0 -0.32357,-0.0462 0.76743,0.10963 0.14471,0.0206 0.29672,-0.0354 0.43855,0 0.15854,0.0396 0.2883,0.15489 0.43852,0.21927 0.10623,0.0455 0.22553,0.058 0.3289,0.10963 0.44992,0.22496 0.20825,0.16661 0.54816,0.43853 0.10289,0.0823 0.23572,0.1261 0.3289,0.21927 0.0578,0.0578 0.0606,0.15389 0.10963,0.21926 0.062,0.0827 0.16608,0.13063 0.21926,0.21927 0.0669,0.11156 0.30621,0.85053 0.32891,0.98669 0.0421,0.25233 0,0.51162 0,0.76743 0,0.25581 0.0362,0.51419 0,0.76743 -0.0242,0.16983 -0.25015,0.82918 -0.32891,0.98669 -0.11784,0.23571 -0.29234,0.43853 -0.43852,0.6578 -0.0731,0.10963 -0.1539,0.21449 -0.21927,0.3289 -0.0811,0.1419 -0.12428,0.30554 -0.21927,0.43853 -0.0901,0.12616 -0.22799,0.21118 -0.32889,0.3289 -0.23782,0.27746 -0.41716,0.60203 -0.65779,0.87706 -0.38295,0.43765 -0.85446,0.75046 -1.31561,1.09632 -0.14618,0.10964 -0.28357,0.23206 -0.43852,0.3289 -0.27718,0.17324 -0.57663,0.30977 -0.87706,0.43853 -0.10622,0.0455 -0.22554,0.058 -0.32891,0.10964 -0.11784,0.0589 -0.21104,0.16034 -0.32889,0.21926 -1.05882,0.52941 0.20446,-0.14124 -0.54816,0.10963 -0.049,0.0164 -0.0634,0.0865 -0.10963,0.10964 -0.12594,0.063 -0.90813,-0.047 -1.09633,0 -0.0501,0.0125 -0.0634,0.0865 -0.10964,0.10963 -0.0887,0.0443 -0.51721,0 -0.65779,0"
       id="path1010"
       inkscape:connector-curvature="0" />
    <path
       style="fill:none;fill-opacity:1;stroke:#000000;stroke-width:2.66847658;stroke-miterlimit:4;stroke-dasharray:none;stroke-opacity:1"
       d="m 353.08239,174.29034 c -0.0365,-0.21927 -0.0699,-0.43909 -0.10964,-0.6578 -0.0334,-0.18333 -0.0928,-0.36259 -0.10963,-0.54816 -0.0198,-0.21837 0,-0.43853 0,-0.6578 0,-0.43853 0,-0.87706 0,-1.31559 0,-0.21927 0.0168,-0.43918 0,-0.6578 -0.0198,-0.25764 -0.0912,-0.50968 -0.10964,-0.76742 -0.0338,-0.47387 0,-0.95015 0,-1.42523 0,-0.43853 0,-0.87706 0,-1.31559 0,-0.21927 -0.0182,-0.43929 0,-0.6578 0.0184,-0.22152 0.0895,-0.43642 0.10964,-0.65779 0.0331,-0.36395 -0.0404,-0.73313 0,-1.09633 0.0167,-0.14976 0.093,-0.28878 0.10963,-0.43853 0,-1.25891 -0.0443,0.0909 0.10964,-0.9867 0.0701,-0.49064 -0.0699,-1.15524 0,-1.64448 0.0164,-0.11441 0.0906,-0.21492 0.10962,-0.3289 0.036,-0.21629 -0.043,-0.44279 0,-0.6578 0.016,-0.0801 0.0838,-0.14174 0.10963,-0.21926 0.0436,-0.13084 -0.0567,-0.43477 0,-0.54817 0.0231,-0.0462 0.0933,-0.0606 0.10964,-0.10963 0.0628,-0.18832 -0.04,-0.56764 0,-0.76743 0.12598,-0.62988 0.10963,0.0314 0.10963,-0.3289 0,-0.49908 -0.0517,-0.006 0.10964,-0.32889 0.0164,-0.0327 -0.0366,-0.10964 0,-0.10964 0.0517,0 0.0666,0.081 0.10963,0.10964 0.068,0.0453 0.17023,0.0443 0.21926,0.10962 0.11377,0.15171 0.22482,0.77854 0.3289,0.9867 0.0589,0.11785 0.16736,0.20779 0.21927,0.3289 0.0593,0.13849 0.0567,0.29745 0.10964,0.43853 0.0574,0.15302 0.16757,0.28349 0.21925,0.43853 0.0589,0.17678 0.0507,0.37139 0.10964,0.54817 0.0517,0.15504 0.14618,0.29234 0.21926,0.43853 0.16196,0.32392 0.33355,0.63673 0.43853,0.98669 0.0535,0.17848 0.0561,0.36968 0.10963,0.54816 0.17001,0.56666 0.22259,0.4828 0.43854,0.98669 0.13604,0.31743 0.20061,0.66599 0.32889,0.9867 0.19873,0.49681 0.0101,0.0152 0.21927,0.3289 0.0453,0.068 0.0643,0.15127 0.10964,0.21926 0.0287,0.043 0.0865,0.0634 0.10963,0.10964 0.0164,0.0327 -0.0259,0.0838 0,0.10963 0.0258,0.0258 0.0838,-0.0259 0.10962,0 0.0655,0.0655 -0.11849,0.21926 0.10964,0.21926 0.0517,0 0.081,-0.0666 0.10963,-0.10963 0.44373,-0.66559 -0.3156,0.34328 0.21927,-0.54816 0.0532,-0.0886 0.14618,-0.14618 0.21927,-0.21926 0.0365,-0.14619 0.0567,-0.29746 0.10962,-0.43854 0.0574,-0.15303 0.1529,-0.28918 0.21927,-0.43853 0.0799,-0.17983 0.12369,-0.37613 0.21927,-0.54816 0.0887,-0.15973 0.24016,-0.27881 0.32889,-0.43853 0.0956,-0.17204 0.13126,-0.37214 0.21927,-0.54816 0.1906,-0.38119 0.42139,-0.74173 0.6578,-1.09633 0.10136,-0.15203 0.23205,-0.28358 0.3289,-0.43853 0.0866,-0.13859 0.13988,-0.29567 0.21926,-0.43854 0.10349,-0.18627 0.22542,-0.36189 0.32889,-0.54816 0.0794,-0.14286 0.12429,-0.30554 0.21928,-0.43853 0.0901,-0.12616 0.23877,-0.20273 0.32889,-0.3289 0.095,-0.13299 0.13818,-0.29663 0.21926,-0.43853 -0.0107,-0.24246 0.22755,-0.28649 0.32891,-0.43853 0.0453,-0.068 0.0643,-0.15127 0.10964,-0.21927 0.0998,-0.14969 0.36192,-0.28531 0.43852,-0.43852 0.0164,-0.0327 -0.0259,-0.0838 0,-0.10964 0.0259,-0.0258 0.0933,-0.0327 0.10963,0 0.0634,0.12688 -0.0519,0.91457 0,1.09633 0.0449,0.15714 0.17231,0.28199 0.21927,0.43853 0.0639,0.21292 0.0631,0.44044 0.10962,0.65779 0.36274,1.69271 0.12302,0.0174 0.32891,1.97339 0.0366,0.3289 0.0731,0.6578 0.10963,0.9867 0.0731,0.25581 0.18411,0.50371 0.21927,0.76743 0.0386,0.28979 -0.0183,0.58528 0,0.87706 0.0157,0.25188 0.17841,1.3586 0.21926,1.64449 0.0365,0.25581 0.0912,0.50968 0.10963,0.76743 0.0338,0.47387 -0.0394,0.95179 0,1.42522 0.0184,0.22153 0.0895,0.43642 0.10963,0.6578 0.0298,0.32754 0,0.6578 0,0.98669 0,0.58471 0,1.16942 0,1.75413"
       id="path1012"
       inkscape:connector-curvature="0" />
    <path
       style="fill:none;fill-opacity:1;stroke:#000000;stroke-width:2.66847658;stroke-miterlimit:4;stroke-dasharray:none;stroke-opacity:1"
       d="m 370.62362,174.94814 c -0.0366,-0.25582 -0.0898,-0.50979 -0.10964,-0.76743 -0.0168,-0.21863 0,-0.43854 0,-0.6578 0,-0.58471 0,-1.16941 0,-1.75412 0,-1.35214 0,-2.70428 0,-4.05641 0,-0.40199 0,-0.80397 0,-1.20596 0,-0.18272 0.0358,-0.369 0,-0.54817 -0.016,-0.0801 -0.0936,-0.13913 -0.10964,-0.21926 -0.0702,-0.35085 0.0588,-0.7434 0,-1.09633 -0.0135,-0.0806 -0.0936,-0.13914 -0.10963,-0.21926 -0.0215,-0.10751 0,-0.21927 0,-0.3289 0,-0.3289 0,-0.65779 0,-0.9867"
       id="path1016"
       inkscape:connector-curvature="0" />
    <path
       style="fill:none;fill-opacity:1;stroke:#000000;stroke-width:2.66847658;stroke-miterlimit:4;stroke-dasharray:none;stroke-opacity:1"
       d="m 370.73325,160.91515 c -0.0731,-0.21927 -0.14618,-0.43853 -0.21927,-0.65779 -0.0731,-0.14618 -0.16188,-0.28551 -0.21927,-0.43853 -0.0529,-0.14109 -0.0503,-0.30005 -0.10963,-0.43854 -0.0519,-0.12111 -0.16034,-0.21104 -0.21926,-0.32889 -0.0517,-0.10337 -0.0667,-0.2216 -0.10963,-0.3289 -0.0808,-0.20209 -0.18233,-0.29196 -0.32891,-0.43854"
       id="path1028"
       inkscape:connector-curvature="0" />
    <path
       style="fill:none;fill-opacity:1;stroke:#000000;stroke-width:2.66847658;stroke-miterlimit:4;stroke-dasharray:none;stroke-opacity:1"
       d="m 377.20157,175.38667 c -0.52939,-1.55714 -0.41659,-3.2158 -0.65779,-4.82384 -0.0606,-0.40406 -0.18054,-0.79922 -0.21928,-1.20596 -0.0346,-0.3638 0.0174,-0.7313 0,-1.09633 -0.0177,-0.37264 -0.16495,-1.75815 -0.21925,-2.19265 -0.20176,-1.61402 0.0175,0.0815 -0.3289,-1.53486 -0.0541,-0.25267 -0.0703,-0.51203 -0.10964,-0.76743 -0.0903,-0.5867 -0.2001,-1.17452 -0.32889,-1.75412 -0.0327,-0.14709 -0.091,-0.28902 -0.10963,-0.43853 -0.0182,-0.14505 0.0206,-0.29383 0,-0.43853 -0.0327,-0.2288 -0.17395,-0.43116 -0.21927,-0.6578 -0.0394,-0.19734 0,-0.45607 0,-0.65779 0,-0.47508 0,-0.95016 0,-1.42523 0,-0.25581 0,-0.51162 0,-0.76743 0,-0.0366 -0.0258,-0.0838 0,-0.10963 0.14234,-0.14234 0.39129,0.3598 0.43852,0.43853 0.0678,0.11299 0.16576,0.20849 0.21927,0.32889 0.0939,0.21121 0.12241,0.44795 0.21927,0.6578 0.12346,0.26752 0.32247,0.49662 0.43852,0.76743 0.10481,0.24454 0.13515,0.51504 0.21928,0.76743 0.0987,0.29621 0.21927,0.58471 0.3289,0.87706 0.3397,0.90586 0.31351,0.76456 0.54816,1.64449 0.0777,0.29118 0.12397,0.59118 0.21927,0.87707 0.088,0.26402 0.23528,0.50532 0.32889,0.76742 0.0895,0.25055 0.13514,0.51504 0.21927,0.76743 0.0987,0.29621 0.23015,0.58085 0.32889,0.87706 0.16826,0.50479 0.30142,1.02073 0.43854,1.53486 0.0776,0.29118 0.12397,0.59117 0.21927,0.87706 0.088,0.26403 0.23527,0.50533 0.32889,0.76743 0.0895,0.25055 0.12375,0.51912 0.21926,0.76743 0.53719,1.07438 0.15245,0.22737 0.54817,1.31559 0.13451,0.3699 0.31406,0.72294 0.43853,1.09633 0.0476,0.14294 0.0567,0.29744 0.10962,0.43853 0.0574,0.15303 0.1549,0.28831 0.21927,0.43853 0.091,0.21244 0.13343,0.4432 0.21927,0.6578 0.0303,0.0759 0.0898,0.13999 0.10964,0.21926 0.0354,0.14181 -0.0462,0.29985 0,0.43853 0.0164,0.049 0.0865,0.0634 0.10963,0.10964 0.0328,0.0655 -0.0722,0.21926 0.10962,0.21926 0.0366,0 0.009,-0.0742 0,-0.10963 -0.028,-0.11212 -0.0953,-0.21423 -0.10962,-0.3289 -0.0227,-0.18131 0,-0.36544 0,-0.54816 0,-2.33639 -0.0323,0.69076 0.10962,-1.86376 0.0183,-0.32839 -0.0164,-0.65821 0,-0.98669 0.0202,-0.40315 0.0913,-0.80274 0.10964,-1.20596 0.0183,-0.40157 -0.0334,-0.80537 0,-1.20596 0.0399,-0.47901 0.17934,-0.94623 0.21927,-1.42523 0.0334,-0.4006 -0.0223,-0.80459 0,-1.20596 0.0143,-0.25801 0.0924,-0.50959 0.10963,-0.76743 0.0194,-0.2917 -0.0182,-0.58527 0,-0.87706 0.0368,-0.58811 0.14139,-1.17003 0.21927,-1.75412 0.31644,-2.37337 -0.0593,0.83008 0.10962,-1.53486 0.10663,-1.49273 0.0968,-0.0779 0.21927,-1.42523 0.0165,-0.18196 -0.0202,-0.36655 0,-0.54816 0.0166,-0.14975 0.0883,-0.28937 0.10964,-0.43853 0.0259,-0.18088 0,-0.36544 0,-0.54816"
       id="path1030"
       inkscape:connector-curvature="0" />
    <path
       style="fill:none;fill-opacity:1;stroke:#000000;stroke-width:2.66847658;stroke-miterlimit:4;stroke-dasharray:none;stroke-opacity:1"
       d="m 388.0552,159.0514 c 0.0365,0.14618 0.07,0.29316 0.10964,0.43852 0.07,0.25668 0.16446,0.5071 0.21927,0.76744 0.23795,1.13027 0.25035,1.78396 0.43852,2.96008 0.0589,0.36799 0.158,0.72871 0.21928,1.09632 0.0484,0.29062 0.0553,0.58748 0.10963,0.87706 0.0555,0.29619 0.14616,0.58471 0.21925,0.87707 0.14618,0.58471 0.29236,1.16941 0.43854,1.75412 0.0638,0.25539 0.33066,1.36401 0.43853,1.64449 0.088,0.2288 0.23462,0.4315 0.3289,0.6578 0.49117,1.1788 -0.0903,0.14513 0.54816,1.31559 0.72958,1.33757 -0.0619,-0.16486 0.6578,0.98669 0.26807,0.42893 0.13677,0.40531 0.43853,0.76743 0.0992,0.11911 0.23204,0.20783 0.32889,0.3289 0.051,0.0638 0.0606,0.15389 0.10964,0.21926 0.0407,0.0544 0.46223,0.50521 0.54816,0.54817 0.0647,0.0324 0.25522,0 0.3289,0 0.0737,0 0.2642,0.0324 0.32889,0 0.49512,-0.24755 0.64041,-1.8365 0.76743,-2.30229 0.48144,-1.4443 -0.003,0.1238 0.3289,-1.31559 0.0598,-0.25924 0.17023,-0.50594 0.21928,-0.76743 0.11526,-0.61482 0.13658,-1.24371 0.21925,-1.86375 0.0454,-0.34055 0.19832,-1.3303 0.21927,-1.6445 0.017,-0.25524 -0.0196,-0.51237 0,-0.76742 0.0341,-0.44328 0.18234,-0.87255 0.21927,-1.3156 0.0182,-0.2185 -0.0182,-0.43928 0,-0.65779 0.0184,-0.22153 0.0895,-0.43642 0.10964,-0.6578 0.0165,-0.18197 0,-0.36544 0,-0.54816 0,-0.18272 0.0181,-0.36635 0,-0.54817 -0.0186,-0.18541 -0.0891,-0.36296 -0.10964,-0.54816 -0.0161,-0.14528 0.0181,-0.29348 0,-0.43853 -0.0187,-0.14951 -0.0883,-0.28937 -0.10964,-0.43853 -0.031,-0.21706 0.0361,-0.44151 0,-0.65779 -0.019,-0.11399 -0.0816,-0.21679 -0.10963,-0.32891 -0.0408,-0.1632 0,-0.3767 0,-0.54816"
       id="path1036"
       inkscape:connector-curvature="0" />
    <path
       style="fill:none;fill-opacity:1;stroke:#000000;stroke-width:2.66847658;stroke-miterlimit:4;stroke-dasharray:none;stroke-opacity:1"
       d="m 404.50011,175.05777 c -0.15157,-0.60626 -0.17718,-0.62551 -0.21926,-1.42523 -0.0346,-0.65688 0.0386,-1.31673 0,-1.97339 -0.16583,-2.81912 -0.0475,0.71243 -0.21928,-1.86375 -0.017,-0.25524 0,-0.51162 0,-0.76743 -0.0365,-0.25581 -0.0912,-0.50968 -0.10963,-0.76743 -0.0182,-0.25516 0.0182,-0.51227 0,-0.76743 -0.0184,-0.25775 -0.0912,-0.50967 -0.10963,-0.76743 -0.0338,-0.47386 0.0394,-0.95179 0,-1.42522 -0.0525,-0.6291 -0.27174,-1.23506 -0.32889,-1.86375 -0.0165,-0.18198 0.0202,-0.36657 0,-0.54817 -0.0429,-0.38651 -0.25393,-0.72149 -0.32891,-1.09633 -0.0609,-0.30453 0.0914,-0.18272 0,-0.54816 -0.0126,-0.0501 -0.0865,-0.0634 -0.10963,-0.10963 -0.0441,-0.0882 0,-0.69376 0,-0.76743 0,-0.37149 -0.0447,-0.84783 0,-1.20596 0.0187,-0.14952 0.0883,-0.28937 0.10963,-0.43853 0.0455,-0.31872 0,-0.75773 0,-1.09633"
       id="path1038"
       inkscape:connector-curvature="0" />
    <path
       style="fill:none;fill-opacity:1;stroke:#000000;stroke-width:2.66847658;stroke-miterlimit:4;stroke-dasharray:none;stroke-opacity:1"
       d="m 399.23773,162.45001 c 0.14618,0 0.29236,0 0.43854,0 0.14618,0 0.29325,0.0161 0.43853,0 0.37041,-0.0411 0.72592,-0.17811 1.09633,-0.21927 0.14528,-0.0161 0.29325,0.0161 0.43852,0 0.37041,-0.0411 0.73253,-0.13842 1.09634,-0.21926 0.14708,-0.0327 0.29364,-0.0682 0.43852,-0.10964 0.11112,-0.0317 0.2145,-0.0933 0.32891,-0.10963 0.1447,-0.0207 0.29381,0.0206 0.43852,0 0.11441,-0.0164 0.21491,-0.0906 0.32891,-0.10963 0.10814,-0.018 0.21926,0 0.32889,0 0.10963,-0.0366 0.21558,-0.087 0.3289,-0.10963 0.22211,-0.0444 0.63658,0 0.87706,0 0.51162,0 1.02325,0 1.53486,0"
       id="path1044"
       inkscape:connector-curvature="0" />
    <path
       style="fill:none;fill-opacity:1;stroke:#000000;stroke-width:2.66847658;stroke-miterlimit:4;stroke-dasharray:none;stroke-opacity:1"
       d="m 415.13448,160.80552 c -1.11598,0.89278 -0.15657,0.0344 -0.76743,0.76743 -0.0993,0.11911 -0.22964,0.20979 -0.3289,0.32889 -0.24281,0.29139 -0.24357,0.42625 -0.43852,0.76744 -0.32229,0.564 -0.17951,0.1 -0.43855,0.87705 -0.0891,0.26737 -0.16132,0.72602 -0.21925,0.9867 -0.0979,0.44057 -0.21944,0.87773 -0.3289,1.31559 -0.0366,0.14618 -0.091,0.28902 -0.10964,0.43853 -0.0181,0.14505 0,0.29235 0,0.43853 0,0.40199 0,0.80398 0,1.20596 0,0.29235 -0.0362,0.58697 0,0.87706 0.0187,0.14952 0.0883,0.28937 0.10964,0.43853 0.0155,0.10853 -0.0155,0.22037 0,0.3289 0.0796,0.55745 0.40195,1.35207 0.65779,1.86376 0.0731,0.14618 0.12121,0.30779 0.21927,0.43853 0.093,0.12403 0.24289,0.19989 0.32889,0.3289 0.0453,0.068 0.0519,0.16148 0.10964,0.21926 0.0578,0.0578 0.15127,0.0643 0.21926,0.10964 0.12901,0.086 0.20486,0.23587 0.32891,0.32889 0.0654,0.049 0.15388,0.0606 0.21925,0.10964 0.0827,0.062 0.13659,0.15725 0.21927,0.21926 0.0654,0.049 0.15391,0.0606 0.21927,0.10963 0.0827,0.062 0.12681,0.17304 0.21926,0.21927 0.0654,0.0327 0.14994,-0.0231 0.21926,0 0.049,0.0164 0.0666,0.081 0.10964,0.10963 0.068,0.0453 0.14175,0.0838 0.21927,0.10963 0.09,0.03 0.47846,0.0233 0.54816,0 0.049,-0.0164 0.0634,-0.0865 0.10963,-0.10963 0.0327,-0.0164 0.0731,0 0.10964,0 0.10964,-0.0365 0.22553,-0.058 0.32889,-0.10963 0.0462,-0.0231 0.0666,-0.081 0.10964,-0.10963 0.068,-0.0453 0.15127,-0.0643 0.21926,-0.10964 0.1651,-0.11006 0.29752,-0.29751 0.43853,-0.43853 0.0731,-0.0731 0.14618,-0.14617 0.21926,-0.21926 0.0366,-0.0366 0.0865,-0.0634 0.10964,-0.10963 0.0517,-0.10337 0.0667,-0.22161 0.10964,-0.3289 0.0607,-0.15174 0.16757,-0.28349 0.21925,-0.43853 0.0477,-0.14295 0.0567,-0.29745 0.10964,-0.43853 0.11477,-0.30605 0.30579,-0.57838 0.43853,-0.87707 0.76779,-1.72752 -0.20559,0.43862 0.32889,-0.98669 0.0574,-0.15303 0.1549,-0.28831 0.21928,-0.43853 0.091,-0.21244 0.17394,-0.43116 0.21926,-0.6578 0.0287,-0.14333 0,-0.29235 0,-0.43853 0,-0.19388 0.0462,-0.58269 0,-0.76743 -0.0198,-0.0793 -0.0838,-0.14174 -0.10963,-0.21926 -0.0476,-0.14295 -0.0422,-0.30376 -0.10963,-0.43853 -0.0462,-0.0924 -0.16609,-0.13064 -0.21928,-0.21927 -0.0594,-0.0991 -0.0579,-0.22553 -0.10963,-0.3289 -0.0589,-0.11785 -0.14616,-0.21926 -0.21926,-0.32889 -0.0731,-0.10964 -0.13491,-0.22768 -0.21926,-0.3289 -0.0993,-0.11911 -0.22965,-0.20979 -0.32891,-0.3289 -0.19895,-0.12818 -0.20104,-0.37769 -0.32889,-0.54816 -0.17786,-0.23715 -0.44795,-0.44795 -0.65779,-0.6578 -0.10964,-0.10963 -0.20784,-0.23204 -0.3289,-0.32889 -0.10289,-0.0823 -0.22601,-0.13696 -0.32889,-0.21927 -0.28003,-0.22401 -0.48078,-0.55243 -0.76743,-0.76743 -0.0654,-0.049 -0.15128,-0.0643 -0.21927,-0.10964 -0.2005,-0.13366 -0.37729,-0.37727 -0.54817,-0.54816 -0.0365,-0.0366 -0.0731,-0.0731 -0.10963,-0.10963 -0.0365,0 -0.0838,0.0258 -0.10963,0 -0.0259,-0.0258 0.0258,-0.0838 0,-0.10963 -0.0259,-0.0258 -0.10964,0.0366 -0.10964,0 0,-0.0366 0.14618,0 0.10964,0 -0.0731,0 -0.14618,0 -0.21927,0"
       id="path1046"
       inkscape:connector-curvature="0" />
    <path
       style="fill:none;fill-opacity:1;stroke:#000000;stroke-width:2.66847658;stroke-miterlimit:4;stroke-dasharray:none;stroke-opacity:1"
       d="m 429.71563,158.94176 c -2.24398,0.374 0.72017,-0.083 -1.20597,0.10964 -1.74173,0.17417 0.47826,0.0361 -0.98668,0.21926 -0.14506,0.0181 -0.29384,-0.0206 -0.43854,0 -0.11439,0.0164 -0.21927,0.0731 -0.32889,0.10963 -0.10964,0.0366 -0.22982,0.0502 -0.32891,0.10963 -0.0886,0.0532 -0.12681,0.17304 -0.21927,0.21927 -0.64835,0.32418 0.23449,-0.39512 -0.43852,0.10964 -0.0948,0.0711 -0.60294,0.56635 -0.65779,0.65779 -0.0595,0.0991 -0.0403,0.23645 -0.10964,0.3289 -0.049,0.0654 -0.16148,0.0519 -0.21927,0.10963 -0.0578,0.0578 -0.0731,0.14618 -0.10963,0.21927 -0.0366,0.0731 -0.0838,0.14174 -0.10964,0.21926 -0.0115,0.0347 0.0164,0.077 0,0.10964 -0.0231,0.0462 -0.0865,0.0634 -0.10962,0.10963 -0.0462,0.0925 0,0.63699 0,0.76742 0,0.18688 -0.043,0.59547 0,0.76743 0.0198,0.0793 0.0898,0.14 0.10962,0.21927 0.0177,0.0709 -0.0177,0.14836 0,0.21926 0.17895,0.71575 0.0589,-0.41421 0.21927,0.54817 0.018,0.10814 -0.0215,0.22139 0,0.3289 0.0321,0.16025 0.16759,0.28348 0.21927,0.43853 0.0115,0.0347 -0.0164,0.0769 0,0.10963 0.0231,0.0462 0.0865,0.0634 0.10964,0.10964 0.0164,0.0327 -0.0164,0.0769 0,0.10962 0.0231,0.0462 0.0731,0.0731 0.10963,0.10964 0.0366,0.0365 0.0606,0.0933 0.10962,0.10963 0.0693,0.0231 0.14836,-0.0178 0.21927,0 0.35558,0.0889 0.77791,0.49859 1.09633,0.6578 0.10336,0.0517 0.22554,0.058 0.32889,0.10963 0.11786,0.0589 0.21106,0.16034 0.32891,0.21926 0.22109,0.11055 0.35658,0.0756 0.54816,0.21927 0.0827,0.062 0.12681,0.17304 0.21926,0.21926 0.0654,0.0327 0.14837,-0.0177 0.21928,0 0.1255,0.0314 0.75686,0.35841 0.87704,0.43854 0.043,0.0286 0.0667,0.081 0.10964,0.10963 0.068,0.0453 0.15127,0.0643 0.21927,0.10963 0.11467,0.0764 0.6837,0.6558 0.76743,0.76743 0.0981,0.13074 0.13517,0.29839 0.21926,0.43853 0.0678,0.11299 0.16034,0.21105 0.21926,0.3289 0.22915,0.45829 0.27492,1.14365 0.21927,1.64449 -0.0167,0.14975 -0.093,0.28878 -0.10964,0.43853 -0.0202,0.1816 0.0397,0.36979 0,0.54816 -0.0354,0.15954 -0.16187,0.28551 -0.21925,0.43853 -0.0529,0.14108 -0.0567,0.29745 -0.10964,0.43854 -0.11631,0.31013 -0.44299,0.94818 -0.65779,1.20595 -0.17848,0.21419 -0.66289,0.69858 -0.87706,0.87707 -0.30197,0.25163 -0.6797,0.41219 -0.9867,0.65779 -0.0807,0.0646 -0.13326,0.16193 -0.21927,0.21926 -0.35041,0.23362 -0.73339,0.25707 -1.09632,0.43854 -0.34776,0.17388 -0.65305,0.4576 -0.9867,0.6578 -0.0701,0.042 -0.1539,0.0606 -0.21926,0.10962 -0.0827,0.062 -0.13064,0.16609 -0.21926,0.21927 -0.0991,0.0595 -0.2216,0.0667 -0.32891,0.10964 -0.22461,0.0898 -0.42847,0.25245 -0.65779,0.32889 -0.0838,0.0279 -0.23996,0 -0.3289,0"
       id="path1048"
       inkscape:connector-curvature="0" />
  </g>
</svg>
