<?xml version="1.0" encoding="UTF-8" standalone="no"?>
<!-- Created with Inkscape (http://www.inkscape.org/) -->

<svg
   xmlns:dc="http://purl.org/dc/elements/1.1/"
   xmlns:cc="http://creativecommons.org/ns#"
   xmlns:rdf="http://www.w3.org/1999/02/22-rdf-syntax-ns#"
   xmlns:svg="http://www.w3.org/2000/svg"
   xmlns="http://www.w3.org/2000/svg"
   xmlns:sodipodi="http://sodipodi.sourceforge.net/DTD/sodipodi-0.dtd"
   xmlns:inkscape="http://www.inkscape.org/namespaces/inkscape"
   width="1920"
   height="1080"
   viewBox="0 0 508.00002 285.74999"
   version="1.1"
   id="svg8"
   inkscape:version="0.92.4 5da689c313, 2019-01-14"
   sodipodi:docname="dibujo5.svg">
  <defs
     id="defs2" />
  <sodipodi:namedview
     id="base"
     pagecolor="#ffffff"
     bordercolor="#666666"
     borderopacity="1.0"
     inkscape:pageopacity="0.0"
     inkscape:pageshadow="2"
     inkscape:zoom="0.35355339"
     inkscape:cx="962.88081"
     inkscape:cy="528.53342"
     inkscape:document-units="mm"
     inkscape:current-layer="layer1"
     showgrid="false"
     units="px"
     inkscape:window-width="1366"
     inkscape:window-height="741"
     inkscape:window-x="0"
     inkscape:window-y="27"
     inkscape:window-maximized="0"
     showguides="false" />
  <metadata
     id="metadata5">
    <rdf:RDF>
      <cc:Work
         rdf:about="">
        <dc:format>image/svg+xml</dc:format>
        <dc:type
           rdf:resource="http://purl.org/dc/dcmitype/StillImage" />
        <dc:title></dc:title>
      </cc:Work>
    </rdf:RDF>
  </metadata>
  <g
     inkscape:label="Capa 1"
     inkscape:groupmode="layer"
     id="layer1"
     transform="translate(0,-11.250015)">
    <path
       style="fill:none;fill-opacity:1;stroke:#0e0a08;stroke-width:3;stroke-miterlimit:4;stroke-dasharray:none;stroke-opacity:1"
       d="m 21.695833,78.983347 c -0.131476,-3.233184 -1.319915,-6.313976 -1.5875,-9.524999 -0.08789,-1.054677 0.09582,-2.121014 0,-3.175 -0.08143,-0.895718 -0.439672,-1.750886 -0.529167,-2.645834 -0.175513,-1.755134 0.194789,-3.538566 0,-5.291666 -0.08031,-0.722821 -0.438959,-1.395013 -0.529166,-2.116667 -0.153149,-1.225187 0,-2.469443 0,-3.704167 0,-1.014097 -0.219485,-4.413726 0,-5.291666 0.09566,-0.382641 0.404441,-0.684157 0.529166,-1.058333 0.05578,-0.167339 -0.07888,-0.371399 0,-0.529167 1.755025,-1.755024 -0.249451,0.498904 0.529167,-1.058333 0.223116,-0.446233 0.835217,-0.612101 1.058333,-1.058334 0.364955,-0.729908 -0.64085,-0.473323 0.529167,-1.058333 0.347702,-0.17385 2.656842,0 3.175,0 0.881944,0 1.781016,-0.172963 2.645833,0 0.386758,0.07735 0.671576,0.451816 1.058334,0.529167 0.51889,0.103777 1.068609,-0.103778 1.5875,0 0.386757,0.07735 0.692126,0.382682 1.058333,0.529166 0.517895,0.207158 1.109199,0.242187 1.5875,0.529167 0.427805,0.256683 0.659212,0.758992 1.058333,1.058333 0.924743,0.693558 1.578637,0.524735 2.645834,1.058334 0.344744,0.172373 2.015601,1.813475 2.116666,2.116666 0.111559,0.334674 -0.111559,0.723659 0,1.058334 0.07888,0.236651 0.450284,0.292515 0.529167,0.529166 0.412967,1.238901 -0.04256,0.857591 -0.529167,1.5875 -0.218784,0.328176 -0.352777,0.705557 -0.529166,1.058333 -0.17639,0.352777 -0.310383,0.730158 -0.529167,1.058334 -1.310791,1.966185 -4.832194,2.590152 -6.879167,3.175 -0.536329,0.153236 -1.04054,0.419774 -1.5875,0.529166 -1.082828,0.216567 -3.085853,0 -4.233333,0 -1.234722,0 -2.469444,0 -3.704167,0 -0.529166,0 -1.058333,0 -1.5875,0 -0.176389,0 -0.529166,0.17639 -0.529166,0 0,-0.991571 0.709505,0.412891 1.058333,0.529167 0.334674,0.111559 0.705556,0 1.058333,0 0.529167,0 1.058334,0 1.5875,0 2.293056,0 4.586111,0 6.879167,0 0.217892,0 1.447427,-0.140073 1.5875,0 0.18061,0.18061 -0.169857,2.750354 0,3.175 0.213722,0.534308 1.433404,1.875351 1.5875,2.645833 0.103777,0.518891 -0.167338,1.085488 0,1.5875 0.374176,1.122532 1.058333,2.116667 1.5875,3.175 0.17639,0.352777 0.433506,0.675693 0.529167,1.058334 0.08556,0.342243 -0.08556,0.716089 0,1.058333 0.09566,0.38264 0.404442,0.684157 0.529166,1.058333 0.05578,0.167339 -0.07888,0.371401 0,0.529167 0.111559,0.223115 0.352777,0.352777 0.529167,0.529167"
       id="path5190"
       inkscape:connector-curvature="0" />
    <path
       style="fill:none;fill-opacity:1;stroke:#0e0a08;stroke-width:3;stroke-miterlimit:4;stroke-dasharray:none;stroke-opacity:1"
       d="m 44.246469,78.854625 c -0.03118,-0.124725 -0.08499,-0.245896 -0.09354,-0.374176 -0.02281,-0.342236 0,-0.685993 0,-1.028989 0,-1.028988 0.03025,-2.058418 0,-3.086962 -0.01654,-0.561888 -0.09354,-1.121667 -0.09354,-1.683798 0,-1.94914 0.123185,-1.612604 0.187087,-3.274052 0.01439,-0.373901 0,-0.748355 0,-1.122532 0,-0.904261 0,-1.808525 0,-2.712786 0,-0.623628 0,-1.247256 0,-1.870887 0,-0.187087 0.01553,-0.374822 0,-0.561266 -0.01574,-0.189013 -0.07779,-0.37225 -0.09354,-0.561266 -0.01553,-0.186441 0.01693,-0.374946 0,-0.561266 -0.01439,-0.158342 -0.07772,-0.309515 -0.09354,-0.46772 -0.0155,-0.155136 0.0155,-0.312589 0,-0.467722 -0.01582,-0.158205 -0.07382,-0.309954 -0.09355,-0.467723 -0.02707,-0.216585 0,-0.436538 0,-0.654809 0,-0.08919 -0.03856,-0.95187 0,-1.028988 0.01971,-0.03944 0.07382,-0.0541 0.09355,-0.09354 0.02789,-0.05578 -0.02789,-0.13131 0,-0.187089 0.310248,-0.310248 -0.0441,0.08819 0.09354,-0.18709 0.08148,-0.162959 0.223634,-0.146177 0.280633,-0.374176 0.01513,-0.0605 -0.01513,-0.126588 0,-0.18709 0.01691,-0.06764 0.06765,-0.122351 0.09354,-0.187087 0.03662,-0.09155 0.05692,-0.189081 0.09355,-0.280633 0.05179,-0.129473 0.153268,-0.238895 0.187087,-0.374179 0.01513,-0.0605 -0.01222,-0.125936 0,-0.187087 0.01934,-0.09669 0.07733,-0.183372 0.09355,-0.280632 0.01537,-0.09227 -0.01834,-0.188908 0,-0.280633 0.01368,-0.06837 0.07987,-0.118722 0.09354,-0.18709 0.01834,-0.09173 -0.01537,-0.188362 0,-0.280633 0.01622,-0.09726 0.07733,-0.183369 0.09354,-0.280633 0.02564,-0.153786 -0.03781,-0.316471 0,-0.467722 0.07328,-0.293124 0.113807,-0.08105 0.187089,-0.374177 0.01513,-0.0605 -0.01971,-0.127926 0,-0.187089 0.01394,-0.04183 0.07382,-0.0541 0.09354,-0.09354 0.07217,-0.144333 -0.08481,-0.102277 0.09355,-0.280633"
       id="path5198"
       inkscape:connector-curvature="0" />
    <path
       style="fill:none;fill-opacity:1;stroke:#0e0a08;stroke-width:3;stroke-miterlimit:4;stroke-dasharray:none;stroke-opacity:1"
       d="m 46.023813,45.272211 c -0.03118,0.124725 -0.07536,0.246904 -0.09355,0.374177 -0.01672,0.117043 -0.0195,1.231648 0,1.309621 0.01691,0.06764 0.06765,0.122351 0.09355,0.187087 0.145978,0.364945 0.219379,0.761338 0.374176,1.122532 0.05493,0.128174 0.138126,0.243609 0.187089,0.374179 0.04514,0.120377 0.05823,0.250557 0.09354,0.374176 0.106397,0.372385 0.230359,0.762984 0.374179,1.122532 0.05179,0.129474 0.142991,0.241887 0.187087,0.374179 0.0099,0.02958 -0.01394,0.06565 0,0.09354 0.01971,0.03944 0.07382,0.0541 0.09355,0.09354 0.137641,0.275283 -0.216704,-0.123158 0.09354,0.187089"
       id="path5200"
       inkscape:connector-curvature="0" />
    <path
       style="fill:none;fill-opacity:1;stroke:#0e0a08;stroke-width:3;stroke-miterlimit:4;stroke-dasharray:none;stroke-opacity:1"
       d="m 69.222807,45.646388 c -0.249452,0.09354 -0.503481,0.175686 -0.748355,0.280633 -0.19226,0.0824 -0.371719,0.192177 -0.561266,0.280633 -0.795878,0.371408 -1.085067,0.432517 -1.870888,0.935442 -0.45185,0.289184 -0.858356,0.645345 -1.309618,0.935445 -0.422934,0.271883 -0.893855,0.465632 -1.309622,0.748353 -0.366471,0.2492 -0.678312,0.570923 -1.028988,0.841898 -0.747025,0.577247 -1.230463,0.813592 -1.870887,1.496711 -0.213262,0.227481 -0.364638,0.506352 -0.561266,0.748356 -0.418037,0.514506 -0.916371,0.963014 -1.309619,1.496708 -0.826518,1.121704 -0.527418,0.933122 -1.216078,2.15152 -0.200049,0.353933 -0.461174,0.671505 -0.654809,1.028989 -0.509789,0.941144 -0.66625,1.518089 -1.028988,2.525696 -0.123622,0.343395 -0.263518,0.681199 -0.374177,1.028986 -0.290232,0.912154 -0.277162,1.059267 -0.467722,1.964433 -0.05923,0.28131 -0.155343,0.556178 -0.18709,0.841899 -0.03099,0.278916 0.01752,0.561811 0,0.841899 -0.01376,0.220057 -0.07784,0.434882 -0.09354,0.654809 -0.01556,0.217715 0,0.436542 0,0.65481 0,0.187089 -0.01553,0.374824 0,0.561266 0.01574,0.189015 0.07779,0.372252 0.09354,0.561265 0.01553,0.186444 -0.01693,0.374947 0,0.561269 0.0466,0.512601 0.227997,1.009438 0.374179,1.496708 0.03694,0.123143 0.0484,0.253799 0.09354,0.374177 0.09793,0.261138 0.249451,0.498903 0.374176,0.748355 0.133271,0.266539 0.291534,0.606981 0.467722,0.841899 0.07938,0.105833 0.194541,0.180189 0.280633,0.280633 0.101463,0.118374 0.179171,0.255804 0.280633,0.374176 0.0861,0.100444 0.195943,0.179004 0.280633,0.280633 0.07197,0.08637 0.107593,0.201136 0.18709,0.280633 0.152858,0.152861 0.468908,0.334936 0.654809,0.467723 0.126868,0.09062 0.24197,0.198003 0.374179,0.280633 0.11825,0.07391 0.255924,0.11318 0.374177,0.187089 0.227459,0.142163 0.436541,0.311814 0.654809,0.467723 0.436838,0.312025 0.869381,0.627274 1.309621,0.935442 0.184206,0.128945 0.360151,0.273619 0.561266,0.374176 0.08819,0.0441 0.19608,0.04282 0.280633,0.09355 0.07563,0.04537 0.118221,0.131993 0.18709,0.187087 0.08779,0.07023 0.184226,0.129247 0.280633,0.18709 0.20525,0.12315 0.463282,0.136988 0.654809,0.280633 0.07056,0.05292 0.118221,0.131995 0.18709,0.187089 0.590026,0.47202 0.01601,-0.07755 0.467722,0.374177 0.09639,0.09639 0.270404,0.322291 0.374176,0.374176 0.02953,0.01476 0.353944,0.02024 0.374177,0 0.02204,-0.02204 -0.02204,-0.0715 0,-0.09354 0.02204,-0.02204 0.06566,0.01394 0.09355,0 0.03944,-0.01971 0.0541,-0.07382 0.09354,-0.09354 0.02789,-0.01394 0.06565,0.01394 0.09354,0 0.428117,-0.214058 -0.396947,0.03877 0.280633,-0.187089 0.02958,-0.0099 0.06329,0.0076 0.09355,0 0.09566,-0.02392 0.183943,-0.07421 0.280633,-0.09354 0.06115,-0.01222 0.124724,0 0.187087,0 0.09355,0 0.188362,-0.01537 0.280633,0 0.194526,0.03242 0.371647,0.132911 0.561265,0.187087 0.123619,0.03532 0.250561,0.05823 0.374179,0.09355 0.3121,0.08917 0.611185,0.23431 0.935443,0.280633 0.0926,0.01323 0.188362,-0.01537 0.280633,0 0.931952,0.155324 -0.505219,0.04209 0.654812,0.187087 0.247523,0.03094 0.500827,-0.03094 0.748353,0 0.255143,0.03189 0.493212,0.155197 0.748355,0.187089 0.123761,0.01548 0.250415,-0.01548 0.374176,0 0.127572,0.01595 0.249452,0.06236 0.374179,0.09354 0.249452,0.06236 0.501119,0.116451 0.748353,0.187089 0.09481,0.02709 0.183944,0.07421 0.280633,0.09354 0.122304,0.02445 0.249452,0 0.374179,0"
       id="path5202"
       inkscape:connector-curvature="0" />
    <path
       style="fill:none;fill-opacity:1;stroke:#0e0a08;stroke-width:3;stroke-miterlimit:4;stroke-dasharray:none;stroke-opacity:1"
       d="m 76.332291,80.173972 c -0.245023,-2.446337 -0.879787,-4.841136 -1.190625,-7.276041 -0.134483,-1.053452 -0.174525,-2.116823 -0.264584,-3.175 -0.228406,-2.683772 -0.489918,-5.371547 -0.396875,-8.069792 0.01982,-0.574616 0.106186,-1.145426 0.132292,-1.719791 0.03204,-0.704829 -0.05411,-1.41319 0,-2.116667 0.02056,-0.267443 0.110016,-0.526444 0.132292,-0.79375 0.02199,-0.26367 -0.02395,-0.530254 0,-0.79375 0.02035,-0.22393 0.111934,-0.437528 0.132291,-0.661458 0.02394,-0.263496 -0.02633,-0.530479 0,-0.79375 0.0181,-0.180914 0.09285,-0.351679 0.132292,-0.529167 0.04878,-0.219498 0.08819,-0.440973 0.132292,-0.661458 0.168,-0.840002 0.3434,-1.677586 0.529166,-2.513542 0.03944,-0.177488 0.109742,-0.348752 0.132292,-0.529166 0.02188,-0.175028 -0.02495,-0.35455 0,-0.529167 0.01971,-0.138047 0.11257,-0.258829 0.132292,-0.396875 0.04365,-0.305578 0,-0.61736 0,-0.926042 0,-0.315759 0.05079,-1.018169 0,-1.322916 -0.02294,-0.137552 -0.109366,-0.259327 -0.132292,-0.396875 -0.02175,-0.130493 0.02596,-0.267153 0,-0.396875 -0.01934,-0.09669 -0.108376,-0.168924 -0.132292,-0.264584 -0.02138,-0.08556 0.02138,-0.179022 0,-0.264583 -0.02392,-0.09566 -0.10111,-0.17104 -0.132291,-0.264583 -0.0337,-0.101092 0,-0.289545 0,-0.396875"
       id="path5204"
       inkscape:connector-curvature="0" />
    <path
       style="fill:none;fill-opacity:1;stroke:#0e0a08;stroke-width:3;stroke-miterlimit:4;stroke-dasharray:none;stroke-opacity:1"
       d="m 87.312499,80.041681 c 0.08819,-0.396875 0.17639,-0.79375 0.264583,-1.190625 0.0441,-0.308682 0.06696,-0.621149 0.132292,-0.926042 0.06727,-0.313907 0.197318,-0.612135 0.264583,-0.926041 0.130667,-0.609786 0.133916,-1.242299 0.264584,-1.852084 0.06727,-0.313907 0.201623,-0.611243 0.264583,-0.926041 0.06972,-0.348621 0.06677,-0.708901 0.132292,-1.058334 0.06701,-0.357407 0.193267,-0.701759 0.264583,-1.058333 0.06115,-0.305761 0.07114,-0.620284 0.132292,-0.926042 0.211373,-1.056859 0.323635,-0.959011 0.396875,-1.984375 0.04398,-0.615791 -0.04107,-1.236091 0,-1.852083 0.02365,-0.354735 0.108643,-0.703599 0.132291,-1.058333 0.02053,-0.307997 -0.02199,-0.618146 0,-0.926042 0.02222,-0.311023 0.110075,-0.615019 0.132292,-0.926042 0.05536,-0.774991 0,-1.722331 0,-2.513541 0,-0.529167 0.04395,-1.060162 0,-1.5875 -0.212905,-2.554872 -0.0431,0.759653 -0.264583,-1.455209 -0.02193,-0.219392 0.02193,-0.442065 0,-0.661458 -0.06299,-0.629867 -0.32697,-1.222928 -0.396875,-1.852083 -0.01947,-0.175311 0.01947,-0.353857 0,-0.529167 -0.07562,-0.680556 -0.314101,-1.339175 -0.529167,-1.984375 -0.08819,-0.264583 -0.161004,-0.534802 -0.264583,-0.79375 -0.196229,-0.490572 -0.55612,-0.928518 -0.661459,-1.455208 -0.0173,-0.08648 0.02138,-0.179023 0,-0.264584 -0.02392,-0.09566 -0.08819,-0.176389 -0.132291,-0.264583 -0.0441,-0.08819 -0.0776,-0.182539 -0.132292,-0.264583 -0.03459,-0.05189 -0.11257,-0.07313 -0.132292,-0.132292 -0.02789,-0.08367 0.02789,-0.180914 0,-0.264583 -0.194654,-0.583965 -0.132291,0.480637 -0.132291,-0.396875"
       id="path5206"
       inkscape:connector-curvature="0" />
    <path
       style="fill:none;fill-opacity:1;stroke:#0e0a08;stroke-width:3;stroke-miterlimit:4;stroke-dasharray:none;stroke-opacity:1"
       d="m 74.215624,64.034389 c 0.82237,0.07006 1.69372,-0.08198 2.513542,0 0.223737,0.02238 0.437528,0.111935 0.661458,0.132292 0.526994,0.04791 1.060162,-0.04394 1.5875,0 2.131364,0.355227 -0.536467,-0.04471 1.5875,0.132292 0.267306,0.02228 0.526444,0.110016 0.79375,0.132291 0.26367,0.02196 0.530254,-0.02394 0.79375,0 0.22393,0.02035 0.437528,0.111935 0.661458,0.132292 0.263496,0.02394 0.529167,0 0.79375,0 0.661459,0 1.322917,0 1.984375,0 0.396875,0 0.796814,-0.04923 1.190625,0 0.180414,0.02254 0.348753,0.109739 0.529167,0.132292 0.350054,0.04376 0.707305,-0.0351 1.058333,0 0.266901,0.02669 0.52759,0.09902 0.79375,0.132291 0.299749,0.03747 0.62352,0 0.926042,0 0.79375,0 1.5875,0 2.38125,0"
       id="path5208"
       inkscape:connector-curvature="0" />
    <path
       style="fill:none;fill-opacity:1;stroke:#0e0a08;stroke-width:3;stroke-miterlimit:4;stroke-dasharray:none;stroke-opacity:1"
       d="m 93.662499,81.232306 c 0,-0.961181 -0.02188,-0.19997 0.132291,-1.5875 0.16528,-1.487511 0.09726,-1.424811 0.396875,-3.042708 0.413391,-2.232314 1.088002,-4.402516 1.5875,-6.614584 0.14858,-0.657992 0.255535,-1.32479 0.396875,-1.984375 0.743091,-3.467756 0.04691,-0.02122 0.79375,-3.307291 0.468231,-2.06021 0.04851,-0.578787 0.529167,-2.38125 0.621832,-2.331868 -0.145933,0.599278 0.661458,-1.984375 0.108464,-0.347083 0.149593,-0.713359 0.264584,-1.058334 0.106201,-0.3186 0.283921,-0.609772 0.396875,-0.926041 0.200729,-0.702554 0.285099,-1.048605 0.529166,-1.719792 0.162309,-0.446347 0.336275,-0.88891 0.529167,-1.322917 0.0801,-0.180213 0.195343,-0.344514 0.264583,-0.529166 0.0638,-0.170241 0.0607,-0.362051 0.13229,-0.529167 0.0626,-0.14614 0.18278,-0.260538 0.26459,-0.396875 0.0507,-0.08455 0.0731,-0.1857 0.13229,-0.264583 0.50146,-0.668616 0.0767,0.111268 0.39687,-0.529167 0.0882,-0.17639 0.15519,-0.36508 0.26459,-0.529167 0.10377,-0.155667 0.28462,-0.247205 0.39687,-0.396875 0.0592,-0.07888 0.0776,-0.182538 0.13229,-0.264583 0.0346,-0.05189 0.0977,-0.0804 0.13229,-0.132292 0.0547,-0.08204 0.0731,-0.1857 0.1323,-0.264583 0.0748,-0.09978 0.18974,-0.164804 0.26458,-0.264583 0.11832,-0.157769 0.15519,-0.36508 0.26458,-0.529167 0.40403,-0.606046 -0.21501,0.562316 0.26459,-0.396875 0.0882,-0.17639 0.12513,-0.389718 0.26458,-0.529166 0.0697,-0.06972 0.20542,-0.05341 0.26458,-0.132292 0.20036,-0.267147 0.0662,-0.463061 0.39688,-0.79375 0.0882,-0.08819 0.2088,-0.153025 0.26458,-0.264583 0.0197,-0.03944 -0.0197,-0.09285 0,-0.132292 0.0279,-0.05578 0.0765,-0.104402 0.13229,-0.132292 0.0407,-0.02035 0.35617,-0.02035 0.39688,0 0.0558,0.02789 0.0882,0.08819 0.13229,0.132292 0.45325,0.453252 0.11477,0.05899 0.39687,0.529167 0.16361,0.272674 0.3714,0.517657 0.52917,0.79375 0.0978,0.171225 0.16006,0.361934 0.26458,0.529166 0.11686,0.186971 0.28344,0.340101 0.39688,0.529167 0.15219,0.253659 0.25663,0.533294 0.39687,0.79375 0.3838,0.712756 0.80051,1.407356 1.19063,2.116666 0.53255,0.968283 1.11071,1.913494 1.5875,2.910417 0.31982,0.668719 0.88293,2.179651 1.19062,2.910417 0.58931,1.399603 0.51304,1.033462 1.05834,2.513541 0.52784,1.432714 0.93024,2.893108 1.32291,4.365625 0.19552,0.733192 0.37811,1.22908 0.52917,1.984375 0.18256,0.912815 0.2553,1.857907 0.39688,2.778125 0.0671,0.436274 0.22971,1.301316 0.26458,1.719792 0.0183,0.219723 0,0.440973 0,0.661458 0,0.661459 0,1.322917 0,1.984375 0,0.352777 -0.0499,0.709102 0,1.058334 0.0257,0.17999 0.1024,0.349824 0.13229,0.529166 0.029,0.17399 0,0.352777 0,0.529167 0,0.396875 0,0.79375 0,1.190625 0,0.17639 -0.0428,0.358045 0,0.529166 0.0239,0.09566 0.10838,0.168924 0.13229,0.264584 0.0428,0.171122 -0.0428,0.358045 0,0.529166 0.0239,0.09566 0.10838,0.168924 0.13229,0.264584 0.0428,0.171122 -0.0558,0.361828 0,0.529166 0.0197,0.05916 0.11257,0.07313 0.1323,0.132292 0.0418,0.125503 0,0.264583 0,0.396875 0,0.0441 0.0197,0.171733 0,0.132292 -0.27193,-0.543857 -0.0395,-0.237051 -0.1323,-0.79375 -0.0229,-0.137552 -0.094,-0.262792 -0.13229,-0.396875 -0.0999,-0.349644 -0.1857,-0.703358 -0.26458,-1.058334 -0.10695,-0.481282 -0.14501,-0.976907 -0.26458,-1.455208 -0.0677,-0.270568 -0.19121,-0.524682 -0.26459,-0.79375 -0.0592,-0.216929 -0.0731,-0.444529 -0.13229,-0.661458 -0.0734,-0.269068 -0.1912,-0.524682 -0.26458,-0.79375 -0.0592,-0.216929 -0.0677,-0.446088 -0.13229,-0.661458 -0.0682,-0.227457 -0.19635,-0.434004 -0.26459,-0.661459 -0.0646,-0.215371 -0.0677,-0.446087 -0.13229,-0.661458 -0.16212,-0.540385 -0.33714,-0.653026 -0.39687,-1.190625 -0.0243,-0.219139 0.0273,-0.442674 0,-0.661458 -0.0173,-0.138372 -0.11257,-0.258829 -0.1323,-0.396875 0,-1.1444 0.0558,0.01431 -0.13229,-0.926042 -0.0149,-0.07429 0.0257,-0.768096 0,-0.79375 -0.0312,-0.03118 -0.10111,0.03118 -0.13229,0 -0.0312,-0.03118 0.0312,-0.101111 0,-0.132292 -0.0312,-0.03118 -0.10111,0.03118 -0.13229,0 -0.0312,-0.03118 0.0394,-0.112569 0,-0.132291 -0.23543,-0.117714 -0.32854,0.09216 -0.52917,0.132291 -0.12972,0.02596 -0.26638,-0.02175 -0.39687,0 -0.13755,0.02291 -0.25933,0.109366 -0.39688,0.132292 -0.13049,0.02175 -0.26591,-0.01871 -0.39687,0 -0.17999,0.02572 -0.34876,0.109739 -0.52917,0.132292 -0.3063,0.03829 -0.61736,0 -0.92604,0 -0.61736,0 -1.23472,0 -1.85208,0 -0.48507,0 -0.97014,0 -1.45521,0 -0.26459,0 -0.53026,0.02394 -0.79375,0 -0.22393,-0.02035 -0.43753,-0.111935 -0.66146,-0.132292 -0.2635,-0.02394 -0.53026,0.02394 -0.79375,0 -0.22393,-0.02035 -0.43772,-0.109919 -0.66146,-0.132292 -0.21939,-0.02193 -0.44097,0 -0.66146,0 -0.22048,-0.0441 -0.43772,-0.109918 -0.66146,-0.132291 -0.43878,-0.04388 -0.88413,0.04388 -1.322913,0 -0.223737,-0.02238 -0.437981,-0.107461 -0.661458,-0.132292 -0.350621,-0.03896 -0.709102,0.04989 -1.058334,0 -0.138046,-0.01971 -0.259323,-0.109366 -0.396875,-0.132292 -0.260982,-0.0435 -0.529166,0 -0.79375,0 -0.440973,0 -0.881943,0 -1.322916,0"
       id="path5210"
       inkscape:connector-curvature="0" />
    <path
       style="fill:none;fill-opacity:1;stroke:#0e0a08;stroke-width:3;stroke-miterlimit:4;stroke-dasharray:none;stroke-opacity:1"
       d="m 121.97292,83.878139 c 0,-1.190625 0,-2.38125 0,-3.571875 0,-0.661458 -0.04,-1.324128 0,-1.984375 0.0483,-0.797171 0.19637,-1.585534 0.26458,-2.38125 0.0308,-0.359436 0.24749,-4.339592 0.26458,-4.630208 0.0415,-0.705713 0.0642,-1.413021 0.13229,-2.116667 0.32896,-2.467173 0.20417,-1.319802 0.39688,-3.439583 0.42211,-4.643263 -0.094,1.520592 0.13229,-2.778125 0.0558,-1.059463 0.25677,-2.124207 0.39688,-3.175 0.34193,-2.564514 -0.0679,0.343255 0.26458,-1.984375 0.028,-0.195821 0.2034,-1.475055 0.26458,-1.719792 0.0677,-0.270568 0.2147,-0.519353 0.26459,-0.79375 0.0394,-0.216929 -0.0478,-0.446222 0,-0.661458 0.0428,-0.192513 0.19533,-0.344514 0.26458,-0.529167 0.0638,-0.17024 0.0607,-0.36205 0.13229,-0.529166 0.0626,-0.14614 0.20195,-0.250735 0.26458,-0.396875 0.0716,-0.167116 0.0607,-0.362051 0.1323,-0.529167 0.10905,-0.254466 0.56326,-0.885468 0.79375,-1.058333 0.0789,-0.05916 0.18003,-0.08156 0.26458,-0.132292 0.13634,-0.0818 0.24263,-0.22602 0.39687,-0.264583 0.39237,-0.09809 1.94911,0.08231 2.24896,0.132291 1.43645,0.239409 2.89475,0.608632 4.23333,1.190625 0.54257,0.235898 1.05335,0.539391 1.5875,0.79375 0.39212,0.186725 0.80217,0.334939 1.19063,0.529167 0.97906,0.489532 1.15574,0.638199 1.98437,1.190625 0.26459,0.17639 0.54764,0.327803 0.79375,0.529167 0.65723,0.537726 1.1784,1.247994 1.5875,1.984375 0.35646,0.64162 0.60488,1.095033 0.52917,1.852083 -0.14438,1.443815 -1.40351,2.188895 -2.51354,2.910417 -1.32612,0.861975 -1.1648,0.715981 -2.51354,1.322916 -1.2952,0.58284 -1.56463,0.762418 -2.91042,1.190625 -0.47912,0.152448 -0.97576,0.24547 -1.45521,0.396875 -0.35927,0.113456 -0.7009,0.277731 -1.05833,0.396875 -0.30456,0.101521 -0.6192,0.170172 -0.92604,0.264584 -1.02404,0.315089 -2.04822,0.660535 -3.04271,1.058333 -0.22049,0.08819 -0.44445,0.168137 -0.66146,0.264583 -0.18021,0.0801 -0.34451,0.19534 -0.52916,0.264584 -0.17025,0.06384 -0.35435,0.08234 -0.52917,0.132291 -0.32555,0.09302 -0.89641,0.249767 -1.19063,0.396875 -0.0558,0.02789 -0.0731,0.11257 -0.13229,0.132292 -0.0517,0.01722 -0.39687,-0.07454 -0.39687,0.132292 0,0.0441 0.0882,0 0.13229,0 0.0882,0 0.1781,0.0173 0.26458,0 0.13674,-0.02735 0.25883,-0.11257 0.39688,-0.132292 0.30557,-0.04365 0.62046,0.04365 0.92604,0 0.17999,-0.02572 0.34875,-0.109741 0.52917,-0.132292 0.17502,-0.02188 0.35413,0.02188 0.52916,0 0.18042,-0.02254 0.34846,-0.112212 0.52917,-0.132291 0.21914,-0.02434 0.44232,0.02434 0.66146,0 0.36141,-0.04016 0.70555,-0.17639 1.05833,-0.264584 0.35278,-0.08819 0.71336,-0.149592 1.05833,-0.264583 0.0935,-0.03118 0.17304,-0.09567 0.26459,-0.132292 0.12947,-0.05179 0.2674,-0.0805 0.39687,-0.132291 0.18311,-0.07324 0.36508,-0.155192 0.52917,-0.264584 0.0519,-0.03459 0.0765,-0.104402 0.13229,-0.132291 0.0394,-0.01971 0.10111,0.03118 0.13229,0 0.0312,-0.03118 -0.0312,-0.101111 0,-0.132292 0.0312,-0.03118 0.0928,-0.01971 0.13229,0 0.29228,0.146137 0.25692,0.451517 0.39688,0.661458 0.10378,0.155668 0.26458,0.264584 0.39687,0.396875 0.1323,0.17639 0.2785,0.343152 0.39688,0.529167 0.46464,0.730152 0.85827,1.518806 1.32291,2.248958 0.34145,0.536551 0.70072,1.061593 1.05834,1.5875 0.39206,0.576564 0.78937,1.149586 1.19062,1.719792 0.43662,0.62045 0.9253,1.20595 1.32292,1.852083 0.31007,0.503865 0.51045,1.068115 0.79375,1.5875 0.24625,0.451464 0.53301,0.87966 0.79375,1.322917 0.18026,0.306438 0.33196,0.630229 0.52917,0.926041 0.15662,0.234937 0.35581,0.438576 0.52916,0.661459 0.51952,0.667948 1.07527,1.356778 1.45521,2.116666"
       id="path5212"
       inkscape:connector-curvature="0" />
    <path
       style="fill:none;fill-opacity:1;stroke:#0e0a08;stroke-width:3;stroke-miterlimit:4;stroke-dasharray:none;stroke-opacity:1"
       d="m 153.59062,49.879181 c 0.21063,1.090028 0.13229,2.203477 0.13229,3.307292 0,0.61736 0.0373,1.235853 0,1.852083 -0.051,0.840933 -0.1883,1.674524 -0.26458,2.513542 -0.10013,1.10141 -0.16877,2.205498 -0.26458,3.307291 -0.24928,2.866724 -0.58375,5.728933 -0.79375,8.598959 -0.038,0.519456 -0.23848,4.70245 -0.26459,5.159375 -0.0378,0.661847 -0.10681,1.321937 -0.13229,1.984375 -0.0356,0.925356 0,1.852083 0,2.778124 0,0.352777 0.0251,0.706451 0,1.058334 -0.0413,0.578535 -0.2201,1.141492 -0.26458,1.719791 -0.0203,0.263803 0.022,0.53008 0,0.79375 -0.0445,0.534612 -0.21601,1.053238 -0.26458,1.5875 -0.0974,1.071603 0.13381,0.259274 -0.1323,1.190625 -0.0441,0.132292 -0.0882,0.264584 -0.13229,0.396875 0,0.08819 0.0214,0.179023 0,0.264584 -0.0239,0.09566 -0.10837,0.168923 -0.13229,0.264583 -0.0321,0.128341 0,0.264583 0,0.396875 0,0.08819 0,0.17639 0,0.264583 0,0.0441 -0.0441,0.132292 0,0.132292 0.20713,0 0.40865,-0.300461 0.52917,-0.396875 0.12415,-0.09933 0.25883,-0.1857 0.39687,-0.264583 0.42807,-0.244608 0.88883,-0.427718 1.32292,-0.661459 1.67828,-0.903689 0.16834,-0.216942 2.38125,-1.190625 0.61479,-0.270507 1.22845,-0.544298 1.85208,-0.79375 1.36079,-0.544314 1.46238,-0.401656 2.64584,-1.190625 2.12567,-1.417116 3.58859,-2.556107 5.29166,-4.365625 0.32127,-0.341352 0.6413,-0.685969 0.92604,-1.058333 0.59219,-0.774401 1.33573,-2.078281 1.7198,-2.910416 0.25738,-0.557673 0.49585,-1.128337 0.66145,-1.719792 0.26312,-0.939705 0.32632,-2.354715 0.39688,-3.307292 0.12622,-1.703985 0.28796,-3.346085 -0.13229,-5.027083 -0.0914,-0.365517 -0.26459,-0.705556 -0.39688,-1.058333 -0.13229,-0.352777 -0.24846,-0.712031 -0.39687,-1.058334 -0.38575,-0.900086 -0.94586,-1.68584 -1.45521,-2.513541 -0.18633,-0.302784 -0.36061,-0.613013 -0.52917,-0.926042 -0.14024,-0.260456 -0.23806,-0.544184 -0.39687,-0.79375 -0.40666,-0.639032 -0.67991,-0.755451 -1.19063,-1.322917 -0.18889,-0.209875 -0.34028,-0.451582 -0.52916,-0.661458 -0.55345,-0.614944 -1.19454,-1.094343 -1.85209,-1.5875 -0.17639,-0.132292 -0.34219,-0.280016 -0.52916,-0.396875 -0.33447,-0.209042 -0.71589,-0.333481 -1.05834,-0.529167 -0.13804,-0.07888 -0.25073,-0.201951 -0.39687,-0.264583 -0.16712,-0.07162 -0.35435,-0.08234 -0.52917,-0.132292 -0.13408,-0.03831 -0.25932,-0.109365 -0.39687,-0.132291 -0.1305,-0.02175 -0.26639,0.02175 -0.39688,0 -0.13755,-0.02291 -0.25932,-0.109366 -0.39687,-0.132292 -0.21749,-0.03625 -0.44526,0.04324 -0.66146,0 -0.13674,-0.02735 -0.25933,-0.109365 -0.39688,-0.132292 -0.77782,-0.129635 -0.0168,0.178483 -0.79375,-0.132291 -0.0614,-0.02455 -0.60004,-0.240017 -0.66146,-0.264584 -0.2737,-0.109481 -0.52004,-0.287393 -0.79375,-0.396875 -0.26892,-0.107569 -0.42877,-0.10946 -0.66145,-0.264583 -0.0519,-0.03459 -0.0804,-0.0977 -0.1323,-0.132292 -0.24423,-0.162821 -0.54951,-0.234055 -0.79375,-0.396875 -0.14593,-0.09729 -0.24059,-0.318732 -0.39687,-0.396875 -0.0394,-0.01971 -0.0928,0.01971 -0.13229,0 -0.0558,-0.02789 -0.0804,-0.0977 -0.13229,-0.132291 -0.0821,-0.0547 -0.19486,-0.06257 -0.26459,-0.132292 -0.0697,-0.06972 -0.0776,-0.182539 -0.13229,-0.264583 -0.0346,-0.05189 -0.1044,-0.07651 -0.13229,-0.132292 -0.0197,-0.03944 0.0197,-0.09285 0,-0.132291 -0.0279,-0.05578 -0.1044,-0.07651 -0.13229,-0.132292 -0.0197,-0.03944 0.0312,-0.101111 0,-0.132292 -0.0312,-0.03118 -0.10111,0.03118 -0.13229,0 -0.0312,-0.03118 0,-0.08819 0,-0.132291 0,-0.208236 -0.0394,-0.163243 0.26458,-0.264584 0.0837,-0.02789 0.17639,0 0.26458,0 0.49713,0 0.3428,-0.05408 0.79375,0.396875 z"
       id="path5216"
       inkscape:connector-curvature="0" />
    <path
       style="fill:none;fill-opacity:1;stroke:#0e0a08;stroke-width:3;stroke-miterlimit:4;stroke-dasharray:none;stroke-opacity:1"
       d="m 98.821874,58.345848 c -0.106564,0.693515 -0.22555,1.385234 -0.319691,2.080543 -0.01254,0.0927 0.01834,0.188907 0,0.280633 -0.01368,0.06837 -0.07987,0.118721 -0.09354,0.187089 -0.01834,0.09173 0.01537,0.188362 0,0.280633 -0.01622,0.09726 -0.07734,0.18337 -0.09355,0.280633 -0.01537,0.09227 0.01537,0.188362 0,0.280633 -0.01622,0.09726 -0.07733,0.18337 -0.09354,0.280633 -0.01537,0.09227 0.01537,0.188362 0,0.280633 -0.03242,0.194527 -0.124725,0.374179 -0.187089,0.561266 -0.06236,0.187089 -0.09889,0.384879 -0.187087,0.561266 -0.03149,0.06297 -0.2573,0.351044 -0.280633,0.467722 -0.01834,0.09173 0.01834,0.188905 0,0.280633 -0.01368,0.06837 -0.06765,0.122352 -0.09355,0.18709 -0.07324,0.183102 -0.113848,0.378161 -0.187087,0.561266 -0.0259,0.06473 -0.06765,0.122351 -0.09355,0.187087 -0.03662,0.09155 -0.04281,0.196082 -0.09354,0.280633 -0.04538,0.07563 -0.141713,0.111463 -0.187089,0.187089 -0.05073,0.08455 -0.05692,0.189082 -0.09354,0.280633 -0.0259,0.06474 -0.06236,0.124727 -0.09354,0.18709 -0.06236,0.124724 -0.159742,0.237437 -0.18709,0.374176 -0.01833,0.09173 0.01537,0.188362 0,0.280633 -0.01622,0.09726 -0.07733,0.183369 -0.09354,0.280633 -0.01537,0.09227 0,0.187089 0,0.280633 -0.03118,0.09355 -0.07734,0.183369 -0.09355,0.280633 -0.02564,0.153786 0.03058,0.314843 0,0.467722 -0.01934,0.09669 -0.07733,0.18337 -0.09354,0.280633 -0.02564,0.153787 0.03058,0.314841 0,0.467723 -0.01934,0.09669 -0.07421,0.183943 -0.09354,0.280633 -0.02749,0.137451 0,0.324456 0,0.467719 0,0.03118 0.02682,0.109451 0,0.09355 -0.187341,-0.111104 -0.344469,-0.26665 -0.516702,-0.399974"
       id="path5218"
       inkscape:connector-curvature="0" />
    <path
       style="fill:none;fill-opacity:1;stroke:#0e0a08;stroke-width:3;stroke-miterlimit:4;stroke-dasharray:none;stroke-opacity:1"
       d="m 91.281249,98.297931 c -0.917615,0.448405 -1.956448,0.47576 -2.910417,0.79375 -0.450569,0.15019 -0.872347,0.378975 -1.322916,0.529166 -0.344975,0.114991 -0.713359,0.149593 -1.058334,0.264584 -0.937934,0.312649 -2.305854,0.826259 -3.175,1.322919 -0.794887,0.45422 -1.544566,1.13696 -2.116666,1.85208 -0.780169,0.97521 -0.299133,0.49856 -0.79375,1.32292 -0.08015,0.13357 -0.733269,1.02051 -0.79375,1.32291 -0.08648,0.43241 0,0.88195 0,1.32292 0,0.39308 -0.06441,0.72935 0.264583,1.05833 0.278895,0.2789 0.742799,0.29252 1.058333,0.52917 0.199562,0.14967 0.315265,0.40083 0.529167,0.52917 0.239152,0.14349 0.529167,0.17639 0.79375,0.26458 0.879716,0.29324 1.738196,0.59205 2.645833,0.79375 0.438997,0.0976 0.89629,0.12238 1.322917,0.26458 0.374176,0.12473 0.684157,0.40445 1.058333,0.52917 1.508728,0.50291 1.024718,0.0205 2.38125,0.52917 1.159362,0.43476 2.600198,1.56468 3.704167,2.11666 0.249452,0.12473 0.544298,0.13986 0.79375,0.26459 0.284419,0.14221 0.521076,0.36556 0.79375,0.52916 0.338209,0.20293 0.742799,0.29252 1.058333,0.52917 0.199562,0.14967 0.329605,0.37949 0.529167,0.52917 0.157766,0.11832 0.371401,0.14626 0.529166,0.26458 0.399122,0.29934 0.74667,0.66876 1.058334,1.05833 0.468624,0.58578 0.909105,1.37053 1.058333,2.11667 0.08648,0.43241 0,0.88194 0,1.32292 0,0.26458 0.09826,0.54809 0,0.79375 -0.09264,0.23161 -0.400825,0.31526 -0.529167,0.52916 -0.143491,0.23916 -0.06737,0.59654 -0.264583,0.79375 -0.19721,0.19721 -0.554598,0.1211 -0.79375,0.26459 -0.213902,0.12834 -0.315264,0.40082 -0.529167,0.52916 -0.700367,0.42023 -1.680882,0.37353 -2.38125,0.79375 -0.213902,0.12835 -0.315264,0.40083 -0.529166,0.52917 -0.700368,0.42022 -1.680882,0.37353 -2.38125,0.79375 -0.213903,0.12834 -0.329605,0.37949 -0.529167,0.52917 -0.256566,0.19242 -1.080373,0.48065 -1.322916,0.52916 -0.172964,0.0346 -0.361829,-0.0558 -0.529167,0 -0.62747,0.20916 0.167603,0.26459 -0.79375,0.26459"
       id="path5220"
       inkscape:connector-curvature="0" />
    <path
       style="fill:none;fill-opacity:1;stroke:#0e0a08;stroke-width:3;stroke-miterlimit:4;stroke-dasharray:none;stroke-opacity:1"
       d="m 103.98125,128.19585 c 0.0882,-0.61736 0.11333,-1.24708 0.26458,-1.85209 0.11519,-0.46076 0.4042,-0.86471 0.52917,-1.32291 0.14115,-0.51757 0.18301,-1.05728 0.26458,-1.5875 0.18966,-1.23276 0.35278,-2.46945 0.52917,-3.70417 0.26458,-1.85208 0.52917,-3.70417 0.79375,-5.55625 0.0882,-0.61736 0.21675,-1.23029 0.26458,-1.85208 0.0406,-0.52761 -0.0406,-1.05989 0,-1.5875 0.0478,-0.62179 0.21675,-1.23029 0.26459,-1.85209 0.0406,-0.5276 -0.0406,-1.05989 0,-1.5875 0.1162,-1.51071 0.49723,-3.01531 0.79375,-4.49791 0.0882,-0.44098 0.21492,-0.87596 0.26458,-1.32292 0.039,-0.35062 -0.0499,-0.7091 0,-1.05833 0.0394,-0.2761 0.21873,-0.518652 0.26458,-0.793753 0.11026,-0.661537 0,-1.44227 0,-2.116666 0,-1.499307 0,-2.998611 0,-4.497917"
       id="path5222"
       inkscape:connector-curvature="0" />
    <path
       style="fill:none;fill-opacity:1;stroke:#0e0a08;stroke-width:3;stroke-miterlimit:4;stroke-dasharray:none;stroke-opacity:1"
       d="m 96.572915,103.06043 c 1.1264,-0.50678 2.288472,-0.12069 3.439585,-0.26458 0.36083,-0.0451 0.6975,-0.21948 1.05833,-0.26459 0.6126,-0.0766 1.24093,0.0873 1.85209,0 0.35998,-0.0514 0.69692,-0.22442 1.05833,-0.26458 0.43827,-0.0487 0.88464,0.0487 1.32292,0 0.36141,-0.0402 0.6975,-0.21948 1.05833,-0.26458 0.83831,-0.10479 1.79656,0 2.64583,0 1.94028,0 3.88056,0 5.82084,0"
       id="path5224"
       inkscape:connector-curvature="0" />
    <path
       style="fill:none;fill-opacity:1;stroke:#0e0a08;stroke-width:3;stroke-miterlimit:4;stroke-dasharray:none;stroke-opacity:1"
       d="m 114.3,127.4021 c 0.72514,-2.07864 0.94203,-4.25224 1.5875,-6.35 0.53807,-1.74874 1.20342,-3.49931 1.5875,-5.29167 0.13067,-0.60978 0.12435,-1.24443 0.26458,-1.85208 0.12543,-0.54351 0.36513,-1.05438 0.52917,-1.5875 0.18882,-0.61367 0.29868,-1.25282 0.52917,-1.85209 0.21238,-0.55219 0.5662,-1.04138 0.79375,-1.5875 0.21453,-0.51488 0.33854,-1.06329 0.52916,-1.5875 0.48571,-1.33568 1.13812,-2.62061 1.5875,-3.96875 0.11499,-0.34497 0.13691,-0.71785 0.26459,-1.05833 0.13848,-0.3693 0.37379,-0.69581 0.52916,-1.05833 0.38221,-0.89182 0.19351,-0.84511 0.52917,-1.852086 0.12472,-0.374177 0.38268,-0.692126 0.52917,-1.058333 0.10357,-0.258948 0.161,-0.534803 0.26458,-0.79375 0.14648,-0.366208 0.4335,-0.675693 0.52917,-1.058334 0.0428,-0.171122 -0.0558,-0.361828 0,-0.529166 0.0789,-0.236652 0.4176,-0.306052 0.52916,-0.529167 0.0394,-0.07888 -0.0624,-0.202221 0,-0.264583 0.0624,-0.06236 0.20222,-0.06236 0.26459,0 0.13944,0.139448 0.14625,0.371401 0.26458,0.529166 0.14967,0.199562 0.40082,0.315265 0.52917,0.529167 0.17301,0.288353 0.46626,1.631929 0.52916,1.852083 0.0766,0.268166 0.22999,0.517009 0.26459,0.79375 0.0547,0.437568 -0.0957,0.892445 0,1.322913 0.0856,0.38503 0.41583,0.68055 0.52916,1.05834 0.15415,0.51384 0.12343,1.06994 0.26459,1.5875 0.12496,0.4582 0.37897,0.87234 0.52916,1.32291 0.20304,0.60912 0.34035,1.23842 0.52917,1.85209 0.16404,0.53312 0.37593,1.05117 0.52917,1.5875 0.57513,2.01298 1.04801,4.06235 1.5875,6.08541 0.33087,1.24078 0.76958,2.45292 1.05833,3.70417 0.12063,0.52273 0.13447,1.06705 0.26458,1.5875 0.13529,0.54114 0.3824,1.04936 0.52917,1.5875 0.11832,0.43386 0.16703,0.88392 0.26458,1.32292 0.15777,0.70995 0.42632,1.3967 0.52917,2.11666 0.0374,0.26193 0,0.52917 0,0.79375 0.0882,0.35278 0.2048,0.69965 0.26458,1.05834 0.029,0.17399 -0.0428,0.35804 0,0.52916 0.0478,0.19132 0.21675,0.33785 0.26458,0.52917 0.0856,0.34224 -0.11155,0.72366 0,1.05833 0.0394,0.11833 0.20881,0.15303 0.26459,0.26459 0.0781,0.15614 0,0.61591 0,0.79375"
       id="path5226"
       inkscape:connector-curvature="0" />
    <path
       style="fill:none;fill-opacity:1;stroke:#0e0a08;stroke-width:3;stroke-miterlimit:4;stroke-dasharray:none;stroke-opacity:1"
       d="m 118.00417,116.02501 c 0.44097,0 0.88637,0.0624 1.32291,0 0.19523,-0.0279 0.33579,-0.2259 0.52917,-0.26458 0.43241,-0.0865 0.88194,0 1.32292,0 0.88194,0 1.76388,0 2.64583,0 0.26458,0 0.53707,0.0642 0.79375,0 0.19132,-0.0478 0.33784,-0.21675 0.52917,-0.26458 0.34224,-0.0856 0.72365,0.11156 1.05833,0 0.11832,-0.0394 0.15302,-0.20881 0.26458,-0.26459 0.28222,-0.14111 0.77611,0.14111 1.05834,0 0.11155,-0.0558 0.15302,-0.2088 0.26458,-0.26458 0.0789,-0.0394 0.20222,0.0624 0.26458,0 0.0624,-0.0624 -0.0624,-0.20222 0,-0.26458 0.12473,-0.12473 0.3714,0.0789 0.52917,0 0.11156,-0.0558 0.15302,-0.20881 0.26458,-0.26459 0.21167,-0.10583 0.58209,0.10584 0.79375,0 0.11156,-0.0558 0.15303,-0.2088 0.26459,-0.26458 0.21973,-0.10987 0.8075,0 1.05833,0"
       id="path5228"
       inkscape:connector-curvature="0" />
    <path
       style="fill:none;fill-opacity:1;stroke:#0e0a08;stroke-width:3;stroke-miterlimit:4;stroke-dasharray:none;stroke-opacity:1"
       d="m 144.19791,92.741681 c 0,3.518299 0.13945,-0.30752 -0.26458,2.116666 -0.0435,0.260983 0.0374,0.531826 0,0.79375 -0.0514,0.359982 -0.21948,0.697505 -0.26458,1.058334 -0.0984,0.787619 0.079,1.591439 0,2.38125 -0.32399,3.239899 -0.24529,-0.779955 -0.52917,2.910419 -0.0879,1.14315 0,2.29305 0,3.43958 0,2.73403 0,5.46806 0,8.20208 0,0.88195 0.0878,1.76827 0,2.64584 -0.0447,0.44747 -0.21984,0.87544 -0.26458,1.32291 -0.0439,0.43879 0,0.88195 0,1.32292 0,1.14653 0,2.29306 0,3.43958 0,0.70556 0,1.41111 0,2.11667 0,0.26458 -0.0435,0.53277 0,0.79375 0.0459,0.2751 0.20989,0.52027 0.26458,0.79375 0.11536,0.5768 0,1.77362 0,2.38125 0,0.17639 -0.0428,0.35804 0,0.52917 0.0478,0.19132 0.21675,0.33784 0.26458,0.52916 0.11,0.43998 0,1.35471 0,1.85209 0,0.52916 0,1.05833 0,1.5875 0,0.0882 -0.0882,0.26458 0,0.26458 0.12473,0 0.15303,-0.2088 0.26459,-0.26458 0.0789,-0.0394 0.18091,0.0279 0.26458,0 0.37418,-0.12473 0.67569,-0.43351 1.05833,-0.52917 0.17113,-0.0428 0.35805,0.0428 0.52917,0 0.19132,-0.0478 0.33579,-0.22591 0.52917,-0.26458 0.34592,-0.0692 0.72366,0.11156 1.05833,0 0.18709,-0.0624 0.33579,-0.22591 0.52917,-0.26459 0.25944,-0.0519 0.5343,0.0519 0.79375,0 0.38676,-0.0773 0.67569,-0.4335 1.05833,-0.52916 0.17112,-0.0428 0.35805,0.0428 0.52917,0 0.19132,-0.0478 0.33784,-0.21676 0.52916,-0.26459 0.17113,-0.0428 0.35805,0.0428 0.52917,0 0.38264,-0.0957 0.67569,-0.4335 1.05833,-0.52916 0.17113,-0.0428 0.35805,0.0428 0.52917,0 1.2161,-0.30403 0.06,-0.26459 0.79375,-0.26459"
       id="path5230"
       inkscape:connector-curvature="0" />
    <path
       style="fill:none;fill-opacity:1;stroke:#0e0a08;stroke-width:3;stroke-miterlimit:4;stroke-dasharray:none;stroke-opacity:1"
       d="m 151.07708,91.418764 c 0.26769,0.899607 -0.39549,1.5792 -0.52917,2.38125 -0.0435,0.260982 0.0374,0.531826 0,0.79375 -0.0514,0.359981 -0.22442,0.696923 -0.26458,1.058333 -0.0487,0.438275 0,0.881944 0,1.322917 0,0.97014 0,1.940277 0,2.910417 0,2.116669 0,4.233329 0,6.349999 0,2.55764 0,5.11528 0,7.67292 0,0.70555 0,1.41111 0,2.11666 0,0.52917 -0.0748,1.06366 0,1.5875 0.0514,0.35999 0.21316,0.69836 0.26458,1.05834 0.12348,0.8643 -0.12347,1.78152 0,2.64583 0.0514,0.35998 0.20481,0.69965 0.26459,1.05833 0.0725,0.43498 0,0.88195 0,1.32292 0,0.61736 0,1.23472 0,1.85208 0,0.0882 0,0.17639 0,0.26459 0,0.0882 -0.0882,0.26458 0,0.26458 0.12472,0 0.1608,-0.1954 0.26458,-0.26458 0.16409,-0.1094 0.36508,-0.15519 0.52917,-0.26459 0.61057,-0.40705 0.97692,-1.18045 1.5875,-1.5875 0.16408,-0.10939 0.38972,-0.12513 0.52916,-0.26458 0.0624,-0.0624 -0.0624,-0.20222 0,-0.26458 0.13945,-0.13945 0.36508,-0.15519 0.52917,-0.26459 0.10378,-0.0692 0.14626,-0.22514 0.26458,-0.26458 0.16734,-0.0558 0.35805,0.0428 0.52917,0 0.76735,-0.19184 0.30963,-0.20642 0.79375,-0.52917 0.89943,-0.59961 0.1419,-0.0355 1.05833,-0.26458 0.38265,-0.0957 0.6757,-0.43351 1.05834,-0.52917 0.17592,-0.044 1.79588,0.0562 1.85208,0 0.0624,-0.0624 -0.0624,-0.20222 0,-0.26458 0.12231,-0.12231 0.634,0.0799 0.79375,0 0.11156,-0.0558 0.16081,-0.1954 0.26458,-0.26458 0.47494,-0.31663 0.79888,-0.26459 1.32292,-0.26459"
       id="path5232"
       inkscape:connector-curvature="0" />
    <path
       style="fill:none;fill-opacity:1;stroke:#0e0a08;stroke-width:3;stroke-miterlimit:4;stroke-dasharray:none;stroke-opacity:1"
       d="m 165.89375,130.84168 c -0.41129,-2.62559 -0.26459,-5.29018 -0.26459,-7.9375 0,-0.70556 -0.044,-1.41249 0,-2.11667 0.0444,-0.70966 0.22023,-1.407 0.26459,-2.11666 0.044,-0.70418 -0.044,-1.41249 0,-2.11667 0.0443,-0.70966 0.22023,-1.407 0.26458,-2.11667 0.14066,-2.25053 -0.22411,-1.85109 0.26458,-3.96875 0.12543,-0.5435 0.43747,-1.0373 0.52917,-1.5875 0.087,-0.52196 -0.0479,-1.0605 0,-1.5875 0.28023,-3.0825 0.20053,0.24785 0.52917,-2.38125 0.0438,-0.35005 0,-0.70555 0,-1.05833 0.0882,-0.35278 0.21315,-0.69835 0.26458,-1.05833 0.0374,-0.26193 -0.0519,-0.53431 0,-0.79375 0.0387,-0.19338 0.21675,-0.33785 0.26458,-0.52917 0.0856,-0.34224 0,-0.70556 0,-1.05833 0,-0.617363 0,-1.234726 0,-1.852086 0,-0.17639 -0.12472,-0.404442 0,-0.529167 0.18248,-0.182478 0.49473,0.195699 0.52917,0.264584 0.12473,0.249451 0.13986,0.544298 0.26458,0.79375 1.51652,2.274779 -0.30167,-0.603343 0.79375,1.587499 0.62468,1.24935 0.57349,0.31025 0.79375,1.85208 0.19349,1.35442 -0.33009,0.26628 0.26459,1.85209 0.13849,0.3693 0.40444,0.68415 0.52916,1.05833 0.25713,0.77139 0.33196,1.59242 0.52917,2.38125 0.0882,0.35278 0.16469,0.70869 0.26458,1.05833 0.0766,0.26817 0.22515,0.51766 0.26459,0.79375 0.0499,0.34924 -0.058,0.71036 0,1.05834 0.0783,0.46958 0.63473,1.11043 0.79375,1.5875 0.0279,0.0837 -0.0394,0.1857 0,0.26458 0.0558,0.11156 0.13986,0.26458 0.26458,0.26458 0.12473,0 0.17639,-0.17639 0.26458,-0.26458 0.74535,-0.74535 1.03948,-1.65378 1.32292,-2.64583 0.0999,-0.34965 0.1369,-0.71785 0.26458,-1.05834 0.45267,-1.20711 1.23143,-2.32239 1.85209,-3.43958 0.19154,-0.34478 0.33348,-0.71588 0.52916,-1.05833 0.58182,-1.01818 1.28946,-2.08321 2.11667,-2.91042 0.25066,-0.25066 1.29773,-1.44261 1.5875,-1.587499 0.15777,-0.07888 0.35278,0 0.52917,0 0.0882,0 0.20222,-0.06236 0.26458,0 0.0624,0.06236 -0.0279,0.180909 0,0.264579 0.0624,0.18709 0.21675,0.33785 0.26458,0.52917 0.0428,0.17112 0,0.35278 0,0.52917 0,0.26458 0.0435,0.53276 0,0.79375 -0.0459,0.2751 -0.22514,0.51765 -0.26458,0.79375 -0.0499,0.34923 0.0438,0.70828 0,1.05833 -0.32864,2.6291 -0.24894,-0.70125 -0.52917,2.38125 -0.0479,0.52699 0,1.05833 0,1.5875 0,1.05833 0,2.11667 0,3.175 0,2.41905 0,1.28512 0,3.70417 0,0.70555 -0.0469,1.41267 0,2.11666 0.0415,0.62225 0.2231,1.22984 0.26459,1.85209 0.0821,1.23198 0,2.46944 0,3.70416 0,2.46945 0,4.93889 0,7.40834"
       id="path5234"
       inkscape:connector-curvature="0" />
    <path
       style="fill:none;fill-opacity:1;stroke:#0e0a08;stroke-width:3;stroke-miterlimit:4;stroke-dasharray:none;stroke-opacity:1"
       d="m 190.23541,130.04793 c 0.26459,-0.61736 0.58135,-1.21488 0.79375,-1.85208 0.14221,-0.42663 0.14626,-0.88906 0.26459,-1.32292 0.29353,-1.07627 0.73026,-2.10875 1.05833,-3.175 0.39556,-1.28557 0.75109,-2.66297 1.05833,-3.96875 0.18624,-0.7915 0.29974,-1.60118 0.52917,-2.38125 0.21262,-0.72291 0.55546,-1.4018 0.79375,-2.11667 0.20304,-0.60911 0.32613,-1.24296 0.52917,-1.85208 0.68997,-2.06992 1.59968,-4.05334 2.38125,-6.08542 0.83807,-2.17898 0.18686,-0.94961 1.05833,-2.91041 0.16019,-0.36043 0.39068,-0.68903 0.52917,-1.05834 0.12768,-0.34048 0.16468,-0.70869 0.26458,-1.05833 0.0766,-0.26817 0.20989,-0.52027 0.26458,-0.79375 0.0346,-0.17296 0,-0.35278 0,-0.52917 0.0882,-0.17639 0.21676,-0.33784 0.26459,-0.52916 0.0428,-0.17112 -0.0558,-0.36183 0,-0.529169 0.0394,-0.118325 0.2088,-0.153025 0.26458,-0.264584 0.0394,-0.07888 -0.0394,-0.1857 0,-0.264583 0.0558,-0.111559 0.2088,-0.153025 0.26458,-0.264583 0.0395,-0.07888 -0.0882,-0.264584 0,-0.264584 0.36939,0 0.76491,1.250813 0.79375,1.322913 0.0732,0.18311 0.20223,0.34208 0.26459,0.52917 0.20304,0.60912 0.36023,1.23264 0.52916,1.85208 0.0957,0.35083 0.21948,0.69751 0.26459,1.05834 0.0437,0.35005 0,0.70555 0,1.05833 0.0882,0.52917 0.16861,1.05969 0.26458,1.5875 0.46881,2.57846 0.005,0.0174 0.79375,2.91042 1.36581,5.00799 -1.25146,-3.47193 0.79375,3.175 0.16404,0.53312 0.40374,1.04399 0.52917,1.5875 0.53565,2.32117 0.0981,1.27491 0.26458,3.43958 0.12417,1.61428 0.64767,3.1556 0.79375,4.7625 0.0399,0.43916 -0.0439,0.88413 0,1.32292 0.11787,1.17866 0.62756,2.27624 0.79375,3.43958 0.0374,0.26192 0,0.52917 0,0.79375 0.0882,0.26458 0.21873,0.51865 0.26458,0.79375 0.0435,0.26098 -0.0519,0.53431 0,0.79375 0.0387,0.19338 0.21676,0.33785 0.26459,0.52917 0.0642,0.25668 -0.0837,0.54274 0,0.79375 0.0624,0.18709 0.20222,0.34207 0.26458,0.52916 0.0558,0.16734 -0.0789,0.3714 0,0.52917 0.0558,0.11156 0.2088,0.15302 0.26458,0.26458 0.10987,0.21973 0,0.8075 0,1.05834"
       id="path5236"
       inkscape:connector-curvature="0" />
    <path
       style="fill:none;fill-opacity:1;stroke:#0e0a08;stroke-width:3;stroke-miterlimit:4;stroke-dasharray:none;stroke-opacity:1"
       d="m 193.14583,119.99376 c 0.65395,0.23921 2.18027,-0.18253 2.91042,0 0.19132,0.0478 0.33784,0.21676 0.52916,0.26459 0.34225,0.0856 0.72366,-0.11156 1.05834,0 0.11832,0.0394 0.14626,0.22514 0.26458,0.26458 0.16734,0.0558 0.35805,-0.0428 0.52917,0 0.19132,0.0478 0.33784,0.21675 0.52916,0.26458 0.34225,0.0856 0.71609,-0.0856 1.05834,0 0.19132,0.0478 0.33784,0.21676 0.52916,0.26459 0.17113,0.0428 0.35278,0 0.52917,0 0.17639,0.0882 0.34208,0.20222 0.52917,0.26458 0.0648,0.0216 2.27509,0.0531 2.38125,0 0.11156,-0.0558 0.15302,-0.2088 0.26458,-0.26458 0.15615,-0.0781 0.61592,0 0.79375,0"
       id="path5238"
       inkscape:connector-curvature="0" />
    <path
       style="fill:none;fill-opacity:1;stroke:#0e0a08;stroke-width:3;stroke-miterlimit:4;stroke-dasharray:none;stroke-opacity:1"
       d="m 212.19583,129.25418 c -0.0882,-0.52917 -0.21601,-1.05324 -0.26458,-1.5875 -0.0719,-0.79049 0,-1.5875 0,-2.38125 0,-1.14653 -0.0879,-2.29643 0,-3.43958 0.0478,-0.6218 0.17639,-1.23473 0.26458,-1.85209 0.66504,-4.65526 -0.1547,1.16028 0.52917,-3.96875 0.70879,-5.31598 -0.0887,1.59562 0.26458,-3.70416 0.0427,-0.64113 0.42644,-3.24964 0.52917,-3.96875 0.17639,-1.23473 0.32412,-2.47388 0.52916,-3.70417 0.0739,-0.44359 0.21984,-0.87544 0.26459,-1.32292 0.0439,-0.43878 -0.0439,-0.88413 0,-1.32291 0.0447,-0.44748 0.2088,-0.87669 0.26458,-1.32292 0.0656,-0.52508 -0.10378,-1.068609 0,-1.587499 0.30403,-1.520127 0.26458,0.07594 0.26458,-0.79375 0,-0.352777 0,-0.705557 0,-1.058334 0,-0.08819 0,-0.17639 0,-0.264583 0,-0.08819 -0.0882,-0.264583 0,-0.264583 0.20202,0 0.52822,0.791855 0.52917,0.79375 0.53855,1.077108 0.79801,2.26814 1.05833,3.439579 0.0976,0.439 0.13536,0.89218 0.26459,1.32292 0.13647,0.45491 0.36686,0.87657 0.52916,1.32292 0.19063,0.52421 0.31464,1.07261 0.52917,1.5875 0.4551,1.09223 1.12139,2.08742 1.5875,3.175 1.58718,3.70341 0.10278,0.55235 1.32292,3.96875 1.64313,4.60078 -0.14216,-0.94907 1.85208,3.70416 0.25292,0.59015 0.31322,1.24743 0.52917,1.85209 0.2259,0.63254 0.55263,1.22518 0.79375,1.85208 0.20023,0.52061 0.33854,1.06329 0.52916,1.5875 0.16231,0.44635 0.37898,0.87235 0.52917,1.32292 0.31762,0.95287 0.47491,1.95388 0.79375,2.91041 0.0882,0.26459 0.20989,0.52027 0.26458,0.79375 0.0519,0.25945 -0.11832,0.5571 0,0.79375 0.32695,0.65389 0.26459,-0.0913 0.26459,0.52917 0,0.6205 -0.0624,-0.12472 0.26458,0.52917 0.0394,0.0789 0,0.35277 0,0.26458 0,-1.57733 -0.0983,-3.19002 0,-4.7625 0.0553,-0.88462 0.18434,-1.76313 0.26458,-2.64583 0.48607,-5.83282 0.0355,-0.63725 0.52917,-5.82084 0.7229,-7.59039 -0.37938,2.27627 1.05833,-6.35 0.16015,-0.96088 0.16766,-1.94111 0.26459,-2.91041 0.0795,-0.79467 0.15903,-1.58962 0.26458,-2.38125 0.14774,-1.10802 0.44373,-2.3289 0.52917,-3.43959 0.0812,-1.055213 -0.10531,-2.121915 0,-3.174996 0.0362,-0.361831 0.21948,-0.697505 0.26458,-1.058333 0.0759,-0.60714 -0.14038,-1.819717 0,-2.38125 0.21037,-0.841492 0.26458,-0.20474 0.26458,-1.058334"
       id="path5240"
       inkscape:connector-curvature="0" />
    <path
       style="fill:none;fill-opacity:1;stroke:#0e0a08;stroke-width:3;stroke-miterlimit:4;stroke-dasharray:none;stroke-opacity:1"
       d="m 151.87083,150.42085 c 0.51632,4.41174 1.03657,8.82174 1.5875,13.22916 0.15471,1.23763 0.44031,2.46008 0.52917,3.70417 0.088,1.23158 -0.088,2.47258 0,3.70417 0.0889,1.24409 0.35277,2.46944 0.52916,3.70416 0.72702,5.08912 0.4342,3.37404 1.5875,9.525 0.16576,0.88401 0.35278,1.76389 0.52917,2.64584 0.17639,0.88194 0.16388,1.82394 0.52917,2.64583 0.35819,0.80593 1.09828,1.38284 1.5875,2.11667 4.16557,6.24836 -0.73545,-0.23576 3.175,4.23333 5.53961,6.33099 -1.02955,-0.37168 4.23333,4.23333 0.75093,0.65706 1.28644,1.56318 2.11667,2.11667 0.79035,0.5269 1.81548,0.59703 2.64583,1.05833 0.77096,0.42831 1.31074,1.22931 2.11667,1.5875 0.82189,0.36529 1.76389,0.35278 2.64583,0.52917 1.76389,0.35278 3.50177,0.87934 5.29167,1.05833 3.01946,0.30195 6.03967,-0.60354 8.99583,-1.05833 2.46551,-0.37931 4.96919,-0.53566 7.40833,-1.05833 2.51125,-0.53813 4.93889,-1.41111 7.40834,-2.11667 2.46944,-0.70556 4.98969,-1.25287 7.40833,-2.11667 1.26508,-0.45181 2.45037,-1.10527 3.70417,-1.5875 1.04122,-0.40047 2.14523,-0.62926 3.175,-1.05833 1.09223,-0.4551 2.0978,-1.09787 3.175,-1.5875 1.72948,-0.78613 3.59246,-1.26707 5.29166,-2.11667 0.56884,-0.28442 1.00295,-0.80781 1.5875,-1.05833 0.66847,-0.28649 1.4482,-0.24268 2.11667,-0.52917 1.24586,-0.53394 2.33204,-1.77363 3.70417,-2.11666 0.34224,-0.0856 0.72366,0.11155 1.05833,0 0.4733,-0.15777 0.6121,-0.83522 1.05833,-1.05834 0.15777,-0.0789 0.3714,0.0789 0.52917,0 0.44623,-0.22311 0.6121,-0.83522 1.05833,-1.05833 0.72991,-0.36496 0.47333,0.64085 1.05834,-0.52917 0.36495,-0.72991 -0.64085,-0.47332 0.52916,-1.05833 0.15777,-0.0789 0.3714,0.0789 0.52917,0 0.22312,-0.11156 0.30605,-0.41761 0.52917,-0.52917 0.15776,-0.0789 0.3714,0.0789 0.52916,0 0.22312,-0.11156 0.30606,-0.4176 0.52917,-0.52916 1.55724,-0.77862 -0.69669,1.22586 1.05833,-0.52917"
       id="path5242"
       inkscape:connector-curvature="0" />
    <path
       style="fill:none;fill-opacity:1;stroke:#0e0a08;stroke-width:3;stroke-miterlimit:4;stroke-dasharray:none;stroke-opacity:1"
       d="m 212.19583,182.70001 c 0.88194,-0.35277 1.73601,-0.78538 2.64583,-1.05833 0.86148,-0.25844 1.78436,-0.27072 2.64584,-0.52917 2.88865,-0.86659 5.50253,-2.49097 8.46666,-3.175 1.21532,-0.28046 2.4846,-0.26783 3.70417,-0.52916 13.68623,-2.93277 -7.26418,0.92366 7.9375,-2.11667 1.22304,-0.24461 2.47141,-0.33951 3.70417,-0.52917 2.12091,-0.32629 4.21295,-0.86405 6.35,-1.05833 0.87832,-0.0799 1.76826,0.0878 2.64583,0 0.89495,-0.0895 1.75192,-0.42984 2.64583,-0.52917 0.70124,-0.0779 1.41656,0.0875 2.11667,0 0.72165,-0.0902 1.39671,-0.42631 2.11667,-0.52916 1.14941,-0.16421 2.53075,0 3.70416,0 0.33184,0 2.0513,-0.0654 2.11667,0 0.41561,0.41561 -0.45315,1.96462 -0.52917,2.11666 -1.40728,2.81456 -3.40873,5.42693 -5.29166,7.9375 -4.08757,5.45009 0.81886,-1.47395 -2.64584,4.7625 -0.42831,0.77096 -1.09828,1.38285 -1.5875,2.11667 -1.80837,2.71255 -3.20767,5.61615 -4.7625,8.46667 -0.4925,0.90292 -1.16189,1.7095 -1.5875,2.64583 -0.85433,1.87952 -1.27816,3.9342 -2.11666,5.82083 -0.95151,2.1409 -2.3528,4.15745 -3.175,6.35 -0.25537,0.68097 -0.29919,1.42672 -0.52917,2.11667 -0.12473,0.37418 -0.38268,0.69213 -0.52917,1.05833 -0.20715,0.5179 -0.27971,1.0886 -0.52916,1.5875 -0.39821,0.79642 -1.05834,0.67746 -1.05834,2.11667"
       id="path5244"
       inkscape:connector-curvature="0" />
  </g>
</svg>
