<?xml version="1.0" encoding="UTF-8" standalone="no"?>
<!-- Created with Inkscape (http://www.inkscape.org/) -->

<svg
   xmlns:dc="http://purl.org/dc/elements/1.1/"
   xmlns:cc="http://creativecommons.org/ns#"
   xmlns:rdf="http://www.w3.org/1999/02/22-rdf-syntax-ns#"
   xmlns:svg="http://www.w3.org/2000/svg"
   xmlns="http://www.w3.org/2000/svg"
   xmlns:sodipodi="http://sodipodi.sourceforge.net/DTD/sodipodi-0.dtd"
   xmlns:inkscape="http://www.inkscape.org/namespaces/inkscape"
   width="1920"
   height="1080"
   viewBox="0 0 508.00002 285.74999"
   version="1.1"
   id="svg8"
   inkscape:version="0.92.4 5da689c313, 2019-01-14"
   sodipodi:docname="dibujo6.svg">
  <defs
     id="defs2" />
  <sodipodi:namedview
     id="base"
     pagecolor="#ffffff"
     bordercolor="#666666"
     borderopacity="1.0"
     inkscape:pageopacity="0.0"
     inkscape:pageshadow="2"
     inkscape:zoom="1"
     inkscape:cx="1517.1903"
     inkscape:cy="265.84123"
     inkscape:document-units="mm"
     inkscape:current-layer="layer1"
     showgrid="false"
     units="px"
     inkscape:window-width="1366"
     inkscape:window-height="768"
     inkscape:window-x="0"
     inkscape:window-y="0"
     inkscape:window-maximized="0"
     showguides="false" />
  <metadata
     id="metadata5">
    <rdf:RDF>
      <cc:Work
         rdf:about="">
        <dc:format>image/svg+xml</dc:format>
        <dc:type
           rdf:resource="http://purl.org/dc/dcmitype/StillImage" />
        <dc:title></dc:title>
      </cc:Work>
    </rdf:RDF>
  </metadata>
  <g
     inkscape:label="Capa 1"
     inkscape:groupmode="layer"
     id="layer1"
     transform="translate(0,-11.250015)">
    <path
       style="fill:none;fill-opacity:1;stroke:#0e0a08;stroke-width:3;stroke-miterlimit:4;stroke-dasharray:none;stroke-opacity:1"
       d="m 145.32211,55.673098 c -4.90546,-0.810514 -8.19348,1.010005 -12.72203,2.245064 -0.51052,0.139234 -7.72138,1.357477 -8.2319,1.496711 -2.59201,0.706911 -4.93474,2.143815 -7.48355,2.993416 -0.97573,0.325247 -2.03039,0.387221 -2.99342,0.748356 -5.18149,1.94306 -1.02681,0.733441 -5.23848,3.741774 -0.90778,0.648417 -2.13641,0.782532 -2.99342,1.496708 -0.69094,0.575789 -0.92092,1.554118 -1.49671,2.245064 -1.35505,1.626066 -3.11262,2.883036 -4.490133,4.490126 -3.06615,3.57718 -1.55155,2.15396 -3.74177,5.98684 -0.89246,1.56181 -2.28483,2.83675 -2.99342,4.49013 -1.52502,3.55839 -0.22965,2.3559 -0.74835,5.98683 -0.11156,0.78091 -0.6368,1.46416 -0.74836,2.24507 -0.14111,0.98778 0,1.99561 0,2.99342 0,1.24726 -0.1241,2.5007 0,3.741773 0.40393,4.03928 2.37943,7.47887 3.74178,11.22532 0.53915,1.48269 0.84386,3.05387 1.49671,4.49013 0.60189,1.32416 1.54855,2.46484 2.24506,3.74177 2.773433,5.08462 1.716703,3.89564 4.490133,8.98026 3.26135,5.97915 1.05114,1.57671 4.49013,6.73519 0.80683,1.21025 1.35206,2.59363 2.24506,3.74177 1.35813,1.74616 3.78335,3.49232 5.23848,5.23849 2.67576,3.2109 0.16415,1.50877 3.74178,4.49012 0.69094,0.57579 1.49671,0.99781 2.24506,1.49671 0.74836,0.49891 1.44061,1.09448 2.24506,1.49671 1.41111,0.70556 2.99342,0.99781 4.49013,1.49671 0.74836,0.24945 1.46416,0.6368 2.24507,0.74836 1.97555,0.28222 3.99122,0 5.98683,0 0.99781,0 2.00172,-0.11019 2.99342,0 1.26418,0.14046 2.46982,0.74835 3.74177,0.74835 0.55873,0 8.35372,-1.97654 8.98026,-2.24506 0.82669,-0.3543 1.46416,-1.05048 2.24507,-1.49671 2.32895,-1.33083 3.24948,-1.33592 5.23848,-2.99342 0.81303,-0.67753 1.43203,-1.56754 2.24506,-2.24506 3.2109,-2.67575 1.50877,-0.16415 4.49013,-3.74178 0.53728,-0.64474 2.45614,-3.84539 2.99342,-4.49013 0.67753,-0.81303 1.62992,-1.38386 2.24506,-2.24506 2.5954,-3.63355 0.6165,-1.98135 2.24507,-5.23848 0.40223,-0.80446 1.09448,-1.44061 1.49671,-2.24507 0.24945,-0.74835 0.4989,-1.4967 0.74835,-2.24506 0,-0.24945 -0.0789,-0.5117 0,-0.74836 0.17639,-0.52916 0.57197,-0.96754 0.74836,-1.4967 0.14965,-0.44896 0.20797,-2.57748 0,-2.99342 -0.32023,-0.64045 -3.31121,-3.39732 -3.74178,-3.74178 -0.70232,-0.56185 -1.54274,-0.93485 -2.24506,-1.49671 -0.55095,-0.44075 -0.94576,-1.05595 -1.49671,-1.4967 -2.75832,-2.20666 -1.41013,-0.84608 -3.74177,-2.24507 -0.77124,-0.46274 -1.47383,-1.03396 -2.24507,-1.49671 -0.4783,-0.28698 -1.0326,-0.43895 -1.49671,-0.74835 -0.29353,-0.19569 -0.43282,-0.59059 -0.74835,-0.74836 -0.22312,-0.11156 -0.51171,0.0789 -0.74836,0 -1.05833,-0.35278 -1.94886,-1.105 -2.99342,-1.49671 -1.47721,-0.55395 -2.99341,-0.9978 -4.49012,-1.49671 -0.74836,-0.24945 -1.47155,-0.59365 -2.24507,-0.74835 -1.55408,-0.31082 -5.67746,0 -7.48355,0 -0.72148,0 -3.8713,-0.30941 -4.49012,0 -0.31554,0.15777 -0.43282,0.59059 -0.74836,0.74835 -0.40597,0.20299 -2.78865,-0.20476 -2.99341,0 -0.17639,0.17639 0,0.49891 0,0.74836 0,0.24945 -0.11156,0.52524 0,0.74835 0.15776,0.31554 0.59058,0.43282 0.74835,0.74836 0.11156,0.22311 -0.17639,0.57196 0,0.74835 0.17639,0.17639 0.52524,-0.11156 0.74835,0 0.89497,0.44749 2.02551,2.11517 2.24507,2.99342 0.121,0.48401 -0.15777,1.02341 0,1.49671 0.11156,0.33468 0.55267,0.45483 0.74835,0.74836 0.30941,0.4641 0.43895,1.03259 0.74836,1.4967 0.19568,0.29353 0.63679,0.41369 0.74835,0.74836 0.15777,0.4733 -0.121,1.0127 0,1.49671 0.90344,3.61376 0.35564,-0.0371 1.49671,2.24506 0.11156,0.22312 -0.11156,0.52524 0,0.74836 0.77153,1.54306 0.74835,-0.0523 0.74835,2.24506"
       id="path5284"
       inkscape:connector-curvature="0" />
    <path
       style="fill:none;fill-opacity:1;stroke:#0e0a08;stroke-width:3;stroke-miterlimit:4;stroke-dasharray:none;stroke-opacity:1"
       d="m 188.9125,143.54168 c -0.6456,-6.03561 -1.6489,-12.01005 -2.64583,-17.99166 -0.38141,-2.28847 -0.6202,-4.60088 -1.05834,-6.87917 -0.44441,-2.31098 -1.14308,-4.56819 -1.5875,-6.87917 -0.43813,-2.27828 -0.7924,-4.57442 -1.05833,-6.87916 -0.26293,-2.27871 -0.67308,-10.131623 -1.05833,-12.700003 -1.02015,-6.80095 -1.1598,-2.58023 -1.5875,-8.99584 -0.0821,-1.23198 0.0821,-2.47218 0,-3.70416 -0.0946,-1.41894 -0.44046,-2.81401 -0.52917,-4.23334 -0.088,-1.40836 0,-2.82222 0,-4.233329 0,-2.822224 0,-5.644444 0,-8.466667 0,-1.5875 0,-3.175 0,-4.7625 0,-0.17639 0,-0.352777 0,-0.529167 0,-0.176389 -0.17639,-0.529166 0,-0.529166 1.50939,0 3.05536,4.739489 3.70417,5.820833 0.65441,1.090695 1.45003,2.091727 2.11666,3.175 0.74532,1.211138 1.38501,2.484731 2.11667,3.704167 2.60458,4.340969 5.34428,8.585039 7.40833,13.229169 0.77157,1.73603 1.33707,3.55922 2.11667,5.29166 2.55227,5.67172 2.6117,4.52355 4.7625,10.05417 0.60651,1.55959 0.99994,3.195673 1.5875,4.762503 0.94335,2.51561 2.27137,4.87818 3.175,7.40833 0.4319,1.20932 0.62643,2.49485 1.05833,3.70417 0.77124,2.15947 1.8622,4.195 2.64584,6.35 0.38124,1.04842 0.64401,2.13921 1.05833,3.175 0.58593,1.46483 1.49519,2.78323 2.11667,4.23333 0.21972,0.51269 0.32201,1.06961 0.52916,1.5875 0.29297,0.73242 0.62077,1.46032 1.05834,2.11667 0.13837,0.20755 0.4176,0.30605 0.52916,0.52917 0.0789,0.15776 -0.0789,0.3714 0,0.52916 0.11156,0.22312 0.30605,0.64073 0.52917,0.52917 0.25603,-0.12802 0.96683,-2.24932 1.05833,-2.64583 1.7013,-7.37228 0.61293,-3.31594 1.5875,-11.1125 0.28777,-2.30212 0.77058,-4.57705 1.05834,-6.87917 0.41799,-3.34388 0.67569,-6.70605 1.05833,-10.05417 0.32295,-2.825793 0.84823,-5.630253 1.05833,-8.466663 0.14333,-1.93498 -0.15473,-3.88674 0,-5.82084 1.0269,-12.83616 1.01061,-2.31606 1.5875,-12.7 0.0783,-1.40893 -0.10054,-2.8258 0,-4.233329 0.0764,-1.070206 0.43204,-2.106475 0.52917,-3.175 0.0799,-0.878322 0,-1.76389 0,-2.645834 0,-1.940277 0,-3.880556 0,-5.820833"
       id="path5290"
       inkscape:connector-curvature="0" />
    <path
       style="fill:none;fill-opacity:1;stroke:#0e0a08;stroke-width:3;stroke-miterlimit:4;stroke-dasharray:none;stroke-opacity:1"
       d="m 242.8875,50.408348 c -1.21817,2.436341 -2.03189,3.689622 -2.64583,6.35 -0.28046,1.215316 -0.28456,2.48113 -0.52917,3.704166 -0.28525,1.426295 -0.80555,2.800927 -1.05833,4.233334 -0.55518,3.14593 -0.75547,6.344851 -1.05834,9.524999 -0.77919,8.1816 -0.68252,16.1514 0,24.34167 0.1618,1.941553 0.26594,3.890423 0.52917,5.820833 0.93993,6.89283 1.02709,4.84289 2.64583,11.64167 1.12221,4.71322 1.63703,9.67357 3.175,14.2875 0.42479,1.2744 1.10527,2.45036 1.5875,3.70416 0.40048,1.04123 0.6771,2.12659 1.05834,3.175 0.32461,0.8927 0.75795,1.7447 1.05833,2.64584 0.22998,0.68995 0.27382,1.4357 0.52917,2.11666 0.27696,0.73861 0.80888,1.36831 1.05833,2.11667 0.11155,0.33467 -0.19569,0.7648 0,1.05833 0.21878,0.32818 0.73017,0.31039 1.05833,0.52917 0.20757,0.13837 0.29253,0.45028 0.52917,0.52917 0.33467,0.11156 0.71609,-0.0856 1.05833,0 0.38264,0.0957 0.66392,0.52916 1.05834,0.52916 1.72939,0 4.52982,-2.31432 5.82083,-3.175 5.42147,-3.61432 -0.14179,0.6426 5.29167,-3.70416 0.88193,-0.70556 1.89029,-1.27716 2.64583,-2.11667 0.8509,-0.94544 1.36448,-2.14929 2.11667,-3.175 1.18932,-1.6218 2.65848,-3.04458 3.70416,-4.7625 4.21622,-6.92663 6.16657,-14.55795 8.46667,-22.225 1.78906,-5.96349 3.62535,-10.792733 4.7625,-16.933333 0.35475,-1.91571 0.31401,-3.88447 0.52917,-5.82084 0.27548,-2.47926 0.79719,-4.92752 1.05833,-7.40833 0.22235,-2.11233 0.40444,-4.22966 0.52917,-6.349999 0.0518,-0.880423 -0.0974,-1.769282 0,-2.645834 0.65751,-5.917575 0.52916,1.002641 0.52916,-3.704166"
       id="path5292"
       inkscape:connector-curvature="0" />
    <path
       style="fill:none;fill-opacity:1;stroke:#0e0a08;stroke-width:3;stroke-miterlimit:4;stroke-dasharray:none;stroke-opacity:1"
       d="m 75.141667,95.916677 c -1.95706,-0.83873 -3.95436,-1.6089 -5.82083,-2.64583 -0.89909,-0.49949 -1.70951,-1.1619 -2.64584,-1.5875 -1.87952,-0.85433 -3.9342,-1.27816 -5.82083,-2.11667 -2.45228,-1.0899 -4.84999,-2.32221 -7.408335,-3.175 -1.379897,-0.45996 -2.853436,-0.59836 -4.233333,-1.05833 -0.374176,-0.12472 -0.675693,-0.43351 -1.058333,-0.52917 -2.905501,-0.72637 0.881425,0.96988 -2.116667,-0.52916"
       id="path5294"
       inkscape:connector-curvature="0" />
    <path
       style="fill:none;fill-opacity:1;stroke:#0e0a08;stroke-width:3;stroke-miterlimit:4;stroke-dasharray:none;stroke-opacity:1"
       d="m 79.374997,120.78752 c -9.61954,1.9239 6.37785,-1.3497 -6.35,1.5875 -2.09091,0.48251 -4.2682,0.53788 -6.35,1.05833 -2.83718,0.70929 -5.53946,2.27993 -8.46666,2.64583 -0.70011,0.0875 -1.42072,-0.11599 -2.11667,0 -0.38905,0.0648 -0.67569,0.43351 -1.05833,0.52917 -0.51337,0.12834 -1.058338,0 -1.587505,0"
       id="path5296"
       inkscape:connector-curvature="0" />
    <path
       style="fill:none;fill-opacity:1;stroke:#0e0a08;stroke-width:3;stroke-miterlimit:4;stroke-dasharray:none;stroke-opacity:1"
       d="m 82.020837,154.65418 c -0.88195,0.70556 -1.70609,1.49017 -2.64584,2.11667 -0.65635,0.43757 -1.44773,0.64025 -2.11666,1.05833 -0.74789,0.46743 -1.41112,1.05834 -2.11667,1.5875 -0.70556,0.52917 -1.44704,1.01354 -2.11667,1.5875 -1.13638,0.97405 -2.00626,2.24002 -3.175,3.175 -0.30799,0.24639 -0.7428,0.29252 -1.05833,0.52917 -0.80622,0.60466 -1.08724,1.5875 -2.11667,1.5875"
       id="path5298"
       inkscape:connector-curvature="0" />
    <path
       style="fill:none;fill-opacity:1;stroke:#0e0a08;stroke-width:3;stroke-miterlimit:4;stroke-dasharray:none;stroke-opacity:1"
       d="m 313.26667,83.216677 c 1.23473,-0.88194 2.50147,-1.72068 3.70416,-2.64583 1.09196,-0.83996 2.08304,-1.80587 3.175,-2.64583 0.96544,-0.74265 5.60509,-4.01929 6.87917,-4.7625 1.88677,-1.10062 4.914,-2.356183 6.87917,-3.175003 0.8768,-0.365339 1.73601,-0.785386 2.64583,-1.058333 0.86148,-0.258442 1.79258,-0.244748 2.64583,-0.529167 0.74835,-0.249452 1.3916,-0.747596 2.11667,-1.058333 1.02539,-0.439449 2.11667,-0.705556 3.175,-1.058333"
       id="path5300"
       inkscape:connector-curvature="0" />
    <path
       style="fill:none;fill-opacity:1;stroke:#0e0a08;stroke-width:3;stroke-miterlimit:4;stroke-dasharray:none;stroke-opacity:1"
       d="m 309.03333,110.20418 c 0.70557,0.35278 1.39581,0.73796 2.11667,1.05834 0.86802,0.38578 1.79623,0.63353 2.64583,1.05833 1.83986,0.91993 3.41903,2.3238 5.29167,3.175 1.01558,0.46163 2.19564,0.52413 3.175,1.05833 0.99152,0.54084 1.72056,1.46898 2.64583,2.11667 0.84259,0.58981 1.79007,1.01698 2.64584,1.5875 0.73382,0.48921 1.38284,1.09829 2.11666,1.5875 1.71157,1.14103 3.64604,1.94078 5.29167,3.175 0.59867,0.44901 1.05833,1.05833 1.5875,1.5875"
       id="path5302"
       inkscape:connector-curvature="0" />
    <path
       style="fill:none;fill-opacity:1;stroke:#0e0a08;stroke-width:3;stroke-miterlimit:4;stroke-dasharray:none;stroke-opacity:1"
       d="m 289.45417,152.53752 c 2.83466,1.86916 5.19723,4.35708 7.9375,6.35 1.02867,0.74813 2.19056,1.31121 3.175,2.11666 0.96533,0.78981 1.71876,1.81146 2.64583,2.64584 0.8395,0.75555 1.80634,1.36111 2.64583,2.11666 0.92708,0.83437 1.7639,1.76389 2.64584,2.64584 0.70556,0.70555 1.4596,1.36574 2.11666,2.11666 0.58076,0.66373 1.01354,1.44705 1.5875,2.11667 0.81172,0.94699 1.7639,1.76389 2.64584,2.64583"
       id="path5304"
       inkscape:connector-curvature="0" />
    <path
       style="fill:none;fill-opacity:1;stroke:#0e0a08;stroke-width:3;stroke-miterlimit:4;stroke-dasharray:none;stroke-opacity:1"
       d="m 384.70416,169.47085 c -6.24083,0 2.06928,0.17112 -4.23333,-0.52917 -0.87654,-0.0974 -1.7639,0 -2.64583,0 -2.99861,0 -5.99724,0 -8.99584,0 -1.7639,0 -3.53856,0.19479 -5.29166,0 -1.44566,-0.16063 -2.79342,-0.85263 -4.23334,-1.05833 -0.52385,-0.0748 -1.06553,0.087 -1.5875,0 -1.1004,-0.1834 -2.08108,-0.83955 -3.175,-1.05834 -0.34591,-0.0692 -0.71241,0.0692 -1.05833,0 -1.75504,-0.351 -1.23473,-0.49389 -2.64583,-1.05833 -1.0358,-0.41432 -2.13921,-0.64402 -3.175,-1.05833 -0.36621,-0.14649 -0.69213,-0.38269 -1.05834,-0.52917 -1.55101,-0.6204 -3.21148,-0.9671 -4.7625,-1.5875 -1.76249,-0.705 -3.52708,-1.41084 -5.29166,-2.11667 -0.36621,-0.14648 -0.70557,-0.35277 -1.05834,-0.52916 -0.52916,0 -1.07413,0.12834 -1.5875,0 -0.24201,-0.0605 -0.29252,-0.45029 -0.52916,-0.52917 -0.66935,-0.22312 -1.44733,0.22311 -2.11667,0 -0.23664,-0.0789 -0.30604,-0.41761 -0.52917,-0.52917 -0.31554,-0.15776 -0.74279,0.15777 -1.05833,0 -0.22312,-0.11156 -0.30604,-0.4176 -0.52917,-0.52916 -0.70556,-0.35278 -0.52916,0.52916 -0.52916,-0.52917"
       id="path5325"
       inkscape:connector-curvature="0" />
    <path
       style="fill:none;fill-opacity:1;stroke:#0e0a08;stroke-width:3;stroke-miterlimit:4;stroke-dasharray:none;stroke-opacity:1"
       d="m 401.63749,171.58751 c 12.84198,-7.33827 -3.16891,1.58446 6.35,-3.175 0.91993,-0.45996 1.7095,-1.16189 2.64584,-1.5875 5.43338,-2.46971 0.98356,0.30197 5.82083,-2.11666 0.91993,-0.45997 1.7259,-1.12754 2.64583,-1.5875 1.75303,-0.87652 4.00971,-1.45808 5.82084,-2.11667 3.86209,-1.4044 1.6497,-0.74986 5.82083,-2.64583 1.72948,-0.78613 3.63098,-1.19406 5.29167,-2.11667 0.77097,-0.42831 1.38284,-1.09829 2.11666,-1.5875 3.70753,-2.47169 1.47077,-0.67258 4.23334,-2.64583 0.71765,-0.51262 1.36877,-1.12007 2.11666,-1.5875 0.66892,-0.41808 1.43177,-0.66697 2.11667,-1.05834 2.5082,-1.43326 0.78711,-0.65591 3.175,-2.64583 0.58695,-1.00126 1.84269,-0.94499 2.64583,-1.5875 3.50542,-3.50542 0.0543,-0.38899 2.64584,-2.11667 0.20756,-0.13837 0.30604,-0.4176 0.52916,-0.52916 0.15778,-0.0789 0.3714,0.0789 0.52917,0 1.20356,-0.60179 -0.24598,-1.05834 1.05833,-1.05834"
       id="path5327"
       inkscape:connector-curvature="0" />
    <path
       style="fill:none;fill-opacity:1;stroke:#0e0a08;stroke-width:3;stroke-miterlimit:4;stroke-dasharray:none;stroke-opacity:1"
       d="m 328.6125,157.82918 c 0.17639,1.5875 0.1089,3.22151 0.52916,4.7625 0.17828,0.6537 2.33834,1.87067 2.64584,2.11667 0.97395,0.77915 1.76389,1.76389 2.64583,2.64583 1.05833,1.05833 2.11667,2.11667 3.175,3.175 0.70556,0.70556 1.49333,1.33751 2.11667,2.11667 0.39729,0.49661 0.66103,1.09088 1.05833,1.5875 0.76843,0.96052 1.90791,1.66193 2.64583,2.64583 0.23665,0.31553 0.25027,0.77944 0.52917,1.05833 0.2789,0.2789 0.83955,0.20099 1.05833,0.52917 0.19569,0.29353 -0.11155,0.72366 0,1.05833 0.21902,0.6571 1.67413,1.29247 2.11667,1.5875 0.4151,0.27674 0.61211,0.83522 1.05833,1.05834 0.72991,0.36495 0.47332,-0.64085 1.05834,0.52916 0.0789,0.15777 -0.12473,0.40444 0,0.52917 0.0241,0.024 2.39633,0 2.64583,0"
       id="path5329"
       inkscape:connector-curvature="0" />
    <path
       style="fill:none;fill-opacity:1;stroke:#0e0a08;stroke-width:3;stroke-miterlimit:4;stroke-dasharray:none;stroke-opacity:1"
       d="m 457.19999,141.42501 c -1.05833,1.5875 -2.25552,3.09074 -3.175,4.7625 -2.4104,4.38259 -3.79909,9.20945 -5.82083,13.75834 -0.64074,1.44169 -1.56271,2.75611 -2.11667,4.23333 -0.25534,0.68096 -0.27381,1.4357 -0.52916,2.11667 -1.39158,3.71087 -0.5814,0.63363 -2.11667,3.70416 -0.24945,0.49891 -0.322,1.06961 -0.52917,1.5875 -0.35276,0.88195 -0.70556,1.76389 -1.05833,2.64584 -0.43794,1.09482 -1.14956,2.08017 -1.5875,3.175 -0.20717,0.51789 -0.322,1.0696 -0.52917,1.5875 -0.29297,0.73241 -0.80888,1.36831 -1.05833,2.11666 -0.52509,1.57524 1.25299,-1.08574 -0.52917,1.5875 -0.13837,0.20756 -0.41761,0.30605 -0.52916,0.52917 -0.0789,0.15777 0.12472,0.40444 0,0.52917 -0.12473,0.12472 -0.40444,-0.12473 -0.52917,0 -0.12472,0.12472 0.12473,0.40444 0,0.52916 -0.12472,0.12473 -0.40444,-0.12472 -0.52917,0 -0.12472,0.12473 0.12473,0.40444 0,0.52917 -0.12472,0.12472 -0.40444,-0.12473 -0.52916,0 -0.12473,0.12472 0.12472,0.40444 0,0.52917 -0.12473,0.12472 -0.40444,-0.12473 -0.52917,0 -0.12472,0.12472 0.15777,0.45028 0,0.52916 -0.31554,0.15777 -0.74279,-0.15776 -1.05833,0 -0.15777,0.0789 0.15777,0.45029 0,0.52917 -0.31554,0.15777 -0.7161,-0.0856 -1.05834,0 -0.76528,0.19132 -1.35138,0.86701 -2.11666,1.05833 -0.34224,0.0856 -0.7161,-0.0856 -1.05834,0 -0.76528,0.19132 -1.36831,0.80888 -2.11666,1.05834 -0.16735,0.0558 -0.35277,0 -0.52917,0 -0.35277,0.17639 -0.68416,0.40444 -1.05833,0.52916 -0.62238,0.20746 -2.91476,0 -3.70417,0"
       id="path5331"
       inkscape:connector-curvature="0" />
    <path
       style="fill:none;fill-opacity:1;stroke:#0e0a08;stroke-width:3;stroke-miterlimit:4;stroke-dasharray:none;stroke-opacity:1"
       d="m 374.65,195.40001 c -2.07534,0.94229 -2.79366,1.73533 -4.23334,3.175 -0.35277,0.35278 -0.83521,0.6121 -1.05833,1.05834 -0.15777,0.31553 0.15777,0.7428 0,1.05833 -0.11155,0.22311 -0.41762,0.30605 -0.52917,0.52917 -0.0789,0.15776 0,0.35277 0,0.52916 0,0.17639 -0.0789,0.3714 0,0.52917 0.11155,0.22311 0.41762,0.30605 0.52917,0.52917 0.0789,0.15776 -0.0789,0.3714 0,0.52916 0.11155,0.22312 0.41762,0.30605 0.52917,0.52917 0.0789,0.15776 -0.0789,0.3714 0,0.52917 0.11154,0.22311 0.41761,0.30605 0.52916,0.52916 0.36497,0.72991 -0.64085,0.47333 0.52917,1.05834 0.53123,0.26561 2.63136,-0.27182 3.175,0 0.22312,0.11155 0.30604,0.4176 0.52917,0.52916 0.67045,0.33523 1.61636,-0.36239 2.11666,-0.52916 0.33467,-0.11156 0.72366,0.11155 1.05834,0 2.99809,-1.49905 -0.78883,0.19721 2.11666,-0.52917 0.38264,-0.0957 0.67157,-0.45182 1.05834,-0.52917 0.86481,-0.17296 1.78101,0.17297 2.64583,0 0.54695,-0.10939 1.04055,-0.41977 1.5875,-0.52916 0.69186,-0.13838 1.44732,0.22311 2.11667,0 0.23664,-0.0789 0.29252,-0.45029 0.52916,-0.52917 0.50202,-0.16734 1.11419,0.23665 1.5875,0 0.22312,-0.11156 0.30605,-0.41761 0.52917,-0.52917 0.7299,-0.36495 0.47331,0.64085 1.05833,-0.52916 0.18066,-0.36134 0,-1.61906 0,-2.11667 0,-0.70556 0.22312,-1.44732 0,-2.11667 -0.0789,-0.23665 -0.39079,-0.32161 -0.52916,-0.52916 -0.21879,-0.32818 -0.31039,-0.73016 -0.52917,-1.05834 -0.24053,-0.36078 -1.75982,-1.93824 -2.11667,-2.11666 -0.1197,-0.0598 -5.05103,-0.12032 -5.29166,0 -1.75504,1.75502 0.49889,-0.24946 -1.05834,0.52916 -1.75503,1.75503 0.4989,-0.24945 -1.05833,0.52917 -0.22312,0.11156 -0.30604,0.41761 -0.52917,0.52917 -0.15777,0.0789 -0.35277,0 -0.52916,0 -0.1764,0 -0.40445,0.12472 -0.52917,0 -0.12473,-0.12473 0.12472,-0.40445 0,-0.52917 -0.12473,-0.12473 -0.3714,0.0789 -0.52917,0 -0.22312,-0.11156 -0.29252,-0.45028 -0.52916,-0.52917 -0.33468,-0.11156 -0.70557,0 -1.05834,0 -0.70556,0 -1.4111,0 -2.11666,0 z"
       id="path5333"
       inkscape:connector-curvature="0" />
    <path
       style="fill:none;fill-opacity:1;stroke:#0e0a08;stroke-width:3;stroke-miterlimit:4;stroke-dasharray:none;stroke-opacity:1"
       d="m 351.89583,183.22918 c -1.21722,2.89979 -2.75437,4.34186 -4.7625,6.35 -0.35277,0.35278 -0.80166,0.63053 -1.05833,1.05833 -0.62241,1.03734 -1.25561,4.13008 -1.5875,5.29167 -0.15325,0.53633 -0.43747,1.0373 -0.52917,1.5875 -0.087,0.52197 0.0748,1.06365 0,1.5875 -0.18161,1.27122 -0.87672,2.43294 -1.05833,3.70417 -0.0998,0.69846 0.0998,1.4182 0,2.11666 -0.15778,1.10437 -0.87493,2.0746 -1.05834,3.175 -0.087,0.52197 0.087,1.06554 0,1.5875 -0.0917,0.5502 -0.43746,1.0373 -0.52916,1.5875 -0.18651,1.11907 0,2.54251 0,3.70417 0,0.35278 -0.24945,0.80888 0,1.05833 0.24944,0.24945 0.71609,-0.0856 1.05833,0 0.70556,0.17639 1.46619,0.85441 2.11667,0.52917 0.22312,-0.11156 0.30604,-0.41761 0.52916,-0.52917 0.15777,-0.0789 0.36182,0.0558 0.52917,0 0.37417,-0.12472 0.68416,-0.40444 1.05833,-0.52916 0.16735,-0.0558 0.3714,0.0789 0.52917,0 0.22312,-0.11156 0.3216,-0.3908 0.52917,-0.52917 0.32816,-0.21878 0.73017,-0.31038 1.05833,-0.52917 0.84571,-0.5638 1.81734,-2.23158 2.64583,-2.64583 0.15777,-0.0789 0.40444,0.12472 0.52917,0 0.12472,-0.12473 -0.0789,-0.3714 0,-0.52917 0.11155,-0.22311 0.41762,-0.30605 0.52917,-0.52916 0.0789,-0.15777 -0.0789,-0.37141 0,-0.52917 1.10114,-2.20227 -0.0365,0.5657 1.05833,-0.52917 0.12472,-0.12472 -0.0789,-0.3714 0,-0.52916 1.10114,-2.20227 -0.0365,0.56569 1.05833,-0.52917 0.12473,-0.12473 -0.0789,-0.3714 0,-0.52917 0.11155,-0.22311 0.41762,-0.30605 0.52917,-0.52916 0.0789,-0.15777 -0.0789,-0.37141 0,-0.52917 0.11155,-0.22312 0.45029,-0.29252 0.52917,-0.52917 0.16734,-0.50201 -0.23665,-1.1142 0,-1.5875 0.11154,-0.22311 0.41761,-0.30605 0.52916,-0.52916 0.0789,-0.15777 -0.0789,-0.37141 0,-0.52917 0.11155,-0.22312 0.41762,-0.30605 0.52917,-0.52917 0.15616,-0.31229 0,-1.23183 0,-1.5875"
       id="path5341"
       inkscape:connector-curvature="0" />
    <path
       style="fill:none;fill-opacity:1;stroke:#0e0a08;stroke-width:3;stroke-miterlimit:4;stroke-dasharray:none;stroke-opacity:1"
       d="m 427.56666,188.52085 c 5.74553,-0.40974 5.53717,0.7332 8.99583,2.11666 0.5179,0.20716 1.06961,0.32201 1.5875,0.52917 0.36621,0.14648 0.6757,0.43351 1.05834,0.52917 0.34224,0.0856 0.73078,-0.13102 1.05833,0 0.5905,0.23619 1.04214,0.73112 1.5875,1.05833 0.33822,0.20293 0.73017,0.31038 1.05833,0.52917 0.20757,0.13837 0.32161,0.39079 0.52917,0.52916 0.32816,0.21879 0.77944,0.25027 1.05833,0.52917 0.2789,0.27889 0.25027,0.77944 0.52917,1.05833 2.06521,2.0652 0.28419,-0.12249 1.5875,0.52917 2.20226,1.10113 -0.5657,-0.0365 0.52917,1.05833 0.12472,0.12473 0.37139,-0.0789 0.52916,0 2.20226,1.10113 -0.5657,-0.0365 0.52917,1.05834 0.12473,0.12472 0.40444,-0.12473 0.52917,0 0.12472,0.12472 0,0.35277 0,0.52916 0,0.17639 0.0789,0.3714 0,0.52917 -0.11155,0.22311 -0.41762,0.30605 -0.52917,0.52917 -0.0789,0.15776 0.0789,0.3714 0,0.52916 -0.11155,0.22312 -0.41762,0.30605 -0.52917,0.52917 -0.0789,0.15777 0.12473,0.40444 0,0.52917 -0.24944,0.24945 -0.74279,-0.15777 -1.05833,0 -0.22312,0.11155 -0.30604,0.4176 -0.52917,0.52916 -0.15777,0.0789 -0.37139,-0.0789 -0.52916,0 -0.22313,0.11156 -0.30605,0.41761 -0.52917,0.52917 -0.33568,0.16784 -2.16924,0 -2.64583,0"
       id="path5343"
       inkscape:connector-curvature="0" />
    <path
       style="fill:none;fill-opacity:1;stroke:#0e0a08;stroke-width:3;stroke-miterlimit:4;stroke-dasharray:none;stroke-opacity:1"
       d="m 356.65833,201.75001 c 0.52917,1.5875 1.10665,3.1597 1.5875,4.7625 0.18558,0.61857 0,1.4633 0,2.11667 0,1.5875 0,3.175 0,4.7625 0,0.38305 0.16206,2.85089 0,3.175 -0.11155,0.22311 -0.41762,0.30605 -0.52917,0.52917 -0.0789,0.15776 0.0789,0.3714 0,0.52916 -0.11155,0.22312 -0.39079,0.32161 -0.52916,0.52917 -0.43757,0.65635 -0.58502,1.4856 -1.05834,2.11667 -0.29935,0.39912 -0.80166,0.63052 -1.05833,1.05833 -0.58518,0.97532 -1.00232,3.25801 -1.5875,4.23333 -0.25667,0.42781 -0.75898,0.65921 -1.05833,1.05834 -0.38484,0.51313 -0.96132,2.16074 -1.05834,2.64583 -0.32729,1.63649 0.52369,0.53737 -0.52916,2.11667 -0.38918,0.58375 -1.27493,0.96236 -1.5875,1.5875 -0.28224,0.56444 0.28223,1.55222 0,2.11666 -0.11155,0.22312 -0.41762,0.30605 -0.52917,0.52917 -0.0789,0.15776 0.0558,0.36183 0,0.52917 -0.12473,0.37417 -0.40444,0.68415 -0.52917,1.05833 -0.0558,0.16734 0.0558,0.36183 0,0.52917 -0.12472,0.37417 -0.40444,0.68415 -0.52916,1.05833 -0.0558,0.16734 0.0789,0.3714 0,0.52917 -0.11155,0.22311 -0.41762,0.30605 -0.52917,0.52916 -0.15777,0.31554 0.24945,0.80888 0,1.05834 -0.12473,0.12472 -0.40444,-0.12473 -0.52917,0 -0.24945,0.24945 0.24945,0.80888 0,1.05833 -0.12472,0.12472 -0.40444,-0.12473 -0.52916,0 -0.12473,0.12472 0.0789,0.3714 0,0.52917 -0.11155,0.22311 -0.41762,0.30605 -0.52917,0.52916 -0.0789,0.15777 0.0789,0.3714 0,0.52917 -0.11155,0.22311 -0.41762,0.30605 -0.52917,0.52917 -0.0789,0.15776 0.0789,0.3714 0,0.52916 -1.21089,2.42179 0.21932,-2.24547 -1.05833,1.5875 -0.0558,0.16734 0.0789,0.3714 0,0.52917 -0.11155,0.22311 -0.4503,0.29251 -0.52917,0.52917 0,2.40891 0.24945,0.0303 -0.52916,1.5875 -0.2313,0.46259 0.1117,1.66982 0,2.11666 -0.63884,2.55532 -0.25146,-0.0262 -1.05834,1.5875 -0.0789,0.15777 0.0558,0.36183 0,0.52917 -0.24945,0.74835 -0.80888,1.36831 -1.05833,2.11667 -0.0558,0.16733 0.0558,0.36182 0,0.52916 -1.27765,3.83298 0.15256,-0.83428 -1.05833,1.5875 -0.0789,0.15777 0.0789,0.3714 0,0.52917 -0.11155,0.22311 -0.41762,0.30605 -0.52917,0.52917 -0.15616,0.31229 0,1.23183 0,1.5875"
       id="path5345"
       inkscape:connector-curvature="0" />
    <path
       style="fill:none;fill-opacity:1;stroke:#0e0a08;stroke-width:3;stroke-miterlimit:4;stroke-dasharray:none;stroke-opacity:1"
       d="m 352.425,230.85418 c 2.02715,1.69192 4.34538,3.04427 6.35,4.7625 0.56819,0.48702 1.0193,1.10047 1.5875,1.5875 2.18725,1.8748 4.71148,3.39495 6.87916,5.29167 0.75092,0.65706 1.32906,1.50407 2.11667,2.11666 0.81185,0.63145 1.79006,1.01698 2.64583,1.5875 0.84611,0.56408 4.2122,3.21501 4.7625,3.70417 3.02829,2.69181 1.20962,1.74632 4.7625,4.23333 0.84259,0.58982 1.79007,1.01698 2.64584,1.5875 0.73382,0.48922 1.38284,1.09829 2.11666,1.5875 0.85577,0.57052 1.79007,1.01698 2.64584,1.5875 2.65885,1.77257 1.68767,1.63758 4.7625,3.175 3.3125,1.65626 1.73087,0.57696 4.76249,1.5875 1.80229,0.60076 3.47203,1.57077 5.29167,2.11667 0.92448,0.27734 5.0672,0.93272 5.82083,1.05833 1.05834,0.17639 2.10649,0.43203 3.175,0.52917 0.87832,0.0799 1.76753,-0.0798 2.64584,0 1.9917,0.0288 3.85852,0.8621 5.82083,1.05833 1.75514,0.17552 3.52777,0 5.29167,0 0.88193,0 1.76929,0.0974 2.64583,0 0.72282,-0.0803 1.39385,-0.44885 2.11667,-0.52916 1.56813,-0.17424 3.19437,0.17423 4.7625,0 0.89392,-0.0993 1.75088,-0.43968 2.64583,-0.52917 0.87757,-0.0878 1.76826,0.0878 2.64583,0 0.89496,-0.0895 1.75192,-0.42984 2.64584,-0.52917 0.70125,-0.0779 1.41541,0.0779 2.11666,0 0.89393,-0.0993 1.75192,-0.42984 2.64584,-0.52916 0.70125,-0.0779 1.41655,0.0875 2.11666,0 6.56212,-0.82027 -1.56776,-0.17969 3.70417,-1.05834 0.52197,-0.087 1.0686,0.10378 1.5875,0 0.77351,-0.1547 1.36832,-0.80888 2.11667,-1.05833 0.16735,-0.0558 0.37139,0.0789 0.52916,0 0.26096,-0.13048 3.10656,-2.96968 3.175,-3.175 0.11155,-0.33468 -0.0856,-0.71609 0,-1.05833 0.0956,-0.38265 0.4335,-0.6757 0.52917,-1.05834 0.12785,-0.51141 -0.22344,-2.19894 0,-2.64583 0.11155,-0.22312 0.41762,-0.30605 0.52917,-0.52917 0.15777,-0.31553 -0.15777,-0.7428 0,-1.05833 0.11155,-0.22312 0.35277,-0.35278 0.52916,-0.52917 0.1764,-0.35277 0.3827,-0.69212 0.52917,-1.05833 0.30491,-0.76228 0.52647,-1.9367 1.05833,-2.64583 2.49243,-3.32323 -0.47326,1.67069 2.11667,-2.64584 0.40585,-0.67642 0.50054,-1.55887 1.05833,-2.11666 0.2789,-0.2789 0.77944,-0.25028 1.05834,-0.52917 0.27889,-0.2789 0.35277,-0.70556 0.52916,-1.05833 0.1764,-0.35278 0.40445,-0.68416 0.52917,-1.05834 0.0558,-0.16734 -0.0558,-0.36183 0,-0.52916 0.70557,-2.11667 0.50776,0.10699 1.05833,-2.64584 0.0692,-0.34592 -0.0692,-0.7124 0,-1.05833 0.10938,-0.54696 0.43747,-1.0373 0.52917,-1.5875 0.126,-0.75593 0.126,-4.00657 0,-4.7625 -0.0917,-0.5502 -0.45029,-1.03532 -0.52917,-1.5875 -0.0998,-0.69847 0.0998,-1.4182 0,-2.11667 -0.14401,-1.00817 -1.53627,-4.95023 -2.11666,-5.82083 -0.13838,-0.20756 -0.39079,-0.32161 -0.52917,-0.52917 -0.70035,-1.05054 -0.31594,-1.35373 -1.5875,-2.11666 -0.47831,-0.28698 -1.0886,-0.27972 -1.5875,-0.52917 -2.25777,-1.12889 -4.09223,-3.10444 -6.35,-4.23333 -0.4989,-0.24946 -1.0886,-0.27972 -1.5875,-0.52917 -6.35444,-3.17722 2.27605,0.83647 -2.64583,-2.11667 -0.47832,-0.28698 -1.0886,-0.27971 -1.5875,-0.52916 -1.13768,-0.56884 -2.03732,-1.54783 -3.175,-2.11667 -0.4989,-0.24945 -1.0886,-0.27972 -1.5875,-0.52917 -0.56883,-0.28442 -1.01867,-0.77391 -1.5875,-1.05833 -1.72109,-0.86054 -1.25873,-0.13359 -2.64584,-1.05833 -0.20756,-0.13838 -0.30604,-0.41761 -0.52916,-0.52917 -0.15777,-0.0789 -0.35277,0 -0.52917,0 -0.35277,-0.17639 -0.73017,-0.31038 -1.05833,-0.52917 -0.20757,-0.13837 -0.30605,-0.41761 -0.52917,-0.52916 -0.15777,-0.0789 -0.40444,0.12472 -0.52917,0 -0.12472,-0.12473 -0.0484,-0.35957 0,-0.52917 0.30647,-1.07266 0.70557,-2.11667 1.05834,-3.175"
       id="path5347"
       inkscape:connector-curvature="0" />
    <path
       style="fill:none;fill-opacity:1;stroke:#0e0a08;stroke-width:3;stroke-miterlimit:4;stroke-dasharray:none;stroke-opacity:1"
       d="m 415.39583,267.36668 c -2.82223,0 -5.68738,-0.49046 -8.46667,0 -0.5493,0.0969 -0.322,1.0696 -0.52917,1.5875 -0.29297,0.73241 -0.62076,1.46032 -1.05833,2.11667 -0.13838,0.20755 -0.45029,0.29251 -0.52917,0.52916 -0.11154,0.33468 0.11155,0.72366 0,1.05834 -0.65389,1.96167 -0.52916,-0.64503 -0.52916,1.05833"
       id="path5349"
       inkscape:connector-curvature="0" />
    <path
       style="fill:none;fill-opacity:1;stroke:#0e0a08;stroke-width:3;stroke-miterlimit:4;stroke-dasharray:none;stroke-opacity:1"
       d="m 429.15416,266.83751 c -0.003,1.33016 -0.8065,2.44497 -1.05833,3.70417 -0.0692,0.34593 0.0856,0.71609 0,1.05833 -0.0957,0.38264 -0.43352,0.67569 -0.52917,1.05834 -0.0856,0.34224 0.11155,0.72365 0,1.05833 -0.0789,0.23665 -0.41762,0.30605 -0.52917,0.52917 -0.0789,0.15776 0.12473,0.40444 0,0.52916 -0.70556,0.70556 -0.52916,-0.88194 -0.52916,0.52917"
       id="path5351"
       inkscape:connector-curvature="0" />
    <path
       style="fill:none;fill-opacity:1;stroke:#0e0a08;stroke-width:3;stroke-miterlimit:4;stroke-dasharray:none;stroke-opacity:1"
       d="m 442.91249,268.42501 c 1.69609,1.24569 0.55103,2.67861 1.5875,4.23334 0.13838,0.20755 0.4503,0.29251 0.52917,0.52916 0.21413,0.64238 0,1.92802 0,2.64583"
       id="path5353"
       inkscape:connector-curvature="0" />
    <path
       style="fill:none;fill-opacity:1;stroke:#0e0a08;stroke-width:3;stroke-miterlimit:4;stroke-dasharray:none;stroke-opacity:1"
       d="m 463.54999,254.13751 c -4.36435,10.91088 -4.23333,6.7838 -4.23333,11.64167 0,0.35278 0.15777,0.7428 0,1.05833 -0.65389,1.30779 -0.52917,-0.18266 -0.52917,1.05834"
       id="path5355"
       inkscape:connector-curvature="0" />
    <path
       style="fill:none;fill-opacity:1;stroke:#0e0a08;stroke-width:3;stroke-miterlimit:4;stroke-dasharray:none;stroke-opacity:1"
       d="m 420.15833,243.02501 c 1.94027,0 3.88056,0 5.82083,0 2.11667,0 4.23333,0 6.35,0 0.64013,0 2.02584,-0.155 2.64583,0 0.38264,0.0957 0.68416,0.40444 1.05834,0.52917 0.16735,0.0558 0.37139,-0.0789 0.52916,0 0.22313,0.11156 0.28716,0.46867 0.52917,0.52917 0.68448,0.17112 1.44732,-0.22312 2.11667,0 2.9981,1.49904 -0.78883,-0.19721 2.11666,0.52916 0.38264,0.0957 0.68416,0.40444 1.05834,0.52917 0.16735,0.0558 0.36182,-0.0558 0.52916,0 0.37418,0.12472 0.6757,0.43351 1.05834,0.52917 0.34224,0.0856 0.71609,-0.0856 1.05833,0 0.38264,0.0957 0.67569,0.4335 1.05833,0.52916 0.34224,0.0856 0.72367,-0.11156 1.05834,0 0.23664,0.0789 0.29252,0.45029 0.52916,0.52917 0.50202,0.16734 1.11419,-0.23665 1.5875,0 0.22313,0.11156 0.30605,0.41761 0.52917,0.52917 0.31554,0.15776 0.72366,-0.11156 1.05833,0 1.82415,0.60804 0.39198,0.52916 1.5875,0.52916 2.82224,0 5.64444,0 8.46667,0 0.88194,0 1.7639,0 2.64583,0 0.35277,0 1.08763,-0.35156 1.05834,0 -0.1782,2.13845 -0.70557,4.23333 -1.05834,6.35"
       id="path5357"
       inkscape:connector-curvature="0" />
    <path
       style="fill:none;fill-opacity:1;stroke:#0e0a08;stroke-width:3;stroke-miterlimit:4;stroke-dasharray:none;stroke-opacity:1"
       d="m 415.39583,220.80001 c 0.15997,0.13059 -0.20325,4.55924 0,4.7625 1.09487,1.09487 -0.0428,-1.6731 1.05833,0.52917 0.0789,0.15776 -0.12472,0.40444 0,0.52917 0.0654,0.0654 1.78483,0 2.11667,0 0.61664,0 3.90443,0.16444 4.23333,0 0.22312,-0.11156 0.30604,-0.41761 0.52917,-0.52917 0.15777,-0.0789 0.40444,0.12472 0.52916,0 0.12473,-0.12473 -0.12472,-0.40444 0,-0.52917 0.12473,-0.12472 0.40445,0.12473 0.52917,0 0.12473,-0.12472 -0.12472,-0.40444 0,-0.52916 0.12473,-0.12473 0.40444,0.12472 0.52917,0 0.12472,-0.12473 -0.1764,-0.52917 0,-0.52917 0.1764,0 0,0.35278 0,0.52917"
       id="path5359"
       inkscape:connector-curvature="0" />
    <path
       style="fill:none;fill-opacity:1;stroke:#0e0a08;stroke-width:3;stroke-miterlimit:4;stroke-dasharray:none;stroke-opacity:1"
       d="m 439.73749,223.44585 c 1.69334,2.25777 1.5875,1.23472 1.5875,2.64583 0,0.17639 -0.0789,0.3714 0,0.52917 0.11155,0.22311 0.41762,0.30605 0.52917,0.52916 0.28223,0.56445 -0.28223,0.49389 0,1.05834 0.11155,0.22311 0.41762,0.30605 0.52917,0.52916 0.0789,0.15777 -0.12473,0.40444 0,0.52917 0.12472,0.12472 0.40444,-0.12473 0.52916,0 0.14007,0.14007 0,1.36961 0,1.5875"
       id="path5361"
       inkscape:connector-curvature="0" />
    <path
       style="fill:none;fill-opacity:1;stroke:#0e0a08;stroke-width:3;stroke-miterlimit:4;stroke-dasharray:none;stroke-opacity:1"
       d="m 443.44166,207.04168 c -0.81055,-1.2188 -1.8302,-2.19418 -2.84784,-3.21183 -0.12473,-0.12472 -0.22294,-0.28342 -0.37418,-0.37417 -0.16912,-0.10146 -0.39719,-0.0777 -0.56128,-0.18709 -0.22014,-0.14677 -0.35801,-0.39188 -0.56126,-0.56127 -0.17272,-0.14394 -0.38852,-0.23023 -0.56126,-0.37417 -1.49056,-1.24214 0.21635,0.0244 -0.93544,-0.93545 -0.23955,-0.19962 -0.49464,-0.38002 -0.74837,-0.56126 -0.73041,-0.52173 -1.49815,-0.99877 -2.24504,-1.49671 -0.3742,-0.24945 -0.77709,-0.46046 -1.12255,-0.74836 -0.20326,-0.16938 -0.34113,-0.4145 -0.56126,-0.56126 -0.1641,-0.1094 -0.39217,-0.0856 -0.56126,-0.18709 -0.30253,-0.18151 -0.46615,-0.53669 -0.74838,-0.74836 -0.11155,-0.0837 -0.2626,-0.10342 -0.37417,-0.18709 -0.1411,-0.10583 -0.23305,-0.26834 -0.37417,-0.37417 -0.31155,-0.23367 -0.77354,-0.38677 -1.12253,-0.56127 -0.35811,-0.17906 -0.74313,-0.4348 -1.12254,-0.56126 -0.0592,-0.0197 -0.12793,0.0197 -0.18709,0 -0.13229,-0.0441 -0.24188,-0.143 -0.37417,-0.18709 -0.36651,-0.12217 -1.50477,0.12204 -1.8709,0 -0.13229,-0.0441 -0.23889,-0.15327 -0.37417,-0.18709 -0.34465,-0.0862 -0.78634,0.11206 -1.12252,0 -0.0837,-0.0279 -0.10343,-0.1592 -0.18709,-0.18709 -0.17748,-0.0592 -0.39394,0.0837 -0.56126,0 -0.0789,-0.0394 -0.10822,-0.14765 -0.18709,-0.18709 -0.55057,-0.27528 0.2463,0.43341 -0.3742,-0.18709"
       id="path5365"
       inkscape:connector-curvature="0" />
    <path
       style="fill:none;fill-opacity:1;stroke:#0e0a08;stroke-width:3;stroke-miterlimit:4;stroke-dasharray:none;stroke-opacity:1"
       d="m 379.79,200.64935 c 0.81368,0.49057 1.03638,0.37417 1.87087,0.37417 0.12473,0 0.28599,0.0882 0.37418,0 0.0441,-0.0441 -0.0441,-0.14299 0,-0.18708 0.0882,-0.0882 0.24947,0 0.3742,0"
       id="path5367"
       inkscape:connector-curvature="0" />
    <path
       style="fill:none;fill-opacity:1;stroke:#0e0a08;stroke-width:3;stroke-miterlimit:4;stroke-dasharray:none;stroke-opacity:1"
       d="m 384.70416,169.47085 c 0.66022,0.066 1.23982,-0.29529 1.8709,-0.37417 0.24752,-0.031 0.4989,0 0.74835,0 0.81071,0 1.62144,0 2.43215,0 0.56126,0 1.12596,-0.062 1.68378,0 0.31605,0.0351 0.61942,0.15197 0.93547,0.18708 0.55782,0.062 1.12532,-0.0558 1.68378,0 0.31641,0.0317 0.62502,0.11811 0.93546,0.18709 1.12247,0.24944 2.24501,0.4989 3.36759,0.74836 0.50202,0.11156 0.98761,0.30145 1.49672,0.37418 0.18521,0.0265 0.37605,-0.0265 0.56126,0 0.25453,0.0364 0.49472,0.14481 0.74835,0.18709 0.12303,0.0205 0.25114,-0.0205 0.37417,0 1.30405,0.21733 0.28038,0.18708 1.12255,0.18708 0.68598,0 1.37197,0 2.05795,0 0.27477,0 0.67771,0.0644 0.93547,0 0.13528,-0.0338 0.24468,-0.13529 0.37417,-0.18708 1.88328,-0.75332 -0.39722,0.14607 0.93543,-0.18709 0.13529,-0.0338 0.24189,-0.143 0.37418,-0.18709 0.16838,-0.0561 0.39288,0.0561 0.56126,0 0.0837,-0.0279 0.10821,-0.14765 0.18711,-0.18709 0.11041,-0.0552 0.43551,0 0.56126,0 0.12473,0 0.24945,0 0.37418,0 0.0624,0 0.23984,-0.0333 0.18708,0 -0.30932,0.195 -0.65156,0.33211 -0.97732,0.49817"
       id="path5371"
       inkscape:connector-curvature="0" />
    <path
       style="fill:none;fill-opacity:1;stroke:#0e0a08;stroke-width:3;stroke-miterlimit:4;stroke-dasharray:none;stroke-opacity:1"
       d="m 386.89936,259.58228 c 0.24945,0.9978 0.4989,1.99561 0.74834,2.99342 0.24948,0.4989 0.6131,0.95557 0.74838,1.49671 0.24199,0.96801 -0.31554,2.04681 0,2.99342 0.11155,0.33467 0.59057,0.43281 0.74835,0.74835 0.20126,0.40251 0,4.48079 0,5.23848"
       id="path5375"
       inkscape:connector-curvature="0" />
    <path
       style="fill:none;fill-opacity:1;stroke:#0e0a08;stroke-width:3;stroke-miterlimit:4;stroke-dasharray:none;stroke-opacity:1"
       d="m 351.89583,183.22918 c 0.94141,0.38115 1.82435,0.96543 2.82429,1.14345 0.50628,0.0901 0.98642,-0.31039 1.4967,-0.37417 0.49506,-0.0619 0.9978,0 1.49672,0 1.37197,0 2.74397,0 4.11594,0 0.99782,0 1.99562,0 2.99341,0 0.4989,0 1.00283,-0.0706 1.49673,0 0.78089,0.11155 1.46695,0.61867 2.24506,0.74835 0.36907,0.0615 0.75343,-0.0615 1.12253,0 0.74308,0.12385 2.62823,0.82679 3.36759,1.12253 0.99782,0.39913 0.62989,0.50016 1.87089,0.74836 0.24461,0.0489 0.50636,-0.0605 0.74835,0 0.67725,-0.22553 0.69591,0.60614 1.12255,0.74835 0.23664,0.0789 0.51673,-0.0926 0.74834,0 0.41754,0.16702 0.72031,0.54724 1.12253,0.74836 0.22312,0.11156 0.52525,-0.11156 0.74837,0 0.15774,0.0789 0.2164,0.29529 0.37417,0.37418 0.2231,0.11155 0.65979,-0.23321 0.74835,0 0.79314,2.08887 1.3661,4.25484 2.04915,6.38226"
       id="path5377"
       inkscape:connector-curvature="0" />
    <path
       style="fill:none;fill-opacity:1;stroke:#0e0a08;stroke-width:3;stroke-miterlimit:4;stroke-dasharray:none;stroke-opacity:1"
       d="m 422.80416,189.05001 c -0.4935,-0.43659 -0.89188,-1.01362 -1.48047,-1.30978 -0.33425,-0.16819 -0.75214,0.0529 -1.12255,0 -1.01817,-0.14545 -1.97284,-0.62078 -2.99342,-0.74836 -0.49503,-0.0619 -1.00166,0.0619 -1.49669,0 -0.51031,-0.0638 -0.9856,-0.31738 -1.49673,-0.37417 -0.61981,-0.0689 -1.24724,0 -1.87089,0 -1.99559,0 -3.99121,0 -5.98683,0 -0.9978,0 -1.9956,0 -2.99342,0 -0.37417,0 -0.75343,-0.0615 -1.12252,0 -0.38907,0.0648 -0.73348,0.30933 -1.12255,0.37417 -0.73816,0.12303 -1.51122,-0.14676 -2.24504,0 -0.2735,0.0547 -0.47781,0.30654 -0.74838,0.37418 -0.44227,0.11058 -1.501,-0.18493 -1.87086,0 -0.15777,0.0789 -0.21643,0.2953 -0.3742,0.37418 -0.2231,0.11156 -0.52523,-0.11156 -0.74835,0 -0.15777,0.0789 -0.22741,0.27633 -0.37418,0.37418 -0.19645,0.13098 -0.99996,0.38067 -1.12252,0.74835 -0.0789,0.23665 0.0789,0.51171 0,0.74836 -0.0558,0.16733 -0.27633,0.22741 -0.37417,0.37417 -0.15473,0.23206 -0.17698,0.55115 -0.3742,0.74836 -0.0882,0.0882 -0.28596,-0.0882 -0.37417,0 -0.0882,0.0882 0.0558,0.26262 0,0.37418 -0.38577,0.77153 -0.37418,-0.0262 -0.37418,1.12253"
       id="path5379"
       inkscape:connector-curvature="0" />
    <path
       style="fill:none;fill-opacity:1;stroke:#0e0a08;stroke-width:3;stroke-miterlimit:4;stroke-dasharray:none;stroke-opacity:1"
       d="m 405.60624,196.72293 c -0.0282,-0.0161 -1.20104,-0.70904 -1.4552,-0.79375 -0.21331,-0.0711 -0.44098,-0.0882 -0.66146,-0.13229 -0.22048,-0.0441 -0.43799,-0.10746 -0.66146,-0.13229 -0.39444,-0.0438 -0.79375,0 -1.19063,0 -0.22047,0 -0.44233,-0.0243 -0.66145,0 -0.54878,0.061 -0.5528,0.18021 -1.05834,0.39687 -0.12816,0.0549 -0.27215,0.0699 -0.39687,0.13229 -0.14222,0.0711 -0.26459,0.17639 -0.39688,0.26459 -0.13229,0.0882 -0.28445,0.15215 -0.39687,0.26458 -0.11242,0.11243 -0.1628,0.27473 -0.26459,0.39687 -0.11977,0.14373 -0.27709,0.25316 -0.39687,0.39688 -0.293,0.35161 -0.2939,0.51434 -0.52917,0.92604 -0.15777,0.27609 -0.38695,0.50933 -0.52916,0.79375 -0.1042,0.20839 -0.35891,0.96282 -0.39688,1.19063 -0.0262,0.1565 -0.0262,0.90183 0,1.05833 0.0719,0.43109 0.52938,1.27026 0.79375,1.5875 0.11978,0.14372 0.27512,0.25482 0.39688,0.39687 0.14348,0.16741 0.25339,0.36177 0.39687,0.52917 0.3901,0.45512 0.3425,0.33914 0.79375,0.66146 0.17942,0.12815 0.33774,0.28748 0.52917,0.39687 0.14062,0.0804 0.8206,0.24116 0.92604,0.26459 0.2195,0.0488 0.44196,0.0835 0.66146,0.13229 0.17748,0.0394 0.34875,0.10974 0.52916,0.13229 0.35005,0.0438 0.70557,0 1.05834,0 0.72612,0 1.5322,0.0551 2.24896,0 0.38359,-0.0295 1.31352,-0.20208 1.71979,-0.26458 2.21292,-0.34045 -0.26014,0.0654 1.71979,-0.26459 0.52917,-0.0882 1.0537,-0.2112 1.5875,-0.26458 0.17552,-0.0175 0.35414,0.0219 0.52917,0 0.52197,-0.0652 0.99322,-0.29817 1.4552,-0.52917 0.0882,-0.0441 0.19487,-0.0626 0.26459,-0.13229 0.0635,-0.0635 0.37309,-0.69865 0.39687,-0.79375 0.0428,-0.17112 0,-0.35277 0,-0.52916 0,-0.26459 0.0435,-0.53277 0,-0.79375 -0.0574,-0.34412 -0.48104,-1.44915 -0.66146,-1.7198 -0.0692,-0.10377 -0.18666,-0.16719 -0.26458,-0.26458 -0.0993,-0.12415 -0.1764,-0.26458 -0.26458,-0.39687 -0.1764,-0.26459 -0.33052,-0.54545 -0.52917,-0.79375 -0.13766,-0.17209 -0.3915,-0.35708 -0.52917,-0.52917 -0.0993,-0.12415 -0.16525,-0.27272 -0.26458,-0.39688 -0.19613,-0.24517 -0.64349,-0.5433 -0.79375,-0.79375 -0.0718,-0.11957 -0.0605,-0.27729 -0.13229,-0.39687 -0.22093,-0.36822 -0.24265,-0.18199 -0.52917,-0.39688 -0.14967,-0.11225 -0.24122,-0.29309 -0.39687,-0.39687 -0.082,-0.0547 -0.18254,-0.0776 -0.26459,-0.13229 -0.0519,-0.0346 -0.0731,-0.11257 -0.13229,-0.13229 -0.13655,-0.0455 -1.09945,0 -1.32291,0 -0.13187,0 -0.82275,-0.0516 -0.92605,0 -0.27278,0.13639 0.009,0.13229 -0.39687,0.13229"
       id="path5381"
       inkscape:connector-curvature="0" />
    <path
       style="fill:none;fill-opacity:1;stroke:#0e0a08;stroke-width:3;stroke-miterlimit:4;stroke-dasharray:none;stroke-opacity:1"
       d="m 404.81249,202.14689 c -0.13229,-0.17639 -0.26458,-0.35278 -0.39687,-0.52917 -0.0441,0 -0.0928,0.0197 -0.13229,0 -0.0558,-0.0279 -0.0765,-0.1044 -0.13229,-0.13229 -0.0395,-0.0197 -0.1323,0.0441 -0.1323,0 0,-0.0441 0.0928,0.0197 0.1323,0 0.11154,-0.0558 0.14626,-0.22514 0.26458,-0.26458 0.25839,-0.0861 0.30287,0.0568 0.52917,0.13229 0.13231,0.0441 0.62568,0 0.79375,0"
       id="path5383"
       inkscape:connector-curvature="0" />
    <path
       style="fill:none;fill-opacity:1;stroke:#0e0a08;stroke-width:3;stroke-miterlimit:4;stroke-dasharray:none;stroke-opacity:1"
       d="m 356.65833,201.75001 c -0.33425,0.38147 -0.72438,0.72044 -1.00277,1.1444 -0.0765,0.11657 0.27556,-0.0885 0.37417,-0.18709 0.0986,-0.0986 0.11054,-0.25761 0.18709,-0.37417 0.51398,-0.78276 1.20002,-1.43874 1.68381,-2.24507 0.0717,-0.11957 0.12472,-0.24945 0.18708,-0.37418 0.0624,-0.12472 0.11534,-0.2546 0.18709,-0.37417 0.11568,-0.19281 0.2585,-0.36846 0.37417,-0.56127 0.21318,-0.3553 0.33155,-0.77796 0.56127,-1.12253 0.0489,-0.0734 0.13816,-0.11371 0.18708,-0.18709 0.1547,-0.23206 0.17698,-0.55115 0.37418,-0.74835 0.0986,-0.0986 0.27559,-0.0885 0.3742,-0.18709 0.95607,-0.9561 -0.78447,0.26094 0.56126,-0.74836 0.11154,-0.0837 0.27556,-0.0885 0.37417,-0.18709 0.0986,-0.0986 0.0885,-0.27557 0.18709,-0.37417 0.38708,-0.3871 -0.0151,0.59153 0.37417,-0.18709 0.0279,-0.0558 -0.0279,-0.13131 0,-0.18709 0.0395,-0.0789 0.14764,-0.10821 0.18709,-0.18709 0.0279,-0.0558 -0.0441,-0.14299 0,-0.18709 0.0441,-0.0441 0.14301,0.0441 0.18708,0 0.0441,-0.0441 -0.0441,-0.14299 0,-0.18709 0.0441,-0.0441 0.13132,0.0279 0.18709,0 0.11547,-0.0577 0.87773,-0.81999 0.93546,-0.93544 0.0279,-0.0558 -0.0441,-0.14299 0,-0.18709 0.0441,-0.0441 0.12473,0 0.18709,0"
       id="path5385"
       inkscape:connector-curvature="0" />
    <path
       style="fill:none;fill-opacity:1;stroke:#0e0a08;stroke-width:3;stroke-miterlimit:4;stroke-dasharray:none;stroke-opacity:1"
       d="m 349.85581,174.45694 c 0.55735,0.21767 0.98589,0.64354 1.4967,0.93544 0.24214,0.13837 0.50622,0.2358 0.74837,0.37418 0.39045,0.22311 0.7203,0.54724 1.12252,0.74835 0.54166,0.27082 1.4441,0.49695 2.05798,0.37418 0.21834,-0.0437 0.83373,-0.50314 0.93544,-0.56127 0.24215,-0.13837 0.52141,-0.21207 0.74835,-0.37418 0.21531,-0.15378 0.358,-0.39188 0.56128,-0.56126 0.22815,-0.19014 0.98145,-0.66632 1.30961,-0.74836 0.121,-0.0303 0.24945,0 0.37418,0 0.12472,0 0.26262,-0.0558 0.37417,0 0.15777,0.0789 0.24945,0.24945 0.37417,0.37418 0.24067,0.24065 0.56055,0.46662 0.74838,0.74836 0.30435,0.45653 0.41952,1.05826 0.74834,1.4967 0.33653,0.44872 0.9856,0.731 1.49673,0.93545 1.09873,0.4395 0.0225,0.004 1.12252,0.18709 0.49569,0.0826 0.48035,0.2781 0.93543,0.18709 0.19338,-0.0387 0.3679,-0.14842 0.56129,-0.18709 0.30575,-0.0611 0.62785,0.0513 0.93543,0 0.19452,-0.0324 0.36674,-0.15467 0.56126,-0.18709 0.18455,-0.0308 0.37672,0.0307 0.56126,0 0.62902,-0.10484 1.21555,-0.46765 1.8709,-0.56127 0.18521,-0.0265 0.37605,0.0265 0.56126,0 0.25456,-0.0364 0.49382,-0.15072 0.74835,-0.18709 0.53117,-0.0759 1.14662,0 1.68381,0"
       id="path5387"
       inkscape:connector-curvature="0" />
    <path
       style="fill:none;fill-opacity:1;stroke:#0e0a08;stroke-width:3;stroke-miterlimit:4;stroke-dasharray:none;stroke-opacity:1"
       d="m 414.40139,178.57289 c 0.31181,-0.31182 0.58738,-0.66472 0.93546,-0.93545 0.22014,-0.17122 0.51184,-0.22636 0.74835,-0.37418 0.26442,-0.16526 0.48392,-0.396 0.74835,-0.56126 0.23651,-0.14782 0.51186,-0.22637 0.74834,-0.37418 0.26443,-0.16526 0.49893,-0.37418 0.74838,-0.56126 0.4989,-0.37418 1.0232,-0.71669 1.49669,-1.12254 0.2009,-0.17219 0.35801,-0.39188 0.56126,-0.56126 0.17275,-0.14395 0.3742,-0.24945 0.56129,-0.37418 0.24945,-0.18709 0.5116,-0.35834 0.74835,-0.56127 0.40177,-0.34437 0.78377,-0.71601 1.12252,-1.12253 0.14396,-0.17273 0.21519,-0.40227 0.37417,-0.56126 0.15902,-0.159 0.38569,-0.23372 0.56129,-0.37418 0.40915,-0.32733 0.70353,-0.80828 1.12252,-1.12253 0.49652,-0.3724 1.2931,-0.55576 1.8709,-0.74836 0.39981,-0.13327 0.8985,-0.31544 1.30961,-0.37418 0.1852,-0.0265 0.37674,0.0308 0.56126,0 0.19454,-0.0324 0.36674,-0.15466 0.56128,-0.18708 0.18452,-0.0308 0.37672,0.0307 0.56126,0 0.19453,-0.0324 0.36674,-0.15467 0.56126,-0.18709 0.18455,-0.0308 0.37672,0.0308 0.56127,0 0.19452,-0.0324 0.3679,-0.14842 0.56126,-0.18709 0.99951,-0.1999 -0.42106,0.35551 0.93546,-0.18709 0.8478,-0.33913 0.0259,-0.0173 0.56126,-0.37418 0.11602,-0.0774 0.25815,-0.10973 0.37417,-0.18709 0.0734,-0.0489 0.11372,-0.13816 0.18709,-0.18708 0.11602,-0.0774 0.27556,-0.0885 0.37417,-0.18709 0.0986,-0.0986 0.0885,-0.27558 0.18709,-0.37418 0.0986,-0.0986 0.27559,-0.0885 0.37417,-0.18709 0.0986,-0.0986 0.10975,-0.25815 0.18712,-0.37418 0.0489,-0.0734 0.13816,-0.1137 0.18708,-0.18709 0.1547,-0.23205 0.20683,-0.52523 0.37418,-0.74835 0.21619,-0.28827 1.04481,-1.09778 1.3096,-1.30962 0.17558,-0.14046 0.38569,-0.23371 0.56126,-0.37418 0.27549,-0.22038 0.44585,-0.56685 0.74838,-0.74835 0.16909,-0.10146 0.40349,-0.0688 0.56126,-0.18709 0.11155,-0.0837 0.0885,-0.27557 0.18709,-0.37418 0.0986,-0.0986 0.26262,-0.10342 0.37417,-0.18709 0.1411,-0.10583 0.23307,-0.26834 0.37417,-0.37417 0.11158,-0.0837 0.25816,-0.10974 0.37418,-0.18709 0.0734,-0.0489 0.11655,-0.13418 0.18708,-0.18709 0.17989,-0.13491 0.40228,-0.21518 0.56129,-0.37418 0.0986,-0.0986 0.0885,-0.27557 0.18709,-0.37418 0.0986,-0.0986 0.27556,-0.0885 0.37417,-0.18709 0.0986,-0.0986 0.10343,-0.26262 0.18709,-0.37417 0.10583,-0.14111 0.26834,-0.23307 0.37417,-0.37418 0.16735,-0.22312 0.21947,-0.5163 0.37418,-0.74835 0.0978,-0.14677 0.2953,-0.21641 0.37417,-0.37418 0.2753,-0.55057 -0.43339,0.24632 0.18709,-0.37418"
       id="path5389"
       inkscape:connector-curvature="0" />
    <path
       style="fill:none;fill-opacity:1;stroke:#0e0a08;stroke-width:3;stroke-miterlimit:4;stroke-dasharray:none;stroke-opacity:1"
       d="m 338.66666,167.15574 c 0.11025,0.0441 0.21656,0.0997 0.33073,0.13229 0.0424,0.0121 0.0891,-0.009 0.13229,0 0.18463,0.0369 0.35682,0.1295 0.52917,0.19844 0.0647,0.0259 0.13864,0.0303 0.19844,0.0661 0.0535,0.0321 0.0882,0.0882 0.13229,0.13229 0.0661,0.0661 0.13229,0.13229 0.19844,0.19844 0.13229,0.13229 0.27511,0.25482 0.39687,0.39687 0.0718,0.0837 0.12668,0.18088 0.19844,0.26458 0.12176,0.14205 0.25315,0.27711 0.39687,0.39688 0.0611,0.0509 0.13375,0.0861 0.19844,0.13229 0.0897,0.0641 0.16383,0.15367 0.26458,0.19844 0.10274,0.0457 0.22048,0.0441 0.33073,0.0661 0.11026,0.022 0.21887,0.055 0.33073,0.0661 0.1097,0.011 0.22048,0 0.33073,0 0.13229,0 0.26514,0.012 0.39688,0 0.96544,-0.0878 -0.29808,-0.0661 0.66146,-0.0661 0.11025,0 0.22047,0 0.33072,0 0.0882,0 0.17902,-0.0214 0.26459,0 0.17928,0.0448 0.65487,0.34151 0.79375,0.46303 0.31636,0.27682 0.44955,0.57285 0.66146,0.92604 0.0661,0.11024 0.14094,0.21574 0.19843,0.33073 0.10621,0.2124 0.15838,0.44906 0.26459,0.66145 0.0356,0.0711 0.0928,0.12942 0.13229,0.19844 0.0489,0.0856 0.0776,0.18254 0.13229,0.26459 0.0346,0.0519 0.0949,0.0824 0.13229,0.13229 0.19685,0.26246 -0.13732,0.009 0.26459,0.33073 0.0385,0.0308 0.0928,0.0366 0.13229,0.0661 0.0499,0.0374 0.0804,0.0977 0.13229,0.13229 0.082,0.0547 0.1764,0.0882 0.26458,0.1323 0.0882,0.0441 0.17227,0.0977 0.26459,0.13229 0.0851,0.0319 0.17914,0.0351 0.26458,0.0661 0.1578,0.0574 0.30522,0.14105 0.46302,0.19844 0.0854,0.0311 0.17947,0.0342 0.26458,0.0662 0.0923,0.0346 0.17227,0.0977 0.26459,0.13229 0.17023,0.0638 0.35435,0.0823 0.52916,0.13229 0.45993,0.1314 -0.10141,-0.0132 0.46302,0.19844 0.0308,0.0116 0.49835,0.12073 0.52917,0.13229 0.0923,0.0346 0.17227,0.0977 0.26458,0.13229 0.0851,0.0319 0.18103,0.0303 0.26459,0.0661 0.0731,0.0313 0.1294,0.0928 0.19843,0.13229 0.0856,0.0489 0.18884,0.0692 0.26459,0.13229 0.0611,0.0509 0.0761,0.14222 0.13229,0.19844 0.0562,0.0562 0.13737,0.0814 0.19844,0.13229 0.11977,0.0998 0.23333,0.20899 0.33073,0.33073 0.0497,0.0621 0.0826,0.13636 0.13229,0.19844 0.0389,0.0487 0.0949,0.0824 0.13229,0.13229 0.0296,0.0394 0.0388,0.0913 0.0661,0.13229 0.0476,0.0714 0.13758,0.13758 0.19843,0.19844"
       id="path5391"
       inkscape:connector-curvature="0" />
    <path
       style="fill:none;fill-opacity:1;stroke:#0e0a08;stroke-width:3;stroke-miterlimit:4;stroke-dasharray:none;stroke-opacity:1"
       d="m 361.35468,177.01147 c 0.49533,-0.0201 0.95406,-0.27003 1.45521,-0.19844 0.069,0.01 0.12967,0.0547 0.19844,0.0661 0.0652,0.0109 0.13359,-0.013 0.19844,0 0.0483,0.01 0.0865,0.0478 0.13229,0.0662 0.13446,0.0538 0.21439,0.0547 0.33073,0.13229 0.0259,0.0173 0.0383,0.0522 0.0661,0.0661 0.0394,0.0197 0.0882,0 0.13229,0"
       id="path5393"
       inkscape:connector-curvature="0" />
    <path
       style="fill:none;fill-opacity:1;stroke:#0e0a08;stroke-width:3;stroke-miterlimit:4;stroke-dasharray:none;stroke-opacity:1"
       d="m 414.2052,174.8948 c 0.11025,0.0441 0.22453,0.0792 0.33073,0.1323 0.41392,0.20695 0.8064,0.47145 1.19063,0.7276 0.68678,0.45784 1.35416,0.94592 2.05052,1.38906 1.17607,0.74841 -0.47533,-0.30081 0.66146,0.33073 0.0964,0.0535 0.16597,0.14914 0.26458,0.19844 0.0813,0.0407 0.17584,0.0464 0.26458,0.0661 0.3755,0.0834 0.25104,0.0661 0.59532,0.0661 0.11025,0 0.22047,0 0.33072,0 0.11026,0 0.22263,0.0216 0.33073,0 0.17241,-0.0345 0.5928,-0.26946 0.72761,-0.33073 0.51474,-0.23397 0.22145,-0.0134 0.79375,-0.46302 0.39835,-0.313 0.84008,-0.69787 1.12448,-1.12448 0.082,-0.12306 0.11361,-0.2757 0.19843,-0.39687 0.0715,-0.10218 0.18246,-0.17072 0.26459,-0.26459 0.0726,-0.083 0.13435,-0.17487 0.19844,-0.26458 0.0462,-0.0647 0.0761,-0.14222 0.13229,-0.19844 0.003,-0.003 0.32739,-0.19843 0.33073,-0.19843 0.0697,0 0.13229,0.0441 0.19843,0.0661 0.23419,0.0781 0.21781,0.0622 0.46302,0.19844 0.1124,0.0624 0.21575,0.14094 0.33073,0.19844 0.10621,0.0531 0.22265,0.0832 0.33073,0.13229 0.13465,0.0612 0.25787,0.14789 0.39688,0.19844 0.28009,0.10185 1.0583,0.10583 1.32291,0 0.21614,-0.0865 0.58325,-0.3848 0.72761,-0.52917 0.61314,-0.61315 0.50562,-0.55853 0.92604,-1.32292 0.23495,-0.42717 0.37248,-0.61961 0.52917,-1.05833 0.054,-0.15117 0.0815,-0.31074 0.13229,-0.46302 0.0375,-0.11265 0.10104,-0.21618 0.13229,-0.33073 0.14655,-0.53736 -0.0109,-0.23232 0.13229,-0.66146 0.0375,-0.11264 0.0982,-0.217 0.13229,-0.33073 0.0323,-0.10768 0.0244,-0.22634 0.0662,-0.33073 0.0413,-0.10317 0.42267,-0.67379 0.46302,-0.7276 0.6423,-0.85642 1.56509,-1.40749 2.4474,-1.98438 0.0825,-0.054 0.17012,-0.10395 0.26458,-0.13229 0.53941,-0.16182 0.24363,0.0523 0.66146,-0.19844 0.0267,-0.016 0.0586,-0.0359 0.0661,-0.0661 0.0161,-0.0642 0,-0.13229 0,-0.19844 0,-0.11024 0,-0.22048 0,-0.33073 0,-0.13229 0.0119,-0.26512 0,-0.39687 -0.0293,-0.32231 -0.11022,-0.40413 -0.19843,-0.72761 -0.0296,-0.10846 -0.0418,-0.22098 -0.0661,-0.33073 -0.0497,-0.22353 -0.15468,-0.4426 -0.19844,-0.66146 -0.009,-0.0432 -0.009,-0.0891 0,-0.13229 0.0156,-0.0782 0.16031,-0.53813 0.19844,-0.59531 0.16534,-0.248 0.60719,-0.44369 0.8599,-0.59531 0.36576,-0.21946 0.74305,-0.4046 1.12448,-0.59531 0.13229,-0.0661 0.25881,-0.14535 0.39687,-0.19844 0.14981,-0.0576 0.31321,-0.0747 0.46302,-0.13229 0.13806,-0.0531 0.26458,-0.1323 0.39688,-0.19844 0.15433,-0.0441 0.31075,-0.0815 0.46302,-0.13229 0.36208,-0.12069 0.35655,-0.16207 0.7276,-0.33073 0.21619,-0.0983 0.44905,-0.15838 0.66146,-0.26459 0.11499,-0.0575 0.21325,-0.14622 0.33073,-0.19843 0.0831,-0.0369 0.18103,-0.0303 0.26458,-0.0661 0.14613,-0.0626 0.25466,-0.19348 0.39688,-0.26458 0.0624,-0.0312 0.13229,-0.0441 0.19843,-0.0662"
       id="path5395"
       inkscape:connector-curvature="0" />
    <path
       style="fill:none;fill-opacity:1;stroke:#0e0a08;stroke-width:3;stroke-miterlimit:4;stroke-dasharray:none;stroke-opacity:1"
       d="m 442.46469,158.18022 c 0.21542,-0.0288 0.44214,-0.0118 0.64624,-0.0865 0.0747,-0.0273 0.0826,-0.13636 0.13229,-0.19843 0.0389,-0.0487 0.0933,-0.0836 0.1323,-0.1323 0.0993,-0.12415 0.16279,-0.27473 0.26458,-0.39687 0.11978,-0.14373 0.27511,-0.25483 0.39687,-0.39688 0.14349,-0.1674 0.2534,-0.36176 0.39688,-0.52916 0.0609,-0.071 0.14406,-0.12232 0.19844,-0.19844 0.0573,-0.0802 0.075,-0.18435 0.13229,-0.26458 0.0544,-0.0761 0.13856,-0.12658 0.19844,-0.19844 0.10178,-0.12214 0.16525,-0.27272 0.26458,-0.39688 0.0389,-0.0487 0.0949,-0.0824 0.13229,-0.13229 0.0871,-0.11614 0.11782,-0.27596 0.19844,-0.39687 0.0346,-0.0519 0.1044,-0.0765 0.13229,-0.13229 0.0196,-0.0394 -0.0312,-0.10111 0,-0.1323 0.0882,-0.0882 0.0661,0.11025 0.0661,-0.0661"
       id="path5397"
       inkscape:connector-curvature="0" />
    <path
       style="fill:none;fill-opacity:1;stroke:#0e0a08;stroke-width:3;stroke-miterlimit:4;stroke-dasharray:none;stroke-opacity:1"
       d="m 430.01406,166.42814 c -1.13165,0 0.4795,-0.0216 -0.66146,0.0661 -0.17587,0.0135 -0.35399,-0.0206 -0.52917,0 -0.65071,0.0766 -1.19457,0.35182 -1.78594,0.59532 -1.71725,0.7071 0.4634,-0.24441 -0.92604,0.39687 -0.15245,0.0704 -0.32001,0.11043 -0.46302,0.19844 -0.14666,0.0902 -0.2591,0.22741 -0.39687,0.33073 -0.12719,0.0954 -0.26829,0.17106 -0.39688,0.26458 -0.11417,0.083 -0.21656,0.18155 -0.33073,0.26458 -0.25717,0.18704 -0.52916,0.35278 -0.79375,0.52917 -0.69112,0.46075 -1.38985,0.91914 -2.11666,1.32292 -0.0862,0.0479 -0.17839,0.0844 -0.26459,0.13229 -0.11239,0.0624 -0.22376,0.12712 -0.33073,0.19844 -0.0917,0.0611 -0.16822,0.1449 -0.26458,0.19843 -0.1038,0.0577 -0.22222,0.0841 -0.33073,0.1323 -0.0901,0.04 -0.17446,0.0922 -0.26458,0.13229 -0.10851,0.0482 -0.22223,0.0841 -0.33073,0.13229 -0.18021,0.0801 -0.3479,0.1869 -0.52917,0.26458 -0.12816,0.0549 -0.26458,0.0882 -0.39687,0.13229 -0.19844,0.0662 -0.39688,0.1323 -0.59532,0.19844 -0.13229,0.0441 -0.27215,0.0699 -0.39687,0.13229 -0.0711,0.0356 -0.12734,0.0967 -0.19844,0.1323 -0.0624,0.0312 -0.14041,0.0275 -0.19844,0.0661 -0.0778,0.0519 -0.12657,0.13855 -0.19843,0.19844 -0.53144,0.44286 0.18394,-0.22064 -0.46302,0.26458 -0.0686,0.0515 -0.37299,0.38585 -0.46302,0.46302 -0.12785,0.14626 -0.31732,0.20931 -0.46303,0.33073 -0.0719,0.0599 -0.13229,0.13229 -0.19843,0.19844 -0.0661,0.0661 -0.13229,0.13229 -0.19844,0.19844 -0.0441,0.0661 -0.0761,0.14222 -0.13229,0.19843 -0.0562,0.0562 -0.14222,0.0761 -0.19844,0.1323 -0.0562,0.0562 -0.0826,0.13636 -0.13229,0.19843 -0.0779,0.0974 -0.18976,0.16481 -0.26458,0.26459 -0.0296,0.0394 -0.0193,0.1167 -0.0661,0.13229 -0.16865,0.0562 -0.3528,0.0441 -0.52917,0.0661"
       id="path5399"
       inkscape:connector-curvature="0" />
    <path
       style="fill:none;fill-opacity:1;stroke:#0e0a08;stroke-width:3;stroke-miterlimit:4;stroke-dasharray:none;stroke-opacity:1"
       d="m 449.52708,266.30835 c 0,4.23333 0,8.46666 0,12.69999"
       id="path5405"
       inkscape:connector-curvature="0" />
    <path
       style="fill:none;fill-opacity:1;stroke:#0e0a08;stroke-width:3;stroke-miterlimit:4;stroke-dasharray:none;stroke-opacity:1"
       d="m 415.39583,267.36668 c 1.14652,0.44097 2.4175,0.64152 3.43958,1.32292 0.23207,0.1547 -0.161,0.5348 -0.26458,0.79375 -0.64865,1.6216 0.0919,-0.81621 -0.26459,1.32291 -0.0459,0.2751 -0.20989,0.52027 -0.26458,0.79375 -0.0346,0.17297 0.0346,0.3562 0,0.52917 -0.0547,0.27348 -0.20989,0.52027 -0.26458,0.79375 -0.10377,0.51889 0,1.05833 0,1.5875 0,0.84927 -0.1048,1.80753 0,2.64583 0.0451,0.36084 0.21947,0.6975 0.26458,1.05833 0.0438,0.35005 -0.0499,0.70911 0,1.05834 0.0395,0.27609 0.18796,0.52559 0.26458,0.79375 0.19979,0.69929 0.42633,1.39671 0.52917,2.11666 0.0374,0.26192 -0.0435,0.53277 0,0.79375 0.38709,2.32257 0.0973,-0.40444 0.52917,1.32292 0.0428,0.17113 -0.0558,0.36182 0,0.52917 0.0394,0.11832 0.22513,0.14626 0.26458,0.26458 0.10705,0.32118 0,0.96401 0,1.32292 0,0.0882 0.0624,0.20222 0,0.26458 -0.0624,0.0624 -0.1764,0 -0.26458,0"
       id="path5409"
       inkscape:connector-curvature="0" />
    <path
       style="fill:none;fill-opacity:1;stroke:#0e0a08;stroke-width:3;stroke-miterlimit:4;stroke-dasharray:none;stroke-opacity:1"
       d="m 442.91249,268.42501 c -1.67571,0.88194 -3.43939,1.61384 -5.02708,2.64584 -0.23384,0.15199 -0.1764,0.52916 -0.26458,0.79375 -0.72515,2.17542 0.093,-0.5578 -0.26459,1.5875 -0.0459,0.2751 -0.21873,0.51864 -0.26458,0.79375 -0.0435,0.26098 0.0435,0.53276 0,0.79375 -0.0458,0.2751 -0.21873,0.51864 -0.26458,0.79374 -0.0725,0.43498 0.0865,0.89051 0,1.32292 -0.0547,0.27347 -0.21873,0.51864 -0.26459,0.79375 -0.087,0.52197 0.0748,1.06365 0,1.5875 -0.0514,0.35999 -0.21314,0.69834 -0.26458,1.05833 -0.0374,0.26192 0,0.52917 0,0.79375 0,0.79375 0,1.5875 0,2.38125 0,0.49737 -0.10999,1.41211 0,1.85209 0.0478,0.19132 0.21675,0.33784 0.26458,0.52916 0.0856,0.34224 0,0.70557 0,1.05834 0,0.61735 0,1.23473 0,1.85208"
       id="path5411"
       inkscape:connector-curvature="0" />
  </g>
</svg>
