<?xml version="1.0" encoding="UTF-8" standalone="no"?>
<!-- Created with Inkscape (http://www.inkscape.org/) -->

<svg
   xmlns:dc="http://purl.org/dc/elements/1.1/"
   xmlns:cc="http://creativecommons.org/ns#"
   xmlns:rdf="http://www.w3.org/1999/02/22-rdf-syntax-ns#"
   xmlns:svg="http://www.w3.org/2000/svg"
   xmlns="http://www.w3.org/2000/svg"
   xmlns:sodipodi="http://sodipodi.sourceforge.net/DTD/sodipodi-0.dtd"
   xmlns:inkscape="http://www.inkscape.org/namespaces/inkscape"
   width="1920"
   height="1080"
   viewBox="0 0 508.00002 285.74999"
   version="1.1"
   id="svg8"
   inkscape:version="0.92.4 5da689c313, 2019-01-14"
   sodipodi:docname="dibujo8.svg">
  <defs
     id="defs2" />
  <sodipodi:namedview
     id="base"
     pagecolor="#ffffff"
     bordercolor="#666666"
     borderopacity="1.0"
     inkscape:pageopacity="0.0"
     inkscape:pageshadow="2"
     inkscape:zoom="0.5"
     inkscape:cx="977.93905"
     inkscape:cy="587.39713"
     inkscape:document-units="mm"
     inkscape:current-layer="layer1"
     showgrid="false"
     units="px"
     inkscape:window-width="1366"
     inkscape:window-height="768"
     inkscape:window-x="0"
     inkscape:window-y="0"
     inkscape:window-maximized="0"
     showguides="false" />
  <metadata
     id="metadata5">
    <rdf:RDF>
      <cc:Work
         rdf:about="">
        <dc:format>image/svg+xml</dc:format>
        <dc:type
           rdf:resource="http://purl.org/dc/dcmitype/StillImage" />
        <dc:title></dc:title>
      </cc:Work>
    </rdf:RDF>
  </metadata>
  <g
     inkscape:label="Capa 1"
     inkscape:groupmode="layer"
     id="layer1"
     transform="translate(0,-11.250015)">
    <path
       style="fill:none;fill-opacity:1;stroke:#0e0a08;stroke-width:3;stroke-miterlimit:4;stroke-dasharray:none;stroke-opacity:1"
       d="m 165.62916,126.60835 c 1.05834,-0.70556 2.11667,-1.41111 3.175,-2.11667 0.52917,-0.52917 0.97854,-1.15253 1.5875,-1.5875 0.6419,-0.4585 1.47477,-0.59983 2.11667,-1.05833 0.60896,-0.43498 0.97854,-1.15253 1.5875,-1.5875 0.6419,-0.4585 1.44774,-0.64026 2.11667,-1.05834 0.74788,-0.46743 1.41111,-1.05833 2.11666,-1.5875 2.11413,-1.58559 4.19965,-3.22653 6.35,-4.7625 0.51752,-0.36965 1.05834,-0.70555 1.5875,-1.05833 0.70556,-0.35278 1.46032,-0.62077 2.11667,-1.05833 0.41511,-0.27674 0.66876,-0.74667 1.05833,-1.05834 0.37853,-0.30281 2.53146,-1.90215 3.175,-2.11666 0.16734,-0.0558 0.3714,0.0789 0.52917,0 0.22312,-0.11156 0.30605,-0.41761 0.52917,-0.52917 0.10855,-0.0543 1.51287,-0.0746 1.5875,0 0.12472,0.12473 -0.0558,0.36183 0,0.52917 0.48543,1.4563 0.90534,0.76497 0.52916,2.64583 -0.0773,0.38676 -0.45181,0.67158 -0.52916,1.05833 -0.10378,0.51889 0.0748,1.06366 0,1.5875 -0.10285,0.71996 -0.35278,1.41111 -0.52917,2.11667 0,0.88194 0.0878,1.76827 0,2.64583 -0.0895,0.89495 -0.45447,1.74953 -0.52917,2.64584 -0.10254,1.23045 0.0947,2.47308 0,3.70416 -0.0823,1.06977 -0.4224,2.1074 -0.52916,3.175 -0.91952,0.48196 -0.37836,9.00122 -0.52917,11.1125 -0.17773,2.48818 -0.67902,4.94283 -1.05833,7.40834 -0.16315,1.06045 -0.44688,2.10523 -0.52917,3.175 -0.0947,1.23108 0.0947,2.47308 0,3.70416 -0.2334,3.03422 -1.28467,5.96754 -1.5875,8.99584 -0.0702,0.70205 0.0779,1.41542 0,2.11666 0.003,1.65784 -0.85662,3.14884 -1.05833,4.7625 -0.17503,1.40022 0,2.82223 0,4.23334 0,1.94027 0,3.88055 0,5.82083"
       id="path5563"
       inkscape:connector-curvature="0" />
    <path
       style="fill:none;fill-opacity:1;stroke:#0e0a08;stroke-width:3;stroke-miterlimit:4;stroke-dasharray:none;stroke-opacity:1"
       d="m 241.3,107.02918 c -2.7748,0.3964 -4.18705,0.56886 -6.87917,1.05833 -2.61447,0.47536 -5.41022,0.74508 -7.9375,1.5875 -0.90114,0.30038 -1.75643,0.72481 -2.64583,1.05834 -0.52228,0.19585 -1.05117,0.37593 -1.5875,0.52916 -0.69929,0.1998 -1.49304,0.15499 -2.11667,0.52917 -0.33821,0.20293 -0.25027,0.77944 -0.52917,1.05833 -2.70424,2.70425 0.73805,-2.21878 -2.11666,1.5875 -0.23665,0.31554 -0.35278,0.70556 -0.52917,1.05834 -0.17639,0.35277 -0.45182,0.67157 -0.52917,1.05833 -0.10377,0.51889 0.0748,1.06365 0,1.5875 -0.10285,0.71996 -0.43896,1.39501 -0.52916,2.11667 -0.0875,0.7001 0,1.41111 0,2.11666 0,2.11667 0,4.23334 0,6.35 0,0.90961 -0.19942,3.43566 0,4.23334 0.0957,0.38264 0.40444,0.68415 0.52916,1.05833 0.0558,0.16734 -0.0789,0.3714 0,0.52917 0.11156,0.22311 0.41761,0.30605 0.52917,0.52916 0.46837,0.93674 -0.7871,0.18082 0.52917,1.05834 2.67324,1.78216 0.0122,0.004 1.5875,0.52916 0.37417,0.12473 0.67569,0.43351 1.05833,0.52917 0.68449,0.17112 1.43218,-0.17112 2.11667,0 0.38264,0.0957 0.68415,0.40444 1.05833,0.52917 0.15355,0.0512 2.42805,0.10889 2.64583,0 0.22312,-0.11156 0.30606,-0.41761 0.52917,-0.52917 0.15777,-0.0789 0.3714,0.0789 0.52917,0 0.4847,-0.24235 3.88357,-3.76699 4.23333,-4.23333 0.23665,-0.31554 0.29252,-0.7428 0.52917,-1.05834 3.24037,-3.24037 -0.66935,0.89247 1.5875,-2.11666 0.29934,-0.39912 0.80165,-0.63053 1.05833,-1.05834 0.28698,-0.4783 0.32201,-1.0696 0.52917,-1.5875 0.29296,-0.73241 0.76537,-1.38425 1.05833,-2.11666 0.20716,-0.5179 0.27972,-1.0886 0.52917,-1.5875 0.11156,-0.22312 0.4176,-0.30605 0.52916,-0.52917 1.59802,-3.19604 -0.0763,-0.22404 0.52917,-2.64583 0.0957,-0.38264 0.45182,-0.67158 0.52917,-1.05834 0.10377,-0.51889 -0.087,-1.06553 0,-1.5875 0.0917,-0.5502 0.43746,-1.0373 0.52916,-1.5875 0.145,-0.86994 -0.17296,-1.78101 0,-2.64583 0.1094,-0.54696 0.41978,-1.04054 0.52917,-1.5875 0.13837,-0.69185 0,-1.41111 0,-2.11667 0,-0.88194 0,-1.76389 0,-2.64583 0,-0.90024 -0.0749,-1.62497 0,-1.5875 3.38931,1.69466 2.64583,3.889 2.64583,6.87917 0,0.35277 -0.0856,0.71609 0,1.05833 0.68121,2.72481 0.54221,-0.96704 1.05834,2.64583 0.0998,0.69847 0,1.41111 0,2.11667 0,1.94028 -0.16113,3.88726 0,5.82083 1.31837,7.91025 -0.0777,-1.53901 0.52916,6.35 0.17794,2.3132 0.8804,4.56597 1.05834,6.87917 0.0947,1.23109 -0.0947,2.47308 0,3.70417 0.0823,1.06977 0.35277,2.11666 0.52916,3.175 0.17639,1.05833 0.26895,2.1341 0.52917,3.175 0.79345,3.17378 1.28241,2.76998 1.5875,5.82083 0.0878,0.87757 -0.0878,1.76827 0,2.64583 0.0895,0.89495 0.43967,1.75089 0.52917,2.64584 0.0877,0.87756 -0.0974,1.76928 0,2.64583 0.2387,2.14831 1.28168,4.20931 1.5875,6.35 0,5.06427 -0.23665,-1.18325 0.52916,2.64583 0.10378,0.51889 -0.12834,1.07414 0,1.5875 0.0605,0.24201 0.41761,0.30605 0.52917,0.52917 0.18067,0.36134 0,1.61906 0,2.11667"
       id="path5567"
       inkscape:connector-curvature="0" />
    <path
       style="fill:none;fill-opacity:1;stroke:#0e0a08;stroke-width:3;stroke-miterlimit:4;stroke-dasharray:none;stroke-opacity:1"
       d="m 277.28333,104.38335 c -1.77258,1.45876 -3.88223,2.3541 -5.29167,4.23333 -0.23664,0.31553 -0.29252,0.7428 -0.52916,1.05833 -1.02788,1.3705 -2.37242,2.09898 -3.175,3.70417 -0.4989,0.99781 -0.55944,2.17719 -1.05834,3.175 -0.28442,0.56884 -0.7739,1.01866 -1.05833,1.5875 -0.42291,0.84584 -0.83227,2.91295 -1.05833,3.70417 -0.30647,1.07265 -0.70556,2.11666 -1.05834,3.175 -0.17639,0.52916 -0.32201,1.0696 -0.52916,1.5875 -0.14649,0.3662 -0.45182,0.67157 -0.52917,1.05833 -0.0111,0.0553 -0.13979,3.42459 0,3.70417 0.11156,0.22311 0.41761,0.30605 0.52917,0.52916 0.15776,0.31554 -0.24946,0.80888 0,1.05834 0.24945,0.24945 0.7428,-0.15777 1.05833,0 0.22312,0.11156 0.30604,0.4176 0.52917,0.52916 0.15777,0.0789 0.35277,0 0.52916,0 0.52917,0 1.08548,0.16734 1.5875,0 0.74835,-0.24945 1.35139,-0.86701 2.11667,-1.05833 0.34224,-0.0856 0.71609,0.0856 1.05833,0 0.76528,-0.19132 1.38425,-0.76537 2.11667,-1.05833 1.07569,-0.43028 1.71508,-0.43784 2.64583,-1.05834 1.95385,-1.30256 -0.89551,0.24424 1.05834,-1.05833 0.32816,-0.21878 0.73017,-0.31038 1.05833,-0.52917 0.82378,-0.54918 1.069,-1.3389 1.5875,-2.11666 0.80727,-1.2109 0.41886,0.33088 1.05833,-1.5875 0.23289,-0.69866 0,-1.91483 0,-2.64584 0,-1.41111 0,-2.82222 0,-4.23333 0,-0.70556 0.13838,-1.42481 0,-2.11667 -0.0774,-0.38675 -0.40444,-0.68415 -0.52916,-1.05833 -0.0558,-0.16734 0.0428,-0.35804 0,-0.52917 -0.13528,-0.54113 -0.41979,-1.04054 -0.52917,-1.5875 -0.17296,-0.86481 0.14499,-1.77588 0,-2.64583 -0.0917,-0.5502 -0.43746,-1.0373 -0.52917,-1.5875 -0.087,-0.52197 0.12835,-1.07413 0,-1.5875 -0.23037,-0.92152 -1.05833,-1.69595 -1.05833,-2.64583 0,-1.11558 0.75187,-2.10234 1.05833,-3.175 0.0969,-0.33921 -0.35277,-1.05834 0,-1.05834 0.1764,0 0,0.35278 0,0.52917 0,0.35278 0.0969,0.71913 0,1.05833 -0.26096,0.91334 -1.05833,1.69595 -1.05833,2.64584 0,1.28413 0.82862,2.44075 1.05833,3.70416 0.12621,0.69418 -0.0779,1.41543 0,2.11667 0.70213,6.31917 0.52917,-1.00756 0.52917,5.29167 0,2.11666 0,4.23333 0,6.35 0,1.05833 -0.0879,2.12032 0,3.175 0.1782,2.13845 0.80761,4.21883 1.05833,6.35 0.22765,1.93493 0.30152,3.8859 0.52917,5.82083 0.12536,1.06558 0.44005,2.10577 0.52917,3.175 0.0879,1.05468 0,2.11667 0,3.175 0,1.94028 0.17565,3.88852 0,5.82083 -0.0971,1.06853 -0.43204,2.10648 -0.52917,3.175 -0.1597,1.75665 0,3.52778 0,5.29167 0,4.23333 0,8.46667 0,12.7"
       id="path5569"
       inkscape:connector-curvature="0" />
    <path
       style="fill:none;fill-opacity:1;stroke:#0e0a08;stroke-width:3;stroke-miterlimit:4;stroke-dasharray:none;stroke-opacity:1"
       d="m 294.74583,119.72918 c 1.30215,-3.24514 4.00942,-5.56838 5.82083,-8.46667 0.4181,-0.66893 0.66696,-1.43176 1.05834,-2.11666 0.31554,-0.55219 0.73112,-1.04215 1.05833,-1.5875 0.20293,-0.33821 0.29252,-0.7428 0.52917,-1.05834 0.44902,-0.59868 1.25282,-0.91815 1.5875,-1.5875 0.36496,-0.7299 -0.64085,-0.47332 0.52916,-1.05833 0.15777,-0.0789 0.40444,0.12473 0.52917,0 0.12472,-0.12472 -0.1764,-0.52917 0,-0.52917 0.89596,0 0.52917,2.77645 0.52917,3.175 0,3.29599 0.15777,-1.318 -0.52917,2.11667 -0.10377,0.51889 0.087,1.06553 0,1.5875 -0.0917,0.5502 -0.45029,1.03531 -0.52917,1.5875 -0.0998,0.69847 0,1.41111 0,2.11667 0,1.5875 0,3.175 0,4.7625 0,5.11527 0,10.23055 0,15.34583 0,2.11667 -0.17579,4.24064 0,6.35 0.0891,1.06923 0.44006,2.10577 0.52917,3.175 0.0879,1.05468 0,2.11667 0,3.175 0,2.11667 0,4.23333 0,6.35 0,5.46806 0,10.93611 0,16.40417"
       id="path5571"
       inkscape:connector-curvature="0" />
  </g>
</svg>
