<?xml version="1.0" encoding="UTF-8" standalone="no"?>
<!-- Created with Inkscape (http://www.inkscape.org/) -->

<svg
   xmlns:dc="http://purl.org/dc/elements/1.1/"
   xmlns:cc="http://creativecommons.org/ns#"
   xmlns:rdf="http://www.w3.org/1999/02/22-rdf-syntax-ns#"
   xmlns:svg="http://www.w3.org/2000/svg"
   xmlns="http://www.w3.org/2000/svg"
   xmlns:sodipodi="http://sodipodi.sourceforge.net/DTD/sodipodi-0.dtd"
   xmlns:inkscape="http://www.inkscape.org/namespaces/inkscape"
   width="1920"
   height="1080"
   viewBox="0 0 508.00002 285.74999"
   version="1.1"
   id="svg8"
   inkscape:version="0.92.4 5da689c313, 2019-01-14"
   sodipodi:docname="007.svg">
  <defs
     id="defs2">
    <clipPath
       clipPathUnits="userSpaceOnUse"
       id="clipPath3044">
      <rect
         style="opacity:1;fill:#000000;fill-opacity:1;stroke:none;stroke-width:0.60000002;stroke-miterlimit:4;stroke-dasharray:none;stroke-opacity:1"
         id="rect3046"
         width="243.21527"
         height="226.00311"
         x="320.13846"
         y="134.60152" />
    </clipPath>
  </defs>
  <sodipodi:namedview
     id="base"
     pagecolor="#ffffff"
     bordercolor="#666666"
     borderopacity="1.0"
     inkscape:pageopacity="0.0"
     inkscape:pageshadow="2"
     inkscape:zoom="0.70710678"
     inkscape:cx="1028.7828"
     inkscape:cy="520.64148"
     inkscape:document-units="mm"
     inkscape:current-layer="layer1"
     showgrid="false"
     units="px"
     inkscape:window-width="1920"
     inkscape:window-height="1053"
     inkscape:window-x="1366"
     inkscape:window-y="27"
     inkscape:window-maximized="0"
     showguides="false" />
  <metadata
     id="metadata5">
    <rdf:RDF>
      <cc:Work
         rdf:about="">
        <dc:format>image/svg+xml</dc:format>
        <dc:type
           rdf:resource="http://purl.org/dc/dcmitype/StillImage" />
        <dc:title></dc:title>
      </cc:Work>
    </rdf:RDF>
  </metadata>
  <g
     inkscape:label="Capa 1"
     inkscape:groupmode="layer"
     id="layer1"
     transform="translate(0,-11.250015)">
    <path
       style="opacity:1;fill:#000000;fill-opacity:1;stroke:none;stroke-width:0.60000002;stroke-miterlimit:4;stroke-dasharray:none;stroke-opacity:1"
       id="path3084"
       d="m 87.744542,43.084504 c 0.346462,2.485816 0.009,4.98343 -0.0024,7.470481 -0.0083,1.826871 0.304202,7.315007 0.262401,8.964785 -0.04677,1.845786 -0.263753,3.683325 -0.395632,5.524989 1.224608,16.710739 -0.241451,-6.056262 0.183674,11.002878 0.04156,1.667523 0.480597,3.313289 0.477102,4.981329 -0.0037,1.749454 -0.451678,3.475815 -0.498488,5.224647 -0.04127,1.541987 0.156622,3.0811 0.234936,4.621649 -0.07018,1.582923 -0.140361,3.165843 -0.210542,4.748766 0.09112,1.433287 0.300588,2.86394 0.273365,4.299862 -0.029,1.52983 -0.432001,3.03896 -0.4415,4.56904 -0.0085,1.36333 0.328393,2.70958 0.387858,4.07165 0.06273,1.43668 -0.03235,2.87609 -0.02175,4.3141 0.04962,6.72099 0.223914,1.61323 -0.145447,8.36607 -0.571291,2.51026 0.07388,5.04188 -0.0791,7.55605 -0.07167,1.17783 -0.409369,2.32605 -0.535223,3.49932 -0.105048,0.97933 -0.08982,1.968 -0.156649,2.95068 -0.297157,4.36951 -0.204468,0.88154 -0.245722,4.92454 -0.916963,3.88924 -0.324133,0.79004 -0.661003,4.13497 -0.05379,0.53413 -0.161676,1.06152 -0.230018,1.59399 -0.05794,0.45146 -0.04774,0.91355 -0.148791,1.35736 -0.100322,0.44059 -0.308557,0.84955 -0.451342,1.27827 -0.111199,0.33387 -0.206968,0.67269 -0.310452,1.00904 -0.07944,0.28569 -0.158882,0.57138 -0.23832,0.85707 0.0621,0.18369 0.222924,0.36066 0.186306,0.55109 -0.05795,0.30136 -0.304385,0.53313 -0.447059,0.80484 -0.108156,0.20598 -0.243422,0.40339 -0.305159,0.62769 -0.259686,0.94349 0.796959,-0.49165 -0.454028,0.88626 0.431496,0.6898 0.03641,0.1774 1.073219,0.88241 2.754106,1.87276 -0.576715,-0.0755 3.691241,1.99048 2.406957,1.16513 4.756902,2.44454 7.135559,3.6664 2.630617,1.02142 8.562052,3.37693 11.093752,4.12373 1.09868,0.32409 14.45542,3.49127 15.35391,3.71309 12.1896,3.00938 3.99547,1.30471 16.64747,3.63019 2.78295,0.44795 5.55199,0.99299 8.34884,1.34386 2.83931,0.35619 5.6994,0.52073 8.54955,0.77605 3.60188,0.32268 11.26847,1.02316 15.00194,1.23545 2.22582,0.12656 4.4566,0.14455 6.6838,0.244 1.93153,0.0862 3.86127,0.20867 5.79191,0.31302 5.56351,-0.20406 11.1399,0.26329 16.70204,0.0337 4.05239,-0.16726 1.34443,-0.3413 4.41726,-0.0315 0.53986,-0.0398 1.07972,-0.0796 1.61958,-0.11934 0.43704,-0.0525 0.87262,-0.11893 1.31111,-0.15745 1.75566,-0.15424 0.14924,0.0659 1.70225,-0.0873 1.18511,-0.11688 0.25193,-0.11617 1.32258,-0.0769 0.26494,-0.0302 0.52988,-0.0603 0.79482,-0.0905 0.19875,0.025 0.3962,0.0853 0.59624,0.075 0.29746,-0.0154 0.58477,-0.11729 0.88067,-0.15142 0.81973,-0.0945 0.81336,0.0176 1.62989,-0.33239 -5.37657,3.15387 -2.15608,1.4295 -1.31248,0.10335 0.36469,-0.57329 0.44367,-0.97524 0.65712,-1.63134 0.43937,-0.9222 1.41712,-2.90689 1.68482,-3.79518 0.24028,-0.79733 1.13739,-5.83781 1.22836,-6.26351 2.71238,-12.69357 -0.5745,3.97296 2.11167,-9.95243 0.33668,-1.88947 0.6343,-3.78631 1.01004,-5.66839 0.27838,-1.39437 2.48482,-11.2174 2.76186,-12.49399 0.7302,-3.36477 2.22164,-10.42852 2.81723,-13.76777 0.40978,-2.29752 0.73113,-4.60993 1.0967,-6.9149 0.35803,-2.27368 0.67337,-4.55449 1.0741,-6.82104 0.40282,-2.27845 0.96393,-4.52789 1.33613,-6.81154 0.66262,-4.065546 0.94413,-8.107086 1.40033,-12.194896 1.2983,-11.633393 0.13659,0.17235 1.16092,-10.664658 0.91296,-6.868644 0.39183,-2.48535 1.01995,-8.886624 0.1231,-1.254603 0.32357,-2.503064 0.38584,-3.762152 0.0503,-1.017754 -0.0543,-2.037628 -0.0486,-3.05661 0.002,-0.299117 0.14408,-4.766376 0.15877,-5.232884 0.0533,-8.50615 0.018,3.355398 -0.0739,-4.058698 -0.0546,-4.404973 0.1111,0.710968 0.11188,-3.229072 5.3e-4,-2.083962 -0.24198,-0.403728 0.17997,-2.434268 0.0991,-0.541895 -0.11455,-1.069533 -0.1039,-1.605822 0.005,-0.246883 0.12161,-0.487045 0.10453,-0.733388 -0.0253,-0.364691 -0.37972,-0.833353 -0.57108,-1.135867 -0.0959,-0.09328 -0.15933,-0.242102 -0.28767,-0.279836 -0.26593,-0.07818 -0.55328,-0.03478 -0.83011,-0.0488 -0.35426,-0.01794 -0.71039,-0.0094 -1.0631,-0.04708 -0.38654,-0.04132 -0.76687,-0.128066 -1.15073,-0.189556 -1.6634,-0.266461 -1.22316,-0.19523 -3.0039,-0.430654 -0.72515,0.0053 -1.45178,0.06281 -2.17544,0.01606 -0.63634,-0.04109 -1.2574,-0.222279 -1.89255,-0.278789 -0.12355,-0.01101 -4.46937,-0.175889 -4.5658,-0.175003 -3.7714,0.03467 -1.3629,0.431424 -4.50475,-0.337193 -0.83598,-0.05241 -1.67195,-0.104815 -2.50793,-0.157221 -0.75553,-0.104825 -1.50604,-0.256389 -2.2666,-0.314473 -0.88714,-0.06775 -1.78172,0.01064 -2.66843,-0.06243 -0.76313,-0.06288 -1.51344,-0.234207 -2.27116,-0.344588 -2.73196,-0.397981 -2.09001,-0.300167 -4.98162,-0.606555 -0.99098,-0.124981 -1.98195,-0.249962 -2.97293,-0.374943 -0.96861,-0.166548 -1.93088,-0.375442 -2.90582,-0.499645 -1.64341,-0.209359 -4.96709,-0.384556 -6.60145,-0.528629 -7.67381,-0.676471 1.38867,-0.02394 -6.53775,-0.558877 -1.27355,-0.01656 -2.5477,-0.007 -3.82064,-0.04971 -8.05457,-0.270163 0.20559,-0.174821 -8.15566,-0.379986 -12.22157,-0.299889 3.66611,0.187594 -9.43374,0.05327 -1.56805,-0.01608 -3.13352,-0.131155 -4.70027,-0.196732 -1.71293,0.0012 -3.42591,-0.0095 -5.13879,0.0035 -8.3792,0.06358 -2.47605,0.113066 -10.92468,0.08602 -5.32625,-0.01705 -10.64728,-0.146757 -15.97375,-0.139679 -5.6214,-0.119624 -11.24297,0.07406 -16.8623,0.208179 -3.95198,0.09432 -2.02746,0.248414 -5.33277,-0.241704 -2.249829,0.176894 -4.512275,0.4028 -6.772187,0.415431 -0.514292,0.0029 -1.028751,-0.09612 -1.541751,-0.05956 -3.391795,0.241676 -0.494353,0.418865 -2.851801,0.202862 -0.915456,0.09897 -1.787779,0.429712 -2.695983,0.564499 -0.558342,0.08286 -1.127834,0.0582 -1.689552,0.113749 -1.061045,0.104926 -0.479184,0.116004 -1.413235,0.03156 -2.48607,0.627001 0.176033,0.0523 -1.371523,0.192881 -0.258265,0.02347 -0.50727,0.11113 -0.764429,0.144592 -0.202393,0.02633 -0.410392,-0.0013 -0.611325,0.03442 -0.888251,0.158282 -0.48941,0.34149 -0.865537,0.129493 -0.558265,0.318606 -0.3527,0.226247 -0.589761,0.330559 0,0 2.942397,-2.338996 2.942397,-2.338996 v 0 c 0.151728,-0.03339 0.06634,-0.02455 0.257272,-0.01114 0.223888,-0.08992 0.437904,-0.210017 0.671661,-0.269755 0.144632,-0.03696 1.803606,-0.228269 1.906262,-0.223569 0.125175,0.0057 0.225153,0.155379 0.349353,0.138789 0.364302,-0.04866 0.702186,-0.217421 1.05328,-0.326132 1.180896,0.202955 -0.121941,0.0652 1.699593,-0.25931 0.232469,-0.04142 0.471893,0.02933 0.707967,0.02431 0.981009,-0.02087 1.953094,-0.227211 2.937727,-0.138932 1.031682,-0.116601 2.055321,-0.322722 3.092365,-0.372734 0.518581,-0.02501 1.037831,0.08298 1.556444,0.05863 0.699666,-0.03285 1.388387,-0.217215 2.08871,-0.229757 0.614381,-0.011 1.22205,0.159986 1.836529,0.159459 0.873831,-7.41e-4 1.744264,-0.108851 2.616394,-0.163276 3.5996,-0.01948 1.79264,-0.07731 5.42074,0.177743 1.2008,0.0087 2.39875,-0.132671 3.5995,-0.146615 1.27841,-0.01485 2.55655,0.05027 3.83501,0.06028 12.12067,0.09492 -3.81494,-0.115068 9.15871,0.07358 1.81231,-0.04451 3.62462,-0.08902 5.43693,-0.133529 1.71367,0.07664 3.42564,0.236151 5.14101,0.229916 1.94433,-0.0071 3.88263,-0.243536 5.8268,-0.269781 1.77533,-0.02397 3.5497,0.10773 5.32516,0.119234 0.21323,0.0014 10.26597,-0.09734 10.59105,-0.100511 7.90351,0.09976 1.86857,0.04463 9.69204,0.0603 1.51242,0.003 3.02591,-0.03789 4.53722,0.02011 1.33799,0.05135 2.66716,0.255467 4.00512,0.307719 2.65138,0.103548 5.31054,-0.11181 7.95875,0.15155 1.1702,0.03861 2.34347,0.02265 3.51059,0.11584 1.03822,0.0829 2.06257,0.293255 3.09733,0.411795 4.11005,0.470839 8.2394,0.796715 12.31966,1.510662 1.77184,0.127873 3.54725,0.211003 5.31624,0.373658 3.17569,0.291994 6.28926,1.133274 9.50378,1.014288 0.7081,0.09605 1.41099,0.245414 2.12429,0.288145 1.59923,0.0958 3.20614,-0.04668 4.80616,0.03475 2.06292,0.104984 4.12068,0.369866 6.18403,0.477946 0.58198,0.04115 1.16396,0.08229 1.74594,0.123436 0.44325,0.08991 0.87949,0.226983 1.32974,0.269729 0.4789,0.04547 0.96268,-0.03043 1.44312,-0.0065 0.82149,0.04096 1.48753,0.273693 2.2292,0.592505 0.11897,0.182078 0.79209,1.212623 0.81149,1.374185 0.0311,0.258852 -0.12157,0.511506 -0.12422,0.772202 -0.0306,3.020775 0.36854,-2.0657 0.0232,1.640795 -0.26967,0.912207 -0.55358,1.612342 -0.5254,2.58816 0.0131,0.453213 0.21745,0.886798 0.2342,1.339892 0.0219,0.593087 -0.10227,1.183238 -0.119,1.776495 -0.0291,1.032369 0.0524,3.07295 0.0836,4.059988 -0.41817,4.676093 -0.10206,0.36018 -0.24626,5.286865 -0.0309,1.055304 -0.11435,2.108512 -0.1536,3.163535 -0.15305,4.113411 -0.23213,8.232217 -0.71679,12.326464 -1.02746,7.102756 -0.48596,3.467481 -1.62907,10.905149 -0.73009,5.02743 -0.94308,7.320266 -1.75919,12.383341 -0.36256,2.249299 -0.76617,4.491919 -1.17735,6.732849 -0.42604,2.32188 -0.88948,4.63673 -1.33423,6.9551 -0.40865,2.32654 -0.83057,4.65079 -1.22595,6.97962 -0.39061,2.30074 -0.70899,4.61386 -1.13196,6.90887 -3.69701,20.05954 0.95961,-6.27685 -2.92256,13.14528 -0.39101,1.95617 -0.61568,3.94194 -0.92352,5.91291 -0.40912,1.92354 -0.81824,3.84709 -1.22737,5.77063 -0.32487,1.75563 -0.69454,3.50357 -0.97461,5.2669 -0.48761,3.07004 -0.46822,5.06515 -1.26706,8.01123 -0.27654,1.01988 -0.78461,1.96598 -1.07868,2.98094 -1.33617,4.61161 0.74691,-0.66792 -1.02657,3.5372 -0.3801,0.69476 -0.90262,1.82886 -1.38315,2.46987 -0.15488,0.2066 -0.35481,0.37537 -0.52553,0.56909 -0.0894,0.10145 -0.13908,0.24535 -0.2544,0.31594 -1.2592,0.7709 -2.56477,1.46339 -3.84715,2.19509 -0.39708,0.14275 -0.8194,0.33477 -1.25419,0.34093 -0.15475,0.002 -0.30018,-0.0827 -0.45444,-0.0951 -0.7068,-0.0568 -1.44281,2.6e-4 -2.14242,0.0906 -1.91319,-0.0611 -3.78666,0.52686 -5.69739,0.22954 -2.54534,0.0332 -5.08475,0.16129 -7.63139,0.12328 -3.26306,-0.0487 -4.52762,-0.15813 -7.88915,-0.34809 -1.80268,-0.0319 -3.60563,0.0459 -5.40845,0.0688 -1.90694,-0.12339 -3.81456,-0.23662 -5.72081,-0.37018 -2.12362,-0.14879 -4.24262,-0.36768 -6.36864,-0.47687 -2.53079,-0.12998 -5.06903,-0.0881 -7.59857,-0.2405 -7.11303,-0.42861 -8.83005,-0.85133 -15.94756,-1.80259 -2.88952,-0.38619 -5.78167,-0.75246 -8.67251,-1.12868 -3.22018,-0.68134 -13.60053,-2.87451 -16.77632,-3.55912 -2.69478,-0.58091 -5.40504,-1.09694 -8.07934,-1.76586 -6.23138,-1.55865 -12.385419,-3.5695 -18.233205,-6.23598 -2.713265,-1.12545 -5.063059,-2.05678 -7.696123,-3.29734 -1.758961,-0.82874 -3.850691,-1.6888 -4.922946,-3.4166 0.04963,-0.14008 0.07896,-0.2891 0.148878,-0.42022 0.08547,-0.16028 0.256043,-0.27357 0.313066,-0.44604 0.04592,-0.13888 -0.05598,-0.29638 -0.02066,-0.43832 0.06401,-0.25726 0.220353,-0.48281 0.311748,-0.73166 0.05436,-0.14802 0.472543,-1.54271 0.501224,-1.63776 0.940662,-2.89227 -0.239427,0.95234 0.466566,-2.11745 0.117136,-0.50933 0.367464,-0.98437 0.46114,-1.49854 0.09084,-0.49859 0.0051,-1.01791 0.0884,-1.51781 0.782328,-4.69497 0.334494,0.78885 0.616468,-4.08315 0.08785,-0.80825 0.150265,-1.61966 0.263557,-2.42474 0.128865,-0.91575 0.388041,-1.81371 0.4626,-2.73548 0.07705,-0.95259 -0.05169,-1.91233 -0.0094,-2.86711 0.163523,-3.6935 1.183764,-7.31403 0.60638,-11.02755 0.02209,-1.37115 0.02706,-2.74269 0.06626,-4.11347 0.04098,-1.43286 0.175999,-2.86336 0.174273,-4.29681 -0.0016,-1.40435 -0.155268,-2.80497 -0.184512,-4.20902 -0.09148,-4.39195 0.113911,-8.78751 0.242483,-13.175938 -0.03916,-1.527173 -0.05545,-3.055102 -0.117494,-4.581512 -0.06251,-1.538002 -0.283945,-3.071686 -0.256117,-4.610703 0.03139,-1.736146 0.353299,-3.456652 0.433356,-5.191234 0.251103,-5.44064 -0.397211,-10.857544 -0.04496,-16.296994 -0.0097,-0.687843 -0.122365,-9.188156 -0.159557,-10.108912 -0.05511,-1.364279 -0.218599,-2.722718 -0.274537,-4.086965 -0.04696,-1.145281 -0.03253,-2.292321 -0.03403,-3.438562 -0.0011,-0.843981 0.07463,-1.689219 0.02619,-2.531809 -0.02617,-0.454927 -0.166016,-0.896109 -0.249024,-1.344162 0,0 3.3606,-1.74261 3.3606,-1.74261 z"
       inkscape:connector-curvature="0" />
    <path
       style="opacity:1;fill:#000000;fill-opacity:1;stroke:none;stroke-width:0.60000002;stroke-miterlimit:4;stroke-dasharray:none;stroke-opacity:1"
       id="path3086"
       d="m 155.18921,70.977209 c -1.62236,1.90863 -3.21426,3.85395 -4.9548,5.658006 -1.78659,1.984635 -3.69983,3.857303 -5.61844,5.71467 -0.56629,0.548208 -1.15244,1.076642 -1.69854,1.644967 -0.52958,0.551143 -1.01757,1.140801 -1.52636,1.711203 -1.90268,2.020898 -3.93338,3.935667 -5.76472,6.023751 -0.56687,0.646342 -1.05402,1.360061 -1.62447,2.003253 -2.74704,2.873509 -1.43675,1.438941 -3.93938,4.295891 -1.37671,1.950659 -3.09527,3.6219 -4.52163,5.53254 -0.59966,0.80324 -1.02849,1.72568 -1.63422,2.52436 -0.33906,0.44708 -0.74362,0.84047 -1.11543,1.26071 -0.92276,0.65035 -1.23586,1.58771 -1.80524,2.47671 -0.35082,0.54775 -0.6174,0.83184 -0.71551,1.47432 -0.19342,0.40837 -0.47698,0.93117 -0.48285,1.40131 -0.0116,0.93086 0.21031,-0.0124 0.34752,0.89125 0.0314,0.20706 -0.0494,0.41594 -0.0742,0.62391 1.4514,1.34325 -0.50245,-0.57628 0.68782,0.97439 0.12322,0.16053 0.35703,0.21255 0.47709,0.37546 0.11284,0.15313 0.0772,0.38689 0.19484,0.53635 0.12397,0.15746 0.83141,0.496 0.99265,0.57862 0.63886,0.49313 0.10382,0.14068 0.97719,0.51101 0.20511,0.087 0.3933,0.21251 0.60219,0.28999 0.25937,0.0962 0.55781,0.0914 0.79762,0.22928 2.38017,1.36878 -2.33208,-0.42905 1.80089,0.96661 0.55095,0.20821 1.12562,0.36213 1.65287,0.62464 0.66302,0.33009 1.23828,0.82057 1.9036,1.14601 1.26193,0.61728 5.72478,2.31572 6.80933,2.74689 6.29262,2.50167 2.17265,1.01651 9.01536,3.30228 5.7168,1.44525 11.38542,3.1574 17.17097,4.32307 1.97665,0.39826 3.9797,0.65247 5.96593,0.99981 9.54542,1.66926 1.05701,0.31442 9.92916,1.68374 2.34821,0.35987 4.82355,0.77326 7.19615,1.01847 0.93016,0.0961 1.86948,0.0952 2.79743,0.21073 0.63152,0.0786 1.23757,0.33306 1.87285,0.37077 0.69309,0.0411 1.38429,-0.12297 2.07848,-0.13623 0.46792,-0.009 0.93486,0.0465 1.40228,0.0698 0.91812,-0.0994 1.84982,0.15132 2.76586,0.1011 0.2728,-0.0149 0.53777,-0.10506 0.81042,-0.12248 1.15046,-0.0735 -0.2228,0.18887 0.81963,-0.0417 -0.92427,0.51722 -1.82894,1.07114 -2.77281,1.55167 -0.0796,0.0405 0.13237,-0.13232 0.15474,-0.21881 0.0258,-0.0998 -0.023,-0.20583 -0.0182,-0.30885 0.0315,-0.67297 0.0828,-1.35047 0.1432,-2.02276 -0.0304,-0.39083 -0.0222,-0.78659 -0.0911,-1.17248 -0.24823,-1.38941 -0.52076,-1.60686 -0.96264,-3.01001 -2.43435,-7.72994 1.64375,4.55882 -1.18245,-4.1934 -0.26582,-0.82318 -0.57419,-1.632 -0.86129,-2.448 -0.2571,-0.85142 -0.43251,-1.73192 -0.77129,-2.55426 -2.58725,-6.28025 0.006,1.58209 -2.29134,-4.82054 -0.69129,-1.92692 -0.83739,-3.36321 -1.73303,-5.22439 -0.39195,-0.81449 -0.94458,-1.54137 -1.41686,-2.31205 -0.96964,-1.42027 -1.30142,-3.15518 -2.1406,-4.63607 -0.39331,-0.69407 -0.95984,-1.2762 -1.39274,-1.94629 -0.4388,-0.67923 -0.81869,-1.39479 -1.21943,-2.097152 -2.75681,-4.831834 0.41938,0.624052 -2.37214,-4.144291 -0.73511,-1.285404 -1.75647,-2.384996 -2.51576,-3.653917 -0.36932,-0.617193 -0.59358,-1.315632 -0.97915,-1.922809 -1.59549,-2.512539 -0.96692,-0.853374 -2.74577,-3.243058 -0.40868,-0.549008 -0.69619,-1.178568 -1.04428,-1.767854 -1.38059,-2.051825 -0.70714,-1.300255 -2.51208,-2.98873 -0.42965,-0.401931 -0.94348,-0.724019 -1.30572,-1.187633 -0.3112,-0.398301 -0.36139,-0.963234 -0.68086,-1.354934 -0.1901,-0.233082 -1.91394,-1.434608 -2.21003,-1.64483 -0.42067,-0.747347 -1.24467,-1.789527 -1.98853,-2.247714 -0.28915,-0.17811 -0.66,-0.20038 -0.94041,-0.39197 -0.21356,-0.145923 -0.31264,-0.415245 -0.50078,-0.592751 -0.18348,-0.173117 -0.40453,-0.301496 -0.60679,-0.452245 -0.38077,0.177684 -1.28394,-0.97392 -1.47852,-1.057317 -0.24638,-0.105598 -0.55003,-0.0083 -0.79589,-0.11512 -0.14898,-0.06472 -0.19805,-0.259795 -0.31838,-0.368914 -0.11402,-0.103402 -0.25275,-0.175752 -0.37912,-0.263631 -0.8524,-0.473162 0.23192,0.04334 -1.03905,-0.168111 -0.1146,-0.01908 -0.17377,-0.176252 -0.28827,-0.195855 -0.19396,-0.03321 -0.39487,0.08031 -0.58859,0.04572 -0.0941,-0.0168 -0.1437,-0.126207 -0.21555,-0.18931 -0.20104,0.03709 -0.40207,0.07418 -0.60311,0.111276 -0.27765,-0.142004 -0.58399,-0.179972 -0.88654,-0.234085 0,0 2.94843,-2.081495 2.94843,-2.081495 v 0 c 0.37685,0.02692 0.75415,0.0531 1.13196,0.01847 0.42235,0.475329 -0.0807,0.03144 0.9785,0.0021 0.12098,-0.0034 0.20091,0.149024 0.31972,0.172048 0.20093,0.03894 0.42812,-0.07691 0.61395,0.0089 0.11921,0.05503 0.0749,0.266266 0.17243,0.354161 0.1185,0.106775 0.29134,0.129987 0.43701,0.194979 0.19245,0.05562 0.38351,0.116295 0.57736,0.166844 0.22537,0.05877 0.48091,0.03999 0.67991,0.161012 0.15131,0.09202 0.18445,0.304779 0.30272,0.436583 0.1202,0.133946 0.27505,0.232355 0.40719,0.354537 0.65071,0.601675 0.14979,0.290793 1.10386,0.691771 0.79754,0.70017 0.3236,0.399762 1.46577,0.827813 0.23305,0.165544 0.32757,0.471244 0.52433,0.678611 0.21929,0.231114 0.50332,0.395444 0.71808,0.630777 1.38771,1.520696 -0.35059,0.134827 1.55336,1.486551 0.30242,0.281826 0.60115,0.567669 0.90727,0.845476 0.35424,0.321482 0.75507,0.595411 1.07366,0.952259 0.88398,0.990151 0.98248,1.605542 1.7874,2.681899 0.38561,0.515652 0.84385,0.972772 1.26578,1.459159 0.39083,0.530947 0.78165,1.061894 1.17248,1.592842 0.52652,0.482851 1.13439,0.889806 1.57955,1.448554 0.20114,0.252457 1.87486,3.406997 2.04907,3.676819 1.20105,1.860301 2.81469,3.428238 4.01175,5.29282 0.35812,0.709665 0.69398,1.431002 1.07434,2.128996 1.15,2.110333 2.45243,4.141055 3.61557,6.244909 0.3965,0.71717 0.74816,1.45867 1.14973,2.17301 0.43289,0.77007 0.90195,1.51924 1.35293,2.27885 1.41506,3.30591 0.7277,1.74258 2.20635,5.02662 0.36838,0.81816 0.81735,1.60452 1.10591,2.45412 0.29484,0.86809 0.34477,1.80657 0.6364,2.67575 0.28543,0.85072 0.72505,1.64168 1.08757,2.46251 0.2616,0.84804 0.5232,1.69607 0.7848,2.54411 0.86673,2.12535 1.84683,4.2095 2.5826,6.38526 0.33597,0.99351 0.71018,2.10424 0.77439,3.16903 0.0261,0.43363 -0.0564,0.86701 -0.0845,1.30051 0.31827,0.63289 0.51362,0.71286 0.32254,1.41557 -0.063,0.23183 -0.26612,0.41263 -0.3165,0.64753 -0.0669,0.31192 0.39834,0.48577 -0.0666,0.78838 -1.08432,0.70567 -2.26041,1.25914 -3.39062,1.88871 -0.96358,-0.0731 0.6974,0.0298 -0.93913,0.0704 -0.18724,0.005 -0.37109,-0.0735 -0.55817,-0.0645 -0.32805,0.0157 -0.64724,0.14595 -0.97557,0.13795 -0.24636,-0.006 -0.47189,-0.15627 -0.71724,-0.17921 -0.39261,-0.0367 -0.78865,10e-4 -1.18296,0.002 -1.78012,-0.071 -3.55648,-0.15124 -5.32848,-0.34854 -3.36366,-0.37452 -6.7057,-0.9451 -10.08408,-1.19401 -3.9961,-0.86811 -5.44564,-1.23865 -9.64882,-1.89582 -2.06045,-0.32215 -4.15356,-0.43979 -6.1987,-0.84794 -1.94103,-0.38738 -3.82419,-1.02288 -5.73637,-1.53398 -7.70452,-2.0593 -3.64764,-0.96277 -11.16544,-3.01391 -1.55767,-0.57589 -3.10739,-1.17378 -4.67303,-1.72767 -1.48442,-0.52516 -3.00611,-0.94501 -4.47616,-1.50913 -6.51465,-2.49995 -0.7895,-0.69641 -6.6539,-2.86109 -0.80359,-0.29662 -1.65665,-0.44949 -2.45415,-0.76211 -0.51159,-0.20055 -0.97135,-0.51405 -1.45703,-0.77108 -0.39276,-0.1557 -0.78552,-0.3114 -1.17828,-0.4671 -0.27093,-0.13561 -0.5342,-0.28774 -0.81279,-0.40682 -0.24599,-0.10514 -0.50175,-0.18677 -0.75773,-0.26449 -0.25338,-0.0769 -0.53726,-0.071 -0.76906,-0.19907 -0.28807,-0.15909 -0.31275,-0.62506 -0.64149,-0.75042 -1.60599,-0.50776 0.11224,0.19083 -0.94088,-0.6805 -0.18681,-0.15457 -0.47014,-0.15709 -0.65763,-0.31082 -0.55937,-0.45866 -0.29175,-1.2268 -0.82112,-1.70531 -0.15098,-0.18516 -0.58891,-0.65727 -0.60931,-0.93399 -0.0308,-0.41745 0.30767,-0.84307 0.38233,-1.23089 0.0255,-0.13261 -0.0342,-0.26901 -0.0302,-0.40399 0.004,-0.13878 0.0363,-0.27529 0.0545,-0.41293 0.46159,-1.98425 -0.41174,1.48516 0.53773,-1.07083 0.047,-0.12646 -0.12547,-0.28329 -0.0586,-0.40043 0.18063,-0.31631 0.51707,-0.51541 0.74417,-0.80019 0.20022,-0.25105 0.35574,-0.5347 0.53361,-0.80204 0.29862,-0.3492 0.59724,-0.69838 0.89587,-1.04758 0.38218,-0.55331 1.32717,-1.94056 1.71662,-2.41727 0.43109,-0.52768 0.92748,-0.99943 1.36229,-1.52405 1.49837,-1.80782 2.67042,-3.86819 4.39692,-5.489538 3.37259,-4.455308 -0.74494,0.798038 3.76225,-4.233334 0.55499,-0.619532 0.96899,-1.356714 1.52705,-1.973474 0.68992,-0.762473 1.48958,-1.418598 2.20795,-2.154325 0.6294,-0.644609 1.22267,-1.32353 1.83401,-1.985295 0.64252,-0.655889 1.28504,-1.311778 1.92757,-1.967667 0.59417,-0.610931 1.19788,-1.212741 1.78253,-1.832795 0.46676,-0.495022 0.89161,-1.029364 1.37124,-1.511927 2.23952,-2.253202 1.06471,-0.786739 3.19564,-3.041809 0.38557,-0.408032 0.72588,-0.856617 1.09473,-1.279826 0.37684,-0.432382 0.76149,-0.857893 1.14224,-1.286841 0.42073,-0.425545 0.86059,-0.832996 1.2622,-1.276636 0.5899,-0.651621 1.05263,-1.412679 1.65439,-2.05336 0.3571,-0.38019 0.78568,-0.689236 1.13914,-1.072814 0.34949,-0.379285 0.54383,-0.883528 0.91075,-1.25083 0,0 3.43304,-1.452989 3.43304,-1.452989 z"
       inkscape:connector-curvature="0" />
    <path
       style="opacity:1;fill:#000000;fill-opacity:1;stroke:none;stroke-width:0.60000002;stroke-miterlimit:4;stroke-dasharray:none;stroke-opacity:1"
       id="path3092"
       d="m 184.87502,52.406013 c -0.46567,-0.803146 0.10712,-0.07291 -1.12062,-0.386339 -0.18339,-0.04682 -0.26892,-0.293312 -0.451,-0.344977 -0.55339,-0.157025 -1.40186,0.06388 -1.93561,0.05179 -0.26744,-0.0061 -0.528,-0.08638 -0.792,-0.129571 -1.89187,-0.27885 0.53449,0.02352 -1.84909,-0.04449 -0.24707,-0.007 -0.48497,-0.138239 -0.73156,-0.121195 -1.08857,0.07524 -2.13644,0.572749 -3.07145,1.085186 0.73324,-0.381529 1.3955,-0.953719 2.19973,-1.14459 0.33116,-0.07859 -0.44453,0.515625 -0.65993,0.779145 -0.25765,0.315193 -0.52809,0.621527 -0.75904,0.95677 -0.0491,0.07134 -1.12059,1.905776 -1.14993,1.990093 -0.089,0.255857 -0.0418,0.540192 -0.0626,0.810287 -0.24766,0.889433 -0.64237,1.711991 -0.77572,2.631209 -0.0328,0.225769 -0.009,0.459044 -0.0571,0.682017 -0.27527,1.272161 -0.27756,0.186965 -0.21162,1.228002 -0.0429,0.19744 -0.13114,0.390287 -0.12866,0.592315 0.002,0.154834 0.10807,0.291285 0.14134,0.442513 0.0774,0.351764 -5.2e-4,0.739185 0.13798,1.071687 0.0748,0.179647 0.24432,0.303414 0.35483,0.46359 0.1156,0.167547 0.21513,0.345625 0.32269,0.518437 0.57074,1.224833 -0.0832,0.03085 0.85797,1.126623 0.4,0.465693 0.37081,0.751729 0.81501,1.181372 0.1781,0.17226 0.41515,0.271907 0.60879,0.426487 0.1997,0.159417 0.37932,0.342477 0.56899,0.513715 0.87176,1.065533 0.002,0.186259 1.25298,0.913673 0.43008,0.250116 0.72915,0.695359 1.16882,0.9282 0.24624,0.130408 0.53331,0.163031 0.79388,0.261753 0.25496,0.0966 0.5008,0.215757 0.7512,0.323638 0.23455,0.103931 0.45575,0.245803 0.70367,0.311793 0.29524,0.07859 0.60947,0.05727 0.90899,0.117464 0.23665,0.04756 0.45946,0.150136 0.69457,0.204809 0.23272,0.05412 0.47676,0.05536 0.70649,0.121007 0.16209,0.04632 0.29194,0.190439 0.45913,0.212059 0.2318,0.02997 0.46561,-0.04159 0.69842,-0.06238 0.0623,0.06448 0.0981,0.205171 0.18702,0.193437 0.41778,-0.05514 2.5818,-1.386634 1.4451,-0.799666 -4.12702,2.131118 -3.13603,2.306695 -2.32573,0.69924 0.0951,-0.17966 0.19016,-0.359317 0.28525,-0.538974 -0.001,-0.135091 -0.0509,-0.278837 -0.003,-0.405273 0.0866,-0.230159 0.31169,-0.39278 0.39122,-0.625483 0.0477,-0.139703 -0.0275,-0.294492 -0.0264,-0.442122 0.002,-0.312549 0.0555,-0.629054 0.0974,-0.937474 -0.3028,-0.441275 0.29803,-1.194088 0.24573,-1.562767 -0.0228,-0.16039 -0.2426,-0.222676 -0.3224,-0.363654 -0.0823,-0.145338 -0.0888,-0.322968 -0.15344,-0.476951 -0.0651,-0.155038 -0.15631,-0.297786 -0.23446,-0.446677 -0.0645,-0.159398 -0.0869,-0.343358 -0.19362,-0.478192 -0.10794,-0.136348 -0.29052,-0.19236 -0.42473,-0.302935 -0.21776,-0.179409 -0.34689,-0.459375 -0.58331,-0.613362 -0.13406,-0.08732 -0.29235,-0.144971 -0.45127,-0.1635 -0.2354,-0.02745 -0.47361,0.01871 -0.71042,0.02805 -0.48279,-0.174098 -1.00173,-0.125222 -1.49728,-0.198956 -0.40203,-0.05982 -0.80129,-0.202377 -1.20649,-0.268277 -0.18757,0.02553 -0.37514,0.05105 -0.56272,0.07658 -0.075,-0.04812 -0.13593,-0.148659 -0.22492,-0.144367 -0.23142,0.01116 -0.43898,0.16234 -0.6693,0.187491 -0.0481,0.0053 -0.0538,-0.100832 -0.10214,-0.103253 -0.14361,-0.0072 -0.32235,0.148434 -0.42552,0.223125 1.02469,-0.579421 2.04938,-1.158843 3.07407,-1.738264 0.0154,0.138448 -0.35556,0.148568 -0.3139,0.283196 0.005,0.0155 0.23684,-0.04241 0.58831,-0.12537 0,0 -3.16948,2.105449 -3.16948,2.105449 v 0 c -0.13166,-0.01069 -0.27455,0.02222 -0.39496,-0.03209 -0.37268,-0.168085 -0.16571,-0.656572 0.0571,-0.812205 0.89573,-0.62551 1.83826,-1.181158 2.75739,-1.771737 0.21043,-0.10608 0.56506,-0.303541 0.79413,-0.328441 0.0784,-0.0085 0.14208,0.08572 0.22098,0.08485 0.1868,-0.0021 0.36603,-0.10269 0.55261,-0.09335 0.0962,0.0048 0.17076,0.08922 0.25614,0.133826 0.17373,-0.01188 0.34746,-0.02376 0.52118,-0.03564 0.19015,-0.01603 0.38005,-0.06086 0.57044,-0.04807 1.56398,0.105116 -0.94943,0.143055 0.8138,0.195844 0.21354,0.0064 0.43311,-0.10968 0.63881,-0.05198 0.11034,0.03095 0.12812,0.190053 0.19219,0.28508 0.20159,0.01363 0.40318,0.02727 0.60477,0.0409 0.20972,0.02593 0.42776,0.01381 0.62918,0.07776 0.16123,0.05118 0.27939,0.195492 0.43566,0.260262 0.18595,0.07707 0.4358,0.02297 0.58187,0.16147 0.12757,0.120954 0.0273,0.367549 0.12803,0.511612 0.22787,0.325845 0.73033,0.384736 0.95678,0.712385 -0.0187,0.218321 -0.0849,0.437743 -0.0561,0.654958 0.0365,0.274687 0.35592,0.685085 0.42853,0.948137 0.1317,0.477162 0.0231,1.029551 0.0201,1.512601 -0.0619,0.330052 -0.0599,0.671568 -0.1404,0.997561 -0.0801,0.324144 -0.35235,0.767954 -0.35462,1.123659 -7.9e-4,0.130739 0.17297,0.248124 0.1278,0.370817 -0.0957,0.259884 -0.33776,0.438946 -0.50664,0.65842 0.0215,0.393693 0.11815,0.654312 -0.30631,0.952733 -1.20807,0.849352 -2.49306,1.584148 -3.75715,2.347632 -0.19457,0.117512 -0.39528,0.237316 -0.61555,0.293384 -0.30881,0.0786 -0.64861,-0.382876 -0.95588,0.01114 -0.19254,-0.02671 -0.38331,-0.07464 -0.57762,-0.08014 -0.28455,-0.008 -0.57234,0.08676 -0.85308,0.03964 -0.19539,-0.03279 -0.35294,-0.180126 -0.52871,-0.271552 -0.74188,-0.385903 -1.40732,-0.746168 -2.2813,-0.731613 -0.1263,-0.185764 -0.18407,-0.44546 -0.37889,-0.557292 -0.27435,-0.15749 -0.63037,-0.08937 -0.92907,-0.19354 -0.26408,-0.09209 -0.49209,-0.26625 -0.7431,-0.389604 -0.84229,-0.413933 -1.48008,-0.504439 -1.81002,-1.480664 -0.23331,-0.155422 -0.48753,-0.283292 -0.69991,-0.46627 -0.29396,-0.253257 -1.18361,-1.336479 -1.40254,-1.665055 -0.13671,-0.205166 -0.1816,-0.467362 -0.33823,-0.657746 -0.15963,-0.194024 -0.39295,-0.3132 -0.58943,-0.469799 -0.1197,-0.180293 -0.22011,-0.375 -0.3591,-0.540875 -0.14265,-0.170238 -0.42485,-0.246425 -0.48072,-0.461383 -0.0631,-0.242631 0.17368,-0.481862 0.17036,-0.732531 -0.002,-0.182647 -0.13893,-0.338878 -0.18693,-0.515119 -0.15228,-0.559092 -0.0929,-0.511287 0.002,-1.101329 -0.0134,-0.279225 -0.057,-0.882925 -0.005,-1.146897 0.0539,-0.272531 0.22612,-0.516612 0.25761,-0.792639 0.026,-0.227925 -0.14643,-0.460226 -0.0893,-0.682397 0.66672,-2.591747 0.50926,0.362712 0.53231,-1.845143 0.24479,-0.387215 0.52416,-0.754618 0.73436,-1.161646 0.29831,-0.577656 0.32579,-1.275201 0.64917,-1.839211 0.21793,-0.380098 0.53842,-0.691377 0.8111,-1.03432 1.64187,-2.064895 0.61843,-0.811569 4.75824,-3.383579 0.80486,-0.363458 1.12495,-0.567184 2.02479,-0.717909 0.60825,-0.101881 1.23291,-0.03757 1.84898,-0.0659 0.35772,-0.01646 0.71498,-0.07806 1.07263,-0.06004 0.24961,0.01257 0.48959,0.100703 0.73439,0.151053 0.34999,-0.01333 0.69999,-0.02665 1.04999,-0.03997 0.1994,0.07986 0.38468,0.216152 0.5982,0.239567 0.34633,0.03798 0.69798,-0.104092 1.04353,-0.05952 0.20933,0.02699 0.37065,0.210254 0.57363,0.268094 0.43337,0.123489 0.903,0.0761 1.33616,0.205468 0,0 -3.24783,2.305209 -3.24783,2.305209 z"
       inkscape:connector-curvature="0" />
    <path
       style="opacity:1;fill:#000000;fill-opacity:1;stroke:none;stroke-width:0.60000002;stroke-miterlimit:4;stroke-dasharray:none;stroke-opacity:1"
       id="path3094"
       d="m 191.82564,73.621876 c 0.59887,-2.341893 -0.0187,0.666194 -0.0309,-1.57851 -0.002,-0.366908 0.20378,-0.710636 0.22884,-1.076695 0.0222,-0.324234 -0.0785,-0.646105 -0.0887,-0.970936 -0.0823,-2.611091 0.17794,0.582581 -0.0734,-2.073 0.0906,-2.216848 -0.0154,0.07334 0.12362,-2.126033 0.0214,-0.339148 -0.0113,-0.684154 0.0512,-1.018185 0.0745,-0.398352 0.26096,-0.76849 0.35663,-1.162296 0.23279,-1.362578 0.0933,-0.691849 0.41613,-2.012675 0.18389,-0.348753 0.42565,-0.672677 0.55166,-1.046261 0.72479,-2.148959 -0.86051,0.900118 0.38133,-1.50677 0.41019,-0.795028 0.78337,-0.911672 0.71413,-1.823574 0.14356,-0.214456 0.32514,-0.407866 0.43068,-0.643366 0.70374,-1.57026 -0.61682,0.641217 0.24509,-0.916895 0.75466,-1.364256 2.56091,-1.819937 3.99387,-2.434217 0.14123,-0.06054 0.0469,0.30372 0.0704,0.45558 0.4189,0.913636 0.94172,1.856788 1.01529,2.88176 0.20289,2.826597 -0.39184,-0.250611 0.21626,2.422649 0.044,0.605579 0.1153,1.868398 0.23782,2.479059 0.15214,0.758327 0.42917,1.486961 0.60251,2.240722 0.22913,0.996333 0.24816,1.213815 0.41173,2.217092 1.13412,2.445948 -0.1891,-0.59758 0.60581,1.84572 0.0867,0.266647 0.29575,0.485719 0.36705,0.756906 0.0734,0.279022 0.007,0.579673 0.059,0.8635 0.072,0.394914 0.32501,0.920811 0.48586,1.288891 0.0797,0.167502 0.14225,0.344257 0.23899,0.502507 0.0953,0.155943 0.32422,0.476809 0.57969,0.424048 0.14192,-0.02931 0.48793,-0.311856 0.36004,-0.243689 -3.03941,1.620052 -3.71454,2.572874 -2.80259,1.386491 0.313,-0.904153 0.8317,-1.723703 1.10323,-2.644704 0.0747,-0.25332 0.0747,-0.527135 0.16749,-0.77439 0.12318,-0.328221 0.31685,-0.625473 0.47528,-0.938208 0.24374,-0.460853 -8e-4,-0.980866 0.11678,-1.45194 0.081,-0.324247 0.32058,-0.595178 0.39771,-0.920361 0.0554,-0.233474 -0.0292,-0.48073 -0.009,-0.719802 0.0287,-0.334425 0.22898,-1.162942 0.30302,-1.488472 -0.0288,-0.209031 -0.0576,-0.418065 -0.0864,-0.627097 0,0 3.38205,-1.60742 3.38205,-1.60742 v 0 c -0.0173,0.217728 -0.0346,0.435459 -0.0519,0.65319 0.0231,0.203192 0.10208,0.407726 0.0693,0.609576 -0.23144,1.424353 -0.39815,0.245888 -0.4912,1.660195 -0.015,0.227822 0.13511,0.455932 0.0878,0.679293 -0.62698,2.960574 -0.34774,-0.635243 -0.4702,1.660637 -0.13814,1.344382 0.0535,0.202932 -0.44288,1.639506 -0.0598,0.173228 -0.31457,1.257731 -0.40822,1.461651 -0.12248,0.266692 -0.31425,0.49608 -0.45755,0.752192 -0.10474,0.18719 -0.19059,0.384339 -0.28588,0.576508 -0.81099,1.47601 -0.2863,0.691896 -3.51796,2.290289 -0.10208,0.05049 -0.21893,-0.06405 -0.33078,-0.08539 -0.1923,-0.03669 -0.40504,-0.0019 -0.5806,-0.08851 -0.31317,-0.154504 -0.4687,-0.641819 -0.59216,-0.909929 -0.0131,-0.248108 0.0282,-0.505177 -0.0392,-0.744323 -0.35734,-1.268653 -0.37434,0.02978 -0.66474,-1.338289 -0.0649,-0.305708 0.007,-0.626959 -0.0325,-0.936996 -0.10124,-0.798253 -0.27963,-1.135914 -0.56216,-1.889008 -0.91071,-2.108475 -0.0511,0.201626 -0.48616,-2.196013 -0.0679,-0.374374 -0.26393,-0.715235 -0.35751,-1.084035 -0.30561,-1.204309 -0.14159,-2.430436 -0.57221,-3.607294 -0.98398,-2.377567 -0.0241,0.322262 -0.44667,-2.315311 -0.0512,-0.319267 -0.26615,-0.593659 -0.3402,-0.908407 -0.13833,-0.587965 -0.0255,-1.208577 -0.4064,-1.736352 -0.61657,-1.07242 -0.11704,-0.129807 2.83481,-1.860494 0.14274,-0.08369 -0.29735,0.167502 -0.39419,0.301656 -0.0637,0.08824 -0.0101,0.222928 -0.0558,0.321681 -0.59363,1.281911 -0.22648,-0.01929 -0.50174,1.143283 -0.17585,0.382217 -0.30298,0.785804 -0.4822,1.166455 -0.11852,0.251735 -0.30086,0.471938 -0.40459,0.730121 -0.0905,0.225321 -0.10414,0.474786 -0.17306,0.70763 -0.24681,0.833827 -0.33787,0.945793 -0.72201,1.7833 -0.13591,0.342778 -0.30824,0.673272 -0.40773,1.028335 -0.0922,0.329044 -0.10814,0.67483 -0.164,1.011952 -0.23029,1.389716 -0.51511,2.797992 -0.43592,4.211592 0.002,0.359677 0.0413,0.721159 0.005,1.079032 -0.0384,0.381643 -0.2301,0.744447 -0.22747,1.128014 0.002,0.308388 0.21465,0.585914 0.24136,0.893151 0.0775,0.891667 -0.40739,1.745642 -0.14572,2.62859 0,0 -3.1855,1.623095 -3.1855,1.623095 z"
       inkscape:connector-curvature="0" />
    <path
       style="opacity:1;fill:#000000;fill-opacity:1;stroke:none;stroke-width:0.60000002;stroke-miterlimit:4;stroke-dasharray:none;stroke-opacity:1"
       id="path3096"
       d="m 218.0398,55.535449 c -0.0616,0.234445 -0.15845,0.46237 -0.1848,0.703334 -0.12777,1.168405 0.23111,0.387681 -0.0487,1.648142 -0.0858,0.386586 -0.27419,0.744416 -0.37334,1.1278 -0.17298,0.668832 -0.24878,1.359149 -0.38349,2.036723 -0.25876,1.248299 -0.0834,2.530972 -0.20528,3.793225 -0.22431,1.246799 -0.15194,0.638109 -0.23014,1.824477 0.21781,0.453874 0.11869,1.002279 0.3111,1.461804 0.0864,0.206312 0.29486,0.344321 0.38712,0.548071 0.0853,0.188294 0.007,0.442902 0.13513,0.605203 0.0591,0.075 1.0568,0.539271 1.15752,0.587256 0.48666,0.733443 -0.0275,0.148373 0.82089,0.552802 0.12046,0.05743 0.18131,0.21105 0.30631,0.25777 0.53846,0.201247 1.27808,0.01384 1.80572,-0.09617 0.16082,-0.06302 0.32163,-0.126034 0.48244,-0.189052 -0.82397,0.443253 -1.61307,0.95858 -2.47192,1.329758 -0.18038,0.07796 0.27505,-0.281469 0.39906,-0.433906 0.15538,-0.191016 0.28682,-0.400473 0.43786,-0.594939 0.84003,-1.081535 0.52256,-0.418346 0.8982,-1.589371 0.0814,-0.618331 0.43691,-1.164844 0.54813,-1.773536 0.28826,-1.577607 -0.36192,0.08919 0.16445,-1.622565 0.44945,-1.461609 0.46143,-0.402728 0.31588,-1.628762 1.12261,-2.719993 -0.004,0.481317 0.23409,-1.465887 0.0338,-0.276646 0.27697,-0.504068 0.29545,-0.782153 0.0128,-0.191995 -0.19868,-0.346393 -0.20769,-0.538602 -0.0204,-0.434774 0.29739,-1.074335 0.45159,-1.446975 0.35462,-0.997066 0.4445,-2.063966 0.60415,-3.106398 0,0 3.34059,-1.633017 3.34059,-1.633017 v 0 c 0.18182,1.044819 0.0851,-0.08478 -0.25992,1.237986 -0.0461,0.176792 0.0437,0.367797 0.0133,0.547957 -0.003,0.01603 -0.44721,1.3824 -0.44973,1.39015 -0.0704,0.829913 0.002,0.401296 -0.23868,1.282033 -0.0182,0.206383 0.0989,0.411763 0.0728,0.617294 -0.034,0.267529 -0.2006,0.504437 -0.2493,0.769687 -0.0399,0.217498 -0.009,0.442171 -0.0138,0.663257 -0.0593,0.263393 -0.11858,0.526783 -0.17788,0.790176 -0.005,0.08932 -0.0714,1.467955 -0.0847,1.522817 -0.37865,1.568685 -0.39293,0.395957 -0.5984,1.868479 -0.0374,0.268026 0.0353,0.54664 -0.0196,0.811636 -0.0667,0.322175 -0.22701,0.617641 -0.34051,0.926463 -0.55688,1.588508 0.0413,0.205549 -1.03619,1.760516 -0.0152,0.02191 -0.44914,0.955831 -0.5497,1.021712 -3.69886,2.423155 -2.48704,2.371386 -4.37412,2.352374 -2.44743,0.478935 0.23873,0.118631 -1.19726,-0.02887 -0.24805,-0.02548 -0.49678,0.0948 -0.74484,0.06941 -0.59391,-0.0608 -0.90044,-0.811186 -1.54959,-0.719124 -0.41325,-0.45873 -1.05396,-0.885751 -1.27898,-1.458741 -0.42835,-1.09075 0.12271,-0.379119 -0.19827,-1.548016 -0.0684,-0.249142 -0.24045,-0.457375 -0.36067,-0.686059 0.0134,-0.285509 0.0359,-0.570738 0.0402,-0.856528 0.004,-0.291468 -0.0484,-0.584867 -0.0144,-0.874379 0.15418,-1.313773 0.34885,-0.762373 0.34017,-2.036995 -0.002,-0.297088 -0.0977,-0.587547 -0.111,-0.884344 -0.014,-0.312052 0.0196,-0.624427 0.0293,-0.936641 0.65762,-2.850173 -0.0953,0.623502 0.33613,-2.020286 0.0579,-0.354598 0.16267,-0.699977 0.23654,-1.05159 0.17482,-0.832159 0.23529,-1.687451 0.52982,-2.49002 0,0 3.25903,-1.615384 3.25903,-1.615384 z"
       inkscape:connector-curvature="0" />
    <path
       style="opacity:1;fill:#000000;fill-opacity:1;stroke:none;stroke-width:0.60000002;stroke-miterlimit:4;stroke-dasharray:none;stroke-opacity:1"
       id="path3098"
       d="m 375.40858,96.458277 c -3.72795,2.724579 -7.43688,5.471383 -11.06011,8.335233 -6.00218,4.55842 -1.83094,1.33294 -8.01362,6.27456 -1.64857,1.31763 -3.33222,2.59181 -4.95726,3.93834 -1.60713,1.3317 -3.14939,2.73991 -4.73718,4.09461 -11.78735,10.0569 1.41465,-1.35985 -10.61855,9.08776 -4.59176,4.06086 -8.78766,8.53142 -13.11899,12.86102 -1.2614,1.26092 -2.56434,2.48129 -3.78929,3.77766 -0.95903,1.01496 -1.83345,2.10669 -2.75886,3.15238 -0.83457,0.94303 -1.68069,1.87579 -2.52103,2.81368 -1.10434,1.27693 -2.37347,2.69018 -3.40254,4.05543 -0.33774,0.44807 -0.61579,0.93918 -0.95443,1.38656 -0.3365,0.44458 -0.71819,0.85318 -1.06897,1.28658 -0.52951,0.65426 -0.91903,1.18021 -1.41724,1.84037 -0.34224,0.51173 -0.83386,0.90137 -1.19983,1.3929 -0.11677,0.15682 -0.16534,0.35961 -0.29142,0.50905 -0.0828,0.0982 -1.08005,0.96316 -1.16062,1.20553 -0.0345,0.10396 0.13346,0.17377 0.20019,0.26066 0.004,0.14476 -0.0621,0.31037 0.013,0.43429 0.4971,0.82177 3.28417,2.2433 3.86866,2.50539 2.6416,1.18454 5.47296,2.07614 8.19848,3.0146 1.81272,0.7428 3.56016,1.67088 5.43814,2.2284 2.43277,0.7222 4.96462,1.05471 7.44392,1.59587 7.35645,1.6057 8.97221,2.07757 16.43023,3.45973 21.57997,3.99928 -4.20941,-1.09324 16.60483,3.08091 4.9064,0.66189 9.74786,1.73176 14.645,2.44974 2.18692,0.32063 4.38812,0.53487 6.58162,0.80674 1.92169,0.23817 3.84387,0.47274 5.76397,0.7234 1.67127,0.21816 3.33619,0.48519 5.00999,0.68303 1.57803,0.18653 3.16259,0.31325 4.74388,0.46988 7.21915,1.27967 14.51959,2.0199 21.75123,3.21488 0.69689,0.11202 1.39923,0.1942 2.09066,0.33605 0.49268,0.10107 0.95962,0.31759 1.45704,0.39178 1.21107,0.18063 2.46512,-0.0333 3.62735,-0.36732 -0.91855,0.49891 -1.80022,1.07271 -2.75566,1.49672 -0.17891,0.0794 0.30396,-0.26561 0.38399,-0.44422 0.0633,-0.14126 0.0342,-0.30944 0.023,-0.46384 -0.0127,-0.17631 -0.0734,-0.34632 -0.0944,-0.52184 -0.0823,-0.68866 -0.0512,-0.90019 -0.0392,-1.62938 -0.95025,-4.29484 0.69617,2.635 -0.8495,-2.05434 -0.15682,-0.4758 -0.0658,-1.00811 -0.2081,-1.48844 -0.15568,-0.52546 -0.46429,-0.99319 -0.6768,-1.49835 -1.84433,-4.38412 0.55711,0.99741 -1.58676,-3.72948 -0.6096,-1.60249 -1.71656,-2.95171 -2.4139,-4.50664 -0.43397,-0.9677 -0.60645,-2.04303 -1.07437,-2.99477 -0.50739,-1.032 -1.2384,-1.93834 -1.83448,-2.92177 -1.3933,-2.29866 -2.72167,-4.63605 -4.08178,-6.95449 -6.00824,-11.26774 2.07197,3.64116 -4.68395,-7.99744 -0.82079,-1.414 -1.46614,-2.92526 -2.28968,-4.33768 -2.423,-4.15562 -3.10655,-4.44832 -5.42753,-8.66533 -0.78893,-1.43342 -1.43372,-2.94157 -2.15061,-4.41236 -0.8668,-1.26565 -1.71437,-2.5447 -2.6004,-3.79695 -0.7996,-1.13007 -1.65421,-2.2205 -2.45589,-3.3491 -1.84875,-2.60268 -3.49872,-5.37669 -5.56647,-7.8197 -0.50731,-0.59938 -1.07577,-1.1442 -1.61366,-1.7163 -1.51382,-0.97508 -2.19877,-2.63918 -3.47655,-3.83833 -0.34631,-0.325 -0.7761,-0.55299 -1.12075,-0.87975 -1.73585,-1.64572 0.28446,-0.27509 -1.7935,-1.53091 -2.21758,-1.39291 -0.004,0.2184 -1.4582,-1.46606 -1.42214,-1.64721 -0.23408,0.41694 -1.48257,-1.39277 -2.00202,-2.90199 1.09617,1.0593 -0.99041,-1.54421 -0.0448,-1.0124 -0.81674,-1.27979 -1.36438,-1.97588 -0.15303,-0.19452 -0.22738,-0.4426 -0.37748,-0.6394 -0.18955,-0.24851 -0.73189,-0.72187 -0.9733,-0.94038 -0.16748,-0.11596 -0.35499,-0.20737 -0.50249,-0.3479 -0.12835,-0.1223 -0.18672,-0.30578 -0.31359,-0.42965 -0.62439,-0.6097 -0.19452,-10e-4 -0.83624,-0.47732 -0.0869,-0.0645 -0.0898,-0.22836 -0.19291,-0.26129 -0.17777,-0.0567 -0.37295,0.0141 -0.55943,0.0211 -0.3556,-0.22035 -0.15798,-0.12013 -0.59976,-0.28662 0,0 3.1659,-2.17891 3.1659,-2.17891 v 0 c 0.0496,0.51416 -0.0804,0.33585 0.5652,0.34479 0.21503,-0.006 0.46286,-0.131469 0.64511,-0.0172 0.12406,0.0778 -0.048,0.31259 0.0267,0.43849 0.0689,0.11599 0.85119,0.46423 0.89207,0.49396 0.30829,0.22425 0.47726,0.6078 0.80254,0.81479 0.46992,0.36875 1.86213,1.6224 2.12283,2.0878 0.13097,0.23385 0.1525,0.51391 0.22876,0.77086 0.13763,0.24219 0.27527,0.48438 0.41288,0.72658 1.61938,2.17207 -0.74099,-0.84735 1.36231,1.31505 0.52332,0.53802 0.5702,1.03097 0.99468,1.62423 0.18867,0.2637 0.43111,0.48445 0.6495,0.7241 0.23571,0.25863 0.47516,0.51381 0.71276,0.77071 1.10487,0.74189 0.90903,0.51196 1.81615,1.52848 0.30178,0.33819 0.53848,0.73576 0.86918,1.04576 0.39288,0.36832 0.86844,0.63771 1.28744,0.97601 1.64835,1.33089 1.16215,0.92197 2.50912,2.7062 4.31091,4.75244 -1.24989,-1.58584 3.02332,4.0467 2.6757,3.52688 1.84835,1.36287 4.34964,5.42655 7.77968,12.639 -4.60809,-5.91232 4.49654,7.48575 0.87162,1.38268 1.72934,2.77422 2.61482,4.14805 0.92348,1.43275 1.98187,2.78241 2.81178,4.27129 0.83328,1.49487 1.32604,3.16372 2.16432,4.65577 0.80211,1.42764 1.90492,2.66876 2.74172,4.07635 0.81746,1.37507 1.47542,2.8389 2.21313,4.25835 0.79098,1.26795 1.58195,2.5359 2.37292,3.80385 0.69157,1.2063 1.36628,2.42241 2.07468,3.6189 0.66132,1.117 1.41496,2.1799 2.03406,3.32084 0.55086,1.01513 0.89879,2.13382 1.4704,3.13741 0.52019,0.91333 1.28619,1.67296 1.79369,2.5934 0.83058,1.50634 1.14543,3.25954 2.02578,4.7462 0.34943,0.62443 0.73173,1.23157 1.04828,1.87329 0.7376,1.49532 1.22028,3.11122 1.8034,4.66876 0.14764,0.39431 0.34324,0.77222 0.45656,1.17772 0.099,0.3541 0.11798,0.72583 0.17696,1.08875 0.2672,0.83842 0.318,0.70579 0.23214,1.58963 -0.0225,0.23054 -0.12787,0.45144 -0.12753,0.68307 0,0.26217 0.36251,0.77104 0,1.02957 -1.11432,0.79605 -2.36151,1.38738 -3.54227,2.08107 -0.84156,0.3561 -1.59731,0.55103 -2.53015,0.4048 -0.36743,-0.0576 -0.71311,-0.2143 -1.0767,-0.29255 -1.51484,-0.32605 -2.20088,-0.34964 -3.83241,-0.52637 -3.63519,-1.18472 -0.72684,-0.39211 -5.33664,-1.07597 -1.1542,-0.17123 -2.29143,-0.44829 -3.44729,-0.60802 -1.39422,-0.19267 -2.80339,-0.26265 -4.19851,-0.44859 -8.72879,-1.16328 0.60727,-0.26735 -8.78464,-1.05085 -8.35385,-1.61976 0.10345,-0.10621 -9.44327,-1.37191 -1.85865,-0.24642 -3.69983,-0.61203 -5.55599,-0.8766 -7.08805,-1.0103 -14.24757,-1.5953 -21.22921,-3.26787 -2.83501,-0.44577 -5.6813,-0.82485 -8.50501,-1.33731 -2.74135,-0.49751 -5.46047,-1.11095 -8.18541,-1.69172 -9.90936,-2.11201 -19.81129,-4.31851 -29.53536,-7.1815 -3.65927,-1.13089 -5.12167,-1.44013 -8.43045,-2.92718 -1.54445,-0.69412 -2.17508,-1.08443 -3.37743,-2.04162 -0.25003,-0.19906 -0.54702,-0.36488 -0.71903,-0.63425 -0.12102,-0.18955 -0.074,-0.44367 -0.11094,-0.66551 0.0439,-0.19629 0.15446,-0.78252 0.27361,-0.96875 0.13689,-0.214 0.33644,-0.38079 0.50048,-0.57476 0.58669,-0.69357 1.18698,-1.37097 1.81277,-2.03065 0.22778,-0.28101 0.47453,-0.54764 0.68331,-0.84302 0.84585,-1.19663 0.32793,-0.8447 1.44558,-2.13584 0.51059,-0.58988 1.10495,-1.10285 1.62613,-1.68343 1.21814,-1.35696 2.24814,-2.87774 3.58285,-4.13401 2.55283,-3.007 2.35964,-2.82177 5.16919,-5.93775 1.07702,-1.19448 2.12617,-2.41595 3.25319,-3.56338 4.4369,-4.51727 9.3318,-8.56448 13.72362,-13.12905 1.72056,-1.53114 3.41796,-3.08875 5.16173,-4.59342 4.95826,-4.2784 10.07784,-8.37191 15.13165,-12.5354 1.28921,-1.06209 2.54429,-2.16556 3.84448,-3.21418 1.222,-0.98558 2.4806,-1.92494 3.72091,-2.88741 2.37622,-1.84415 4.74578,-3.81175 7.16423,-5.59482 2.521,-1.85869 0.91577,-0.509368 2.94031,-2.093349 0.23331,-0.18255 0.45241,-0.382585 0.67861,-0.573876 0,0 3.52737,-1.371513 3.52737,-1.371513 z"
       inkscape:connector-curvature="0" />
    <path
       style="opacity:1;fill:#000000;fill-opacity:1;stroke:none;stroke-width:0.60000002;stroke-miterlimit:4;stroke-dasharray:none;stroke-opacity:1"
       id="path3104"
       d="m 330.35393,153.32428 c -0.22423,-1.42431 -0.0159,-2.85776 -0.0286,-4.28477 -0.0293,-3.28184 -0.30041,-0.22554 0.17515,-3.8497 0.17198,-1.45816 0.59772,-2.87901 0.77034,-4.33718 0.33737,-2.84986 -0.21164,-0.82151 0.37459,-3.59364 0.72126,-3.41061 0.20834,0.0262 0.58164,-2.75488 0.37266,-0.95083 0.65643,-1.9248 1.03161,-2.8739 0,0 3.52681,-1.61639 3.52681,-1.61639 v 0 c -0.25651,0.32402 -0.57967,0.60499 -0.76954,0.97205 -0.3044,0.58847 -0.0217,1.3833 -0.47659,1.92962 -0.084,0.4016 -0.13552,0.81139 -0.25202,1.20481 -0.16517,0.5579 -0.47543,1.07217 -0.591,1.64242 -0.10943,0.53995 -0.0201,1.10299 -0.0765,1.65102 -0.0667,0.64791 -0.21066,1.28581 -0.29239,1.93199 -0.88937,7.03125 0.53793,-3.23826 -0.51556,4.19465 -0.0512,0.6701 -0.094,1.3409 -0.15362,2.0103 -0.0562,0.63063 -0.18383,1.2564 -0.19397,1.88945 -0.007,0.46852 0.12949,0.9302 0.14124,1.39864 0.0241,0.96209 -0.16153,1.936 -0.14095,2.90055 0,0 -3.11065,1.58496 -3.11065,1.58496 z"
       inkscape:connector-curvature="0" />
    <path
       style="opacity:1;fill:#000000;fill-opacity:1;stroke:none;stroke-width:0.60000002;stroke-miterlimit:4;stroke-dasharray:none;stroke-opacity:1"
       id="path3106"
       d="m 344.23199,137.87601 c -0.12168,0.039 -0.24879,0.0639 -0.36505,0.11693 -0.27781,0.1267 -0.53438,0.29733 -0.8137,0.42068 -1.06571,0.47068 -2.19488,0.79969 -3.26612,1.26338 -1.73665,0.60319 -3.39442,1.41561 -5.03576,2.2386 -0.30163,0.18766 -0.67109,0.11341 -0.9902,0.22657 -1.10816,0.39293 -5.52622,3.0852 1.18845,-0.77662 0.0331,0.47248 -0.0401,0.10708 0.25448,0.60785 0.0948,0.16113 0.13999,0.35208 0.25479,0.4996 0.43394,0.55748 0.70628,0.53444 1.30863,0.95188 0.25225,0.17482 0.478,0.38508 0.71699,0.57762 0.15026,0.22123 0.25326,0.48337 0.45077,0.6637 0.24956,0.22787 1.1983,0.62294 1.48247,0.80387 0.69463,0.44225 0.41732,0.43284 1.06635,0.93299 0.19891,0.15328 0.42537,0.26701 0.63804,0.40052 0.2237,0.11137 0.52702,0.12992 0.67106,0.3341 0.12742,0.18061 -0.059,0.46092 0.032,0.66235 0.15391,0.34063 0.68713,0.43384 0.94806,0.60681 0.10356,0.0686 0.17094,0.18032 0.25641,0.27048 0,0 -3.18268,2.03865 -3.18268,2.03865 v 0 c -0.11239,-0.10454 -0.21976,-0.21477 -0.33721,-0.31363 -0.14049,-0.11825 -0.32115,-0.19358 -0.43582,-0.33703 -0.10829,-0.13547 -0.11422,-0.33217 -0.21307,-0.47469 -0.22537,-0.32495 -0.61312,-0.51535 -0.83428,-0.84344 -2.92161,-1.05669 0.94895,0.61912 -0.83939,-1.06392 -0.238,-0.224 -0.673,-0.0265 -0.9651,-0.17321 -0.21622,-0.10857 -0.29273,-0.38953 -0.47424,-0.5495 -0.40391,-0.35597 -1.05031,-0.67567 -1.51013,-0.92874 -2.40708,-2.56533 1.19001,1.23079 -1.26598,-1.23803 -0.17119,-0.17208 -0.29779,-0.3864 -0.4766,-0.55054 -0.1765,-0.16203 -0.46603,-0.21196 -0.58229,-0.42149 -0.17666,-0.31843 0.26278,-0.82516 -0.23625,-1.06662 1.14186,-0.73062 2.27407,-1.47662 3.42564,-2.19187 0.13751,-0.0854 0.28488,-0.15769 0.43863,-0.20827 0.0878,-0.0289 0.18857,0.003 0.27593,-0.0268 0.59912,-0.20603 1.12998,-0.64051 1.78496,-0.66483 1.65484,-0.83975 3.33574,-1.63434 5.0814,-2.27012 1.55766,-0.55088 3.13529,-1.07373 4.56094,-1.92664 0,0 -3.01209,2.4094 -3.01209,2.4094 z"
       inkscape:connector-curvature="0" />
    <path
       style="opacity:1;fill:#000000;fill-opacity:1;stroke:none;stroke-width:0.60000002;stroke-miterlimit:4;stroke-dasharray:none;stroke-opacity:1"
       id="path3108"
       d="m 345.67989,152.54177 c 0.0581,-0.23911 0.15658,-0.4719 0.17442,-0.71733 0.0183,-0.25262 -0.0688,-0.50358 -0.0673,-0.75686 0.007,-1.26501 0.333,-2.49676 0.46363,-3.74733 0.26551,-3.15162 -0.20434,1.53849 0.45593,-2.11957 0.0568,-0.31478 -0.04,-0.64307 0.006,-0.95957 0.0581,-0.39719 0.27191,-0.76505 0.3044,-1.16516 0.0243,-0.29862 -0.0918,-0.59214 -0.13766,-0.88821 0.0638,-0.35401 0.12766,-0.70802 0.19148,-1.06203 0.68752,-2.06145 0.24127,-0.39707 0.49093,-2.23741 0.15037,-1.10838 0.16571,-0.716 0.41246,-1.72248 0.0435,-0.17748 -0.003,-0.38491 0.095,-0.53991 0.1528,-0.24473 0.41297,-0.40299 0.61945,-0.60449 0.90667,-1.44255 0.46095,-0.82927 4.0237,-2.26822 0.13256,-0.0535 0.10144,0.33281 0.24291,0.3535 0.34428,0.0504 0.68324,-0.19134 1.03037,-0.16724 0.20661,0.0143 0.35722,0.2192 0.556,0.27739 0.27485,0.0805 0.56576,0.0892 0.84865,0.13379 1.5771,0.5528 -0.13756,-0.14881 1.1671,0.68871 0.2186,0.14032 0.49633,0.17283 0.71086,0.3193 0.16788,0.11462 0.24556,0.33364 0.41341,0.44833 0.1987,0.13578 1.03515,0.40529 1.26473,0.48379 0.15209,0.086 0.30414,0.17194 0.45622,0.25791 0,0 -2.93081,1.95654 -2.93081,1.95654 v 0 c -0.10107,-0.12852 -0.20217,-0.25703 -0.30324,-0.38555 -0.3034,-0.0174 -0.61865,0.0335 -0.91017,-0.0523 -0.19126,-0.0563 -0.3149,-0.24503 -0.47998,-0.35681 -1.88185,-1.27433 0.94716,0.66351 -1.29492,-0.62369 -1.18264,-0.67896 0.37917,-0.30698 -1.34369,-0.53944 -0.56084,-0.22743 -1.10879,-0.58035 -1.72572,-0.62043 -0.19928,-0.0129 -0.75625,0.15471 -0.59827,0.0325 0.71429,-0.55226 3.90305,-2.42018 2.31571,-1.40508 -0.64114,0.61066 -0.80388,0.9909 -1.11609,1.82319 -0.12629,0.33662 -0.29207,0.6613 -0.37616,1.01085 -0.12626,0.52489 -0.12401,1.52877 -0.1379,2.05704 -0.12375,0.68423 -0.1932,1.37774 -0.32348,2.06076 -0.075,0.39303 -0.21698,0.77196 -0.28181,1.16679 -0.1747,1.06422 -0.0534,2.16495 -0.60214,3.15522 0.35669,2.65718 -0.0404,-1.2365 -0.2182,1.8448 -0.0153,0.26508 0.22249,0.49726 0.22985,0.76267 0.0243,0.87329 -0.51906,1.69824 -0.53605,2.57018 0,0 -3.08988,1.53577 -3.08988,1.53577 z"
       inkscape:connector-curvature="0" />
    <path
       style="opacity:1;fill:#000000;fill-opacity:1;stroke:none;stroke-width:0.60000002;stroke-miterlimit:4;stroke-dasharray:none;stroke-opacity:1"
       id="path3110"
       d="m 352.35086,144.98971 c 0.25445,0.0118 0.51109,-3e-5 0.76335,0.0355 0.28488,0.0401 0.56121,0.12692 0.8418,0.19039 0.34591,0.0499 0.69159,0.10164 1.03777,0.14962 0.34166,0.0473 0.68255,0.10204 1.02574,0.13635 0.34703,0.0347 0.70152,0.004 1.04386,0.0705 0.24892,0.0484 0.474,0.18029 0.71101,0.27044 2.31654,0.13932 -0.18714,-0.081 1.5656,0.24176 2.28028,0.41993 -0.66659,-0.28422 1.33752,0.21757 0,0 -3.1554,2.07253 -3.1554,2.07253 v 0 c -0.15166,-0.0476 -0.29792,-0.1183 -0.45497,-0.14283 -0.70726,-0.11046 -1.40259,0.0682 -1.94961,-0.52262 -1.82206,-0.0827 -3.81913,-0.15932 -5.53958,-0.79579 0,0 2.77291,-1.92343 2.77291,-1.92343 z"
       inkscape:connector-curvature="0" />
    <path
       style="opacity:1;fill:#000000;fill-opacity:1;stroke:none;stroke-width:0.60000002;stroke-miterlimit:4;stroke-dasharray:none;stroke-opacity:1"
       id="path3112"
       d="m 347.65244,152.01043 c 0.50686,0.007 0.88942,0.44832 1.37404,0.51141 0.45055,0.0586 0.91434,-0.10087 1.36276,-0.0277 0.28675,0.0468 0.50752,0.29305 0.78531,0.37824 0.35269,0.10818 1.71151,0.27681 2.08973,0.32782 0.8074,0.28303 1.6909,0.40427 2.48431,0.7298 0.19571,0.0803 0.36409,0.21591 0.55168,0.3137 0.56885,0.29653 0.64008,0.29966 1.25674,0.52713 0.91001,0.30068 0.44842,0.13772 1.38388,0.49135 0,0 -3.23117,2.15269 -3.23117,2.15269 v 0 c -0.80386,-0.4145 -0.40854,-0.20907 -1.18605,-0.61605 -0.8641,-0.36947 -0.40225,-0.22262 -1.39195,-0.42001 -0.18872,-0.0751 -0.30726,-0.28188 -0.49844,-0.35047 -0.28321,-0.10161 -0.60402,-0.0557 -0.89046,-0.14783 -0.48104,-0.15466 -0.84468,-0.58388 -1.35131,-0.68693 -0.34456,-0.0434 -0.68913,-0.0869 -1.0337,-0.13029 -0.26598,-0.12331 -0.51003,-0.31465 -0.79795,-0.36992 -0.42352,-0.0813 -0.86736,0.0358 -1.29331,-0.0315 -0.30475,-0.0481 -0.56738,-0.26113 -0.87194,-0.31046 -1.9069,-0.30889 -0.50628,0.31251 -1.68063,-0.29344 0,0 2.93846,-2.04754 2.93846,-2.04754 z"
       inkscape:connector-curvature="0" />
    <path
       style="opacity:1;fill:#000000;fill-opacity:1;stroke:none;stroke-width:0.60000002;stroke-miterlimit:4;stroke-dasharray:none;stroke-opacity:1"
       id="path3114"
       d="m 361.90002,158.32055 c -0.0222,-0.6774 -0.0599,-1.39611 0.0621,-2.06759 0.057,-0.3135 0.18669,-0.6102 0.25225,-0.92203 0.10049,-0.47815 0.13335,-1.09543 0.17135,-1.5821 0.0967,-0.28539 0.19328,-0.57078 0.2899,-0.85617 -0.007,-0.23914 -0.0873,-0.48745 -0.0214,-0.71744 0.0988,-0.3445 0.357,-0.62321 0.50006,-0.95181 0.43911,-1.00861 0.61026,-2.12556 0.89511,-3.18248 0.297,-1.56075 0.50478,-3.14666 0.90136,-4.68747 0.52848,-2.05326 0.37238,-0.6153 0.45389,-2.50976 0.15574,-0.40872 0.31147,-0.81745 0.4672,-1.22618 0.0567,-0.32243 0.0609,-0.65865 0.17,-0.96731 0.12507,-0.35378 0.40635,-0.63997 0.52403,-0.99625 0.0707,-0.21385 -0.034,-0.45858 0.0281,-0.67506 0.1601,-0.55806 0.54885,-0.90696 0.91363,-1.32617 1.05082,-1.44505 2.84121,-2.23746 4.56891,-2.51822 0.32946,-0.0535 0.66426,-0.23991 0.98846,-0.16038 0.18957,0.0465 0.16224,0.38386 0.3299,0.48381 0.26459,0.15774 0.59421,0.16279 0.89131,0.24419 0.25802,0.14212 0.54964,0.23556 0.77411,0.42634 0.21463,0.18245 0.33584,0.45268 0.51536,0.66975 0.74115,0.89618 1.4469,1.81049 2.17104,2.72085 0.0188,0.26163 0.0375,0.52325 0.0563,0.78487 0.1361,0.19395 0.36692,0.34856 0.4083,0.58186 0.0491,0.2766 -0.13859,0.54754 -0.15822,0.82777 -0.0478,0.68316 0.24178,1.32375 0.36087,1.98529 0.0306,0.95815 0.0892,0.30209 -0.23545,1.28131 -0.0559,0.16875 -0.0376,0.36786 -0.13658,0.51554 -0.72972,1.08892 -4.65024,2.87933 -4.71938,2.91679 -1.69489,0.71942 -0.46058,0.30708 -1.84536,0.5678 -0.31165,0.0587 -0.61288,0.17233 -0.92755,0.21176 -0.20735,0.026 -0.41809,-0.0293 -0.62674,-0.017 -0.16471,0.01 -1.52406,0.19918 -1.66574,0.21858 -0.29469,0.0648 -0.58452,0.15854 -0.88411,0.19452 -0.15507,0.0186 -0.31173,-0.0445 -0.46741,-0.0322 -0.13166,0.0104 -0.25448,0.0715 -0.38351,0.0995 -1.23661,0.26891 2.07433,-1.45462 3.16362,-2.09881 0.21228,-0.12553 0.4739,-0.13666 0.71086,-0.20499 0.0458,0.0795 0.0457,0.23685 0.13745,0.23844 0.27069,0.005 0.51345,-0.18227 0.78118,-0.22254 1.04915,-0.1578 -0.0328,0.12379 0.77819,0.17818 0.38534,0.0258 0.76663,-0.0953 1.1512,-0.13075 0.3129,0.12576 0.66922,-0.0278 0.9823,0.071 0.11927,0.0376 0.17198,0.19127 0.2858,0.24312 0.52424,0.23886 0.62256,-0.0671 0.8404,0.5974 0.75551,0.7716 0.20605,0.56729 0.27048,1.25281 0.0159,0.16892 0.22392,0.28106 0.23752,0.45018 0.16803,2.09109 -0.53737,-0.57813 0.0474,1.33841 0.0188,1.51022 -0.12515,3.1926 0.13136,4.67643 -0.0917,1.09372 -0.1011,0.33136 0.0677,1.26741 0.0292,0.1621 0.003,0.33626 0.0605,0.49042 0.084,0.2232 0.29017,0.37863 0.42952,0.57215 0,0 -3.28022,1.98273 -3.28022,1.98273 v 0 c -0.058,-0.1281 -0.081,-0.27874 -0.17381,-0.38431 -0.11567,-0.13151 -0.39298,-0.13087 -0.42989,-0.30207 -0.0519,-0.24076 0.21905,-0.46158 0.21209,-0.70778 -0.0111,-0.39613 -0.65027,-0.66323 -0.27062,-1.15765 0.0241,-0.68237 0.0764,-0.81 -0.085,-1.47362 -0.0591,-0.243 -0.23286,-0.46216 -0.23588,-0.71223 -0.004,-0.31726 0.20109,-0.61004 0.21627,-0.92696 0.10692,-2.23266 -0.54311,0.84139 0.0893,-1.65548 -0.0249,-0.61324 -0.0484,-1.23274 -0.089,-1.84407 -0.014,-0.20938 -0.10367,-0.57349 -0.10544,-0.79034 0,-0.11136 0.0257,-0.22126 0.0385,-0.33189 -0.32272,-0.0637 -0.62511,-0.23736 -0.94446,-0.28848 -0.16587,-0.0265 -0.34237,0.0269 -0.50348,-0.0206 -0.88241,-0.2603 0.81111,-0.37539 -0.88831,-0.095 -0.41402,-0.0427 -0.50377,-0.0729 -0.94784,-0.0174 -0.23172,0.029 -0.45588,0.11217 -0.6889,0.12733 -0.42799,0.0278 -0.86754,-0.19141 -1.30056,-0.12103 -1.65341,0.0759 -0.71152,0.12931 2.26526,-2.27624 0.0204,-0.0164 0.0496,0.0259 0.0752,0.0213 0.14031,-0.0251 0.27567,-0.0725 0.41349,-0.10874 0.10896,0.044 0.20942,0.13589 0.32684,0.13192 0.28721,-0.01 0.56325,-0.11432 0.84487,-0.17149 0.27194,-0.0329 0.54594,-0.0517 0.81576,-0.0987 0.31689,-0.0552 0.62198,-0.17943 0.94239,-0.20752 0.18302,-0.016 0.36291,0.0953 0.54571,0.0771 0.30916,-0.0308 0.60222,-0.15355 0.90538,-0.22172 1.22094,-0.27453 0.35848,0.0198 1.69182,-0.55115 -5.93389,3.71452 -1.92881,1.31195 -1.43896,0.7775 0.10321,-0.11258 0.10432,-0.28765 0.17076,-0.42517 0.64198,-1.32865 0.0947,0.0242 0.62383,-1.37361 -0.39245,-1.22139 -0.0265,0.15874 -0.12864,-1.29228 -0.006,-0.0791 -0.27627,-1.18264 -0.31525,-1.2681 -0.0916,-0.20081 -0.29435,-0.34253 -0.3675,-0.55075 -0.0814,-0.23169 -0.0555,-0.48801 -0.0833,-0.73201 -0.0318,-0.2784 0.0512,-0.59635 -0.0953,-0.83518 -0.16002,-0.26086 -0.52171,-0.32707 -0.74568,-0.53562 -0.21328,-0.1986 -0.33792,-0.4811 -0.55504,-0.67551 -0.23156,-0.20735 -0.55856,-0.2948 -0.77631,-0.51661 -1.16999,-1.19179 0.5013,-0.32874 -1.23635,-1.0248 -0.8637,-0.4699 -0.90921,-0.65173 -1.91984,-0.48105 -0.17275,0.0292 -0.65606,0.21806 -0.51213,0.1182 3.89332,-2.70094 3.22249,-2.12851 2.29045,-1.27517 -0.93015,1.09089 -0.0532,-0.0318 -0.76772,1.17759 -0.18933,0.32047 -0.41783,0.61622 -0.61949,0.92908 -0.21953,0.34058 -0.51687,0.64627 -0.64395,1.03102 -0.21053,0.63729 0.42201,1.42219 -0.29435,1.99185 -0.0476,0.37029 -0.26302,2.11411 -0.343,2.44972 -0.10229,0.42932 -0.31274,0.82841 -0.41042,1.25881 -0.2526,1.1129 -0.0378,2.27725 -0.36129,3.38093 -0.15312,0.40502 -0.33978,0.79891 -0.45934,1.21507 -0.096,0.33403 -0.0541,0.70403 -0.18458,1.02617 -0.1764,0.43563 -0.56012,0.76998 -0.72149,1.21141 -0.0791,0.21643 0.10118,0.47292 0.0262,0.69082 -0.12657,0.36782 -0.50442,0.62149 -0.6069,0.99674 -0.055,0.20154 0.11338,0.40215 0.17008,0.60322 -0.10438,0.28617 -0.24096,0.56257 -0.31309,0.85851 -0.0862,0.35348 -0.23465,2.02296 -0.16629,2.35806 0.04,0.19604 0.25816,0.32399 0.30068,0.51949 0.0446,0.20492 -0.0343,0.418 -0.0514,0.627 0,0 -3.60142,1.83502 -3.60142,1.83502 z"
       inkscape:connector-curvature="0" />
    <path
       style="opacity:1;fill:#000000;fill-opacity:1;stroke:none;stroke-width:0.60000002;stroke-miterlimit:4;stroke-dasharray:none;stroke-opacity:1"
       id="path3116"
       d="m 380.13637,159.67092 c -0.17603,-0.71759 -0.34084,-1.26508 -0.38002,-2.02351 -0.0241,-0.46387 0.0561,-0.92916 0.0329,-1.39307 -0.0233,-0.46465 -0.1511,-0.92031 -0.17177,-1.38508 -0.0337,-0.75814 0.10084,-2.25199 0.15685,-3.00154 0.0761,-0.40485 0.50207,-2.59727 0.53046,-3.03645 0.0284,-0.43943 -0.10575,-0.88198 -0.0582,-1.31974 0.055,-0.50621 0.29488,-0.97921 0.3629,-1.48383 0.38995,-2.89227 -0.5284,0.53882 0.35759,-2.37045 -0.0527,-1.04978 0.70474,-1.78855 1.00877,-2.72774 0.0498,-0.15383 -0.0465,-0.51839 0.19418,-0.6198 1.13393,-0.47771 2.30365,-0.86549 3.45546,-1.29823 0.2313,0.88491 0.0862,1.79277 0.13309,2.68534 0.10075,1.9187 0.24122,0.47902 0.2622,2.45353 0.005,0.4505 -0.0511,0.89959 -0.0767,1.34938 0.5965,1.12347 -0.20026,2.33593 0.15648,3.48891 0.0876,0.28323 0.34681,0.482 0.4972,0.73751 0.15666,0.26614 0.488,1.00161 0.62783,1.30506 0.0437,0.18891 0.0243,0.40475 0.131,0.56675 0.25894,0.39366 0.95493,0.39394 1.3458,0.52609 0.11538,0.039 0.20936,0.15638 0.33115,0.15443 0.22389,-0.004 0.43323,-0.11339 0.64982,-0.17008 0.17235,-0.0607 0.34142,-0.13167 0.51702,-0.18215 0.0138,-0.004 -0.006,0.032 -0.0183,0.0388 -0.96549,0.51875 -1.90555,1.0916 -2.90843,1.53371 -0.19203,0.0847 0.32187,-0.27589 0.44336,-0.44701 0.22974,-0.32357 0.2267,-0.5722 0.28411,-0.94189 0.0209,-0.18625 0.0416,-0.3725 0.0624,-0.55875 0.0875,-0.22562 0.22604,-0.43764 0.26265,-0.67687 0.0254,-0.16604 -0.0904,-0.32922 -0.083,-0.49703 0.0209,-0.47236 0.28072,-1.36894 0.42677,-1.82594 0.0217,-0.1731 0.0435,-0.3462 0.0652,-0.51929 -0.0414,-0.15922 -0.14184,-0.3141 -0.1242,-0.47766 0.0246,-0.22921 0.1846,-0.42423 0.24551,-0.64658 0.30951,-1.1298 -0.25625,0.12727 0.36121,-1.08004 0,0 3.3591,-1.5388 3.3591,-1.5388 v 0 c -0.45424,0.82292 -0.14558,0.19957 -0.47752,1.0481 -0.21715,0.555 -0.45533,1.01782 -0.25419,1.62262 -0.003,0.0255 -0.12343,1.13475 -0.12316,1.14165 0.007,0.17591 0.12784,0.34291 0.10535,0.5175 -0.0308,0.2391 -0.21672,0.43792 -0.25905,0.67525 -0.24514,1.37408 0.61418,-0.48454 -0.36954,1.27649 0.0405,0.13923 0.13467,0.27328 0.12155,0.41769 -0.0175,0.19365 -0.1269,0.36835 -0.20892,0.54464 -0.70159,1.50803 -1.48391,1.29732 -3.57507,2.55905 -0.19527,0.11782 -0.39079,0.24933 -0.61146,0.30699 -0.10157,0.0265 -0.20523,-0.0445 -0.30784,-0.0668 -0.56197,0.0776 -1.05569,0.12615 -1.54678,-0.23645 -0.1206,-0.0891 -0.18407,-0.23899 -0.29625,-0.33845 -0.76534,-0.67847 -0.21823,0.0716 -0.78521,-0.86976 -1.3005,-2.24005 0.61368,1.13731 -0.65828,-1.40526 -0.13647,-0.27281 -0.43236,-0.47599 -0.48408,-0.77661 -0.0691,-0.40156 0.13684,-0.80672 0.14158,-1.21416 0.0108,-0.92931 -0.17021,-1.37774 -0.40296,-2.25824 0.0766,-0.47736 0.1987,-0.94962 0.22994,-1.43208 0.0774,-1.19514 -0.27492,-2.35523 -0.31538,-3.54078 -0.0103,-0.30016 0.039,-0.59961 0.045,-0.89989 0.004,-0.20334 -0.0101,-0.40664 -0.0151,-0.60996 5.80919,-3.42893 3.22638,-2.45883 2.6553,-1.32009 -0.42288,0.84331 -0.47339,1.78651 -0.88013,2.63797 -0.0918,0.37373 -0.5274,2.11153 -0.5652,2.42234 -0.0531,0.43632 0.0196,0.8814 -0.0283,1.31833 -0.16224,1.4802 -0.66063,2.92781 -0.68884,4.42938 0.0317,0.46155 0.10351,0.9221 0.095,1.38465 -0.01,0.51053 -0.12544,1.01454 -0.14859,1.52463 -0.0628,1.3848 0.034,1.38084 0.16322,2.7083 0.0377,0.38787 0.0116,0.78386 0.0896,1.16566 0.0586,0.28641 0.21061,0.54542 0.31588,0.81813 0,0 -3.40092,1.83118 -3.40092,1.83118 z"
       inkscape:connector-curvature="0" />
    <path
       style="opacity:1;fill:#000000;fill-opacity:1;stroke:none;stroke-width:0.60000002;stroke-miterlimit:4;stroke-dasharray:none;stroke-opacity:1"
       id="path3118"
       d="m 388.34729,161.93467 c 0.0888,-0.19876 0.15483,-0.40931 0.2663,-0.59628 0.1741,-0.29198 0.44164,-0.52676 0.58664,-0.83423 1.17321,-2.48774 -1.18158,1.36229 0.53146,-1.58272 0.77164,-1.32659 0.8908,-0.57105 0.49303,-1.5812 0.20653,-0.30647 0.45262,-0.58972 0.6196,-0.91942 0.22135,-0.437 0.24683,-0.95061 0.42664,-1.40626 0.23614,-0.59838 0.52658,-1.1413 0.90551,-1.65611 0.53965,-1.41435 3.41847,-2.37628 3.98558,-2.66515 0.18126,-0.0923 0.40055,-0.13344 0.60163,-0.10255 0.30793,0.0473 0.68475,0.46849 0.8834,0.65724 0.39454,0.13253 0.62523,0.51786 0.98425,0.70008 0.40206,0.20406 0.85598,0.28459 1.27698,0.44597 0,0 -3.12473,2.07055 -3.12473,2.07055 v 0 c -0.47961,-0.13379 -0.85693,-0.17947 -1.24931,-0.51411 -0.15134,-0.12906 -0.19558,-0.3678 -0.36494,-0.47205 -0.20217,-0.12442 -0.45984,-0.11806 -0.68977,-0.1771 -0.43688,-0.34144 -0.30141,-0.33098 -0.8405,-0.39773 -0.0905,-0.0112 -0.34925,0.0508 -0.2736,-1.1e-4 4.59665,-3.09315 2.88377,-1.80209 1.88661,-0.90644 0.1992,0.78436 -0.51213,0.80798 -0.73761,1.49995 -0.0574,0.17619 0.13396,0.36376 0.10255,0.5464 -0.0662,0.38542 -0.65981,1.36947 -0.82195,1.65889 -0.19222,0.75168 -0.1864,0.87695 -0.55623,1.62179 -0.15743,0.31706 -0.37722,0.60114 -0.52798,0.92142 -0.11607,0.24651 -0.16055,0.52193 -0.26911,0.77183 -0.20719,0.47691 -0.51305,0.95489 -0.78139,1.40024 0,0 -3.31306,1.5171 -3.31306,1.5171 z"
       inkscape:connector-curvature="0" />
    <path
       style="opacity:1;fill:#000000;fill-opacity:1;stroke:none;stroke-width:0.60000002;stroke-miterlimit:4;stroke-dasharray:none;stroke-opacity:1"
       id="path3120"
       d="m 395.23672,157.55244 c 1.07987,0.2967 2.20991,0.43772 3.23072,0.92677 1.30429,0.62486 -0.006,0.29013 1.53731,0.55752 0.10308,0.10738 0.20616,0.21476 0.30925,0.32213 0,0 -2.91653,1.91975 -2.91653,1.91975 v 0 c -0.12126,-0.0841 -0.24252,-0.16824 -0.36378,-0.25236 -0.25471,-0.0701 -0.51337,-0.12703 -0.76409,-0.21022 -0.265,-0.0879 -1.42314,-0.56971 -1.6759,-0.62747 -0.52871,-0.12083 -1.3739,-0.094 -1.91436,-0.28368 -0.16013,-0.0562 -0.28051,-0.19109 -0.42077,-0.28664 0,0 2.97815,-2.0658 2.97815,-2.0658 z"
       inkscape:connector-curvature="0" />
    <path
       style="opacity:1;fill:#000000;fill-opacity:1;stroke:none;stroke-width:0.60000002;stroke-miterlimit:4;stroke-dasharray:none;stroke-opacity:1"
       id="path3122"
       d="m 390.47001,163.35962 c 0.23294,0.0346 0.46353,0.0945 0.69885,0.10373 0.35801,0.0141 0.71604,-0.0332 1.07434,-0.034 1.53117,-0.004 3.04665,0.10174 4.57623,0.004 0.78285,-0.052 1.55107,0.0681 2.31997,0.18962 0,0 -2.94893,2.11631 -2.94893,2.11631 v 0 c -0.72311,-0.16184 -1.44548,-0.23464 -2.18774,-0.25949 -0.45376,0.0714 -0.90207,0.20309 -1.36131,0.2141 -0.33205,0.008 -0.65217,-0.14016 -0.98385,-0.15786 -0.41196,-0.022 -0.82449,0.0383 -1.23703,0.0394 -0.36222,10e-4 -0.72398,-0.0388 -1.08614,-0.0332 -2.4597,0.0386 0.0145,0.11565 -1.91635,0.0343 0,0 3.05196,-2.21738 3.05196,-2.21738 z"
       inkscape:connector-curvature="0" />
    <path
       style="opacity:1;fill:#000000;fill-opacity:1;stroke:none;stroke-width:0.60000002;stroke-miterlimit:4;stroke-dasharray:none;stroke-opacity:1"
       id="path3130"
       d="m 406.50003,150.72749 c -0.0495,0.28159 -0.15684,0.55899 -0.14845,0.84478 0.009,0.30484 0.17041,0.58932 0.19949,0.8929 0.0732,0.76427 -0.0188,1.53602 0.009,2.3033 0.0767,2.13467 0.10623,0.23708 0.0241,2.45573 0.75687,3.37583 -0.16867,-1.40862 0.0259,2.41024 0.0169,0.33404 0.27387,0.61672 0.33679,0.94522 0.0623,0.325 -0.009,0.66404 0.0344,0.99215 0.004,0.0317 0.34758,1.36165 0.37177,1.45559 0.0276,0.22033 0.0826,0.43894 0.0829,0.66099 0,0.24241 -0.0747,0.48037 -0.0812,0.72269 -0.018,0.67625 0.19431,1.33563 0.28946,1.99719 0.15568,0.85986 0.0817,-0.1034 -0.40416,1.03473 -0.0448,0.10484 0.13092,0.6072 0.15187,0.69967 0.0257,0.11278 -0.036,0.27157 0.0554,0.34245 0.12494,0.0969 0.31327,0.0434 0.4699,0.0651 0.21434,0.27798 0.74515,0.4856 1.08038,0.5584 0.2156,0.0468 0.44262,0.0169 0.65936,0.0582 1.8509,0.3523 -1.17668,-0.0231 1.09493,0.22535 0.60118,-0.0192 0.84995,-0.0865 1.40054,0.0846 0.14158,0.044 0.25408,0.16749 0.39979,0.19492 0.21164,0.0399 0.43106,-0.0102 0.64609,0.002 0.2005,0.0113 0.39907,0.0456 0.59862,0.0684 0,0 -3.08518,2.16051 -3.08518,2.16051 v 0 c -0.22542,0.004 -0.45082,0.009 -0.67625,0.0134 -0.0937,-0.0906 -0.15462,-0.24017 -0.28104,-0.27182 -0.23082,-0.0578 -0.47805,0.0574 -0.71345,0.0228 -0.16436,-0.0242 -0.3057,-0.13012 -0.45855,-0.19518 -0.23407,-0.0133 -0.46815,-0.0266 -0.70223,-0.0399 -0.27315,0.0149 -0.547,0.0692 -0.81946,0.0446 -0.12309,-0.0111 -0.91522,-0.32473 -1.01952,-0.35075 -0.21876,-0.0546 -0.45826,-0.0251 -0.6676,-0.10888 -0.1316,-0.0526 -0.18378,-0.23337 -0.31594,-0.28457 -0.20973,-0.0812 -0.44521,-0.0643 -0.66781,-0.0965 -0.0169,-0.13931 -0.0407,-0.27796 -0.051,-0.41793 -0.0111,-0.15072 0.0576,-0.31962 -0.013,-0.4532 -0.0718,-0.13578 -0.36169,-0.11974 -0.37124,-0.27306 -0.0138,-0.222 0.26271,-0.37127 0.31774,-0.58679 0.0637,-0.24949 -0.27302,-0.50827 -0.0697,-0.76933 0.061,-0.17689 0.17764,-0.34363 0.18311,-0.53069 0.005,-0.15335 -0.12977,-0.28205 -0.15496,-0.43339 -0.0297,-0.17859 0.003,-0.3623 -0.007,-0.54307 -0.0343,-0.62862 -0.17682,-1.25089 -0.10803,-1.88411 -0.38407,-1.12106 -0.62177,-2.28284 -0.66334,-3.47301 -0.0143,-0.40711 0.0556,-0.81445 0.0387,-1.22146 -0.0161,-0.38924 -0.0915,-0.77377 -0.13724,-1.16065 -0.005,-0.41021 -0.0175,-0.82038 -0.0159,-1.23061 0.003,-0.41304 0.0657,-0.82788 0.0249,-1.23889 -0.0355,-0.35713 -0.25355,-0.68781 -0.25226,-1.0467 0.003,-0.43778 0.27123,-0.84957 0.26064,-1.28723 -0.0588,-2.43686 -0.76679,0.81554 -0.0655,-1.73033 0,0 3.19485,-1.62785 3.19485,-1.62785 z"
       inkscape:connector-curvature="0" />
    <path
       style="opacity:1;fill:#000000;fill-opacity:1;stroke:none;stroke-width:0.60000002;stroke-miterlimit:4;stroke-dasharray:none;stroke-opacity:1"
       id="path3136"
       d="m 328.98167,124.6287 c -0.15076,-0.2186 -0.32279,-0.42398 -0.45231,-0.6558 -0.16092,-0.28799 -0.25426,-0.6105 -0.41595,-0.89807 -0.23019,-0.40944 -1.19475,-1.79653 -1.4433,-2.12067 -0.30364,-0.39594 -0.66334,-0.74804 -0.953,-1.15432 -0.31414,-0.44057 -0.56947,-0.92023 -0.85418,-1.38034 -0.33277,-0.50034 -0.60373,-1.04783 -0.9983,-1.50103 -0.47064,-0.54056 -1.05521,-0.97025 -1.57914,-1.45934 -2.01319,-1.87935 -4.0536,-3.68902 -6.35627,-5.21984 -1.01568,-0.67525 -2.08492,-1.26626 -3.1274,-1.89939 -7.16429,-3.73403 0.0719,-0.14913 -7.95298,-3.51635 -1.42232,-0.5968 -2.74471,-1.42845 -4.19595,-1.95101 -1.71995,-0.61931 -3.52899,-0.95638 -5.28545,-1.46303 -5.67015,-1.635572 -5.47812,-1.638972 -11.10123,-3.527147 -12.89304,-3.299349 -26.05353,-5.374616 -39.14364,-7.710683 -2.07851,-0.244711 -4.16304,-0.442812 -6.23554,-0.734132 -5.18472,-0.728784 -5.52757,-1.095555 -10.64183,-1.637191 -1.69553,-0.17957 -3.40236,-0.229463 -5.10219,-0.362278 -7.00217,-0.547103 -2.15959,-0.334479 -9.12458,-0.50763 -6.80516,-0.4402 -1.01817,-0.171865 -7.90712,-0.18787 -1.10609,-0.0026 -2.2121,-0.03681 -3.31725,-0.08237 -0.92641,-0.0382 -1.84929,-0.174186 -2.77648,-0.168865 -1.40408,0.0081 -3.83943,0.31787 -5.27242,0.479999 -2.05157,0.221665 -4.07382,0.512585 -6.05502,1.100582 -0.64469,0.191336 -1.2731,0.434441 -1.91598,0.631756 -1.79842,0.495943 -0.93881,0.244385 -2.58065,0.748522 -1.3815,0.710846 -2.89168,1.137809 -4.27338,1.847718 -0.71061,0.365107 -1.38435,0.797912 -2.07749,1.195176 0.73495,-0.398576 1.43616,-0.866878 2.20484,-1.195724 0.23223,-0.09935 -0.36492,0.352317 -0.57187,0.497129 -0.36338,0.25428 -0.76124,0.455694 -1.13375,0.696396 -0.24988,0.161454 -0.48296,0.347943 -0.7327,0.509612 -1.67733,1.085805 -3.4458,2.023956 -5.17627,3.022898 0.7041,-0.3992 2.81681,-1.596122 2.11232,-1.197602 -1.40644,0.795602 -2.81534,1.586881 -4.21817,2.388847 -4.09061,2.338519 3.09252,-1.868877 0.20799,-0.106879 -0.27654,0.168929 -0.55541,0.334021 -0.83312,0.501031 -0.49898,0.158245 -0.75603,0.627115 -1.15979,0.905618 -0.33542,0.231365 -0.70787,0.404617 -1.05008,0.625811 -1.74909,1.130566 1.49968,-0.778922 -1.12196,0.727086 0,0 -3.22805,1.25794 -3.22805,1.25794 v 0 c 1.08926,-0.66169 2.07936,-1.466188 3.13117,-2.188183 1.95196,-1.162503 3.92006,-2.317192 5.88121,-3.45743 0.31711,-0.184372 1.2808,-0.715192 0.96704,-0.525166 -0.71339,0.432062 -2.89465,1.658353 -2.16652,1.25163 1.41252,-0.789008 2.81319,-1.599036 4.21979,-2.398554 -0.62302,0.364305 -1.22626,0.764781 -1.86906,1.092915 -0.24837,0.126783 0.44641,-0.335058 0.6807,-0.486288 0.34167,-0.220552 0.7042,-0.407612 1.04584,-0.628206 1.89436,-1.223163 3.11132,-2.944588 5.57892,-3.533307 2.02221,-1.100693 4.09385,-2.156494 6.27326,-2.90228 3.16281,-1.139651 -0.36866,0.07964 2.7324,-0.833263 0.64732,-0.190558 1.27203,-0.455615 1.92424,-0.628674 2.01633,-0.535019 4.13197,-0.670351 6.1663,-1.111893 4.70376,-0.398018 0.0911,-0.109781 4.80965,-0.100147 1.04698,0.0021 2.09266,-0.08152 3.13959,-0.09154 1.13215,-0.01082 2.26429,0.02424 3.39648,0.02904 5.51775,0.02339 2.30081,-0.107392 7.81378,0.267957 4.68071,0.313523 9.38516,0.518271 14.05037,1.024003 6.51176,0.705911 4.04244,0.578877 10.57325,1.70134 1.98211,0.340669 3.97463,0.617826 5.96194,0.92674 14.18027,1.739318 -0.86829,-0.301974 12.74676,2.123776 2.34443,0.417698 4.72397,0.620019 7.06762,1.042035 2.21734,0.399269 4.4169,0.896271 6.60805,1.420506 15.43336,3.692432 -3.01771,-0.272693 12.89558,3.041388 1.93257,0.574651 3.86143,1.161915 5.79771,1.723953 1.87626,0.544616 3.78248,0.989391 5.63964,1.595935 1.6229,0.530043 3.19038,1.216953 4.79111,1.810703 1.53691,0.5701 3.09943,1.07244 4.62163,1.68079 2.69534,1.07719 5.25727,2.36363 7.86879,3.62118 1.10921,0.60013 2.26293,1.12444 3.32764,1.80042 1.18808,0.75433 3.47493,2.71397 4.61846,3.64464 0.64312,0.5234 1.3617,0.96267 1.9404,1.55652 0.90818,0.93199 1.3997,2.21461 2.29055,3.1614 0.3552,0.418 0.71043,0.836 1.06564,1.254 0.30101,0.39867 0.58195,0.81331 0.90302,1.19601 0.3025,0.36055 0.72543,0.62556 0.96504,1.03065 0.2096,0.35437 0.12557,0.83794 0.34592,1.18574 0.19068,0.30102 0.55411,0.44818 0.83116,0.67227 0.13546,0.22976 0.27093,0.45952 0.40642,0.68928 0,0 -3.20185,1.84155 -3.20185,1.84155 z"
       inkscape:connector-curvature="0" />
    <path
       style="opacity:1;fill:#000000;fill-opacity:1;stroke:none;stroke-width:0.60000002;stroke-miterlimit:4;stroke-dasharray:none;stroke-opacity:1"
       id="path3138"
       d="m 163.59723,93.045589 c -1.10984,2.023586 0.27483,-0.587857 -0.70471,1.553149 -1.38276,3.022338 0.30458,-1.025874 -1.04375,2.068428 -0.29009,0.665721 -0.53987,1.34851 -0.82924,2.014545 -0.22925,0.338548 -0.48679,0.659575 -0.68775,1.01564 -0.14779,0.261851 -0.21856,0.561209 -0.35379,0.829759 -0.31432,0.62418 -0.71042,1.20441 -1.03432,1.82367 -1.34567,2.57275 0.59526,-0.95982 -0.91239,1.75282 -0.77407,1.43039 -0.2466,0.30938 -0.68881,1.60551 -0.0794,0.23274 -0.26382,0.44107 -0.26907,0.68694 -0.003,0.14528 0.19705,0.22284 0.24674,0.35939 0.22786,0.62624 -0.27868,0.29536 0.43252,0.568 0.62724,-0.11345 1.3015,0.0633 1.9262,-0.0647 0.7366,-0.15088 1.43263,-0.46317 2.16529,-0.63213 0.29871,-0.0689 0.60544,-0.0966 0.90816,-0.14497 0.3902,-0.083 0.77741,-0.18164 1.17061,-0.2491 0.37133,-0.0637 1.67797,-0.18883 2.02643,-0.23404 1.1944,-0.15496 2.38121,-0.36889 3.57347,-0.53983 2.77974,-0.88637 0.22657,-0.15076 2.26801,-0.57878 0.62917,-0.13192 1.18018,-0.32734 1.79059,-0.52406 0,0 -3.11558,2.38625 -3.11558,2.38625 v 0 c -0.23261,0.0451 -0.46871,0.0749 -0.69782,0.1353 -0.34692,0.0915 -0.67539,0.25223 -1.02778,0.31964 -0.23876,0.0457 -0.48605,0.011 -0.72907,0.0164 -0.4459,0.13044 -0.8918,0.26088 -1.33771,0.39132 -2.88469,0.36726 0.95048,-0.16012 -2.55446,0.48051 -1.39528,0.25503 -2.84922,0.11809 -4.21753,0.56624 -0.99511,0.22774 -1.97495,0.48642 -2.97582,0.68649 -0.30316,0.0606 -0.59901,0.17673 -0.90791,0.18949 -0.44225,0.0182 -0.85181,-0.34871 -1.31286,-0.19928 -0.006,-0.005 -0.90238,-0.70208 -0.90679,-0.71403 -0.079,-0.2142 0.0418,-0.45473 0.0665,-0.6817 0.0242,-0.22226 0.001,-0.45678 0.08,-0.66593 0.22421,-0.59375 0.74787,-1.04972 0.84618,-1.70566 0.63369,-1.54562 -0.0233,-0.11767 1.03704,-1.81945 1.9403,-3.11394 -0.68426,0.97378 0.78129,-1.70468 1.50562,-2.75173 -0.0208,0.63764 1.03801,-1.82333 0.45767,-1.058762 1.03391,-2.059806 1.49012,-3.116745 0.24275,-0.562374 0.34038,-1.184415 0.61718,-1.730832 0.1449,-0.286047 0.35302,-0.535395 0.52953,-0.803093 0,0 3.31333,-1.517224 3.31333,-1.517224 z"
       inkscape:connector-curvature="0" />
  </g>
</svg>
