<?xml version="1.0" encoding="UTF-8" standalone="no"?>
<!-- Created with Inkscape (http://www.inkscape.org/) -->

<svg
   xmlns:dc="http://purl.org/dc/elements/1.1/"
   xmlns:cc="http://creativecommons.org/ns#"
   xmlns:rdf="http://www.w3.org/1999/02/22-rdf-syntax-ns#"
   xmlns:svg="http://www.w3.org/2000/svg"
   xmlns="http://www.w3.org/2000/svg"
   xmlns:sodipodi="http://sodipodi.sourceforge.net/DTD/sodipodi-0.dtd"
   xmlns:inkscape="http://www.inkscape.org/namespaces/inkscape"
   width="1920"
   height="1080"
   viewBox="0 0 508.00002 285.74999"
   version="1.1"
   id="svg8"
   inkscape:version="0.92.4 5da689c313, 2019-01-14"
   sodipodi:docname="dibujo15.svg">
  <defs
     id="defs2" />
  <sodipodi:namedview
     id="base"
     pagecolor="#ffffff"
     bordercolor="#666666"
     borderopacity="1.0"
     inkscape:pageopacity="0.0"
     inkscape:pageshadow="2"
     inkscape:zoom="0.35355339"
     inkscape:cx="486.12933"
     inkscape:cy="762.66564"
     inkscape:document-units="mm"
     inkscape:current-layer="layer1"
     showgrid="false"
     units="px"
     inkscape:window-width="668"
     inkscape:window-height="748"
     inkscape:window-x="688"
     inkscape:window-y="10"
     inkscape:window-maximized="0"
     showguides="true" />
  <metadata
     id="metadata5">
    <rdf:RDF>
      <cc:Work
         rdf:about="">
        <dc:format>image/svg+xml</dc:format>
        <dc:type
           rdf:resource="http://purl.org/dc/dcmitype/StillImage" />
        <dc:title />
      </cc:Work>
    </rdf:RDF>
  </metadata>
  <g
     inkscape:label="Capa 1"
     inkscape:groupmode="layer"
     id="layer1"
     transform="translate(0,-11.250015)">
    <path
       style="fill:#000000;fill-opacity:1;stroke:#0e0a08;stroke-width:1.54579282;stroke-miterlimit:4;stroke-dasharray:none;stroke-opacity:1"
       d="m 260.16429,136.2532 c -0.34804,0.60185 -0.5808,1.26158 -0.77121,1.928 -0.0728,0.25479 -0.0997,0.5231 -0.19279,0.77121 -0.10092,0.26911 -0.29472,0.49854 -0.3856,0.7712 -0.10364,0.31088 -0.0892,0.65312 -0.1928,0.964 -0.0909,0.27266 -0.29472,0.49854 -0.38561,0.7712 -0.10363,0.31088 -0.12853,0.64267 -0.1928,0.964 -0.12853,0.64267 -0.25706,1.28533 -0.38559,1.928 -0.47625,2.38123 0.10774,-0.5926 -0.3856,2.1208 -0.10598,0.5829 -0.33396,1.55268 -0.38561,2.12081 -0.0291,0.32001 0.0291,0.64398 0,0.964 -0.0354,0.38931 -0.16034,0.76723 -0.1928,1.1568 -0.032,0.38427 0,0.7712 0,1.1568 -0.0643,0.3856 -0.15741,0.76749 -0.1928,1.1568 -0.0582,0.64003 0.071,1.28927 0,1.928 -0.25514,2.29634 -0.1928,-0.73143 -0.1928,1.5424 0,0.38561 0,0.77121 0,1.15681 0,0.18588 -0.0797,0.99737 0,1.1568 0.11453,0.22907 0.49466,0.52387 0.7712,0.3856 0.0813,-0.0407 0.11719,-0.14239 0.19281,-0.1928 0.11956,-0.0797 0.28397,-0.0912 0.3856,-0.1928 0.10161,-0.10162 0.10657,-0.27064 0.19279,-0.3856 0.10907,-0.14542 0.29208,-0.22974 0.3856,-0.3856 0.10457,-0.17427 0.11733,-0.38971 0.1928,-0.5784 0.56738,-1.41844 -0.25383,0.95431 0.38561,-0.96401 0.12853,-0.38559 0.20383,-0.79325 0.3856,-1.15679 0.10362,-0.20726 0.28197,-0.37115 0.3856,-0.5784 0.0909,-0.18178 0.10191,-0.39663 0.19279,-0.57841 0.10364,-0.20725 0.25708,-0.3856 0.38561,-0.5784 0.12853,-0.1928 0.24085,-0.39746 0.3856,-0.5784 0.11355,-0.14194 0.27653,-0.24018 0.3856,-0.3856 0.0862,-0.11496 0.10658,-0.27063 0.19279,-0.3856 0.10907,-0.14542 0.27655,-0.24018 0.38562,-0.3856 0.17244,-0.22993 0.22617,-0.53206 0.38559,-0.7712 0.0504,-0.0756 0.15216,-0.11151 0.1928,-0.1928 0.0288,-0.0575 -0.0203,-0.13183 0,-0.1928 0.0455,-0.13633 0.14736,-0.24927 0.1928,-0.3856 0.0203,-0.061 -0.0288,-0.13532 0,-0.1928 0.0406,-0.0813 0.16406,-0.10658 0.19279,-0.1928 0.0407,-0.12194 -0.0575,-0.27063 0,-0.3856 0.0288,-0.0575 0.14736,0.0454 0.19281,0 0.0909,-0.0909 -0.0575,-0.27064 0,-0.3856 0.0407,-0.0813 0.15215,-0.11151 0.19281,-0.1928 0.0666,-0.13318 -0.0677,-0.89633 0,-0.964 0.0454,-0.0454 0.12853,0 0.19279,0"
       id="path7123"
       inkscape:connector-curvature="0" />
    <path
       style="fill:#fcd023;fill-opacity:1;stroke:#0e0a08;stroke-width:1.54579282;stroke-miterlimit:4;stroke-dasharray:none;stroke-opacity:1"
       d="m 267.2979,163.82363 c -0.78316,0.1118 -2.2223,-0.25367 -2.89201,0.1928 -0.22371,0.14914 -0.82703,0.78138 -0.964,0.96401 -0.2408,0.32106 -0.39858,0.79714 -0.57839,1.1568 -0.12855,0.25706 -0.21317,0.54127 -0.38562,0.7712 -0.16359,0.21812 -0.41479,0.36027 -0.57839,0.5784 -0.32636,0.43514 -0.47737,0.90885 -0.77121,1.3496 -0.15124,0.22686 -0.4148,0.36027 -0.57839,0.5784 -0.17245,0.22993 -0.22617,0.53206 -0.3856,0.7712 -0.23518,0.35277 -0.24582,0.0192 -0.38561,0.5784 -0.0312,0.1247 0.0312,0.26091 0,0.3856 -0.0348,0.13942 -0.15794,0.24619 -0.19279,0.3856 -0.0312,0.1247 0.0312,0.26091 0,0.3856 -0.0348,0.13942 -0.15794,0.24619 -0.19281,0.3856 -0.0737,0.29476 0,1.05494 0,1.34961 0,0.49143 -0.0803,1.06034 0,1.54239 0.0334,0.20047 0.15295,0.37913 0.19281,0.57841 0.0504,0.25207 -0.0623,0.52181 0,0.7712 0.0697,0.27883 0.29471,0.49854 0.38559,0.7712 0.0204,0.061 -0.0288,0.13531 0,0.1928 0.11052,0.22103 0.40229,0.26818 0.57841,0.3856 0.26997,0.17998 0.49475,0.63298 0.77119,0.7712 0.18178,0.0909 0.39663,0.10191 0.57841,0.1928 0.0813,0.0406 0.11718,0.14239 0.1928,0.1928 0.11957,0.0797 0.25706,0.12853 0.38559,0.1928 0.12854,0.0643 0.24619,0.15795 0.38562,0.1928 0.12469,0.0312 0.26089,-0.0312 0.38559,0 0.13941,0.0348 0.24619,0.15795 0.3856,0.1928 0.18704,0.0467 0.39549,-0.061 0.57839,0 0.13634,0.0454 0.24928,0.14736 0.38562,0.1928 0.13936,0.0465 1.77076,0.0393 1.92799,0 0.13942,-0.0348 0.24619,-0.15795 0.3856,-0.1928 0.1247,-0.0312 0.26091,0.0312 0.38561,0 0.13941,-0.0348 0.25217,-0.13943 0.3856,-0.1928 0.43158,-0.17263 0.96639,-0.29099 1.3496,-0.5784 0.14542,-0.10906 0.22973,-0.29208 0.38559,-0.3856 0.17428,-0.10456 0.40414,-0.0882 0.57841,-0.1928 0.15587,-0.0935 0.25707,-0.25707 0.3856,-0.3856 0.5723,-0.57231 0.93743,-1.24107 1.3496,-1.928 0.27159,-0.45265 0.40211,-0.52329 0.5784,-0.964 0.0755,-0.1887 0.11732,-0.38971 0.19279,-0.57841 0.0534,-0.13342 0.15796,-0.24618 0.19281,-0.38559 0.0312,-0.1247 -0.0312,-0.26091 0,-0.3856 0.0349,-0.13942 0.15794,-0.24619 0.19281,-0.38561 0.0693,-0.27709 0,-0.85621 0,-1.1568 0,-0.44986 0,-0.89973 0,-1.3496 0,-0.32133 0.063,-0.6489 0,-0.964 -0.0399,-0.19928 -0.15295,-0.37912 -0.19281,-0.5784 -0.0958,-0.47897 0.11414,-1.27865 0,-1.7352 -0.0348,-0.13942 -0.15794,-0.24619 -0.19281,-0.3856 -0.0312,-0.1247 0.0312,-0.26091 0,-0.3856 -0.0348,-0.13942 -0.15794,-0.24619 -0.19279,-0.3856 -0.0312,-0.1247 0.0312,-0.26091 0,-0.3856 0.1162,-0.34896 -0.31232,-0.35858 -0.3856,-0.5784 -0.27825,-0.83476 0.36857,0.0709 -0.1928,-0.77121 -0.10083,-0.15124 -0.30431,-0.22301 -0.38561,-0.3856 -0.0288,-0.0575 0.0454,-0.14735 0,-0.1928 -0.0454,-0.0454 -0.14735,0.0454 -0.1928,0 -0.0454,-0.0454 0.0455,-0.14735 0,-0.1928 -0.0454,-0.0454 -0.13531,0.0288 -0.19279,0 -0.0813,-0.0406 -0.11151,-0.15215 -0.19281,-0.1928 -0.12229,-0.0611 -0.79035,0 -0.964,0 -0.50474,0 -1.25552,-0.0799 -1.7352,0 -0.26137,0.0436 -0.51413,0.12853 -0.77119,0.1928 z"
       id="path7131"
       inkscape:connector-curvature="0" />
    <path
       style="fill:#fcd023;fill-opacity:1;stroke:#0e0a08;stroke-width:1.54579282;stroke-miterlimit:4;stroke-dasharray:none;stroke-opacity:1"
       d="m 279.4443,163.63083 c -0.44644,0.70209 -0.48802,1.55848 -0.77119,2.31361 -0.35357,0.94285 -0.45469,0.55263 -0.57841,1.5424 -0.28672,2.29372 0.4159,-1.00398 -0.1928,1.7352 -0.0575,0.25867 -0.16354,0.50784 -0.19279,0.7712 -0.0355,0.31937 0,0.64267 0,0.964 0,0.964 0,1.928 0,2.892 0,0.5784 0.0717,1.16127 0,1.73521 -0.0329,0.26293 -0.15533,0.50888 -0.1928,0.7712 -0.11247,0.78727 0.14995,0.44987 0,1.3496 -0.0236,0.14175 -0.16462,0.24468 -0.1928,0.3856 -0.063,0.31509 0.0779,0.65226 0,0.964 -0.0349,0.13942 -0.15795,0.24619 -0.1928,0.3856 -0.0747,0.29893 0,0.82157 0,1.1568 0,0.0643 -0.0455,0.14736 0,0.1928 0.0454,0.0454 0.14735,-0.0454 0.1928,0 0.0454,0.0454 -0.0455,0.14736 0,0.1928 0.0909,0.0909 0.25706,0 0.3856,0 0.34547,0 1.25147,0.0727 1.5424,0 0.13941,-0.0348 0.24618,-0.15794 0.38559,-0.1928 0.24939,-0.0624 0.51913,0.0504 0.77121,0 0.39228,0.067 0.62464,-0.31772 0.964,-0.3856 0.18906,-0.0378 0.38822,0.0317 0.5784,0 0.40094,-0.0668 0.75587,-0.31878 1.1568,-0.3856 0.45066,-0.0751 1.43967,0 1.928,0 0.12853,0 0.26091,0.0312 0.3856,0 0.13942,-0.0348 0.24928,-0.14736 0.38561,-0.1928 0.17352,-0.0578 0.40487,0.0578 0.57839,0 0.0862,-0.0288 0.11151,-0.15215 0.1928,-0.1928 0.11497,-0.0575 0.27064,0.0575 0.3856,0 0.0881,-0.0441 0.72717,-0.68314 0.77121,-0.7712 0.13849,-0.27699 0.53573,-1.43654 0.57839,-1.7352 0.0727,-0.50897 -0.0568,-1.03141 0,-1.5424 0.0362,-0.3257 0.15662,-0.63831 0.19281,-0.96401 0.0284,-0.25549 -0.0364,-0.51671 0,-0.7712 0.0288,-0.20118 0.16405,-0.37721 0.1928,-0.5784 0.0363,-0.25448 0,-0.51413 0,-0.7712 0,-0.64267 0,-1.28533 0,-1.928 0,-0.83547 0,-1.67093 0,-2.5064 0,-0.32134 0.063,-0.64891 0,-0.964 -0.0399,-0.19928 -0.15295,-0.37912 -0.1928,-0.57841 -0.0504,-0.25207 0.0623,-0.5218 0,-0.7712 -0.0349,-0.13941 -0.15795,-0.24618 -0.19281,-0.38559 -0.0312,-0.1247 0.0312,-0.26091 0,-0.3856 -0.0348,-0.13942 -0.14735,-0.24928 -0.1928,-0.38561 -0.0203,-0.061 0.0288,-0.13531 0,-0.1928 -0.0407,-0.0813 -0.15214,-0.11151 -0.1928,-0.1928 -0.0288,-0.0575 0.0288,-0.13531 0,-0.1928 -0.0813,-0.16258 -0.25706,-0.25707 -0.38559,-0.3856 -0.12853,-0.12853 -0.21316,-0.32811 -0.3856,-0.3856 -0.12195,-0.0406 -0.26366,0.0407 -0.38561,0 -0.0862,-0.0288 -0.10657,-0.16406 -0.1928,-0.1928 -0.1829,-0.061 -0.3856,0 -0.57839,0 -0.42563,0 -1.80689,0.0785 -2.12081,0 -0.0882,-0.022 -0.10657,-0.16406 -0.1928,-0.1928 -0.0446,-0.0148 -2.02318,-0.0488 -2.12079,0 -0.0813,0.0407 -0.11152,0.15216 -0.19281,0.1928 -0.0575,0.0288 -0.14736,-0.0454 -0.19281,0 -0.0454,0.0455 0.0454,0.14736 0,0.1928 -0.0454,0.0455 -0.14734,-0.0454 -0.19279,0 -0.0455,0.0455 0.0454,0.14736 0,0.19281 -0.0909,0.0909 -0.27064,-0.0575 -0.3856,0 -0.0813,0.0406 -0.1115,0.15215 -0.1928,0.19279 -0.0575,0.0288 -0.12853,0 -0.1928,0 -0.25706,0 -0.51414,0 -0.77121,0 z"
       id="path7133"
       inkscape:connector-curvature="0" />
    <path
       style="fill:none;fill-opacity:1;stroke:#0e0a08;stroke-width:1.54579282;stroke-miterlimit:4;stroke-dasharray:none;stroke-opacity:1"
       d="m 258.62189,157.84683 c -0.19627,0.66378 0.13553,1.44315 0,2.1208 -0.0399,0.19928 -0.15295,0.37912 -0.19281,0.5784 -0.0535,0.26737 0.0535,0.69663 0,0.964 -0.0282,0.14091 -0.15794,0.24619 -0.1928,0.3856 -0.0312,0.1247 0,0.25707 0,0.3856 0,0.12853 0.0312,0.26091 0,0.3856 -0.0348,0.13941 -0.15794,0.24619 -0.1928,0.3856 -0.11596,0.46386 0.13848,1.5126 0,1.92801 -0.0454,0.13633 -0.14736,0.24926 -0.1928,0.3856 -0.028,0.0841 -0.028,1.84392 0,1.928 0.0455,0.13633 0.14736,0.24927 0.1928,0.3856 0.0579,0.17352 -0.0578,0.40488 0,0.5784 0.0455,0.13633 0.14736,0.24927 0.1928,0.3856 0.0406,0.12193 -0.0575,0.27063 0,0.3856 0.0406,0.0813 0.15216,0.11151 0.1928,0.1928 0.0575,0.11496 -0.0909,0.29471 0,0.3856 0.0455,0.0454 0.13532,-0.0288 0.19281,0 0.16257,0.0813 0.22301,0.30431 0.3856,0.3856 0.0575,0.0288 0.13532,-0.0287 0.1928,0 0.0813,0.0407 0.1115,0.15216 0.19279,0.1928 0.11497,0.0575 0.29472,-0.0909 0.3856,0 0.0455,0.0455 0,0.12853 0,0.1928"
       id="path7135"
       inkscape:connector-curvature="0" />
    <path
       style="fill:#fcd023;fill-opacity:1;stroke:none;stroke-width:1.54579282;stroke-miterlimit:4;stroke-dasharray:none;stroke-opacity:1"
       d="m 270.5755,126.99879 c 0.24062,0.98143 1.10858,1.83157 1.5424,2.69921 0.0909,0.18177 0.1019,0.39663 0.1928,0.5784 0.10362,0.20725 0.26639,0.3797 0.3856,0.5784 0.19131,0.31884 0.38709,0.64516 0.57841,0.964 0.21527,0.35881 0.3277,0.82256 0.57839,1.1568 0.10906,0.14542 0.30431,0.22302 0.38561,0.3856 0.0575,0.11497 -0.0312,0.2609 0,0.3856 0.0348,0.13941 0.12853,0.25707 0.19279,0.3856 0.0643,0.12853 0.11309,0.26603 0.19281,0.3856 0.0504,0.0756 0.14238,0.11718 0.19279,0.1928 0.0797,0.11957 0.14736,0.24927 0.1928,0.3856 0.0798,0.23935 -0.15826,0.21007 0.1928,0.3856 0.32816,0.16408 0.48106,-0.4486 0.57841,-0.5784 0.47783,-0.63711 0.31172,-0.10451 0.57839,-0.7712 0.1111,-0.27774 0.19182,-0.70563 0.3856,-0.964 0.10906,-0.14542 0.29209,-0.22973 0.38561,-0.3856 0.10455,-0.17427 0.11731,-0.38971 0.1928,-0.5784 0.15762,-0.39407 0.38851,-0.77704 0.57839,-1.1568 0.18639,-0.37277 0.34743,-0.81034 0.5784,-1.1568 0.10083,-0.15125 0.30432,-0.22302 0.38561,-0.38561 0.0288,-0.0575 -0.0288,-0.13531 0,-0.19279 0.0407,-0.0813 0.15214,-0.11151 0.1928,-0.1928 0.0575,-0.11497 -0.0575,-0.27064 0,-0.3856 0.23823,-0.47649 0.1928,0.0665 0.1928,-0.38561"
       id="path7145"
       inkscape:connector-curvature="0" />
    <path
       style="fill:none;fill-opacity:1;stroke:#0e0a08;stroke-width:1.54579282;stroke-miterlimit:4;stroke-dasharray:none;stroke-opacity:1"
       d="m 271.53951,119.09398 c -0.25708,0.12854 -0.51415,0.25707 -0.77122,0.3856 0,0.0643 0.0455,0.14736 0,0.1928 -0.0454,0.0455 -0.14735,-0.0454 -0.19279,0 -0.0909,0.0909 0,0.25707 0,0.38561 0,0.1952 -0.0519,1.2459 0,1.3496 0.0407,0.0813 0.15216,0.11151 0.19279,0.1928 0.0288,0.0575 -0.0288,0.13531 0,0.1928 0.18597,0.37193 0.32633,0.0667 0.5784,0.1928 0.0813,0.0406 0.10659,0.16406 0.19282,0.1928 0.0239,0.008 0.6846,0.0433 0.77119,0 0.0813,-0.0407 0.1115,-0.15216 0.19279,-0.1928 0.0575,-0.0288 0.13533,0.0288 0.19281,0 0.0813,-0.0407 0.11151,-0.15215 0.19281,-0.1928 0.0575,-0.0288 0.13531,0.0288 0.19279,0 0.16258,-0.0813 0.22301,-0.30431 0.3856,-0.3856 0.0575,-0.0288 0.14736,0.0454 0.1928,0 0.0454,-0.0455 -0.0455,-0.14736 0,-0.1928 0.39892,-0.39892 -0.0156,0.60958 0.3856,-0.19281 0.0132,-0.0263 0.0132,-1.13046 0,-1.15679 -0.0407,-0.0813 -0.15215,-0.11151 -0.1928,-0.19281 -0.0288,-0.0575 0.0455,-0.14735 0,-0.1928 -0.0454,-0.0454 -0.13532,0.0288 -0.1928,0 -0.80239,-0.40119 0.20612,0.0133 -0.1928,-0.3856 -0.0454,-0.0454 -0.14736,0.0454 -0.19279,0 -0.0455,-0.0454 0.0454,-0.14735 0,-0.1928 -0.0909,-0.0909 -0.29473,0.0909 -0.3856,0 -0.25708,-0.25706 0.32133,-0.1928 -0.19281,-0.1928 -0.12854,0 -0.29471,-0.0909 -0.3856,0 -0.0455,0.0454 0.0575,0.16406 0,0.1928 -0.237,0.11851 -0.51413,0.12854 -0.77119,0.1928 z"
       id="path7147"
       inkscape:connector-curvature="0" />
    <path
       style="fill:none;fill-opacity:1;stroke:#0e0a08;stroke-width:1.54579282;stroke-miterlimit:4;stroke-dasharray:none;stroke-opacity:1"
       d="m 278.2875,119.86519 c -0.25707,0.1928 -0.51413,0.38559 -0.77119,0.5784 0,0.0643 0.0455,0.14735 0,0.1928 -0.0454,0.0454 -0.14736,-0.0455 -0.1928,0 -0.0455,0.0454 0.0288,0.13532 0,0.19279 -0.0407,0.0813 -0.15216,0.11152 -0.1928,0.1928 -0.0801,0.16012 0,0.58843 0,0.77121 0,0.12958 -0.0569,0.46461 0,0.5784 0.0407,0.0813 0.12853,0.12853 0.1928,0.1928 0.0643,0.0643 0.11151,0.15215 0.1928,0.1928 0.0464,0.0232 1.88159,0.0232 1.92799,0 0.23137,-0.11568 0.34704,-0.46272 0.57841,-0.5784 0.0575,-0.0288 0.14735,0.0454 0.1928,0 0.0455,-0.0455 -0.0288,-0.13532 0,-0.1928 0.0407,-0.0813 0.15215,-0.11151 0.1928,-0.1928 0.0569,-0.11378 0,-0.44881 0,-0.5784 0,-0.18878 0.0538,-1.24192 0,-1.3496 -0.21315,-0.4263 -0.11966,-0.0598 -0.3856,-0.19281 -0.0813,-0.0406 -0.11151,-0.15215 -0.19281,-0.1928 -0.0992,-0.0496 -0.66698,-0.0417 -0.77119,0 -0.26685,0.10674 -0.51413,0.25707 -0.77121,0.38561 z"
       id="path7149"
       inkscape:connector-curvature="0" />
    <path
       style="fill:#000000;fill-opacity:1;stroke:#0e0a08;stroke-width:1.54579282;stroke-miterlimit:4;stroke-dasharray:none;stroke-opacity:1"
       d="m 287.54192,147.82122 c 0.10028,0.13371 0.68707,0.82029 0.77119,1.1568 0.0312,0.12469 -0.0312,0.2609 0,0.3856 0.10207,0.40828 0.47634,0.74852 0.57841,1.1568 0.0312,0.1247 -0.0407,0.26366 0,0.3856 0.0288,0.0862 0.12853,0.12853 0.1928,0.1928 0.0643,0.12853 0.15795,0.24618 0.1928,0.3856 0.0312,0.1247 0,0.25707 0,0.3856 0.0643,0.12854 0.15795,0.24619 0.19279,0.3856 0.0624,0.24939 -0.0813,0.52733 0,0.7712 0.0288,0.0862 0.16406,0.10658 0.1928,0.1928 0.0964,0.2892 -0.0964,0.6748 0,0.964 0.0455,0.13634 0.15795,0.24619 0.1928,0.3856 0.0753,0.30117 0,1.3498 0,1.73521 0,0.0643 -0.0454,0.14735 0,0.19279 0.0455,0.0454 0.12855,0 0.19281,0 0.0643,0 0.13531,0.0288 0.1928,0 0.0813,-0.0406 0.11151,-0.15215 0.1928,-0.19279 0.0575,-0.0288 0.13532,0.0288 0.1928,0 0.0813,-0.0407 0.12853,-0.12854 0.1928,-0.1928 0.12853,-0.12854 0.25706,-0.25707 0.38559,-0.38561 0.19281,-0.1928 0.41482,-0.36026 0.57841,-0.5784 0.17245,-0.22992 0.22617,-0.53206 0.3856,-0.7712 0.23518,-0.35277 0.24582,-0.0192 0.38559,-0.5784 0.0312,-0.12469 -0.0312,-0.2609 0,-0.3856 0.0697,-0.27882 0.32924,-0.48937 0.38562,-0.7712 0.063,-0.31509 0,-0.64266 0,-0.964 0,-0.59893 -0.17751,-0.63653 -0.38562,-1.1568 -0.40794,-1.01986 -0.80864,-2.04035 -1.15679,-3.0848 -0.12854,-0.38561 -0.30589,-0.75824 -0.3856,-1.15681 -0.0252,-0.12603 0.0252,-0.25956 0,-0.38559 -0.0797,-0.39857 -0.31879,-0.75588 -0.3856,-1.15681 -0.0317,-0.19017 0.0378,-0.38934 0,-0.5784 -0.0282,-0.14091 -0.16462,-0.24468 -0.1928,-0.3856 -0.0378,-0.18905 0.0378,-0.38934 0,-0.5784 -0.0318,-0.15932 -0.65834,-1.3731 -0.77121,-1.5424 -0.0504,-0.0756 -0.14238,-0.11718 -0.1928,-0.1928 -0.0797,-0.11957 -0.10656,-0.27064 -0.19279,-0.3856 -0.10907,-0.14542 -0.27653,-0.24018 -0.3856,-0.3856 -0.0862,-0.11497 -0.11309,-0.26603 -0.1928,-0.3856 -0.17683,-0.26524 -0.29744,-0.19829 -0.57841,-0.3856 -0.26523,-0.17683 -0.19829,-0.29744 -0.38559,-0.5784 -0.19332,-0.28998 -0.61528,-0.26654 -0.77121,-0.5784 -0.13296,-0.26595 0.23349,-0.17246 -0.1928,-0.38561 -0.0575,-0.0288 -0.14735,0.0455 -0.1928,0 -0.0454,-0.0454 0.0455,-0.14735 0,-0.1928 -0.0454,-0.0454 -0.14736,0.0455 -0.1928,0 -0.0454,-0.0454 0.0455,-0.14735 0,-0.19279 -0.0454,-0.0454 -0.13532,0.0288 -0.1928,0 -0.16258,-0.0813 -0.22302,-0.30431 -0.38559,-0.38561 -0.0575,-0.0288 -0.13532,0.0288 -0.1928,0 -0.0813,-0.0406 -0.11152,-0.15215 -0.19281,-0.19279 -0.0575,-0.0288 -0.14735,0.0454 -0.1928,0 -0.25706,-0.25707 0.32133,-0.1928 -0.1928,-0.1928"
       id="path7151"
       inkscape:connector-curvature="0" />
    <path
       style="fill:none;fill-opacity:1;stroke:#0e0a08;stroke-width:1.54579282;stroke-miterlimit:4;stroke-dasharray:none;stroke-opacity:1"
       d="m 272.6963,170.57164 c 0.0532,-0.0638 1.84585,0.0821 1.92801,0 0.0454,-0.0454 -0.0454,-0.14736 0,-0.1928 0.0909,-0.0909 0.25706,0 0.38559,0 0.64266,0 1.28534,0 1.928,0"
       id="path7153"
       inkscape:connector-curvature="0" />
    <path
       style="fill:none;fill-opacity:1;stroke:#0e0a08;stroke-width:1.54579282;stroke-miterlimit:4;stroke-dasharray:none;stroke-opacity:1"
       d="m 289.27712,167.48684 c 0.12853,-0.32134 0.25706,-0.64267 0.38559,-0.96401 0,-0.12853 -0.0312,-0.2609 0,-0.38559 0.0349,-0.13942 0.14736,-0.24927 0.1928,-0.38561 0.061,-0.1829 -0.061,-0.39549 0,-0.5784 0.0288,-0.0862 0.15216,-0.1115 0.19281,-0.19279 0.099,-0.19796 -0.0597,-2.01497 0,-2.31361 0.0282,-0.14091 0.15794,-0.24618 0.1928,-0.3856 0.0468,-0.18704 -0.061,-0.39549 0,-0.5784 0.0454,-0.13633 0.14736,-0.24927 0.1928,-0.3856 0.0643,-0.19284 0,-0.91187 0,-1.1568 0,-0.39217 -0.0788,-1.22728 0,-1.5424 0.0348,-0.13942 0.14736,-0.24927 0.1928,-0.3856 0.073,-0.21904 0,-0.53695 0,-0.7712 0,-0.0768 0,-1.38023 0,-0.7712"
       id="path7155"
       inkscape:connector-curvature="0" />
    <path
       style="fill:none;fill-opacity:1;stroke:#0e0a08;stroke-width:1.54579282;stroke-miterlimit:4;stroke-dasharray:none;stroke-opacity:1"
       d="m 260.16429,136.2532 c 0.32133,-0.12853 0.64266,-0.25706 0.96399,-0.3856 0.12854,0 0.26091,0.0312 0.38562,0 0.13941,-0.0348 0.26602,-0.11309 0.38559,-0.1928 0.0756,-0.0504 0.10657,-0.16406 0.1928,-0.1928 0.12193,-0.0406 0.26366,0.0407 0.38559,0 0.17245,-0.0575 0.22303,-0.3043 0.38562,-0.3856 0.0575,-0.0288 0.12853,0 0.19279,0 0.12854,-0.0643 0.26602,-0.11309 0.3856,-0.1928 0.0756,-0.0504 0.1115,-0.15215 0.1928,-0.1928 0.0575,-0.0288 0.13532,0.0288 0.1928,0 0.80238,-0.40119 -0.20611,0.0133 0.1928,-0.3856 0.0454,-0.0454 0.13532,0.0288 0.19279,0 0.12855,-0.0643 0.51415,-0.44986 0.57841,-0.5784 0.0288,-0.0575 -0.0288,-0.13532 0,-0.1928 0.0407,-0.0813 0.15216,-0.11151 0.1928,-0.1928 0.0288,-0.0575 -0.0454,-0.14736 0,-0.1928 0.0455,-0.0454 0.14736,0.0454 0.1928,0 0.0454,-0.0454 -0.0288,-0.13532 0,-0.1928 0.0406,-0.0813 0.15216,-0.11151 0.1928,-0.1928 0.0288,-0.0575 -0.0288,-0.13532 0,-0.1928 0.0407,-0.0813 0.15215,-0.11151 0.1928,-0.1928 0.0288,-0.0575 -0.0288,-0.13532 0,-0.1928 0.0407,-0.0813 0.15216,-0.11151 0.19281,-0.1928 0.0288,-0.0575 -0.0288,-0.13532 0,-0.1928 0.0407,-0.0813 0.15214,-0.11151 0.1928,-0.1928 0.0288,-0.0575 -0.0288,-0.13532 0,-0.1928 0.0406,-0.0813 0.15214,-0.11151 0.19279,-0.1928 0.11347,-0.22693 -0.0945,-1.06601 0,-1.3496 0.0454,-0.13633 0.14736,-0.24927 0.1928,-0.38561 0.0466,-0.13989 0.0466,-1.0169 0,-1.1568 -0.17698,-0.53095 -0.1928,-0.26898 -0.1928,-0.7712 0,-1.02826 0,-2.05653 0,-3.0848 0,-0.1952 -0.0518,-1.2459 0,-1.3496 0.0407,-0.0813 0.16406,-0.10658 0.1928,-0.1928 0.061,-0.18291 -0.0862,-0.40595 0,-0.5784 0.0407,-0.0813 0.16406,-0.10658 0.1928,-0.1928 0.0407,-0.12194 0,-0.25707 0,-0.3856 0.0643,-0.12854 0.14736,-0.24927 0.1928,-0.3856 0.0203,-0.061 0,-0.12854 0,-0.1928 0,-0.12854 -0.0407,-0.26366 0,-0.38561 0.0288,-0.0862 0.15216,-0.11151 0.1928,-0.19279 0.075,-0.14996 0,-0.94492 0,-1.15681 0,-0.89973 0,-1.79946 0,-2.6992 0,-0.0708 -0.008,-0.76344 0,-0.7712 0.0455,-0.0454 0.14736,0.0455 0.1928,0 0.0454,-0.0454 -0.0288,-0.13532 0,-0.1928 0.63944,-0.63944 -0.0909,0.18177 0.19281,-0.3856 0.0813,-0.16258 0.28477,-0.23436 0.3856,-0.3856 0.0797,-0.11957 0.11308,-0.26603 0.19279,-0.3856 0.1418,-0.21269 0.46452,-0.35063 0.5784,-0.5784 0.0287,-0.0575 -0.0288,-0.13532 0,-0.1928 0.0407,-0.0813 0.15216,-0.11151 0.19281,-0.1928 0.0288,-0.0575 -0.0454,-0.14736 0,-0.1928 0.0455,-0.0455 0.13531,0.0287 0.1928,0 0.16258,-0.0813 0.22301,-0.30431 0.3856,-0.3856 0.0575,-0.0287 0.13532,0.0287 0.19279,0 0.16259,-0.0813 0.22303,-0.30431 0.3856,-0.3856 0.0575,-0.0287 0.13532,0.0287 0.19281,0 0.23136,-0.11568 0.34703,-0.46272 0.5784,-0.5784 0.0575,-0.0288 0.13532,0.0287 0.19279,0 0.0813,-0.0406 0.11151,-0.15216 0.19281,-0.1928 0.0575,-0.0287 0.12853,0 0.19279,0 0.12854,-0.0643 0.26604,-0.11309 0.38562,-0.1928 0.0756,-0.0504 0.1115,-0.15216 0.19279,-0.1928 0.20565,-0.10283 0.56554,0.10282 0.77119,0 0.0813,-0.0406 0.10659,-0.16406 0.19281,-0.1928 0.21272,-0.0709 0.89058,0 1.1568,0 0.77121,0 1.5424,0 2.3136,0 0.21827,0 2.21652,-0.0485 2.3136,0 0.0813,0.0406 0.11152,0.15215 0.19281,0.1928 0.15423,0.0771 0.42415,-0.0771 0.5784,0 0.0813,0.0406 0.1115,0.15215 0.19279,0.1928 0.0575,0.0287 0.13533,-0.0288 0.1928,0 0.0813,0.0406 0.11152,0.15215 0.1928,0.1928 0.11497,0.0575 0.27064,-0.0575 0.38561,0 0.63943,0.63943 -0.18178,-0.0909 0.3856,0.1928 0.16258,0.0813 0.22302,0.3043 0.3856,0.3856 0.0575,0.0287 0.13532,-0.0287 0.19279,0 0.23137,0.11568 0.34704,0.46272 0.57841,0.5784 0.0575,0.0287 0.13532,-0.0287 0.1928,0 0.12853,0.0643 0.51413,0.44986 0.57839,0.5784 0.0288,0.0575 -0.0454,0.14735 0,0.1928 0.0909,0.0909 0.27065,-0.0575 0.38562,0 0.0813,0.0406 0.1115,0.15215 0.19279,0.1928 0.0575,0.0287 0.13533,-0.0287 0.19281,0 0.0813,0.0406 0.12852,0.12853 0.19279,0.1928 0.0643,0.0643 0.15216,0.11151 0.1928,0.1928 0.0288,0.0575 -0.0454,0.14736 0,0.1928 0.0454,0.0454 0.14736,-0.0455 0.1928,0 0.0909,0.0909 -0.0575,0.27064 0,0.3856 0.0406,0.0813 0.15216,0.11151 0.1928,0.1928 0.0575,0.11496 -0.0575,0.27064 0,0.3856 0.0407,0.0813 0.15215,0.11151 0.19281,0.1928 0.0288,0.0575 -0.0203,0.13183 0,0.1928 0.0454,0.13633 0.14734,0.24927 0.19279,0.3856 0.07,0.21009 0,1.42158 0,1.7352 0,0.18278 0.0801,0.61109 0,0.7712 -0.0407,0.0813 -0.15215,0.11151 -0.19279,0.1928 -0.0288,0.0575 0.0288,0.13532 0,0.1928 -0.0407,0.0813 -0.15216,0.11151 -0.19281,0.1928 -0.0771,0.15425 0.0771,0.42417 0,0.57841 -0.0407,0.0813 -0.15215,0.11151 -0.1928,0.19279 -0.0771,0.15424 0.0771,0.42416 0,0.5784 -0.0407,0.0813 -0.15215,0.11152 -0.1928,0.1928 -0.11898,0.23796 0.11897,1.11165 0,1.34961 -0.0407,0.0813 -0.16406,0.10657 -0.1928,0.1928 -0.0612,0.1835 0,0.7699 0,0.964 0,0.70693 0,1.41387 0,2.1208 0,0.1928 0.061,0.39549 0,0.5784 -0.0288,0.0862 -0.17075,0.10463 -0.19279,0.1928 -0.39678,1.58712 0.29758,-0.22634 0,0.964 -0.25029,1.00113 -0.19281,-0.20582 -0.19281,0.7712 0,0.24619 0.0654,1.79727 0,1.92801 -0.0406,0.0813 -0.15215,0.11151 -0.19279,0.1928 -0.0658,0.13165 0,0.5899 0,0.7712 0,0.5784 0,1.1568 0,1.7352 0,0.19521 -0.0519,1.2459 0,1.3496 0.0407,0.0813 0.15214,0.11151 0.19279,0.1928 0.0288,0.0575 -0.0288,0.13532 0,0.1928 0.0407,0.0813 0.15215,0.11151 0.19281,0.1928 0.0288,0.0575 -0.0288,0.13532 0,0.1928 0.0407,0.0813 0.15215,0.11151 0.19279,0.1928 0.0288,0.0575 -0.0454,0.14736 0,0.19281 0.0455,0.0454 0.14736,-0.0454 0.1928,0 0.0454,0.0454 -0.0288,0.13531 0,0.19279 0.0813,0.16259 0.30432,0.22302 0.3856,0.3856 0.0288,0.0575 -0.0288,0.13532 0,0.1928 0.0407,0.0813 0.15215,0.11151 0.19281,0.1928 0.0288,0.0575 -0.0455,0.14736 0,0.1928 0.0454,0.0454 0.14734,-0.0454 0.19279,0 0.0455,0.0454 -0.0288,0.13532 0,0.19281 0.0407,0.0813 0.15215,0.1115 0.19281,0.19279 0.22433,0.44868 -0.55912,-0.0867 0.38559,0.38561"
       id="path7157"
       inkscape:connector-curvature="0" />
    <path
       style="fill:#000000;fill-opacity:1;stroke:#0e0a08;stroke-width:1.54579282;stroke-miterlimit:4;stroke-dasharray:none;stroke-opacity:1"
       d="m 261.40658,153.68164 c 0,0.49988 0,0.99976 0,1.49964 0,0.0909 -0.0178,0.18353 0,0.27265 0.0282,0.14092 0.10815,0.26808 0.13633,0.40899 0.0743,0.37136 -0.0474,0.8479 0,1.22698 0.0232,0.18592 0.11308,0.3594 0.13632,0.54532 0.0451,0.36074 -0.0514,0.73075 0,1.09064 0.0203,0.14227 0.11601,0.26673 0.13634,0.40899 0.045,0.31491 0,0.63621 0,0.95432 0,0.77253 0,1.54507 0,2.31761 0,0.28063 -0.0574,1.2701 0,1.49964 0.0246,0.0986 0.11168,0.17408 0.13633,0.27266 0.0331,0.13226 -0.061,0.28705 0,0.40899 0.0288,0.0575 0.10759,0.0788 0.13633,0.13633 0.037,0.0739 -0.0373,0.50802 0,0.54532 0.007,0.007 0.7402,0 0.81798,0"
       id="path7165"
       inkscape:connector-curvature="0" />
    <path
       style="fill:#000000;fill-opacity:1;stroke:#0e0a08;stroke-width:1.54579282;stroke-miterlimit:4;stroke-dasharray:none;stroke-opacity:1"
       d="m 261.40658,153.68164 c -0.84472,3.0973 -0.35456,2.0724 -0.95432,3.27193 -0.0455,0.0909 -0.1164,0.17302 -0.13633,0.27266 -0.0446,0.2228 0.0551,0.46122 0,0.68165 -0.0246,0.0986 -0.1164,0.17302 -0.13633,0.27266 -0.0612,0.30587 0.0612,0.64845 0,0.95431 -0.0282,0.14092 -0.10815,0.26808 -0.13633,0.40899 -0.0178,0.0891 0.0178,0.18355 0,0.27267 -0.0564,0.28182 -0.2163,0.53615 -0.27266,0.81798 -0.0356,0.17824 0.0441,0.36897 0,0.54532 -0.0246,0.0986 -0.0986,0.17831 -0.13633,0.27266 -0.31884,0.0709 -0.0832,0.38582 -0.13633,0.54532 -0.0643,0.1928 -0.22336,0.34816 -0.27266,0.54532 -0.0441,0.17635 0.0575,0.37288 0,0.54532 -0.0203,0.061 -0.116,0.0754 -0.13633,0.13633 -0.0575,0.17245 0.0575,0.37288 0,0.54533 -0.0203,0.061 -0.10759,0.0788 -0.13633,0.13633 -0.0215,0.043 -0.0295,0.51583 0,0.54532 0.0322,0.0322 0.0909,0 0.13633,0"
       id="path7167"
       inkscape:connector-curvature="0" />
    <path
       style="fill:#000000;fill-opacity:1;stroke:#0e0a08;stroke-width:1.54579282;stroke-miterlimit:4;stroke-dasharray:none;stroke-opacity:1"
       d="m 258.62189,157.84683 c 2.93288,-1.64461 1.76581,-1.55329 1.9667,-0.34794 0.16507,0.99043 0.13633,-0.0479 0.13633,0.68165 0,0.95431 0,1.90863 0,2.86294 0,0.36355 0.0514,0.73075 0,1.09064 -0.0204,0.14226 -0.116,0.26673 -0.13633,0.40899 -0.045,0.31491 0.0523,0.64054 0,0.95431 -0.0237,0.14175 -0.10815,0.26808 -0.13633,0.409 -0.0446,0.2228 0.0446,0.45884 0,0.68165 -0.0199,0.0996 -0.11168,0.17408 -0.13633,0.27266 -0.022,0.0882 0.0221,0.18449 0,0.27266 -0.17697,0.7079 -0.13633,-0.14554 -0.13633,0.54532 0,0.31972 0.0322,-0.0643 -0.13633,0.27266 -0.0407,0.0813 0.0458,0.35117 0,0.27266 -0.33809,-0.57957 -0.63621,-1.18153 -0.95431,-1.77229"
       id="path7169"
       inkscape:connector-curvature="0" />
    <path
       style="fill:#000000;fill-opacity:1;stroke:#0e0a08;stroke-width:1.54579282;stroke-miterlimit:4;stroke-dasharray:none;stroke-opacity:1"
       d="m 260.16429,136.2532 c 0.41409,0.44715 0.71921,1.02872 1.24229,1.34146 0.14038,0.0839 1.06269,-0.66301 1.09064,-0.68165 2.54652,-1.69769 -0.852,0.6177 1.22697,-0.68165 0.19268,-0.12043 0.36355,-0.27266 0.54532,-0.409 0.18177,-0.13632 0.37281,-0.26112 0.54532,-0.40899 0.29277,-0.25094 0.52176,-0.57112 0.81799,-0.81798 0.35774,-0.29811 0.41724,-0.19276 0.68165,-0.54532 0.12193,-0.16258 0.15993,-0.37622 0.27266,-0.54532 0.0713,-0.10695 0.21518,-0.15769 0.27266,-0.27266 0.0203,-0.0406 -0.0203,-0.0957 0,-0.13633 0.16846,-0.33692 0.13633,0.047 0.13633,-0.27266"
       id="path7171"
       inkscape:connector-curvature="0" />
    <path
       style="fill:#000000;fill-opacity:1;stroke:#0e0a08;stroke-width:1.54579282;stroke-miterlimit:4;stroke-dasharray:none;stroke-opacity:1"
       d="m 258.67997,141.13925 c 0.18177,-0.18177 0.37803,-0.35014 0.54532,-0.54532 0.10664,-0.1244 0.16777,-0.28312 0.27266,-0.40899 0.32409,-0.3889 0.73209,-0.7321 1.09064,-1.09065 0.40164,-0.40165 0.79081,-0.8635 1.22698,-1.22697 0.12587,-0.10489 0.28311,-0.16777 0.40899,-0.27266 0.38232,-0.31861 0.73864,-0.73863 1.09064,-1.09064 0.35545,-0.35546 0.77686,-0.69843 1.09064,-1.09065 0.10236,-0.12794 0.15681,-0.29312 0.27266,-0.40899 0.0719,-0.0718 0.19137,-0.0754 0.27266,-0.13633 0.47705,-0.35777 0.1104,-0.1472 0.40899,-0.54532 0.0771,-0.10283 0.19554,-0.16983 0.27267,-0.27266 0.061,-0.0813 0.08,-0.18811 0.13632,-0.27266 0.20975,-0.31461 0.60824,-0.50337 0.81799,-0.81798 0.0564,-0.0846 0.08,-0.18811 0.13633,-0.27266 0.0357,-0.0535 0.10759,-0.0788 0.13633,-0.13633 0.0203,-0.0407 -0.0203,-0.17698 0,-0.13633 0.0643,0.12853 0.0909,0.27266 0.13633,0.40899"
       id="path7173"
       inkscape:connector-curvature="0" />
    <path
       style="fill:#000000;fill-opacity:1;stroke:#0e0a08;stroke-width:1.54579282;stroke-miterlimit:4;stroke-dasharray:none;stroke-opacity:1"
       d="m 266.99612,132.8231 c 0.13633,-0.7271 0.28737,-1.45159 0.40899,-2.18128 0.0374,-0.22413 0,-0.45444 0,-0.68166 0,-0.45443 0,-0.90887 0,-1.3633 0,-0.22722 -0.0551,-0.46122 0,-0.68165 0.0246,-0.0986 0.1164,-0.17302 0.13633,-0.27267 0.0446,-0.2228 -0.0719,-0.46609 0,-0.68164 0.0203,-0.061 0.12075,-0.074 0.13633,-0.13634 0.0331,-0.13226 -0.0267,-0.2753 0,-0.40899 0.0199,-0.0996 0.1042,-0.17625 0.13633,-0.27266 0.0431,-0.12933 -0.0331,-0.27673 0,-0.40899 0.0246,-0.0986 0.1164,-0.17302 0.13633,-0.27266 0.0267,-0.13368 0,-0.27266 0,-0.40899 0,-0.36355 0,-0.72709 0,-1.09064 0,-0.81799 0,-1.63597 0,-2.45395 0,-0.25418 -0.0524,-1.01736 0,-1.22698 0.0246,-0.0986 0.11168,-0.17407 0.13633,-0.27265 0.0441,-0.17635 -0.0441,-0.36898 0,-0.54533 0.0246,-0.0986 0.11169,-0.17408 0.13633,-0.27266 0.0441,-0.17634 -0.0357,-0.36707 0,-0.54532 0.0282,-0.14091 0.10815,-0.26807 0.13633,-0.40899 0.0658,-0.32886 -0.0801,-0.77027 0,-1.09064 0.0246,-0.0986 0.1042,-0.17626 0.13633,-0.27266 0.0144,-0.0431 0,-0.0909 0,-0.13633 0,-0.0454 0.0379,-0.11126 0,-0.13633 -0.44377,-0.2935 -0.92711,-0.52227 -1.39066,-0.78341"
       id="path7175"
       inkscape:connector-curvature="0" />
    <path
       style="fill:#000000;fill-opacity:1;stroke:#0e0a08;stroke-width:1.54579282;stroke-miterlimit:4;stroke-dasharray:none;stroke-opacity:1"
       d="m 267.10509,115.81638 c 0.64532,0.21569 1.27533,0.48425 1.93598,0.64708 0.20128,0.0496 0.11313,-0.22626 0.13634,-0.27266 0.0575,-0.11497 0.21518,-0.1577 0.27265,-0.27266 0.0204,-0.0406 -0.0203,-0.0957 0,-0.13633 0.12001,-0.24001 0.18604,-0.0806 0.40899,-0.13633 0.19717,-0.0493 0.36356,-0.18178 0.54533,-0.27267 0.0909,-0.0454 0.18811,-0.08 0.27266,-0.13633 0.0535,-0.0357 0.0754,-0.116 0.13633,-0.13633 0.0862,-0.0287 0.18448,0.0221 0.27266,0 0.24674,0.0822 0.25354,-0.22084 0.40899,-0.27266 0.0862,-0.0287 0.18448,0.0221 0.27266,0 0.0986,-0.0246 0.18177,-0.0909 0.27266,-0.13633 0.0909,-0.0454 0.18811,-0.08 0.27266,-0.13633 0.0535,-0.0356 0.0754,-0.116 0.13633,-0.13633 0.0862,-0.0287 0.18643,0.0287 0.27266,0 0.061,-0.0203 0.0909,-0.0909 0.13634,-0.13633 0.0909,-0.0454 0.17407,-0.11168 0.27265,-0.13633 0.0882,-0.022 0.18644,0.0287 0.27266,0 0.061,-0.0203 0.0829,-0.10068 0.13633,-0.13633 0.35926,-0.23951 0.37011,-0.0487 0.54533,-0.13633 0.0575,-0.0287 0.0788,-0.10759 0.13633,-0.13633 0.10603,-0.053 0.66815,0 0.81798,0 0.69085,0 -0.16259,0.0406 0.54532,-0.13633 0.0882,-0.022 0.18448,0.022 0.27266,0 0.19716,-0.0493 0.35663,-0.19718 0.54532,-0.27266 0.13343,-0.0534 0.28576,-0.0624 0.40899,-0.13633 0.78839,-0.47303 -0.19321,-0.11358 0.54533,-0.40899 0.13342,-0.0534 0.27556,-0.083 0.40899,-0.13633 0.18869,-0.0755 0.34826,-0.22292 0.54532,-0.27266 0.62967,-0.15897 1.26931,-0.27545 1.90397,-0.41317"
       id="path7177"
       inkscape:connector-curvature="0" />
    <path
       style="fill:none;fill-opacity:1;stroke:#0e0a08;stroke-width:1.54579282;stroke-miterlimit:4;stroke-dasharray:none;stroke-opacity:1"
       d="m 272.85833,114.28217 c -0.0455,-0.40899 -0.13634,-0.81546 -0.13634,-1.22697 0,-0.0454 0.0909,0 0.13634,0 0.0909,0 0.18176,0 0.27265,0 0.18833,0 0.50166,-0.06 0.68166,0 0.0964,0.0321 0.17407,0.11168 0.27266,0.13633 0.19593,0.049 0.60542,0 0.81798,0 0.22722,0 0.46122,-0.0551 0.68165,0 0.0986,0.0246 0.17301,0.1164 0.27266,0.13633 0.22281,0.0446 0.46122,-0.0551 0.68165,0 0.0986,0.0246 0.17408,0.11168 0.27266,0.13633 0.0882,0.022 0.18354,-0.0178 0.27266,0 0.14091,0.0282 0.26809,0.10815 0.40899,0.13633 0.0891,0.0178 0.18448,-0.022 0.27267,0 0.19716,0.0493 0.35662,0.19718 0.54532,0.27266 1.37234,0.54894 -0.28946,-0.10645 0.68165,0.13633 0.0986,0.0246 0.18176,0.0909 0.27266,0.13633 0.0909,0.0454 0.18811,0.08 0.27266,0.13633 0.0535,0.0357 0.0754,0.11601 0.13633,0.13633 0.0862,0.0287 0.18448,-0.022 0.27266,0 0.28713,0.0718 0.53677,0.31526 0.81798,0.40899 0.0431,0.0144 0.0932,-0.0144 0.13633,0 0.1928,0.0643 0.35252,0.2084 0.54532,0.27266 0.0431,0.0144 0.0932,-0.0144 0.13633,0 0.0964,0.0321 0.17627,0.1042 0.27266,0.13633 0.0431,0.0144 0.0957,-0.0203 0.13634,0 0.28109,0.14056 -0.01,0.13633 0.40899,0.13633"
       id="path7179"
       inkscape:connector-curvature="0" />
    <path
       style="fill:none;fill-opacity:1;stroke:#0e0a08;stroke-width:1.54579282;stroke-miterlimit:4;stroke-dasharray:none;stroke-opacity:1"
       d="m 271.15389,111.96038 c 0.11372,0.36494 0.15421,0.7614 0.34113,1.09482 0.0146,0.0261 0.69482,0 0.95431,0 1.22698,0 2.45395,0 3.68092,0"
       id="path7181"
       inkscape:connector-curvature="0" />
    <path
       style="fill:none;fill-opacity:1;stroke:#0e0a08;stroke-width:1.54579282;stroke-miterlimit:4;stroke-dasharray:none;stroke-opacity:1"
       d="m 282.40145,115.37281 c 0.0909,0.0909 0.21518,0.1577 0.27265,0.27267 0.0407,0.0813 0,0.18177 0,0.27266 0,0.0909 0.0221,0.18448 0,0.27266 -0.0246,0.0986 -0.11639,0.17302 -0.13632,0.27266 -0.0267,0.13368 0,0.27266 0,0.40899 0,0.36355 0,0.72709 0,1.09064 0,2.18129 0,4.36257 0,6.54386"
       id="path7183"
       inkscape:connector-curvature="0" />
    <path
       style="fill:none;fill-opacity:1;stroke:#0e0a08;stroke-width:1.54579282;stroke-miterlimit:4;stroke-dasharray:none;stroke-opacity:1"
       d="m 282.53778,124.50695 c -0.0455,-0.27266 -0.0489,-0.55575 -0.13633,-0.81798 -0.0431,-0.12934 -0.0224,0.27451 0,0.40899 0.0236,0.14175 0.1522,0.26616 0.13633,0.40899 -0.0317,0.28565 -0.20296,0.53915 -0.27267,0.81798 -0.022,0.0882 0.0178,0.18354 0,0.27266 -0.17943,0.89721 -0.13633,-0.0752 -0.13633,0.81798 0,0.18178 0.0357,0.36708 0,0.54533 -0.0282,0.14091 -0.10814,0.26807 -0.13632,0.40899 -0.0524,0.26217 0.0524,0.5558 0,0.81798 -0.0282,0.14091 -0.10816,0.26808 -0.13634,0.40899 -0.0874,0.43695 0.0874,0.92635 0,1.3633 -0.0282,0.14092 -0.10815,0.26808 -0.13633,0.40899 -0.0356,0.17825 0,0.36355 0,0.54532 0,0.31811 0,0.63621 0,0.95432"
       inkscape:connector-curvature="0"
       id="path7185" />
    <path
       style="fill:none;fill-opacity:1;stroke:#0e0a08;stroke-width:1.54579282;stroke-miterlimit:4;stroke-dasharray:none;stroke-opacity:1"
       d="m 281.71979,131.86879 c -0.13633,0.63621 -0.33297,1.26243 -0.40899,1.90862 -0.0141,0.11973 0.47528,1.18819 0.54532,1.36331 0.0534,0.13342 0.083,0.27556 0.13634,0.40899 0.0377,0.0943 0.11167,0.17407 0.13632,0.27265 0.0221,0.0882 -0.022,0.1845 0,0.27267 0.0493,0.19716 0.22337,0.34816 0.27267,0.54532 0.022,0.0882 -0.0221,0.18449 0,0.27266 0.0246,0.0986 0.0909,0.18177 0.13633,0.27266 0.0454,0.0909 0.08,0.18811 0.13632,0.27266 0.0357,0.0535 0.11601,0.0754 0.13634,0.13633 0.0287,0.0862 -0.0288,0.18644 0,0.27266 0.0607,0.18216 0.53745,1.14702 0.68165,1.36331 0.45215,0.45215 -0.0643,-0.12854 0.13633,0.27265 0.16846,0.33693 0.13633,-0.047 0.13633,0.27267 0.22721,0 0.4661,-0.0719 0.68165,0 0.0964,0.0322 0.0986,0.17831 0.13634,0.27266 0.0534,0.13343 0.0829,0.27556 0.13632,0.40899 0.10785,0.26962 0.33873,0.53693 0.409,0.81798 0.022,0.0882 -0.0288,0.18644 0,0.27266 0.10777,0.32331 0.13632,-0.0864 0.13632,0.40899"
       inkscape:connector-curvature="0"
       id="path7187" />
    <path
       style="fill:none;fill-opacity:1;stroke:#0e0a08;stroke-width:1.54579282;stroke-miterlimit:4;stroke-dasharray:none;stroke-opacity:1"
       d="m 272.3107,165.94444 c 0.40975,0.59307 0.76428,1.22839 1.22927,1.77922 0.088,0.10418 0.27267,0 0.40899,0 0.21256,0 0.62205,0.049 0.81799,0 0.0986,-0.0246 0.17626,-0.10419 0.27266,-0.13633 0.18963,-0.0632 0.80101,0.0767 0.95431,0 0.0575,-0.0288 0.0789,-0.10758 0.13633,-0.13632 0.043,-0.0215 0.51583,-0.0295 0.54532,0 0.0212,0.0212 0.0212,0.52407 0,0.54532 -0.0322,0.0322 -0.0957,-0.0203 -0.13633,0 -0.16106,0.0805 -0.25859,0.30872 -0.40899,0.40899 -0.23498,0.15665 -0.20608,0.13633 -0.40899,0.13633 -0.0454,0 -0.16141,-0.0379 -0.13633,0 0.41992,0.6341 0.90197,1.22479 1.35297,1.83719"
       inkscape:connector-curvature="0"
       id="path7189" />
    <path
       style="fill:none;fill-opacity:1;stroke:#0e0a08;stroke-width:1.54579282;stroke-miterlimit:4;stroke-dasharray:none;stroke-opacity:1"
       d="m 272.3107,165.94444 c 0.50064,0.27497 0.97537,0.60359 1.50194,0.82491 0.0593,0.0249 0.0754,-0.116 0.13632,-0.13633 0.0401,-0.0133 1.04768,-0.0215 1.09065,0 0.0575,0.0288 0.0789,0.10759 0.13633,0.13633 0.14542,0.0727 0.39989,-0.0727 0.54532,0 0.2811,0.14056 -0.01,0.13633 0.40899,0.13633"
       inkscape:connector-curvature="0"
       id="path7191" />
    <path
       style="fill:none;fill-opacity:1;stroke:#0e0a08;stroke-width:1.54579282;stroke-miterlimit:4;stroke-dasharray:none;stroke-opacity:1"
       d="m 272.6963,170.57164 c 1.01541,-1.53831 0.56071,-1.06537 1.11634,-1.621 0.0454,-0.0454 0.0788,-0.10759 0.13632,-0.13633 0.0407,-0.0203 0.0957,0.0203 0.13634,0 0.11496,-0.0575 0.15769,-0.21518 0.27266,-0.27266 0.0407,-0.0203 0.10419,0.0322 0.13633,0 0.0322,-0.0322 -0.0322,-0.1042 0,-0.13633 0.0322,-0.0322 0.1042,0.0322 0.13633,0 0.28206,-0.28207 -0.43105,0.011 0.13633,-0.27267 0.0406,-0.0203 0.10419,0.0322 0.13633,0 0.0322,-0.0322 -0.0203,-0.0957 0,-0.13632 0.10906,-0.21813 0.43625,-0.3272 0.54532,-0.54532 0.0203,-0.0407 -0.0355,-0.10795 0,-0.13634 0.20691,-0.16553 0.45443,-0.27266 0.68165,-0.40899"
       inkscape:connector-curvature="0"
       id="path7193" />
    <path
       style="fill:none;fill-opacity:1;stroke:#0e0a08;stroke-width:1.54579282;stroke-miterlimit:4;stroke-dasharray:none;stroke-opacity:1"
       d="m 259.08896,164.45174 c -0.27266,0.45443 -0.62774,0.86866 -0.81798,1.3633 -0.0516,0.13413 0.10815,0.26808 0.13633,0.40899 0.0178,0.0891 -0.0221,0.18449 0,0.27266 0.0246,0.0986 0.11639,0.17302 0.13633,0.27266 0.0446,0.22281 -0.0551,0.46122 0,0.68166 0.0246,0.0986 0.1042,0.17625 0.13633,0.27265 0.0431,0.12934 -0.0331,0.27674 0,0.40899 0.0246,0.0986 0.11168,0.17409 0.13633,0.27267 0.022,0.0882 -0.0288,0.18643 0,0.27266 0.0203,0.061 0.116,0.0754 0.13633,0.13633 0.0288,0.0862 -0.022,0.18448 0,0.27266 -0.0822,0.24675 0.22084,0.25355 0.27266,0.40899 0,0.62061 -0.0643,0.008 0.13633,0.40899 0.0407,0.0813 -0.0643,0.2084 0,0.27266 0.0322,0.0322 0.0954,-0.0197 0.13633,0 0.10369,0.05 0.18715,0.13415 0.28073,0.20123"
       inkscape:connector-curvature="0"
       id="path7195" />
    <path
       style="fill:none;fill-opacity:1;stroke:#0e0a08;stroke-width:1.54579282;stroke-miterlimit:4;stroke-dasharray:none;stroke-opacity:1"
       d="m 258.95263,169.08697 c 0.59076,-0.54532 1.18153,-1.09064 1.77229,-1.63596 0,-0.0454 -0.0322,-0.1042 0,-0.13634 0.0322,-0.0322 0.1042,0.0322 0.13633,0 0.0643,-0.0643 -0.0406,-0.19137 0,-0.27265 0.0805,-0.16106 0.30874,-0.25861 0.40899,-0.409 0.0564,-0.0845 0.0645,-0.2008 0.13634,-0.27266 0.0718,-0.0718 0.20081,-0.0645 0.27265,-0.13633 0.0718,-0.0719 0.0645,-0.20081 0.13634,-0.27266 0.0718,-0.0718 0.20081,-0.0645 0.27266,-0.13633 0.0718,-0.0719 0.08,-0.18811 0.13633,-0.27266 0.0357,-0.0535 0.10759,-0.0789 0.13633,-0.13633 0.0204,-0.0406 -0.0322,-0.1042 0,-0.13633 0.0322,-0.0322 0.10419,0.0322 0.13633,0 0.0643,-0.0643 -0.0862,-0.3014 0,-0.27266 0.15544,0.0518 0.27266,0.18177 0.40899,0.27266"
       inkscape:connector-curvature="0"
       id="path7197" />
    <path
       style="fill:none;fill-opacity:1;stroke:#0e0a08;stroke-width:1.54579282;stroke-miterlimit:4;stroke-dasharray:none;stroke-opacity:1"
       d="m 288.67264,162.54311 c 0.26778,-0.39681 0.0534,-0.81233 0.13633,-1.22697 0.0199,-0.0996 0.11168,-0.17408 0.13633,-0.27266 0.0498,-0.19925 -0.0766,-0.9374 0,-1.09065 0.0288,-0.0575 0.116,-0.0754 0.13633,-0.13632 0.0288,-0.0862 -0.0221,-0.18449 0,-0.27267 0.0246,-0.0986 0.11169,-0.17407 0.13633,-0.27265 0.022,-0.0882 -0.0178,-0.18355 0,-0.27267 0.0282,-0.14091 0.11271,-0.26724 0.13633,-0.40899 0.0224,-0.13447 -0.0267,-0.27531 0,-0.40899 0.1973,-0.98649 0.13633,0.62307 0.13633,-0.68165 0,-0.30525 -0.002,-0.81787 0,-0.81798 0.37636,-0.0422 0.7574,0.006 1.1361,0.009"
       inkscape:connector-curvature="0"
       id="path7199" />
    <path
       style="fill:none;fill-opacity:1;stroke:#0e0a08;stroke-width:3;stroke-miterlimit:4;stroke-dasharray:none;stroke-opacity:1"
       d="m 196.32083,105.44168 c -0.42423,2.23038 -1.84137,0.12694 -2.64583,0.52917 -0.44624,0.22311 -0.6121,0.83522 -1.05834,1.05833 -0.15776,0.0789 -0.3714,-0.0789 -0.52916,0 -0.22312,0.11156 -0.30605,0.41761 -0.52917,0.52917 -0.15777,0.0789 -0.3714,-0.0789 -0.52917,0 -0.22311,0.11156 -0.30605,0.4176 -0.52916,0.52916 -0.15777,0.0789 -0.3714,-0.0789 -0.52917,0 -0.44623,0.22312 -0.58503,0.90057 -1.05833,1.05834 -0.33468,0.11156 -0.72366,-0.11156 -1.05834,0 -0.4733,0.15777 -0.6121,0.83522 -1.05833,1.05833 -0.15777,0.0789 -0.3714,-0.0789 -0.52917,0 -0.22311,0.11156 -0.35277,0.35278 -0.52916,0.52917 -0.17639,0.17639 -0.41761,0.30605 -0.52917,0.52916 -0.0295,0.0591 -0.0295,2.58677 0,2.64584 0.11156,0.22311 0.41761,0.30605 0.52917,0.52916 0.0789,0.15777 0,0.35278 0,0.52917 0.17639,0.35278 0.31038,0.73016 0.52916,1.05833 0.38917,0.58376 1.27494,0.96236 1.5875,1.5875 0.0789,0.15777 -0.0789,0.3714 0,0.52917 0.22312,0.44623 0.83522,0.6121 1.05834,1.05833 0.0789,0.15777 -0.0789,0.3714 0,0.52917 1.10113,2.20226 -0.0365,-0.5657 1.05833,0.52917 1.09487,1.09486 -1.6731,-0.0428 0.52917,1.05833 0.15776,0.0789 0.40444,-0.12472 0.52916,0 0.12473,0.12472 -0.0789,0.3714 0,0.52917 0.58501,1.17001 0.32843,0.16421 1.05834,0.52916 0.22311,0.11156 0.30605,0.41761 0.52916,0.52917 0.33569,0.16784 2.16925,0 2.64584,0 0.50166,0 1.6772,0.21973 2.11666,0 0.44624,-0.22311 0.58504,-0.90056 1.05834,-1.05833 0.33467,-0.11156 0.72366,0.11156 1.05833,0 0.4733,-0.15777 0.6121,-0.83522 1.05833,-1.05834 0.15777,-0.0789 0.3714,0.0789 0.52917,0 0.44623,-0.22311 0.6121,-0.83521 1.05833,-1.05833 0.15777,-0.0789 0.3714,0.0789 0.52917,0 0.44623,-0.22311 0.6121,-0.83522 1.05833,-1.05833 0.15777,-0.0789 0.3714,0.0789 0.52917,0 0.18956,-0.0948 3.08022,-2.98544 3.175,-3.175 0.0789,-0.15777 -0.0558,-0.36183 0,-0.52917 0.12473,-0.37418 0.40444,-0.68416 0.52917,-1.05833 0.0558,-0.16734 -0.0558,-0.36183 0,-0.52917 0.12472,-0.37418 0.40444,-0.68416 0.52916,-1.05833 0.33139,-0.99415 -0.32865,-2.71821 0,-3.70417 0.0789,-0.23665 0.45029,-0.29251 0.52917,-0.52917 0.20565,-0.61693 0,-2.89685 0,-3.70416 0,-0.54003 0.15221,-2.71837 0,-3.175 -0.0789,-0.23665 -0.41761,-0.30605 -0.52917,-0.52917 -0.23665,-0.4733 0.16734,-1.085487 0,-1.587499 -0.15776,-0.4733 -0.78159,-0.643221 -1.05833,-1.058334 -0.21878,-0.328176 -0.31038,-0.730157 -0.52917,-1.058333 -0.27674,-0.415113 -0.78159,-0.643221 -1.05833,-1.058333 -0.65128,-0.976924 -0.93622,-2.198077 -1.5875,-3.175 -0.13837,-0.207555 -0.39079,-0.321612 -0.52917,-0.529167 -1.91838,-3.836765 0.55779,0.836687 -1.05833,-1.5875 -0.21878,-0.328176 -0.29251,-0.742799 -0.52917,-1.058333 -0.9049,-1.206535 -2.48612,-1.833809 -3.70416,-2.645834 -0.20756,-0.138371 -0.32161,-0.390794 -0.52917,-0.529166 -0.58011,-0.386739 -3.62755,-1.965222 -4.23333,-2.116667 -0.34225,-0.08556 -0.71241,0.06919 -1.05834,0 -0.54696,-0.109392 -1.04636,-0.393882 -1.5875,-0.529167 -0.86832,-0.217082 -2.33187,0 -3.175,0 -0.825,0 -2.41447,-0.190129 -3.175,0 -2.097,0.524251 -0.0196,0.534083 -2.11666,1.058334 -0.34225,0.08556 -0.7428,-0.157766 -1.05834,0 -0.44623,0.223115 -0.65921,0.758991 -1.05833,1.058333 -1.34864,1.011484 -3.82393,1.667341 -5.29167,2.645833 -1.21568,0.810461 0.22691,0.30226 -1.05833,1.5875 -0.27889,0.278895 -0.77944,0.250272 -1.05833,0.529167 -0.0199,0.01987 -1.51532,2.537553 -1.5875,2.645833 -0.13837,0.207555 -0.3908,0.321612 -0.52917,0.529167 -0.21878,0.328176 -0.32624,0.720124 -0.52917,1.058333 -0.83018,1.383636 -1.84083,2.578338 -2.11666,4.233334 -0.087,0.521967 0.10378,1.068609 0,1.587499 -0.0773,0.38676 -0.35278,0.70556 -0.52917,1.05833 -0.17639,0.52917 -0.41977,1.04054 -0.52917,1.5875 -0.11262,0.56311 -0.12692,6.24456 0,6.87917 0.0774,0.38676 0.43351,0.67569 0.52917,1.05833 0.0856,0.34225 -0.0692,0.71241 0,1.05834 0.21879,1.09391 0.70556,2.11666 1.05833,3.175 0.70436,2.11307 1.47668,4.21669 2.11667,6.35 0.73728,2.4576 1.4124,4.9434 2.11667,7.40833 0.1998,0.69929 0.24268,1.4482 0.52916,2.11667 0.25053,0.58455 0.85722,0.98415 1.05834,1.5875 0.16734,0.50201 0,1.05833 0,1.5875 0.17639,0.52916 0.32201,1.0696 0.52916,1.5875 0.48385,1.2096 0.84208,1.40346 1.5875,2.64583 0.40586,0.67642 0.58504,1.4856 1.05834,2.11667 0.29934,0.39912 0.75899,0.65921 1.05833,1.05833 0.23665,0.31553 0.29252,0.7428 0.52917,1.05833 0.74083,0.98778 1.905,1.65806 2.64583,2.64584 0.23665,0.31553 0.25027,0.77944 0.52917,1.05833 0.27889,0.27889 0.73016,0.31038 1.05833,0.52917 0.79686,0.53124 1.43601,1.43601 2.11667,2.11666 0.503,0.50301 1.53683,1.82675 2.11666,2.11667 0.15777,0.0789 0.3714,-0.0789 0.52917,0 1.75502,1.75503 -0.4989,-0.24945 1.05833,0.52917 0.75519,0.37759 0.64129,1.05833 1.5875,1.05833"
       inkscape:connector-curvature="0"
       id="path7247" />
    <path
       style="fill:none;fill-opacity:1;stroke:#0e0a08;stroke-width:3;stroke-miterlimit:4;stroke-dasharray:none;stroke-opacity:1"
       d="m 39.6875,129.78335 c -2.325492,2.80276 -2.116667,2.80424 -2.116667,5.82083 0,0.35278 -0.157766,0.7428 0,1.05833 0.17639,0.35278 1.234723,1.41111 1.5875,1.5875 0.315534,0.15777 0.742799,-0.15776 1.058333,0 0.523955,0.26198 0.614278,0.85358 1.5875,0.52917 0.374177,-0.12472 0.684157,-0.40444 1.058333,-0.52917 0.167339,-0.0558 0.371401,0.0789 0.529167,0 0.223115,-0.11156 0.306052,-0.4176 0.529167,-0.52916 0.157766,-0.0789 0.361828,0.0558 0.529166,0 0.762844,-0.25428 1.656512,-0.89727 2.116667,-1.5875 0.218784,-0.32818 0.310383,-0.73016 0.529167,-1.05834 0.562044,-0.84306 1.306957,-0.9945 1.5875,-2.11666 0.171122,-0.68449 -0.138372,-1.42482 0,-2.11667 0.257048,-1.28524 0.771824,-1.43254 0.529166,-2.64583 -0.109392,-0.54696 -0.419774,-1.04054 -0.529166,-1.5875 -0.06919,-0.34593 0.08556,-0.71609 0,-1.05834 -0.09566,-0.38264 -0.433507,-0.67569 -0.529167,-1.05833 -0.08556,-0.34224 0.08556,-0.71609 0,-1.05833 -0.09566,-0.38264 -0.433506,-0.6757 -0.529167,-1.05834 -0.08556,-0.34224 0.111559,-0.72366 0,-1.05833 -0.07888,-0.23665 -0.390794,-0.32161 -0.529166,-0.52917 -1.165842,-0.26648 -0.279715,-1.08859 -0.529167,-1.5875 -0.111559,-0.22311 -0.450284,-0.29251 -0.529167,-0.52916 -0.302887,-0.90866 0.463624,-1.09111 -0.529166,-1.5875 -0.157766,-0.0789 -0.371401,0.0789 -0.529167,0 -0.446233,-0.22312 -0.6121,-0.83522 -1.058333,-1.05834 -0.157766,-0.0789 -0.371401,0.0789 -0.529167,0 -0.223115,-0.11156 -0.306051,-0.4176 -0.529167,-0.52916 -0.307144,-0.15358 -3.169345,0 -3.704166,0 -0.774322,0 -4.169026,-0.19783 -4.7625,0 -0.236651,0.0789 -0.292515,0.45028 -0.529167,0.52916 -0.334674,0.11156 -0.723659,-0.11156 -1.058333,0 -0.236651,0.0789 -0.352777,0.35278 -0.529167,0.52917 -0.352777,0.17639 -0.675693,0.43351 -1.058333,0.52917 -1.564714,0.39118 -0.61762,-0.59512 -2.116667,0.52916 -0.704466,0.52835 -2.64665,2.47054 -3.175,3.175 -0.23665,0.31554 -0.310383,0.73016 -0.529166,1.05834 -0.138371,0.20755 -0.390796,0.32161 -0.529167,0.52916 -0.218783,0.32818 -0.352778,0.70556 -0.529167,1.05834 -0.176389,0.35277 -0.433506,0.67569 -0.529166,1.05833 -0.171123,0.68449 0.13837,1.42481 0,2.11667 -0.109392,0.54696 -0.419775,1.04054 -0.529167,1.5875 -0.06918,0.34592 0.06919,0.7124 0,1.05833 -0.109392,0.54696 -0.419775,1.04054 -0.529167,1.5875 -0.172963,0.86482 0.172964,1.78102 0,2.64583 -0.07735,0.38676 -0.451815,0.67158 -0.529166,1.05834 -0.172964,0.86481 0.213903,1.79022 0,2.64583 -0.09566,0.38264 -0.433507,0.67569 -0.529167,1.05833 -0.219259,0.87704 0,4.17723 0,5.29167 0,0.69544 -0.199037,2.57789 0,3.175 0.07888,0.23665 0.450283,0.29252 0.529167,0.52917 0.111558,0.33467 -0.111558,0.72366 0,1.05833 0.07888,0.23665 0.390796,0.32161 0.529166,0.52917 0.437567,0.65635 0.620767,1.46031 1.058334,2.11666 0.13837,0.20756 0.390796,0.32161 0.529166,0.52917 0.29503,0.44254 0.930405,1.89763 1.5875,2.11667 0.502012,0.16733 1.1142,-0.23665 1.5875,0 0.223116,0.11156 0.292516,0.45028 0.529167,0.52916 0.502012,0.16734 1.1142,-0.23665 1.5875,0 0.223115,0.11156 0.292515,0.45029 0.529167,0.52917 0.334674,0.11156 0.705556,0 1.058333,0 0.17639,0 0.404442,0.12472 0.529167,0 0.124724,-0.12472 -0.124725,-0.40444 0,-0.52917 0.249451,-0.24945 0.742799,0.15777 1.058333,0 0.223115,-0.11156 0.306051,-0.4176 0.529167,-0.52916 0.315534,-0.15777 0.808881,0.24945 1.058333,0 0.124724,-0.12473 -0.124725,-0.40445 0,-0.52917 0.124724,-0.12472 0.404442,0.12472 0.529167,0 0.124724,-0.12472 -0.124725,-0.40444 0,-0.52917 0.124724,-0.12472 0.3714,0.0789 0.529166,0 0.223115,-0.11156 0.352777,-0.35277 0.529167,-0.52916 0.17639,-0.17639 0.417608,-0.30605 0.529167,-0.52917 0.07888,-0.15777 -0.124725,-0.40444 0,-0.52917 0.124724,-0.12472 0.404442,0.12473 0.529166,0 0.124725,-0.12472 -0.07888,-0.3714 0,-0.52916 0.111559,-0.22312 0.417608,-0.30605 0.529167,-0.52917 0.07888,-0.15777 -0.124725,-0.40444 0,-0.52917 0.124724,-0.12472 0.371401,0.0789 0.529167,0 0.635,-0.3175 0.9525,-1.27 1.5875,-1.5875 0.157765,-0.0789 0.3714,0.0789 0.529166,0 0.910773,-0.45538 2.264228,-2.71961 3.175,-3.175 0.157766,-0.0789 0.371401,0.0789 0.529167,0 0.846666,-0.42333 0.211666,-0.635 1.058333,-1.05833 0.157766,-0.0789 0.371401,0.0789 0.529167,0 0.446233,-0.22312 0.64322,-0.78159 1.058333,-1.05833 0.328176,-0.21879 0.730157,-0.31039 1.058333,-0.52917 0.207555,-0.13837 0.292516,-0.45028 0.529167,-0.52917 0.334674,-0.11156 0.71609,0.0856 1.058333,0 1.114468,-0.27861 2.083464,-1.22365 3.175,-1.5875 0.167339,-0.0558 0.361829,0.0558 0.529167,0 0.748355,-0.24945 1.351383,-0.86701 2.116667,-1.05833 0.342243,-0.0856 0.716089,0.0856 1.058333,0 0.38264,-0.0957 0.692126,-0.38268 1.058333,-0.52917 0.517896,-0.20715 1.069605,-0.32201 1.5875,-0.52916 0.366207,-0.14649 0.671576,-0.45182 1.058334,-0.52917 0.51889,-0.10378 1.068609,0.10378 1.5875,0 0.386757,-0.0773 0.671576,-0.45182 1.058333,-0.52917 0.51889,-0.10377 1.06861,0.10378 1.5875,0 0.386757,-0.0773 0.671576,-0.45181 1.058333,-0.52916 0.864817,-0.17297 1.790221,0.2139 2.645833,0 0.382641,-0.0957 0.671576,-0.45182 1.058334,-0.52917 1.771163,-0.35423 4.578837,0.35423 6.35,0 0.386757,-0.0774 0.671576,-0.45182 1.058333,-0.52917 1.037781,-0.20755 2.13722,0.20756 3.175,0 0.386757,-0.0773 0.671576,-0.45181 1.058333,-0.52916 0.864817,-0.17297 1.76389,0 2.645834,0 1.940276,0 3.880556,0 5.820833,0 0.774322,0 4.169026,-0.19783 4.7625,0 0.236651,0.0789 0.306051,0.4176 0.529166,0.52916 0.157766,0.0789 0.371401,-0.0789 0.529167,0 0.223115,0.11156 0.306052,0.41761 0.529167,0.52917 0.315534,0.15777 0.742799,-0.15777 1.058333,0 2.202265,1.10113 -0.565698,-0.0365 0.529167,1.05833 0.124724,0.12473 0.371401,-0.0789 0.529166,0 2.202265,1.10114 -0.565697,-0.0365 0.529167,1.05834 0.124725,0.12472 0.371401,-0.0789 0.529167,0 0.846666,0.42333 1.27,1.69333 2.116671,2.11666 0.15776,0.0789 0.3714,-0.0789 0.52916,0 0.44624,0.22312 0.6121,0.83522 1.05834,1.05834 0.15776,0.0789 0.40444,-0.12473 0.52916,0 0.12473,0.12472 -0.12472,0.40444 0,0.52916 0.12473,0.12473 0.40444,-0.12472 0.52917,0 0.14007,0.14008 0,1.36961 0,1.5875 0,1.62448 0.0164,0.49639 -0.52917,1.5875 -0.0789,0.15777 0.12473,0.40445 0,0.52917 -0.12472,0.12472 -0.40444,-0.12472 -0.52916,0 -0.12473,0.12472 0.12472,0.40444 0,0.52917 -0.12473,0.12472 -0.40445,-0.12473 -0.52917,0 -0.12473,0.12472 0.12472,0.40444 0,0.52916 -0.12473,0.12473 -0.40444,-0.12472 -0.52917,0 -0.12472,0.12473 0.15777,0.45029 0,0.52917 -0.71029,0.35515 -1.884927,-0.25363 -2.645831,0 -0.374177,0.12472 -0.684157,0.40444 -1.058334,0.52917 -0.214778,0.0716 -1.388284,0.0996 -1.5875,0 -0.223115,-0.11156 -0.306051,-0.41761 -0.529166,-0.52917 -0.157766,-0.0789 -0.371401,0.0789 -0.529167,0 -0.223115,-0.11156 -0.306051,-0.41761 -0.529167,-0.52917 -0.423333,-0.21166 -1.164166,0.21167 -1.587499,0 -0.223116,-0.11156 -0.306052,-0.4176 -0.529167,-0.52916 -0.315534,-0.15777 -0.808882,0.24945 -1.058333,0 -0.124725,-0.12473 0.124724,-0.40445 0,-0.52917 -0.124725,-0.12472 -0.352777,0 -0.529167,0 -0.17639,0 -0.404442,-0.12472 -0.529167,0 -0.124724,0.12472 0.124725,0.40444 0,0.52917 -0.124724,0.12472 -0.404442,-0.12473 -0.529166,0 -0.124725,0.12472 0.124724,0.40444 0,0.52916 -0.124725,0.12473 -0.404443,-0.12472 -0.529167,0 -0.249452,0.24946 0.249452,0.80888 0,1.05834 -0.124725,0.12472 -0.404442,-0.12473 -0.529167,0 -0.124724,0.12472 0,0.35277 0,0.52916 -0.17639,0 -0.404442,-0.12472 -0.529166,0 -0.114464,0.11447 -0.08352,1.94964 0,2.11667 0.111558,0.22312 0.417607,0.30605 0.529166,0.52917 0.07888,0.15776 -0.07888,0.3714 0,0.52916 0.111559,0.22312 0.417608,0.30605 0.529167,0.52917 0.109498,0.219 0.109498,5.07267 0,5.29167 -0.111559,0.22311 -0.306052,0.4176 -0.529167,0.52916 -0.940742,0.47037 -0.293981,-0.29398 -0.529166,-0.52916 -0.124725,-0.12473 -0.404443,0.12472 -0.529167,0 -0.22941,-0.22941 0.222938,-2.72913 0,-3.175 -0.111559,-0.22312 -0.417608,-0.30605 -0.529167,-0.52917 -0.191653,-0.3833 0,-4.1579 0,-4.7625 0,-0.17639 -0.07888,-0.3714 0,-0.52917 0.111559,-0.22311 0.417608,-0.30605 0.529167,-0.52916 0.07888,-0.15777 0,-0.35278 0,-0.52917 0,-0.17639 0.124724,-0.40444 0,-0.52917 -0.124725,-0.12472 -0.529167,0.17639 -0.529167,0 0,-0.17639 0.705557,0 0.529167,0 -0.352777,0 -0.705557,0 -1.058333,0 -0.547434,0 -0.731388,-0.12472 -1.058334,0.52917 -0.219731,0.43946 0,1.615 0,2.11667 0,1.5875 0,3.175 0,4.7625 0,0.35277 0.249452,0.80888 0,1.05833 -0.124724,0.12472 -0.404442,-0.12472 -0.529166,0 -0.124725,0.12472 0.176389,0.52917 0,0.52917 -0.17639,0 0,-0.35278 0,-0.52917 0,-0.35278 0,-0.70556 0,-1.05833 0,-0.61663 0.164446,-3.90444 0,-4.23334 -0.111559,-0.22311 -0.306052,-0.4176 -0.529167,-0.52916 -0.545513,-0.27276 -2.1034,0.27121 -2.645833,0 -0.446233,-0.22312 -0.643221,-0.7816 -1.058334,-1.05834 -0.370104,-0.24673 -5.266438,0.2772 -5.820833,0 -0.223115,-0.11156 -0.292515,-0.45028 -0.529167,-0.52916 -0.317219,-0.10574 -5.091641,-0.05 -5.291666,0 -1.331508,0.33287 -2.879619,1.66542 -4.233333,2.11666 -0.167339,0.0558 -0.361829,-0.0558 -0.529167,0 -0.748356,0.24946 -1.351383,0.86702 -2.116667,1.05834 -0.342244,0.0856 -0.723659,-0.11156 -1.058333,0 -0.236651,0.0789 -0.306052,0.4176 -0.529167,0.52916 -0.157766,0.0789 -0.361828,-0.0558 -0.529166,0 -0.374177,0.12473 -0.684157,0.40445 -1.058334,0.52917 -0.334674,0.11156 -0.742799,-0.15777 -1.058333,0 -2.421787,1.21089 2.245474,-0.21932 -1.5875,1.05833 -0.299283,0.0998 -1.374966,-0.21253 -1.5875,0 -0.124725,0.12473 0.07888,0.3714 0,0.52917 -0.111559,0.22312 -0.417608,0.30605 -0.529167,0.52917 -0.05427,0.10854 -0.07462,1.51287 0,1.5875 0.124725,0.12472 0.404442,-0.12473 0.529167,0 0.264583,0.26458 -0.264583,1.32291 0,1.5875 0.124725,0.12472 0.404442,-0.12473 0.529167,0 0.264583,0.26458 -0.264584,1.32291 0,1.5875 0.124724,0.12472 0.404442,-0.12473 0.529166,0 0.08247,0.0825 0.08247,2.0342 0,2.11666 -0.124724,0.12473 -0.352777,0 -0.529166,0 -0.17639,0 -0.371401,0.0789 -0.529167,0 -0.223115,-0.11156 -0.306051,-0.4176 -0.529167,-0.52916 -0.157765,-0.0789 -0.404442,0.12472 -0.529166,0 -0.244616,-0.24462 0.159747,-1.26801 0,-1.5875 -0.111559,-0.22312 -0.417608,-0.30605 -0.529167,-0.52917 -0.143534,-0.28707 0.144791,-1.97188 0,-2.11667 -0.124725,-0.12472 -0.529167,0.17639 -0.529167,0 0,-0.17639 0.705557,0 0.529167,0 -0.352777,0 -0.705556,0 -1.058333,0 -0.547434,0 -0.731388,-0.12472 -1.058334,0.52917 -0.167843,0.33568 0,2.16925 0,2.64583 0,0.17639 -0.124724,0.40445 0,0.52917 0.124725,0.12472 0.404442,-0.12472 0.529167,0 0.02397,0.024 0,2.39633 0,2.64583 0,0.35278 0.249452,0.80888 0,1.05834 -0.759828,0.75983 -0.48846,-0.97693 -0.529167,-1.05834 -0.111559,-0.22311 -0.417607,-0.30605 -0.529166,-0.52916 -0.275418,-0.55084 0.275418,-2.095 0,-2.64584 -0.111559,-0.22311 -0.417608,-0.30605 -0.529167,-0.52916 -0.157766,-0.31554 0.157766,-0.7428 0,-1.05834 -0.111559,-0.22311 -0.417608,-0.30605 -0.529167,-0.52916 -0.07888,-0.15777 0.124725,-0.40445 0,-0.52917 -0.278894,-0.27889 -0.730157,-0.31038 -1.058333,-0.52917 -0.207555,-0.13837 -0.292515,-0.45028 -0.529167,-0.52916 -0.541554,-0.18052 -5.587804,0 -6.35,0 -1.082222,0 -4.26445,-0.20545 -5.291666,0 -0.386757,0.0774 -0.671576,0.45181 -1.058333,0.52916 -0.518891,0.10378 -1.06861,-0.10377 -1.5875,0 -0.773518,0.15471 -1.351384,0.86702 -2.116667,1.05834 -0.342244,0.0856 -0.705556,0 -1.058333,0 -0.352777,0.17639 -0.684157,0.40444 -1.058334,0.52916 -0.334674,0.11156 -0.742799,-0.15776 -1.058333,0 -0.223115,0.11156 -0.306051,0.41761 -0.529167,0.52917 -0.267242,0.13362 -3.772025,0 -4.233333,0 -0.501667,0 -1.677203,0.21973 -2.116667,0 -1.070229,-0.53511 -0.16969,-1.22802 -0.529166,-1.5875 -0.278896,-0.27889 -0.779438,-0.25027 -1.058334,-0.52917 -0.124725,-0.12472 0.07888,-0.3714 0,-0.52916 -1.755024,-1.75503 0.249452,0.4989 -0.529166,-1.05834 -0.111558,-0.22311 -0.417609,-0.30605 -0.529167,-0.52916 -0.32447,-0.64894 0.312298,-4.88394 0,-5.82084 -0.124726,-0.37417 -0.404441,-0.68415 -0.529167,-1.05833 -0.111558,-0.33467 0.157768,-0.7428 0,-1.05833 -0.111558,-0.22312 -0.417608,-0.30605 -0.529166,-0.52917 -0.07888,-0.15777 0.05578,-0.36183 0,-0.52917 -0.124726,-0.37417 -0.404441,-0.68415 -0.529167,-1.05833 -0.111558,-0.33467 0.111558,-0.72366 0,-1.05833 -0.124726,-0.37418 -0.404441,-0.68416 -0.529167,-1.05834 -0.05578,-0.16734 0.07888,-0.37139 0,-0.52916 -0.111558,-0.22312 -0.417608,-0.30605 -0.529166,-0.52917 -0.127897,-0.25579 0,-3.34819 0,-3.70417 0,-0.75786 -0.219663,-5.91067 0,-6.35 0.111558,-0.22311 0.417608,-0.30605 0.529166,-0.52916 0.275418,-0.55084 -0.275418,-2.095 0,-2.64584 0.111559,-0.22311 0.450284,-0.29251 0.529167,-0.52916 0.328018,-0.98406 -0.328018,-3.24928 0,-4.23334 0.07888,-0.23665 0.417609,-0.30605 0.529167,-0.52916 0.211666,-0.42334 -0.211667,-1.16417 0,-1.5875 0.111558,-0.22312 0.417608,-0.30605 0.529166,-0.52917 0.07888,-0.15777 -0.07888,-0.3714 0,-0.52917 0.176389,-0.35277 1.234723,-1.41111 1.5875,-1.5875 0.157767,-0.0789 0.404441,0.12473 0.529167,0 0.278896,-0.27889 0.310383,-0.73015 0.529167,-1.05833 0.322896,-0.48434 2.161488,-2.32294 2.645833,-2.64583 0.352778,-0.17639 0.705556,-0.35278 1.058333,-0.52917 0.176389,0 0.3714,0.0789 0.529167,0 0.472558,-0.23628 0.585775,-0.82205 1.058333,-1.05833 0.157767,-0.0789 0.352778,0 0.529167,0 0.352777,-0.17639 0.730157,-0.31039 1.058333,-0.52917 0.207555,-0.13837 0.292516,-0.45028 0.529167,-0.52917 0.334674,-0.11156 0.723659,0.11156 1.058333,0 0.236652,-0.0789 0.292516,-0.45028 0.529167,-0.52916 0.334674,-0.11156 0.716089,0.0856 1.058333,0 0.382641,-0.0957 0.675693,-0.43351 1.058334,-0.52917 0.513365,-0.12834 1.058333,0 1.5875,0 1.5875,0 3.175,0 4.7625,0 0.597953,0 3.219375,-0.1616 3.704166,0 0.236651,0.0789 0.292516,0.45028 0.529167,0.52917 0.669348,0.22311 1.447318,-0.22312 2.116666,0 0.236652,0.0789 0.292516,0.45028 0.529167,0.52916 0.502013,0.16734 1.085488,-0.16733 1.5875,0 0.374176,0.12473 0.684157,0.40445 1.058333,0.52917 0.167339,0.0558 0.371401,-0.0789 0.529167,0 0.223115,0.11156 0.306052,0.41761 0.529167,0.52917 0.315534,0.15777 0.742799,-0.15777 1.058333,0 0.223115,0.11156 0.306052,0.4176 0.529167,0.52916 0.315534,0.15777 0.742799,-0.15776 1.058333,0 0.223115,0.11156 0.306051,0.41761 0.529167,0.52917 0.157765,0.0789 0.404442,-0.12472 0.529166,0 0.124725,0.12472 -0.124724,0.40444 0,0.52917 0.124725,0.12472 0.371401,-0.0789 0.529167,0 0.223115,0.11156 0.306051,0.4176 0.529167,0.52916 0.157765,0.0789 0.404442,-0.12472 0.529166,0 0.124725,0.12473 -0.07888,0.3714 0,0.52917 0.223116,0.44623 0.835218,0.6121 1.058334,1.05833 0.07888,0.15777 -0.07888,0.3714 0,0.52917 0.111559,0.22312 0.417607,0.30605 0.529166,0.52917 0.07888,0.15777 -0.07888,0.3714 0,0.52916 0.111559,0.22312 0.417608,0.30606 0.529167,0.52917 0.157766,0.31553 -0.157766,0.7428 0,1.05833 0.111559,0.22312 0.417608,0.30606 0.529167,0.52917 0.122115,0.24423 0.122115,1.87244 0,2.11667 -0.111559,0.22311 -0.417608,0.30605 -0.529167,0.52916 -0.159748,0.3195 0.244615,1.34289 0,1.5875 -0.124725,0.12473 -0.404442,-0.12472 -0.529167,0 -0.249452,0.24946 0.157766,0.7428 0,1.05834 -0.111559,0.22311 -0.417607,0.30605 -0.529166,0.52916 -0.07888,0.15777 0.07888,0.3714 0,0.52917 -0.111559,0.22312 -0.417608,0.30605 -0.529167,0.52917 -0.211667,0.42333 0.211667,1.16416 0,1.5875 -0.111559,0.22311 -0.417608,0.30605 -0.529167,0.52916 -0.157765,0.31554 0.249452,0.80889 0,1.05834 -0.124724,0.12472 -0.404442,-0.12473 -0.529166,0 -0.249452,0.24945 0.249451,0.80888 0,1.05833 -0.124725,0.12472 -0.404442,-0.12472 -0.529167,0 -0.249452,0.24945 0.249452,0.80888 0,1.05833 -0.124725,0.12473 -0.404442,-0.12472 -0.529167,0 -0.249451,0.24946 0.249452,0.80888 0,1.05834 -0.124724,0.12472 -0.404442,-0.12473 -0.529166,0 -0.124725,0.12472 0.07888,0.3714 0,0.52916 -1.755027,1.75503 0.249451,-0.4989 -0.529167,1.05834 -1.101132,2.20226 0.03653,-0.5657 -1.058333,0.52916 -0.124725,0.12473 0.07888,0.3714 0,0.52917 -0.111559,0.22312 -0.352777,0.35278 -0.529167,0.52917 -0.17639,0.17639 -0.306051,0.4176 -0.529167,0.52916 -0.157765,0.0789 -0.404442,-0.12472 -0.529166,0 -0.124725,0.12473 0.124724,0.40445 0,0.52917 -0.124725,0.12472 -0.404442,-0.12472 -0.529167,0 -0.124725,0.12472 0.124725,0.40444 0,0.52917 -0.124725,0.12472 -0.404442,-0.12473 -0.529167,0 -0.124724,0.12472 0.124725,0.40444 0,0.52916 -0.124724,0.12473 -0.371401,-0.0789 -0.529166,0 -0.223115,0.11156 -0.306052,0.41761 -0.529167,0.52917 -0.157766,0.0789 -0.371401,-0.0789 -0.529167,0 -0.223115,0.11156 -0.306051,0.41761 -0.529166,0.52917 -0.07227,0.0361 -3.102729,0.0361 -3.175,0 -0.223115,-0.11156 -0.306052,-0.41761 -0.529167,-0.52917 -0.157766,-0.0789 -0.404442,0.12472 -0.529167,0 -0.124724,-0.12472 0.124725,-0.40444 0,-0.52917 -0.249451,-0.24945 -0.742799,0.15777 -1.058333,0 -0.223115,-0.11156 -0.306051,-0.4176 -0.529166,-0.52916 -0.315535,-0.15777 -0.7428,0.15777 -1.058334,0 -0.223115,-0.11156 -0.306051,-0.41761 -0.529166,-0.52917 -0.157766,-0.0789 -0.404443,0.12472 -0.529167,0 -0.124725,-0.12472 0.124724,-0.40444 0,-0.52917 -0.124725,-0.12472 -0.404442,0.12473 -0.529167,0 -1.094864,-1.09486 1.673098,0.0428 -0.529166,-1.05833 -0.157766,-0.0789 -0.404443,0.12472 -0.529167,0 -0.140073,-0.14007 0,-1.36961 0,-1.5875 0,-0.64206 -0.185396,-2.08964 0,-2.64583 0.124724,-0.37418 0.404442,-0.68416 0.529167,-1.05834 0.111558,-0.33467 -0.249452,-0.80888 0,-1.05833 0.124724,-0.12472 0.404442,0.12472 0.529166,0 0.124725,-0.12472 -0.124724,-0.40444 0,-0.52917 0.354627,-0.35462 2.446475,0.95866 2.645834,1.05834 z"
       inkscape:connector-curvature="0"
       id="path7257" />
    <path
       style="fill:none;fill-opacity:1;stroke:#0e0a08;stroke-width:3;stroke-miterlimit:4;stroke-dasharray:none;stroke-opacity:1"
       d="m 90.090624,140.23439 c -0.644819,0.49921 -0.513117,-0.30333 -0.79375,-0.39688 -0.125503,-0.0418 -0.278551,0.0592 -0.396875,0 -0.05578,-0.0279 -0.07651,-0.1044 -0.132292,-0.13229 -0.06106,-0.0305 -0.468109,-0.0305 -0.529166,0 -0.05578,0.0279 -0.07651,0.1044 -0.132292,0.13229 -0.03944,0.0197 -0.08819,0 -0.132292,0 -0.0441,0.0441 -0.07651,0.10441 -0.132291,0.1323 -0.03944,0.0197 -0.101111,-0.0312 -0.132292,0 -0.03118,0.0312 0.01971,0.0928 0,0.13229 -0.02789,0.0558 -0.104402,0.0765 -0.132292,0.13229 -0.09487,0.18974 0.107405,0.45058 0.264584,0.52917 0.03944,0.0197 0.10111,-0.0312 0.132291,0 0.03118,0.0312 -0.03118,0.10111 0,0.13229 0.006,0.006 0.599083,0 0.661459,0"
       inkscape:connector-curvature="0"
       id="path7259" />
    <path
       style="fill:none;fill-opacity:1;stroke:#0e0a08;stroke-width:3;stroke-miterlimit:4;stroke-dasharray:none;stroke-opacity:1"
       d="m 404.67279,100.18273 c -0.89357,0.60115 -1.81123,1.15264 -2.61924,1.87089 -0.26368,0.23437 -0.48469,0.51398 -0.74837,0.74835 -2.82364,2.50991 1.44005,-1.53073 -2.24504,1.87089 -0.38884,0.35893 -0.74838,0.74836 -1.12255,1.12253 -0.81071,0.81072 -1.64986,1.59398 -2.43216,2.43216 -0.51236,0.54898 -0.98308,1.13595 -1.49669,1.68379 -1.75395,1.87089 -0.93546,0.80181 -2.80633,2.80633 -0.3923,0.42033 -0.73131,0.8883 -1.12255,1.30963 -0.42008,0.45239 -0.90527,0.84308 -1.30961,1.30962 -0.40844,0.47126 -0.71411,1.02543 -1.12252,1.49671 -0.40434,0.46653 -0.92033,0.83047 -1.30963,1.30962 -0.42537,0.52353 -0.73353,1.1327 -1.12253,1.68379 -0.35964,0.50949 -0.74837,0.99781 -1.12254,1.49671 -1.11832,1.49108 -2.31177,2.95439 -3.36759,4.49013 -0.66662,0.96962 -1.24725,1.99561 -1.8709,2.99342 -0.43399,0.69442 -1.72908,2.74634 -2.05795,3.3676 -0.22223,0.41974 -0.34888,0.88482 -0.56129,1.30962 -0.44969,0.89941 -1.04698,1.71983 -1.4967,2.61924 -0.2124,0.4248 -0.3361,0.89145 -0.56126,1.30962 -0.21322,0.39595 -0.53514,0.72658 -0.74837,1.12253 -0.22516,0.41817 -0.33607,0.89145 -0.56126,1.30962 -0.2132,0.39595 -0.50692,0.74314 -0.74835,1.12253 -0.89455,1.40573 -0.26284,0.48186 -1.12255,2.05798 -0.34824,0.63846 -0.76933,1.23514 -1.12252,1.87089 -0.13544,0.24379 -0.24945,0.4989 -0.37417,0.74835 -0.18709,0.31182 -0.38468,0.61757 -0.56126,0.93544 -0.27091,0.4876 -0.45273,1.02371 -0.74838,1.49671 -0.16525,0.26442 -0.396,0.48394 -0.56126,0.74836 -0.14779,0.2365 -0.23579,0.5062 -0.37417,0.74835 -0.11155,0.19523 -0.26263,0.36604 -0.37417,0.56127 -1.55724,2.72516 0.48821,-0.78932 -0.56126,1.30962 -0.29618,0.59236 -0.82106,0.9975 -0.93547,1.6838 -0.0307,0.18454 0.0367,0.37781 0,0.56126 -0.0547,0.27348 -0.28596,0.48377 -0.37417,0.74836 -0.0394,0.11832 0,0.24945 0,0.37418 0,0.0624 -0.0441,0.14299 0,0.18708 0.0441,0.0441 0.12793,-0.0197 0.18709,0 0.3784,0.12614 0.33073,0.2915 0.74837,0.18709 0.13528,-0.0338 0.23662,-0.16416 0.37418,-0.18709 0.43058,-0.0718 0.87307,0 1.3096,0 0.56126,0 1.12596,-0.062 1.68381,0 0.31605,0.0351 0.61876,0.1583 0.93544,0.18709 2.64096,0.24009 -0.26456,-0.27742 2.05798,0.18709 1.61872,0.32375 3.25281,0.57733 4.86431,0.93544 0.50199,0.11156 0.98761,0.30145 1.4967,0.37418 0.1852,0.0265 0.37674,-0.0308 0.56126,0 1.35919,0.22653 -0.0658,0.18709 0.93546,0.18709 0.31181,0 0.62362,0 0.93543,0 0.0624,0 0.14301,0.0441 0.18709,0 0.0441,-0.0441 -0.0441,-0.14299 0,-0.18709 0.0441,-0.0441 0.13131,0.0279 0.18708,0 0.15778,-0.0789 0.27634,-0.22741 0.37418,-0.37418 0.21939,-0.32906 0.22206,-0.55513 0.3742,-0.93544 0.0518,-0.12947 0.13528,-0.2447 0.18709,-0.37418 0.14647,-0.3662 0.19777,-0.76975 0.37417,-1.12253 0.20111,-0.40223 0.57121,-0.70919 0.74835,-1.12253 0.10128,-0.23634 0.0858,-0.51202 0.18708,-0.74836 0.0886,-0.20667 0.26263,-0.36603 0.37418,-0.56126 0.13837,-0.24215 0.22637,-0.51185 0.37417,-0.74836 0.66926,-1.07079 0.40772,-0.3861 0.93546,-1.30962 0.13835,-0.24215 0.21207,-0.52141 0.37418,-0.74835 0.15377,-0.2153 0.40748,-0.34597 0.56126,-0.56127 0.16211,-0.22694 0.21206,-0.5214 0.37417,-0.74835 0.1538,-0.2153 0.38907,-0.36038 0.56126,-0.56127 0.55475,-0.64721 0.94197,-1.41076 1.49672,-2.05797 0.17219,-0.20089 0.38907,-0.36038 0.56126,-0.56127 0.20294,-0.23675 0.35835,-0.51161 0.56126,-0.74835 0.17219,-0.20089 0.40749,-0.34597 0.56129,-0.56127 0.16208,-0.22695 0.2358,-0.50621 0.37417,-0.74835 0.2231,-0.39046 0.52523,-0.73208 0.74835,-1.12254 0.35939,-0.62893 0.65249,-1.30684 1.12252,-1.87088 0.26067,-0.3128 0.96597,-1.03468 1.30964,-1.30962 0.17557,-0.14047 0.38568,-0.23372 0.56126,-0.37418 0.27548,-0.22038 0.52797,-0.47288 0.74835,-0.74836 0.14046,-0.17558 0.19859,-0.4208 0.37417,-0.56126 0.15401,-0.1232 0.39216,-0.0856 0.56129,-0.18709 0.15123,-0.0908 0.23304,-0.26834 0.37417,-0.37418 0.11155,-0.0837 0.25461,-0.11534 0.37417,-0.18709 0.19281,-0.11568 0.36015,-0.27362 0.56126,-0.37417 0.1764,-0.0882 0.38489,-0.0989 0.56126,-0.18709 0.0883,-0.0442 0.72544,-0.52626 0.93547,-0.56127 0.24603,-0.041 0.50141,0.0353 0.74834,0 0.19524,-0.0279 0.37164,-0.13291 0.56126,-0.18709 0.24723,-0.0706 0.50112,-0.11645 0.74835,-0.18709 0.37926,-0.10835 0.7321,-0.31839 1.12255,-0.37417 0.25776,-0.0368 1.57623,-0.0491 1.87087,0 0.19455,0.0324 0.36676,0.15466 0.56128,0.18709 0.18455,0.0308 0.37606,-0.0265 0.56127,0 2.42956,0.60739 -0.59997,-0.0857 1.3096,0.18708 0.58489,0.0836 0.77656,0.22187 1.30964,0.37418 2.33947,0.58487 -0.56917,-0.16262 1.30961,0.37418 0.47469,0.13563 0.86106,0.18193 1.30963,0.37418 0.25633,0.10986 0.49199,0.26431 0.74835,0.37417 0.18126,0.0777 0.38489,0.0989 0.56126,0.18709 0.20111,0.10056 0.36605,0.26262 0.56126,0.37418 0.62862,0.35921 1.30186,0.48021 1.87089,0.93544 0.40199,0.32158 0.7583,0.75828 1.12255,1.12254 0.69004,0.69005 1.42648,1.35624 1.87087,2.24506 0.33449,0.66897 0.0397,0.45356 0.37417,1.12253 0.10057,0.20111 0.28562,0.3546 0.37418,0.56127 0.27334,0.63775 0.28794,1.42022 0.56129,2.05797 0.0885,0.20668 0.28559,0.3546 0.37417,0.56127 0.10128,0.23634 0.11644,0.50112 0.18709,0.74835 0.12435,0.43526 0.24982,0.87437 0.37417,1.30962 0.19145,0.67009 0.4744,1.36295 0.56126,2.05798 0.0542,0.43317 -0.0617,0.87747 0,1.30962 0.0364,0.25454 0.15073,0.49381 0.18709,0.74835 0.0994,0.69547 -0.11436,1.5589 0,2.24507 0.0324,0.19452 0.14843,0.36789 0.18708,0.56126 0.0371,0.18556 -0.0596,1.43706 0,1.49671 0.0441,0.0441 0.12473,0 0.18709,0 0.21455,0 0.55457,0.0485 0.74838,0 0.13528,-0.0338 0.23743,-0.15974 0.37417,-0.18708 1.89619,-0.37924 -0.81547,0.45891 1.12252,-0.18709 1.24645,-0.41548 -0.20328,0.002 1.30963,-0.18709 0.51028,-0.0638 0.98642,-0.31039 1.4967,-0.37418 0.55695,-0.0696 1.12255,0 1.68381,0 1.30961,0 2.61924,0 3.92885,0 0.38264,0 1.50773,0.0726 1.87089,0 0.13674,-0.0273 0.2389,-0.15327 0.37418,-0.18709 0.24201,-0.0605 0.50636,0.0605 0.74835,0 0.13528,-0.0338 0.2419,-0.14299 0.3742,-0.18709 0.0592,-0.0197 0.14298,0.0441 0.18708,0 0.0441,-0.0441 -0.0441,-0.14299 0,-0.18709 0.24945,-0.24945 0.17952,0.39688 0.37418,-0.18709 0.063,-0.18897 0,-1.04393 0,-1.30962 0,-0.24945 0.0353,-0.50141 0,-0.74835 -0.0558,-0.39045 -0.26583,-0.74329 -0.37418,-1.12253 -0.2359,-0.82562 -0.10504,-0.5919 -0.3742,-1.30962 -0.1179,-0.31445 -0.30829,-0.60613 -0.37417,-0.93544 -0.0611,-0.30577 0.031,-0.62518 0,-0.93545 -0.0317,-0.31641 -0.1302,-0.62258 -0.18709,-0.93544 -0.0547,-0.30062 -0.26752,-1.70249 -0.37417,-2.05798 -0.0965,-0.32167 -0.27768,-0.61377 -0.37418,-0.93544 -0.0914,-0.30458 -0.0957,-0.63087 -0.18708,-0.93544 -0.28737,-0.95789 -0.83061,-1.757 -1.30964,-2.61925 -0.59436,-1.06987 -0.1556,-0.51406 -0.93543,-1.68379 -0.17296,-0.25945 -0.396,-0.48394 -0.56126,-0.74836 -0.49594,-0.79351 -0.30483,-0.79674 -0.74835,-1.6838 -0.87651,-1.753 -0.29467,-0.10871 -0.93546,-1.87088 -0.15621,-0.42962 -0.50369,-1.6176 -0.74835,-2.05798 -0.30287,-0.54515 -0.74835,-0.99781 -1.12252,-1.49671 -1.8343,-2.44573 0.43241,0.60538 -0.93546,-1.30962 -0.36248,-0.50747 -0.792,-0.96787 -1.12252,-1.49671 -0.14782,-0.2365 -0.22638,-0.51185 -0.37418,-0.74835 -0.16525,-0.26442 -0.40983,-0.47578 -0.56126,-0.74836 -0.16311,-0.29357 -0.21108,-0.64187 -0.3742,-0.93544 -0.15142,-0.27258 -0.396,-0.48394 -0.56126,-0.74835 -0.14779,-0.23651 -0.23873,-0.50456 -0.37417,-0.74836 -0.17658,-0.31787 -0.38468,-0.61757 -0.56126,-0.93544 -0.15992,-0.28783 -0.85151,-1.75096 -0.93544,-1.87089 -0.20232,-0.28901 -0.53178,-0.46989 -0.74837,-0.74836 -0.22325,-0.28703 -0.338,-0.6484 -0.56126,-0.93544 -1.39414,-1.39414 -0.23596,-0.0782 -1.12252,-1.49671 -0.33055,-0.52883 -0.81968,-0.95156 -1.12255,-1.49671 -0.16309,-0.29357 -0.19619,-0.65065 -0.37417,-0.93544 -0.14023,-0.22437 -0.40749,-0.34597 -0.56126,-0.56127 -0.16211,-0.22694 -0.24945,-0.4989 -0.37418,-0.74835 -0.24945,-0.4989 -0.47162,-1.01241 -0.74837,-1.49671 -0.11155,-0.19523 -0.27361,-0.36015 -0.37417,-0.56127 -0.0882,-0.17638 -0.0989,-0.38487 -0.18709,-0.56126 -0.27938,-0.55877 -0.77195,-1.15792 -1.12252,-1.6838 -0.24945,-0.37418 -0.43037,-0.80454 -0.74835,-1.12253 -0.15901,-0.159 -0.40227,-0.21519 -0.56129,-0.37418 -0.27162,-0.27162 -0.87791,-1.31688 -1.12252,-1.6838 -0.12472,-0.18709 -0.2337,-0.38568 -0.37417,-0.56126 -0.1102,-0.13774 -0.28342,-0.22293 -0.37418,-0.37418 -0.10146,-0.16911 -0.0989,-0.38488 -0.18708,-0.56127 -0.45784,-0.91567 -0.22633,-0.23938 -0.74838,-0.93544 -0.24638,-0.3285 -0.33327,-0.78054 -0.56126,-1.12253 -0.0978,-0.14677 -0.2164,-0.29529 -0.37417,-0.37418 -0.0558,-0.0279 -0.13131,0.0279 -0.18709,0 -0.77861,-0.38931 0.2,0.0129 -0.18708,-0.37418 -0.0441,-0.0441 -0.14299,0.0441 -0.18709,0 -0.0441,-0.0441 0.0441,-0.14299 0,-0.18709 -0.0882,-0.0882 -0.26263,0.0558 -0.37418,0 -0.11546,-0.0577 -0.87772,-0.81999 -0.93546,-0.93544 -0.0279,-0.0558 0.0441,-0.14299 0,-0.18709 -0.0441,-0.0441 -0.14298,0.0441 -0.18708,0 -0.0441,-0.0441 0.0441,-0.14299 0,-0.18709 -0.0441,-0.0441 -0.14298,0.0441 -0.18709,0 -0.0441,-0.0441 0.0441,-0.14299 0,-0.187085 -0.0441,-0.0441 -0.12472,0 -0.18709,0 -0.0624,0 -0.13131,-0.02789 -0.18708,0 -0.0789,0.03945 -0.10822,0.147645 -0.18709,0.187085 -0.0558,0.0279 -0.12473,0 -0.18709,0 -0.24945,0 -0.4989,0 -0.74835,0 z"
       inkscape:connector-curvature="0"
       id="path7265" />
  </g>
</svg>
