<?xml version="1.0" encoding="UTF-8" standalone="no"?>
<!-- Created with Inkscape (http://www.inkscape.org/) -->

<svg
   xmlns:dc="http://purl.org/dc/elements/1.1/"
   xmlns:cc="http://creativecommons.org/ns#"
   xmlns:rdf="http://www.w3.org/1999/02/22-rdf-syntax-ns#"
   xmlns:svg="http://www.w3.org/2000/svg"
   xmlns="http://www.w3.org/2000/svg"
   xmlns:sodipodi="http://sodipodi.sourceforge.net/DTD/sodipodi-0.dtd"
   xmlns:inkscape="http://www.inkscape.org/namespaces/inkscape"
   width="1920"
   height="1080"
   viewBox="0 0 508.00002 285.74999"
   version="1.1"
   id="svg8"
   inkscape:version="0.92.4 5da689c313, 2019-01-14"
   sodipodi:docname="021.svg">
  <defs
     id="defs2">
    <clipPath
       clipPathUnits="userSpaceOnUse"
       id="clipPath3044">
      <rect
         style="opacity:1;fill:#000000;fill-opacity:1;stroke:none;stroke-width:0.60000002;stroke-miterlimit:4;stroke-dasharray:none;stroke-opacity:1"
         id="rect3046"
         width="243.21527"
         height="226.00311"
         x="320.13846"
         y="134.60152" />
    </clipPath>
  </defs>
  <sodipodi:namedview
     id="base"
     pagecolor="#ffffff"
     bordercolor="#666666"
     borderopacity="1.0"
     inkscape:pageopacity="0.0"
     inkscape:pageshadow="2"
     inkscape:zoom="0.70710678"
     inkscape:cx="960.13925"
     inkscape:cy="606.21439"
     inkscape:document-units="mm"
     inkscape:current-layer="layer1"
     showgrid="false"
     units="px"
     inkscape:window-width="1920"
     inkscape:window-height="1053"
     inkscape:window-x="1366"
     inkscape:window-y="27"
     inkscape:window-maximized="0"
     showguides="false" />
  <metadata
     id="metadata5">
    <rdf:RDF>
      <cc:Work
         rdf:about="">
        <dc:format>image/svg+xml</dc:format>
        <dc:type
           rdf:resource="http://purl.org/dc/dcmitype/StillImage" />
        <dc:title></dc:title>
      </cc:Work>
    </rdf:RDF>
  </metadata>
  <g
     inkscape:label="Capa 1"
     inkscape:groupmode="layer"
     id="layer1"
     transform="translate(0,-11.250015)">
    <path
       style="opacity:1;fill:#000000;fill-opacity:0.9879902;stroke:none;stroke-width:0.60000002;stroke-miterlimit:4;stroke-dasharray:none;stroke-opacity:1"
       id="path3486"
       d="m 139.71218,108.02989 c -0.18222,-0.83578 0.0779,-1.6781 0.0156,-2.51368 -0.0417,-0.55934 -0.23026,-1.09882 -0.30697,-1.65445 -0.0997,-0.72224 -0.11108,-1.45537 -0.22184,-2.176 -0.13446,-0.87486 -0.39967,-1.727532 -0.51303,-2.60538 -0.14722,-1.139997 -0.17827,-2.292006 -0.2674,-3.438009 -0.92985,-4.057073 -1.76317,-8.137527 -2.73871,-12.184168 -0.36917,-1.531353 -0.81507,-3.044034 -1.1621,-4.580557 -2.5767,-11.408663 0.73773,1.762242 -2.10118,-9.220363 -0.29617,-1.424311 -0.58167,-2.850881 -0.88851,-4.272929 -0.90398,-4.189529 -0.89479,-3.57039 -1.55311,-7.691024 -0.82162,-5.142789 -0.11149,-1.430896 -0.84601,-6.247559 -0.13247,-0.868635 -0.30523,-1.730642 -0.45784,-2.595962 -0.64263,-1.814155 -1.0255,-3.717925 -1.33424,-5.614593 -0.0708,-0.434906 -0.0742,-0.879573 -0.15453,-1.312828 -0.34273,-1.849361 -0.25778,-0.07622 -0.2695,-1.775783 0,0 3.01715,-1.576853 3.01715,-1.576853 v 0 c 0.0559,0.245025 0.14117,0.485161 0.16771,0.735079 0.0374,0.351962 -0.0601,0.71755 0.0231,1.061571 0.0962,0.397537 0.4333,0.715801 0.50425,1.118601 0.10083,0.572497 -0.0703,1.166881 -5e-5,1.743929 0.1702,1.397709 0.87754,2.702261 0.79567,4.148492 1.75335,6.36366 -0.35135,-1.751547 1.04532,5.450554 0.20389,1.051404 0.65967,2.047986 0.81703,3.107352 0.19363,1.303567 0.0706,2.638766 0.23082,3.946863 0.34166,2.790037 1.11491,5.503281 1.79591,8.21916 0.32755,1.526182 0.66824,3.049603 0.98265,4.578548 0.32438,1.577419 0.57941,3.169221 0.93364,4.740206 1.26113,5.593022 3.08759,11.061663 3.99736,16.733912 1.38307,6.578161 0.18825,0.07876 0.83111,6.022771 0.2243,2.0739 1.19747,4.05446 0.89536,6.16629 0,0 -3.23764,1.68681 -3.23764,1.68681 z"
       inkscape:connector-curvature="0" />
    <path
       style="opacity:1;fill:#000000;fill-opacity:0.9879902;stroke:none;stroke-width:0.60000002;stroke-miterlimit:4;stroke-dasharray:none;stroke-opacity:1"
       id="path3488"
       d="m 165.04371,42.651812 c -0.9495,0.274736 -1.86851,0.686128 -2.82285,0.940607 -0.3952,0.105381 -0.81501,0.108694 -1.20476,0.232717 -0.63099,0.200787 -1.22853,0.49457 -1.84449,0.737579 -0.58883,0.232302 -1.17988,0.458891 -1.76982,0.688338 -1.49275,0.707927 -2.47975,1.132392 -3.90716,1.990595 -0.25721,0.154644 1.04693,-0.571109 0.81714,-0.378055 -0.62746,0.527158 -1.3474,0.933272 -2.0256,1.393335 -3.62445,2.458699 -1.41171,0.863222 -4.60673,3.243281 -1.61565,1.325063 -3.13964,2.756612 -4.72065,4.121325 -0.61261,0.528799 -2.08245,1.707838 -2.70403,2.31413 -0.27317,0.266457 -0.50543,0.571873 -0.75814,0.857808 -1.96034,2.670564 0.66807,-0.976595 -0.88679,1.37218 -0.15483,0.233886 -0.82548,0.986832 -0.90088,1.342514 -0.0271,0.127839 0.0922,0.244565 0.13827,0.366848 -0.0394,0.156874 -0.0788,0.313751 -0.11825,0.470625 -0.0659,0.602482 0.21329,1.035634 0.45217,1.556636 0.0687,0.149958 0.0877,0.328475 0.19244,0.455956 0.11629,0.141582 0.2973,0.214207 0.44594,0.321308 0.0658,0.775515 0.75438,1.119859 1.19488,1.685263 0.22024,0.282681 0.33199,0.652082 0.59525,0.895197 0.34626,0.319759 0.82024,0.470223 1.19411,0.757219 0.42989,0.330012 0.80584,0.724905 1.20876,1.087355 0.42104,0.478534 0.75901,1.045546 1.26311,1.4356 0.64715,0.500732 1.43806,0.781878 2.14195,1.199081 0.73859,0.437767 1.48801,0.86268 2.18425,1.365081 0.69068,0.49839 1.25193,1.168244 1.96723,1.630606 0.93937,0.607208 4.49104,2.205728 5.46445,2.65603 0.90398,0.479087 1.78939,0.99499 2.71194,1.437257 0.92347,0.442706 1.8906,0.788924 2.82162,1.215509 5.1627,2.365496 -0.15257,0.02381 4.49095,2.322348 0.63948,0.316542 1.31182,0.562221 1.96053,0.859393 0.53375,0.244507 1.0575,0.510249 1.58625,0.765374 3.23173,0.460885 0.72392,-0.196869 2.66148,0.894902 0.5004,0.281967 1.15671,0.271579 1.6022,0.634127 0.10177,0.08282 0.0779,0.250595 0.11691,0.375891 0,0 -3.08772,1.914374 -3.08772,1.914374 v 0 c -0.31479,-0.498969 -0.0361,-0.180231 -0.83076,-0.520006 -0.27793,-0.118835 -0.54016,-0.273021 -0.82026,-0.386641 -2.06936,-0.83938 -0.27729,0.08098 -2.37176,-1.098212 -3.2704,-1.102206 -0.38535,-0.02929 -3.65298,-1.556072 -0.75598,-0.353227 -1.56591,-0.591566 -2.29976,-0.988727 -0.74228,-0.401725 -1.36536,-1.002713 -2.11091,-1.398334 -1.82117,-0.966385 -3.88484,-1.432353 -5.60449,-2.616239 -0.78307,-0.353201 -4.80868,-2.13577 -5.57777,-2.612001 -0.73346,-0.454171 -1.30468,-1.136394 -2.02287,-1.61435 -0.73842,-0.491419 -1.60668,-0.771427 -2.33111,-1.28324 -1.17125,-0.8275 -1.94574,-2.155447 -3.31725,-2.739557 -0.78037,-0.634759 -1.60066,-1.224179 -2.33571,-1.910905 -1.46036,-1.364335 -0.14118,-0.233675 -1.20396,-1.538137 -0.81777,-1.003731 -0.37074,-0.01675 -0.73748,-1.021606 -0.41848,-0.584478 -0.16423,-0.327684 -0.77243,-0.760677 -0.10734,-0.129175 -0.12027,-0.314262 -0.19595,-0.464196 -0.23795,-0.471397 -0.37899,-0.694976 -0.42898,-1.244513 0.0814,-0.191997 0.18531,-0.375922 0.24407,-0.575995 0.10445,-0.355629 0.0412,-0.735248 0.19947,-1.081259 0.12196,-0.266647 0.34011,-0.480113 0.47433,-0.740812 0.70184,-1.363279 -0.48129,0.109553 1.078,-1.526411 0.3273,-0.322418 0.66348,-0.636056 0.98189,-0.967256 0.29022,-0.301881 0.54098,-0.641392 0.84325,-0.931214 0.43766,-0.419648 0.9177,-0.792766 1.37271,-1.193535 0.50451,-0.444363 0.99039,-0.910143 1.5058,-1.341813 6.04918,-5.066324 -1.88748,1.773086 3.56428,-2.952959 0.75659,-0.541288 1.51916,-1.074299 2.26976,-1.623859 1.46813,-1.07491 2.56105,-1.997837 4.11808,-2.951967 1.67474,-1.026258 3.38993,-1.985029 5.09,-2.968755 2.69559,-1.559774 1.67219,-1.034404 4.15819,-2.13183 0.62416,-0.2507 1.2394,-0.524901 1.8725,-0.752102 0.49461,-0.177503 1.0066,-0.302376 1.50761,-0.460922 1.48104,-0.468689 2.93656,-1.007118 4.42365,-1.454711 0,0 -2.94312,2.250479 -2.94312,2.250479 z"
       inkscape:connector-curvature="0" />
    <path
       style="opacity:1;fill:#000000;fill-opacity:0.9879902;stroke:none;stroke-width:0.60000002;stroke-miterlimit:4;stroke-dasharray:none;stroke-opacity:1"
       id="path3490"
       d="m 186.42049,94.681121 c -0.76603,-1.274368 -0.61282,-2.803906 -0.92011,-4.203787 -0.17029,-0.775718 -0.5472,-1.501635 -0.67111,-2.286098 -0.16234,-1.027795 0.008,-2.093251 -0.1822,-3.116291 -0.21374,-1.150747 -0.6804,-2.239788 -1.0206,-3.359682 -0.10607,-1.465895 -0.11633,-2.941889 -0.3182,-4.39769 -0.21888,-1.578446 -0.69725,-3.112301 -0.94155,-4.687014 -1.16959,-7.538858 -0.065,-2.686974 -0.93668,-10.224963 -1.2521,-10.828065 -0.40257,1.739593 -0.97089,-8.514263 0.69228,-2.122305 -0.66185,-4.025667 -0.70613,-6.058283 -0.0185,-0.850437 0.34733,-1.670048 0.41449,-2.518032 0.0491,-0.62045 -0.0662,-1.243576 -0.0673,-1.865968 -0.006,-3.297836 0.15679,-0.01151 -0.0132,-2.759808 0.0666,-0.358831 0.13318,-0.717659 0.19977,-1.076487 -0.0248,-0.239971 -0.11706,-0.482449 -0.0745,-0.719918 0.0676,-0.377108 0.54522,-1.10486 0.70563,-1.458241 0.0727,-0.160214 0.0562,-0.365782 0.17047,-0.499557 0.20374,-0.238483 0.49743,-0.382236 0.74615,-0.573355 1.54087,-0.827206 3.57458,-2.261557 5.52023,-2.557973 0.53626,-0.0817 1.08671,0.03001 1.62726,-0.01537 0.84832,-0.0712 1.68194,-0.287978 2.53201,-0.333746 0.81633,-0.04395 1.63445,0.04362 2.45167,0.06542 1.1356,-0.08235 2.27119,-0.164703 3.40679,-0.247055 1.12572,0.04619 2.25054,0.150037 3.37714,0.138576 1.39879,-0.01423 2.79251,-0.185129 4.19104,-0.215567 5.15327,-0.112157 10.28445,0.250615 15.40732,0.752984 3.51521,0.210989 2.40378,0.167371 5.66195,0.281664 0.70265,0.02465 1.40948,-0.01099 2.10816,0.06763 0.45383,0.05107 0.8882,0.213002 1.3323,0.319503 0,0 -2.95868,2.094605 -2.95868,2.094605 v 0 c -2.88362,-0.33039 -5.74421,-0.861577 -8.65079,-0.968731 -1.53551,-0.105931 -5.86188,-0.418774 -7.30231,-0.455877 -1.41362,-0.03641 -2.82823,0.02299 -4.24225,0.009 -1.37312,-0.0136 -2.74537,-0.09685 -4.11854,-0.09181 -1.35352,0.005 -2.70525,0.13115 -4.05874,0.121866 -1.10954,-0.0076 -2.21614,-0.115007 -3.32421,-0.17251 -1.83152,0.08757 -4.22419,0.173275 -6.07712,0.364455 -0.83966,0.08663 -1.67178,0.235616 -2.50937,0.340318 -0.60254,0.07532 -1.21131,0.102425 -1.81069,0.199705 -0.44666,0.07249 -1.61022,0.657504 -1.32194,0.308719 0.54961,-0.664961 1.4648,-0.911785 2.1972,-1.367678 -0.26676,0.159152 -0.56532,0.274265 -0.80027,0.477455 -0.12599,0.108956 -0.16374,0.290218 -0.25127,0.431931 -0.28219,0.45686 -0.60777,0.850084 -0.73316,1.390252 -0.13242,0.570497 0.11042,1.191358 -0.11281,1.753365 -0.0437,0.429439 -0.069,0.861144 -0.131,1.288317 -0.0808,0.556495 -0.28518,1.098404 -0.29721,1.660607 -0.0128,0.596355 0.17759,1.180732 0.22369,1.775441 0.0579,0.746678 0.0516,1.496991 0.0879,2.245029 0.20908,4.31138 0.22257,1.468136 -0.0235,6.424533 0.31776,4.406276 0.22112,4.015971 0.84665,8.568021 0.22482,1.636067 0.5456,3.258838 0.73849,4.898975 0.20266,1.723075 0.1599,3.474635 0.44756,5.185568 0.26052,1.549464 0.95511,3.007276 1.19109,4.560665 0.22376,1.472872 0.12011,2.977121 0.18017,4.465683 0.74776,4.468127 0.35676,2.450563 1.20836,6.445787 0.1674,0.78536 0.27315,1.586598 0.50401,2.355699 0.17955,0.598183 0.5248,1.136351 0.72206,1.728928 0.0572,0.171725 0.41602,1.890797 0.49241,2.252879 0,0 -3.1456,1.772182 -3.1456,1.772182 z"
       inkscape:connector-curvature="0" />
    <path
       style="opacity:1;fill:#000000;fill-opacity:0.9879902;stroke:none;stroke-width:0.60000002;stroke-miterlimit:4;stroke-dasharray:none;stroke-opacity:1"
       id="path3492"
       d="m 184.72419,62.519057 c 0.26416,0.109815 0.51378,0.264904 0.79249,0.329449 0.51878,0.120142 1.05526,0.143933 1.58223,0.220509 0.67242,0.09771 1.34281,0.209378 2.0159,0.302342 0.83447,0.115255 1.67741,0.173405 2.50654,0.322278 8.43151,1.513917 -3.80172,-0.31387 5.78955,1.049941 8.88445,0.718807 -1.54139,-0.243483 6.77822,0.877424 1.15858,0.156097 2.33114,0.185407 3.49292,0.315534 2.851,0.319326 3.09225,0.490789 5.86504,0.790181 0.84093,0.0908 1.68615,0.136163 2.52923,0.204245 2.62865,0.196406 1.38918,0.07497 3.72011,0.346446 0,0 -2.81485,1.998953 -2.81485,1.998953 v 0 c -2.40915,-0.20929 -1.12682,-0.119539 -3.84816,-0.251796 -4.22282,-0.788085 -0.14831,-0.115848 -5.25437,-0.627972 -1.03779,-0.10409 -2.06823,-0.27172 -3.10293,-0.403032 -1.11858,-0.141957 -2.24144,-0.251966 -3.35689,-0.41678 -1.09424,-0.161679 -2.17415,-0.414581 -3.27034,-0.562433 -1.15326,-0.155548 -2.31586,-0.231468 -3.47379,-0.347202 -1.78308,-0.293806 -4.16056,-0.709226 -5.9678,-0.915992 -1.82418,-0.208704 -2.98073,-0.176403 -4.74073,-0.480497 -0.48008,-0.08295 -0.94385,-0.242718 -1.41929,-0.349089 -0.34621,-0.07746 -0.69662,-0.134821 -1.04493,-0.202234 0,0 3.22185,-2.200275 3.22185,-2.200275 z"
       inkscape:connector-curvature="0" />
    <path
       style="opacity:1;fill:#000000;fill-opacity:0.9879902;stroke:none;stroke-width:0.60000002;stroke-miterlimit:4;stroke-dasharray:none;stroke-opacity:1"
       id="path3494"
       d="m 186.20831,93.196563 c 2.07062,1.350555 4.61407,1.486278 6.95648,2.031233 5.69416,1.324729 0.64989,0.54938 7.30398,1.311245 0.57303,0.0694 7.19135,0.878285 7.90688,0.936932 1.18607,0.09722 2.37942,0.07793 3.56638,0.163568 0.89637,0.06468 1.78465,0.218914 2.68074,0.287192 0.10005,0.0076 3.50775,0.136319 3.91992,0.151977 1.65818,-0.180581 0.93284,-0.08933 2.17795,-0.257813 0,0 -2.8052,2.110934 -2.8052,2.110934 v 0 c -1.4313,0.300839 -0.67384,0.207689 -2.27684,0.240319 -1.31042,-0.0632 -2.62606,-0.0379 -3.93278,-0.15489 -0.86747,-0.07765 -1.71872,-0.304092 -2.58783,-0.360469 -1.24319,-0.08064 -2.49753,0.07475 -3.73709,-0.04981 -1.18209,-0.118788 -2.33279,-0.45157 -3.49918,-0.677352 -1.40749,-0.138607 -2.81499,-0.277212 -4.22249,-0.415819 -1.24182,-0.250412 -2.47584,-0.543261 -3.72547,-0.75124 -1.23392,-0.205367 -2.4861,-0.287467 -3.72081,-0.488069 -1.31128,-0.213039 -3.70264,-0.702537 -5.05985,-1.200636 -0.71351,-0.261861 -1.33359,-0.738815 -2.03972,-1.019104 0,0 3.09493,-1.858195 3.09493,-1.858195 z"
       inkscape:connector-curvature="0" />
    <path
       style="opacity:1;fill:#000000;fill-opacity:0.9879902;stroke:none;stroke-width:0.60000002;stroke-miterlimit:4;stroke-dasharray:none;stroke-opacity:1"
       id="path3500"
       d="m 233.33146,90.877035 c -0.0985,-0.849141 0.31732,-1.654784 0.30803,-2.491581 -0.007,-0.618419 -0.25332,-1.215255 -0.28941,-1.832658 -0.047,-0.804024 0.0343,-1.610471 0.0411,-2.415839 0.0485,-5.798976 -0.0743,-0.106537 0.10341,-6.671117 -0.0188,-1.426083 -0.073,-2.852134 -0.0565,-4.278249 0.0782,-6.795195 0.30247,-3.303098 0.23074,-10.451242 -0.0193,-1.925402 -0.1502,-3.84841 -0.18084,-5.773664 -0.1997,-12.550475 0.25719,0.668465 -0.22577,-11.390158 1.18648,-4.606928 -0.18133,-9.177561 0.0586,-13.806695 0.0625,-1.205948 0.40443,-2.386425 0.46836,-3.592299 0.29087,-5.487017 -0.7651,0.109116 0.39741,-4.968455 0.2723,-2.152071 0.0335,-1.12496 0.65828,-3.018834 0.10252,-0.310765 0.13907,-0.651371 0.30609,-0.932782 0.19632,-0.330797 0.52082,-0.566989 0.7619,-0.866735 0.10383,-0.129097 0.12948,-0.330054 0.27055,-0.41693 1.22497,-0.754405 2.52146,-1.385981 3.78219,-2.078971 1.26385,-0.294854 0.61793,-0.20994 1.92745,-0.248573 0.50515,-0.0149 1.01208,-0.08989 1.51545,-0.04499 1.34828,0.120276 2.87466,0.643307 4.1362,1.024843 1.02148,0.308932 2.04023,0.626818 3.06034,0.940227 1.30569,0.473924 2.63604,0.884738 3.91707,1.421773 1.52572,0.639621 3.00647,1.38223 4.49477,2.104668 5.30154,2.573425 10.4881,5.405616 15.54447,8.4329 1.73683,1.039854 3.43472,2.143441 5.15208,3.215162 3.1797,1.769827 5.94905,4.143213 8.97913,6.131863 1.28331,0.842253 2.70598,1.468628 3.94806,2.370595 0.95242,0.691624 1.73236,1.594004 2.60274,2.386402 1.40866,1.28243 2.37278,2.138217 3.76144,3.378308 1.15179,1.833483 0.63109,0.841928 1.39727,2.615684 0.13557,0.313849 0.38605,0.598173 0.41248,0.939025 0.10716,1.3804 -1.44264,2.267378 -2.35357,2.89497 -1.43931,0.753737 -2.84538,1.574639 -4.31789,2.261214 -0.74473,0.347231 -1.54337,0.564803 -2.31982,0.833681 -1.63703,0.566891 -3.40291,1.158301 -5.09008,1.545352 -0.947,0.217246 -1.91085,0.353007 -2.86626,0.529508 -1.27505,0.31074 -2.5501,0.621477 -3.82513,0.932214 -1.31069,0.263694 -2.61276,0.574463 -3.93203,0.79108 -1.27195,0.208849 -2.5627,0.287235 -3.83651,0.484468 -1.16803,0.180851 -7.03913,1.306799 -8.31505,1.473711 -10.08889,1.319771 4.00729,-0.99868 -6.71396,0.849561 -2.6094,0.04716 -5.17343,0.542084 -7.76581,0.779076 -0.61431,0.05616 -1.23294,0.06112 -1.84619,0.127913 -2.1541,0.326067 -1.14512,0.208029 -3.02379,0.379804 -2.58293,0.262356 -3.54856,0.534683 0.95032,-1.966407 0.17282,-0.09608 0.39465,0.03579 0.59234,0.03183 0.3586,-0.0072 0.71601,-0.04347 1.07402,-0.0652 0.42717,-0.03327 0.85332,-0.08444 1.2815,-0.0998 0.38262,-0.01373 0.76758,0.05089 1.14853,0.01265 1.21951,-0.122454 1.93916,-0.427529 3.12574,-0.767934 2.97356,-0.853059 -0.20901,0.117216 2.76538,-0.806053 0.44889,-0.132406 0.89778,-0.264811 1.34666,-0.397217 0.27918,-0.0172 0.56347,0.0042 0.83755,-0.05161 0.39588,-0.08067 0.76004,-0.290428 1.15883,-0.355214 0.20627,-0.03351 0.41476,0.05517 0.62347,0.06567 1.4186,0.07138 0.40529,-0.117938 1.7533,0.228359 0.55648,0.412065 1.52502,1.073999 1.88132,1.630177 0.31524,0.492078 0.42452,1.08898 0.64178,1.631484 0.2664,0.665192 0.50858,1.341091 0.80916,1.991546 1.63073,3.528732 0.72427,0.615881 1.6719,4.540594 2.05439,7.223074 -0.70908,-2.359118 1.49641,4.856437 0.24418,0.798875 0.42571,1.616133 0.67405,2.413728 0.22947,0.737052 0.53107,1.450411 0.75869,2.188038 0.93443,3.027934 0.004,1.109392 1.44264,3.600508 0.44411,1.955107 0.13116,1.057754 0.88421,2.710505 0,0 -3.20852,1.778312 -3.20852,1.778312 v 0 c -0.36846,-1.824037 -0.0509,-0.932862 -0.99785,-2.657006 -0.9698,-4.91317 0.47271,1.369928 -1.39094,-3.635798 -0.2781,-0.746964 -0.29718,-1.568107 -0.51144,-2.335819 -0.22148,-0.793594 -0.60473,-1.538899 -0.7938,-2.34084 -1.44059,-6.110899 0.79827,0.668819 -1.22166,-5.004456 -0.92645,-2.091216 -1.72896,-4.251529 -2.72932,-6.308593 -0.25629,-0.527018 -1.0631,-2.085483 -1.57664,-2.56287 -0.2322,-0.215855 -0.564,-0.289738 -0.846,-0.434608 -1.28472,-0.242159 -0.26265,-0.114747 -1.67239,-0.09089 -0.21362,0.0036 -0.42819,-0.05432 -0.6403,-0.0287 -1.06034,0.128061 -2.03705,0.680847 -3.12228,0.674674 -1.50872,0.505248 -3.06618,1.140449 -4.63681,1.423948 -0.42335,0.07641 -0.86001,0.0407 -1.2875,0.08872 -3.78868,0.425572 0.60834,0.06911 -2.80131,0.320143 -0.19969,-0.09454 -0.37817,-0.279186 -0.59907,-0.283612 -0.35252,-0.0071 -1.26763,0.50927 -1.02758,0.251008 0.84123,-0.90505 1.94569,-1.523617 2.91853,-2.285424 0.0795,0.01775 0.1571,0.05546 0.23854,0.05328 0.64841,-0.01738 1.28694,-0.191868 1.93598,-0.196607 1.76235,-0.162274 0.86124,-0.110379 2.70374,-0.147865 1.51545,-0.115171 2.84102,-0.387898 4.36147,-0.549196 1.79515,-0.190442 3.60538,-0.21922 5.395,-0.472736 1.08202,-0.144484 2.16404,-0.288967 3.24606,-0.433451 1.07919,-0.08527 2.1645,-0.11293 3.23759,-0.255815 1.3562,-0.180578 2.69304,-0.48519 4.04202,-0.713481 1.38049,-0.233619 2.76841,-0.4231 4.14618,-0.672208 10.06636,-1.820048 -0.94943,-0.02056 7.96057,-1.437233 1.26481,-0.305583 2.52709,-0.622003 3.79449,-0.916749 3.07597,-0.715346 2.84205,-0.527288 5.7621,-1.466138 0.84407,-0.271386 1.66431,-0.61317 2.50698,-0.888913 0.63084,-0.206428 1.40639,-0.987325 1.91177,-0.557025 0.43691,0.371994 -0.94379,0.652934 -1.41568,0.9794 0.7252,-0.441719 1.68622,-0.89667 2.17522,-1.658723 0.42429,-0.661225 -0.2576,-2.31132 -0.56822,-2.852967 -0.26802,-0.46736 -0.6409,-0.866209 -0.96133,-1.299314 -0.43342,-0.563266 -0.81963,-1.166254 -1.3003,-1.689795 -1.31741,-1.434955 -3.29623,-3.004249 -4.77774,-4.174054 -3.99071,-3.151124 -8.15615,-6.070309 -12.46907,-8.764833 -1.75604,-1.043197 -3.51377,-2.083572 -5.26815,-3.129591 -1.73849,-1.036536 -3.43397,-2.147989 -5.21038,-3.118066 -6.08688,-3.323974 -12.65045,-5.598145 -18.84677,-8.686667 -8.68917,-2.166026 1.45673,0.313506 -5.72914,-1.313019 -0.55067,-0.124645 -1.07717,-0.369844 -1.63873,-0.428456 -1.07521,-0.112226 -2.07359,0.349842 -3.13503,0.251927 0.71274,-0.429125 1.40773,-0.889212 2.13821,-1.287377 0.26335,-0.143542 -0.53137,0.299693 -0.7332,0.521552 -0.14022,0.154136 -0.17848,0.376757 -0.25888,0.568995 -0.54698,1.307835 -1.15302,2.594919 -1.35323,4.016454 -0.34543,2.828821 -0.64787,5.639853 -0.80993,8.487283 -0.0775,1.361956 -0.18449,2.723757 -0.19389,4.087885 -0.0105,1.521134 0.12868,3.040374 0.1343,4.561532 0.006,1.734712 -0.0655,3.468828 -0.0983,5.203241 0.0554,10.65417 0.1954,21.309896 0.0947,31.963499 -0.0354,1.220613 -0.12284,2.440827 -0.10612,3.661839 0.0133,0.972352 0.13075,1.940486 0.19613,2.910729 0.0849,0.755044 0.23302,1.50564 0.25469,2.265135 0.042,1.472575 -0.30867,2.951877 -0.22439,4.429085 0,0 -3.18716,1.623941 -3.18716,1.623941 z"
       inkscape:connector-curvature="0" />
    <path
       style="opacity:1;fill:#000000;fill-opacity:0.9879902;stroke:none;stroke-width:0.60000002;stroke-miterlimit:4;stroke-dasharray:none;stroke-opacity:1"
       id="path3502"
       d="m 293.49808,93.816087 c -0.003,-0.35628 -0.038,-0.713909 -0.007,-1.068842 0.19619,-2.242164 0.40862,-1.890054 0.80473,-4.434094 1.78832,-11.486025 -1.29667,6.152703 0.87392,-7.562808 0.27355,-1.728401 0.66127,-3.436781 0.99192,-5.155173 0.72065,-5.891469 1.76271,-11.736483 2.69923,-17.595876 0.30345,-1.898542 0.56441,-3.80433 0.90882,-5.695873 0.51072,-2.805113 1.47777,-7.024997 2.11354,-9.875094 1.264,-2.928565 1.7585,-6.092011 2.7786,-9.096078 0.19325,-0.569084 0.41939,-1.127317 0.66416,-1.676219 0.14772,-0.331251 0.2113,-0.756843 0.51152,-0.960342 1.17128,-0.79393 2.51574,-1.296153 3.77359,-1.944229 1.70897,5.104166 3.09796,10.307801 4.39656,15.529359 0.6205,2.494925 1.26317,4.984914 1.82758,7.493124 0.63725,2.831965 1.18457,5.683419 1.77686,8.525131 0.0829,0.342191 4.21257,17.408335 4.31202,17.758185 0.77851,2.738956 1.78597,5.40762 2.66838,8.114887 0.79221,2.430534 1.48317,4.895527 2.35553,7.29846 0.75115,2.068997 1.6796,4.069257 2.51132,6.1072 0.67596,1.656275 1.34112,3.316925 2.01168,4.975395 1.98816,4.90079 0.62352,2.5593 3.35735,6.07199 0.41225,0.5297 0.7552,1.11623 1.2119,1.60813 0.3012,0.32441 0.6319,0.65865 1.04362,0.82127 0.30208,0.11933 1.22693,-0.22816 0.97409,-0.0243 -0.64005,0.51615 -1.49061,0.69456 -2.23591,1.04184 0.32147,-0.48114 0.69776,-0.92987 0.96443,-1.44342 0.54959,-1.05841 1.9137,-4.74209 2.19974,-5.55257 1.52483,-4.32041 2.79475,-8.71877 4.05879,-13.120134 1.94114,-10.875492 -0.49085,1.368488 2.73,-10.458516 0.46069,-1.691683 0.64497,-3.448466 1.05921,-5.152118 0.42121,-1.732325 0.95009,-3.436776 1.44557,-5.149339 0.4712,-1.628608 1.09839,-3.216233 1.45437,-4.873845 0.28982,-1.349584 0.31712,-2.742427 0.47566,-4.113643 0.27144,-2.467195 0.89271,-4.881301 1.21256,-7.340622 1.08104,-8.312089 -0.4735,1.823361 0.4486,-5.834824 0.46895,-3.894566 0.67072,-1.258451 0.15746,-4.525486 0.70143,-7.032236 -0.0733,2.257861 -0.014,-3.303834 0.0244,-2.290998 0.59727,-0.580265 -0.15163,-2.260343 0,0 3.55492,-1.839442 3.55492,-1.839442 v 0 c -0.0122,0.366597 -0.0135,0.733719 -0.0366,1.099789 -0.0284,0.449114 -0.12414,0.894913 -0.11785,1.344882 0.0721,5.145252 0.37317,-2.966844 0.0664,3.290866 -0.0569,3.323884 0.054,0.946547 -0.33615,4.635566 -0.099,0.936057 -0.11131,1.882767 -0.26559,2.811317 -0.18653,1.122683 -0.60436,2.201659 -0.75475,3.32975 -1.36181,10.215742 1.53873,-4.577898 -0.96274,7.237306 -0.22641,1.405562 -0.37963,2.82488 -0.67919,4.216689 -0.34716,1.613114 -0.85487,3.187581 -1.2587,4.78745 -2.62448,10.39731 0.25993,-0.416669 -2.67237,10.381808 -0.44088,1.740419 -0.78772,3.503803 -1.23095,5.243621 -0.44283,1.738188 -0.95118,3.459022 -1.42674,5.188535 -1.86174,6.096494 -1.08087,3.355869 -2.64117,9.132637 -0.43395,1.60656 -1.38277,5.36579 -2.0446,7.02799 -0.53041,1.33218 -1.41745,2.50568 -1.8356,3.89035 -1.41465,0.82707 -2.74016,1.83018 -4.24394,2.48121 -0.76766,0.33234 -1.60758,-0.88966 -1.87412,-1.22658 -1.87286,-2.36743 -3.17754,-5.11729 -4.55711,-7.78084 -3.49239,-10.081364 0.0682,0.0791 -4.08503,-11.359108 -0.86895,-2.39305 -1.82563,-4.757931 -2.56609,-7.193796 -0.8404,-2.764663 -1.46402,-5.590704 -2.17175,-8.392268 -3.34635,-13.246473 -0.87826,-4.491543 -4.7769,-17.508246 -0.72884,-2.770619 -1.50929,-5.528173 -2.18651,-8.311854 -0.96245,-3.955949 -2.02814,-9.686388 -3.15804,-13.721172 -0.43646,-1.558444 -1.01844,-3.072414 -1.53213,-4.607131 -1.09265,-3.264559 -0.52691,-2.027532 -1.59014,-4.080892 0.9449,-0.623861 1.78967,-1.435781 2.83469,-1.871584 0.36174,-0.150845 -0.48106,0.623148 -0.66757,0.967849 -1.07437,1.985811 -0.64058,1.630185 -1.42806,3.922796 -2.09389,6.096049 -0.39894,0.02412 -2.13699,6.855607 -3.73806,14.345801 1.46489,-5.901607 -2.34974,9.966992 -0.48477,2.016564 -1.22261,3.974549 -1.58633,6.016418 -0.34317,1.926323 -0.29022,3.903962 -0.52684,5.84625 -0.22572,1.852898 -1.50847,9.626105 -1.82494,11.571382 -0.20545,1.65734 -0.45521,3.309787 -0.61637,4.972018 -0.13179,1.359377 -0.0565,2.738668 -0.2621,4.088858 -0.1873,1.230249 -0.71958,2.390738 -0.91164,3.620259 -0.12005,0.768617 2.1e-4,1.556023 -0.0183,2.333742 -0.0523,2.196031 -0.23852,1.066575 0.15438,2.648082 0,0 -3.64164,1.855517 -3.64164,1.855517 z"
       inkscape:connector-curvature="0" />
    <path
       style="opacity:1;fill:#000000;fill-opacity:0.9879902;stroke:none;stroke-width:0.60000002;stroke-miterlimit:4;stroke-dasharray:none;stroke-opacity:1"
       id="path3504"
       d="m 359.05765,110.43438 c 0.21421,-0.68308 0.44905,-1.36001 0.64262,-2.04922 0.78409,-2.79209 1.09765,-4.34824 1.70365,-7.31236 1.15245,-5.636796 2.07862,-11.310145 3.03887,-16.981944 0.16714,-2.016659 0.38944,-4.029501 0.50142,-6.049973 0.11086,-2.000054 0.18444,-8.826931 0.27522,-10.964209 0.36385,-8.566274 0.17094,-0.943395 0.66182,-8.683167 0.0656,-1.033981 0.0575,-2.07132 0.0862,-3.106978 0.14613,-1.749788 -0.38645,-3.456387 0.0721,-5.173861 0.0518,-0.193794 0.0691,-0.460682 0.24992,-0.547391 4.37039,-2.095085 3.11743,-2.09632 6.20181,-0.8367 3.81206,1.184167 7.57923,2.521503 11.519,3.24693 2.14797,0.395499 4.33163,0.568214 6.48809,0.914312 11.77134,1.889236 1.97064,0.836996 15.05487,1.887072 2.59075,0.272309 5.17321,0.640019 7.77222,0.81693 2.5927,0.176483 5.19551,0.144039 7.79235,0.242531 3.43355,0.130222 8.17734,0.438015 11.70088,0.448373 2.85707,0.0084 4.48672,-0.142727 7.20637,-0.329274 -1.06793,1.408618 4.14338,-1.396021 3.20519,-0.81688 -5.43517,3.355115 -1.56546,1.682507 -3.54965,1.168678 -0.29929,-0.0775 -0.61201,-0.08806 -0.918,-0.132085 0,0 3.23205,-2.195949 3.23205,-2.195949 v 0 c 0.20722,0.0632 1.4532,0.400489 1.63973,0.616159 0.14356,0.166013 0.27231,0.509013 0.10422,0.650152 -2.71055,2.27601 -3.55852,2.352236 -6.51672,2.767852 -1.04814,0.03463 -6.64935,0.225107 -7.08861,0.210425 -1.63729,-0.05472 -3.26205,-0.311385 -4.89667,-0.41979 -7.46503,-0.495067 -14.95084,-0.675569 -22.42055,-1.078855 -2.56805,-0.335295 -5.1322,-0.701833 -7.70414,-1.005885 -2.50465,-0.296097 -5.03251,-0.405775 -7.52446,-0.794424 -2.00628,-0.312902 -3.96266,-0.889259 -5.94974,-1.307021 -3.95811,-0.832133 -8.07093,-1.33156 -11.75186,-3.123596 -3.21144,-0.536851 -3.12545,0.124706 -0.2672,-2.364264 0.1053,-0.09171 -0.20048,0.206105 -0.24869,0.337169 -0.14271,0.387908 -0.28117,0.787106 -0.31644,1.198928 -0.11652,1.360913 0.41839,2.741287 -0.0753,4.096993 -0.2218,10.873901 0.2318,-6.394064 -0.54777,7.164641 -0.0869,1.51179 0.0928,3.03208 -0.0103,4.542846 -0.12653,1.85221 -0.53433,3.677221 -0.67755,5.528212 -0.14788,1.910585 -0.12994,3.830394 -0.19492,5.745591 -0.15806,2.015421 -0.31612,4.030842 -0.47421,6.046264 -1.68645,12.095263 0.0316,0.189452 -1.81957,11.861384 -0.25942,1.635816 -0.40359,3.290808 -0.72453,4.915673 -0.28594,1.447431 -0.75327,2.853361 -1.09366,4.288961 -1.11826,4.71638 -0.0892,1.4063 -1.3603,5.16048 0,0 -3.01776,1.41727 -3.01776,1.41727 z"
       inkscape:connector-curvature="0" />
    <path
       style="opacity:1;fill:#000000;fill-opacity:0.9879902;stroke:none;stroke-width:0.60000002;stroke-miterlimit:4;stroke-dasharray:none;stroke-opacity:1"
       id="path3506"
       d="m 370.44616,87.871625 c 0.58992,0.133334 1.19735,0.20465 1.7697,0.4 0.73575,0.251113 1.40784,0.664593 2.13727,0.933471 1.05606,0.389271 2.15011,0.667925 3.21281,1.038635 1.25452,0.437618 2.46928,0.989092 3.73732,1.385808 3.87519,1.212384 5.75167,1.451562 9.7876,2.231065 14.84344,2.501005 -3.71922,-0.714196 9.70193,1.866452 1.3603,0.261562 2.74103,0.407628 4.10218,0.664676 1.01745,0.192138 2.00898,0.512874 3.03045,0.682273 1.40925,0.233701 2.84375,0.275021 4.26493,0.419256 1.31492,-0.04086 0.7757,-0.008 1.61922,-0.06937 0,0 -3.22765,2.315683 -3.22765,2.315683 v 0 c -0.39664,-0.389998 -0.0973,-0.161938 -1.07611,-0.341333 -0.61296,-0.02344 -1.2301,0.0047 -1.83891,-0.07035 -2.55,-0.314558 -2.58916,-0.690107 -5.3472,-1.13392 -1.4409,-0.231862 -2.9114,-0.250946 -4.35015,-0.49577 -1.8175,-0.309275 -7.54502,-1.763163 -9.25499,-2.186287 -1.8237,-0.257852 -3.66731,-0.401092 -5.47111,-0.77356 -3.19019,-0.658754 -5.38829,-1.655214 -8.43653,-2.622989 -1.1026,-0.350062 -2.23838,-0.592148 -3.33465,-0.96158 -0.75298,-0.253749 -1.4701,-0.603528 -2.20517,-0.905293 -0.52829,-0.16719 -1.05656,-0.334381 -1.58485,-0.501574 0,0 2.76391,-1.875292 2.76391,-1.875293 z"
       inkscape:connector-curvature="0" />
    <path
       style="opacity:1;fill:#000000;fill-opacity:0.9879902;stroke:none;stroke-width:0.60000002;stroke-miterlimit:4;stroke-dasharray:none;stroke-opacity:1"
       id="path3508"
       d="m 368.32111,109.81666 c 1.07564,0.45448 1.45833,0.65636 2.73881,0.95295 0.89148,0.2065 1.80319,0.31448 2.70004,0.49631 3.8798,0.7866 7.74264,1.65112 11.59275,2.57061 3.67392,0.35368 6.65393,0.60103 10.30404,1.10684 7.30991,1.01296 2.09867,0.51767 9.22832,1.37008 6.01382,0.719 2.16609,-0.0452 7.14714,1.12043 4.05714,0.13273 2.13124,0.0878 5.77749,0.1452 0,0 -2.76913,1.974 -2.76913,1.974 v 0 c -3.4825,-0.16371 -1.65663,-0.0463 -5.47632,-0.37194 -7.1847,-1.20383 1.07326,0.14063 -7.23087,-1.06708 -1.46823,-0.21353 -2.92466,-0.50725 -4.39632,-0.69548 -4.9901,-0.63824 -10.04308,-0.84754 -14.97753,-1.90651 -1.52019,-0.27372 -3.04464,-0.52483 -4.56057,-0.82117 -1.32139,-0.25831 -2.62456,-0.60784 -3.95034,-0.84257 -9.21366,-1.63136 0.72824,0.51084 -6.14069,-1.18723 -2.56513,-0.63413 -1.22676,-0.0121 -2.86578,-0.9157 0,0 2.87896,-1.92874 2.87896,-1.92874 z"
       inkscape:connector-curvature="0" />
    <path
       style="opacity:1;fill:#000000;fill-opacity:0.9879902;stroke:none;stroke-width:0.60000002;stroke-miterlimit:4;stroke-dasharray:none;stroke-opacity:1"
       id="path3510"
       d="m 454.35485,48.193042 c -0.0505,0.388432 -0.0779,0.780587 -0.15161,1.165299 -0.14552,0.759624 -0.34808,1.507326 -0.5054,2.264592 -0.32404,1.559989 -1.40663,7.159742 -1.60467,8.319675 -0.32592,1.908871 -0.50724,3.842726 -0.89242,5.740524 -0.46794,2.305572 -1.10979,4.5724 -1.6647,6.858601 -2.13302,7.735943 -4.40098,15.445621 -7.22823,22.961534 -0.94602,2.514822 -2.02661,4.977013 -3.01795,7.474313 -3.68694,9.28799 -1.18904,3.7478 -5.35718,12.32919 -1.93336,4.0912 -2.02631,4.5447 -4.18742,8.22843 -0.56275,0.95919 -1.23701,1.85165 -1.77422,2.82538 -0.31726,0.57505 -0.51644,1.20779 -0.78224,1.80836 -0.20751,0.46883 -0.52898,0.89865 -0.63765,1.3997 -0.0625,0.28827 0.0965,0.58198 0.14476,0.87297 0.33657,0.24731 0.63621,0.55496 1.00967,0.74193 1.53369,0.76782 3.01885,0.95519 4.71342,1.25595 4.17351,0.74073 8.36949,1.1197 12.58631,1.51687 14.47163,0.86537 -3.62508,-0.31408 10.32947,0.89679 1.69233,0.14685 3.39465,0.15486 5.08727,0.29818 1.44198,0.12209 2.8746,0.33732 4.31282,0.49774 5.38295,0.60043 2.23737,0.15559 6.99579,0.90912 2.09667,0.23719 4.12131,0.79512 6.15006,1.33844 1.56257,0.41847 1.00057,-0.0576 1.75119,0.95943 0,0 -2.90576,1.93694 -2.90576,1.93694 v 0 c -1.10241,-0.57998 -2.19874,-0.90305 -3.39317,-1.26273 -2.78717,-0.83929 -1.00076,-0.37565 -4.25537,-1.10038 -1.12001,-0.10154 -2.24505,-0.15766 -3.36,-0.30462 -2.63641,-0.34748 -5.0691,-1.00068 -7.7302,-1.23789 -1.73289,-0.15447 -3.47988,-0.0828 -5.2151,-0.20803 -3.41291,-0.24635 -6.79325,-0.86379 -10.21958,-0.96821 -1.52953,-0.15974 -3.05546,-0.35886 -4.58859,-0.47922 -4.4278,-0.34762 -4.36795,-0.0127 -8.46529,-0.76004 -0.93559,-0.17065 -1.84899,-0.44642 -2.7696,-0.68501 -0.74285,-0.19253 -1.55536,-0.2253 -2.22039,-0.60823 -0.40976,-0.23596 -0.55446,-0.76613 -0.83169,-1.1492 -0.0955,-0.33448 -0.33216,-0.65864 -0.28633,-1.00345 0.11417,-0.85948 1.55252,-2.9402 1.83279,-3.43744 0.49213,-0.8732 0.90546,-1.78964 1.40597,-2.65807 4.82852,-8.37773 -0.33607,1.29839 4.73171,-8.453 0.80914,-1.86823 1.58757,-3.75007 2.42744,-5.60469 1.03764,-2.29138 2.2243,-4.51539 3.20442,-6.83194 1.71434,-4.051769 4.10639,-11.031535 5.48574,-15.156599 0.86408,-2.58405 1.75109,-5.161928 2.5219,-7.775315 0.71255,-2.415821 1.28429,-4.870958 1.92644,-7.306437 0.48691,-2.248178 1.01234,-4.488355 1.46071,-6.744533 1.12032,-5.637276 0.89987,-5.230802 1.71429,-10.468986 0.18206,-1.170972 0.43643,-2.330804 0.58925,-3.505951 0.0888,-0.682755 0.0308,-1.380488 0.13465,-2.061115 0.066,-0.432885 0.24802,-0.839936 0.37203,-1.259901 0,0 3.15666,-1.568971 3.15666,-1.568971 z"
       inkscape:connector-curvature="0" />
    <path
       style="opacity:1;fill:#000000;fill-opacity:0.9879902;stroke:none;stroke-width:0.60000002;stroke-miterlimit:4;stroke-dasharray:none;stroke-opacity:1"
       id="path3512"
       d="m 57.757745,200.39327 c -0.05042,-0.37611 -0.04866,-0.763 -0.151257,-1.12834 -0.144296,-0.51381 -0.417256,-0.98378 -0.58424,-1.49067 -0.229547,-0.69681 -0.404011,-1.41057 -0.604028,-2.11641 -0.260834,-0.92046 -0.568912,-1.82905 -0.778526,-2.7625 -1.717159,-7.64687 0.625761,0.49342 -1.94887,-7.80358 -2.500913,-10.26462 0.1003,1.09776 -1.858402,-9.84769 -0.289989,-1.62049 -0.823256,-3.19376 -1.070065,-4.82138 -0.249827,-1.64755 -0.245634,-3.32417 -0.416457,-4.98178 -1.065207,-10.33632 -0.154792,1.06677 -0.891172,-8.97556 0.2575,-14.43765 0.03558,4.96384 -0.179422,-7.67348 -0.01786,-1.04897 0.12953,-2.09518 0.140129,-3.14426 0.0081,-0.79814 -0.09804,-1.59501 -0.08419,-2.39307 0.02323,-1.33989 0.187092,-2.07987 0.398182,-3.34541 0.01894,-0.29571 -0.04005,-0.60709 0.0568,-0.88712 0.560425,-1.62038 4.028739,-2.93559 4.612249,-3.1994 0.184583,-0.0835 0.398795,0.0788 0.60108,0.0896 0.350274,0.0187 0.701545,-8e-4 1.052319,-0.001 5.044313,0.23123 10.093211,0.17772 15.141125,0.14473 4.20737,0.16778 8.381429,-0.58498 12.574852,-0.69577 1.213864,-0.0321 2.426854,0.12459 3.641088,0.1135 1.248978,-0.0114 2.494914,-0.12568 3.742721,-0.18095 1.072581,-0.0475 2.145583,-0.0849 3.218376,-0.12739 2.045605,-0.15677 4.08672,-0.003 6.125203,0.14761 0.43836,0.0324 0.90411,-0.0589 1.31512,0.097 0.0583,0.0221 1.00353,1.20803 1.02368,1.23303 0.0339,0.31783 0.14918,0.63741 0.10164,0.95348 -0.0666,0.44298 -0.2864,0.84896 -0.43624,1.27112 -0.15773,0.44438 -0.27476,0.90699 -0.48641,1.32836 -0.73366,1.46061 -1.30654,1.92681 -2.276026,3.27776 -0.352674,0.49144 -0.668113,1.00856 -1.002168,1.51284 -0.293896,0.46642 -0.549465,0.95931 -0.881684,1.39926 -2.316562,3.06774 -5.058402,4.53743 -8.524565,6.33902 -0.509246,0.26469 -1.080611,0.38709 -1.62092,0.58063 -5.637014,1.93643 0.940782,-0.26663 -4.415522,1.36097 -0.905479,0.27515 -1.790266,0.61558 -2.695869,0.89031 -0.866264,0.2628 -1.747218,0.47463 -2.618079,0.72177 -6.663637,1.89112 1.264267,-0.30055 -5.450517,1.54254 -2.861916,1.07418 -5.813221,1.869 -8.729792,2.76897 -0.8265,0.25504 -1.636495,0.56168 -2.463112,0.81634 -3.359822,1.03511 -0.215209,-0.10823 -3.441731,1.12832 -0.358603,0.118 -0.717207,0.236 -1.075812,0.354 0,0 2.549654,-2.00001 2.549654,-2.00001 v 0 c 0.395021,-0.14208 0.790038,-0.28415 1.185059,-0.42624 4.256754,-1.68461 -0.670158,0.17621 3.449727,-1.11806 0.881608,-0.27696 1.734383,-0.63953 2.611834,-0.92938 2.834299,-0.93629 5.777069,-1.44458 8.535075,-2.61794 5.082233,-1.4595 10.146802,-2.97599 15.188771,-4.56807 0.615783,-0.27034 1.185886,-0.9324 1.847347,-0.811 0.551807,0.10126 -1.747501,1.35012 -1.42999,0.88759 0.349501,-0.50913 1.059677,-0.64339 1.533903,-1.03897 0.352885,-0.29435 0.618127,-0.68018 0.930796,-1.01695 1.838698,-1.98043 0.905428,-0.82977 2.43912,-2.9287 0.671951,-1.02592 1.387663,-2.02357 2.033746,-3.06598 0.297799,-0.48048 0.530357,-0.99981 0.834239,-1.47646 0.848794,-1.33138 1.584126,-1.69613 1.138746,-3.29031 -0.639033,-1.05173 -0.830284,-0.95156 -2.091759,-1.09317 -2.006119,-0.2252 -3.968848,-0.0451 -5.981578,-0.20103 -4.335973,0.16019 -2.134831,0.1394 -6.603529,0.0512 -2.093744,0.0469 -6.474569,0.4356 -8.513191,0.52671 -1.33476,0.0597 -2.67153,0.0594 -4.007393,0.0842 -1.273442,0.0237 -2.546998,0.0408 -3.820496,0.0612 -6.70752,0.46447 -1.166976,0.20414 -7.130465,0.18809 -2.488774,-0.007 -2.728764,0.16537 -5.048919,-0.002 -0.562962,-0.0406 -1.115735,-0.19059 -1.67966,-0.21428 -0.521425,-0.0219 -1.042471,0.052 -1.563706,0.078 -2.303679,0.19084 -2.489202,0.54264 0.682609,-1.406 0.146423,-0.09 -0.301609,0.17361 -0.421775,0.29646 -0.606459,0.62003 -0.5584,0.78653 -0.875821,1.63303 0.04411,0.40807 0.142434,0.8139 0.132316,1.22423 -0.03654,1.48195 -0.512339,2.93508 -0.375253,4.43134 -0.0099,1.00248 0.137937,2.00336 0.11114,3.00552 -0.200411,7.49482 -0.59754,0.0499 0.02775,7.73714 0.105489,1.46352 0.230761,2.92576 0.316468,4.39057 0.09256,1.58195 0.02551,3.17607 0.218278,4.74895 0.194046,1.58319 0.71994,3.11217 0.938874,4.69211 0.236432,1.70622 0.183214,3.44459 0.424963,5.15006 0.468498,3.30511 1.582362,6.50027 1.805112,9.85043 0.498626,1.34106 0.995305,2.68284 1.495878,4.02317 0.4168,1.11603 0.945626,2.19578 1.256247,3.34589 0.25926,0.95993 0.156546,1.9979 0.444079,2.94975 0.205626,0.68069 0.768742,1.20939 1.013939,1.87685 0.321529,0.87524 0.175794,1.87448 0.542295,2.74422 0,0 -3.203921,1.73261 -3.203921,1.73261 z"
       inkscape:connector-curvature="0" />
    <path
       style="opacity:1;fill:#000000;fill-opacity:0.9879902;stroke:none;stroke-width:0.60000002;stroke-miterlimit:4;stroke-dasharray:none;stroke-opacity:1"
       id="path3514"
       d="m 90.000152,196.90851 c 0.09892,-0.33555 0.132363,-0.69786 0.296741,-1.00667 0.353102,-0.66335 0.865092,-1.23143 1.240973,-1.88215 2.980131,-5.15914 -1.03174,0.97193 2.932848,-5.24212 0.796472,-1.24838 1.660879,-2.45222 2.474497,-3.6895 0.915373,-1.39201 1.808191,-2.79874 2.712286,-4.1981 3.300993,-5.33828 6.961693,-10.45759 9.958773,-15.98244 0.96278,-1.77479 1.78781,-3.62093 2.67195,-5.43618 3.36648,-6.97681 1.70518,-3.55192 4.98245,-10.27535 0.66766,-1.42629 1.29408,-2.87262 2.00297,-4.27887 0.63046,-1.25068 1.35866,-2.44985 2.01316,-3.68812 2.03879,-3.85723 0.67203,-1.63387 2.70522,-4.95249 0.30981,-0.50569 0.59858,-1.02675 0.95183,-1.50311 0.25587,-0.34505 0.57914,-0.6346 0.86871,-0.9519 -0.8271,0.25891 3.50437,-2.93411 4.67724,-1.75244 0.26078,0.26272 0.13665,0.73932 0.31008,1.06636 0.26021,0.49066 0.73052,0.85294 0.97278,1.3527 0.68475,1.41258 0.88019,3.1217 1.15882,4.62816 1.30324,4.59152 1.1029,9.37705 1.17623,14.09451 0.10967,7.05581 0.11537,1.23933 0.0567,8.34248 -0.93134,10.20048 0.24981,-1.61795 -1.02945,8.1101 -0.14498,1.10251 -0.14854,2.22111 -0.3054,3.322 -0.14085,0.98853 -0.42502,1.9522 -0.58648,2.93758 -0.71204,4.34548 0.24082,0.22111 -0.69735,3.96395 -0.22009,0.91334 -0.54347,1.76228 -1.03306,2.55764 0,0 -3.3104,1.40115 -3.3104,1.40115 v 0 c 0.20835,-0.18106 0.47621,-0.31071 0.62504,-0.54318 0.36345,-0.56767 -0.17513,-1.51252 0.62217,-1.92407 0.20397,-0.82156 0.85772,-3.39124 0.94541,-4.05978 0.118,-0.89969 0.009,-1.82137 0.14754,-2.71817 0.18597,-1.20622 0.59069,-2.36962 0.82161,-3.56804 0.73036,-3.79025 0.62975,-4.10663 0.89642,-8.00833 -0.52395,-8.54396 -0.11853,0.58574 -0.0177,-8.33848 0.0427,-3.77664 -0.1731,-4.04486 -0.56646,-7.66895 -0.85392,-7.86744 0.20853,1.01806 -0.68921,-6.31453 -1.29978,-3.70376 -0.37882,-0.95332 -1.42644,-4.39059 -0.15625,-0.51266 -0.24508,-1.05401 -0.48681,-1.53234 -0.14046,-0.27792 -0.36892,-0.52287 -0.63423,-0.68589 -0.19703,-0.12107 -0.84761,0.0389 -0.68273,-0.12332 0.67258,-0.66154 1.58283,-1.02695 2.37424,-1.54043 -0.28739,0.29583 -0.61655,0.55616 -0.86216,0.8875 -0.33507,0.45201 -0.58162,0.96335 -0.86858,1.44733 -0.42165,0.71116 -0.81897,1.43699 -1.25722,2.13804 -0.63896,1.02214 -1.36442,1.99005 -1.97358,3.03022 -0.36109,0.61656 -4.14,7.85497 -4.24757,8.06042 -3.44612,6.7272 -1.80587,3.30855 -4.91683,10.25785 -0.9836,1.93704 -2.15424,3.77354 -3.19809,5.67878 -1.00615,1.83642 -1.90967,3.729 -2.95147,5.54543 -2.12274,3.70111 -4.20413,6.71061 -6.55738,10.25072 -0.81955,1.36182 -1.63909,2.72364 -2.458629,4.08545 -0.67719,1.16277 -1.342395,2.3326 -2.031571,3.4883 -1.570273,2.63326 -3.374006,5.19105 -4.458816,8.07866 0,0 -3.349144,1.53021 -3.349144,1.53021 z"
       inkscape:connector-curvature="0" />
    <path
       style="opacity:1;fill:#000000;fill-opacity:0.9879902;stroke:none;stroke-width:0.60000002;stroke-miterlimit:4;stroke-dasharray:none;stroke-opacity:1"
       id="path3516"
       d="m 107.53726,175.07261 c 1.46971,-0.85234 3.91212,-2.27313 4.82754,-2.72723 0.36929,-0.18319 0.79739,-0.20968 1.19421,-0.32132 1.72072,-0.48408 2.47882,-0.78959 4.3314,-1.03996 0.83116,-0.11232 1.6732,-0.11912 2.50981,-0.17869 6.60277,-0.6231 -0.51388,-0.0605 5.57857,-0.23574 0.99322,-0.0286 1.98061,-0.17826 2.97391,-0.20361 0.83691,-0.0214 1.67501,0.11292 2.51074,0.0636 5.75507,-0.33941 0.30895,-0.50019 4.61858,-0.28421 1.29659,0.13596 2.57565,-0.0366 3.85203,-0.23538 0,0 -3.06929,2.28259 -3.06929,2.28259 v 0 c -1.19449,-0.0512 -2.38215,-0.19186 -3.57783,-0.0148 -2.38662,-0.0228 -4.7419,0.11398 -7.12542,0.23068 -1.86378,0.0913 -3.7316,0.0814 -5.59535,0.1732 -0.95083,0.0468 -1.89828,0.14706 -2.84742,0.2206 -2.28714,0.31015 -4.57462,0.6152 -6.79295,1.28248 -0.45729,0.13755 -1.695,0.81333 -1.34783,0.48544 0.60615,-0.5725 1.46704,-0.79697 2.16331,-1.25565 0.31382,-0.20673 -0.67456,0.33141 -1.01184,0.49711 0,0 -3.19217,1.26089 -3.19217,1.26089 z"
       inkscape:connector-curvature="0" />
    <path
       style="opacity:1;fill:#000000;fill-opacity:0.9879902;stroke:none;stroke-width:0.60000002;stroke-miterlimit:4;stroke-dasharray:none;stroke-opacity:1"
       id="path3518"
       d="m 139.09316,184.44019 c -0.23911,-1.98237 0.20957,-3.9862 0.22613,-5.97234 0.0112,-1.33963 -0.15764,-2.67731 -0.13419,-4.01678 0.22087,-12.61468 0.52871,2.63893 0.13122,-10.41754 -0.27577,-7.95592 -0.22785,-3.63121 -0.0829,-11.89619 0.0362,-2.06635 0.0301,-4.13373 0.10125,-6.19917 0.0696,-2.02011 0.26911,-4.03478 0.32088,-6.05543 0.26741,-10.4391 -0.47013,-0.69162 0.44311,-10.56357 0.28824,-5.84543 -0.0399,-2.29996 0.76432,-7.5881 0.12544,-0.82486 0.11579,-1.67654 0.34257,-2.47948 0.60179,-2.13071 2.37165,-3.27778 4.6551,-3.74575 0.56077,-0.11492 0.90833,0.69686 1.36249,1.04529 1.68872,3.22624 3.20694,6.53228 4.69597,9.85399 0.7564,1.68735 1.43436,3.41135 2.25549,5.06816 5.9344,11.97397 0.2269,-1.14848 5.685,11.99204 1.03254,2.13992 2.07794,4.27368 3.09762,6.41976 3.00488,6.32425 2.62678,5.89653 5.81315,11.92452 0.88949,1.68274 1.80588,3.35165 2.7536,5.00229 0.80326,1.39904 1.76252,2.70936 2.49834,4.14502 0.60547,1.18134 1.00929,2.45561 1.51394,3.68341 3.51386,5.88905 0.01,-0.13779 2.8014,5.06757 0.31933,0.59538 0.72147,1.14526 1.02154,1.75057 0.39431,0.79539 0.54846,1.75841 1.13056,2.47071 0.15896,0.19452 0.4126,0.28668 0.61889,0.43002 1.07041,-0.47636 -2.31498,1.03222 -2.48968,0.97153 -0.57359,-0.19928 0.52385,-1.1006 0.70086,-1.68145 0.26796,-0.87937 0.41668,-1.79075 0.62973,-2.68501 1.39912,-5.87275 0.59177,-2.15071 1.91035,-8.78926 0.30071,-1.86817 0.6243,-3.7328 0.90213,-5.6045 0.29924,-2.01592 0.44548,-4.05595 0.82895,-6.05756 0.40885,-2.13414 1.0778,-4.211 1.54483,-6.33318 0.40965,-1.8614 0.68361,-3.75074 1.08445,-5.61406 1.83651,-8.53708 0.73637,-1.71102 1.78886,-9.0924 0.69295,-1.86231 0.56155,-3.88277 1.02069,-5.78696 0.18076,-0.7497 0.50158,-1.45853 0.75237,-2.1878 0,0 3.08364,-1.4794 3.08364,-1.4794 v 0 c -0.24903,0.72555 -0.54424,1.43687 -0.74709,2.17666 -0.23294,0.84959 -0.37201,1.72216 -0.55802,2.58324 -0.33366,1.15391 -0.66733,2.30783 -1.00099,3.46174 -1.11896,5.72315 -0.59209,2.7338 -1.55186,8.97308 -0.36827,1.91388 -0.88935,3.79561 -1.28504,5.70401 -1.24368,5.99842 -2.07775,12.07064 -3.39985,18.05354 -0.97816,7.98488 -0.002,1.51223 -1.52521,8.63056 -0.23084,1.07893 -0.98449,9.77675 -4.82082,6.60031 -0.5303,-1.00108 -0.1593,-0.47743 -1.2526,-1.46204 -0.2713,-0.45029 -0.27553,-1.01859 -0.4858,-1.50041 -0.26968,-0.61794 -0.64046,-1.18674 -0.94862,-1.78642 -1.3152,-2.55938 -1.20809,-2.42281 -2.4904,-5.24975 -3.72368,-6.17968 -0.4581,-0.45225 -4.02772,-7.82078 -0.83098,-1.71533 -1.81489,-3.35475 -2.62242,-5.08125 -0.90717,-1.93955 -1.63751,-3.95777 -2.51824,-5.90947 -2.32313,-5.14806 -3.61091,-7.49614 -6.205,-12.54824 -6.44812,-11.87307 -0.42707,-0.2795 -5.73253,-11.96527 -1.60075,-3.52581 -2.96046,-5.63025 -4.58049,-9.05714 -0.52145,-1.10303 -0.85865,-2.2923 -1.43914,-3.36544 -0.39526,-0.73072 -0.98,-1.34177 -1.47001,-2.01266 -0.49415,-0.34643 -3.78946,-2.13504 0.86941,-2.21287 0.50477,-0.008 -0.42855,0.92106 -0.55055,1.41094 -0.20369,0.81796 -0.26186,1.66577 -0.42173,2.49342 -1.10324,5.71122 -0.55521,1.41123 -1.11579,7.74165 -0.40554,3.66571 -0.85972,7.08881 -0.94179,10.79182 -0.33721,15.21496 0.64261,-3.84342 0.15162,11.95989 -0.0656,2.11078 -0.36648,4.21051 -0.41592,6.32173 -0.045,1.92029 0.0886,3.84061 0.13295,5.76092 0.0664,1.77122 0.16464,3.54153 0.19925,5.31365 0.0587,3.00621 -0.0925,6.015 5.3e-4,9.02033 0.0299,0.9634 0.20272,1.91972 0.21636,2.88349 0.014,0.9883 -0.21787,1.96877 -0.18809,2.95922 0,0 -3.04712,1.55259 -3.04712,1.55259 z"
       inkscape:connector-curvature="0" />
    <path
       style="opacity:1;fill:#000000;fill-opacity:0.9879902;stroke:none;stroke-width:0.60000002;stroke-miterlimit:4;stroke-dasharray:none;stroke-opacity:1"
       id="path3520"
       d="m 201.22475,190.042 c 0.0265,-2.42975 -0.0975,1.45635 0.50271,-2.40297 0.10384,-0.66769 -0.004,-1.35389 0.0644,-2.02612 0.10641,-1.04391 0.9006,-5.6003 0.98841,-6.4123 0.14129,-1.30646 0.16971,-2.62267 0.25457,-3.934 0.71352,-4.60234 1.75141,-9.13821 2.05133,-13.79769 0.0877,-1.36219 -1.5e-4,-2.73214 0.0931,-4.09396 0.0888,-1.29639 0.32827,-2.57845 0.45236,-3.87193 0.10478,-1.09223 0.15605,-2.18892 0.23407,-3.28338 0.79006,-3.31132 0.69713,-2.29183 0.92382,-5.27853 0.0457,-0.60261 0.003,-1.21396 0.10163,-1.81019 0.096,-0.57969 0.33442,-1.12689 0.47903,-1.6964 0.0121,-0.0475 0.4988,-2.29231 0.5369,-2.46791 -0.0256,-0.67343 -0.014,-1.3403 -0.081,-2.01069 0,0 3.11637,-1.55007 3.11637,-1.55007 v 0 c -0.008,0.74301 0.22848,1.37959 -0.0886,2.11241 -0.29618,2.98696 0.20476,-1.30268 -0.56519,2.47792 -0.0586,0.28755 -0.26863,3.23874 -0.28606,3.36967 -0.23595,1.77246 -0.68866,3.60865 -1.07281,5.34344 -0.98046,8.35523 -1.69928,16.74013 -2.87591,25.07187 -0.20428,1.64397 -0.72259,5.68167 -0.88604,7.46659 -0.0849,0.92724 -0.12963,1.85775 -0.18541,2.78719 -0.0412,0.68665 0.008,1.38257 -0.10555,2.06094 -0.0902,0.53664 -0.41967,1.0155 -0.50194,1.55342 -0.0392,0.25631 0.0984,0.50917 0.14754,0.76375 0,0 -3.29772,1.62894 -3.29772,1.62894 z"
       inkscape:connector-curvature="0" />
    <path
       style="opacity:1;fill:#000000;fill-opacity:0.9879902;stroke:none;stroke-width:0.60000002;stroke-miterlimit:4;stroke-dasharray:none;stroke-opacity:1"
       id="path3522"
       d="m 213.05266,124.13625 c -0.0407,0.26915 -0.20206,0.54729 -0.12199,0.80745 0.0791,0.25719 0.39065,0.37375 0.55184,0.58923 0.36932,0.49371 0.40439,0.87418 0.85737,1.30949 0.30766,0.29566 1.05198,0.67676 1.41749,0.87926 0.64661,-0.10564 1.18483,0.2948 1.78749,0.38656 0.30577,0.0465 0.62121,-0.0163 0.92748,0.0269 0.19273,0.0271 0.36115,0.16281 0.55485,0.1819 0.0756,0.007 1.19365,-0.0909 1.34603,-0.10388 1.24849,-0.43088 2.09156,-0.75657 -2.193,1.34924 -0.13094,0.0643 0.19334,-0.21887 0.28234,-0.33448 0.60359,-0.78415 0.29582,-0.23545 0.41189,-1.0048 0.0305,-0.20201 0.0928,-0.39792 0.13914,-0.59688 0.1009,-0.57086 0.10942,-1.13354 0.0729,-1.70871 -0.0117,-0.18491 0.0932,-0.42094 -0.035,-0.55474 -0.78669,-0.19511 -0.49685,5.3e-4 -0.9402,-0.46491 -0.33382,-0.16743 -1.44959,-0.61658 -1.80518,-0.5554 -0.33043,0.0569 -0.8869,0.32765 -1.23913,0.49065 0.89162,-0.44192 1.72019,-1.0449 2.67485,-1.32576 0.31378,-0.0923 -0.45942,0.46854 -0.6542,0.73129 -0.8103,1.09308 -0.2689,0.39051 -0.52691,1.46138 -0.48304,2.00489 -0.2058,-0.19472 -0.38073,1.58176 0.1785,0.49255 -0.28719,0.90337 -0.26156,1.36639 0.009,0.15975 0.20381,0.25536 0.25404,0.40728 0.20215,0.61143 -0.13555,0.63192 0.37184,1.27104 0.75495,0.59151 -0.21817,-0.10414 0.75719,0.3509 0.0985,0.0459 0.138,0.20415 0.24624,0.21359 0.23566,0.0205 0.4611,-0.1203 0.69739,-0.13131 0.083,-0.004 0.15551,0.0586 0.23327,0.0879 0.13345,-0.0295 0.2669,-0.059 0.40035,-0.0884 0,0 -3.02371,2.28726 -3.02371,2.28726 v 0 c -0.5527,-0.30554 -1.29419,0.0632 -1.79344,-0.2392 -0.11981,-0.0726 -0.10262,-0.28312 -0.2216,-0.35704 -0.18341,-0.11396 -0.41689,-0.11279 -0.62533,-0.16918 -0.124,-0.39558 -0.496,-1.05594 -0.50519,-1.43437 -0.0161,-0.6637 0.46358,-1.26004 0.11462,-1.92201 0.0549,-0.62788 0.047,-0.99538 0.27877,-1.60673 0.12054,-0.31789 0.33084,-0.59625 0.45559,-0.91251 0.16001,-0.40563 0.16502,-1.10088 0.56895,-1.40357 1.26808,-0.95022 2.6593,-1.72391 3.98894,-2.58588 0.65515,-0.14654 0.92312,-0.10463 1.57161,-0.0502 0.22327,0.0187 0.46101,-0.0555 0.67185,0.0203 0.14231,0.0512 0.20588,0.22157 0.30882,0.33235 0.24417,0.0395 0.48834,0.0789 0.73251,0.11838 0.13842,0.10947 0.31976,0.18 0.41527,0.3284 0.10356,0.16091 0.0845,0.37455 0.15232,0.5535 0.12035,0.31766 0.63375,1.24916 0.65421,1.56147 0.0142,0.21706 -0.0749,0.42855 -0.11231,0.64282 -0.0959,0.23983 -0.19177,0.47965 -0.28766,0.71947 -0.0101,0.17732 0.0337,0.36625 -0.0302,0.53197 -0.0937,0.24306 -0.3122,0.42066 -0.42721,0.6544 -0.0557,0.11312 0.0289,0.30182 -0.077,0.37032 -3.15548,2.04196 -2.44714,1.83516 -4.31978,2.22198 -1.29857,0.1111 -0.0693,0.0461 -1.30141,1.2e-4 -0.28408,-0.0106 -0.56934,0.0239 -0.85283,0.003 -0.87194,-0.0654 -1.63724,-0.41731 -2.43478,-0.7459 -0.24233,-0.16012 -0.47964,-0.32809 -0.72698,-0.48036 -0.26557,-0.16349 -0.57386,-0.26392 -0.81101,-0.46646 -0.49765,-0.42504 -0.61015,-0.90672 -0.92786,-1.44722 -0.14313,-0.24349 -0.38519,-0.43593 -0.46915,-0.70562 -0.0765,-0.24567 0.006,-0.51456 0.009,-0.77184 0,0 3.19869,-1.67018 3.19869,-1.67018 z"
       inkscape:connector-curvature="0" />
    <path
       style="opacity:1;fill:#000000;fill-opacity:0.9879902;stroke:none;stroke-width:0.60000002;stroke-miterlimit:4;stroke-dasharray:none;stroke-opacity:1"
       id="path3526"
       d="m 256.29664,130.06019 c -1.10663,0.011 -2.18468,0.1354 -3.28172,0.27773 -0.89293,0.11584 -2.11964,0.22535 -2.98029,0.50593 -0.69792,0.22753 -1.35801,0.55792 -2.03702,0.83688 -1.14957,0.50799 -2.53701,1.05744 -3.56833,1.78648 -0.23466,0.16588 1.03272,-0.47812 0.80915,-0.29756 -0.75533,0.61003 -1.62871,1.05767 -2.42969,1.60636 -2.13117,1.4599 -2.89185,2.07099 -4.98966,3.65041 -1.4846,1.67416 -3.31256,2.98355 -4.90058,4.54675 -0.5482,0.53964 -4.66296,5.13022 -5.03046,5.60202 -0.68483,0.87917 -1.23904,1.8527 -1.85817,2.77931 -0.66036,0.9883 -1.32021,1.97695 -1.98032,2.96543 -0.4642,1.87606 -1.55623,3.5138 -2.1473,5.33852 -0.28953,0.89381 -0.7837,3.80256 -0.88677,4.82069 -0.0774,0.76453 -0.20674,1.53815 -0.12314,2.30204 0.0843,0.76981 0.41342,1.49262 0.62013,2.23893 0.86517,2.82198 2.33178,5.37853 4.18815,7.66608 0.67859,0.83622 1.46803,1.57644 2.17876,2.38551 3.22816,3.67483 0.86972,1.51818 4.83035,4.64887 2.72961,1.97258 5.32401,4.19511 8.28524,5.8314 0.97082,0.53645 2.01429,0.93023 3.00611,1.42678 1.61966,0.81088 3.40634,1.82332 4.99835,2.70761 3.52955,1.20759 1.23894,0.38917 4.45276,1.61352 0.56849,0.21658 1.15256,0.39451 1.70893,0.64054 0.40839,0.1806 0.76026,0.48073 1.17876,0.63647 0.39318,0.14631 1.77528,0.34802 2.24907,0.42328 0,0 -3.3274,2.30406 -3.3274,2.30406 v 0 c -1.48358,-0.71608 0.032,-0.0325 -1.89998,-0.71286 -1.87194,-0.6592 -0.95061,-0.42927 -2.93299,-1.27525 -1.41641,-0.60444 -2.89382,-1.0611 -4.27566,-1.7501 -2.44756,-1.4404 -2.3045,-1.42355 -5.01785,-2.71591 -1.01944,-0.48556 -2.10532,-0.83751 -3.0857,-1.39778 -3.35556,-1.91763 -1.99167,-1.78189 -5.16123,-4.01521 -0.99785,-0.7031 -2.10311,-1.23982 -3.15466,-1.85974 -0.9073,-0.72579 -1.8799,-1.37673 -2.72189,-2.17736 -0.80083,-0.7615 -1.4729,-1.64817 -2.18763,-2.491 -1.42204,-1.67691 -2.70059,-3.24448 -3.88461,-5.10179 -0.54037,-0.84764 -0.98366,-1.75349 -1.48962,-2.6221 -0.45267,-0.77713 -0.92406,-1.54321 -1.38609,-2.31481 -0.12983,-0.81565 -0.37844,-1.6211 -0.38948,-2.44694 -0.0115,-0.85882 0.59609,-3.89734 0.71498,-4.78222 0.10959,-0.8157 0.0234,-1.66507 0.24935,-2.45647 0.1031,-0.36112 2.33302,-5.17683 2.52034,-5.58414 0.32895,-0.54233 3.0666,-5.09368 3.49345,-5.65027 0.81634,-1.06445 1.7733,-2.01347 2.67846,-3.0035 2.35289,-2.5735 4.77058,-5.10594 7.47596,-7.31577 1.59942,-1.19286 3.16743,-2.42831 4.78763,-3.59279 2.52417,-1.81418 4.76558,-3.11961 7.56784,-4.77965 0.62699,-0.37142 1.2644,-0.727 1.91841,-1.04845 0.5918,-0.29088 1.21009,-0.52441 1.81513,-0.78662 1.67403,-0.49778 3.3518,-1.05261 5.08986,-1.28608 0.44959,-0.0604 0.90536,-0.0586 1.35805,-0.0879 0.32766,0.003 0.65745,0.0478 0.98297,0.0103 0.36115,-0.0417 0.70832,-0.16422 1.06248,-0.24633 0,0 -3.09243,2.24679 -3.09243,2.24679 z"
       inkscape:connector-curvature="0" />
  </g>
</svg>
