<?xml version="1.0" encoding="UTF-8" standalone="no"?>
<!-- Created with Inkscape (http://www.inkscape.org/) -->

<svg
   xmlns:dc="http://purl.org/dc/elements/1.1/"
   xmlns:cc="http://creativecommons.org/ns#"
   xmlns:rdf="http://www.w3.org/1999/02/22-rdf-syntax-ns#"
   xmlns:svg="http://www.w3.org/2000/svg"
   xmlns="http://www.w3.org/2000/svg"
   xmlns:sodipodi="http://sodipodi.sourceforge.net/DTD/sodipodi-0.dtd"
   xmlns:inkscape="http://www.inkscape.org/namespaces/inkscape"
   width="1920"
   height="1080"
   viewBox="0 0 508.00002 285.74999"
   version="1.1"
   id="svg8"
   inkscape:version="0.92.4 5da689c313, 2019-01-14"
   sodipodi:docname="024.svg">
  <defs
     id="defs2">
    <clipPath
       clipPathUnits="userSpaceOnUse"
       id="clipPath3044">
      <rect
         style="opacity:1;fill:#000000;fill-opacity:1;stroke:none;stroke-width:0.60000002;stroke-miterlimit:4;stroke-dasharray:none;stroke-opacity:1"
         id="rect3046"
         width="243.21527"
         height="226.00311"
         x="320.13846"
         y="134.60152" />
    </clipPath>
  </defs>
  <sodipodi:namedview
     id="base"
     pagecolor="#ffffff"
     bordercolor="#666666"
     borderopacity="1.0"
     inkscape:pageopacity="0.0"
     inkscape:pageshadow="2"
     inkscape:zoom="0.70710678"
     inkscape:cx="663.27836"
     inkscape:cy="517.99082"
     inkscape:document-units="mm"
     inkscape:current-layer="layer1"
     showgrid="false"
     units="px"
     inkscape:window-width="1920"
     inkscape:window-height="1053"
     inkscape:window-x="1366"
     inkscape:window-y="27"
     inkscape:window-maximized="0"
     showguides="true" />
  <metadata
     id="metadata5">
    <rdf:RDF>
      <cc:Work
         rdf:about="">
        <dc:format>image/svg+xml</dc:format>
        <dc:type
           rdf:resource="http://purl.org/dc/dcmitype/StillImage" />
        <dc:title />
      </cc:Work>
    </rdf:RDF>
  </metadata>
  <g
     inkscape:label="Capa 1"
     inkscape:groupmode="layer"
     id="layer1"
     transform="translate(0,-11.250015)">
    <path
       style="opacity:1;fill:#000000;fill-opacity:1;stroke:none;stroke-width:0.60000002;stroke-miterlimit:4;stroke-dasharray:none;stroke-opacity:1"
       id="path3912"
       d="m 248.46877,118.6168 c -0.0545,-0.0225 -0.10662,-0.0834 -0.16341,-0.0676 -0.2237,0.0621 -0.41962,0.1992 -0.6337,0.28905 -0.14584,0.0612 -0.58171,0.24394 -0.44534,0.16381 0.81159,-0.47689 1.61269,-0.983 2.47641,-1.35727 0.3104,-0.13451 -0.55402,0.39308 -0.79626,0.62921 -0.25999,0.25343 -0.46858,0.55471 -0.70287,0.83207 -2.29521,2.95404 -3.48281,6.48797 -4.51476,10.03374 -0.70068,2.30376 -0.92436,4.71122 -1.0691,7.10385 -0.0496,0.8203 -0.12122,1.6424 -0.0922,2.46369 0.0277,0.78374 0.17492,1.55867 0.26188,2.33805 0.0859,0.76987 0.17114,1.53981 0.25672,2.30971 0.43624,3.12136 -0.0172,1.44782 1.19068,4.20075 0.81139,1.84933 0.59864,1.91513 1.96744,3.40374 0.43354,0.47149 0.95388,0.85519 1.42294,1.29136 0.44074,0.40983 0.87084,0.83096 1.30626,1.24644 0.40582,0.40225 0.75448,0.87189 1.21748,1.20676 0.47512,0.34363 1.02811,0.56724 1.56411,0.80501 0.49669,0.22032 0.9978,0.44959 1.52838,0.56678 1.54354,0.34091 3.18883,0.15466 4.72627,-0.068 2.5447,-0.80152 0.36622,-0.0219 3.10199,-1.3247 0.48882,-0.23277 -1.12149,1.20493 -1.43398,0.7628 -0.3102,-0.43889 0.8534,-0.65352 1.28249,-0.97714 2.23665,-1.68688 1.01841,-0.68457 3.04396,-2.45722 1.56971,-1.22288 2.80786,-2.69108 4.02372,-4.24415 0.93906,-1.19954 1.54284,-1.85477 2.29574,-3.16657 0.27159,-0.4732 0.47464,-0.98257 0.71194,-1.47385 0.33062,-0.52798 0.7058,-1.03056 0.99187,-1.58394 0.2308,-0.44642 0.3678,-0.93538 0.55221,-1.40287 0.24215,-0.61396 0.86985,-2.09047 0.97399,-2.77266 0.0595,-0.39007 -0.0442,-0.78916 -0.0283,-1.18343 0.0175,-0.43365 0.0856,-0.86379 0.12838,-1.29568 0.40214,-1.3353 -0.0839,-2.30685 -0.51975,-3.52639 -0.12806,-0.35832 -0.18113,-0.74631 -0.3542,-1.0852 -1.4954,-2.92857 0.0639,1.14472 -1.04396,-1.97686 -2.08045,-2.38213 0.64143,0.68278 -1.50739,-1.57374 -0.2328,-0.24449 -0.38513,-0.57145 -0.65855,-0.76947 -0.31736,-0.22985 -0.77914,-0.22261 -1.07151,-0.48352 -1.6923,-1.51031 1.283,-0.36605 -1.56501,-1.16701 -1.41393,-0.74506 -0.41978,-0.2557 -1.91793,-0.90313 -0.31758,-0.13725 -0.6175,-0.3203 -0.948,-0.42267 -0.39146,-0.12125 -0.82772,-0.084 -1.20493,-0.24421 -0.2709,-0.11503 -0.45615,-0.37201 -0.68422,-0.55802 -0.33526,-0.10205 -0.67051,-0.20409 -1.00577,-0.30614 -0.3502,-0.077 -0.70582,-0.13246 -1.05059,-0.23094 -0.85459,-0.24411 -0.9128,-0.45358 -1.83358,-0.51303 -0.3957,-0.0256 -0.79175,0.0579 -1.18827,0.0557 -0.42036,-0.002 -1.20152,-0.10302 -1.63865,-0.15369 -0.33652,0.0687 -0.67304,0.13746 -1.00956,0.20619 -0.18479,-0.0125 -0.37219,-0.071 -0.55436,-0.0375 -0.27639,0.0508 -0.53172,0.18262 -0.79341,0.28504 -0.19639,0.0769 -0.76095,0.36105 -0.5801,0.25254 3.09222,-1.85538 2.74359,-1.63027 1.70419,-0.84367 -1.2598,1.21553 0.16762,-0.24682 -0.639,0.79624 -0.15055,0.19468 -0.35419,0.34419 -0.50439,0.53913 -0.31376,0.40722 -0.57056,0.92403 -0.77468,1.39361 -0.0354,0.12719 -0.0708,0.25439 -0.10618,0.38158 0,0 -3.55448,1.58709 -3.55448,1.58709 v 0 c 0.13825,-0.16938 0.27651,-0.33877 0.41476,-0.50814 0.19303,-0.74569 -0.0215,-0.0941 0.446,-0.93627 0.0813,-0.14651 0.12261,-0.31331 0.20669,-0.45826 0.33975,-0.58576 0.81958,-1.08522 1.33193,-1.51989 1.60955,-1.26735 0.72523,-0.616 4.12951,-2.53633 0.27582,-0.15559 0.55645,-0.30971 0.85641,-0.41126 0.62348,-0.21109 1.56081,-0.13175 2.20732,-0.20367 0.95889,-0.0161 1.84742,0.0754 2.79831,0.18928 0.36481,0.0437 0.73836,0.0346 1.09572,0.11996 0.64043,0.15306 1.17728,0.6446 1.88015,0.60602 2.50177,0.56669 -0.17134,-0.12294 2.00853,0.67606 0.36378,0.13334 0.75703,0.17641 1.11882,0.31503 0.32004,0.12263 0.60121,0.33182 0.91702,0.46502 2.11127,0.89057 0.12277,-0.16708 1.99155,0.89394 1.74987,1.41652 -0.36518,-0.19848 1.77411,1.09493 0.62378,0.37712 2.0108,1.58971 2.44602,2.16376 0.22299,0.29413 0.35869,0.64521 0.53803,0.96781 0.43307,0.5723 1.00107,1.2433 1.27262,1.92216 0.14994,0.37488 0.19433,0.78377 0.29363,1.17512 0.30094,1.18579 0.49181,2.37008 0.66016,3.58263 -0.0736,0.46107 -0.16078,0.92017 -0.2209,1.3832 -0.0561,0.43226 -0.0262,0.87749 -0.12758,1.30144 -0.11959,0.50021 -0.37169,0.9597 -0.52991,1.44906 -0.14396,0.44517 -0.22219,0.91042 -0.37592,1.35231 -0.33644,0.96731 -0.85968,1.99491 -1.29897,2.91452 -0.27972,0.45874 -1.65259,2.72738 -1.97125,3.18223 -0.39108,0.55821 -0.85437,1.06335 -1.24674,1.62064 -0.30316,0.43057 -0.49253,0.94163 -0.83746,1.33952 -0.88212,1.01757 -2.07979,1.73233 -2.87544,2.83798 -0.62143,0.48028 -1.24286,0.96057 -1.86431,1.44085 -0.41571,0.36124 -0.8178,0.73886 -1.2472,1.08373 -2.71797,2.18289 -5.83998,3.95877 -9.17653,4.97889 -0.59397,0.12437 -1.17749,0.31888 -1.78192,0.3731 -0.68775,0.0617 -2.51869,-0.1507 -3.15146,-0.37614 -0.48199,-0.17172 -0.89383,-0.49828 -1.34046,-0.74792 -2.08243,-1.16393 -1.07758,-0.5628 -3.13847,-1.89071 -0.44419,-0.42545 -0.87182,-0.86889 -1.33257,-1.27633 -0.50106,-0.44309 -1.14213,-0.74388 -1.55077,-1.27341 -0.40191,-0.52082 -0.49936,-1.22054 -0.81796,-1.7961 -0.33271,-0.60105 -0.83651,-1.10239 -1.13024,-1.72342 -0.42877,-0.90655 -0.97939,-3.3349 -1.21322,-4.2765 -0.29202,-2.02079 -0.46371,-2.68377 -0.44851,-4.75573 0.006,-0.84318 0.10087,-1.68338 0.15108,-2.52508 0.0477,-0.79871 0.004,-1.60814 0.14249,-2.39616 0.15301,-0.86921 0.5227,-1.68734 0.72747,-2.54584 0.18343,-0.76902 0.29056,-1.55426 0.43585,-2.33139 0.20585,-0.76328 0.4172,-1.52509 0.61756,-2.28983 0.17571,-0.67062 0.27685,-1.36345 0.51062,-2.0161 0.23351,-0.65191 0.60839,-1.24465 0.8848,-1.87956 0.21033,-0.48314 0.35246,-0.99486 0.57461,-1.47268 0.53569,-1.15224 0.77765,-1.35977 1.53927,-2.36329 0.21415,-0.28968 0.39467,-0.60753 0.64243,-0.86904 0.25652,-0.27078 0.54517,-0.51573 0.85958,-0.7164 1.31748,-0.84084 3.19225,-2.4224 5.03574,-2.50782 0,0 -2.97167,2.20049 -2.97167,2.20049 z"
       inkscape:connector-curvature="0" />
    <path
       style="opacity:1;fill:#000000;fill-opacity:1;stroke:none;stroke-width:0.60000002;stroke-miterlimit:4;stroke-dasharray:none;stroke-opacity:1"
       id="path3914"
       d="m 212.30256,53.520626 c -0.95135,0.602887 -2.95684,1.056036 1.60595,-0.916292 0.2988,-0.129162 -0.53639,0.375917 -0.76271,0.609894 -0.182,0.18815 -0.27905,0.445333 -0.44986,0.643686 -0.31368,0.364241 -0.66641,0.692946 -0.99961,1.039418 -0.23692,0.707776 -0.65774,1.338567 -0.91337,2.037612 -0.14222,0.388914 -0.20775,0.802084 -0.3316,1.197232 -0.15727,0.50179 -0.4228,0.97405 -0.5114,1.492395 -0.0889,0.520102 0.0852,2.561519 0.11752,3.030903 0.55523,1.608164 1.38443,3.129835 2.33292,4.540313 0.34388,0.511381 0.65088,1.064818 1.10272,1.483881 0.51604,0.478616 1.19262,0.750332 1.75808,1.169427 0.53971,0.40001 1.03528,0.856371 1.55292,1.284557 0.79591,0.545727 2.55115,1.803437 3.44221,2.196891 0.68692,0.303316 1.45602,0.387935 2.14716,0.681532 0.54846,0.232987 0.99045,0.686544 1.55077,0.889352 0.5584,0.202116 3.19542,0.576686 3.83305,0.673873 2.35166,0.308292 0.8763,0.221054 3.34946,0.09303 1.12229,-0.0581 1.57302,0.04391 2.65152,-0.300736 0.61559,-0.196717 1.74609,-0.779452 2.37011,-1.089014 -4.90355,2.818953 -1.15522,0.635466 -0.46689,-0.34875 0.13028,-0.18628 0.0292,-0.467225 0.13492,-0.668464 0.20058,-0.381858 0.53194,-0.680742 0.76459,-1.043956 0.20682,-0.322903 0.36729,-0.673251 0.55093,-1.009878 0.17189,-0.458891 0.67916,-1.731825 0.73661,-2.218589 0.0243,-0.205597 -0.1689,-1.950794 -0.20095,-2.125488 -0.0671,-0.365919 -0.2082,-0.715854 -0.2727,-1.082249 -0.0702,-0.398714 -0.0869,-0.805013 -0.13034,-1.207521 -0.71843,-2.065819 0.0354,-0.144317 -0.9554,-2.032146 -0.16889,-0.321807 -0.24633,-0.690488 -0.44231,-0.996556 -0.51823,-0.809363 -1.63037,-1.537639 -2.36339,-2.168887 -0.16275,-0.286718 -0.26782,-0.614995 -0.48825,-0.860161 -0.50834,-0.56538 -1.16486,-0.732813 -1.81966,-1.048332 -0.30208,-0.145557 -0.5821,-0.337237 -0.89248,-0.464118 -0.34152,-0.13961 -0.70752,-0.210514 -1.05579,-0.332314 -0.32308,-0.112991 -0.63811,-0.247791 -0.95716,-0.371684 -2.0813,-1.214284 0.93738,0.366384 -2.20507,-0.427951 -0.24145,-0.06103 -0.299,-0.441579 -0.53479,-0.521779 -0.0845,-0.02875 -2.04579,-0.05562 -2.16931,-0.06199 -0.29355,-0.01516 -0.58558,-0.05201 -0.87837,-0.07801 -0.96783,0.06683 -1.9366,0.215784 -2.87626,0.460854 -0.80579,0.210159 -1.55832,0.533477 -2.37655,0.692423 -0.53116,0.35964 -1.158,0.518464 -1.72143,0.809299 -0.28619,0.147731 -1.11399,0.647065 -0.83446,0.487077 4.51444,-2.583894 2.49179,-1.651675 1.47087,-0.550034 0,0 -3.23897,1.329663 -3.23897,1.329663 v 0 c 0.34774,-0.628687 0.16959,-0.449291 1.00367,-0.960501 1.93547,-1.186251 3.92986,-2.508676 6.09694,-3.284749 1.74518,-0.607838 3.53189,-1.030999 5.38743,-1.087879 1.64565,0.102642 0.2493,-0.03087 1.80118,0.242255 0.69746,0.122751 1.40888,0.159864 2.10371,0.29668 0.72009,0.14179 1.40752,0.427977 2.14167,0.510855 2.6505,0.96584 -0.56588,-0.256794 1.90453,0.837716 0.34302,0.151971 0.7181,0.227523 1.0543,0.394038 0.30636,0.151736 0.58084,0.361233 0.86233,0.55525 1.0531,0.725844 0.71737,0.438393 1.44661,1.456475 0.7951,0.525682 1.14673,0.636712 1.675,1.44653 0.19438,0.297977 0.27211,0.659585 0.44892,0.968304 0.18549,0.323855 0.48342,0.581313 0.63414,0.922734 0.15929,0.360834 0.12383,0.787604 0.28065,1.149517 0.15504,0.357809 0.42758,0.652251 0.64136,0.978376 0.30311,1.471605 0.19652,0.893371 0.44885,2.356673 0.0629,0.36467 0.18114,0.724416 0.18616,1.094433 0.005,0.402434 -0.13037,0.795705 -0.15504,1.197419 -0.11025,1.795 0.30371,0.264761 -0.41601,2.175645 -0.47073,1.033582 -1.00679,1.992601 -1.65989,2.924932 -0.18519,0.264364 -0.3545,0.545526 -0.58436,0.772123 -1.16847,1.151879 -4.39381,2.861823 -5.01659,3.237793 -0.41302,0.168223 -2.02104,0.829408 -2.27678,0.899404 -1.9044,0.521226 -4.18229,0.198863 -6.11729,0.1197 -1.9,-0.411954 -3.92856,-0.704649 -5.73888,-1.439159 -0.62611,-0.254034 -1.2053,-0.611576 -1.79802,-0.935961 -2.20125,-1.2047 -1.47089,-0.736703 -3.30009,-2.353889 -0.65161,-0.357018 -1.35997,-0.625869 -1.95484,-1.07106 -0.53351,-0.399275 -0.94362,-0.941863 -1.39269,-1.434192 -1.3188,-1.445816 -1.17977,-1.380374 -2.28641,-2.944717 -0.34069,-0.481603 -0.81628,-0.889651 -1.02898,-1.439903 -0.21733,-0.562247 -0.14756,-1.196512 -0.22134,-1.794769 -0.12145,-0.50405 -0.3121,-0.996315 -0.36436,-1.512149 -0.11015,-1.087197 0.18453,-3.13808 0.55309,-4.18991 0.27342,-0.780293 0.77416,-1.53597 1.19608,-2.238407 0.94273,-1.31033 0.37849,-0.600429 1.41364,-1.757629 0.16035,-0.179253 0.27494,-0.410697 0.47669,-0.541624 1.75655,-1.139944 3.30304,-2.021146 5.07801,-2.8981 0,0 -3.14662,2.429341 -3.14662,2.429341 z"
       inkscape:connector-curvature="0" />
    <path
       style="opacity:1;fill:#000000;fill-opacity:1;stroke:none;stroke-width:0.60000002;stroke-miterlimit:4;stroke-dasharray:none;stroke-opacity:1"
       id="path3916"
       d="m 224.487,172.80948 c -0.60308,-0.26052 -1.49393,-0.6035 -2.14347,-0.64501 -3.15007,-0.20132 0.51936,0.30046 -2.24244,-0.12397 -2.06034,0.0264 -4.05902,0.46587 -5.94006,1.29871 -0.51198,0.22668 -1.06381,0.39867 -1.5085,0.7389 -0.35734,0.27341 0.82663,-0.35562 1.23994,-0.53343 -0.73266,0.52056 -1.50871,0.98489 -2.19799,1.56167 -0.55206,0.46197 -1.00996,1.02604 -1.51149,1.54244 -1.28416,1.32224 -2.34077,2.32718 -3.39471,3.85011 -0.69544,1.00491 -1.64375,2.96141 -2.19208,4.03957 -0.43739,0.7682 -0.95195,1.49733 -1.31216,2.30461 -0.74508,1.66983 -0.78092,2.50799 -0.87587,4.27298 -0.0382,0.7106 -0.0884,1.42375 -0.0496,2.13432 0.0657,1.20256 0.45371,2.9461 0.68568,4.11934 0.95949,1.03329 1.03283,2.54566 1.79943,3.67314 0.89605,1.31786 2.13722,1.93788 3.30977,2.95045 2.65347,2.29142 0.29064,0.92028 3.71061,2.4826 2.01065,1.4056 4.28514,1.63465 6.64064,1.91926 1.18908,0.14366 2.93239,0.4179 4.15129,0.31792 0.75674,-0.0621 1.49374,-0.27346 2.24062,-0.41019 1.69094,-0.45896 2.28729,-0.55837 3.87071,-1.21836 0.50786,-0.21169 1.98259,-0.9555 1.48796,-0.71452 -0.59422,0.2895 -1.23816,1.22883 -1.78673,0.86007 -0.49281,-0.33128 0.92865,-0.74171 1.36715,-1.14212 0.4678,-0.42716 0.89952,-0.89221 1.34928,-1.33832 1.81047,-2.20747 3.0566,-4.86836 3.55751,-7.68816 0.0918,-0.51692 0.11732,-1.04344 0.17597,-1.56517 -0.10346,-1.8126 0.0305,-1.21301 -0.45226,-2.92705 -0.13879,-0.49275 -0.24084,-1.00036 -0.44452,-1.47002 -0.212,-0.48884 -0.55724,-0.90998 -0.79454,-1.38706 -1.20474,-2.42211 0.0602,-0.6349 -1.65378,-2.73823 -1.03051,-1.73041 -0.46551,-1.04865 -1.95474,-2.4552 -0.37673,-0.35582 -0.71531,-0.7607 -1.14183,-1.05501 -0.45638,-0.31492 -1.02266,-0.44493 -1.48199,-0.75552 -2.89081,-1.95469 1.04159,-0.0133 -2.43781,-1.57387 -1.07018,-1.02681 -2.42305,-1.36121 -3.77249,-1.8291 -0.40847,-0.14163 -0.79853,-0.33423 -1.20982,-0.46744 -1.14225,-0.36995 -1.33882,-0.33939 -2.52523,-0.49233 -3.41717,-0.29136 0.6693,0.11546 -2.03997,-0.30563 -0.29158,-0.0453 -0.58851,-0.0441 -0.88277,-0.0661 0,0 2.93105,-2.11336 2.93105,-2.11336 v 0 c 0.33059,0.005 0.66807,-0.0532 0.99177,0.0142 2.51605,0.52325 -1.98252,0.36793 2.08612,0.32557 2.47834,0.66348 -0.20903,-0.12424 2.16968,0.78453 4.42588,1.69088 -2.2471,-0.99564 2.95126,0.72445 0.9277,0.30697 1.65843,1.08081 2.64285,1.26845 2.08758,2.14548 -0.3668,-0.19951 2.28094,1.72956 1.50977,1.09998 0.74207,0.92461 2.15436,2.15413 4.52585,3.94013 -1.57812,-1.92482 2.57123,2.14393 0.24534,0.48461 0.45961,0.98623 0.73602,1.45381 0.27926,0.47241 0.69189,0.86458 0.92746,1.36023 0.24052,0.50608 0.26613,1.09357 0.48407,1.60978 0.20227,0.47907 0.60334,0.86449 0.76873,1.3575 0.28924,0.86219 0.19724,2.29493 0.18801,3.16794 -0.0588,0.98104 -0.0908,2.187 -0.31139,3.15096 -0.38397,1.67772 -0.61707,1.76106 -1.4034,3.32825 -1.11136,2.21498 -0.20248,0.80747 -1.8038,2.92892 -0.69282,0.79553 -1.5304,1.86251 -2.42246,2.45897 -3.21122,2.14715 -6.39743,3.96835 -10.18978,4.73986 -3.60055,0.48076 -0.68763,0.25182 -4.07095,0.1127 -0.85161,-0.035 -1.71042,0.0878 -2.55695,-0.0114 -2.08177,-0.24392 -4.41533,-1.37937 -6.25491,-2.32351 -0.73671,-0.33667 -1.52059,-0.58502 -2.21012,-1.01002 -0.63477,-0.39125 -1.14963,-0.95 -1.7298,-1.41841 -0.59723,-0.48218 -1.2833,-0.86776 -1.8023,-1.43328 -0.4889,-0.53273 -0.75927,-1.23227 -1.18219,-1.81876 -1.95307,-2.70842 -0.91947,-0.53456 -2.06169,-3.6433 -0.26663,-0.63505 -0.68903,-1.22537 -0.7999,-1.90513 -0.12447,-0.76318 0.0788,-1.54454 0.11124,-2.31713 0.0308,-0.73532 0.0731,-1.47055 0.0785,-2.2065 0.005,-0.6697 -0.17753,-1.35161 -0.0476,-2.0086 0.17097,-0.86436 1.55023,-3.745 1.92347,-4.55687 0.3267,-0.68784 0.6033,-1.40179 0.9801,-2.06351 2.03457,-3.57304 5.06232,-6.67264 8.32862,-9.12544 2.22056,-1.34431 5.59054,-3.71487 8.32526,-4.51767 0.45119,-0.13245 0.92597,-0.16647 1.39221,-0.2276 1.54001,-0.20193 1.1834,-0.16062 2.60463,-0.0576 0.77995,0.0398 1.56362,0.0181 2.3411,0.0918 1.55962,0.14791 0.1733,0.0989 1.38064,0.34282 0.32991,0.0667 0.67645,0.0146 1.00448,0.10293 0,0 -3.14624,2.24258 -3.14624,2.24258 z"
       inkscape:connector-curvature="0" />
    <path
       style="opacity:1;fill:#000000;fill-opacity:1;stroke:none;stroke-width:0.60000002;stroke-miterlimit:4;stroke-dasharray:none;stroke-opacity:1"
       id="path3918"
       d="m 329.03646,66.101182 c -0.0843,-0.05743 -0.15229,-0.155377 -0.25286,-0.172289 -0.24564,-0.0413 -0.49831,-0.0047 -0.74726,0.0041 -1.23751,0.04377 -0.93946,0.03049 -2.35683,0.481203 -0.45342,0.144192 -0.91845,0.261461 -1.35252,0.456329 -0.57224,0.256908 -1.10387,0.596144 -1.65582,0.894215 0.49908,-0.232905 1.65367,-1.226751 1.4972,-0.698709 -0.21796,0.735568 -1.21174,0.950693 -1.73741,1.509461 -0.47842,0.508508 -0.85043,1.107795 -1.25812,1.674577 -0.51163,0.711314 -1.07826,1.390682 -1.4994,2.159056 -0.34755,0.63414 -1.70952,4.40318 -1.8924,4.897686 -0.46974,3.964099 -0.58648,8.075954 0.52403,11.954751 0.75544,2.638692 1.31487,3.408471 2.57985,5.829046 1.36093,2.475343 1.7014,3.450637 3.64879,5.552082 0.76551,0.82609 1.63898,1.54738 2.50518,2.26723 0.85558,0.71105 1.78927,1.32355 2.65551,2.02159 3.86737,3.1164 0.78611,1.13019 5.18052,3.62941 2.68211,1.23379 2.9161,1.39967 5.62229,2.42326 2.01663,0.76276 2.96743,1.15415 5.13072,1.35739 3.24458,0.0314 1.76075,-0.0686 4.45611,0.22193 7.45175,-1.52754 -3.78981,0.91237 3.90848,-1.23526 0.44558,-0.12431 -1.36589,1.07728 -1.2346,0.63372 0.18701,-0.63183 0.99259,-0.86972 1.44598,-1.34786 1.32651,-1.39898 1.64647,-1.99827 2.74753,-3.59427 0.49454,-2.27473 2.13929,-4.01172 2.78726,-6.23396 0.18039,-0.61871 0.12745,-1.284624 0.25233,-1.916878 1.00846,-5.104923 0.15208,0.930545 0.79269,-4.09276 0.16986,-1.831985 0.30112,-2.095053 0.061,-3.898982 -0.0785,-0.58992 -0.24726,-1.164362 -0.35873,-1.748951 -0.0688,-0.360524 -0.51173,-3.061563 -0.66923,-3.42519 -0.21392,-0.493834 -0.62442,-0.876705 -0.93663,-1.315059 -0.29988,-0.438009 -0.65122,-0.844904 -0.89961,-1.314031 -0.24328,-0.459452 -0.31258,-0.99934 -0.5657,-1.453439 -0.48803,-0.875519 -1.26529,-1.541399 -1.95914,-2.236681 -1.43505,-1.438021 -0.56787,-0.638101 -2.0937,-1.961124 -0.25802,-0.152416 -2.22851,-1.307145 -2.49523,-1.500605 -0.34563,-0.250706 -0.61275,-0.601996 -0.96793,-0.838989 -0.41198,-0.274904 -0.88056,-0.453742 -1.31789,-0.686257 -1.87108,-0.994831 -0.68902,-0.471633 -2.75336,-1.253006 -1.24047,-1.288402 -3.00537,-0.649113 -4.51588,-1.173634 -0.34837,-0.12098 -0.57123,-0.479681 -0.90516,-0.636227 -0.63426,-0.297347 -1.78274,-0.455361 -2.4561,-0.575345 -0.64024,-0.150722 -1.48622,-0.368861 -2.1439,-0.449974 -0.36872,-0.04547 -0.74665,-0.0067 -1.11209,-0.0735 -0.2553,-0.04666 -0.47779,-0.214294 -0.73258,-0.263628 -0.30983,-0.05999 -0.63143,-0.02363 -0.94478,-0.06114 -0.25386,-0.0304 -0.50249,-0.09482 -0.75377,-0.142238 0,0 3.00366,-2.118227 3.00366,-2.118227 v 0 c 1.79154,0.405257 -0.49205,-0.06658 1.70648,0.210589 1.32432,0.166955 2.60303,0.656109 3.92078,0.861251 0.409,0.08324 0.81799,0.166484 1.22698,0.249724 0.39799,0.123098 0.78825,0.274789 1.19396,0.369292 0.48911,0.113925 1.00494,0.106863 1.48489,0.254688 0.40855,0.125836 0.751,0.417251 1.15454,0.55829 3.33526,1.165661 -0.11991,-0.449131 2.82435,1.026075 0.47011,0.20674 0.93625,0.422743 1.41031,0.62022 0.48879,0.203608 1.00398,0.346226 1.47769,0.582814 0.42884,0.214193 0.81577,0.503809 1.21852,0.763815 1.19128,0.769112 2.39953,1.515509 3.5379,2.362314 3.34343,3.004563 -1.07085,-1.120529 1.8765,2.153205 0.34261,0.380564 0.81585,0.626266 1.16724,0.998747 0.34975,0.370726 0.59986,0.824904 0.92411,1.218118 1.55834,1.889794 0.71392,0.415814 1.73725,2.679668 0.26422,0.47943 0.58759,0.930743 0.79267,1.438293 0.21669,0.536308 0.31776,1.112475 0.46413,1.672082 0.14907,0.56991 0.33729,1.133155 0.42212,1.716101 0.0919,0.631471 0.0727,1.27417 0.10562,1.911437 0.1339,2.593142 0.1779,1.348791 -0.21082,4.034004 -0.003,0.649018 0.0454,1.30033 -0.009,1.947051 -0.18931,2.242095 -1.10067,4.240408 -1.84304,6.332547 -0.23481,0.66175 -0.391,1.35288 -0.67098,1.99682 -0.30517,0.70185 -0.719,1.35126 -1.07852,2.02689 -0.8939,1.35398 -1.52916,2.43199 -2.61591,3.63685 -1.91561,2.12379 -3.20207,2.5731 -6.18016,4.16858 -0.723,0.38733 -1.46831,0.75162 -2.25407,0.98682 -0.59841,0.17913 -1.23867,0.16271 -1.85801,0.24406 -1.69225,-0.001 -2.86956,0.0708 -4.56467,-0.24636 -0.81518,-0.15255 -1.60367,-0.42415 -2.4007,-0.65342 -2.84419,-0.8182 -5.65147,-1.73053 -8.12138,-3.42197 -0.59883,-0.37126 -5.01306,-3.08731 -5.51328,-3.48294 -0.84765,-0.67043 -1.53432,-1.52313 -2.32823,-2.25641 -0.83823,-0.7742 -1.78713,-1.43173 -2.56688,-2.26481 -1.70519,-1.82186 -2.52153,-3.446118 -3.78558,-5.564295 -1.42425,-2.785851 -1.62512,-2.933729 -2.63975,-5.888601 -0.33845,-0.985623 -0.72416,-1.96723 -0.89683,-2.994932 -0.17637,-1.049629 -0.11176,-2.125949 -0.14237,-3.189851 -0.10671,-3.7089 -0.16325,-2.345278 0.50617,-5.960282 0.23739,-0.866564 0.40791,-1.754291 0.71221,-2.599688 0.81626,-2.267765 2.13788,-4.465878 3.75729,-6.249225 2.07172,-2.281439 3.22043,-2.521723 6.41797,-4.49793 0.52409,-0.254717 1.03074,-0.549042 1.57229,-0.764151 1.54604,-0.614085 3.25543,-0.579435 4.88505,-0.748239 0,0 -3.04718,2.213909 -3.04718,2.213909 z"
       inkscape:connector-curvature="0" />
    <path
       style="opacity:1;fill:#000000;fill-opacity:1;stroke:none;stroke-width:0.60000002;stroke-miterlimit:4;stroke-dasharray:none;stroke-opacity:1"
       id="path3926"
       d="m 236.18617,55.567879 c -0.94626,0.536154 -1.8847,1.086342 -2.83877,1.608465 -0.25115,0.137444 0.45921,-0.345363 0.71038,-0.482761 0.3216,-0.175924 0.66323,-0.314301 0.98082,-0.497361 0.11292,-0.06508 0.20364,-0.1627 0.30546,-0.244049 1.29262,-0.728668 2.58523,-1.457338 3.87784,-2.186006 1.03298,-0.642451 2.24044,-0.850556 3.36002,-1.269664 3.33545,-1.248611 -0.22504,-0.08551 2.75603,-1.023144 1.98204,-0.431183 3.95514,-0.867994 5.96116,-1.178787 0.60222,-0.0933 1.20097,-0.218491 1.80823,-0.269682 0.51568,-0.04347 1.03497,-0.0091 1.55246,-0.01363 1.23612,-0.180846 2.73438,-0.42967 3.98715,-0.496882 0.58822,-0.03156 1.17909,0.0348 1.76721,0.0013 0.7224,-0.04108 1.43651,-0.185831 2.15902,-0.224624 1.34797,-0.07237 2.91084,0.03348 4.25366,0.09496 2.84922,0.174818 1.70061,0.05956 4.53721,0.413102 0.79343,0.09889 1.59377,0.155524 2.37921,0.305186 0.71548,0.136332 1.40755,0.37556 2.11444,0.551056 1.98417,0.492582 2.56622,0.599971 4.58272,1.03206 2.15744,0.636042 4.35006,1.147014 6.50764,1.782291 0.68728,0.202362 1.38284,0.384321 2.05073,0.643615 3.65538,1.419141 -0.37968,0.34354 3.80764,1.29113 1.72204,0.465719 3.35529,1.159923 5.05593,1.692452 0.51527,0.161354 1.05436,0.257786 1.54852,0.475356 4.4313,1.950939 -2.42763,-0.514689 2.51376,1.178634 1.07108,0.498454 2.01546,1.201555 3.04223,1.779093 0.83643,0.470466 1.10712,0.510611 1.78025,1.171373 0.21172,0.207823 0.37504,0.459788 0.56255,0.689682 1.33102,2.342136 -0.59787,-0.833049 1.13943,1.311285 0.17846,0.220271 0.21334,0.528574 0.36444,0.768432 0.19098,0.235144 0.87424,1.060892 1.03688,1.322806 0.14417,0.232169 0.24381,0.489175 0.36573,0.733764 -0.052,0.293674 1.22386,1.797505 1.27447,1.982956 0.0763,0.27935 -0.16356,0.597665 -0.0568,0.866844 0.76216,0.597382 0.51408,0.218689 0.76914,1.11937 0.0653,0.218326 0.13065,0.436653 0.19601,0.654979 0,0 -3.07216,1.732727 -3.07216,1.732727 v 0 c -0.11988,-0.182695 -0.23979,-0.36539 -0.35968,-0.548082 -0.007,-0.251584 0.0931,-0.530063 -0.0204,-0.754755 -0.88447,-1.752883 -0.33978,0.898734 -0.99801,-1.039294 -0.09,-0.26501 -0.0124,-0.563224 -0.0731,-0.836446 -0.1728,-0.778142 -0.30732,-0.777838 -0.82595,-1.353873 -1.63444,-2.198955 0.64391,0.944676 -0.84776,-1.378995 -0.18094,-0.281869 -0.86196,-1.037736 -1.07759,-1.283184 -0.15161,-0.235519 -0.16468,-0.551487 -0.34396,-0.766681 -0.19211,-0.230573 -0.48789,-0.349652 -0.73184,-0.524478 -0.23762,-0.33451 -0.78851,-1.154639 -1.10392,-1.409689 -0.59087,-0.477795 -1.35601,-0.67214 -2.00234,-1.042628 -0.3212,-0.184118 -0.59835,-0.437385 -0.91292,-0.632624 -0.34491,-0.214072 -0.70882,-0.395915 -1.0632,-0.593873 -3.37172,-0.85375 0.12888,0.226234 -2.55765,-1.132782 -0.0965,-0.04884 -2.9901,-1.054447 -3.03199,-1.073034 -2.80456,-1.244213 0.17994,-0.478959 -3.47049,-1.138213 -6.00112,-1.369748 1.36367,0.515308 -3.69125,-1.364917 -0.43318,-0.16112 -4.03998,-0.919459 -4.46363,-1.039953 -0.68209,-0.193987 -1.33297,-0.485632 -2.00837,-0.701757 -0.70628,-0.226001 -1.42354,-0.416118 -2.13532,-0.624178 -9.26454,-2.302891 5.34109,1.231455 -4.78562,-0.871405 -0.67943,-0.141089 -1.30525,-0.488183 -1.98523,-0.626624 -0.79044,-0.16093 -1.6043,-0.17073 -2.40516,-0.267242 -3.44686,-0.415385 -0.98118,-0.218308 -4.48134,-0.420277 -0.80772,-0.04738 -3.24937,-0.213786 -4.08961,-0.173988 -0.73241,0.03469 -1.45607,0.174956 -2.18557,0.248783 -1.94208,0.196535 -3.87786,0.438385 -5.82566,0.567457 -4.42569,0.325263 1.2591,-0.154543 -3.59109,0.476504 -0.4666,0.06071 -0.94304,0.01609 -1.40942,0.0785 -1.5018,0.200967 -2.89743,0.786691 -4.38587,1.041636 -0.79525,0.259038 -1.6048,0.475557 -2.39083,0.761375 -1.20574,0.438436 -2.36989,0.989648 -3.55369,1.481744 0.81071,-0.45955 1.62487,-0.913061 2.43212,-1.378649 0.26097,-0.150513 -0.52953,0.287483 -0.79312,0.433359 -0.21373,0.118279 -0.42587,0.239392 -0.63881,0.35909 -0.002,0.03518 0.0246,0.08661 -0.005,0.105545 -1.37032,0.873521 -3.26889,0.826764 -4.2279,2.427366 0,0 2.90051,-2.320134 2.90051,-2.320134 z"
       inkscape:connector-curvature="0" />
    <path
       style="opacity:1;fill:#000000;fill-opacity:1;stroke:none;stroke-width:0.60000002;stroke-miterlimit:4;stroke-dasharray:none;stroke-opacity:1"
       id="path3928"
       d="m 213.97268,74.456602 c -0.57708,-0.162602 -1.04091,0.128844 -1.58971,0.255156 -0.19414,0.04468 -0.40139,0.0132 -0.59434,0.06276 -0.59088,0.151741 -1.15099,0.405045 -1.73008,0.596939 -0.52303,0.414994 -1.20647,0.43398 -1.78497,0.707896 -0.45377,0.214857 -0.87216,0.498393 -1.31953,0.726289 -0.25957,0.132223 -0.54116,0.218289 -0.79938,0.353113 -0.37511,0.195852 -1.47251,0.834133 -1.09783,0.637463 0.80003,-0.419941 1.58295,-0.871707 2.37442,-1.30756 -1.12635,0.659537 -2.23198,1.405252 -3.24729,2.229461 -0.80367,0.652409 -1.52361,1.455224 -2.23874,2.2005 -0.86584,0.82406 -1.69862,1.683369 -2.38866,2.6632 -0.21426,0.304234 -0.38743,0.636194 -0.60362,0.939054 -1.44858,2.029307 -0.38918,0.248116 -1.51424,2.283452 -0.8668,1.288947 -1.44848,2.736231 -2.19867,4.088993 -0.30905,0.557305 -0.68452,1.077068 -0.97751,1.642985 -0.53406,1.031545 -0.92976,2.129031 -1.39509,3.193349 -0.27888,0.586637 -0.59011,1.158963 -0.83664,1.759913 -0.22126,0.539346 -0.35192,1.112459 -0.56439,1.655326 -2.66234,6.802229 1.18921,-3.437051 -1.64604,3.621919 -0.43065,1.0722 -0.74875,2.39356 -1.04658,3.50611 -0.46375,1.14893 -0.61248,2.38502 -0.96892,3.56312 -0.19064,0.63013 -0.47024,1.23107 -0.66008,1.86145 -0.49883,1.65643 -0.81549,3.37902 -1.06779,5.08643 -1.83283,4.91537 0.0115,-0.79082 -0.58104,3.24404 -0.0897,0.61103 -0.41458,1.16553 -0.56472,1.76458 -0.62397,1.04261 -0.0901,2.20612 -0.3003,3.28561 -0.13444,0.69034 -0.46621,1.3271 -0.69932,1.99065 -0.0576,0.57821 -0.11513,1.15642 -0.1727,1.73463 -0.15559,0.63708 -0.39517,1.25936 -0.46678,1.91124 -0.0586,0.53337 0.13211,1.07366 0.0802,1.60771 -0.061,0.6276 -0.33256,1.22035 -0.41596,1.84537 -0.071,0.5319 -0.004,1.07416 -0.045,1.6092 -0.0425,0.55446 -0.13687,1.10372 -0.20531,1.65557 -0.12584,1.63977 -0.624,3.23083 -0.43857,4.88934 0.0538,0.48115 0.27114,0.93556 0.3162,1.41761 0.0263,0.28155 -0.0843,2.90193 -0.0954,3.18886 0.0621,0.9646 0.10467,1.94488 0.24523,2.90304 0.0651,0.44394 0.18639,0.87842 0.25194,1.3223 0.0666,0.45113 0.0628,0.91176 0.14427,1.36044 0.12759,0.70241 0.48094,1.68437 0.70644,2.36088 0.065,0.44735 0.25887,1.96441 0.42688,2.39299 0.13916,0.35496 0.44827,0.62458 0.59691,0.97568 0.90887,2.14683 -0.28051,0.0909 0.43795,2.30122 0.11447,0.35215 0.36703,0.64322 0.55054,0.96484 0.36714,1.05779 1.10217,1.91514 1.56891,2.92282 0.15767,0.34039 0.22856,0.71896 0.40506,1.04998 1.30291,2.44352 0.0526,-0.70182 1.02678,1.97456 0.33324,0.70255 0.99876,1.17845 1.37963,1.84539 0.18446,0.323 0.2067,0.72516 0.40523,1.03972 0.46834,0.74204 0.98907,0.75819 1.36441,1.56428 0.14064,0.30205 0.13341,0.65288 0.20012,0.97932 0.25005,0.19922 0.5493,0.34891 0.75015,0.59764 0.17781,0.2202 0.23102,0.5169 0.35523,0.77122 0.11734,0.24028 0.239,0.47863 0.36924,0.71218 0.3614,0.64808 0.81346,1.19541 1.27725,1.77055 0.32126,0.6122 0.61707,1.25149 1.00004,1.82947 0.13052,0.19698 0.30304,0.36475 0.42666,0.56614 0.64492,1.05061 -0.11485,0.23745 0.81564,1.09109 0.006,0.24611 -0.0443,0.5004 0.0189,0.73834 0.054,0.20336 0.2134,0.36271 0.32157,0.54318 0.44761,0.74679 0.98744,1.41555 1.58117,2.05125 -0.011,1.48809 -0.22578,0.0642 0.74955,0.96756 0.15114,0.13999 0.049,0.42515 0.16445,0.59576 0.11841,0.17496 0.355,0.23539 0.50125,0.38785 0.78918,0.82268 -0.23566,0.17659 0.86639,0.75376 0.13179,0.65476 -0.0291,0.39644 0.44188,0.79894 0,0 -3.04617,1.92139 -3.04617,1.92139 v 0 c -0.36473,-0.57865 -0.0987,-0.34324 -0.88852,-0.58838 -1.31359,-0.87495 0.21766,0.35295 -0.45959,-1.04757 -0.0969,-0.20047 -0.39781,-0.21094 -0.56152,-0.36189 -0.44912,-0.41412 -0.64334,-1.08393 -1.13765,-1.46484 -0.005,-0.026 -0.26564,-1.30683 -0.27588,-1.31715 -0.19956,-0.20123 -0.57596,-0.11201 -0.80152,-0.2836 -0.27943,-0.21257 -0.67422,-1.4407 -0.7779,-1.78302 -0.11771,-0.19073 -0.21586,-0.39502 -0.35314,-0.57218 -0.38538,-0.49734 -0.61997,-0.49602 -0.8641,-1.10155 -0.0928,-0.23014 -0.01,-0.52644 -0.15439,-0.72821 -1.19993,-1.67646 -0.26403,0.90003 -0.85678,-1.07661 -0.13146,-0.19383 -0.28824,-0.37271 -0.39439,-0.58147 -0.10991,-0.21616 -0.0943,-0.49673 -0.24885,-0.68358 -0.17816,-0.2154 -0.52945,-0.24079 -0.69935,-0.46276 -0.16706,-0.21826 -0.1246,-0.54219 -0.25502,-0.78413 -1.65024,-3.06129 0.56542,1.85225 -0.88811,-1.49734 -0.18346,-0.25583 -0.38719,-0.49827 -0.55038,-0.76748 -0.39557,-0.65255 -0.51433,-1.1802 -0.98568,-1.79635 -0.23073,-0.30161 -0.59612,-0.49425 -0.79017,-0.82069 -0.19954,-0.33569 -0.24021,-0.74318 -0.36032,-1.11477 -0.21964,-0.31722 -0.43927,-0.63444 -0.6589,-0.95166 -0.38251,-0.64278 -0.81863,-1.25506 -1.16284,-1.91913 -0.17214,-0.33211 -0.26453,-0.70214 -0.44142,-1.03175 -0.17695,-0.32972 -0.45908,-0.59881 -0.61596,-0.93854 -0.31485,-0.68178 -0.28361,-1.49557 -0.74289,-2.12691 -1.02554,-1.98356 -0.0642,-0.006 -0.88366,-2.05929 -0.11324,-0.28372 -0.84188,-1.80914 -0.93526,-2.08896 -0.28596,-0.85686 -0.32443,-1.52269 -0.43577,-2.41173 -0.37799,-1.04307 -0.5223,-1.28417 -0.69149,-2.40026 -0.0695,-0.45856 -0.0221,-0.93355 -0.12516,-1.38576 -0.0967,-0.42412 -0.41906,-0.78589 -0.4683,-1.21809 -0.11541,-1.01297 0.49548,-2.04653 -0.001,-3.05856 -0.004,-0.52154 -0.007,-1.04308 -0.0109,-1.56462 -0.0528,-0.50323 -0.14763,-1.00381 -0.15839,-1.50969 -0.0116,-0.54603 0.0972,-1.08979 0.0914,-1.63591 -0.005,-0.50493 -0.14589,-1.0052 -0.12489,-1.50971 0.0236,-0.5663 0.21425,-1.11562 0.25769,-1.68074 0.0401,-0.52149 -0.005,-1.04603 -0.008,-1.56905 1.00268,-3.77037 0.20213,0.0452 0.35346,-3.32539 0.0638,-1.42161 0.45984,-2.25717 0.71903,-3.65209 0.11085,-0.59655 0.15879,-1.2031 0.23665,-1.80485 0.0761,-0.58788 0.15007,-1.17603 0.2251,-1.76406 0.1104,-1.77536 0.31546,-3.44508 0.7837,-5.17054 0.16322,-0.60144 0.4421,-1.16993 0.57669,-1.77842 0.23053,-1.0422 0.0657,-2.14878 0.41976,-3.17454 0.29925,-1.17072 0.67459,-2.32249 0.93437,-3.50261 0.12072,-0.54845 0.13593,-1.11717 0.26424,-1.6639 0.14433,-0.61495 0.39686,-1.2005 0.55172,-1.81287 0.14484,-0.57277 0.16544,-1.17579 0.34628,-1.73822 0.21567,-0.67079 0.55782,-1.29411 0.83673,-1.94116 0.28946,-0.983 0.74433,-2.61115 1.12372,-3.56763 1.02433,-2.58248 0.65703,-1.0408 1.49796,-3.56501 0.17527,-0.52609 0.2558,-1.081896 0.44748,-1.602225 0.22107,-0.600094 0.52487,-1.16639 0.7873,-1.749584 1.58092,-3.726865 -0.30823,0.536847 1.68115,-3.330998 0.25149,-0.488958 0.40327,-1.025713 0.66216,-1.510792 0.28741,-0.538515 0.66997,-1.021504 0.97235,-1.551755 1.90423,-3.339309 -0.65721,0.715542 1.56255,-2.705526 0.12292,-0.346274 0.20011,-0.712375 0.36877,-1.03882 0.2032,-0.393272 0.48622,-0.739966 0.7383,-1.103847 0.89291,-1.288952 1.82594,-2.529219 2.93295,-3.645234 0.55352,-0.51403 1.05881,-1.080098 1.63052,-1.573821 0.36745,-0.317333 0.7739,-0.586647 1.15324,-0.889677 0.88789,-0.709298 1.77355,-1.412991 2.70855,-2.062041 0.3635,-0.214505 3.68427,-2.227019 5.07997,-2.958084 0.97749,-0.512011 1.92901,-0.891934 2.92665,-1.33423 0.42274,-0.187415 0.83327,-0.401225 1.24991,-0.60184 0.65216,-0.131799 0.80211,-0.147526 1.46847,-0.348506 0.31767,-0.09581 0.62242,-0.235307 0.94522,-0.312013 0.48914,-0.116229 1.03734,-0.07177 1.53557,-0.11874 0,0 -3.12088,2.267448 -3.12088,2.267448 z"
       inkscape:connector-curvature="0" />
    <path
       style="opacity:1;fill:#000000;fill-opacity:1;stroke:none;stroke-width:0.60000002;stroke-miterlimit:4;stroke-dasharray:none;stroke-opacity:1"
       id="path3930"
       d="m 235.89766,197.01621 c 0.58033,-0.23909 1.22346,-0.50876 1.84363,-0.62265 2.01938,-0.37086 -1.06938,0.52831 1.57454,-0.214 0.46306,-0.13001 0.91489,-0.29715 1.37233,-0.44573 1.24584,-0.35924 2.56834,-0.3902 3.8245,-0.68256 0.57292,-0.13334 1.1247,-0.34578 1.69223,-0.50044 1.39692,-0.38067 1.64033,-0.40121 3.03535,-0.67042 1.80279,-0.66213 3.65837,-1.23969 5.53168,-1.67256 0.5194,-0.12001 1.05681,-0.15445 1.57361,-0.28518 0.67865,-0.17167 1.33559,-0.42012 2.00636,-0.62039 0.66831,-0.19954 1.34046,-0.38599 2.01068,-0.57899 1.10499,-0.27966 2.62914,-0.63627 3.69618,-1.02715 0.78879,-0.28896 1.53965,-0.67417 2.3248,-0.97292 0.59664,-0.22703 1.21606,-0.38958 1.81761,-0.60328 1.30953,-0.46524 2.60334,-0.97369 3.90864,-1.45066 0.65519,-0.26303 1.30492,-0.54007 1.96554,-0.78909 0.5816,-0.21922 1.17919,-0.39445 1.76016,-0.61528 2.54334,-0.96671 5.03849,-2.09058 7.53285,-3.17596 3.31748,-1.44927 6.52724,-3.13255 9.6457,-4.96876 0.40955,-0.24114 -0.82626,0.4698 -1.23941,0.7047 4.03989,-2.21383 7.74774,-4.94475 11.52419,-7.56347 3.43546,-2.46608 6.62096,-5.27677 9.54736,-8.32725 1.61118,-1.49391 3.09102,-3.13628 4.46706,-4.84862 0.4063,-0.50561 0.76647,-1.04715 1.17274,-1.5528 2.43435,-3.02987 0.52324,-0.37076 2.51458,-3.25539 0.87802,-0.9465 1.41583,-2.12855 2.1708,-3.15946 0.42074,-0.57456 0.92908,-1.08164 1.34696,-1.65829 0.33322,-0.45985 0.58635,-0.97322 0.90202,-1.44528 1.62613,-2.43175 0.56822,-0.52776 1.74757,-2.82414 0.58399,-1.08756 0.85543,-1.65134 1.54604,-2.69283 0.33409,-0.50384 0.76343,-0.94612 1.05207,-1.47731 0.19158,-0.35256 0.19925,-0.78278 0.37269,-1.14461 1.60475,-3.34767 0.20322,0.42644 1.20496,-2.45345 0.14666,-0.84477 0.75594,-1.48184 1.0514,-2.25763 0.11237,-0.29505 0.12076,-0.61979 0.18114,-0.92968 0.1157,-0.32748 0.21431,-0.6615 0.34711,-0.98242 0.60071,-1.4517 0.48252,-0.52646 0.49278,-1.82555 0.8848,-1.94398 0.22797,-0.16699 0.50631,-1.82866 0.26379,-1.57496 0.25246,-0.25052 0.39034,-1.779 0.23818,-2.64011 -0.28446,1.21007 0.12827,-1.61753 0.85172,-3.40154 -0.17775,1.21369 0.10401,-1.61686 0.0318,-0.31977 0.23643,-0.60353 0.2835,-0.9214 0.0361,-0.24337 -0.056,-0.49175 -0.0379,-0.73711 0.10414,-1.40612 0.2967,-0.25221 -0.0159,-1.48757 0.48229,-0.86032 -0.0122,-1.38042 0.21553,-2.28961 0.0703,-0.28097 0.2634,-0.52796 0.30083,-0.81517 0.0259,-0.19976 -0.0955,-0.39259 -0.11731,-0.59286 -0.0225,-0.20606 -0.0101,-0.41445 -0.0151,-0.62168 0.47043,-2.56963 -0.0884,0.93075 0.0227,-1.1916 0.20622,-0.82033 0.15783,-0.41707 0.16478,-1.20726 0,0 3.14492,-1.63732 3.14492,-1.63732 v 0 c -0.009,0.40358 -0.0791,0.80655 -0.0576,1.20966 0.01,0.17874 0.0693,0.35121 0.10404,0.52682 0.003,0.2011 0.003,0.4022 0.005,0.6033 -0.0461,0.89665 0.0335,1.88646 -0.21196,2.75909 -0.088,0.31277 -0.29943,0.58767 -0.35507,0.90779 -0.0409,0.23559 0.0489,0.47574 0.0733,0.71361 0.21505,0.98016 0.22061,0.45436 -0.15592,1.56976 0.0175,0.22949 0.41487,0.32216 0.41439,0.55233 0,0.3592 -0.33853,0.643 -0.41764,0.99338 -0.12081,0.5352 0.22285,1.12321 -0.12764,1.64105 -0.62082,2.81715 0.0759,-0.80231 -0.10922,1.62295 -0.0238,0.31007 -0.1519,0.60342 -0.21143,0.90863 -0.17568,0.90089 -0.10398,1.81944 -0.52144,2.66564 -0.12372,0.32625 -0.27519,0.64328 -0.37113,0.97875 -0.75068,2.62427 0.52186,-0.9749 -0.47681,1.8711 -0.59885,1.70667 -0.18042,0.38793 -0.90058,2.16535 -0.14365,0.35449 -0.25901,0.71977 -0.38849,1.07966 -1.55856,2.78948 0.0914,-0.22528 -1.31109,2.52261 -0.22389,0.43867 -0.48977,0.85569 -0.7016,1.30032 -0.19312,0.40532 -0.28305,0.85952 -0.51154,1.24601 -0.31618,0.53484 -0.76663,0.97957 -1.11025,1.49722 -0.29072,0.43792 -0.52647,0.90994 -0.7897,1.36491 -0.29829,0.47623 -0.61359,0.94221 -0.89487,1.42869 -0.2544,0.44001 -0.43749,0.92046 -0.71104,1.34884 -0.69596,1.08992 -1.59624,2.0398 -2.29429,3.12838 -0.29763,0.46414 -0.48596,0.99326 -0.78978,1.45336 -0.386,0.58454 -0.84912,1.11434 -1.2737,1.67151 -1.28455,1.70573 -2.61234,3.3371 -3.99645,4.96242 -0.45853,0.53843 -0.89051,1.09966 -1.36224,1.62655 -0.51318,0.57317 -1.08796,1.0899 -1.59102,1.67196 -0.38208,0.44212 -0.70696,0.93062 -1.06042,1.39593 -6.98,6.09266 2.01573,-1.88446 -3.14251,3.0152 -0.56134,0.53321 -1.18351,0.99853 -1.76974,1.50422 -1.64756,1.42118 -3.30325,2.82856 -5.10567,4.05618 -3.49713,2.77381 -7.30567,5.13314 -11.11827,7.44479 -3.65408,2.08432 -7.28207,4.23756 -11.04304,6.1247 -0.66503,0.3337 -1.31453,0.69919 -1.99012,1.01096 -0.52737,0.24336 -1.07699,0.43528 -1.61547,0.65292 -3.74189,1.6013 -7.51205,3.12833 -11.30744,4.59839 -1.2864,0.47753 -2.58392,0.92502 -3.86691,1.41168 -1.41172,0.5355 -2.75517,1.14461 -4.19739,1.59765 -1.23277,0.38726 -2.53133,0.54589 -3.73453,1.03954 -0.64591,0.175 -1.296,0.33529 -1.93774,0.52501 -0.69115,0.20433 -1.36345,0.47166 -2.05997,0.65687 -0.52996,0.14092 -1.07861,0.20003 -1.6137,0.31998 -1.79651,0.40271 -3.57403,0.90721 -5.31673,1.49941 -3.50789,0.99112 -0.11429,0.0792 -3.19921,0.78967 -1.08773,0.25052 -2.14803,0.61306 -3.23808,0.85331 -0.80926,0.17836 -1.65437,0.17081 -2.44473,0.45134 -1.54997,0.38392 -3.11644,0.69915 -4.62574,1.21231 0,0 2.83982,-2.21858 2.83982,-2.21858 z"
       inkscape:connector-curvature="0" />
    <path
       style="opacity:1;fill:#000304;fill-opacity:1;stroke:none;stroke-width:0.60000002;stroke-miterlimit:4;stroke-dasharray:none;stroke-opacity:1"
       id="path4736"
       d="m 246.39421,139.67395 c -5.3e-4,-0.0153 -10e-4,-0.0306 -0.002,-0.0459 -0.005,-0.0211 -0.0132,-0.0416 -0.0144,-0.0632 -0.002,-0.0319 0.006,-0.0638 0.005,-0.0957 -0.002,-0.0892 -0.02,-0.17739 -0.0245,-0.26648 -0.003,-0.064 -0.002,-0.12815 -0.003,-0.19224 -0.008,-0.0734 -0.0127,-0.14743 -0.025,-0.2203 -0.0137,-0.0812 -0.0381,-0.16025 -0.053,-0.24121 -0.0168,-0.0913 -0.0263,-0.18388 -0.042,-0.27541 -0.0167,-0.0971 -0.0412,-0.19279 -0.0551,-0.29029 -0.16869,-1.17994 0.11109,0.53723 -0.0851,-0.63738 -0.0242,-0.10141 -0.057,-0.20114 -0.0726,-0.30423 -0.0161,-0.1065 -0.0121,-0.21511 -0.0219,-0.32236 -0.009,-0.10076 -0.0243,-0.2009 -0.0352,-0.30148 -0.0102,-0.0944 -0.0146,-0.18957 -0.0282,-0.28358 -0.0759,-0.52458 -0.0342,0.0177 -0.0632,-0.49829 -0.009,-0.0713 -0.0181,-0.14265 -0.0279,-0.21388 -0.0129,-0.0942 -0.038,-0.21559 -0.0318,-0.31405 0.0103,-0.16288 0.13866,-0.21396 0.31895,-0.26606 0.0324,-0.009 0.046,0.0493 0.0691,0.074 0.0339,0.0387 0.0775,0.0707 0.10183,0.11613 0.0342,0.0638 0.0389,0.14031 0.0704,0.20553 0.0394,0.0816 0.1011,0.151 0.14095,0.23236 0.0486,0.0992 0.0754,0.20816 0.12353,0.30765 0.44027,0.91069 -0.0721,-0.29328 0.33123,0.68734 0.24416,0.41459 0.17463,0.26804 0.36848,0.71257 0.0534,0.12234 0.0978,0.24863 0.15562,0.36892 0.0556,0.11567 0.13245,0.22063 0.18416,0.33808 0.40308,0.9156 -0.16612,-0.17598 0.28164,0.65123 0.12249,0.28024 0.11952,0.28144 0.2493,0.5485 0.0379,0.078 0.0824,0.15302 0.1163,0.23287 0.0308,0.0724 0.0413,0.15311 0.0775,0.22294 0.32855,0.63314 -0.0476,-0.26081 0.18932,0.32792 0.0853,0.0809 0.1244,0.1904 0.21579,0.26443 0.0139,0.0112 0.0276,0.0258 0.0452,0.0287 0.0151,0.003 0.0573,-0.0211 0.0438,-0.0138 -0.086,0.0469 -0.17481,0.0884 -0.26221,0.13268 0.0142,-0.0229 0.0317,-0.044 0.0426,-0.0687 0.0148,-0.0335 0.08,-0.25589 0.082,-0.2674 0.0105,-0.0618 0.005,-0.12549 0.013,-0.18759 0.11739,-0.85912 -0.0217,0.40277 0.0729,-0.50252 0.0361,-0.30035 0.0911,-0.59796 0.13531,-0.89709 0.0152,-0.10279 0.0266,-0.20611 0.0418,-0.3089 0.0158,-0.10671 0.037,-0.21259 0.0511,-0.31954 0.0135,-0.10281 0.0211,-0.20631 0.0316,-0.30947 0.0136,-0.10277 0.0272,-0.20555 0.0408,-0.30832 0.005,-0.0969 0.003,-0.19429 0.0138,-0.29072 0.0112,-0.10102 0.0406,-0.19947 0.0515,-0.30052 0.01,-0.0899 0.003,-0.1809 0.0101,-0.27104 0.0137,-0.17465 0.041,-0.34797 0.0606,-0.52206 0.0163,-0.22123 0.0123,-0.22602 0.0447,-0.44157 0.01,-0.0658 0.0287,-0.1303 0.0337,-0.19661 0.034,-0.45326 -0.0604,0.14229 0.0203,-0.31011 0,0 0.29141,-0.14307 0.29141,-0.14307 v 0 c -0.0866,0.30354 -0.0202,0.0222 -0.0532,0.32542 -0.007,0.0656 -0.0279,0.12955 -0.0323,0.19543 -0.0383,0.56736 0.0733,-0.22349 -0.0323,0.43482 -0.009,0.0836 -0.0158,0.16735 -0.0257,0.25081 -0.0108,0.0909 -0.0289,0.18101 -0.0364,0.27226 -0.007,0.0899 -0.003,0.18039 -0.008,0.27042 -0.0177,0.30414 -0.0705,0.60339 -0.11397,0.90449 -0.0454,0.41857 -0.0167,0.20801 -0.0869,0.63159 -0.0111,0.0983 -0.003,0.19837 -0.0167,0.2964 -0.0411,0.29775 -0.0946,0.32978 -0.12865,0.62594 -0.0103,0.0896 -0.004,0.18031 -0.006,0.27045 -0.0317,0.21022 -0.0448,0.29964 -0.0773,0.5052 -0.0104,0.0658 -0.0247,0.13116 -0.0319,0.19743 -0.005,0.047 0.006,0.0958 -0.005,0.14168 -0.0176,0.0719 -0.0765,0.12898 -0.0889,0.20349 -0.0983,0.0601 -0.19217,0.12812 -0.29484,0.18041 -0.0158,0.008 -0.0359,0.001 -0.0531,-0.003 -0.1034,-0.0264 -0.12535,-0.11232 -0.17396,-0.19585 -0.0244,-0.0419 -0.0518,-0.082 -0.0777,-0.12296 -0.25732,-0.59028 0.14589,0.31308 -0.17893,-0.33523 -0.0743,-0.14838 -0.10367,-0.31671 -0.17898,-0.4646 -0.332,-0.65192 0.005,0.20498 -0.26552,-0.53936 -0.0433,-0.10602 -0.081,-0.21447 -0.12976,-0.31805 -0.10663,-0.22628 -0.25078,-0.4338 -0.34262,-0.66767 -0.0564,-0.12065 -0.10669,-0.2441 -0.16177,-0.36536 -0.11537,-0.25397 -0.22255,-0.47497 -0.3428,-0.72648 -0.29135,-0.67009 -0.0108,-0.0605 -0.34044,-0.6818 -0.0514,-0.0969 -0.0971,-0.19664 -0.1438,-0.29583 -0.0387,-0.0821 -0.0697,-0.1679 -0.11234,-0.24799 -0.0556,-0.10429 -0.13657,-0.19368 -0.18679,-0.30134 -0.15265,-0.0271 -0.24406,-0.0221 0.16825,-0.1898 0.0229,-0.009 -0.007,0.049 -0.01,0.0735 -0.006,0.0492 -0.021,0.0982 -0.0176,0.14762 0.009,0.12938 0.0901,0.2483 0.0667,0.3833 0.001,0.0838 -0.003,0.16784 0.004,0.25139 0.007,0.0919 0.0676,0.4489 0.0795,0.53414 0.1033,0.7419 -0.0302,-0.15289 0.072,0.61565 0.014,0.10579 0.0326,0.21093 0.049,0.31639 0.15485,0.6537 0.006,-0.0478 0.097,0.63073 0.0131,0.0974 0.0437,0.19191 0.0582,0.28915 0.014,0.0938 0.0126,0.18949 0.0271,0.28321 0.0237,0.15317 0.0807,0.30013 0.0917,0.45586 0.008,0.0607 0.019,0.12102 0.0233,0.18205 0.004,0.0517 -0.002,0.10367 7.9e-4,0.15543 0.007,0.14886 0.009,0.0746 0.0279,0.19898 0.003,0.022 0.002,0.0445 0.006,0.0664 0.002,0.0127 0.008,0.0248 0.0113,0.0371 0,0 -0.3062,0.16743 -0.3062,0.16743 z"
       inkscape:connector-curvature="0" />
    <path
       style="opacity:1;fill:#000304;fill-opacity:1;stroke:none;stroke-width:0.60000002;stroke-miterlimit:4;stroke-dasharray:none;stroke-opacity:1"
       id="path4742"
       d="m 251.36581,135.32402 c -0.1191,0.0765 0.0368,-0.0243 0.25907,-0.1435 0.0217,-0.0116 -0.0423,0.0254 -0.0619,0.0402 -0.0597,0.045 -0.10565,0.10165 -0.1502,0.16077 -0.0247,0.0293 -0.0531,0.0558 -0.0741,0.0878 -0.0173,0.0263 -0.0233,0.0587 -0.0397,0.0855 -0.0254,0.0413 -0.0595,0.0768 -0.0852,0.11794 -0.0247,0.0395 -0.0427,0.0829 -0.0657,0.12343 -0.0776,0.13673 -0.12008,0.19803 -0.20791,0.3343 -0.0695,0.18786 -0.14359,0.3738 -0.21558,0.56073 -0.0553,0.1435 -0.11355,0.273 -0.15793,0.42054 -0.0201,0.0667 -0.0333,0.13533 -0.05,0.203 -0.15656,0.51137 0.0141,-0.0767 -0.0976,0.40046 -0.0451,0.19269 -0.0763,0.20071 -0.0898,0.39372 -0.004,0.057 0.004,0.11428 0.005,0.17145 0.001,0.0588 1e-4,0.11764 1.5e-4,0.17646 -0.004,0.0568 -0.0243,0.28927 -0.0141,0.3498 0.008,0.0504 0.0419,0.0939 0.0541,0.14348 0.0127,0.0514 0.003,0.10751 0.0205,0.15753 0.016,0.046 0.12659,0.18686 0.15628,0.22625 0.10557,0.23604 -0.0181,0.006 0.15066,0.19652 0.026,0.0294 0.0306,0.0763 0.0615,0.10051 0.0379,0.0296 0.0892,0.0357 0.1343,0.0524 0.19118,0.0709 0.0804,0.0157 0.24248,0.10908 0.18171,0.0762 0.0507,0.0399 0.2889,0.0403 0.14024,1.8e-4 0.13712,0.0199 0.2787,-2e-5 0.1375,-0.0193 0.19742,-0.0478 0.32946,-0.0938 0.1295,-0.0524 0.20284,-0.075 0.3234,-0.15726 0.0346,-0.0237 -0.12361,0.0957 -0.11313,0.0551 0.0142,-0.0549 0.0862,-0.0738 0.12787,-0.1122 0.17428,-0.1605 0.1221,-0.10652 0.25289,-0.28297 0.066,-0.13001 0.18302,-0.22571 0.25496,-0.35122 0.0294,-0.0513 0.0377,-0.11213 0.0611,-0.1664 0.0756,-0.17578 0.11509,-0.20616 0.17037,-0.38894 0.0184,-0.0609 0.026,-0.12453 0.0391,-0.18679 0.0791,-0.18668 0.0792,-0.38874 0.11185,-0.5848 0.012,-0.0722 0.0384,-0.14202 0.0452,-0.2149 0.008,-0.0835 -0.0182,-0.2931 -0.0269,-0.37608 -0.0266,-0.11968 -0.008,-0.24512 -0.0306,-0.36515 -0.01,-0.053 -0.0346,-0.10229 -0.0491,-0.15426 -0.0387,-0.10055 -0.0394,-0.20957 -0.0666,-0.31257 -0.0123,-0.0466 -0.0322,-0.0908 -0.0483,-0.13624 -0.0985,-0.30123 0.027,0.0218 -0.13381,-0.23404 -0.0223,-0.0355 -0.026,-0.0803 -0.0465,-0.11694 -0.0458,-0.0818 -0.0878,-0.10003 -0.14323,-0.17221 -0.0195,-0.0254 -0.0341,-0.0543 -0.0512,-0.0814 -0.0234,-0.0205 -0.0468,-0.041 -0.0701,-0.0615 -0.0281,-0.0147 -0.0602,-0.0236 -0.0843,-0.0442 -0.0192,-0.0163 -0.0237,-0.0454 -0.0416,-0.0631 -0.044,-0.0433 -0.0883,-0.0484 -0.14301,-0.071 -0.0227,-0.009 -0.0445,-0.0208 -0.0667,-0.0311 -0.0191,-0.0104 -0.0364,-0.0255 -0.0575,-0.0312 -0.0257,-0.007 -0.0531,-0.003 -0.0796,-0.006 -0.0605,-0.006 -0.0641,-0.0124 -0.12477,-0.0133 -0.0275,-5.3e-4 -0.0952,0.005 -0.12383,0.007 -0.12043,0.0221 -0.2397,0.0528 -0.35642,0.0895 0,0 0.26079,-0.20198 0.26079,-0.20198 v 0 c 0.0206,-0.008 0.0411,-0.0156 0.0617,-0.0233 0.0128,-2.6e-4 0.0262,0.003 0.0384,-0.001 0.0313,-0.009 0.0589,-0.0292 0.0903,-0.0378 0.0132,-0.004 0.0274,0.003 0.0411,0.002 0.019,-0.001 0.0377,-0.005 0.0565,-0.008 0.018,-7.9e-4 0.036,-0.002 0.054,-0.002 0.0234,-0.003 0.0466,-0.01 0.0703,-0.01 0.0172,9e-5 0.0334,0.009 0.0505,0.0104 0.0232,0.002 0.0466,-1e-5 0.0699,0.002 0.0237,0.002 0.0472,0.006 0.0709,0.008 0.0284,0.003 0.0578,-10e-4 0.0853,0.006 0.0218,0.006 0.0395,0.0221 0.0593,0.0331 0.17415,0.0613 -0.0114,-0.0123 0.13551,0.07 0.0257,0.0145 0.055,0.0218 0.0812,0.0354 0.0814,0.0424 0.14737,0.0988 0.19296,0.17937 0.0544,0.0879 0.0493,0.0866 0.11886,0.16854 0.0258,0.0304 0.0555,0.0575 0.0804,0.0887 0.0847,0.10605 0.14346,0.22709 0.18653,0.35529 0.0177,0.0451 0.0404,0.0886 0.053,0.13544 0.0283,0.10532 0.0319,0.21591 0.0539,0.32271 0.0112,0.054 0.0315,0.10619 0.0393,0.16083 0.0175,0.1234 0.001,0.25007 0.0208,0.37333 0.0149,0.0584 0.0402,0.11519 0.0449,0.17534 0.005,0.0678 -0.0132,0.13539 -0.0157,0.20332 -0.002,0.0648 0.008,0.12999 10e-4,0.19443 -0.008,0.0699 -0.0335,0.13681 -0.0445,0.2063 -0.0548,0.34783 0.0395,0.0218 -0.0896,0.39466 -0.0647,0.32881 0.005,0.0495 -0.12682,0.38995 -0.0228,0.0589 -0.0307,0.12341 -0.0579,0.1804 -0.0332,0.0694 -0.0819,0.13021 -0.12185,0.19593 -0.11893,0.19568 -0.0848,0.13514 -0.17333,0.32131 -0.0517,0.0548 -0.10405,0.10895 -0.15509,0.16435 -0.0408,0.0443 -0.0768,0.0933 -0.12049,0.13478 -0.24901,0.23608 -0.57977,0.39743 -0.89384,0.53211 -0.0464,0.0115 -0.28336,0.0712 -0.31762,0.0769 -0.0513,0.008 -0.1035,0.0105 -0.15542,0.0133 -0.0532,0.003 -0.10669,0.008 -0.15978,0.004 -0.0844,-0.007 -0.17851,-0.0437 -0.25772,-0.0702 -0.0473,-0.0139 -0.0969,-0.0215 -0.14177,-0.0418 -0.0389,-0.0176 -0.0701,-0.0488 -0.1068,-0.0705 -0.23009,-0.13579 -0.0227,0.0138 -0.21605,-0.14975 -0.0341,-0.0288 -0.0766,-0.0487 -0.10494,-0.0831 -0.0275,-0.0334 -0.0393,-0.0772 -0.0589,-0.11576 -0.0321,-0.0341 -0.0725,-0.0619 -0.0963,-0.10219 -0.0249,-0.0421 -0.0317,-0.0926 -0.0462,-0.13927 -0.0685,-0.2209 -0.029,-0.0772 -0.054,-0.31852 -0.0292,-0.28279 -0.0279,-0.0349 -0.0164,-0.33786 -0.011,-0.16113 -0.0207,-0.19183 1.8e-4,-0.35523 0.008,-0.0648 0.025,-0.12827 0.036,-0.19268 0.0355,-0.20751 0.0621,-0.41563 0.15557,-0.6081 0.0777,-0.33855 0.007,-0.0692 0.12472,-0.4158 0.0685,-0.20159 0.053,-0.20425 0.13899,-0.40127 0.0302,-0.0693 0.0689,-0.13474 0.0999,-0.20375 0.0255,-0.0569 0.0463,-0.11582 0.0695,-0.17373 0.0324,-0.0575 0.0648,-0.11508 0.0972,-0.17262 0.0175,-0.046 0.0296,-0.0944 0.0525,-0.13794 0.0253,-0.0483 0.0614,-0.09 0.091,-0.13579 0.0238,-0.0368 0.0439,-0.0759 0.0691,-0.11169 0.1565,-0.22271 0.0256,-0.006 0.12845,-0.1828 0.11839,-0.15665 -0.018,0.0184 0.1033,-0.12171 0.003,-0.003 0.0415,-0.0594 0.0508,-0.0652 0.25667,-0.16011 0.23287,-0.14759 0.37236,-0.21608 0,0 -0.27732,0.21918 -0.27732,0.21918 z"
       inkscape:connector-curvature="0" />
    <path
       style="opacity:1;fill:#000304;fill-opacity:1;stroke:none;stroke-width:0.60000002;stroke-miterlimit:4;stroke-dasharray:none;stroke-opacity:1"
       id="path4744"
       d="m 257.29665,135.4282 c -0.0156,0.003 -0.0308,0.009 -0.0466,0.0101 -0.0404,0.002 -0.10216,-0.0198 -0.14441,-0.0232 -0.1027,-0.008 -0.0387,0.0126 -0.11889,-0.0227 -0.0896,0.0301 -0.1809,0.0298 -0.27392,0.0274 -0.0655,-0.002 -0.0775,-0.0102 -0.14508,-0.004 -0.0303,0.003 -0.06,0.009 -0.09,0.0142 -0.0876,0.0142 -0.17896,0.0335 -0.26012,0.0711 -0.0337,0.0157 -0.13068,0.0708 -0.0973,0.0544 0.2216,-0.10922 0.28265,-0.16844 0.0959,-0.021 -0.1101,0.0949 -0.17617,0.22252 -0.25023,0.34468 -0.0327,0.0539 -0.0698,0.10534 -0.0981,0.16165 -0.009,0.0183 -0.13245,0.33469 -0.13593,0.3436 -0.13311,0.40651 -0.20737,0.82863 -0.24526,1.25387 -0.0292,0.28585 -0.0308,0.56021 0.006,0.84533 0.008,0.0652 0.0159,0.13077 0.0305,0.19488 0.0139,0.0613 0.0365,0.1202 0.0547,0.1803 0.14272,0.30976 0.005,0.0171 0.1512,0.31263 0.024,0.0487 0.0392,0.10245 0.0703,0.14697 0.0306,0.0438 0.0734,0.0778 0.11235,0.11445 0.0782,0.0735 0.16182,0.14103 0.24238,0.21194 0.11812,0.0147 0.18942,0.11716 0.2913,0.16114 0.0546,0.0235 0.11481,0.0308 0.17238,0.0456 0.11696,0.03 0.19999,0.0565 0.32212,0.0566 0.0598,4e-5 0.11908,-0.0111 0.17862,-0.0167 0.1474,-0.0252 0.19943,-0.0259 0.34079,-0.0842 0.0625,-0.0258 0.12023,-0.062 0.18156,-0.0905 0.0394,-0.0183 -0.14623,0.091 -0.11576,0.06 0.0536,-0.0546 0.12753,-0.0849 0.18727,-0.13268 0.0571,-0.0457 0.10848,-0.0982 0.16272,-0.14728 0.0383,-0.0443 0.27372,-0.31527 0.29986,-0.35017 0.0884,-0.11801 0.16349,-0.26308 0.23684,-0.38999 0.18109,-0.31331 0.0857,-0.1252 0.23283,-0.44525 0.14937,-0.39095 0.0244,-0.053 0.15891,-0.44851 0.027,-0.0794 0.063,-0.15605 0.0837,-0.23735 0.018,-0.0706 0.0187,-0.14453 0.0317,-0.21619 0.0278,-0.1531 0.0643,-0.3045 0.0949,-0.45707 -0.003,-0.17811 -0.006,-0.23305 -0.002,-0.41139 0.002,-0.0683 0.0172,-0.13716 0.008,-0.20488 -0.008,-0.0585 -0.0452,-0.10968 -0.0587,-0.16719 -0.0808,-0.34463 0.0481,-0.0331 -0.0953,-0.33491 -0.0756,-0.12928 -0.13252,-0.2792 -0.23828,-0.3891 -0.0327,-0.034 -0.0769,-0.0553 -0.11067,-0.0882 -0.33823,-0.32933 0.17744,0.12529 -0.16752,-0.17286 -0.092,-0.059 -0.17698,-0.1239 -0.27493,-0.173 -0.0292,-0.0146 -0.0575,-0.0319 -0.0886,-0.0416 -0.0635,-0.0196 -0.14941,-0.022 -0.21485,-0.0267 -0.0231,-0.008 -0.045,-0.0219 -0.0694,-0.0249 -0.0605,-0.008 -0.14444,0.0131 -0.20211,0.0229 -0.0767,0.0131 -0.15212,0.0306 -0.22938,0.0392 -0.0629,0.0325 -0.13709,0.0441 -0.20022,0.0759 -0.0247,0.0124 -0.0955,0.0558 -0.0712,0.0426 0.20768,-0.1131 0.31148,-0.18231 0.18355,-0.0988 -0.0278,0.0288 -0.0666,0.0431 -0.0963,0.0691 -0.0159,0.0138 -0.0204,0.0371 -0.0341,0.053 -0.0538,0.0626 -0.0283,0.0149 -0.0537,0.0721 -0.0467,0.0379 -0.0299,0.0655 -0.036,0.11367 0,0 -0.2939,0.15288 -0.2939,0.15288 v 0 c -0.0175,-0.0574 -0.002,-0.0937 0.0406,-0.13638 0.0153,-0.114 0.0953,-0.13608 0.17304,-0.20681 0.1263,-0.10643 0.27705,-0.17812 0.42504,-0.2496 0.0268,-0.0129 0.0517,-0.0302 0.0797,-0.0404 0.0395,-0.0145 0.0901,0.0157 0.12259,-0.0305 0.0815,-0.0212 0.15964,-0.0303 0.24285,-0.0425 0.0992,-0.0145 0.19516,-0.0307 0.29477,-0.005 0.0361,0.004 0.0732,0.003 0.10822,0.013 0.0617,0.0171 0.11255,0.0622 0.17282,0.0837 0.0396,0.0142 0.0858,0.0108 0.1221,0.0321 0.0619,0.0364 0.0683,0.14073 0.16037,0.14377 0.0305,0.0261 0.0598,0.0537 0.0915,0.0782 0.0359,0.0278 0.0791,0.0465 0.11099,0.0788 0.10478,0.10603 0.0564,0.12014 0.14273,0.24191 0.20665,0.29157 0.0255,-0.072 0.17563,0.26616 0.0507,0.22977 0.0148,0.11824 0.10779,0.33457 0.0144,0.0636 -0.001,0.13134 0.0109,0.19543 0.0113,0.0597 0.0527,0.11201 0.0591,0.17243 0.0153,0.1435 -0.0523,0.2879 -0.0281,0.432 -0.0127,0.0756 -0.0271,0.15085 -0.038,0.22669 -0.0105,0.0728 -0.0134,0.14674 -0.0261,0.21922 -0.0442,0.25082 -0.056,0.2209 -0.14208,0.46891 -0.0601,0.17324 -0.0843,0.26631 -0.13427,0.44047 -0.10751,0.22141 -0.21169,0.45045 -0.35026,0.65493 -0.0481,0.071 -0.10417,0.13619 -0.15577,0.20465 -0.19204,0.25479 -0.0715,0.11345 -0.29854,0.35444 -0.0619,0.0591 -0.21852,0.21537 -0.29639,0.26522 -0.14463,0.0926 -0.29527,0.17558 -0.44585,0.25814 -0.16262,0.0892 -0.33179,0.14594 -0.51767,0.15653 -0.15437,0.0192 -0.22386,0.0402 -0.37678,0.0136 -0.0727,-0.0126 -0.24296,-0.0773 -0.30775,-0.111 -0.49055,-0.25506 0.26014,0.0928 -0.30151,-0.1605 -0.0468,-0.0381 -0.21174,-0.16945 -0.25249,-0.21437 -0.11154,-0.12295 -0.0851,-0.13608 -0.16586,-0.27978 -0.14538,-0.25873 -0.0564,-0.024 -0.14694,-0.32117 -0.0159,-0.0623 -0.0299,-0.12519 -0.0477,-0.18701 -0.0177,-0.0614 -0.047,-0.11958 -0.0586,-0.18235 -0.0127,-0.0682 -0.009,-0.13855 -0.0139,-0.20774 -0.005,-0.0681 -0.0174,-0.13592 -0.018,-0.20428 -7.9e-4,-0.0874 0.0277,-0.36032 0.0359,-0.4457 0.001,-0.35454 -0.0165,-0.0657 0.0583,-0.44056 0.0141,-0.0708 0.0194,-0.14314 0.0312,-0.21438 0.0336,-0.20214 0.0917,-0.39654 0.13406,-0.59674 0.0288,-0.0633 0.0577,-0.1266 0.0865,-0.18989 0.0193,-0.0538 0.0349,-0.10893 0.0577,-0.16128 0.0235,-0.054 0.056,-0.10367 0.0809,-0.15702 0.0186,-0.0399 0.0253,-0.0857 0.0496,-0.12251 0.0575,-0.0871 0.14858,-0.14828 0.20709,-0.23484 0.19598,-0.16249 0.11657,-0.10494 0.45125,-0.3037 0.0341,-0.0202 0.16432,-0.0772 0.19722,-0.0874 0.018,-0.006 0.14748,-0.0233 0.16343,-0.0255 0.0825,-0.005 0.16405,-0.0119 0.24663,-0.0143 0.0282,-7.9e-4 0.0564,-0.005 0.0846,-0.003 0.0212,0.001 0.0413,0.0113 0.0625,0.0119 0.0299,8e-4 0.0595,-0.005 0.0893,-0.007 0.0433,0.005 0.0863,0.0147 0.12987,0.0153 0.0259,2.6e-4 0.0516,-0.004 0.0774,-0.007 0.0187,0.001 0.0374,0.004 0.0562,0.004 0.0178,2.1e-4 0.0356,-0.005 0.0533,-0.003 0.007,7.9e-4 0.0122,0.008 0.0184,0.0113 0,0 -0.26057,0.18441 -0.26057,0.18441 z"
       inkscape:connector-curvature="0" />
    <path
       style="opacity:1;fill:#000304;fill-opacity:1;stroke:none;stroke-width:0.60000002;stroke-miterlimit:4;stroke-dasharray:none;stroke-opacity:1"
       id="path4746"
       d="m 261.40648,134.61178 c -0.007,0.0166 -0.0177,0.0321 -0.02,0.0499 -0.003,0.0203 0.004,0.0408 0.006,0.0612 0.002,0.0311 0.004,0.0623 0.004,0.0934 -0.002,0.16621 -0.0163,0.32978 -0.0367,0.49459 -0.1387,0.9632 0.0587,-0.50494 -0.0279,0.49829 -0.009,0.10879 -0.0459,0.21394 -0.057,0.32258 -0.0106,0.10397 -0.005,0.20895 -0.008,0.31342 -0.006,0.11249 -0.007,0.2255 -0.0195,0.33749 -0.0138,0.12369 -0.0395,0.24577 -0.0592,0.36866 -0.0293,0.43332 -0.0165,0.28468 -0.057,0.71823 -0.0109,0.11688 -0.0299,0.23323 -0.0336,0.35057 -0.0142,0.45485 0.0437,0.16828 0.0116,0.61522 -0.007,0.10325 -0.0283,0.2051 -0.0424,0.30765 0.003,0.59562 -0.004,-0.0395 0.0136,0.51959 0.002,0.0782 -0.002,0.15671 0.003,0.23482 0.005,0.0688 0.0196,0.13654 0.026,0.20518 0.0268,0.28761 -0.0201,0.10466 0.0654,0.35441 0.0279,0.21319 0.007,0.0993 0.0534,0.29462 0.01,0.0414 0.008,0.0871 0.0287,0.12417 0.0197,0.0351 0.063,0.0512 0.0874,0.0831 0.006,0.008 0.0917,0.17898 0.0972,0.18989 0.0315,0.0207 0.063,0.0414 0.0944,0.0621 0.0258,0.0236 0.0483,0.0514 0.0774,0.0707 0.0313,0.0208 0.0675,0.033 0.10186,0.0482 0.13481,0.0598 0.1859,0.0613 0.3327,0.0609 0.0736,-0.0464 0.15829,-0.008 0.23503,-0.0262 0.0634,-0.0149 0.25097,-0.0951 0.30915,-0.12134 0.0465,-0.0209 0.087,-0.0686 0.13794,-0.0661 0.0473,0.002 -0.0836,0.0445 -0.12535,0.0667 0.27841,-0.20365 -0.0376,0.0306 0.2412,-0.18613 0.056,-0.0436 0.11704,-0.0809 0.17009,-0.12808 0.035,-0.0311 0.0614,-0.0707 0.0927,-0.10547 0.18048,-0.20013 0.0514,-0.0459 0.22194,-0.25758 0.0897,-0.16282 0.052,-0.0896 0.13481,-0.25999 0.0235,-0.0484 0.0511,-0.095 0.0702,-0.14522 0.0173,-0.0455 0.0237,-0.0944 0.0386,-0.1407 0.08,-0.24737 0.0441,-0.059 0.0763,-0.2993 0.0131,-0.15104 0.0135,-0.30249 -0.006,-0.45295 -0.007,-0.0503 -0.0106,-0.1017 -0.0258,-0.15015 -0.0165,-0.0526 -0.10874,-0.21656 -0.13422,-0.26341 -0.0191,-0.0366 -0.11416,-0.22298 -0.14112,-0.25681 -0.0303,-0.0381 -0.0726,-0.0649 -0.10681,-0.0996 -0.0316,-0.0321 -0.059,-0.0682 -0.0904,-0.10061 -0.0138,-0.0142 -0.1678,-0.16005 -0.18446,-0.17585 -0.11402,-0.0644 -0.11813,-0.0744 -0.24645,-0.11451 -0.0473,-0.0148 -0.0968,-0.0217 -0.14408,-0.0365 -0.0483,-0.0151 -0.18785,-0.0766 -0.23799,-0.0887 -0.0451,-0.0109 -0.092,-0.0127 -0.13794,-0.0191 -0.10722,-0.0103 -0.21495,-0.0441 -0.32319,-0.0458 -0.11805,-0.002 -0.0871,0.0148 -0.20319,0.0267 -0.0192,0.002 -0.0386,-0.002 -0.058,-0.002 -0.0342,0.0144 -0.0684,0.0288 -0.10252,0.0432 -0.009,-7.9e-4 -0.0192,-0.005 -0.0282,-0.002 -0.0198,0.006 -0.0734,0.0393 -0.0554,0.0288 0.0883,-0.0503 0.17657,-0.10069 0.26486,-0.15103 -0.007,0.003 -0.004,0.003 5.3e-4,-0.007 0.01,-2.7e-4 0.0199,-0.003 0.0295,-0.001 0.10813,0.0282 -0.0738,0.0102 0.0862,0.0298 0.0951,0.0116 0.19396,0.009 0.28964,0.0155 0.0419,-1.9e-4 0.0838,-0.001 0.12564,-5.3e-4 0.10785,0.002 0.14368,0.0121 0.2535,0.002 0.14884,-0.0134 0.17079,-0.0319 0.32157,-0.0526 0.047,-0.006 0.0945,-0.008 0.14175,-0.0122 0.17355,-0.0205 0.34121,-0.071 0.50982,-0.1145 0.0734,-0.019 0.23483,-0.0566 0.30713,-0.0835 0.0609,-0.0227 0.11895,-0.0524 0.17843,-0.0786 0.0595,-0.0279 0.22369,-0.1034 0.28789,-0.13816 0.0455,-0.0246 0.18509,-0.0858 0.13386,-0.0786 -0.058,0.008 -0.0985,0.095 -0.15554,0.0816 -0.0501,-0.0118 0.0872,-0.0554 0.12667,-0.0884 0.0246,-0.0206 0.0429,-0.0476 0.0644,-0.0714 0.1178,-0.0981 0.22249,-0.22353 0.27925,-0.36835 0.0108,-0.0275 0.0151,-0.0571 0.0228,-0.0857 0.0135,-0.034 0.0272,-0.068 0.0408,-0.10196 -0.0199,-0.0668 0.0204,-0.13011 0.0175,-0.19545 -0.003,-0.0307 -0.0204,-0.0583 -0.0251,-0.0886 -0.006,-0.0355 0,-0.0725 -0.007,-0.1076 -0.0193,-0.0913 -0.051,-0.11909 -0.1039,-0.19384 -0.0346,-0.0458 -0.11514,-0.15583 -0.15531,-0.19513 -0.0326,-0.0318 -0.0733,-0.0544 -0.10617,-0.0859 -0.032,-0.0307 -0.0543,-0.0711 -0.0879,-0.10003 -0.0361,-0.0312 -0.0809,-0.0508 -0.11953,-0.0788 -0.038,-0.0275 -0.0734,-0.0583 -0.11002,-0.0875 -0.0938,-0.038 -0.18171,-0.0888 -0.27457,-0.12877 -0.0467,-0.0201 -0.0959,-0.0342 -0.14217,-0.0551 -0.0417,-0.0188 -0.0787,-0.0475 -0.12136,-0.0639 -0.0483,-0.0185 -0.10049,-0.0249 -0.14995,-0.04 -0.0444,-0.0136 -0.0876,-0.0308 -0.1314,-0.0462 -0.39964,-0.10617 0.14963,0.0312 -0.29769,-0.0498 -0.0399,-0.007 -0.0766,-0.0269 -0.1159,-0.0367 -0.14161,-0.0352 -0.115,-0.0169 -0.26216,-0.0346 -0.0388,-0.005 -0.0772,-0.0129 -0.11575,-0.0193 -0.26117,-0.0504 0.0628,0.005 -0.23151,-0.0212 -0.0313,-0.003 -0.0613,-0.0143 -0.0924,-0.0189 -0.11785,-0.0175 -0.1802,-0.0114 -0.29691,0.009 -0.0579,-0.007 -0.0702,-0.0137 -0.13021,-0.001 -0.0249,0.005 -0.048,0.0178 -0.0729,0.0231 -0.008,0.002 -0.0165,-0.006 -0.0238,-0.003 -0.0248,0.0112 -0.0457,0.0295 -0.0686,0.0443 0,0 0.27056,-0.21552 0.27056,-0.21552 v 0 c 0.0239,-0.009 0.0699,-0.026 0.0911,-0.0307 0.067,-0.0148 0.13734,-0.007 0.20501,-0.0149 0.28044,-0.047 -0.008,-0.0198 0.17059,0.008 0.0729,0.0113 0.14856,-0.0143 0.22128,0.005 0.03,0.005 0.0565,0.024 0.0866,0.0289 0.0419,0.007 0.0847,0.004 0.12711,0.006 0.0796,0.0131 0.15885,0.0285 0.23865,0.0404 0.0455,0.007 0.0917,0.008 0.13676,0.0174 0.0406,0.008 0.0786,0.027 0.1192,0.0352 0.38207,0.077 -0.0635,-0.0412 0.28914,0.058 0.0382,0.0196 0.0737,0.0456 0.11453,0.059 0.26563,0.087 0.0631,-0.0254 0.32009,0.0748 0.0446,0.0174 0.0831,0.048 0.12677,0.0677 0.28619,0.12937 0.0186,-0.0215 0.27489,0.13262 0.21416,0.15262 0.0243,0.0135 0.2268,0.17252 0.0376,0.0295 0.0786,0.0547 0.11411,0.0866 0.0332,0.0298 0.0606,0.0655 0.0916,0.0976 0.031,0.032 0.067,0.0595 0.0944,0.0947 0.0254,0.0326 0.0419,0.0713 0.0629,0.10689 0.0214,0.0329 0.048,0.063 0.0642,0.0988 0.0156,0.0345 0.0193,0.0732 0.0298,0.10959 0.01,0.0335 0.0201,0.0667 0.0303,0.1 0.0217,0.0713 0.0435,0.11421 0.0296,0.19146 -0.007,0.0402 -0.027,0.0772 -0.0405,0.11577 0.0132,0.13503 0.0209,0.0442 -0.0553,0.19145 -0.0151,0.0291 -0.0262,0.06 -0.0391,0.0901 -0.0116,0.0272 -0.0169,0.0578 -0.0344,0.0817 -0.052,0.0713 -0.13142,0.11967 -0.17783,0.19613 -0.30143,0.26201 -0.65383,0.46244 -1.01951,0.62062 -0.10339,0.0325 -0.20488,0.0709 -0.30832,0.10323 -0.2255,0.0705 -0.45916,0.11487 -0.68932,0.1664 -0.046,0.003 -0.0923,0.002 -0.13787,0.008 -0.0782,0.0116 -0.26367,0.0643 -0.34658,0.0674 -0.0354,0.001 -0.0694,-0.0157 -0.10468,-0.0186 -0.0813,-0.007 -0.18753,0.003 -0.26793,0.009 -0.0287,-0.007 -0.0566,-0.0185 -0.086,-0.0211 -0.10641,-0.009 -0.23887,0.0292 -0.33213,-0.0461 -0.0181,-0.0322 -0.0259,-0.0461 -0.0255,-0.0463 0.15757,-0.10078 0.29244,-0.18582 0.47002,-0.21752 0.044,-0.006 0.12666,-0.0173 0.16898,-0.0194 0.14878,-0.007 0.29817,0.0122 0.44492,0.0336 0.3113,0.11344 -0.12068,-0.0378 0.25137,0.0687 0.0418,0.012 0.0799,0.0353 0.12186,0.0467 0.0522,0.0142 0.10838,0.0123 0.15967,0.0296 0.0369,0.0124 0.19689,0.11298 0.22909,0.1327 0.27156,0.29048 -0.12545,-0.11891 0.20693,0.16877 0.0519,0.045 0.13273,0.16794 0.17258,0.22086 0.12912,0.17146 0.0671,0.0564 0.14958,0.25816 0.038,0.094 0.0724,0.18934 0.11066,0.28318 0.0186,0.0457 0.0479,0.0875 0.0596,0.1354 0.0124,0.0506 0.009,0.10386 0.0116,0.15589 0.01,0.17806 0.007,0.13129 -0.009,0.30961 -0.0375,0.21482 -0.009,0.0901 -0.0736,0.30362 -0.0145,0.0482 -0.0251,0.0978 -0.0426,0.14502 -0.0527,0.14159 -0.1319,0.27289 -0.19683,0.40878 -0.0259,0.0344 -0.16005,0.21529 -0.19374,0.25119 -0.0417,0.0444 -0.089,0.0833 -0.13396,0.12447 -0.1244,0.11379 -0.25021,0.22677 -0.39543,0.31407 -0.15493,0.0907 -0.36647,0.22848 -0.55003,0.30712 -0.10782,0.0462 -0.15903,0.0568 -0.2705,0.0859 -0.18537,0.0484 -0.1018,0.037 -0.27065,0.0424 -0.0441,-5.2e-4 -0.0884,0.003 -0.1323,-0.002 -0.19177,-0.0192 -0.36231,-0.12369 -0.49769,-0.25517 -0.079,-0.12566 -0.0316,-0.0674 -0.14395,-0.17336 -0.0222,-0.033 -0.0314,-0.0732 -0.0434,-0.11106 -0.013,-0.0412 -0.0244,-0.0831 -0.0313,-0.12569 -0.0471,-0.29047 0.0325,-0.008 -0.0606,-0.29493 -0.0162,-0.0539 -0.04,-0.106 -0.0486,-0.16159 -0.0102,-0.066 -0.004,-0.13351 -0.007,-0.20019 -0.004,-0.0707 -0.0109,-0.14123 -0.0147,-0.21194 -0.004,-0.0776 -0.005,-0.15526 -0.009,-0.23282 -0.004,-0.0824 -0.0162,-0.16462 -0.0157,-0.24718 5.3e-4,-0.0944 0.0125,-0.18841 0.0187,-0.28261 0.0159,-0.39929 0.002,-0.1955 0.0443,-0.61125 0.005,-0.10615 -0.003,-0.21257 -10e-4,-0.31883 0.006,-0.35247 0.0482,-0.70142 0.0589,-1.05364 0.10972,-1.28593 -0.0595,0.58821 0.0891,-0.71165 0.0121,-0.10564 0.0114,-0.21235 0.0184,-0.31845 0.007,-0.10189 0.0168,-0.20355 0.0224,-0.30551 0.0225,-0.411 -0.0164,-0.116 0.0506,-0.509 -0.002,-0.0612 -0.006,-0.12233 -0.007,-0.18354 -7.9e-4,-0.0531 0.005,-0.10635 0.002,-0.15937 -0.003,-0.0399 -0.0168,-0.0785 -0.0192,-0.11835 -0.015,-0.24389 0.0141,0.0298 0.031,-0.17546 10e-4,-0.0118 -0.0108,-0.021 -0.0162,-0.0315 0,0 0.3191,-0.16259 0.3191,-0.16259 z"
       inkscape:connector-curvature="0" />
  </g>
</svg>
