<?xml version="1.0" encoding="UTF-8" standalone="no"?>
<!-- Created with Inkscape (http://www.inkscape.org/) -->

<svg
   xmlns:dc="http://purl.org/dc/elements/1.1/"
   xmlns:cc="http://creativecommons.org/ns#"
   xmlns:rdf="http://www.w3.org/1999/02/22-rdf-syntax-ns#"
   xmlns:svg="http://www.w3.org/2000/svg"
   xmlns="http://www.w3.org/2000/svg"
   xmlns:sodipodi="http://sodipodi.sourceforge.net/DTD/sodipodi-0.dtd"
   xmlns:inkscape="http://www.inkscape.org/namespaces/inkscape"
   width="1920"
   height="1080"
   viewBox="0 0 508.00002 285.74999"
   version="1.1"
   id="svg8"
   inkscape:version="0.92.4 5da689c313, 2019-01-14"
   sodipodi:docname="025.svg">
  <defs
     id="defs2">
    <clipPath
       clipPathUnits="userSpaceOnUse"
       id="clipPath3044">
      <rect
         style="opacity:1;fill:#000000;fill-opacity:1;stroke:none;stroke-width:0.60000002;stroke-miterlimit:4;stroke-dasharray:none;stroke-opacity:1"
         id="rect3046"
         width="243.21527"
         height="226.00311"
         x="320.13846"
         y="134.60152" />
    </clipPath>
  </defs>
  <sodipodi:namedview
     id="base"
     pagecolor="#ffffff"
     bordercolor="#666666"
     borderopacity="1.0"
     inkscape:pageopacity="0.0"
     inkscape:pageshadow="2"
     inkscape:zoom="0.5"
     inkscape:cx="876.75483"
     inkscape:cy="362.1899"
     inkscape:document-units="mm"
     inkscape:current-layer="layer1"
     showgrid="false"
     units="px"
     inkscape:window-width="1920"
     inkscape:window-height="1053"
     inkscape:window-x="1366"
     inkscape:window-y="27"
     inkscape:window-maximized="0"
     showguides="false" />
  <metadata
     id="metadata5">
    <rdf:RDF>
      <cc:Work
         rdf:about="">
        <dc:format>image/svg+xml</dc:format>
        <dc:type
           rdf:resource="http://purl.org/dc/dcmitype/StillImage" />
        <dc:title></dc:title>
      </cc:Work>
    </rdf:RDF>
  </metadata>
  <g
     inkscape:label="Capa 1"
     inkscape:groupmode="layer"
     id="layer1"
     transform="translate(0,-11.250015)">
    <path
       style="opacity:1;fill:#000000;fill-opacity:1;stroke:none;stroke-width:0.60000002;stroke-miterlimit:4;stroke-dasharray:none;stroke-opacity:1"
       id="path3951"
       d="m 111.39407,42.124323 c -0.006,0.132136 0.007,0.266488 -0.0183,0.396402 -0.0418,0.218485 -0.14002,0.423738 -0.1807,0.642445 -0.0439,0.236315 -0.0263,0.481528 -0.0722,0.717476 -0.0616,0.316682 -0.17727,0.62072 -0.24916,0.935223 -0.17299,0.756708 -0.30101,1.522999 -0.45526,2.283748 -0.14721,0.470884 -0.31829,0.934963 -0.44163,1.412655 -0.1213,0.469765 -0.17274,0.955609 -0.29136,1.426057 -0.12328,0.488937 -0.81328,2.647442 -0.90978,3.122898 -0.83884,4.133085 0.67286,-1.434491 -0.6289,3.067256 -0.15557,0.547164 -0.36821,1.081233 -0.4667,1.641491 -0.0879,0.500256 -0.04,1.015632 -0.0892,1.521161 -0.15716,1.61245 -0.26765,1.655718 -0.48455,3.274907 -0.83845,6.259258 0.55187,-3.224162 -0.42831,3.343394 -0.29237,3.630231 -0.0766,-0.204039 -0.003,3.19759 0.0119,0.552241 -0.0756,1.103693 -0.0629,1.655919 0.0341,1.482203 0.29236,2.994345 0.49001,4.461356 0.10579,0.436896 0.24147,0.867619 0.31739,1.310682 0.19016,1.109835 0.0554,1.507578 0.34125,2.587207 0.0962,0.363464 0.25654,0.707271 0.40415,1.053071 0.14041,0.328946 0.38507,0.619839 0.4593,0.969711 0.0805,0.379188 -0.005,0.775245 -0.007,1.162868 0.0808,0.642818 0.59313,1.099497 0.78677,1.689915 0.0912,0.278042 0.0237,0.595074 0.12796,0.868468 0.0889,0.233045 0.3339,0.380696 0.4355,0.608494 0.51154,1.146897 -0.3462,0.324546 0.67228,1.085252 0.52072,0.947939 -0.0847,0.117927 0.94748,0.690832 0.14344,0.07961 0.23111,0.23363 0.33445,0.36104 0.0937,0.11552 0.10969,0.335299 0.25522,0.366017 1.0906,-0.142457 0.61549,-0.193413 1.43348,0.0099 1.47271,-0.50355 3.013,-0.822433 4.45502,-1.419138 0.98612,-0.408053 1.9391,-0.892302 2.91676,-1.320215 -0.78204,0.520367 3.67399,-1.940065 2.75486,-1.456259 -0.56346,0.29659 -1.0578,0.75492 -1.67147,0.924812 -0.43658,0.120864 0.75623,-0.499944 1.11862,-0.771758 0.83164,-0.623782 1.6241,-1.298326 2.44705,-1.933525 1.12682,-0.829929 1.85065,-1.980424 2.65622,-3.088597 0.2734,-0.376103 0.58898,-0.722294 0.8396,-1.113946 0.20066,-0.313582 0.32722,-0.669259 0.50927,-0.993998 0.20076,-0.358113 0.42562,-0.702172 0.63843,-1.053258 0.043,-0.640866 0.45192,-1.19447 0.53957,-1.821678 0.0624,-0.446749 -0.14463,-2.119439 -0.36323,-2.505752 -0.15065,-0.266229 -0.41139,-0.452829 -0.61708,-0.679246 -0.14581,-0.300943 -0.1963,-0.671116 -0.43741,-0.902833 -0.29728,-0.28571 -0.74018,-0.364961 -1.09691,-0.57173 -0.35738,-0.20715 -0.71712,-0.415316 -1.0433,-0.668784 -0.31014,-0.241007 -0.51372,-0.618141 -0.85742,-0.808244 -1.78193,-0.557538 -0.97126,-0.189736 -2.45266,-1.056738 -0.83392,-0.138253 -1.45178,-0.784791 -2.23212,-1.038998 -0.45071,-0.146825 -0.93508,-0.158644 -1.39786,-0.261265 -0.82229,-0.0743 -1.54569,-0.503608 -2.33735,-0.682789 -0.41657,-0.09428 -0.84607,-0.117671 -1.26911,-0.176506 -0.37876,-0.05487 -0.75923,-0.09894 -1.13627,-0.164616 -0.16021,-0.02791 -1.93937,-0.50282 -2.08366,-0.475856 -0.27186,0.0508 -0.9871,0.488818 -0.76211,0.327985 1.13814,-0.813583 2.34265,-1.530072 3.51398,-2.295109 0.70913,-5.8e-5 1.45844,0.109066 2.16364,-5e-6 0.42093,-0.06511 0.82254,-0.225309 1.24122,-0.303581 2.54143,-0.475117 -0.87291,0.392356 2.13749,-0.430466 1.27085,-0.417357 1.10477,-0.31927 2.34217,-0.90778 0.37154,-0.176705 1.45708,-0.764051 1.10047,-0.558882 -0.69493,0.399814 -1.36932,0.851633 -2.11615,1.14323 -0.36687,0.143248 0.63941,-0.460034 0.95832,-0.691158 0.40958,-0.296841 0.81809,-0.595156 1.22715,-0.892736 1.69891,-2.334434 -1.14417,1.499367 1.41023,-1.604415 0.21219,-0.257826 0.35937,-0.562895 0.53954,-0.844034 0.20057,-0.312962 0.43452,-0.606758 0.60267,-0.938265 0.0747,-0.147357 0.6189,-1.742146 0.65927,-1.859105 -0.39432,-0.628981 0.1563,-1.273784 0.0501,-1.897539 -0.0493,-0.2896 -0.34239,-0.481933 -0.46351,-0.749573 -0.13279,-0.293439 -0.0954,-0.666176 -0.29246,-0.920943 -0.21795,-0.281763 -0.622,-0.359069 -0.88419,-0.600212 -0.23889,-0.219718 -0.4008,-0.51063 -0.6012,-0.765948 -0.1729,-0.277085 -0.26201,-0.629314 -0.5187,-0.831257 -0.31102,-0.244684 -0.73538,-0.292659 -1.10134,-0.443259 -0.34884,-0.143566 -0.70652,-0.268658 -1.043,-0.439209 -0.30063,-0.152381 -0.56374,-0.37184 -0.86301,-0.526888 -0.63178,-0.327319 -1.30208,-0.574252 -1.95059,-0.867024 -0.76197,-0.07153 -1.45269,-0.425752 -2.19304,-0.579189 -0.38908,-0.08064 -0.79051,-0.0867 -1.18193,-0.155125 -0.59038,-0.103201 -1.15187,-0.352761 -1.74661,-0.426786 -0.31725,-0.03949 -0.63936,-0.0057 -0.95904,-0.0086 -0.26497,-0.0098 -0.53141,-0.05899 -0.79489,-0.02932 -0.33543,0.03778 -0.65475,0.166042 -0.9862,0.2299 -0.22252,0.04287 -0.45324,0.03817 -0.67385,0.08993 -0.38919,0.09131 -1.11616,0.298831 -1.51607,0.47602 0.99365,-0.559239 1.98731,-1.118478 2.98096,-1.677718 0,0 -3.3843,1.337562 -3.3843,1.337562 v 0 c 1.07184,-0.623197 2.14367,-1.246394 3.21551,-1.869588 0.28195,-0.128924 0.8294,-0.39709 1.12227,-0.448813 0.14278,-0.02522 0.28917,0.04582 0.43367,0.0338 0.83588,-0.06951 1.63444,-0.488521 2.47888,-0.208166 0.31817,0.01302 0.63615,0.03188 0.9545,0.03903 0.38065,0.0085 0.77363,-0.08742 1.14222,0.0081 0.25205,0.06529 0.38888,0.372361 0.63654,0.452723 0.38669,0.125474 0.80876,0.08604 1.21074,0.146696 1.38197,0.208518 0.97073,0.117385 2.16664,0.632608 3.87018,1.969844 -2.34049,-1.133229 2.04507,0.843624 0.31832,0.143491 0.59168,0.371941 0.89912,0.537469 0.97787,0.526489 2.00624,0.959387 2.84334,1.718797 0.2151,0.268928 0.42815,0.539504 0.64529,0.806783 0.21589,0.265737 0.49628,0.488207 0.65375,0.792218 0.15882,0.306597 0.16322,0.671944 0.27408,0.998956 0.10092,0.297712 0.29125,0.564888 0.36005,0.871619 0.0732,0.326261 0.0401,0.667539 0.0601,1.001308 0.07,0.287219 0.14005,0.574437 0.21007,0.861658 -0.0939,0.337421 -0.21103,0.669221 -0.28168,1.012264 -0.0569,0.276188 0.002,0.576998 -0.0998,0.84005 -0.22866,0.592097 -0.99348,1.460539 -1.34899,1.953037 -0.18432,0.25535 -0.30606,0.558554 -0.52306,0.786781 -0.35376,0.372041 -0.78232,0.664983 -1.17348,0.997474 -1.83377,1.692336 -3.24355,2.339097 -5.64549,3.715308 -1.19652,0.685562 -2.37908,1.267407 -3.72687,1.596578 -0.74397,0.134784 -1.47832,0.321662 -2.22483,0.441587 -0.33697,0.05413 -0.68001,0.06039 -1.01887,0.101071 -0.16355,0.01963 -1.66612,0.25546 -1.93462,0.222977 -0.11453,-0.01386 -0.18331,-0.140141 -0.27496,-0.210214 0.82455,-0.675148 1.61227,-1.397968 2.47366,-2.025446 0.0491,-0.0358 0.0267,0.146801 0.0858,0.160975 0.20294,0.04864 0.41731,0.0104 0.62601,0.0097 0.32854,-0.0011 0.65831,-0.0451 0.98551,-0.0154 0.63308,0.05748 1.30821,0.304488 1.90668,0.49126 0.49653,0.01138 0.99776,-0.035 1.48958,0.03411 0.39586,0.05563 0.76752,0.223862 1.15094,0.336947 0.40387,0.119118 0.81281,0.222528 1.21092,0.359667 1.20752,0.41597 2.28804,1.099296 3.526,1.435203 0.4469,0.156284 0.91058,0.271005 1.3407,0.468855 0.38526,0.177218 0.72796,0.435224 1.0932,0.650719 1.39591,0.823611 2.78926,1.614995 3.79135,2.933456 0.8945,1.422816 0.21979,0.163007 0.748,1.757077 0.0894,0.269909 0.30079,0.501968 0.33581,0.784146 0.0405,0.326302 -0.0629,0.655121 -0.11698,0.979453 -0.19688,1.181264 -0.16948,0.879422 -0.82139,2.035831 -0.43186,0.994447 -0.43078,1.092496 -1.04047,2.049833 -0.24144,0.379095 -0.52953,0.72712 -0.77048,1.106522 -0.20206,0.318143 -0.33409,0.68005 -0.55711,0.983869 -0.5353,0.729252 -1.44694,1.560025 -2.08613,2.180878 -0.35347,0.33097 -1.56617,1.485974 -1.98495,1.805945 -1.41749,1.083046 -5.3838,3.207039 -5.83623,3.465838 -0.51291,0.293399 -1.01527,0.60628 -1.53997,0.878036 -0.40203,0.208216 -0.82485,0.37357 -1.23727,0.560356 -1.41569,0.689131 -2.82921,1.35115 -4.31905,1.868392 -1.37924,0.478843 -0.88965,0.263797 -2.18166,0.596519 -0.39784,0.102454 -0.79121,0.221554 -1.18682,0.332332 -0.0716,-0.0038 -1.57228,-0.08163 -1.59039,-0.08969 -0.16062,-0.07157 -0.14785,-0.330419 -0.27868,-0.447923 -0.15847,-0.142346 -0.39188,-0.176573 -0.56091,-0.306211 -0.31563,-0.24207 -0.50962,-0.609864 -0.71766,-0.934392 -0.81516,-1.892519 0.4156,0.797309 -0.7202,-1.110829 -0.50687,-0.851545 -0.0782,-0.627843 -0.434,-1.582158 -0.21867,-0.586459 -0.74311,-1.02838 -0.89707,-1.649547 -0.0859,-0.344991 -0.18294,-0.687391 -0.25766,-1.034971 -0.0801,-0.372488 -0.0977,-0.759053 -0.20651,-1.124185 -0.10771,-0.361493 -0.34155,-0.678543 -0.43923,-1.042874 -0.34984,-1.30484 -0.0419,-2.700748 -0.58177,-3.970528 -0.22374,-1.038611 -0.44918,-1.815058 -0.44012,-2.893714 0.005,-0.574855 0.17806,-1.14188 0.16587,-1.716627 -0.0109,-0.514268 -0.18558,-1.013169 -0.23458,-1.525214 -0.15705,-1.640965 -0.0531,-1.628971 0.18395,-3.314319 0.0564,-0.561181 0.13915,-1.120339 0.16929,-1.683544 0.0277,-0.517562 -0.0497,-1.039397 0.004,-1.554903 0.0599,-0.574268 0.23479,-1.130814 0.33535,-1.699369 0.28679,-1.621591 0.42504,-3.272147 0.88325,-4.860774 0.11938,-0.520994 0.28048,-1.034161 0.35814,-1.562986 0.0687,-0.46809 -0.0325,-0.957432 0.0795,-1.417103 0.14452,-0.593299 0.4884,-1.121249 0.68005,-1.701043 0.45356,-1.372124 0.58053,-2.826248 0.90607,-4.227756 0.18205,-0.453734 0.43522,-0.885061 0.54615,-1.361202 0.0724,-0.310899 -0.0383,-0.640072 -0.006,-0.957649 0.032,-0.314047 0.14583,-0.614762 0.19798,-0.9261 0.0405,-0.242062 0.007,-0.497575 0.0798,-0.73197 0.0812,-0.26163 0.30989,-0.465306 0.37467,-0.731488 0.0296,-0.121494 -0.0729,-0.239226 -0.10932,-0.358838 0,0 3.33429,-1.565908 3.33429,-1.565908 z"
       inkscape:connector-curvature="0" />
    <path
       style="opacity:1;fill:#000000;fill-opacity:1;stroke:none;stroke-width:0.60000002;stroke-miterlimit:4;stroke-dasharray:none;stroke-opacity:1"
       id="path3953"
       d="m 149.4898,89.577801 c 0.20323,-1.439259 -0.0258,0.569902 -0.0457,-1.134671 -0.004,-0.343355 0.0707,-0.683175 0.0977,-1.025493 0.033,-0.418677 0.0611,-0.837793 0.0821,-1.257242 0.0885,-1.771859 0.0641,-1.284388 -0.031,-3.15618 -0.10985,-0.586684 -0.278,-1.165402 -0.32956,-1.760051 -0.0596,-0.687284 0.0616,-1.382707 -0.002,-2.069589 -0.0617,-0.661299 -0.26305,-1.302279 -0.37309,-1.957268 -0.11341,-0.675013 -0.16283,-1.360639 -0.2971,-2.031815 -0.12892,-0.644446 -0.38286,-1.26124 -0.49135,-1.909437 -0.11262,-0.672836 -0.11309,-1.359697 -0.16963,-2.039546 -0.12189,-0.62747 -0.31934,-1.244894 -0.36566,-1.882413 -0.0497,-0.684082 0.14349,-1.373235 0.0795,-2.056127 -0.0546,-0.582692 -0.29757,-1.13217 -0.43177,-1.701824 -0.12943,-0.549412 -0.26776,-1.097835 -0.35899,-1.654868 -0.22016,-1.344292 -0.19148,-1.942081 -0.22866,-3.293917 -0.87847,-1.131228 -0.55914,-2.496759 -0.88188,-3.7783 -0.0882,-0.350269 -0.30719,-0.657188 -0.40653,-1.004467 -0.0973,-0.340079 -0.11085,-0.698883 -0.17992,-1.045795 -0.0647,-0.32485 -0.14746,-0.645832 -0.22119,-0.968748 -0.10227,-0.295425 -0.20453,-0.590854 -0.3068,-0.88628 -0.12894,-0.26507 -0.28823,-0.517419 -0.38683,-0.79521 -0.16547,-0.466199 -0.24607,-1.187995 -0.31653,-1.675717 0,0 2.91463,-1.631009 2.91463,-1.631009 v 0 c 0.2072,0.187831 0.49676,0.313238 0.6216,0.563492 0.13654,0.273711 0.0368,0.614521 0.11374,0.910558 0.55557,2.137132 0.21324,-0.585341 0.42963,1.845585 0.11221,0.30458 0.25084,0.600689 0.33663,0.913738 0.5493,2.004473 -0.17959,0.06615 0.45935,2.137821 0.11352,0.368061 0.32343,0.704857 0.41102,1.079933 0.0859,0.367769 0.25176,2.489775 0.27895,2.809529 0.15422,0.472265 0.36042,0.930624 0.46266,1.416799 0.35127,1.670375 0.24021,3.597468 0.50902,5.278299 0.0966,0.60429 0.32907,1.181204 0.43064,1.784684 0.10942,0.650073 0.13394,1.311616 0.20091,1.967425 0.20734,3.841647 -0.0971,0.334601 0.54704,4.009089 0.11903,0.679032 0.13891,1.373293 0.26399,2.051238 0.16085,0.871852 0.79273,2.893425 0.82851,3.800988 0.0272,0.688737 -0.13738,1.371682 -0.20607,2.057522 0.0826,1.021185 0.21139,2.039376 0.25494,3.06297 0.0173,0.406254 -0.0124,0.813234 -0.009,1.219837 0.003,0.320469 0.0121,0.640967 0.0289,0.961009 0.0115,0.22074 0.0793,0.44095 0.056,0.660755 -0.0209,0.196678 -0.12401,0.375629 -0.18601,0.563443 0,0 -3.18189,1.621253 -3.18189,1.621253 z"
       inkscape:connector-curvature="0" />
    <path
       style="opacity:1;fill:#000000;fill-opacity:1;stroke:none;stroke-width:0.60000002;stroke-miterlimit:4;stroke-dasharray:none;stroke-opacity:1"
       id="path3955"
       d="m 135.66799,55.314673 c 0.29901,-0.05092 0.57461,0.101782 0.86527,0.115615 0.28566,0.0136 0.57151,-0.03466 0.85744,-0.02917 0.9547,0.01834 1.91197,0.194749 2.86103,0.287978 1.23392,0.06715 2.44817,-0.06332 3.67529,0.125505 0.33646,0.05177 0.65998,0.193479 1.00015,0.206661 1.73937,-0.142071 0.92897,-0.145167 2.43081,-0.04416 1.36534,-0.244967 1.14053,-0.284732 2.3457,-0.255146 0.27047,0.0066 0.5397,0.06204 0.81004,0.05128 0.3363,-0.01339 0.66679,-0.09475 1.00214,-0.123404 0.54587,-0.04664 1.0946,-0.05141 1.64115,-0.08918 0.22247,-0.0037 0.44494,-0.0073 0.66741,-0.01101 0,0 -2.98635,2.20291 -2.98635,2.20291 v 0 c -0.1983,-0.01812 -0.39659,-0.03627 -0.59489,-0.0544 -0.54018,0.03704 -1.08311,0.02988 -1.6225,0.07688 -0.34281,0.02987 -0.67923,0.122735 -1.02297,0.138605 -0.96536,0.04457 -1.9301,-0.31404 -2.89352,-7.94e-4 -0.44836,0.04725 -0.89423,0.140578 -1.34507,0.141748 -0.35686,0.0011 -0.70572,-0.114811 -1.06198,-0.135504 -0.42858,-0.0249 -0.85904,0.01826 -1.28791,-0.0011 -0.38506,-0.01728 -0.76605,-0.09488 -1.15126,-0.108445 -0.29233,-0.01029 -2.32883,0.04638 -2.63626,0.05428 -1.5173,-0.515768 -0.0301,-0.114871 -1.95109,-0.23323 -0.26422,-0.01627 -0.51383,-0.151749 -0.7785,-0.156948 -0.32746,-0.0064 -0.64739,0.124624 -0.9749,0.122515 -1.70238,-0.01098 0.97158,-0.341754 -0.90963,-0.05812 0,0 3.0604,-2.223513 3.0604,-2.223513 z"
       inkscape:connector-curvature="0" />
    <path
       style="opacity:1;fill:#000000;fill-opacity:1;stroke:none;stroke-width:0.60000002;stroke-miterlimit:4;stroke-dasharray:none;stroke-opacity:1"
       id="path3957"
       d="m 164.66264,47.792852 c 0.0948,0.212487 0.18957,0.424971 0.28436,0.637455 0.18193,0.30045 0.39265,0.585248 0.54577,0.901348 0.19825,0.409252 0.31088,0.856067 0.50479,1.267391 0.22681,0.481124 0.50864,0.934392 0.75533,1.405634 1.70471,3.256441 -0.11074,-0.09385 1.76423,3.325627 0.90921,1.316053 0.62035,2.967569 1.14157,4.38526 0.2639,0.717804 0.82627,1.29291 1.14583,1.987729 0.32943,0.716312 0.5222,1.48794 0.79317,2.22835 0.60808,1.661541 1.00725,2.659857 1.64807,4.30289 0.33562,0.658164 0.73093,1.289156 1.00686,1.974487 0.28014,0.695786 0.38065,1.454658 0.6549,2.152785 0.2559,0.651412 0.64438,1.243471 0.93026,1.882296 0.76254,1.703967 1.39514,3.486666 2.07338,5.225982 0.35611,0.710985 0.94726,1.950299 1.39878,2.633527 0.22547,0.341162 0.50422,0.643946 0.75553,0.966539 0.20259,0.260046 0.40112,0.523261 0.60615,0.781375 0.15313,0.19277 0.2639,0.433869 0.46825,0.571162 0.16986,0.114117 0.3978,0.0962 0.5967,0.144309 0.79839,-0.185857 4.3985,-1.05773 -2.19256,1.241134 -0.23064,0.08044 0.31244,-0.377458 0.44158,-0.584793 0.17169,-0.275651 0.30585,-0.572976 0.45817,-0.859785 0.20558,-0.387056 0.46238,-0.751168 0.61552,-1.161801 0.14531,-0.38966 0.18122,-0.81176 0.27184,-1.217642 1.18791,-4.35625 -0.28833,1.415029 0.51012,-2.915711 0.10521,-0.570663 0.37294,-1.104653 0.46508,-1.677574 0.0785,-0.488199 -0.0426,-0.99581 0.0432,-1.482789 0.10213,-0.579882 0.35758,-1.122291 0.5155,-1.689526 0.14305,-0.513826 0.25806,-1.035047 0.38709,-1.552572 0.43416,-0.780841 0.0888,-1.687195 0.31059,-2.49559 0.11086,-0.403987 0.39819,-0.740555 0.54088,-1.134432 0.0654,-0.180428 0.10319,-0.95108 0.21706,-1.01858 1.18659,-0.703368 2.45749,-1.253636 3.68624,-1.880452 0.21036,0.112882 0.49375,0.14337 0.63109,0.338648 0.16579,0.235731 0.11738,0.564954 0.19882,0.841396 0.0999,0.338958 0.22532,0.669891 0.34445,1.002565 0.14026,0.391681 0.31121,0.772736 0.43366,1.170344 0.28809,0.935477 0.49751,1.893531 0.76492,2.835127 -0.0483,4.09892 -0.17986,-0.415004 0.44431,3.190108 0.82551,4.768072 -0.7066,-1.444554 0.26105,2.991974 0.0811,0.372012 0.6287,2.006894 0.75651,2.395469 0.13664,0.71801 0.47324,1.380728 0.63754,2.090465 0.0744,0.321246 0.009,0.678164 0.14441,0.978622 0.55914,1.236763 0.57664,0.03135 1.06117,1.2211 0.0964,0.236696 0.0488,0.508812 0.0732,0.763217 0.58582,-0.385419 1.03754,0.903544 1.43871,0.96897 0.18307,0.02985 0.37204,-0.05577 0.53991,-0.13467 0.1943,-0.09132 0.72282,-0.459608 0.52882,-0.367652 -0.81535,0.386469 -1.59927,0.836039 -2.39891,1.254056 0.11045,-0.206523 0.2209,-0.413046 0.33136,-0.619569 0.28674,-0.378201 0.62644,-0.721566 0.86023,-1.134605 0.22742,-0.401791 0.28568,-0.884335 0.51071,-1.28747 0.38092,-0.682408 0.92537,-1.265537 1.29787,-1.952575 0.33665,-0.6209 0.52654,-1.311336 0.82008,-1.953739 0.34016,-0.744434 0.72015,-1.470017 1.08023,-2.205024 0.0625,-0.13222 2.25728,-4.774642 2.28522,-4.8294 0.45385,-0.88946 1.0005,-1.730658 1.43328,-2.630562 1.70947,-3.55461 0.22805,-1.236456 2.04024,-4.780518 0.44392,-0.868169 0.97308,-1.690047 1.45962,-2.53507 0.23881,-0.69768 0.40141,-1.426303 0.71645,-2.09304 0.37486,-0.79335 0.9394,-1.484915 1.34245,-2.264325 0.31758,-0.614122 0.52644,-1.279006 0.81481,-1.907373 0.28942,-0.630669 0.62753,-1.238197 0.91795,-1.868408 0.54087,-1.173713 0.86693,-2.061393 1.33122,-3.254177 0.23434,-0.553556 0.97444,-2.238639 1.14032,-2.864419 0.0995,-0.375303 0.0517,-0.781066 0.16109,-1.153604 0.12903,-0.439426 0.36508,-0.840055 0.54763,-1.260081 0,0 3.23724,-1.517388 3.23724,-1.517388 v 0 c -0.47674,1.816611 -1.18161,3.565456 -1.86932,5.312034 -0.11723,0.272365 -1.33424,3.105637 -1.4337,3.312578 -0.31113,0.647354 -0.69335,1.259319 -0.99634,1.910522 -0.28707,0.617006 -0.47527,1.277535 -0.77192,1.889995 -0.36636,0.756383 -0.8473,1.453592 -1.21386,2.209877 -0.34451,0.710774 -0.61093,1.456815 -0.91639,2.185223 -2.33934,5.29975 0.46204,-0.798171 -2.57501,4.951283 -1.67822,3.177061 -2.69537,6.675702 -4.54167,9.770993 -1.6809,4.058756 -0.0115,0.182518 -1.92433,4.175887 -0.82116,1.714273 -1.44617,3.526928 -2.67814,5.013042 -1.27559,0.796478 -2.53499,1.619475 -3.82676,2.389434 -0.2344,0.139718 -0.4787,0.283223 -0.74636,0.33638 -0.27393,0.0544 -1.50319,-0.495043 -1.64891,-0.667797 -0.15113,-0.179166 -0.1438,-0.446186 -0.2157,-0.66928 -0.13049,-0.210105 -0.25136,-0.426511 -0.39149,-0.630319 -0.13328,-0.193858 -0.88015,-1.140447 -0.97905,-1.325793 -0.50203,-0.940924 -0.7193,-2.057133 -0.8159,-3.102811 -0.34215,-1.26955 -0.76809,-2.533303 -0.98424,-3.833037 -0.0828,-0.497848 -0.0849,-1.007486 -0.17736,-1.503635 -0.53247,-2.857765 -0.36272,-0.07229 -0.40233,-3.208203 -0.0965,-0.507206 -0.19303,-1.014415 -0.28955,-1.521621 -0.19072,-0.411279 -0.45525,-0.795819 -0.57216,-1.233834 -0.11311,-0.423794 -0.009,-0.883936 -0.1072,-1.311513 -0.1844,-0.805797 -0.67143,-1.078495 -1.0693,-1.707441 0.98087,-0.621073 1.93775,-1.28175 2.94261,-1.863215 0.18551,-0.107349 -0.35707,0.254921 -0.47385,0.434653 -0.12752,0.196257 -0.15803,0.44061 -0.23781,0.660643 -0.43573,1.201846 -0.81758,2.416479 -1.04853,3.677991 -0.16423,1.004795 -0.28919,2.015776 -0.45541,3.02024 -0.15305,0.924851 -0.46321,2.269765 -0.59469,3.20076 -0.0701,0.496478 -0.0452,1.006282 -0.14918,1.496796 -0.11043,0.521208 -0.32684,1.014193 -0.49026,1.521288 -0.11911,1.629037 0.0601,0.734991 -0.52168,2.291569 -0.35166,0.940909 -0.22871,1.097727 -1.20262,1.761133 -3.70292,2.522344 -2.54671,3.045648 -4.17271,2.117479 -0.12938,-0.138581 -0.24018,-0.297196 -0.38814,-0.41574 -0.35997,-0.28842 -1.36598,-0.813038 -1.62728,-1.14413 -0.25863,-0.327686 -0.3582,-0.754335 -0.52428,-1.137324 -1.45423,-3.353615 0.44232,0.812392 -1.20528,-2.759851 -0.49673,-1.090083 -1.06235,-2.148649 -1.53664,-3.248681 -0.26624,-0.617498 -0.42855,-1.278091 -0.71593,-1.88604 -0.29958,-0.633743 -0.7802,-1.176771 -1.0397,-1.827953 -0.28149,-0.706382 -0.37938,-1.472729 -0.56907,-2.209094 -0.29675,-0.68004 -0.5935,-1.36008 -0.89026,-2.040117 -1.05603,-2.890078 -0.59046,-1.408874 -1.38823,-4.446265 -0.25806,-0.736814 -0.64473,-1.422209 -0.95115,-2.140264 -0.87422,-2.048651 -1.6755,-4.130387 -2.69323,-6.11586 -1.36953,-3.892859 0.13396,-0.0099 -1.57129,-3.416908 -0.23849,-0.476486 -0.36407,-1.00393 -0.60067,-1.48136 -0.19955,-0.402683 -0.47522,-0.763032 -0.70342,-1.150199 -0.75494,-1.280864 -0.22216,-0.548802 -0.94672,-1.465951 0,0 3.37053,-1.947989 3.37053,-1.947989 z"
       inkscape:connector-curvature="0" />
    <path
       style="opacity:1;fill:#000000;fill-opacity:1;stroke:none;stroke-width:0.60000002;stroke-miterlimit:4;stroke-dasharray:none;stroke-opacity:1"
       id="path3967"
       d="m 239.68132,47.572486 c 0.44361,0.09603 0.88548,-0.07623 1.32706,-0.04589 0.49076,0.03372 0.9497,0.262001 1.43381,0.349308 0.7254,0.130823 1.45925,0.209653 2.18766,0.322545 0.4034,0.08618 0.80027,0.212556 1.2102,0.25853 0.51842,0.05814 1.04536,-0.0024 1.56412,0.05261 0.43458,0.04606 0.85348,0.194882 1.28706,0.249571 0.48813,0.06157 0.9842,0.04001 1.47271,0.09854 3.12271,0.374156 -0.68656,0.151874 2.7614,0.291584 3.14017,0.677032 -1.18944,-0.160901 2.57638,0.195604 3.11928,0.295296 -1.86376,0.416994 2.17017,0.202478 0,0 -3.06835,2.193258 -3.06835,2.193258 v 0 c -0.38048,-0.0088 -0.76236,0.0074 -1.14143,-0.02643 -1.18088,-0.105293 -2.31676,-0.551333 -3.52134,-0.443587 -1.50907,-0.199813 -1.20816,-0.185544 -2.78755,-0.284596 -0.50273,-0.03153 -1.00983,-0.01095 -1.5092,-0.07704 -1.30747,-0.173027 -2.56609,-0.747683 -3.91577,-0.656865 -1.74804,-0.502544 -0.21149,-0.169172 -2.28156,-0.246943 -0.9783,-0.03675 -1.92846,-0.485019 -2.91282,-0.224407 0,0 3.14745,-2.208273 3.14745,-2.208273 z"
       inkscape:connector-curvature="0" />
    <path
       style="opacity:1;fill:#000000;fill-opacity:1;stroke:none;stroke-width:0.60000002;stroke-miterlimit:4;stroke-dasharray:none;stroke-opacity:1"
       id="path3969"
       d="m 252.14912,52.362605 c -0.10366,0.212262 -0.25761,0.406673 -0.31099,0.636784 -0.0539,0.232206 2.6e-4,0.47676 -0.003,0.715115 -0.004,0.317196 -0.0119,0.634326 -0.0178,0.95149 0.0363,0.373464 0.11163,0.74518 0.10884,1.120391 -0.0223,3.010956 -0.34132,-0.07362 0.0714,2.900984 -0.0847,1.644618 0.23192,3.339584 -0.006,4.97898 -0.096,0.660384 -0.41725,1.279022 -0.48126,1.943272 -0.0507,0.526589 0.11032,1.05265 0.1417,1.580747 0.0315,0.530725 0.0313,1.062863 0.047,1.594295 -0.27728,1.061945 0.0926,2.133423 0.007,3.194949 -0.0466,0.577282 -0.29262,1.127282 -0.33496,1.704893 -0.035,0.477306 0.12822,0.953889 0.10503,1.431912 -0.18458,3.804894 -0.39023,-0.513501 -0.16111,2.767415 -0.0627,0.393999 -0.12529,0.787995 -0.18793,1.181994 0,0 -3.21402,1.600999 -3.21402,1.600999 v 0 c 0.0323,-0.373504 0.0646,-0.747009 0.0969,-1.120513 0.0718,-1.813113 0.005,-0.881144 0.21284,-2.795061 0.0226,-0.490606 -0.0439,-0.982438 -0.0245,-1.473184 0.0194,-0.49171 0.27565,-2.82834 0.32456,-3.28961 0.0208,-0.525258 -0.0327,-1.050829 -0.0491,-1.576244 0.63815,-5.010767 -0.0657,1.383511 0.11864,-3.322339 0.0239,-0.609928 0.20579,-1.206357 0.23491,-1.816057 0.0266,-0.556303 -0.0573,-1.112581 -0.0684,-1.669407 -0.0216,-1.088261 0.0275,-2.177164 -0.002,-3.265427 0.009,-0.341238 0.0827,-2.549535 0.0417,-2.958608 -0.0358,-0.357936 -0.20188,-0.693867 -0.24504,-1.050996 -0.0894,-0.740085 0.22703,-1.431105 0.01,-2.139474 0,0 3.58627,-1.8273 3.58627,-1.8273 z"
       inkscape:connector-curvature="0" />
    <path
       style="opacity:1;fill:#000000;fill-opacity:1;stroke:none;stroke-width:0.60000002;stroke-miterlimit:4;stroke-dasharray:none;stroke-opacity:1"
       id="path3973"
       d="m 239.76996,82.297246 c 0.18348,-0.01132 0.3716,-0.07651 0.55044,-0.03397 0.16066,0.03821 0.27927,0.176353 0.4189,0.264528 0.24956,0.05433 0.495,0.133286 0.74866,0.162994 0.37955,0.04445 0.76401,0.02805 1.14492,0.05877 1.26029,0.101629 1.2764,0.142661 2.55908,0.389115 0.46873,0.123365 0.92704,0.297024 1.4062,0.370094 0.63134,0.09628 1.27407,0.09052 1.9111,0.135781 0.65163,0.07673 1.30649,0.129707 1.95488,0.230177 0.61486,0.09527 1.22543,0.218964 1.8322,0.356643 0.57673,0.130863 1.12877,0.383153 1.71653,0.44858 0.75941,0.08453 1.52819,-0.0016 2.29229,-0.0024 1.14036,0.0847 2.22181,0.481021 3.3439,0.658487 2.19435,0.225036 1.14667,0.07345 3.14585,0.434925 0,0 -2.77178,1.953083 -2.77178,1.953083 v 0 c -1.64105,-0.269433 -1.43657,-0.271738 -3.19924,-0.398828 -0.64465,-0.04648 -1.29411,-0.03109 -1.93605,-0.106222 -0.58397,-0.06834 -1.15598,-0.21553 -1.73397,-0.323294 -3.89766,-0.460145 -0.12064,0.08331 -3.6574,-0.692235 -2.39048,-0.524187 -1.39327,-0.164793 -3.85486,-0.529029 -0.55278,-0.08179 -1.08968,-0.256424 -1.64365,-0.329764 -0.58239,-0.0771 -1.17219,-0.08042 -1.75829,-0.120628 -0.46657,-0.07071 -0.93102,-0.157293 -1.39973,-0.212138 -1.38604,-0.162192 -2.80789,-0.120624 -4.14504,-0.563986 0,0 3.07506,-2.150742 3.07506,-2.150742 z"
       inkscape:connector-curvature="0" />
    <path
       style="opacity:1;fill:#000000;fill-opacity:1;stroke:none;stroke-width:0.60000002;stroke-miterlimit:4;stroke-dasharray:none;stroke-opacity:1"
       id="path3975"
       d="m 305.08789,41.267848 c -0.0631,0.202174 -0.15573,0.397402 -0.18923,0.606521 -0.0476,0.297145 -0.0358,0.600813 -0.0524,0.90129 -0.0788,1.422889 -0.0841,1.420259 -0.11247,2.986934 -0.0625,3.458403 0.0551,1.043514 -0.21535,4.890746 0.22,4.506052 0.43122,9.014497 1.34462,13.448133 0.50262,2.439784 1.19575,4.563607 1.90941,6.942558 4.58828,10.986436 -1.99326,-4.395491 2.88671,5.843241 0.4312,0.904655 0.51951,1.968693 1.05694,2.814558 0.51006,0.802814 1.38258,1.309923 2.01496,2.020395 0.57232,0.643001 1.05126,1.363615 1.59273,2.032799 0.50401,0.622869 1.02889,1.228558 1.54332,1.842839 0.40912,0.304681 2.90851,2.221487 3.50536,2.465739 0.63566,0.260141 1.34231,0.293831 2.01895,0.411819 0.52504,0.09156 1.05347,0.265345 1.5842,0.216487 1.49254,-0.137395 2.57241,-0.882943 3.85413,-1.561002 -0.55724,0.216784 -1.66783,1.248275 -1.67177,0.650349 -0.005,-0.80799 1.143,-1.145016 1.66444,-1.762249 0.63294,-0.749208 1.23653,-1.525186 1.79432,-2.331895 1.08739,-1.572578 2.22798,-3.573108 2.98845,-5.331807 0.37092,-0.857768 0.63653,-1.75733 0.95477,-2.635996 0.32301,-0.893019 0.62426,-1.794208 0.96904,-2.679057 0.35422,-0.909137 0.77388,-1.791893 1.12734,-2.701329 1.13408,-2.917857 2.13508,-5.921566 2.97748,-8.93536 0.17508,-0.601113 0.35015,-1.202222 0.52525,-1.803334 0.0411,-0.495676 0.0167,-1.001234 0.12333,-1.487022 0.83301,-3.791342 0.39629,0.351443 0.64997,-2.834828 0,0 3.41255,-1.663266 3.41255,-1.663266 v 0 c -0.53026,2.114682 -0.79156,4.29846 -1.62526,6.327151 -0.0327,0.151288 -0.83778,3.882628 -0.85347,3.929152 -0.28638,0.850212 -0.74062,1.634953 -1.07421,2.467785 -1.03576,2.586048 -1.60705,5.316114 -2.83905,7.826872 -1.96938,4.894892 -0.045,0.581689 -2.95934,5.672415 -2.03838,3.560551 -0.36388,1.446787 -2.73124,4.735724 -0.42871,0.595606 -0.79309,1.272191 -1.37488,1.719464 -1.55374,1.194477 -3.30846,2.101815 -4.96269,3.152722 -1.59038,0.744447 -1.98048,1.11633 -3.7212,1.238186 -0.64225,0.04496 -1.29911,0.04326 -1.9295,-0.08753 -0.57224,-0.118719 -3.38096,-1.375093 -3.74037,-1.630199 -0.60743,-0.431141 -1.05301,-1.053811 -1.5795,-1.580718 -1.07289,-1.05445 -2.63684,-2.515307 -3.53576,-3.717825 -1.37401,-1.838052 -1.74064,-3.013458 -2.86068,-5.026234 -2.40757,-4.326601 -1.09865,-1.095629 -2.68449,-6.00969 -0.40129,-1.10581 -0.8672,-2.190266 -1.2039,-3.31743 -0.67107,-2.246612 -1.152,-4.967809 -1.44204,-7.287504 -0.14893,-1.191238 -0.20579,-2.392283 -0.32715,-3.586646 -0.11039,-1.086308 -0.30282,-2.165012 -0.36807,-3.254963 -0.06,-1.003088 -0.005,-2.009764 -0.007,-3.014644 0.0611,-0.894005 0.12229,-1.788009 0.18344,-2.682012 -0.10761,-0.678701 -0.33349,-1.349007 -0.32285,-2.036106 0.0101,-0.640639 0.31732,-1.246204 0.38357,-1.883484 0.0423,-0.406482 -0.066,-0.815891 -0.0605,-1.224524 0.008,-0.598601 0.0954,-0.964022 0.19992,-1.517938 0,0 3.17931,-1.559288 3.17931,-1.559288 z"
       inkscape:connector-curvature="0" />
    <path
       style="opacity:1;fill:#000000;fill-opacity:1;stroke:none;stroke-width:0.60000002;stroke-miterlimit:4;stroke-dasharray:none;stroke-opacity:1"
       id="path3977"
       d="m 376.78203,51.905789 c -0.20616,-0.03048 -0.41677,-0.03914 -0.61851,-0.09143 -0.22643,-0.0587 -0.4317,-0.186775 -0.65953,-0.239837 -0.77536,-0.180594 -1.51477,-0.164759 -2.30714,-0.231174 -2.44843,-0.205216 -0.33695,-0.127178 -3.02093,-0.166516 -1.6682,-0.01873 -3.37156,0.01254 -5.00134,0.421796 -0.60502,0.151929 -1.19121,0.371973 -1.77893,0.581099 -0.50876,0.181031 -1.02851,0.34281 -1.50918,0.588907 -0.6531,0.334375 -1.25288,0.763977 -1.87931,1.145964 0.62706,-0.346628 1.16523,-1.06788 1.88119,-1.039884 0.55808,0.02183 -0.87884,0.690692 -1.29535,1.062794 -1.78422,1.594022 -2.26885,2.595549 -2.98257,4.815739 -0.56713,2.126967 -0.35811,0.785654 -0.35925,2.871473 -2.6e-4,0.527698 -0.19095,1.078116 -0.0364,1.582671 0.20627,0.673362 1.57883,1.844556 1.97462,2.339417 0.31546,0.394459 0.55496,0.844108 0.83243,1.266161 0.92228,0.557114 1.45478,1.546907 2.29121,2.193771 0.4473,0.345938 0.99401,0.543343 1.46079,0.862513 0.21659,0.148095 2.15223,1.738066 2.38247,1.899539 0.41074,0.28807 0.85548,0.524319 1.28323,0.786479 0.96745,0.88668 2.32513,1.189622 3.31475,2.038197 0.51221,0.439213 0.82645,1.072901 1.31183,1.541621 0.22876,0.220919 0.49829,0.395293 0.74745,0.592936 0.33409,0.670071 0.87656,1.309505 1.08217,2.043158 0.16373,0.584284 0.0183,1.243637 -0.004,1.837317 -0.0238,0.170997 -0.0169,0.349146 -0.0713,0.512992 -0.38354,1.154922 -2.11082,2.160585 -3.0752,2.78801 -1.69146,1.143082 -3.50505,2.084774 -5.34377,2.960987 -0.37592,0.179136 -0.73382,0.396306 -1.11672,0.559969 -0.22953,0.0981 -0.4766,0.148598 -0.71488,0.222896 -0.31472,0.140901 -0.62947,0.281799 -0.94419,0.422701 -0.73965,0.29574 -1.4954,0.521311 -2.23735,0.811085 0,0 2.98612,-2.334657 2.98612,-2.334657 v 0 c 0.74811,-0.225107 1.50849,-0.400439 2.19514,-0.79312 0.97584,-0.25336 1.78295,-0.728419 2.68867,-1.162942 0.23667,-0.113546 0.9426,-0.454488 0.72469,-0.308144 -0.51379,0.345033 -3.58857,2.129631 -1.60295,0.936868 0.66368,-0.408696 1.65555,-1.023395 2.23904,-1.531067 0.46328,-0.403063 0.62082,-1.051086 1.006,-1.512596 0.40298,-1.221544 0.0879,0.150418 -0.063,-0.925198 -0.10147,-0.723172 0.31742,-0.651811 -0.0135,-1.38299 -0.20966,-0.463418 -0.82503,-0.668427 -0.91816,-1.218792 -0.18201,-0.231127 -0.37248,-0.455819 -0.54599,-0.693383 -0.18611,-0.254805 -0.30425,-0.564661 -0.53219,-0.78282 -0.2672,-0.255704 -0.61375,-0.412933 -0.92538,-0.612088 -0.33247,-0.212468 -0.66386,-0.427341 -1.00668,-0.622644 -1.74189,-0.992293 -0.66464,-0.151413 -2.12942,-1.499496 -4.10382,-2.305461 1.28667,0.855112 -2.43666,-1.751426 -0.46011,-0.322114 -1.01375,-0.49223 -1.48015,-0.80519 -1.36481,-0.915797 -2.3557,-2.292924 -3.78172,-3.13232 -0.95541,-1.527493 -2.6294,-3.619355 -2.75852,-5.460085 -0.0371,-0.529383 0.15505,-1.05234 0.17174,-1.582764 0.014,-0.444751 -0.0533,-0.888343 -0.08,-1.332515 0.0667,-0.158528 1.03373,-2.487581 1.17758,-2.718705 0.29192,-0.468969 0.67109,-0.878308 1.02984,-1.298342 1.90913,-2.235163 3.86382,-3.524655 6.68205,-4.873199 0.53798,-0.293344 1.05733,-0.623726 1.61391,-0.880031 1.60422,-0.738772 3.35864,-1.127278 5.0895,-1.412833 0.64351,-0.106164 1.28404,-0.254338 1.93542,-0.287401 0.50612,-0.02569 1.01082,0.0748 1.5162,0.112205 2.28706,0.25341 4.5892,0.461341 6.88636,0.540694 0,0 -3.27459,2.343632 -3.27459,2.343632 z"
       inkscape:connector-curvature="0" />
    <path
       style="opacity:1;fill:#000000;fill-opacity:1;stroke:none;stroke-width:0.60000002;stroke-miterlimit:4;stroke-dasharray:none;stroke-opacity:1"
       id="path3979"
       d="m 385.64682,96.620848 c 0.34279,-0.821756 0.20632,-1.8064 0.37719,-2.621616 0.12491,-0.596019 0.42407,-1.147794 0.53697,-1.7462 0.11869,-0.62901 0.10247,-1.276109 0.15372,-1.914165 0.17439,-0.815051 0.34878,-1.630106 0.52316,-2.445157 1.71114,-7.144282 -0.13395,1.430139 0.70739,-5.33603 0.12322,-0.990925 0.50584,-1.937231 0.63725,-2.927103 0.11735,-0.883913 -0.0395,-1.793203 0.10613,-2.672893 1.07225,-6.47596 0.7916,0.226423 0.85201,-5.372608 0.15163,-0.825365 0.30329,-1.650727 0.45492,-2.476092 0.20715,-0.792647 0.46533,-1.573684 0.62138,-2.377943 0.12684,-0.653613 0.0876,-1.333254 0.22524,-1.984684 0.14076,-0.666438 0.46334,-1.285444 0.60621,-1.951429 0.74107,-3.453866 -0.65429,0.494672 0.73388,-3.016997 0.5942,-1.654598 0.25175,-0.837861 0.98435,-2.361117 0.39394,-0.819111 0.40653,-1.031767 1.0918,-1.688029 1.20915,-1.157949 4.34436,-2.527765 5.02635,-2.890178 0.84709,-0.152932 2.1169,-0.406922 2.94018,-0.432359 0.58161,-0.01796 1.1612,0.08099 1.74281,0.09954 0.7547,0.02408 1.51402,-0.04953 2.2651,0.0283 0.71488,0.07408 1.4043,0.310251 2.1137,0.425471 0.82643,0.134232 1.66068,0.214956 2.49103,0.322435 3.37457,0.357341 1.73421,0.126185 4.9232,0.678103 0,0 -2.74071,1.931337 -2.74071,1.931337 v 0 c -3.05358,-0.741953 -1.42073,-0.483534 -4.91278,-0.679302 -0.85611,-0.08724 -1.71363,-0.161647 -2.56834,-0.261721 -0.76737,-0.08985 -3.3786,-0.487553 -4.23452,-0.511712 -1.88587,-0.05323 -1.84365,0.155491 -3.60773,0.339963 -0.2994,0.03131 -0.60182,0.01662 -0.90273,0.02495 0.56248,-0.364369 1.10575,-0.760265 1.68743,-1.093108 0.27525,-0.157493 -0.52895,0.353751 -0.76512,0.56537 -0.36288,0.325125 -1.23047,1.319109 -1.44383,1.723837 -0.15624,0.296352 -0.19375,0.641395 -0.29062,0.962094 -0.24344,0.454046 -0.48686,0.908089 -0.7303,1.362133 0.1256,2.34819 0.16931,-0.02974 -0.6712,2.957375 -0.16216,0.576389 -0.1261,1.194152 -0.26421,1.776775 -0.17687,0.746164 -0.48432,1.456367 -0.6781,2.198325 -0.46823,1.792954 -0.59351,2.914705 -0.87889,4.752014 -0.0543,0.827008 -0.0549,1.659305 -0.16293,2.481027 -0.12438,0.946097 -0.36791,1.872814 -0.53298,2.812664 -0.6458,3.676893 -1.15321,7.379679 -1.7181,11.069113 -0.10099,0.813523 -0.40381,3.440129 -0.59735,4.330227 -0.12745,0.586102 -0.38092,1.140473 -0.50234,1.727845 -0.0815,0.394116 -0.069,0.801931 -0.10358,1.202897 0.008,0.26322 0.0632,0.529471 0.0227,0.789659 -0.0347,0.222742 -0.16266,0.4205 -0.244,0.630748 0,0 -3.27371,1.568241 -3.27371,1.568241 z"
       inkscape:connector-curvature="0" />
    <path
       style="opacity:1;fill:#000000;fill-opacity:1;stroke:none;stroke-width:0.60000002;stroke-miterlimit:4;stroke-dasharray:none;stroke-opacity:1"
       id="path3981"
       d="m 392.74122,81.959156 c 0.49253,0.455104 -0.0483,0.04939 1.01746,0.231989 0.24741,0.04239 0.47628,0.158755 0.7144,0.238133 0.46572,-0.02663 0.93229,-0.118422 1.39719,-0.07988 0.12028,0.01 2.73081,0.659799 2.75105,0.664797 0.55275,0.116597 1.11461,0.196218 1.65825,0.34979 0.52832,0.149246 1.02217,0.40595 1.55009,0.556538 2.19401,0.625811 1.54236,0.230613 3.79992,0.762222 1.10416,0.260001 2.17207,0.654997 3.25869,0.980591 0.5838,0.09196 1.16761,0.183927 1.75141,0.275891 0.41587,0.166886 0.80854,0.411195 1.24761,0.500658 0.54227,0.110485 1.10514,0.06086 1.6577,0.0913 0,0 -3.22517,2.231826 -3.22517,2.231826 v 0 c -0.4582,-0.09672 -0.93109,-0.139805 -1.37459,-0.290155 -2.8017,-0.949777 0.86548,-0.373623 -3.04509,-0.748392 -1.67124,-0.572061 -3.36732,-1.056426 -5.10272,-1.4014 -0.65498,-0.130196 -1.32625,-0.173596 -1.97726,-0.322358 -1.06209,-0.2427 -2.06118,-0.719794 -3.12698,-0.950971 -0.55859,-0.07118 -1.11667,-0.146296 -1.67574,-0.21355 -0.48106,-0.05787 -0.97292,-0.05077 -1.44454,-0.161809 -0.27792,-0.06543 -0.50226,-0.282339 -0.77666,-0.361167 -0.55549,-0.15957 -1.57004,-0.238326 -2.16802,-0.184904 0,0 3.113,-2.169149 3.113,-2.169149 z"
       inkscape:connector-curvature="0" />
    <path
       style="opacity:1;fill:#000000;fill-opacity:1;stroke:none;stroke-width:0.60000002;stroke-miterlimit:4;stroke-dasharray:none;stroke-opacity:1"
       id="path3983"
       d="m 392.55676,102.27965 c 0.28543,-0.0795 0.56549,-0.29562 0.85624,-0.23861 0.14722,0.0289 -0.0111,0.37516 0.12782,0.43154 0.29604,0.12004 0.64013,-0.0195 0.95835,0.009 0.33483,0.0298 0.66318,0.11062 0.99489,0.16516 1.61599,0.26573 0.94239,0.15978 2.67795,0.40782 1.7767,-0.1254 3.47086,0.39279 5.19779,0.67638 0.62791,0.10312 1.26325,0.1545 1.89357,0.24173 1.46884,0.20326 2.15956,0.32813 3.61392,0.56999 1.78774,0.0621 3.55854,0.29118 5.32521,0.55335 0,0 -3.01802,2.13075 -3.01802,2.13075 v 0 c -1.71818,-0.32458 -3.41045,-0.78156 -5.18054,-0.65168 -1.88008,-0.19648 -3.74758,-0.42647 -5.61197,-0.74266 -0.57521,-0.0976 -1.14377,-0.23477 -1.72167,-0.31465 -5.71479,-0.7899 1.76421,0.4252 -3.37717,-0.43622 -2.42282,-0.60058 -0.10507,-0.13228 -2.79127,-0.3296 -0.92837,-0.0682 -1.79314,-0.48892 -2.7263,-0.48664 0,0 2.7812,-1.98554 2.7812,-1.98554 z"
       inkscape:connector-curvature="0" />
    <flowRoot
       xml:space="preserve"
       id="flowRoot3997"
       style="fill:black;fill-opacity:1;stroke:none;font-family:sans-serif;font-style:normal;font-weight:normal;font-size:40px;line-height:1.25;letter-spacing:0px;word-spacing:0px"><flowRegion
         id="flowRegion3999"><rect
           id="rect4001"
           width="1112.9861"
           height="480.83261"
           x="394.56558"
           y="620.38062" /></flowRegion><flowPara
         id="flowPara4003"></flowPara></flowRoot>    <g
       aria-label=""
       transform="matrix(1.031811,0,0,1.031811,-249.8386,-471.05497)"
       style="font-style:normal;font-weight:normal;font-size:40px;line-height:1.25;font-family:sans-serif;letter-spacing:0px;word-spacing:0px;fill:#1793d1;fill-opacity:1;stroke:none"
       id="flowRoot4005">
      <path
         d="m 340.10234,551.33293 q 1.536,3.456 5.76,13.44 4.224,9.792 5.376,12.672 1.152,2.88 4.992,11.904 4.032,9.024 6.336,14.016 2.496,4.992 7.488,15.168 5.184,10.176 10.368,20.16 5.376,9.792 12.672,24 7.296,14.016 16.32,30.528 -9.792,-5.568 -25.152,-9.792 5.568,3.072 10.752,6.528 5.376,3.264 7.872,5.184 2.688,1.728 7.104,5.376 4.608,3.456 5.76,4.608 11.712,21.312 15.36,28.608 -43.968,-25.536 -71.232,-30.912 1.152,-4.416 1.152,-9.6 0.384,-13.824 -5.568,-24.384 -5.76,-10.56 -14.4,-11.136 -8.448,-0.576 -14.784,8.64 -6.144,9.216 -6.528,23.04 v 1.152 q 0,5.952 1.152,12.288 -27.456,5.184 -72,30.912 48.768,-87.36 66.432,-124.608 9.792,8.256 26.112,14.976 -12.288,-8.64 -23.616,-20.544 6.144,-12.48 22.272,-52.224 z m 91.776,166.272 v -5.376 h -1.536 v -0.384 h 4.224 v 0.384 h -1.92 v 5.376 z m 3.84,0 v -5.76 h 1.152 l 0.96,3.84 q 0.384,0.768 0.384,1.152 0,-0.384 0.384,-1.152 l 1.152,-3.84 h 1.152 v 5.76 h -0.768 v -4.992 l -1.536,4.992 h -0.768 l -1.344,-4.992 v 4.992 z"
         style="font-style:normal;font-variant:normal;font-weight:normal;font-stretch:normal;font-size:192px;font-family:'InconsolataGo Nerd Font';-inkscape-font-specification:'InconsolataGo Nerd Font';fill:#1793d1;fill-opacity:1"
         id="path4013"
         inkscape:connector-curvature="0" />
    </g>
    <path
       style="opacity:1;fill:#000304;fill-opacity:1;stroke:none;stroke-width:0.60000002;stroke-miterlimit:4;stroke-dasharray:none;stroke-opacity:1"
       id="path4034"
       d="m 163.9558,209.37561 c 0.0114,-0.10092 0.048,-0.20216 0.0341,-0.30276 -0.0876,-0.63321 -0.24321,-0.3032 -0.44574,-1.0286 -0.0966,-0.34579 -0.0597,-0.71973 -0.15521,-1.06582 -1.24796,-4.52173 0.34208,2.85205 -0.8436,-3.03511 -0.17465,-0.69225 -0.33614,-1.38796 -0.52395,-2.07676 -0.21147,-0.77556 -0.47967,-1.53551 -0.67371,-2.31561 -0.0944,-0.37947 -1.03273,-4.97401 -1.11952,-5.28781 -1.41968,-5.13283 -0.5482,0.007 -1.27147,-5.46434 -0.17046,-0.90405 -0.34091,-1.80809 -0.51137,-2.71214 -0.21668,-0.82947 -0.48885,-1.6464 -0.65005,-2.48842 -0.15844,-0.82759 -0.19556,-1.67393 -0.3067,-2.50918 -0.10427,-0.78366 -0.21688,-1.56628 -0.33949,-2.34727 -0.11253,-0.71672 -0.27815,-1.42535 -0.36589,-2.14553 -0.0845,-0.69365 -0.10016,-1.39396 -0.15025,-2.09095 -0.16447,-0.58708 -0.41195,-1.15702 -0.4934,-1.76123 -0.0823,-0.61043 0.0647,-1.2346 0.007,-1.84783 -0.0483,-0.51242 -0.22663,-1.00432 -0.32338,-1.50983 -0.0894,-0.467 -0.15298,-0.93858 -0.23485,-1.40695 -0.0736,-0.42081 -0.21617,-0.83358 -0.23139,-1.26049 -0.0157,-0.44048 0.0931,-0.87659 0.13959,-1.31489 -0.2453,-1.24267 -0.34109,-2.53635 -0.18856,-3.79926 0.0602,-0.49871 0.17791,-0.98888 0.25504,-1.48526 0.43693,-1.37462 0.93116,-2.09493 2.21152,-2.81053 0.97946,-0.54743 1.97388,-1.06762 2.96082,-1.60143 0.90643,-0.19104 1.75659,-0.61243 2.66718,-0.78472 0.45486,-0.0861 0.92462,-0.052 1.38551,-0.0954 1.9626,-0.18499 3.91427,-0.42873 5.88011,-0.58885 0.69474,-0.009 1.38947,-0.0185 2.0842,-0.0278 0.67658,0.0447 1.35172,0.12676 2.02974,0.134 0.80619,0.009 1.61152,-0.11747 2.41717,-0.0865 0.68845,0.0264 1.36543,0.18678 2.05069,0.25809 4.7258,0.49172 -0.29067,-0.15214 4.19382,0.45477 1.01983,0.52578 2.18866,0.59594 3.24519,1.00294 0.44303,0.17067 0.82376,0.47762 1.26193,0.66039 0.47299,0.1973 0.99634,0.26175 1.46197,0.47581 0.59445,0.27328 1.56072,1.0595 2.07708,1.45582 1.93664,3.96978 -0.98886,-1.79156 1.24789,1.86914 0.58591,0.95891 0.24644,1.02354 0.51739,2.06557 0.45861,1.76372 0.44748,-0.046 0.27456,1.96469 -0.006,0.32353 0.0463,0.65369 -0.0191,0.97061 -0.24353,1.17938 -1.049,2.1891 -1.75645,3.11489 -0.88563,1.15896 -0.47006,0.65468 -1.48012,1.76044 -0.42034,0.33196 -0.84353,0.66033 -1.26101,0.99588 -0.96974,0.77945 -1.1411,0.99404 -2.20447,1.68198 -1.27955,0.82781 -2.63086,1.55926 -3.93333,2.35164 -1.87049,1.07117 -3.72078,2.18524 -5.64232,3.16532 -0.5931,0.34036 -1.23847,0.57252 -1.84679,0.88097 -0.37302,0.18914 -0.73489,0.3995 -1.10234,0.59926 -2.40049,1.00612 1.34781,-0.59011 -1.61513,0.77755 -0.17167,0.0793 -0.36216,0.11121 -0.53612,0.1853 -0.61709,0.26282 -1.14091,0.5559 -1.79673,0.70576 -0.33553,0.0884 -1.12677,0.43401 -1.48319,0.37302 -0.0726,-0.0124 -0.07,-0.14138 -0.13596,-0.17425 -0.0872,-0.0435 -0.19436,-0.0184 -0.28978,-0.038 -0.0826,-0.017 -0.16177,-0.0477 -0.24265,-0.0716 0.0681,-0.55344 0.17396,-0.57083 0.65063,-0.84114 2.65742,-1.50697 1.53465,-0.97426 2.80828,-1.56174 0.50843,-0.10202 0.99867,-0.33518 1.50614,-0.43174 0.14877,-0.0283 0.30387,0.005 0.45408,-0.0145 1.3695,-0.17534 -0.0186,-0.10393 1.13156,-0.14097 0.2927,-0.0366 0.84637,-0.12853 1.15032,-0.0805 0.80765,0.12775 1.25551,0.62893 1.83704,1.13387 0.28578,0.24814 0.58298,0.48283 0.87447,0.72424 0.28339,0.34406 0.58863,0.67123 0.85018,1.03217 0.2982,0.41152 0.52507,0.87197 0.82626,1.2813 0.3466,0.47104 0.74783,0.89939 1.11391,1.35545 0.85613,1.06655 1.68929,2.06776 2.32468,3.2921 0.33131,0.6384 0.55313,1.32791 0.82969,1.99186 0.64122,1.30996 1.80935,2.22088 2.62243,3.39822 0.38075,0.55134 0.62284,1.1879 0.97664,1.75692 0.26201,0.4214 1.77807,2.51912 2.08654,2.97726 0.29086,0.43199 0.56035,0.87799 0.84053,1.31698 0,0 -2.11443,1.23875 -2.11443,1.23875 v 0 c -0.23059,-0.46807 -0.41174,-0.96394 -0.69177,-1.40422 -0.31349,-0.49287 -0.74651,-0.90049 -1.07942,-1.38046 -0.35843,-0.51678 -0.6332,-1.08835 -0.99145,-1.60525 -0.38487,-0.55531 -0.85621,-1.04777 -1.23502,-1.60723 -0.39632,-0.58532 -0.6967,-1.23145 -1.08635,-1.82123 -0.39464,-0.59732 -0.8427,-1.15758 -1.26404,-1.73638 -0.35959,-0.61442 -0.71917,-1.22883 -1.07876,-1.84325 -0.40873,-0.5591 -0.85768,-1.0909 -1.2262,-1.67729 -0.34426,-0.54779 -0.56143,-1.16899 -0.90649,-1.71629 -0.83112,-1.31827 -2.01333,-2.31191 -2.98513,-3.51272 -0.2872,-0.23299 -0.57941,-0.45996 -0.86161,-0.69898 -0.25654,-0.21729 -0.77105,-0.75381 -1.12789,-0.89321 -0.19116,-0.0747 -0.40647,-0.0574 -0.60894,-0.0909 -0.66654,-0.1103 -0.20779,-0.1171 -1.05341,0.0474 -0.86652,-0.0365 -0.0208,-0.0505 -1.22053,0.22245 -0.15512,0.0353 -0.31866,0.0157 -0.47521,0.044 -0.52461,0.0948 -0.99593,0.33384 -1.50103,0.4907 -1.06703,0.50164 -0.25596,0.13378 1.58546,-0.97846 0.17315,-0.10458 -0.35,0.20636 -0.53839,0.28007 -0.0491,0.0192 -0.10069,0.0313 -0.15103,0.0469 0.3872,-0.0709 0.29685,0.1148 0.5361,0.12546 0.42123,0.0188 0.7715,-0.31154 1.19593,-0.25334 0.87992,-0.37914 0.42707,-0.17475 1.35692,-0.61676 0.94977,-0.42138 1.93767,-0.76341 2.84072,-1.28596 0.9355,-0.43601 1.87078,-0.87555 2.78408,-1.35702 0.38768,-0.20439 0.76996,-0.41887 1.15398,-0.63005 0.38128,-0.20967 0.73519,-0.47788 1.14192,-0.63249 0.35752,-0.1359 -0.66171,0.38381 -0.99256,0.57572 2.54469,-1.40611 0.5055,-0.22854 2.46126,-1.46618 1.71451,-1.08498 3.47903,-2.09654 4.96362,-3.50253 0.34435,-0.31679 0.70444,-0.61728 1.03303,-0.95038 1.30975,-1.32767 2.15488,-2.8426 2.3117,-4.71737 -0.027,-0.31841 -0.0635,-0.63615 -0.0809,-0.95523 -0.0186,-0.34068 0.0315,-0.68707 -0.0269,-1.02322 -0.056,-0.32249 -0.20968,-0.62016 -0.31266,-0.93086 -0.10768,-0.32484 -0.17449,-0.66567 -0.31933,-0.97573 -0.36686,-0.78537 -0.73461,-1.10302 -1.30477,-1.74549 -0.29263,-0.26383 -0.56178,-0.55629 -0.87788,-0.79149 -0.70857,-0.52722 -1.52688,-0.89423 -2.32125,-1.26353 -1.50233,-0.69841 -3.01869,-1.31118 -4.68841,-1.47612 -2.6894,-0.48515 -5.41775,-0.93489 -8.16068,-0.93442 -0.78439,1.3e-4 -1.56702,0.0745 -2.35065,0.10904 -0.71803,0.0317 -1.43622,0.0597 -2.15433,0.0896 -1.90493,0.12087 -3.83074,0.19883 -5.71905,0.49835 -1.48368,0.23535 -1.75224,0.35111 -3.15235,0.7597 -0.3482,0.10161 -0.69569,0.20559 -1.04354,0.30839 0.46593,-0.30012 0.95135,-0.57195 1.39779,-0.90037 0.24028,-0.17676 -0.53102,0.27518 -0.77711,0.44376 -0.28727,0.1968 -0.83974,0.71066 -1.02924,1.00743 -0.22482,0.35208 -0.18408,0.83665 -0.46758,1.16269 0.0535,0.79966 0.0937,0.50746 -0.14737,1.39413 -0.0851,0.31314 -0.2567,0.60859 -0.28056,0.93222 -0.0206,0.27922 0.14914,0.54631 0.15091,0.82629 0.0148,2.3434 -0.40366,-0.1205 0.0833,2.11251 0.14424,3.20175 -0.0679,-0.86563 0.20691,2.51253 0.0909,1.11761 0.0361,1.9663 0.23507,3.08253 0.0981,0.5503 0.32977,1.0725 0.41334,1.6252 0.0974,0.64438 0.0849,1.30064 0.12735,1.95097 0.46278,4.76926 -0.11318,-0.7072 0.54952,4.21361 0.10674,0.79265 0.14358,1.59406 0.26154,2.38512 0.12137,0.814 0.31209,1.6162 0.45593,2.42653 0.69258,3.90163 0.10567,1.32505 1.11547,5.21794 0.84954,3.65428 0.48452,1.80218 1.08984,5.55732 1.51133,7.1151 -0.1286,-1.69374 1.49296,5.07943 1.07978,4.51022 -0.42829,0.56953 1.21121,4.38046 0.0942,0.60831 0.14752,1.22435 0.28253,1.8249 0.31407,1.39706 0.40493,1.02896 0.79846,2.23235 0.0734,0.2245 0.0973,0.46236 0.15398,0.69166 0.0566,0.22885 0.13441,0.45203 0.19416,0.68004 0,0 -2.29255,1.23976 -2.29255,1.23976 z"
       inkscape:connector-curvature="0" />
    <path
       style="opacity:1;fill:#000304;fill-opacity:1;stroke:none;stroke-width:0.60000002;stroke-miterlimit:4;stroke-dasharray:none;stroke-opacity:1"
       id="path4036"
       d="m 222.67191,160.70507 c -0.33634,0.11076 -0.67288,-0.0388 -1.00802,-0.0316 -0.21864,0.005 -0.43426,0.0535 -0.65234,0.0699 -0.40275,0.0302 -0.95272,0.0355 -1.35689,0.0435 -0.51963,0.14446 -1.07108,0.11956 -1.59399,0.24406 -0.93236,0.22198 -2.14305,0.71225 -2.9945,1.15271 -0.34465,0.1783 -0.66778,0.39543 -1.00167,0.59314 0.41463,-0.21427 0.87448,-0.92806 1.2439,-0.64281 0.34684,0.26782 -0.71673,0.50696 -1.0473,0.79462 -0.27999,0.24366 -0.52055,0.52923 -0.77954,0.7951 -0.79918,0.82042 -1.16094,1.14484 -1.84165,2.07791 -0.28384,0.38907 -0.52791,0.80567 -0.79187,1.20851 -0.2028,0.41471 -0.41381,0.82552 -0.60842,1.24414 -0.2095,0.45066 -0.3975,0.91105 -0.60366,1.36324 -0.50753,1.11322 -0.93835,1.86379 -1.26768,3.04692 -0.13197,0.47412 -0.18133,0.96745 -0.272,1.45117 -0.16011,0.5285 -0.32022,1.05701 -0.48033,1.58551 -0.10885,1.6751 -0.80746,3.2085 -0.75026,4.90502 0.018,0.53363 0.17153,1.05436 0.23389,1.58464 0.3495,2.97175 -0.11395,0.35476 0.47343,3.28341 0.12831,0.54066 0.25662,1.08133 0.38493,1.62199 0.21307,0.48624 0.49071,0.94904 0.63921,1.45873 0.15495,0.53186 0.10921,1.1089 0.26385,1.64086 0.14005,0.48175 0.3948,0.92283 0.61279,1.3747 0.59315,1.2295 0.64199,1.23194 1.36307,2.35005 0.21945,0.33809 0.4389,0.67618 0.65835,1.01428 0.23883,0.28285 0.50622,0.54387 0.71648,0.84855 0.18722,0.2713 0.26313,0.61334 0.46967,0.87024 0.19709,0.24514 0.49181,0.39344 0.7202,0.60972 0.30104,0.28506 0.75978,0.83648 1.03551,1.15869 0.12711,0.10257 0.90907,0.74204 1.06611,0.83657 0.19158,0.11534 0.40548,0.18871 0.60822,0.28307 0,0 -2.22825,1.43797 -2.22825,1.43797 v 0 c -0.12544,-0.14974 -0.23496,-0.31441 -0.37631,-0.44922 -1.22972,-1.17288 0.1456,0.38555 -0.96934,-0.93634 -1.40738,-0.62254 -0.37563,0.0358 -1.20657,-1.08361 -0.18492,-0.2491 -0.44298,-0.43534 -0.64681,-0.66922 -0.22102,-0.25359 -0.40166,-0.5409 -0.62618,-0.79139 -1.31573,-1.46797 -0.37547,-0.0815 -1.42952,-1.85555 -0.18604,-0.40252 -0.38491,-0.79937 -0.55812,-1.20758 -0.18662,-0.4398 -0.31773,-0.90286 -0.52089,-1.33527 -0.21418,-0.45589 -0.54954,-0.85306 -0.72845,-1.3239 -0.1937,-0.50975 -0.227,-1.06774 -0.37932,-1.59134 -1.30919,-4.50056 0.21835,1.5225 -0.92911,-3.16569 -0.0851,-0.56013 -0.14024,-1.12563 -0.25529,-1.68039 -0.10778,-0.51971 -0.34182,-1.01196 -0.41215,-1.53805 -0.0757,-0.5659 -0.002,-1.14211 -0.0224,-1.71267 -0.019,-0.52147 -0.12767,-1.04154 -0.0969,-1.56246 0.0674,-1.14241 0.45814,-2.27275 0.7699,-3.35883 0.15349,-0.6896 0.51471,-2.34606 0.69743,-3.0341 0.13249,-0.49886 0.2409,-1.00808 0.43703,-1.48552 0.22686,-0.55221 0.58197,-1.04429 0.82607,-1.58911 1.26234,-2.81749 -0.44037,0.19375 1.30056,-2.68089 0.19148,-0.37877 0.34824,-0.7772 0.57444,-1.13632 0.62344,-0.98976 1.06821,-1.32958 1.91587,-2.15021 0.065,-0.0629 1.51002,-1.46237 1.67276,-1.5715 1.03501,-0.69399 2.12692,-1.2991 3.19038,-1.94865 0.8817,-0.48563 1.07205,-0.6276 2.01687,-0.99726 0.85299,-0.33372 0.99517,-0.31232 1.86105,-0.55864 0.36044,-0.10253 0.7037,-0.28364 1.07611,-0.32534 0.16518,-0.0185 0.31668,0.10111 0.47502,0.15166 2.17746,-0.5206 0.11706,-0.13843 1.60105,-0.1954 0.23144,-0.009 0.45662,-0.0906 0.68817,-0.0959 0.95423,-0.0216 -0.1314,0.1179 0.60103,0.14518 0.10853,0.004 0.21447,-0.0344 0.3217,-0.0516 0,0 -2.07925,1.51066 -2.07925,1.51066 z"
       inkscape:connector-curvature="0" />
    <path
       style="opacity:1;fill:#000304;fill-opacity:1;stroke:none;stroke-width:0.60000002;stroke-miterlimit:4;stroke-dasharray:none;stroke-opacity:1"
       id="path4038"
       d="m 225.93083,207.19256 c -0.047,-0.0719 -0.13377,-0.13017 -0.14095,-0.21578 -0.0152,-0.18089 0.0615,-0.3582 0.0777,-0.53901 0.0554,-0.61927 0.0935,-1.24013 0.12305,-1.86117 0.0787,-1.65494 0.0379,-1.42397 -0.0907,-3.20725 -0.0745,-2.49683 0.19731,-4.99352 0.14759,-7.48946 -0.0179,-0.89962 -0.12793,-1.79531 -0.16546,-2.69432 -0.10053,-2.40728 -0.0578,-3.15155 -0.0267,-5.56403 0.0446,-0.9257 0.13657,-1.85033 0.13375,-2.77709 -0.003,-0.84641 -0.12807,-1.68867 -0.14995,-2.5348 -0.055,-2.12869 0.0604,-2.85719 0.12441,-4.96736 0.0704,-2.31987 0.0447,-2.02216 -0.0421,-4.25506 -0.23937,-2.86222 -0.0806,-0.76366 -0.24706,-3.51128 -0.0311,-0.51412 -0.10528,-1.02684 -0.10101,-1.54189 0.004,-0.50892 0.12443,-1.01265 0.12636,-1.52158 -0.15207,-1.64642 -0.12097,-0.83456 -0.10152,-2.43525 0.29175,-1.47011 0.23369,-0.76937 0.22562,-2.09732 0,0 2.16475,-1.08525 2.16475,-1.08525 v 0 c -0.0777,1.32564 -0.0234,0.63902 -0.16972,2.05932 0.22214,3.64839 -0.0528,-1.72972 -0.0382,2.49675 0.002,0.46713 0.0876,0.9303 0.11665,1.39652 0.11352,1.82383 -0.0147,3.54979 -0.26181,5.36152 0.0827,0.64492 0.19959,1.28637 0.24801,1.93476 0.0543,0.72671 0.0307,1.45723 0.0597,2.18539 0.0309,0.77624 0.11091,1.55068 0.11992,2.32748 0.01,0.85097 -0.0646,1.70127 -0.0633,2.5523 10e-4,0.85866 0.0474,1.71665 0.0711,2.57498 -0.005,0.90551 -0.01,1.81102 -0.0149,2.71653 -0.007,2.41462 -0.0248,3.14637 0.0322,5.5612 0.0215,0.91114 0.10586,1.82144 0.0901,2.73271 -0.012,0.69342 -0.34981,4.57666 -0.3198,5.35577 0.0268,0.69467 0.20869,1.37462 0.31302,2.06194 -0.0558,0.63876 -0.15115,1.27529 -0.16738,1.91628 -0.0282,1.11548 0.14159,1.36135 0.17091,2.38903 0.007,0.25465 -0.0489,0.50894 -0.0364,0.76338 0.0121,0.24564 0.14873,0.47647 0.11399,0.72893 0,0 -2.32198,1.18311 -2.32198,1.18311 z"
       inkscape:connector-curvature="0" />
    <path
       style="opacity:1;fill:#000304;fill-opacity:1;stroke:none;stroke-width:0.60000002;stroke-miterlimit:4;stroke-dasharray:none;stroke-opacity:1"
       id="path4040"
       d="m 244.09996,213.03033 c 0.72561,-0.5595 0.92963,-1.30712 1.22339,-2.12765 0.78515,-2.1931 0.13472,-0.17316 0.88393,-2.61875 0.11366,-0.518 0.19842,-1.04321 0.341,-1.55401 0.75381,-2.70045 0.52374,-0.99677 1.06791,-3.7821 0.12735,-0.65181 0.19364,-1.31417 0.30372,-1.96911 0.7167,-4.26438 0.0721,0.0654 0.69385,-4.29996 0.0697,-0.73775 0.14268,-1.4752 0.20918,-2.21324 0.0674,-0.74774 0.10506,-1.4984 0.19243,-2.24407 0.34434,-2.93847 0.35594,-1.64192 0.59543,-4.54739 0.13467,-1.63384 0.10682,-2.54471 0.11286,-4.17268 0.0792,-1.87833 0.0299,-3.75488 0.0682,-5.63396 0.0113,-0.55303 0.0557,-1.10638 0.0336,-1.65908 -0.20617,-1.87863 -0.13943,-0.95376 -0.20758,-2.77404 -0.43378,-2.10995 -0.0683,-0.21343 -0.39536,-2.25884 -0.0529,-0.33064 -0.065,-0.67324 -0.17681,-0.98885 -0.81466,-2.29886 -0.15851,0.78975 -0.58251,-1.54476 0,0 2.12456,-1.19601 2.12456,-1.19601 v 0 c 0.76515,1.12648 0.2624,0.16556 0.56242,1.6047 0.0675,0.32367 0.20517,0.62927 0.28394,0.95038 0.1827,0.74468 0.25507,1.5139 0.47384,2.25096 -0.0225,0.83389 -0.0686,2.08762 -0.0376,2.90933 0.02,0.52994 0.11813,1.05629 0.11768,1.58661 -5.3e-4,0.60682 -0.11191,1.20971 -0.1206,1.81647 -0.009,0.61414 0.0454,1.22757 0.0682,1.84135 -0.0174,0.66879 -0.0349,1.33758 -0.0523,2.00636 -0.0689,0.71834 -0.13777,1.43668 -0.20665,2.15503 0.0204,0.68148 0.11598,1.36486 0.0611,2.04444 -0.0633,0.78412 -0.3543,1.53904 -0.41388,2.32346 -0.0531,0.69891 0.13713,1.40293 0.0778,2.10134 -0.13191,1.55231 -0.80443,3.0325 -0.70917,4.61958 -0.0833,0.72132 -0.16648,1.44266 -0.24987,2.16397 -0.079,0.68303 -0.11304,1.37278 -0.2372,2.04905 -0.12921,0.70372 -0.3632,1.38438 -0.5213,2.08217 -0.14278,0.63017 -0.23678,1.27077 -0.38109,1.90059 -0.25797,1.12582 -0.62415,2.22549 -0.8291,3.36435 -0.17578,0.48887 -0.36324,0.9737 -0.52732,1.46662 -0.12794,0.38433 -0.2004,0.78713 -0.34842,1.16418 -0.13666,0.34808 -0.36535,0.65513 -0.50243,1.00305 -0.17309,0.43933 -0.0935,0.86113 -0.50262,1.20501 0,0 -2.49316,0.9755 -2.49316,0.9755 z"
       inkscape:connector-curvature="0" />
    <path
       style="opacity:1;fill:#000304;fill-opacity:1;stroke:none;stroke-width:0.60000002;stroke-miterlimit:4;stroke-dasharray:none;stroke-opacity:1"
       id="path4042"
       d="m 227.36453,183.73126 c 0.10933,0.004 0.23185,-0.0401 0.328,0.0121 0.0773,0.042 0.0432,0.19736 0.12351,0.23305 0.16263,0.0722 0.36836,-0.0153 0.53073,0.0575 0.13744,0.0616 0.17937,0.26036 0.31664,0.32238 0.22018,0.0995 0.47575,0.0859 0.71082,0.14178 0.25161,0.0598 0.49888,0.13656 0.74833,0.20484 0.28286,0.0907 0.55713,0.21482 0.8486,0.27224 0.4031,0.0794 0.82364,0.0484 1.22499,0.13623 0.35523,0.0777 0.6781,0.26854 1.03073,0.35731 0.44764,0.1127 0.91208,0.14617 1.36292,0.24531 0.87388,0.19216 1.99566,0.5354 2.85066,0.78477 4.78856,0.86493 -1.15968,-0.2904 3.02917,0.75579 0.51817,0.12942 1.07044,0.11264 1.57754,0.28024 0.37896,0.12526 0.65985,0.47808 1.04405,0.58622 1.97364,0.18784 1.06501,0.002 2.73874,0.49238 3.48192,1.0204 -0.97062,-0.37135 1.90384,0.7729 0.31606,0.12581 0.65733,0.17552 0.986,0.26328 0,0 -2.07224,1.40567 -2.07224,1.40567 v 0 c -0.30296,-0.10407 -0.61665,-0.18099 -0.90888,-0.31222 -1.6165,-0.72595 0.12189,-0.34614 -2.11962,-0.61293 -0.35083,-0.14041 -0.69128,-0.31016 -1.05247,-0.42124 -1.37121,-0.42169 -1.35659,-0.21645 -2.76547,-0.62857 -0.43872,-0.12834 -0.84408,-0.35832 -1.28504,-0.47872 -0.52135,-0.14236 -1.06134,-0.20457 -1.59201,-0.30686 -0.48046,-0.14865 -0.96092,-0.2973 -1.44138,-0.44595 -0.60758,-0.15244 -2.30124,-0.58314 -2.93169,-0.71907 -0.44763,-0.0965 -0.90173,-0.16111 -1.34951,-0.25692 -0.38581,-0.0826 -0.76914,-0.17694 -1.15051,-0.27803 -0.33725,-0.0894 -0.66298,-0.22314 -1.00476,-0.29323 -0.34713,-0.0712 -0.70346,-0.0861 -1.05519,-0.12922 -0.24357,-0.076 -0.48536,-0.15795 -0.73071,-0.228 -0.29034,-0.0829 -0.93936,-0.21899 -1.23765,-0.35765 -0.25252,-0.11737 -0.36046,-0.28714 -0.58936,-0.4268 -0.0725,-0.0442 -0.15563,-0.0681 -0.23344,-0.10212 0,0 2.16466,-1.3265 2.16466,-1.3265 z"
       inkscape:connector-curvature="0" />
    <path
       style="opacity:1;fill:#000304;fill-opacity:1;stroke:none;stroke-width:0.60000002;stroke-miterlimit:4;stroke-dasharray:none;stroke-opacity:1"
       id="path4044"
       d="m 295.60829,167.05127 c 0.0196,0.17674 0.0391,0.35347 0.0587,0.5302 -0.0439,0.32288 -0.14427,0.64303 -0.13163,0.96863 0.0159,0.40636 0.21159,0.7941 0.21593,1.20074 0.006,0.59926 -0.14375,1.19049 -0.1842,1.78842 -0.30152,4.45581 0.24685,-0.64061 -0.3582,4.3678 -0.0254,0.80929 -0.0151,1.62047 -0.076,2.42786 -0.0659,0.87405 -0.2267,1.73884 -0.30409,2.61193 -0.0752,0.84871 -0.081,1.70254 -0.15362,2.55147 -0.0734,0.85828 -0.22026,1.70953 -0.28432,2.56856 -0.36581,4.90688 0.28311,-0.0975 -0.44066,4.80257 -0.0714,0.72563 -0.1138,1.45472 -0.21434,2.17689 -0.33322,2.39348 -0.42683,1.68414 -0.63421,3.96708 -0.0484,0.53259 -0.0283,1.06944 -0.0623,1.60315 -0.0838,1.3172 -0.14381,1.54167 -0.33417,2.81675 0.039,1.62025 -0.0681,0.5751 0.25585,2.00943 0.18346,0.81243 0.27966,1.59421 0.97475,2.18198 0.21521,0.182 0.489,0.2805 0.73351,0.42074 0.7267,0.26762 1.21536,0.49134 2.00689,0.58575 0.4909,0.0586 0.98819,0.035 1.48214,0.0562 1.69058,0.0725 3.36373,0.0823 5.05603,0.0569 0.51723,0.0532 1.032,0.17646 1.5517,0.15949 0.72271,-0.0236 1.42893,-0.24319 2.15106,-0.28042 0.54533,-0.0281 1.08998,0.0767 1.636,0.0852 0.58388,0.009 1.16832,-0.062 1.75154,-0.0326 0.46522,0.0235 0.91856,0.18985 1.38438,0.19076 0.61484,0.001 1.22354,-0.12298 1.83534,-0.18448 0.9992,0.13513 1.99255,-0.0889 2.98899,-0.071 0.37958,0.007 0.75203,0.1294 1.13168,0.12845 0.47419,-0.001 0.94297,-0.10409 1.41616,-0.13486 1.01438,-0.066 1.19853,-0.0335 2.16122,0.01 0.85257,-0.11816 1.72627,-0.0384 2.57728,-0.17187 1.50352,-0.23575 0.11972,-0.1212 1.06558,-0.18655 0,0 -1.97477,1.50257 -1.97477,1.50257 v 0 c -0.18121,0.0392 -1.10485,0.24166 -1.2069,0.25051 -0.20518,0.0178 -0.41145,-0.0333 -0.6173,-0.0265 -0.63714,0.0209 -1.26788,0.15259 -1.9078,0.1336 -1.45315,-0.0118 -0.68564,-0.0354 -2.30174,0.0926 -0.37579,0.004 -0.74909,-0.0678 -1.12477,-0.077 -0.44366,-0.0108 -0.88744,0.0191 -1.3312,0.0169 -2.86671,-0.0141 0.2196,-0.0741 -2.90859,0.0129 -6.40559,-0.0514 3.93877,-0.0123 -3.404,0.1282 -0.5352,0.0102 -1.06913,-0.057 -1.60412,-0.0748 -1.82099,-0.0606 -3.64056,-0.016 -5.45779,0.11894 -0.52692,-0.0449 -1.05228,-0.11585 -1.58076,-0.13466 -0.58441,-0.0208 -1.16967,0.0303 -1.75426,0.016 -1.04064,-0.0254 -1.87775,-0.11911 -2.89851,-0.26752 -0.41363,-0.0601 -0.83095,-0.10626 -1.23701,-0.20541 -0.33906,-0.0828 -0.66056,-0.22575 -0.99081,-0.33863 -1.16316,-0.79563 -0.37547,-0.1384 -1.22883,-1.17048 -0.18608,-0.22506 -0.45982,-0.38518 -0.59251,-0.64532 -0.42511,-0.83349 -0.0629,-2.11782 -0.332,-3.00757 0.25141,-1.87016 0.0908,-0.89976 0.4976,-2.90852 0.34624,-2.37357 -0.0124,-0.95037 0.19971,-3.41227 0.1234,-1.43246 0.46723,-2.84037 0.58571,-4.27335 0.12028,-0.8002 0.23857,-1.6007 0.36081,-2.40061 0.13017,-0.85214 0.33221,-1.69589 0.39645,-2.55552 0.0599,-0.80133 -0.0768,-1.60863 -0.0254,-2.41055 0.16489,-2.573 0.96856,-5.09561 0.75745,-7.69819 0.0748,-1.9113 0.12221,-2.37322 0.0889,-4.21598 -0.0101,-0.5532 -0.0959,-1.1061 -0.0656,-1.65857 0.0265,-0.48246 0.22683,-0.94729 0.23485,-1.43041 0.004,-0.27491 -0.13187,-0.53385 -0.19778,-0.80078 0.008,-0.19104 0.0169,-0.38207 0.0254,-0.57311 0,0 2.33844,-1.19149 2.33844,-1.19149 z"
       inkscape:connector-curvature="0" />
    <path
       style="opacity:1;fill:#000304;fill-opacity:1;stroke:none;stroke-width:0.60000002;stroke-miterlimit:4;stroke-dasharray:none;stroke-opacity:1"
       id="path4046"
       d="m 331.10191,213.88408 c -0.0101,-0.0804 -0.0344,-0.16028 -0.0302,-0.24119 0.0394,-0.75032 0.12928,-0.092 0.0626,-0.94647 -0.0159,-0.20446 -0.0855,-0.40412 -0.0859,-0.6092 -0.004,-1.86748 0.25492,0.21062 -0.0649,-1.75353 0.0312,-0.41132 0.08,-0.82169 0.0938,-1.23397 0.0853,-2.54859 -0.0574,-0.26701 -0.18198,-3.0053 -0.0631,-1.38781 0.0865,-2.79521 0.11759,-4.17924 0.0183,-0.81286 0.003,-1.62613 0.004,-2.43919 0.16931,-7.13985 0.019,1.86697 -0.0657,-5.3321 -0.0111,-0.93594 0.0648,-1.87129 0.064,-2.80731 -0.003,-3.20127 -0.10769,-2.0288 -0.18643,-5.12126 -0.0196,-0.76979 -0.003,-1.54008 -0.004,-2.31012 -0.38123,-7.11719 0.10674,2.74524 -0.0991,-3.94087 -0.0656,-2.12921 -0.18282,-1.07461 -0.16391,-3.10207 0.0188,-2.02667 0.22765,-0.6695 -0.16496,-2.39883 0,0 2.18736,-1.13431 2.18736,-1.13431 v 0 c 0.088,0.34464 0.2481,0.67858 0.26405,1.03393 0.0212,0.47081 -0.12858,0.93483 -0.15446,1.40541 -0.0275,0.50001 -0.0159,1.00163 -0.006,1.5023 0.0114,0.55143 0.0286,1.10317 0.0701,1.65316 0.0452,0.59915 0.19846,1.19174 0.18989,1.79253 -0.0106,0.74725 -0.16492,1.48554 -0.24736,2.22831 0.13393,0.70213 0.37512,1.3921 0.40179,2.1064 0.033,0.88271 -0.18285,1.7581 -0.2246,2.64044 -0.0426,0.90098 -0.0397,1.8039 -0.0284,2.70582 0.0922,7.36488 0.0613,-1.83232 0.29932,5.3688 0.029,0.8786 -0.019,1.75806 -0.0284,2.63708 0.003,0.81145 -0.027,1.62353 0.005,2.43435 0.005,0.12925 0.31877,3.69316 0.30908,3.96063 -0.0222,0.61184 -0.27958,1.20489 -0.26828,1.81702 0.0768,4.1593 0.74194,-1.66668 0.14218,2.52828 0.006,0.58716 0.0423,1.17392 0.0409,1.76111 0,0.22285 -0.0249,0.44503 -0.0343,0.66769 -0.007,0.17577 -0.0599,0.35725 -0.0159,0.52755 0.0291,0.11201 0.19312,0.15492 0.22185,0.26701 0.0251,0.0976 -0.0524,0.1945 -0.0786,0.29175 0,0 -2.34058,1.22539 -2.34058,1.22539 z"
       inkscape:connector-curvature="0" />
    <path
       style="opacity:1;fill:#000304;fill-opacity:1;stroke:none;stroke-width:0.60000002;stroke-miterlimit:4;stroke-dasharray:none;stroke-opacity:1"
       id="path4048"
       d="m 332.36738,162.93138 c 0.10242,0.23039 0.12859,0.49554 0.26721,0.71102 0.065,0.10101 0.16795,0.17305 0.23741,0.27104 0.15684,0.2213 0.27969,0.46511 0.43121,0.69008 0.36648,0.0365 0.45318,0.4691 0.74338,0.60049 0.2001,0.0906 0.43577,0.0631 0.64802,0.11962 0.40822,-0.0694 0.58041,0.34735 0.89892,0.45288 0.18687,0.0619 0.39179,0.0392 0.58769,0.0588 0.46355,0.0723 0.95562,0.0778 1.40549,-0.0802 0.12981,-0.0456 0.48842,-0.25267 0.37045,-0.18193 -2.06069,1.23558 -2.38197,1.71039 -1.80211,0.94143 0.14068,-0.26185 0.42913,-0.42161 0.56677,-0.68369 0.0452,-0.0861 0.0151,-0.19399 0.0251,-0.29075 0.0407,-0.39168 0.003,-0.61127 -0.0685,-0.99574 -0.0938,-0.0667 -0.18753,-0.13345 -0.28133,-0.20017 -0.0404,-0.0909 -0.0406,-0.21434 -0.12115,-0.27271 -0.1048,-0.0759 -0.26223,-0.031 -0.37796,-0.0889 -0.0815,-0.0408 -0.10242,-0.17348 -0.19076,-0.19592 -0.14978,-0.038 -0.30819,0.0241 -0.4626,0.03 -0.11478,0.004 -0.22971,5.3e-4 -0.34457,7.9e-4 -0.0758,-0.0134 -0.15203,-0.0562 -0.22735,-0.0403 -0.24726,0.052 -1.34073,0.72304 -0.74356,0.39042 0.72075,-0.40149 1.42261,-0.8375 2.15418,-1.21897 0.11306,-0.059 -0.20463,0.15436 -0.29151,0.24769 -0.0663,0.0712 -0.10922,0.16096 -0.16383,0.24145 -0.0793,0.24323 -0.33036,0.39451 -0.41723,0.63132 -0.0284,0.0775 0.0246,0.16436 0.0204,0.24678 -0.006,0.10235 -0.0199,0.20539 -0.0498,0.30344 -0.0396,0.1301 -0.20177,0.24794 -0.1573,0.37647 0.0387,0.11172 0.22088,0.0843 0.33132,0.12652 0.12895,0.2805 0.30265,0.47471 0.58306,0.60873 0.0978,0.0467 0.22407,0.0418 0.30424,0.11476 0.41757,0.37977 -0.41807,0.21969 0.4799,0.26312 0.39971,0.008 0.22786,-0.0246 0.52113,0.0606 0,0 -2.15932,1.53057 -2.15932,1.53057 v 0 c -0.39127,-0.0644 -0.17317,-0.0421 -0.65598,-0.0474 -0.14028,-0.12274 -0.25662,-0.27616 -0.41429,-0.37557 -0.0968,-0.0611 -0.22783,-0.0616 -0.31591,-0.13477 -0.0767,-0.0637 -0.084,-0.18569 -0.15467,-0.25601 -0.17548,-0.17457 -0.47334,-0.26022 -0.6898,-0.34468 -0.008,-0.12292 -0.003,-0.24735 -0.0241,-0.36875 -0.019,-0.11017 -0.0964,-0.21 -0.0944,-0.32176 0.0101,-0.56944 0.19442,-0.22894 0.30276,-0.78489 0.15944,-0.81806 -0.52498,0.54143 0.11525,-0.55901 0.0534,-0.25182 0.0322,-0.33906 0.30811,-0.51441 0.77581,-0.49308 2.30733,-1.80159 3.58987,-1.71435 0.1824,-0.0256 0.3652,-0.10523 0.54716,-0.0768 0.0967,0.0151 0.1389,0.13898 0.21812,0.19638 0.0922,0.0668 0.19008,0.12711 0.29363,0.17443 0.12573,0.0575 0.28361,0.0513 0.39093,0.13842 0.18497,0.15018 0.14472,0.4847 0.35488,0.62044 0.36124,0.82473 0.31441,1.42719 -0.21497,2.16108 -0.99423,0.93225 -0.40227,0.4253 -2.79228,1.73361 -0.34724,0.19007 -0.92954,0.26474 -1.31988,0.17841 -0.1329,-0.0294 -0.24413,-0.12042 -0.36621,-0.18064 -0.70389,-0.22183 -0.31959,-0.13391 -1.15919,-0.23443 -0.69882,-0.17647 -1.18496,-0.79139 -1.83684,-1.06926 -0.73144,-1.32356 0.33448,0.47866 -0.59098,-0.68743 -0.0786,-0.0991 -0.0815,-0.24031 -0.13784,-0.35358 -0.12806,-0.25757 -0.37193,-0.44362 -0.34637,-0.75217 0,0 2.27616,-1.19564 2.27616,-1.19564 z"
       inkscape:connector-curvature="0" />
    <path
       style="opacity:1;fill:#000304;fill-opacity:1;stroke:none;stroke-width:0.60000002;stroke-miterlimit:4;stroke-dasharray:none;stroke-opacity:1"
       id="path4050"
       d="m 354.60077,216.18657 c -0.10433,-0.0276 -0.2617,0.0122 -0.31295,-0.0827 -0.064,-0.11857 0.18844,-0.91386 0.1973,-1.05762 0.0665,-1.07862 -0.2027,-0.59774 -0.31626,-1.7843 -0.0484,-0.5061 0.008,-1.01679 0.0119,-1.52519 -0.13774,-1.45826 -0.0864,-2.92731 -0.20153,-4.38647 -0.0741,-0.93911 -0.21564,-1.87169 -0.31496,-2.80847 -0.11618,-1.09559 -0.17489,-2.19798 -0.3315,-3.28853 -0.16306,-1.13568 -0.41778,-2.2563 -0.62669,-3.38446 -0.15425,-1.20431 -0.30853,-2.40863 -0.46281,-3.61294 -0.0908,-1.25378 -0.18169,-2.50756 -0.27249,-3.76135 -0.0911,-1.2581 -0.16182,-2.51785 -0.27319,-3.77432 -0.26532,-2.99333 -0.51694,-4.21257 -0.69246,-7.20204 -0.46535,-7.92593 0.30141,0.72673 -0.40445,-6.58103 -0.38404,-3.07197 -0.42563,-2.42666 -0.33364,-5.46935 0.0244,-0.80812 0.12348,-1.61313 0.13941,-2.42146 0.0132,-0.667 -0.0582,-1.33361 -0.0523,-2.00071 0.008,-0.94389 0.11816,-2.15838 0.1941,-3.11915 0.052,-0.32238 0.0304,-0.6657 0.15594,-0.96714 0.42932,-1.03075 2.39041,-1.87689 2.99821,-2.0326 0.26691,-0.0684 0.4735,0.30595 0.63508,0.52916 0.25434,0.35138 0.38455,0.77779 0.58817,1.1608 0.28286,0.53206 0.58073,1.05603 0.87111,1.58405 0.35396,0.67852 0.74737,1.33787 1.06185,2.03555 0.38381,0.85149 0.66866,1.74454 1.03027,2.6057 0.3983,0.94857 0.84381,1.87674 1.24901,2.82238 0.42522,0.99234 0.83593,1.99088 1.24206,2.99118 0.41014,1.01019 0.77433,2.03921 1.20664,3.04012 0.41772,0.96718 0.89479,1.90762 1.3422,2.86143 1.18544,2.95925 0.88149,2.50157 2.40752,5.18282 0.41212,0.72409 0.93168,1.38838 1.29244,2.13939 0.33055,0.68813 0.45003,1.4639 0.77116,2.15649 0.0794,0.17121 1.82358,3.04577 1.98186,3.30744 0.68519,1.42612 0.61949,1.44352 1.49156,2.69406 0.24746,0.35489 0.54718,0.67203 0.78721,1.03198 0.20858,0.31273 0.3229,0.68608 0.55547,0.98139 0.2105,0.2673 0.51178,0.44884 0.75681,0.6849 0.20447,0.19701 0.39394,0.40902 0.59092,0.61353 0.41122,0.65962 0.21262,0.58093 0.9334,0.84299 0.14288,0.052 0.29094,0.10452 0.44294,0.10897 0.12451,0.004 0.47038,-0.14989 0.36383,-0.0854 -0.59558,0.36056 -1.1856,0.75422 -1.84372,0.98131 -0.19725,0.0681 0.26572,-0.32176 0.39859,-0.48264 0.10618,-0.25669 0.19772,-0.51992 0.31851,-0.77006 0.21119,-0.43736 0.51781,-0.83145 0.67646,-1.29049 0.14827,-0.42907 0.14663,-0.89615 0.23323,-1.34178 0.1071,-0.55133 0.19484,-1.10822 0.34779,-1.64863 0.95697,-3.38108 0.59301,-0.65424 0.83601,-3.96491 0.577,-2.09469 0.72892,-2.34419 0.99533,-4.47698 0.087,-0.69622 0.0285,-1.41046 0.16725,-2.09822 0.1606,-0.79594 0.54451,-1.53384 0.72535,-2.32542 0.15174,-0.66426 0.17156,-1.35197 0.26879,-2.02637 0.0935,-0.64831 0.2022,-1.29433 0.30332,-1.94149 0.28162,-2.25802 0.15528,-1.34894 0.48043,-3.55411 0.0788,-0.53425 0.11832,-1.07596 0.23857,-1.60243 0.12626,-0.55279 0.39926,-1.06807 0.4989,-1.62628 0.0747,-0.41825 0.0119,-0.84964 0.0188,-1.27445 0.006,-0.38619 0.0135,-0.77236 0.0201,-1.15854 0,0 2.24303,-1.10414 2.24303,-1.10414 v 0 c -0.18558,2.86663 0.10525,-0.66275 -0.39865,2.61271 -0.0733,0.47672 -0.0567,0.96382 -0.1193,1.44206 -0.0714,0.54517 -0.20532,1.08073 -0.28226,1.62515 -0.08,0.56616 -0.12557,1.13665 -0.18835,1.70498 -0.0954,0.61608 -0.19072,1.23215 -0.2861,1.84822 -0.11636,0.65513 -0.2431,1.30849 -0.34912,1.96537 -0.10951,0.67876 -0.16907,1.3656 -0.29736,2.04107 -0.14174,0.74616 -0.35309,1.47755 -0.512,2.22024 -0.15877,0.74188 -0.2781,1.49191 -0.44095,2.2329 -0.16949,0.77132 -0.434,1.52277 -0.55586,2.30304 -0.10436,0.66801 -0.0801,1.34985 -0.1201,2.02478 -0.16616,0.70395 -0.34115,1.40586 -0.49845,2.11184 -0.14049,0.63042 -0.22074,1.27501 -0.39481,1.89699 -0.17116,0.61166 -0.46532,1.18423 -0.63846,1.79533 -0.12595,0.44445 -0.13939,0.915 -0.25609,1.36195 -0.17698,0.67778 -0.49792,1.31189 -0.66795,1.99254 -1.01279,1.29304 -0.56993,0.88556 -3.06781,2.10499 -0.12187,0.0595 -0.28959,0.0403 -0.40571,-0.0297 -0.11266,-0.0679 -0.0914,-0.26987 -0.20405,-0.33767 -1.36427,-0.82075 -0.13893,0.50651 -1.14893,-0.76837 -0.39875,-0.4731 -0.8341,-0.91611 -1.21057,-1.40715 -0.23117,-0.30154 -0.42204,-0.63205 -0.64069,-0.94279 -0.25001,-0.35526 -0.53017,-0.68959 -0.7651,-1.05499 -3.11152,-4.83969 1.9331,2.63826 -1.64838,-2.61776 -2.03896,-4.81959 0.8068,1.60442 -1.86187,-3.38821 -0.35727,-0.6684 -0.58383,-1.39886 -0.88109,-2.09604 -0.3288,-0.77121 -0.63333,-1.55368 -0.99703,-2.30905 -0.39611,-0.82263 -0.85376,-1.61417 -1.28063,-2.42126 -0.42022,-0.8971 -0.84043,-1.79419 -1.26064,-2.69129 -0.3607,-1.00409 -0.63677,-2.04276 -1.08214,-3.01227 -1.7063,-3.71422 -1.54829,-1.89232 -2.99678,-5.72677 -0.37235,-0.98564 -0.47125,-2.06114 -0.84892,-3.04476 -0.46458,-1.21003 -1.74204,-3.26568 -2.43488,-4.43063 -0.25164,-0.53879 -0.51747,-1.07117 -0.75493,-1.61635 -0.16434,-0.37731 -0.19569,-0.82608 -0.44985,-1.14976 -0.14295,-0.18205 -0.7925,-0.0676 -0.64836,-0.24873 0.4586,-0.57619 1.16456,-0.92267 1.83065,-1.23672 0.50914,-0.24005 -2.01554,2.08336 -0.67154,1.54938 -0.48876,2.38075 -0.22042,0.52155 -0.25646,3.12345 -0.0259,1.87298 -0.20198,2.49238 -0.11811,4.42337 0.23472,5.40422 0.40045,-0.50412 0.0759,5.59587 1.32869,12.64434 -0.70696,-7.30755 0.48337,6.53633 0.10065,1.17037 0.35359,2.32506 0.43823,3.49669 0.091,1.25961 -0.0375,2.53103 0.0881,3.78766 0.12047,1.20541 0.51906,2.37148 0.64783,3.57603 0.13568,1.26911 0.0957,2.5509 0.14354,3.82635 1.49775,8.12276 -0.0503,-1.14549 0.82574,7.13448 0.11324,1.07037 0.37372,2.12012 0.54202,3.18322 0.14571,0.92038 0.27559,1.84325 0.4,2.76675 0.38092,2.82776 0.3171,1.7204 0.18558,4.40566 0.0512,0.48068 0.0847,0.96358 0.15359,1.44204 0.0493,0.34265 0.18087,0.67334 0.20071,1.01895 0.12846,2.23567 -0.27347,-0.16276 -0.0318,1.39044 0.0185,0.11833 0.009,0.25193 0.0761,0.3511 0.0485,0.0717 0.15708,0.073 0.23561,0.10952 0,0 -2.28492,1.20537 -2.28492,1.20537 z"
       inkscape:connector-curvature="0" />
    <path
       style="opacity:1;fill:#000304;fill-opacity:1;stroke:none;stroke-width:0.60000002;stroke-miterlimit:4;stroke-dasharray:none;stroke-opacity:1"
       id="path4054"
       d="m 398.07335,167.64698 c 0.28217,0.66295 0.0235,1.40222 0.1261,2.0928 0.27273,1.83425 0.34435,-0.32727 0.11128,2.00849 -0.14928,0.89893 0.18121,1.7738 0.1741,2.6635 -0.005,0.55903 -0.14209,1.11007 -0.17193,1.66832 -0.0977,1.82783 0.0563,1.63278 0.0663,3.4827 0.003,0.631 -0.0368,1.26147 -0.0552,1.89221 -0.0711,0.6379 -0.41262,3.37175 -0.33787,4.02357 0.067,0.58441 0.43585,1.10146 0.53763,1.68082 0.11047,0.62875 0.0154,1.2793 0.0938,1.91283 0.0737,0.59512 0.24797,1.17348 0.36166,1.76228 0.10972,0.56835 0.20569,1.13929 0.30853,1.70893 0.2513,0.4539 0.50263,0.9078 0.75393,1.36171 0.17224,0.46157 0.29604,0.94426 0.51676,1.38473 0.20619,0.41155 0.50906,0.76715 0.7561,1.15557 0.41664,0.65506 0.86376,1.49489 1.40626,2.06809 0.27694,0.29261 0.6169,0.51837 0.92533,0.77755 0.78324,0.76448 0.77168,0.91767 1.84856,1.28926 0.38288,0.13211 0.79473,0.15925 1.18639,0.26242 0.32126,0.0846 0.62413,0.23743 0.95031,0.3004 0.98329,0.18982 1.27333,0.0581 2.28152,-0.0828 1.23177,-0.21402 0.93689,-0.1001 2.19964,-0.61189 0.31856,-0.1291 1.18902,-0.66133 0.93949,-0.42496 -0.31814,0.30134 -0.82431,0.91672 -1.15454,0.62866 -0.31491,-0.27471 0.66905,-0.50235 0.98248,-0.77875 0.35854,-0.3162 0.68733,-0.66461 1.031,-0.99691 0.56364,-0.84016 1.33371,-1.52354 1.90593,-2.35596 0.2804,-0.40791 0.47685,-0.86757 0.71842,-1.29961 0.83344,-1.49062 1.66256,-2.97386 2.44327,-4.49314 0.13912,-0.46792 0.22963,-0.95315 0.41738,-1.40377 0.23659,-0.5679 0.60629,-1.07338 0.85,-1.63826 0.21201,-0.4914 0.34869,-1.01206 0.51313,-1.52135 0.30671,-0.94988 0.62823,-1.98618 0.83587,-2.96593 0.0955,-0.45051 0.15243,-0.90835 0.22863,-1.36252 0.0836,-0.44667 0.16716,-0.89333 0.25074,-1.33999 0.10764,-0.44465 0.23855,-0.8843 0.32288,-1.33395 0.0753,-0.40141 0.0925,-0.8118 0.15525,-1.21535 0.0648,-0.41624 0.16047,-0.82723 0.22728,-1.24315 0.0683,-0.42565 0.24836,-1.8568 0.30496,-2.29857 0.12118,-1.42321 0.10747,-0.65391 0.033,-1.98406 -0.0265,-0.47391 -0.0272,-1.14645 -0.15428,-1.61838 -0.35076,-1.30283 -0.25162,0.10539 -0.263,-1.3072 -0.5207,-0.54202 -0.31885,-0.24248 -0.62121,-0.88783 0,0 2.10944,-1.23871 2.10944,-1.23871 v 0 c 0.54216,0.54846 0.35039,0.22249 0.56168,0.98579 0.11872,0.17847 0.27673,0.33633 0.35619,0.53542 0.26331,0.65985 0.0636,0.8443 0.13303,1.54854 0.0272,0.27592 0.12179,0.54117 0.17063,0.8141 0.21312,1.1907 0.17274,0.72028 -0.10041,2.04079 -0.0209,0.36538 -0.0254,0.73207 -0.0626,1.09614 -0.0507,0.49459 -0.29753,1.93733 -0.36113,2.41619 -0.0536,0.40365 -0.0438,0.81724 -0.13481,1.21412 -0.11065,0.48238 -0.35539,0.92721 -0.46696,1.40937 -0.0987,0.4264 -0.10721,0.86875 -0.16082,1.30313 -0.12718,0.48111 -0.264,0.95978 -0.38158,1.44333 -0.30816,1.26705 -0.31787,1.66503 -0.72128,2.92892 -0.16849,0.52789 -0.38544,1.03909 -0.5728,1.56058 -0.78102,2.17393 -0.21944,0.91895 -1.37943,3.11375 -0.21688,0.4965 -0.41722,1.00055 -0.65063,1.48949 -1.13049,2.36799 -2.59184,4.59272 -4.20884,6.65257 -0.52898,0.54986 -1.26534,1.38598 -1.92672,1.81078 -0.33639,0.21604 -3.14952,1.9724 -4.33604,2.39307 -0.76526,0.27131 -1.62626,0.2187 -2.34956,0.64234 -1.22311,-0.20825 -0.56274,-0.12559 -1.98445,-0.21993 -0.35388,-0.058 -0.68927,-0.19952 -1.03857,-0.28069 -0.42233,-0.0981 -0.88905,-0.0596 -1.27511,-0.25698 -0.31133,-0.15916 -0.42777,-0.57081 -0.71993,-0.76293 -0.37732,-0.24813 -0.83113,-0.35356 -1.24669,-0.53034 -0.76382,-0.9763 -1.58371,-1.93932 -2.22184,-3.00604 -0.23971,-0.40071 -0.44151,-0.82297 -0.65368,-1.23892 -0.83828,-1.64345 -0.55938,-1.03488 -1.15482,-2.84763 -0.11449,-0.56801 -0.19511,-1.14391 -0.34348,-1.70402 -0.15095,-0.56969 -0.45628,-1.098 -0.55288,-1.67938 -0.10673,-0.64227 0.0167,-1.305 -0.0507,-1.9526 -0.063,-0.60583 -0.26177,-1.1914 -0.33901,-1.79558 -0.23786,-1.86076 -0.12485,-2.00144 0.0311,-3.88624 0.0167,-0.63009 0.0532,-1.25997 0.0503,-1.89027 -0.003,-0.59221 -0.0845,-1.18339 -0.0675,-1.77537 0.0172,-0.59942 0.15378,-1.19152 0.16989,-1.79097 0.0138,-0.51209 -0.0669,-1.02262 -0.0806,-1.53471 -0.0243,-0.90845 0.0304,-1.81793 -0.0156,-2.72625 -0.03,-1.84539 0.0228,-0.38368 -0.10321,-2.00165 -0.0196,-0.25238 -0.008,-0.5076 -0.0435,-0.7582 -0.0266,-0.18586 -0.0845,-0.36637 -0.14282,-0.54484 -0.0409,-0.12529 -0.15296,-0.23235 -0.15415,-0.36415 0,-0.13645 0.0983,-0.25458 0.14748,-0.38186 0,0 2.26666,-1.19064 2.26666,-1.19064 z"
       inkscape:connector-curvature="0" />
    <path
       style="opacity:1;fill:#000304;fill-opacity:1;stroke:none;stroke-width:0.60000002;stroke-miterlimit:4;stroke-dasharray:none;stroke-opacity:1"
       id="path4056"
       d="m 424.95366,219.66445 c 0.15545,-0.13029 0.31962,-0.25081 0.4663,-0.39086 0.14738,-0.1407 0.26922,-0.30637 0.41408,-0.44963 0.51273,-0.50698 1.04407,-0.99529 1.58443,-1.4727 2.93179,-2.59018 -0.39476,0.46858 2.6643,-2.37826 1.27577,-1.16393 2.62641,-2.24161 3.92028,-3.38457 0.71734,-0.63367 1.40859,-1.29635 2.12251,-1.93385 2.65414,-2.37004 5.3644,-4.67108 8.09538,-6.95153 0.87196,-0.80095 1.73286,-1.61411 2.61588,-2.40285 0.98116,-0.87639 1.99218,-1.71887 2.97611,-2.59211 3.5465,-3.14746 7.02009,-6.37084 10.61006,-9.46957 0.82476,-0.69668 1.66769,-1.37237 2.47422,-2.09004 0.63294,-0.56319 1.22262,-1.17329 1.84238,-1.75094 2.07237,-1.93157 4.17044,-3.83875 6.15418,-5.86193 2.06491,-2.00981 0.45897,-0.34223 1.95175,-2.12258 1.22955,-1.46641 0.49853,-0.38963 1.32342,-1.71252 0,0 2.21054,-0.96872 2.21054,-0.96872 v 0 c -0.14737,0.25561 -0.2677,0.52887 -0.44217,0.76684 -0.24887,0.33945 -0.54975,0.63751 -0.82246,0.95813 -1.27058,1.49385 -0.42815,0.56726 -1.92524,2.12792 -1.45079,1.43564 -2.90695,2.86495 -4.41825,4.23753 -0.64119,0.58233 -1.3054,1.13912 -1.9431,1.72527 -0.62285,0.5725 -1.20309,1.19106 -1.83801,1.75016 -0.83341,0.73387 -1.7096,1.41767 -2.56439,2.1265 -7.69517,6.88511 3.34476,-2.9731 -5.11101,4.50726 -3.752,3.31921 -7.39883,6.75699 -11.21204,10.00745 -2.60495,2.2879 -5.21234,4.57432 -7.83378,6.8433 -0.79346,0.68679 -1.61123,1.34554 -2.39406,2.04442 -0.60565,0.54069 -1.18001,1.11541 -1.77,1.67312 -0.59233,0.51915 -1.18462,1.0383 -1.77695,1.55746 -1.37482,1.23732 -2.76148,2.44834 -4.07265,3.75277 -0.1578,0.15698 -0.33179,0.29829 -0.47887,0.46534 -0.0632,0.0718 -0.0984,0.16417 -0.14764,0.24625 0,0 -2.6752,1.14294 -2.6752,1.14294 z"
       inkscape:connector-curvature="0" />
    <path
       style="opacity:1;fill:#000304;fill-opacity:1;stroke:none;stroke-width:0.60000002;stroke-miterlimit:4;stroke-dasharray:none;stroke-opacity:1"
       id="path4058"
       d="m 442.07308,175.72737 c 0,0.10317 -0.039,0.21333 -0.003,0.3095 0.0493,0.1268 0.17174,0.21148 0.24781,0.32426 0.0986,0.14605 0.17441,0.30676 0.27535,0.45117 0.13094,0.18733 0.31107,0.34121 0.41921,0.54254 0.13155,0.24492 0.19455,0.52086 0.29183,0.78129 0.16116,0.26735 0.32229,0.53469 0.48345,0.80203 0.6287,0.73065 0.93715,1.00982 1.39869,1.88992 0.21596,0.41178 0.33793,0.86805 0.54923,1.28225 0.236,0.46272 0.53736,0.88936 0.79001,1.34322 1.59264,2.86104 -0.10112,0.0635 1.73091,3.00093 0.37595,0.5454 0.77525,1.07541 1.12784,1.6362 0.36039,0.57322 0.66791,1.17808 1.00922,1.76289 0.34899,0.59796 0.70427,1.19225 1.06159,1.78528 0.73015,1.21181 1.52062,2.38662 2.24999,3.59888 0.36166,0.60106 0.68924,1.22196 1.03386,1.83294 0.41746,0.5523 0.8863,1.06928 1.25238,1.65689 0.80105,1.61252 0.86045,1.8371 1.80851,3.34058 1.22473,1.94229 0.71517,0.99153 1.98458,2.80714 0.2979,0.42608 0.56928,0.87009 0.85395,1.30513 0.15261,1.46947 1.45542,2.30174 1.99242,3.57709 0.16332,0.38793 0.0829,0.86456 0.29596,1.22758 1.15729,1.03173 0.69389,0.448 1.42036,1.7268 0.22074,0.42758 0.69551,1.30244 0.84937,1.77234 0.0958,0.29238 0.0971,0.61056 0.19584,0.90196 0.0867,0.25589 0.23934,0.48444 0.35624,0.72802 0.35541,0.74072 0.27487,0.57417 0.58147,1.31265 0,0 -2.37318,1.31991 -2.37318,1.31991 v 0 c -0.0518,-0.23162 -0.10575,-0.46279 -0.15544,-0.69487 -0.0539,-0.2515 -0.0405,-0.52567 -0.15526,-0.75582 -0.12208,-0.2447 -0.415,-0.37699 -0.5329,-0.62373 -0.1321,-0.27643 -0.0961,-0.60815 -0.19439,-0.89832 -0.27183,-0.80232 -0.50196,-0.99549 -1.00705,-1.67133 -1.35438,-2.14693 0.14687,0.44056 -0.85654,-2.04065 -0.15124,-0.37401 -0.38735,-0.70822 -0.59883,-1.05179 -0.71366,-1.15927 -1.5294,-2.26109 -2.06015,-3.52678 -0.27699,-0.43881 -0.54489,-0.8835 -0.83098,-1.31644 -0.30364,-0.45955 -0.64902,-0.89148 -0.93787,-1.36049 -0.31046,-0.50416 -0.58325,-1.03082 -0.85778,-1.55541 -0.28691,-0.54824 -0.49659,-1.13869 -0.82624,-1.66235 -0.71493,-1.13568 -1.7857,-2.02485 -2.35064,-3.26842 -3.17711,-5.10221 0.91425,1.57437 -2.09187,-3.68128 -1.57901,-2.76058 -0.64609,-0.84386 -2.33294,-3.49669 -0.71781,-1.12888 -1.261,-2.36271 -1.99789,-3.48068 -0.29261,-0.52722 -0.59471,-1.04927 -0.87778,-1.58166 -0.25998,-0.48895 -0.45265,-1.01536 -0.75113,-1.48182 -0.28332,-0.44277 -0.65524,-0.82214 -0.98502,-1.23148 -0.29337,-0.36415 -0.65426,-0.68191 -0.88437,-1.08899 -0.20576,-0.36403 -0.24106,-0.80245 -0.4028,-1.18808 -0.14131,-0.33698 -0.33586,-0.64909 -0.50379,-0.97363 -0.17696,-0.25761 -0.35999,-0.51114 -0.53086,-0.77283 -0.10033,-0.15367 -0.64768,-1.07266 -0.79566,-1.26288 -0.11173,-0.14362 -0.2812,-0.23946 -0.37888,-0.39299 -0.0749,-0.11768 -0.0408,-0.28814 -0.1251,-0.39929 -0.0641,-0.0845 -0.18994,-0.0944 -0.28493,-0.14158 0,0 2.42182,-1.41911 2.42182,-1.41911 z"
       inkscape:connector-curvature="0" />
  </g>
</svg>
