<?xml version="1.0" encoding="UTF-8" standalone="no"?>
<!-- Created with Inkscape (http://www.inkscape.org/) -->

<svg
   xmlns:dc="http://purl.org/dc/elements/1.1/"
   xmlns:cc="http://creativecommons.org/ns#"
   xmlns:rdf="http://www.w3.org/1999/02/22-rdf-syntax-ns#"
   xmlns:svg="http://www.w3.org/2000/svg"
   xmlns="http://www.w3.org/2000/svg"
   xmlns:sodipodi="http://sodipodi.sourceforge.net/DTD/sodipodi-0.dtd"
   xmlns:inkscape="http://www.inkscape.org/namespaces/inkscape"
   width="1920"
   height="1080"
   viewBox="0 0 508.00002 285.74999"
   version="1.1"
   id="svg8"
   inkscape:version="0.92.4 5da689c313, 2019-01-14"
   sodipodi:docname="dibujo24.svg">
  <defs
     id="defs2" />
  <sodipodi:namedview
     id="base"
     pagecolor="#ffffff"
     bordercolor="#666666"
     borderopacity="1.0"
     inkscape:pageopacity="0.0"
     inkscape:pageshadow="2"
     inkscape:zoom="0.35355339"
     inkscape:cx="388.68694"
     inkscape:cy="361.93881"
     inkscape:document-units="mm"
     inkscape:current-layer="layer1"
     showgrid="false"
     units="px"
     inkscape:window-width="1366"
     inkscape:window-height="768"
     inkscape:window-x="0"
     inkscape:window-y="0"
     inkscape:window-maximized="0"
     showguides="true" />
  <metadata
     id="metadata5">
    <rdf:RDF>
      <cc:Work
         rdf:about="">
        <dc:format>image/svg+xml</dc:format>
        <dc:type
           rdf:resource="http://purl.org/dc/dcmitype/StillImage" />
        <dc:title></dc:title>
      </cc:Work>
    </rdf:RDF>
  </metadata>
  <g
     inkscape:label="Capa 1"
     inkscape:groupmode="layer"
     id="layer1"
     transform="translate(0,-11.250015)">
    <path
       style="fill:none;fill-opacity:1;stroke:#0e0a08;stroke-width:3;stroke-miterlimit:4;stroke-dasharray:none;stroke-opacity:1"
       d="m 161.64461,114.0273 c 1.79266,-1.2964 3.42631,-2.84743 5.23848,-4.11596 0.5958,-0.41706 1.27508,-0.70546 1.87089,-1.12253 0.65427,-0.45799 1.225,-1.02697 1.87088,-1.49671 2.1324,-1.55083 4.59923,-2.90505 7.10937,-3.74177 0.97574,-0.32524 1.99963,-0.48335 2.99342,-0.74836 0.87736,-0.23396 1.72886,-0.57027 2.61924,-0.74835 3.18053,-0.63611 6.51088,-0.37418 9.72861,-0.37418 3.15659,0 5.55932,0.10695 8.60608,1.12253 0.90114,0.30038 1.74616,0.74836 2.61924,1.12254 2.24221,0.96094 3.1721,1.24165 5.23849,2.61924 1.92434,1.28289 1.94216,1.5858 3.36759,3.36759 0.4989,0.62363 1.06794,1.19711 1.49671,1.87089 1.03272,1.62284 1.27523,2.70316 1.87089,4.49013 0.3019,0.9057 1.37608,4.01987 1.49671,4.86431 0.25008,1.75059 -0.12915,3.5233 -0.37418,5.23848 -0.12472,0.87308 -0.17586,1.75988 -0.37418,2.61924 -0.57533,2.49311 -1.85959,4.84171 -2.99341,7.10937 -1.52477,3.04952 -0.65843,1.5489 -2.61925,4.49013 -0.4989,0.74835 -0.92717,1.54895 -1.49671,2.24506 -0.55848,0.68259 -1.3124,1.1883 -1.87088,1.87089 -0.56954,0.6961 -0.92717,1.54895 -1.49671,2.24506 -0.55848,0.68259 -1.24726,1.24726 -1.87089,1.87089 -2.00278,2.00278 -4.08965,3.90913 -6.36101,5.61266 -0.71953,0.53964 -1.52554,0.95706 -2.24507,1.49671 -0.77931,0.58448 -1.49112,1.25402 -2.24506,1.87088 -1.94223,1.5891 -3.8666,3.14089 -5.98684,4.49013 -1.22714,0.78091 -2.49451,1.49671 -3.74177,2.24507 -0.62363,0.37417 -1.2204,0.79728 -1.87089,1.12253 -2.56642,1.28321 -1.1128,0.33384 -3.74177,1.12253 -0.64334,0.193 -1.21521,0.60265 -1.87089,0.74835 -0.48702,0.10823 -1.00166,-0.0619 -1.49671,0 -0.51028,0.0638 -0.98762,0.30146 -1.49671,0.37418 -0.41057,0.0587 -2.22584,0.13113 -2.61924,0 -0.26458,-0.0882 -0.5163,-0.21947 -0.74835,-0.37418 -0.14677,-0.0978 -0.20684,-0.31839 -0.37418,-0.37417 -0.64252,-0.21418 -0.77153,0.32783 -1.12253,-0.37418 -0.15538,-0.31075 0,-1.14198 0,-1.49671 0,-0.39309 -0.1101,-1.16641 0,-1.49671 0.21675,-0.65026 1.75268,-1.16845 2.24506,-1.49671 0.14677,-0.0978 0.22741,-0.27633 0.37418,-0.37418 0.23205,-0.1547 0.4989,-0.24945 0.74835,-0.37417 0.24946,-0.12473 0.47488,-0.31949 0.74836,-0.37418 0.70347,-0.14069 2.25115,0 2.99342,0 0.9978,0 2.00331,-0.12376 2.99341,0 0.51029,0.0638 0.9947,0.26262 1.49672,0.37418 1.24166,0.27592 2.52345,0.38286 3.74177,0.74835 3.71964,1.11589 -0.0774,0.44838 4.11595,1.49671 0.73602,0.18401 1.52532,0.13426 2.24506,0.37418 0.79375,0.26458 1.47274,0.80073 2.24507,1.12253 0.72815,0.3034 1.50881,0.46518 2.24506,0.74835 0.88657,0.34099 1.7181,0.82216 2.61924,1.12254 0.97574,0.32524 2.01172,0.44157 2.99342,0.74835 2.93976,0.91868 5.73861,2.26473 8.60608,3.3676 1.47251,0.56635 3.00744,0.95755 4.49013,1.49671 1.54172,0.56063 2.93889,1.3538 4.49013,1.87088"
       id="path9821"
       inkscape:connector-curvature="0" />
    <path
       style="fill:none;fill-opacity:1;stroke:#0e0a08;stroke-width:3;stroke-miterlimit:4;stroke-dasharray:none;stroke-opacity:1"
       d="m 255.9373,103.17615 c -1.05646,0.48964 -2.29993,0.32129 -3.3676,0.74836 -0.67525,0.2701 -1.2204,0.79728 -1.87089,1.12253 -0.60076,0.30038 -1.27013,0.44798 -1.87088,0.74835 -1.70381,0.85191 -2.23849,1.41661 -3.74178,2.61924 -0.62363,0.49891 -1.30616,0.93199 -1.87088,1.49671 -1.02929,1.02929 -2.21287,2.94513 -2.99342,4.11596 -0.86811,1.30216 -2.11099,2.96536 -2.61924,4.49012 -0.39431,1.18292 -1.33884,6.53632 -1.49671,7.48355 -0.6291,3.77462 -0.98587,5.90214 -1.12253,9.72861 -0.2652,7.42535 0.087,3.58521 0.37417,10.47696 0.0571,1.3708 -0.0623,2.74539 0,4.11596 0.24579,5.40735 0.26939,2.64907 1.12253,7.48354 0.17476,0.99027 0.17697,2.00738 0.37418,2.99342 0.62129,3.10645 0.79658,2.23042 1.87089,5.23848 0.95686,2.67923 0.36194,2.49312 1.87089,4.86431 0.42876,0.67378 1.03872,1.21662 1.4967,1.87089 0.41707,0.5958 0.63936,1.32731 1.12254,1.87088 1.42381,1.60179 3.64323,2.65144 5.61266,3.3676 2.7959,1.01669 1.78373,0.6486 4.8643,1.12253 0.74986,0.11536 1.48862,0.31599 2.24507,0.37418 2.7695,0.21304 5.22484,-0.37028 7.85772,-1.12253 0.87308,-0.24946 1.77174,-0.4224 2.61925,-0.74836 5.58536,-2.14822 8.88564,-7.30785 11.5995,-12.34785 1.23481,-2.29324 2.94957,-5.53848 3.74176,-8.2319 0.32446,-1.10319 0.4989,-2.24506 0.74835,-3.3676 0.24945,-1.12253 0.55933,-2.23333 0.74837,-3.36759 0.14613,-0.87683 0.6685,-6.39071 0.74835,-7.10937 0.29011,-2.61105 0.57732,-5.21679 0.37417,-7.85773 -0.0676,-0.87934 -0.30094,-1.74034 -0.37417,-2.61924 -0.0518,-0.62147 0.12229,-1.25937 0,-1.87088 -0.13174,-0.65863 -0.53597,-1.23369 -0.74835,-1.87089 -0.16264,-0.48787 -0.19362,-1.0152 -0.37417,-1.49671 -0.19587,-0.52228 -0.55251,-0.97443 -0.74838,-1.49671 -0.18055,-0.48151 -0.1442,-1.03674 -0.37417,-1.49671 -0.2789,-0.55779 -0.76004,-0.98924 -1.12252,-1.49671 -0.26138,-0.36594 -0.46048,-0.77706 -0.74838,-1.12253 -0.97615,-1.17139 -2.45676,-2.56447 -3.74176,-3.3676 -0.473,-0.29562 -1.0237,-0.45272 -1.4967,-0.74835 -0.90984,-0.56865 -1.74617,-1.24726 -2.61924,-1.87089 -3.57719,-2.55513 0.52277,0.13837 -2.99341,-1.87088 -1.87894,-1.07367 -0.3578,-0.52752 -2.61925,-1.49672 -0.36253,-0.15536 -0.76001,-0.2188 -1.12254,-0.37417 -1.1131,-0.47705 -2.15541,-1.25427 -3.3676,-1.49671 -2.48198,0 0.52917,0.17639 -1.12253,-0.37418 -0.10999,-0.0367 -2.87547,-0.059 -2.99342,0 -0.15776,0.0789 -0.20684,0.3184 -0.37417,0.37418 -0.46957,0.15652 -2.39019,0 -2.99342,0 -0.14792,0 -1.71109,0.0799 -1.87089,0 -0.15777,-0.0789 -0.21641,-0.2953 -0.37418,-0.37418 -0.22311,-0.11155 -0.52523,0.11156 -0.74835,0 -0.15777,-0.0789 -0.21641,-0.29529 -0.37418,-0.37418 -0.0215,-0.0107 -1.74736,-0.0618 -1.87089,0 -0.15776,0.0789 -0.21641,0.2953 -0.37417,0.37418 -0.51613,0.25807 -0.3347,-0.45315 -0.74836,0.37418 -0.0558,0.11156 0.0882,0.28598 0,0.37418 -0.0882,0.0882 -0.26262,-0.0558 -0.37417,0 -0.44902,0.2245 -0.67353,0.89802 -1.12254,1.12253 -0.11156,0.0558 -0.26262,-0.0558 -0.37418,0 -0.15776,0.0789 -0.2164,0.29529 -0.37417,0.37417 -0.22312,0.11156 -0.52524,-0.11155 -0.74836,0 -0.15776,0.0789 -0.21641,0.2953 -0.37417,0.37418 -0.11156,0.0558 -0.28599,-0.0882 -0.37418,0 -0.17639,0.17639 0,0.49891 0,0.74836"
       id="path9823"
       inkscape:connector-curvature="0" />
    <path
       style="fill:none;fill-opacity:1;stroke:#0e0a08;stroke-width:3;stroke-miterlimit:4;stroke-dasharray:none;stroke-opacity:1"
       d="m 303.45782,115.89818 c 3.16656,-4.74983 -0.30242,0.28089 3.36759,-4.49013 0.65418,-0.85043 1.20801,-1.77557 1.87089,-2.61924 1.95951,-2.4939 4.12047,-4.86881 6.36101,-7.10937 0.74835,-0.74835 1.53315,-1.46196 2.24507,-2.245061 0.53721,-0.590941 0.93199,-1.306165 1.49672,-1.870887 0.5647,-0.564718 1.27397,-0.966126 1.87087,-1.496708 1.05468,-0.937493 1.93146,-2.064197 2.99342,-2.993419 0.46934,-0.410662 1.02737,-0.711869 1.49672,-1.122532 0.53099,-0.464611 0.96102,-1.03754 1.49669,-1.496711 0.68289,-0.585327 1.54276,-0.934852 2.24507,-1.496708 0.41323,-0.330568 0.68226,-0.829003 1.12255,-1.122532 0.23204,-0.154704 0.48376,-0.285983 0.74835,-0.374176 0.11832,-0.03944 0.28598,0.08819 0.37417,0 0.0882,-0.0882 0,-0.498904 0,-0.374179 0,2.427726 -0.13838,-1.676014 0.74835,1.870887 0.15126,0.60501 0,1.247256 0,1.870887 0,0.997805 0,1.995612 0,2.993419 0,4.979787 -0.1555,9.99078 0,14.96709 0.0663,2.12297 0.25302,4.24047 0.37417,6.36102 0.25657,4.48973 0.47633,8.98156 0.74837,13.47038 0.0832,1.37283 0.70933,10.39006 0.74835,11.5995 0,13.19438 -0.14348,-1.4294 0.37418,10.47696 0.0542,1.24608 -0.0692,2.49644 0,3.74178 0.0558,1.00402 0.30728,1.99007 0.37417,2.99342 0.11615,1.74229 0,3.49232 0,5.23848 0,1.62143 0.12435,3.24764 0,4.8643 -0.0582,0.75645 -0.31118,1.48901 -0.37417,2.24507 -0.0621,0.74577 0,1.49671 0,2.24506 0,1.99561 0,3.99123 0,5.98684"
       id="path9825"
       inkscape:connector-curvature="0" />
    <path
       style="fill:none;fill-opacity:1;stroke:#0e0a08;stroke-width:3;stroke-miterlimit:4;stroke-dasharray:none;stroke-opacity:1"
       d="m 384.28011,84.841463 c -1.68103,-0.398685 -3.50903,-0.547121 -5.23848,-0.374176 -0.63281,0.06328 -1.23807,0.310893 -1.87087,0.374176 -0.62055,0.06205 -1.25733,-0.111559 -1.8709,0 -0.7761,0.14111 -1.47978,0.557035 -2.24506,0.748356 -0.73602,0.184004 -1.51993,0.151061 -2.24507,0.374176 -1.54972,0.476843 -2.98466,1.268701 -4.49011,1.870887 -2.02293,0.80917 -4.2477,1.640756 -5.98684,2.993419 -0.55695,0.433168 -0.96938,1.027962 -1.49672,1.496709 -0.5969,0.530584 -1.27397,0.966126 -1.87089,1.49671 -1.72107,1.529845 -4.27625,4.618302 -5.23849,6.73519 -0.32642,0.71813 -0.47876,1.50372 -0.74835,2.24506 -0.22952,0.63123 -0.57163,1.22289 -0.74834,1.87089 -0.64032,2.34779 -0.41678,3.69463 0,5.98684 0.25429,1.39856 0.2963,2.87662 1.12252,4.11595 0.39137,0.58706 1.06354,0.93978 1.49672,1.49671 0.44651,0.57407 0.60828,1.35663 1.12252,1.87089 0.51427,0.51425 1.25733,0.73207 1.87089,1.12253 0.7588,0.48287 1.41838,1.14241 2.24507,1.49671 0.94536,0.40515 1.99962,0.48334 2.99342,0.74835 1.07529,0.28675 4.60735,1.37105 5.61266,1.49671 0.9901,0.12376 1.99562,0 2.99342,0 1.12252,0 2.24506,0 3.36759,0 4.61486,0 9.22972,0 13.84456,0 3.4735,0 1.76498,0 5.23848,0 0.74835,0 1.49979,-0.0677 2.24507,0 1.26675,0.11516 2.49452,0.4989 3.74176,0.74836 0.62365,0.12472 1.28974,0.11588 1.8709,0.37417 0.56989,0.25328 0.9978,0.74836 1.49672,1.12254 0.4989,0.37417 1.05572,0.68156 1.4967,1.12253 0.7489,0.74889 1.7463,2.51255 2.24507,3.36759 0.50667,0.86859 1.047,1.71984 1.49669,2.61924 1.0591,2.11819 1.4818,3.69705 2.24507,5.98684 0.36057,1.08174 1.60253,4.64507 1.87089,5.98684 0.37016,1.85079 0.48144,3.74419 0.74835,5.61266 0.32081,2.24569 0.54925,2.96271 0.37418,5.23848 -0.0582,0.75645 -0.24945,1.49671 -0.37418,2.24507 -0.12472,0.74835 -0.10181,1.53695 -0.37417,2.24506 -0.36097,0.93855 -0.9697,1.76284 -1.4967,2.61924 -0.47138,0.76599 -0.92718,1.54896 -1.49672,2.24507 -3.24752,3.9692 -8.28299,6.41375 -13.09621,7.85772 -1.10141,0.33043 -2.24825,0.48498 -3.36759,0.74835 -1.00118,0.23558 -1.97393,0.61243 -2.99342,0.74836 -0.86542,0.11539 -1.74617,0 -2.61924,0 -0.87307,0 -1.74768,0.0513 -2.61924,0 -3.47139,-0.2042 -6.75611,-0.97844 -10.1028,-1.87089 -0.87736,-0.23396 -1.77173,-0.42239 -2.61924,-0.74835 -2.42623,-0.93317 -2.2189,-1.29437 -4.49011,-2.61924 -2.2819,-1.33111 -2.23841,-0.74169 -4.11597,-2.61925 -0.5647,-0.56471 -0.9978,-1.24725 -1.49669,-1.87088 -0.4989,-0.62363 -1.03873,-1.21662 -1.49672,-1.87089 -1.67521,-2.39316 -3.03232,-5.39405 -3.74177,-8.2319 -0.18402,-0.73603 -0.23847,-1.49862 -0.37417,-2.24506 -0.11377,-0.62572 -0.23622,-1.25006 -0.37418,-1.87089 -0.11157,-0.50201 -0.31739,-0.9856 -0.3742,-1.49671 -0.13771,-1.23963 0,-2.49451 0,-3.74177 0,-0.62363 -0.12229,-1.25937 0,-1.87089 0.13174,-0.65863 0.53597,-1.23369 0.74838,-1.87089 0.16261,-0.48786 0.19359,-1.01519 0.37417,-1.49671 0.67998,-1.81328 1.93847,-3.28188 2.99342,-4.8643 0.40341,-0.60513 0.71911,-1.26576 1.12252,-1.87089 0.39886,-0.59829 2.27338,-2.97848 2.61924,-3.3676 0.46876,-0.52733 1.02796,-0.96936 1.49672,-1.4967 1.06117,-1.19382 1.9249,-2.55454 2.99342,-3.74178 2.49261,-2.76956 1.13059,-1.01752 3.74176,-3.36759 0.65556,-0.58999 1.24728,-1.24726 1.8709,-1.87089 1.68068,-1.68069 3.27954,-3.49305 5.23848,-4.8643 1.19161,-0.83413 2.53151,-1.43823 3.74177,-2.24507 0.5189,-0.34592 0.95157,-0.81967 1.49672,-1.12253 0.58714,-0.32619 1.25709,-0.47556 1.87087,-0.74836 1.01944,-0.45308 2.02483,-0.94322 2.99344,-1.49671 0.39045,-0.22311 0.73208,-0.52523 1.12252,-0.74835 0.4843,-0.27674 1.0237,-0.45272 1.4967,-0.74835 0.52885,-0.33053 0.98925,-0.76006 1.49672,-1.12254 0.36594,-0.26138 0.73207,-0.52523 1.12252,-0.74835 0.48432,-0.27674 1.0682,-0.39127 1.49672,-0.74835 0.34547,-0.2879 0.46046,-0.77706 0.74835,-1.12254 0.33877,-0.40652 0.74835,-0.74835 1.12255,-1.12253 0.24945,-0.24945 0.47286,-0.52798 0.74834,-0.74835 0.35116,-0.28093 0.84162,-0.3972 1.12252,-0.74836 0.10174,-0.12715 1.04201,-2.751832 1.12255,-2.993418 0.12473,-0.374176 0.29681,-0.735774 0.37418,-1.122532 0.09,-0.449918 0.0789,-2.598732 0,-2.993419 -0.0547,-0.273478 -0.27059,-0.489405 -0.37418,-0.748352 -0.1465,-0.36621 -0.24945,-0.748356 -0.37417,-1.122535 -0.15095,-0.452773 -0.41802,-1.430433 -0.74838,-1.870885 -0.42333,-0.564446 -1.07336,-0.932264 -1.49669,-1.49671 -0.16735,-0.223116 -0.20685,-0.525238 -0.37417,-0.748353 -0.982,-1.309309 -0.40405,-0.303025 -1.49673,-1.122535 -0.28223,-0.211666 -0.44584,-0.566851 -0.74834,-0.748352 -0.33822,-0.202928 -0.75634,-0.227696 -1.12255,-0.374179 -0.77414,-0.309663 -1.4709,-0.812867 -2.24504,-1.122532 -0.36621,-0.146482 -0.76976,-0.197787 -1.12255,-0.374177 -0.15777,-0.07888 -0.20683,-0.318399 -0.37417,-0.374176 -0.44953,-0.149847 -3.97013,0 -4.86432,0"
       id="path9827"
       inkscape:connector-curvature="0" />
  </g>
</svg>
