<?xml version="1.0" encoding="UTF-8" standalone="no"?>
<!-- Created with Inkscape (http://www.inkscape.org/) -->

<svg
   xmlns:dc="http://purl.org/dc/elements/1.1/"
   xmlns:cc="http://creativecommons.org/ns#"
   xmlns:rdf="http://www.w3.org/1999/02/22-rdf-syntax-ns#"
   xmlns:svg="http://www.w3.org/2000/svg"
   xmlns="http://www.w3.org/2000/svg"
   xmlns:sodipodi="http://sodipodi.sourceforge.net/DTD/sodipodi-0.dtd"
   xmlns:inkscape="http://www.inkscape.org/namespaces/inkscape"
   width="1920"
   height="1080"
   viewBox="0 0 508.00002 285.74999"
   version="1.1"
   id="svg8"
   inkscape:version="0.92.4 5da689c313, 2019-01-14"
   sodipodi:docname="dibujo31.svg">
  <defs
     id="defs2" />
  <sodipodi:namedview
     id="base"
     pagecolor="#ffffff"
     bordercolor="#666666"
     borderopacity="1.0"
     inkscape:pageopacity="0.0"
     inkscape:pageshadow="2"
     inkscape:zoom="0.5"
     inkscape:cx="963.44558"
     inkscape:cy="518.32384"
     inkscape:document-units="mm"
     inkscape:current-layer="layer1"
     showgrid="false"
     units="px"
     inkscape:window-width="1366"
     inkscape:window-height="768"
     inkscape:window-x="0"
     inkscape:window-y="0"
     inkscape:window-maximized="0"
     showguides="false" />
  <metadata
     id="metadata5">
    <rdf:RDF>
      <cc:Work
         rdf:about="">
        <dc:format>image/svg+xml</dc:format>
        <dc:type
           rdf:resource="http://purl.org/dc/dcmitype/StillImage" />
        <dc:title></dc:title>
      </cc:Work>
    </rdf:RDF>
  </metadata>
  <g
     inkscape:label="Capa 1"
     inkscape:groupmode="layer"
     id="layer1"
     transform="translate(0,-11.250015)">
    <path
       style="fill:none;fill-opacity:1;stroke:#0e0a08;stroke-width:3;stroke-miterlimit:4;stroke-dasharray:none;stroke-opacity:1"
       d="m 377.825,122.37501 c -0.24226,2.55193 0.31541,5.41418 0,7.9375 -0.11156,0.89247 -0.43967,1.75089 -0.52917,2.64584 -0.26202,2.62021 0.23843,5.31478 0,7.9375 -0.0971,1.06852 -0.44006,2.10577 -0.52916,3.175 -0.0879,1.05467 0,2.11666 0,3.175 0,3.52777 0,7.05555 0,10.58333 0,2.64583 0,5.29167 0,7.9375 0,1.23472 0.0821,2.47218 0,3.70417 -0.0946,1.41894 -0.43457,2.81439 -0.52917,4.23333 -0.0821,1.23199 0,2.46944 0,3.70417 0,4.23333 0,8.46666 0,12.7 0,1.5875 0,3.175 0,4.7625 0,1.23472 0.20299,2.48624 0,3.70416 -0.0917,0.5502 -0.41978,1.04054 -0.52917,1.5875 -0.20748,1.03741 0,2.60963 0,3.70417 0,0.35278 0,0.70556 0,1.05833 0,0.17639 -0.12472,0.40444 0,0.52917 0.12473,0.12472 0.36183,-0.0558 0.52917,0 0.37418,0.12472 0.67569,0.43351 1.05833,0.52917 0.45489,0.11372 2.91596,0.0518 3.175,0 0.38676,-0.0773 0.69213,-0.38269 1.05834,-0.52917 0.51789,-0.20716 1.0748,-0.30944 1.5875,-0.52917 0.72505,-0.31073 1.37805,-0.78135 2.11666,-1.05833 1.26303,-0.47363 4.19428,-0.87544 5.29167,-1.05833 1.05833,-0.17639 2.10577,-0.44007 3.175,-0.52917 1.05468,-0.0879 2.11978,0.0812 3.175,0 1.24358,-0.0957 2.47141,-0.33951 3.70417,-0.52917 5.10407,-0.78524 10.22035,-1.47598 15.34583,-2.11666 2.82222,-0.35278 5.62878,-0.86914 8.46667,-1.05834 1.23198,-0.0821 2.47258,0.088 3.70416,0 3.72297,-0.26592 7.38953,-1.32157 11.1125,-1.5875 1.23159,-0.088 2.47218,0.0821 3.70417,0 10.23472,-0.68231 -1.33567,-0.52916 7.9375,-0.52916 2.29306,0 4.58611,0 6.87917,0 1.05833,0 2.12032,0.0879 3.175,0 1.06922,-0.0891 2.10647,-0.43203 3.175,-0.52917 1.58098,-0.14372 3.18725,0.19691 4.7625,0 0.72165,-0.0902 1.39501,-0.43896 2.11666,-0.52917 0.70011,-0.0875 1.41111,0 2.11667,0 1.76389,0 3.52778,0 5.29167,0 0.69543,0 2.57789,0.19904 3.17499,0 0.23666,-0.0789 0.30606,-0.4176 0.52917,-0.52916 0.31554,-0.15777 0.80888,0.24945 1.05833,0 0.12473,-0.12473 -0.0558,-0.36183 0,-0.52917 0.12473,-0.37418 0.43351,-0.67569 0.52917,-1.05833 0.25668,-1.02674 -0.11687,-2.12314 0,-3.175 0.73672,-6.63051 0.52917,1.72117 0.52917,-5.82084 0,-9.05286 0.11687,4.33726 -0.52917,-7.9375 -0.0927,-1.76145 0,-3.52777 0,-5.29166 0,-4.58611 0,-9.17223 0,-13.75834 0,-1.23472 0.088,-2.47258 0,-3.70416 -0.0889,-1.24409 -0.4403,-2.46008 -0.52917,-3.70417 -0.088,-1.23158 0,-2.46944 0,-3.70417 -0.17638,-1.23472 -0.4335,-2.46058 -0.52916,-3.70416 -0.16234,-2.11044 0,-4.23334 0,-6.35 0,-4.05695 0,-8.11389 0,-12.17084 0,-2.11666 0,-4.23333 0,-6.35 0,-0.50166 0.21973,-1.6772 0,-2.11666 -0.11156,-0.22312 -0.30605,-0.41761 -0.52917,-0.52917 -0.15777,-0.0789 -0.35278,0 -0.52917,0 -0.35277,0 -0.70555,0 -1.05833,0 -0.70555,0 -1.43217,-0.17112 -2.11666,0 -0.38265,0.0957 -0.67158,0.45182 -1.05834,0.52917 -0.51889,0.10377 -1.06553,-0.087 -1.5875,0 -0.5502,0.0917 -1.0373,0.43746 -1.5875,0.52916 -0.52197,0.087 -1.06242,-0.0656 -1.5875,0 -0.89246,0.11156 -1.75088,0.43967 -2.64583,0.52917 -1.57962,0.15796 -3.18471,-0.17531 -4.7625,0 -0.89391,0.0993 -1.75089,0.43967 -2.64583,0.52917 -1.57963,0.15796 -3.18726,-0.19691 -4.7625,0 -0.72166,0.0902 -1.41111,0.35277 -2.11667,0.52916 -0.88194,0 -1.76928,-0.0974 -2.64583,0 -0.72283,0.0803 -1.39301,0.4568 -2.11667,0.52917 -1.05308,0.10531 -2.12102,-0.0958 -3.175,0 -0.89572,0.0814 -1.75089,0.43967 -2.64584,0.52917 -1.93064,0.19306 -3.88725,-0.16113 -5.82083,0 -1.06922,0.0891 -2.10647,0.43202 -3.175,0.52916 -3.32193,0.302 -6.73541,-0.33187 -10.05416,0 -0.89495,0.0895 -1.75089,0.43968 -2.64584,0.52917 -0.87757,0.0878 -1.76928,-0.0974 -2.64583,0 -0.72282,0.0803 -1.39385,0.44885 -2.11667,0.52917 -0.87655,0.0974 -1.76826,-0.0878 -2.64583,0 -0.89495,0.0895 -1.76389,0.35277 -2.64583,0.52916 -2.64318,0.52864 -5.30624,1.00278 -7.9375,1.5875 -1.41991,0.31554 -2.79342,0.85263 -4.23334,1.05834 -0.52385,0.0748 -1.06553,-0.087 -1.5875,0 -0.5502,0.0917 -1.0373,0.43746 -1.5875,0.52916 -5.06427,0 1.18326,-0.23665 -2.64583,0.52917 -1.16586,0.23317 -2.54922,-0.28873 -3.70417,0 -0.38264,0.0957 -0.67569,0.43351 -1.05833,0.52917 -0.34224,0.0856 -0.70556,0 -1.05833,0 -0.35278,0.17639 -0.68416,0.40444 -1.05834,0.52916 -0.0768,0.0256 -5.15063,0.0705 -5.29166,0 -0.22312,-0.11156 -0.30606,-0.4176 -0.52917,-0.52916 -0.33443,-0.16722 -2.59058,0 -3.175,0 -1.62448,0 -0.49639,0.0164 -1.5875,-0.52917 -0.28707,-0.14353 -1.97188,0.14479 -2.11667,0 -0.12472,-0.12472 0,-0.35278 0,-0.52917"
       id="path10236"
       inkscape:connector-curvature="0" />
    <path
       style="fill:none;fill-opacity:1;stroke:#0e0a08;stroke-width:3;stroke-miterlimit:4;stroke-dasharray:none;stroke-opacity:1"
       d="m 385.7625,141.95418 c 0.88194,-0.35278 1.79623,-0.63353 2.64583,-1.05833 0.22312,-0.11156 0.29252,-0.45029 0.52917,-0.52917 0.0393,-0.0131 3.05882,-0.0581 3.175,0 0.22311,0.11156 0.30605,0.41761 0.52917,0.52917 0.15776,0.0789 0.3714,-0.0789 0.52916,0 0.44624,0.22311 0.6121,0.83522 1.05834,1.05833 0.31553,0.15777 0.72365,-0.11156 1.05833,0 1.01613,0.33871 1.49157,0.81773 2.64583,0.52917 0.76529,-0.19132 1.38425,-0.76537 2.11667,-1.05834 0.51789,-0.20715 1.0886,-0.27971 1.5875,-0.52916 1.13767,-0.56884 2.03732,-1.54783 3.175,-2.11667 0.4989,-0.24945 1.1092,-0.24219 1.5875,-0.52917 0.4278,-0.25668 0.70556,-0.70555 1.05833,-1.05833 0.17639,-0.17639 0.29252,-0.45028 0.52917,-0.52917 2.40892,0 0.0303,0.24946 1.5875,-0.52916 0.26724,-0.13363 3.77202,0 4.23333,0 1.76389,0 3.52778,0 5.29167,0 0.52917,0 1.08549,-0.16734 1.5875,0 0.37417,0.12472 0.68416,0.40444 1.05833,0.52916 0.16734,0.0558 0.36183,-0.0558 0.52917,0 0.37417,0.12473 0.68416,0.40445 1.05833,0.52917 0.16734,0.0558 0.40444,-0.12472 0.52917,0 1.09486,1.09486 -1.6731,-0.0428 0.52917,1.05833 0.28462,0.14232 3.16839,0 3.70416,0"
       id="path10238"
       inkscape:connector-curvature="0" />
    <path
       style="fill:none;fill-opacity:1;stroke:#0e0a08;stroke-width:3;stroke-miterlimit:4;stroke-dasharray:none;stroke-opacity:1"
       d="m 386.10647,157.02465 c 1.35352,-0.98668 2.77311,-1.92383 4.30304,-2.61925 0.30573,-0.13897 0.62855,-0.23778 0.93544,-0.37417 0.71602,-0.31824 0.71963,-0.46414 1.49671,-0.56127 0.43317,-0.0541 0.87308,0 1.30962,0 0.38061,0 0.92852,-0.0762 1.30962,0 0.19338,0.0387 0.36994,0.13926 0.56127,0.18709 0.0605,0.0151 0.12792,-0.0197 0.18708,0 0.1323,0.0441 0.23744,0.15974 0.37418,0.18709 0.18346,0.0367 0.37781,-0.0367 0.56127,0 0.13674,0.0273 0.23889,0.15326 0.37418,0.18709 0.121,0.0302 0.25187,-0.0245 0.37417,0 2.03476,0.67825 -0.49302,-0.0986 0.93545,0.18708 0.19338,0.0387 0.36674,0.15467 0.56126,0.18709 0.29396,0.049 1.38443,0.0428 1.6838,0 0.25455,-0.0364 0.4989,-0.12472 0.74836,-0.18709 2.33947,-0.58487 -0.56918,0.16263 1.30961,-0.37417 0.24724,-0.0706 0.5076,-0.0968 0.74836,-0.18709 0.52228,-0.19585 1.01241,-0.47161 1.49671,-0.74836 0.69083,-0.39476 0.48727,-0.43997 1.30962,-0.74835 0.48151,-0.18057 1.02403,-0.1716 1.49671,-0.37418 0.20667,-0.0886 0.35459,-0.2856 0.56127,-0.37418 0.83456,-0.35766 0.64237,-0.0803 1.4967,-0.18708 0.25515,-0.0319 0.49322,-0.1552 0.74836,-0.18709 0.33207,-0.0415 1.73007,-0.0469 2.05797,0 0.19523,0.0279 0.36675,0.15466 0.56127,0.18709 0.18454,0.0307 0.37672,-0.0308 0.56127,0 0.24829,0.0414 1.45368,0.54282 1.49671,0.56126 0.25634,0.10986 0.47778,0.30654 0.74835,0.37418 0.121,0.0302 0.25318,-0.0302 0.37418,0 0.27057,0.0676 0.48377,0.28598 0.74835,0.37418 0.0592,0.0197 0.13131,-0.0279 0.18709,0 0.57054,0.28527 -0.34217,0.14831 0.56127,0.37417 0.2192,0.0548 0.70911,0 0.93544,0"
       id="path10242"
       inkscape:connector-curvature="0" />
    <path
       style="fill:none;fill-opacity:1;stroke:#0e0a08;stroke-width:3;stroke-miterlimit:4;stroke-dasharray:none;stroke-opacity:1"
       d="m 389.09988,168.62414 c 1.1816,-0.0528 2.37441,0.0738 3.55469,0 1.87429,-0.11714 3.7344,-0.47182 5.61266,-0.56126 0.62292,-0.0297 1.24822,0.0346 1.87089,0 0.50201,-0.0279 0.99504,-0.15365 1.49671,-0.18709 0.43557,-0.029 0.87308,0 1.30962,0 0.9978,0 1.99561,0 2.99341,0 0.87309,0 1.74874,-0.067 2.61925,0 0.75644,0.0582 1.49671,0.24945 2.24506,0.37417 0.37418,0.0624 0.75656,0.0873 1.12253,0.18709 0.324,0.0884 0.61377,0.27768 0.93545,0.37418 0.30458,0.0914 0.62502,0.11811 0.93544,0.18709 0.50201,0.11156 0.98642,0.31039 1.49671,0.37418 0.24752,0.0309 0.4989,0 0.74835,0 0.81194,0 1.65479,0.10442 2.43216,-0.18709 0.26113,-0.0979 0.48721,-0.27625 0.74835,-0.37418 0.48151,-0.18057 1.00884,-0.21155 1.49671,-0.37418 0.3186,-0.1062 0.61684,-0.26797 0.93544,-0.37417 0.48787,-0.16263 1.00224,-0.23291 1.49671,-0.37418 0.18962,-0.0542 0.37165,-0.13291 0.56127,-0.18709 0.24723,-0.0706 0.51202,-0.0858 0.74835,-0.18709 0.82276,-0.35261 0.26253,-0.41793 1.12254,-0.56126 0.18454,-0.0308 0.38377,0.0592 0.56126,0 0.21331,-0.0711 0.36015,-0.27363 0.56127,-0.37418 0.17639,-0.0882 0.38,-0.10941 0.56126,-0.18709 0.25635,-0.10986 0.49891,-0.24945 0.74836,-0.37418"
       id="path10244"
       inkscape:connector-curvature="0" />
    <path
       style="fill:none;fill-opacity:1;stroke:#0e0a08;stroke-width:3;stroke-miterlimit:4;stroke-dasharray:none;stroke-opacity:1"
       d="m 390.40951,186.58465 c 2.26892,-1.94479 0.36439,-0.55637 2.24506,-1.49671 0.65049,-0.32524 1.2088,-0.82158 1.87089,-1.12253 0.35906,-0.16321 0.74555,-0.25818 1.12253,-0.37417 0.86786,-0.26704 1.73138,-0.5581 2.61924,-0.74836 0.43118,-0.0924 0.87378,-0.12004 1.30962,-0.18709 1.00422,-0.15449 1.22396,-0.27992 2.24507,-0.18709 0.31668,0.0288 0.61939,0.15198 0.93544,0.18709 0.24792,0.0275 0.50083,-0.0309 0.74835,0 0.51029,0.0638 1.00224,0.2329 1.49671,0.37418 0.43654,0.12472 0.87308,0.24945 1.30962,0.37418 0.48324,0.13806 0.78974,0.30919 1.30962,0.37418 0.55694,0.0696 1.12254,0 1.6838,0 0.81072,0 1.62382,0.0622 2.43215,0 1.43968,-0.11075 2.74502,-0.74172 4.11595,-1.12254 0.55399,-0.15388 1.11759,-0.27426 1.6838,-0.37418 0.49514,-0.0874 1.00369,-0.0885 1.49671,-0.18709 0.94934,-0.18986 1.85969,-0.5455 2.80633,-0.74835 1.16949,-0.2506 2.37494,-0.36464 3.55469,-0.56126 0.37417,-0.0624 0.74931,-0.11924 1.12253,-0.18709 0.31286,-0.0569 0.61903,-0.15545 0.93544,-0.18709 2.46693,0 -0.41792,0.0756 1.6838,-0.18709 0.43317,-0.0541 0.87747,0.0617 1.30962,0 0.50909,-0.0727 0.98642,-0.31039 1.49671,-0.37418 0.24753,-0.0309 0.50083,0.0309 0.74835,0 0.25515,-0.0319 0.49735,-0.13131 0.74836,-0.18709 0.31042,-0.069 0.63377,-0.0865 0.93544,-0.18709 1.84979,-0.61659 -0.47519,-0.15954 1.6838,-0.74835 0.36597,-0.0998 0.74931,-0.11923 1.12253,-0.18709 0.31286,-0.0569 0.61904,-0.15545 0.93545,-0.18709 0.31026,-0.031 0.62362,0 0.93544,0 0.37418,0 0.74989,-0.0339 1.12253,0 0.31669,0.0288 0.61903,0.15545 0.93545,0.18709 0.55847,0.0559 1.12596,-0.062 1.68379,0 0.31605,0.0351 0.6194,0.15197 0.93545,0.18709 0.55783,0.062 1.12253,0 1.6838,0 1.37198,0 2.74396,0 4.11594,0"
       id="path10246"
       inkscape:connector-curvature="0" />
    <path
       style="fill:none;fill-opacity:1;stroke:#0e0a08;stroke-width:3;stroke-miterlimit:4;stroke-dasharray:none;stroke-opacity:1"
       d="m 17.462494,86.39168 c 0,6.98772 -0.17296,-1.729634 0.52917,5.291667 0.38021,3.802142 -0.21479,1.519031 -0.52917,5.291667 -0.32091,3.851096 0.22696,7.783496 0,11.641666 -0.0938,1.59451 -0.35277,3.175 -0.52916,4.7625 0,1.76389 0.0927,3.53021 0,5.29166 -0.084,1.59507 -0.44522,3.16744 -0.52917,4.7625 -0.24056,4.57058 0.28548,9.19045 0,13.75834 -0.0887,1.41932 -0.35277,2.82222 -0.52917,4.23333 0,1.5875 0.0932,3.17774 0,4.7625 -0.0835,1.41964 -0.44566,2.8137 -0.52916,4.23333 -0.25848,4.39385 0.27455,8.83639 0,13.22917 -0.17741,2.83865 -0.86913,5.62878 -1.05834,8.46667 -0.0821,1.23198 0,2.46944 0,3.70416 0,3.52778 0,7.05556 0,10.58334 0,3.70416 0,7.40833 0,11.1125 0,1.5875 -0.1969,3.18725 0,4.7625 0.0692,0.55348 0.4503,1.03531 0.52917,1.5875 0.17462,1.22231 -0.20299,2.48624 0,3.70416 0.0917,0.5502 0.41979,1.04054 0.52917,1.5875 0.0692,0.34593 -0.0856,0.71609 0,1.05834 0.19793,0.79175 1.30365,2.7685 2.11666,3.175 2.01893,1.00947 1.09667,0.23226 3.175,0.52916 2.70039,0.38577 1.48717,0.8343 4.23334,0.52917 1.96003,-0.21778 3.86857,-0.77944 5.82083,-1.05833 7.89075,-1.12725 0.48689,-0.0813 8.99583,-0.52917 6.19525,-0.32607 3.77426,-0.50869 8.99584,-1.05833 1.02089,-0.10746 12.48412,-1.02968 13.22916,-1.05834 4.23021,-0.1627 8.46667,0 12.7,0 2.64584,0 5.29683,-0.16504 7.9375,0 2.83864,0.17742 5.64444,0.70556 8.46667,1.05834 2.99598,0.37449 5.99985,0.68383 8.995826,1.05833 3.88107,0.48513 7.77555,0.99271 11.64167,1.5875 1.06045,0.16315 2.10523,0.44688 3.175,0.52917 9.20615,0.70816 -1.81605,-0.88998 7.40833,0.52916 1.74509,0.26848 5.20525,0.91884 6.87917,1.05834 0.87889,0.0732 1.76752,-0.0799 2.64583,0 1.06852,0.0971 2.10648,0.43202 3.175,0.52916 1.40531,0.12776 2.82223,0 4.23333,0 0.70557,0 1.41111,0 2.11667,0 0.52917,0 1.0686,0.10378 1.5875,0 0.38677,-0.0773 0.67569,-0.4335 1.05833,-0.52916 0.34224,-0.0856 0.7161,0.0856 1.05834,0 0.38264,-0.0957 0.67569,-0.43351 1.05833,-0.52917 0.34224,-0.0856 0.72366,0.11156 1.05833,0 0.23665,-0.0789 0.32161,-0.3908 0.52917,-0.52917 0.32816,-0.21878 0.73017,-0.31038 1.05833,-0.52916 0.76894,-0.51262 2.0763,-1.93392 2.64584,-2.64584 0.3973,-0.49661 0.70556,-1.05833 1.05833,-1.5875 0.35277,-0.52916 0.77391,-1.01866 1.05833,-1.5875 0.24945,-0.4989 0.322,-1.0696 0.52917,-1.5875 0.97121,-2.42801 2.31971,-5.32856 2.64583,-7.9375 0.0875,-0.7001 -0.0779,-1.41542 0,-2.11666 0.0993,-0.89391 0.36828,-1.76094 0.52917,-2.64584 0.21667,-1.19174 0.97906,-5.84852 1.05833,-6.87916 0.0812,-1.05522 0,-2.11667 0,-3.175 0,-3.38792 -0.22217,-7.25075 0,-10.58334 0.0946,-1.41894 0.35277,-2.82222 0.52917,-4.23333 0.1764,-1.76389 0.42508,-3.52204 0.52917,-5.29167 0.14502,-2.46518 0,-4.93889 0,-7.40833 0,-3.70417 0,-7.40833 0,-11.1125 0,-2.64583 -0.176,-5.29753 0,-7.9375 0.0946,-1.41894 0.43458,-2.81439 0.52916,-4.23333 0.15254,-2.28798 0,-4.58611 0,-6.87917 0,-3.35139 0,-6.70278 0,-10.05417 0,-1.05833 -0.0879,-2.12032 0,-3.175 0.0891,-1.06922 0.44006,-2.10577 0.52917,-3.175 0.17579,-2.10935 -0.19164,-4.24202 0,-6.35 0.0814,-0.89571 0.43969,-1.75088 0.52917,-2.64583 0.17552,-1.755127 0,-3.527773 0,-5.291663 0,-2.645833 0,-5.291667 0,-7.9375 0,-1.76389 0,-3.527777 0,-5.291667 0,-0.705556 0.22312,-1.447318 0,-2.116666 -0.55057,-1.651699 -0.35277,0.17639 -1.05834,-0.529167 -1.09487,-1.094864 1.6731,0.0428 -0.52916,-1.058333 -0.15777,-0.07888 -0.35277,0 -0.52917,0 -0.52917,0 -1.05833,0 -1.5875,0 -1.94027,0 -3.88056,0 -5.82083,0 -0.88194,0 -1.76827,0.08776 -2.64584,0 -1.7899,-0.178988 -3.50176,-0.879343 -5.29166,-1.058334 -0.87757,-0.08776 -1.7639,0 -2.64584,0 -1.05833,0 -2.121,-0.09582 -3.175,0 -0.89572,0.08143 -1.75011,0.447739 -2.64583,0.529167 -1.05399,0.09582 -2.12032,-0.08789 -3.175,0 -1.06923,0.0891 -2.10648,0.432028 -3.175,0.529167 -1.9323,0.175665 -3.88056,0 -5.82083,0 -2.11667,0 -4.24204,0.191635 -6.35,0 -0.89572,-0.08143 -1.75012,-0.447739 -2.64584,-0.529167 -1.05399,-0.09582 -2.11666,0 -3.175,0 -2.64583,0 -5.29166,0 -7.9375,0 -1.94026,0 -3.888516,0.175665 -5.820826,0 -1.06852,-0.09714 -2.10576,-0.440065 -3.175,-0.529167 -1.05468,-0.08789 -2.11849,0.06215 -3.175,0 -1.94492,-0.114405 -3.87636,-0.407635 -5.82083,-0.529166 -0.88022,-0.05502 -1.7639,0 -2.64584,0 -0.88193,0 -1.76826,-0.08776 -2.64583,0 -0.89495,0.08949 -1.75191,0.429845 -2.64583,0.529166 -1.57779,0.175311 -3.18471,-0.17531 -4.7625,0 -6.30261,0.700289 2.0075,0.529167 -4.23333,0.529167 -4.7625,0 -9.525,0 -14.2875,0 -1.5875,0 -3.175,0 -4.7625,0 -0.88194,0 -1.79023,-0.213902 -2.64584,0 -0.38264,0.09566 -0.67156,0.451816 -1.05833,0.529167 -0.84802,0.169606 -1.79782,-0.169606 -2.64583,0 -1.07667,-0.18379 -1.7144,0.872045 -2.64584,1.058333 -4.15113,0.830226 0.46752,-0.622668 -2.64583,0 -0.54695,0.109392 -1.06961,0.322009 -1.5875,0.529167 -0.36621,0.146484 -0.67157,0.451816 -1.05833,0.529166 -0.51891,0.103778 -1.06553,-0.087 -1.5875,0 -0.55021,0.0917 -1.04056,0.419775 -1.5875,0.529167 -0.34592,0.06919 -0.7161,-0.08556 -1.05834,0 -0.38264,0.09566 -0.67569,0.433507 -1.05833,0.529167 -0.89151,0.222879 -3.71901,0 -4.7625,0 -0.80508,0 -3.04972,0.218146 -3.70417,0 -0.37417,-0.124725 -0.68416,-0.404442 -1.05833,-0.529167 -0.52927,-0.176427 -2.50275,0 -3.175,0 -0.1764,0 -0.40444,-0.124724 -0.52917,0 -0.12472,0.124725 0,0.352777 0,0.529167 0,1.829583 0.0894,1.207331 1.5875,3.704166 z"
       id="path10248"
       inkscape:connector-curvature="0" />
    <path
       style="fill:none;fill-opacity:1;stroke:#0e0a08;stroke-width:3;stroke-miterlimit:4;stroke-dasharray:none;stroke-opacity:1"
       d="m 50.799994,205.45418 c -0.45524,-5.50805 0.75465,-10.93787 1.05834,-16.40417 0.23447,-4.22031 -0.23448,-8.47969 0,-12.7 0.0983,-1.76996 0.43084,-3.52171 0.52916,-5.29167 0.0783,-1.40894 -0.088,-2.82497 0,-4.23333 0.86265,-13.80255 0.17124,4.48176 1.05834,-7.9375 0.16338,-2.28723 -0.19043,-4.59403 0,-6.87917 0.0891,-1.06922 0.44005,-2.10577 0.52916,-3.175 0.16113,-1.93357 -0.19306,-3.89018 0,-5.82083 0.0895,-0.89495 0.42984,-1.75192 0.52917,-2.64583 0.0779,-0.70124 -0.0779,-1.41543 0,-2.11667 0.26101,-2.349 1.29677,-4.55327 1.5875,-6.87917 0.0875,-0.7001 -0.0875,-1.41656 0,-2.11666 0.0902,-0.72166 0.43897,-1.39502 0.52917,-2.11667 0.0875,-0.70011 -0.0998,-1.4182 0,-2.11667 0.0789,-0.55218 0.43746,-1.0373 0.52916,-1.5875 0.087,-0.52196 0,-1.05833 0,-1.5875 0,-1.5875 0,-3.175 0,-4.7625 0,-4.23333 0,-8.46666 0,-12.7 0,-2.29305 0,-4.586107 0,-6.87916 0,-0.661305 0.20527,-3.088354 0,-3.704166 -0.12472,-0.374177 -0.40444,-0.684157 -0.52916,-1.058334 -0.19987,-0.599583 0.28037,-1.555924 0,-2.116666 -0.11155,-0.223116 -0.41762,-0.306052 -0.52917,-0.529167 -0.21167,-0.423333 0.21167,-1.164167 0,-1.5875 -0.11155,-0.223115 -0.41762,-0.306051 -0.52917,-0.529167 -0.15777,-0.315534 0.15777,-0.742799 0,-1.058333 -0.11155,-0.223115 -0.45029,-0.292515 -0.52916,-0.529167 -0.16939,-0.50818 0.25394,-1.608793 0,-2.116666 -0.11155,-0.223115 -0.41762,-0.306052 -0.52917,-0.529167 -0.15777,-0.315534 0.15777,-0.742799 0,-1.058333 -0.65389,-1.307785 -0.52917,0.182658 -0.52917,-1.058334"
       id="path10250"
       inkscape:connector-curvature="0" />
    <path
       style="fill:none;fill-opacity:1;stroke:#0e0a08;stroke-width:3;stroke-miterlimit:4;stroke-dasharray:none;stroke-opacity:1"
       d="m 51.858334,177.40834 c 3.175,0 6.35,0 9.525,0 0.88193,0 1.76752,-0.0798 2.64583,0 2.13704,0.19428 4.21045,0.89375 6.35,1.05834 1.23108,0.0947 2.47309,-0.0947 3.70417,0 1.06976,0.0823 2.10576,0.44006 3.175,0.52916 2.10936,0.17578 4.23333,0 6.34999,0 2.11667,0 4.24064,0.17578 6.35,0 1.06924,-0.0891 2.10524,-0.44687 3.175,-0.52916 2.2863,-0.17587 4.58611,0 6.879166,0 3.3514,0 6.70277,0 10.05417,0 1.94027,0 3.88056,0 5.82083,0 1.05833,0 2.12101,-0.0958 3.175,0 0.89572,0.0814 1.75088,0.43967 2.64583,0.52916 0.87757,0.0878 1.76827,-0.0877 2.64584,0 0.89495,0.0895 1.75088,0.43967 2.64583,0.52917 0.87757,0.0878 1.76694,-0.0732 2.64583,0 1.24296,0.10358 2.46203,0.41624 3.70417,0.52917 0.70265,0.0639 1.41819,-0.0998 2.11667,0 0.55218,0.0789 1.0373,0.43746 1.5875,0.52916 1.04394,0.17399 2.13106,-0.17399 3.175,0 0.5502,0.0917 1.0373,0.43747 1.5875,0.52917 1.15763,0.19294 2.56159,-0.28564 3.70416,0 0.38264,0.0957 0.68416,0.40444 1.05834,0.52917 0.79375,0.26458 1.85208,-0.26459 2.64583,0 0.23664,0.0789 0.29252,0.45028 0.52917,0.52916 0.5757,0.19191 4.76618,0 5.82083,0"
       id="path10252"
       inkscape:connector-curvature="0" />
    <path
       style="fill:none;fill-opacity:1;stroke:#0e0a08;stroke-width:3;stroke-miterlimit:4;stroke-dasharray:none;stroke-opacity:1"
       d="m 24.341664,101.73751 c 5.46806,0 10.9361,0 16.40417,0 1.33606,0 3.49892,-0.21059 4.7625,0 0.5502,0.0917 1.03729,0.43747 1.5875,0.52917 1.33061,0.22177 2.92605,-0.32682 4.23333,0 0.24201,0.0605 0.35277,0.35277 0.52917,0.52916 0.35276,0 0.70556,0 1.05833,0"
       id="path10254"
       inkscape:connector-curvature="0" />
    <path
       style="fill:none;fill-opacity:1;stroke:#0e0a08;stroke-width:3;stroke-miterlimit:4;stroke-dasharray:none;stroke-opacity:1"
       d="m 64.426034,104.51564 c 0.35277,-0.1323 0.69123,-0.31216 1.05834,-0.39688 0.21484,-0.0496 0.44098,0 0.66146,0 0.22047,0 0.44098,0 0.66145,0 0.87966,0 0.44326,0 1.32292,0 0.1764,0 0.35454,-0.025 0.52917,0 0.13803,0.0197 0.25931,0.10937 0.39687,0.13229 0.24704,0.0412 0.85294,-0.0685 1.05834,0 0.0592,0.0197 0.0882,0.0882 0.13229,0.13229"
       id="path10258"
       inkscape:connector-curvature="0" />
    <path
       style="fill:none;fill-opacity:1;stroke:#0e0a08;stroke-width:3;stroke-miterlimit:4;stroke-dasharray:none;stroke-opacity:1"
       d="m 64.293744,108.74897 c 1.83325,0 -0.0523,-0.0642 1.32292,0.13229 0.13097,0.0187 0.2659,-0.0187 0.39687,0 0.18,0.0257 0.34917,0.10658 0.52917,0.13229 0.13097,0.0187 0.26638,-0.0217 0.39688,0 0.35808,-0.22484 0.34207,0.20222 0.52916,0.26459 0.49043,0.16347 0.0866,-0.17796 0.39688,0.13229"
       id="path10260"
       inkscape:connector-curvature="0" />
    <path
       style="fill:none;fill-opacity:1;stroke:#0e0a08;stroke-width:3;stroke-miterlimit:4;stroke-dasharray:none;stroke-opacity:1"
       d="m 61.251034,115.23126 c 0.76822,0.27067 1.60618,0.29665 2.38125,0.52917 0.22747,0.0682 0.43617,0.18949 0.66146,0.26458 0.32263,0.10754 0.87606,0.19468 1.19063,0.26458 0.17748,0.0395 0.34917,0.10658 0.52916,0.1323 0.13097,0.0187 0.26639,-0.0217 0.39688,0 0.13756,0.0229 0.26014,0.10494 0.39687,0.13229 0.17296,0.0346 0.35277,0 0.52917,0"
       id="path10262"
       inkscape:connector-curvature="0" />
    <path
       style="fill:none;fill-opacity:1;stroke:#0e0a08;stroke-width:3;stroke-miterlimit:4;stroke-dasharray:none;stroke-opacity:1"
       d="m 64.690624,125.81459 c 0.22047,0 0.44188,-0.02 0.66146,0 0.26712,0.0243 0.52644,0.11002 0.79375,0.1323 0.69826,0.0582 1.42036,-0.0774 2.11666,0 0.18071,0.0201 0.34875,0.10973 0.52917,0.13229 0.37899,0.0474 0.80576,0 1.19062,0"
       id="path10264"
       inkscape:connector-curvature="0" />
    <path
       style="fill:none;fill-opacity:1;stroke:#0e0a08;stroke-width:3;stroke-miterlimit:4;stroke-dasharray:none;stroke-opacity:1"
       d="m 62.883354,135.01332 c 0.43654,0.12473 0.8618,0.29954 1.30964,0.37418 0.30755,0.0513 0.62516,-0.031 0.93543,0 0.31642,0.0316 0.61939,0.15197 0.93544,0.18709 0.49585,0.0551 0.99782,0 1.49672,0 0.3216,0 1.21467,0.0705 1.49669,0 0.13529,-0.0338 0.2389,-0.15327 0.37418,-0.18709 1.02727,-0.25681 -0.31163,0.3429 0.74837,-0.18709"
       id="path10266"
       inkscape:connector-curvature="0" />
    <path
       style="fill:none;fill-opacity:1;stroke:#0e0a08;stroke-width:3;stroke-miterlimit:4;stroke-dasharray:none;stroke-opacity:1"
       d="m 59.515764,146.61282 c 2.08611,0.60371 4.25794,0.78385 6.36101,1.30962 0.24945,0.0624 0.50112,0.11645 0.74835,0.18709 0.18962,0.0542 0.3679,0.14841 0.56128,0.18709 0.1223,0.0244 0.25316,-0.0303 0.37418,0 0.13528,0.0338 0.24188,0.14299 0.37417,0.18709 0.17748,0.0592 0.37418,0 0.56126,0"
       id="path10268"
       inkscape:connector-curvature="0" />
    <path
       style="fill:none;fill-opacity:1;stroke:#0e0a08;stroke-width:3;stroke-miterlimit:4;stroke-dasharray:none;stroke-opacity:1"
       d="m 58.580334,155.59307 c 0.24945,0.12473 0.48376,0.28599 0.74835,0.37418 0.27728,0.0924 1.85065,0.33648 2.05798,0.37418 1.25275,0.22777 2.49901,0.47219 3.74176,0.74836 0.25101,0.0558 0.50112,0.11644 0.74835,0.18708 0.18963,0.0542 0.36674,0.15467 0.56126,0.18709 0.18455,0.0308 0.37674,-0.0308 0.56129,0 1.24084,0.20681 0.16785,0.18709 0.74835,0.18709"
       id="path10270"
       inkscape:connector-curvature="0" />
    <path
       style="fill:none;fill-opacity:1;stroke:#0e0a08;stroke-width:3;stroke-miterlimit:4;stroke-dasharray:none;stroke-opacity:1"
       d="m 58.019044,165.32169 c 0.41667,0.10416 1.28794,0.33459 1.68381,0.37417 0.31028,0.031 0.62492,-0.0282 0.93544,0 0.37779,0.0343 0.74837,0.12473 1.12254,0.18709 0.74835,0.12473 1.49863,0.23846 2.24505,0.37418 0.31286,0.0569 0.62505,0.11811 0.93546,0.18709 0.25101,0.0558 0.49321,0.15519 0.74834,0.18709 0.24752,0.0309 0.50142,-0.0353 0.74835,0 1.58573,0.22653 -0.20902,0.18709 0.93546,0.18709"
       id="path10272"
       inkscape:connector-curvature="0" />
    <path
       style="fill:none;fill-opacity:1;stroke:#0e0a08;stroke-width:3;stroke-miterlimit:4;stroke-dasharray:none;stroke-opacity:1"
       d="m 76.727914,105.45331 c 2.32143,0 -1.49989,0.0353 2.05799,-0.18709 0.56017,-0.035 1.12252,0 1.68378,0 0.8731,0 1.74839,-0.0622 2.61924,0 1.31966,0.0943 2.31529,0.56362 3.5547,0.93545 0.24628,0.0739 0.50758,0.0968 0.74835,0.18709 1.31199,0.49199 0.22403,0.20555 1.30961,0.74835 0.1764,0.0882 0.37817,0.11385 0.56129,0.18709 0.12946,0.0518 0.23743,0.15974 0.37417,0.18709 0.18346,0.0367 0.37418,0 0.56126,0 0.18709,0 0.37672,0.0308 0.56126,0 0.19452,-0.0324 0.36994,-0.13926 0.56126,-0.18709 2.49447,-0.62361 -1.12421,0.52895 2.43216,-0.93544 0.54708,-0.22527 1.13673,-0.33601 1.68381,-0.56127 0.51578,-0.21238 0.98568,-0.52478 1.49669,-0.74836 1.13049,-0.49458 1.65868,-0.60753 2.80633,-0.93544 1.161726,-0.33191 1.415676,-0.46868 2.619236,-0.56126 0.91993,-0.0708 1.88201,0 2.80633,0 0.56949,0 1.51834,-0.0771 2.05799,0 0.58486,0.0836 0.77655,0.22187 1.30963,0.37417 1.82216,0.52062 -0.15803,-0.0226 1.30961,0.18709 0.50908,0.0727 0.98642,0.31039 1.49672,0.37418 0.60174,0.0752 1.60986,0 2.24504,0 0.51769,0 1.7331,0.0731 2.24507,0 0.19524,-0.0279 0.36674,-0.15467 0.56126,-0.18709 0.18455,-0.0308 0.37674,0.0308 0.56129,0 1.47749,-0.24625 -0.33679,-0.18709 1.12252,-0.18709"
       id="path10274"
       inkscape:connector-curvature="0" />
    <path
       style="fill:none;fill-opacity:1;stroke:#0e0a08;stroke-width:3;stroke-miterlimit:4;stroke-dasharray:none;stroke-opacity:1"
       d="m 75.231224,114.24648 c 0.37417,0 0.74906,-0.0233 1.12252,0 1.51067,0.0944 2.39594,0.30753 3.92885,0.37418 0.26271,0.0114 4.52255,-0.0124 4.67723,0 0.75626,0.0605 1.48923,0.30845 2.24507,0.37417 1.36681,0.11886 2.74537,-0.0623 4.11593,0 0.61863,0.0281 3.01451,0.28327 3.74179,0.37418 0.43757,0.0547 0.86977,0.15567 1.30961,0.18709 0.43543,0.0311 0.8731,0 1.30964,0 1.24724,0 2.494506,0 3.741756,0 0.87307,0 1.74715,-0.0415 2.61924,0 0.44048,0.021 0.86977,0.15567 1.30961,0.18709 0.80867,0.0578 1.62425,-0.0673 2.43216,0 0.37803,0.0315 0.74451,0.15558 1.12254,0.18709 0.68361,0.057 1.37727,-0.0851 2.05796,0 0.19569,0.0245 0.36605,0.1592 0.56129,0.18709 0.53451,0.0764 1.47179,0 2.05795,0 0.36579,0 1.21978,0.0692 1.49672,0 0.13529,-0.0338 0.24472,-0.1353 0.37418,-0.18709 0.27289,-0.10916 1.06399,-0.34689 1.30963,-0.37418 0.68178,-0.0758 1.37197,0 2.05796,0 0.43656,0 0.87421,-0.0311 1.30963,0 0.43985,0.0314 0.87307,0.12473 1.30961,0.18709 0.43654,0.0624 0.87844,0.0947 1.30964,0.18709 0.44391,0.0951 0.86569,0.27905 1.3096,0.37418 0.43119,0.0924 0.87845,0.0947 1.30964,0.18708 0.44392,0.0951 0.86722,0.27209 1.30961,0.37418 0.73924,0.1706 1.50111,0.22539 2.24506,0.37418 0.56381,0.11276 1.12602,0.23473 1.68381,0.37418 0.19132,0.0478 0.36674,0.15466 0.56126,0.18708 0.18455,0.0308 0.3778,-0.0367 0.56126,0 0.13674,0.0273 0.2389,0.15327 0.37418,0.18709 0.28456,0.0711 1.46497,0 1.87089,0"
       id="path10276"
       inkscape:connector-curvature="0" />
    <path
       style="fill:none;fill-opacity:1;stroke:#0e0a08;stroke-width:3;stroke-miterlimit:4;stroke-dasharray:none;stroke-opacity:1"
       d="m 77.850444,123.60091 c 0.43656,0.0624 0.87309,0.12473 1.30963,0.18709 0.31181,0 0.62518,-0.031 0.93543,0 0.31642,0.0316 0.61905,0.15545 0.93547,0.18709 0.31025,0.031 0.62362,0 0.93543,0 0.62362,0 1.24725,0 1.8709,0 1.8085,0 3.61703,0 5.42557,0"
       id="path10278"
       inkscape:connector-curvature="0" />
    <path
       style="fill:none;fill-opacity:1;stroke:#0e0a08;stroke-width:3;stroke-miterlimit:4;stroke-dasharray:none;stroke-opacity:1"
       d="m 83.650214,133.51661 c 0.77441,0.0426 1.49013,-0.29868 2.24504,-0.37417 0.6826,-0.0683 1.372,0 2.05798,0 1.49672,0 2.99342,0 4.49014,0 1.12252,0 2.24507,0 3.36759,0 0.62362,0 1.25034,-0.0621 1.8709,0 0.31641,0.0316 0.61939,0.15197 0.93543,0.18708 0.49586,0.0551 1.00282,-0.0705 1.496716,0 0.19521,0.0279 0.36603,0.1592 0.56126,0.18709 0.24694,0.0353 0.50083,-0.0309 0.74835,0 2.32005,0.29001 -0.55428,0.0635 1.30963,0.37418 0.18453,0.0308 0.3778,-0.0367 0.56127,0 0.13673,0.0273 0.23743,0.15974 0.37417,0.18709 0.12494,0.025 1.91381,0.036 2.05798,0 0.13528,-0.0338 0.23744,-0.15974 0.37417,-0.18709 1.06397,0 0.12317,0.0837 0.93544,-0.18709 0.17748,-0.0592 0.37976,0.0454 0.56126,0 0.13528,-0.0338 0.24188,-0.14299 0.37417,-0.18709 0.19656,-0.0655 0.53944,0 0.74838,0"
       id="path10280"
       inkscape:connector-curvature="0" />
    <path
       style="fill:none;fill-opacity:1;stroke:#0e0a08;stroke-width:3;stroke-miterlimit:4;stroke-dasharray:none;stroke-opacity:1"
       d="m 86.830714,141.18725 c 2.39443,0.26605 -0.52356,-0.26605 1.87087,0 0.25556,0.0284 0.49281,0.15869 0.74837,0.18709 0.30991,0.0344 0.62553,-0.0344 0.93544,0 0.25556,0.0284 0.49321,0.15519 0.74835,0.18709 0.24754,0.0309 0.50043,-0.0275 0.74837,0 0.31605,0.0351 0.61939,0.15197 0.93543,0.18708 0.55783,0.062 1.12597,-0.062 1.68381,0 0.25554,0.0284 0.49279,0.1587 0.74835,0.18709 0.30991,0.0344 0.62362,0 0.93543,0 0.81071,0 1.62145,0 2.43216,0 2.182706,0 4.365406,0 6.548086,0"
       id="path10282"
       inkscape:connector-curvature="0" />
    <path
       style="fill:none;fill-opacity:1;stroke:#0e0a08;stroke-width:3;stroke-miterlimit:4;stroke-dasharray:none;stroke-opacity:1"
       d="m 85.146904,151.10295 c 1.58541,-0.39635 -0.19859,-0.0146 1.8709,-0.18709 0.37804,-0.0315 0.7443,-0.158 1.12252,-0.18709 0.43527,-0.0335 0.8731,0 1.30963,0 1.18489,0 2.3698,0 3.55468,0 0.68599,0 1.37197,0 2.05798,0 0.31182,0 0.62516,-0.031 0.93544,0 0.31641,0.0316 0.61904,0.15545 0.93543,0.18709 0.31028,0.031 0.62365,0 0.93546,0 0.31181,0.0624 0.61939,0.15197 0.93544,0.18709 0.24794,0.0276 0.50141,-0.0353 0.74834,0 0.39048,0.0558 0.733476,0.30933 1.122546,0.37417 0.30758,0.0513 0.63294,-0.0756 0.93544,0 0.13528,0.0338 0.23743,0.15975 0.37417,0.18709 0.24461,0.0489 0.4989,0 0.74837,0"
       id="path10284"
       inkscape:connector-curvature="0" />
    <path
       style="fill:none;fill-opacity:1;stroke:#0e0a08;stroke-width:3;stroke-miterlimit:4;stroke-dasharray:none;stroke-opacity:1"
       d="m 75.979574,161.39282 c 0.31181,0 0.62674,-0.0441 0.93543,0 0.13806,0.0197 0.23889,0.15327 0.37418,0.18709 0.30189,0.0755 1.28812,0 1.6838,0 1.24725,0 2.49452,0 3.74177,0"
       id="path10286"
       inkscape:connector-curvature="0" />
    <path
       style="fill:none;fill-opacity:1;stroke:#0e0a08;stroke-width:3;stroke-miterlimit:4;stroke-dasharray:none;stroke-opacity:1"
       d="m 34.632974,111.06597 c 0.24945,-0.0624 0.49279,-0.15869 0.74835,-0.18709 0.30991,-0.0344 0.62518,0.031 0.93543,0 0.69379,-0.0694 1.36885,-0.26815 2.05799,-0.37417 0.87169,-0.13411 1.74617,-0.24946 2.61924,-0.37418 0.87307,-0.12473 1.73953,-0.31134 2.61924,-0.37418 0.43543,-0.0311 0.87307,0 1.30964,0 0.37417,0 0.74964,-0.0311 1.12252,0 0.75604,0.063 1.48949,0.30549 2.24507,0.37418 0.31051,0.0282 0.62515,-0.031 0.93543,0 0.72485,0.0725 1.56374,0.28873 2.24507,0.56127 0.12946,0.0518 0.24471,0.13529 0.37417,0.18708 0.7166,0.28664 0.38979,0.0156 0.74835,0.37418"
       id="path10294"
       inkscape:connector-curvature="0" />
    <path
       style="fill:none;fill-opacity:1;stroke:#0e0a08;stroke-width:3;stroke-miterlimit:4;stroke-dasharray:none;stroke-opacity:1"
       d="m 34.258804,117.61408 c 0.74835,0 1.49669,0 2.24507,0 0.18708,0 0.37605,-0.0265 0.56126,0 0.25453,0.0364 0.49321,0.15519 0.74834,0.18708 0.24752,0.0309 0.50083,-0.0309 0.74835,0 0.25514,0.0319 0.49382,0.15073 0.74838,0.18709 0.37041,0.0529 0.75342,-0.0615 1.12252,0 0.19452,0.0324 0.36674,0.15467 0.56126,0.18709 0.36909,0.0615 0.75562,-0.0734 1.12255,0 0.13673,0.0273 0.23743,0.15974 0.37417,0.18709 0.30575,0.0611 0.63963,-0.0986 0.93543,0 0.0837,0.0279 0.10343,0.1592 0.18709,0.18709 0.22119,0.0737 0.74017,-0.0976 0.93544,0 0.0789,0.0394 0.10821,0.14765 0.18708,0.18709 0.11044,0.0552 0.43553,0 0.56129,0"
       id="path10296"
       inkscape:connector-curvature="0" />
    <path
       style="fill:none;fill-opacity:1;stroke:#0e0a08;stroke-width:3;stroke-miterlimit:4;stroke-dasharray:none;stroke-opacity:1"
       d="m 39.497284,128.65231 c 0.24945,-0.0624 0.4938,-0.15073 0.74835,-0.18709 0.4568,-0.0653 1.03494,0 1.4967,0 0.87309,0 1.74617,0 2.61924,0 0.21071,0 1.13107,0.0595 1.30963,0 0.0837,-0.0279 0.10343,-0.1592 0.18709,-0.18709 0.17748,-0.0592 0.39394,0.0837 0.56126,0 0.38576,-0.19288 -0.013,-0.18709 0.56126,-0.18709"
       id="path10298"
       inkscape:connector-curvature="0" />
    <path
       style="fill:none;fill-opacity:1;stroke:#0e0a08;stroke-width:3;stroke-miterlimit:4;stroke-dasharray:none;stroke-opacity:1"
       d="m 21.910934,137.25839 c 0.43654,0 0.87461,-0.0363 1.30964,0 0.63378,0.0528 1.23708,0.32136 1.87087,0.37417 0.87008,0.0725 1.74617,0 2.61924,0 0.93546,0 1.87272,0.0583 2.80633,0 1.50548,-0.0941 2.98212,-0.47256 4.49014,-0.56126 0.49805,-0.0293 0.9989,0.0332 1.49672,0 0.94162,-0.0628 1.86499,-0.30694 2.80633,-0.37418 0.74644,-0.0533 1.49928,0.0622 2.24504,0 0.37804,-0.0315 0.74509,-0.14934 1.12255,-0.18709 0.49641,-0.0496 0.99779,0 1.49669,0 0.68601,0 1.372,0 2.05798,0"
       id="path10300"
       inkscape:connector-curvature="0" />
    <path
       style="fill:none;fill-opacity:1;stroke:#0e0a08;stroke-width:3;stroke-miterlimit:4;stroke-dasharray:none;stroke-opacity:1"
       d="m 27.710684,145.67737 c 0.43653,0 0.8746,-0.0362 1.30963,0 0.31689,0.0264 0.61939,0.15198 0.93544,0.18709 0.55784,0.062 1.12485,-0.0508 1.68381,0 0.37777,0.0343 0.74448,0.15559 1.12252,0.18709 0.37287,0.0311 0.74834,0 1.12254,0 0.81071,0 1.62142,0 2.43213,0 1.8709,0 3.74179,0 5.61266,0"
       id="path10302"
       inkscape:connector-curvature="0" />
    <path
       style="fill:none;fill-opacity:1;stroke:#0e0a08;stroke-width:3;stroke-miterlimit:4;stroke-dasharray:none;stroke-opacity:1"
       d="m 27.523594,154.09637 c 0.74316,0.10424 1.50043,-0.0745 2.24507,0 0.31642,0.0316 0.61875,0.1583 0.93543,0.18709 0.37264,0.0339 0.74967,-0.0311 1.12255,0 0.37801,0.0315 0.74451,0.15558 1.12252,0.18708 0.37291,0.0311 0.74965,-0.0311 1.12255,0 0.37801,0.0315 0.74835,0.12473 1.12252,0.18709 0.43654,0.0624 0.86995,0.15327 1.30964,0.18709 0.37306,0.0287 0.74964,-0.0311 1.12252,0 0.37803,0.0315 0.7443,0.15799 1.12252,0.18709 0.80833,0.0622 1.62478,-0.0734 2.43216,0 0.31667,0.0288 0.61904,0.15545 0.93546,0.18709 0.49641,0.0496 1.00457,-0.082 1.49669,0 0.19452,0.0324 0.36674,0.15467 0.56126,0.18709 0.30758,0.0513 0.62365,0 0.93546,0"
       id="path10304"
       inkscape:connector-curvature="0" />
    <path
       style="fill:none;fill-opacity:1;stroke:#0e0a08;stroke-width:3;stroke-miterlimit:4;stroke-dasharray:none;stroke-opacity:1"
       d="m 27.336504,162.51535 c 2.74397,0 5.48794,0 8.23191,0 0.68598,0 1.37538,-0.0683 2.05798,0 0.31641,0.0316 0.61939,0.15198 0.93543,0.18709 0.43387,0.0482 0.8731,0 1.30964,0"
       id="path10306"
       inkscape:connector-curvature="0" />
    <path
       style="fill:none;fill-opacity:1;stroke:#0e0a08;stroke-width:3;stroke-miterlimit:4;stroke-dasharray:none;stroke-opacity:1"
       d="m 33.884624,172.61814 c 3.05819,0 -0.14869,-0.11832 1.68379,0.18709 0.30757,0.0513 0.62968,-0.0611 0.93546,0 0.19335,0.0387 0.36674,0.15467 0.56126,0.18709 0.36906,0.0615 0.7521,-0.0529 1.12252,0 0.25455,0.0364 0.49472,0.14482 0.74835,0.18709 0.12303,0.0205 0.25188,-0.0245 0.3742,0 0.19335,0.0387 0.36674,0.15467 0.56126,0.18709 0.30755,0.0513 0.63293,-0.0756 0.93543,0 0.13528,0.0338 0.24188,0.14299 0.37418,0.18709 0.14298,0.0477 0.40949,0 0.56126,0"
       id="path10308"
       inkscape:connector-curvature="0" />
    <path
       style="fill:none;fill-opacity:1;stroke:#0e0a08;stroke-width:3;stroke-miterlimit:4;stroke-dasharray:none;stroke-opacity:1"
       d="m 35.755494,182.15967 c 0.37418,0 0.74838,0 1.12255,0 0.24945,0 0.50083,-0.0309 0.74835,0 0.76007,0.095 1.48661,0.45291 2.24507,0.56126 0.18521,0.0265 0.37671,-0.0308 0.56126,0 0.38904,0.0648 0.73578,0.29683 1.12252,0.37418 1.41949,0.28389 -0.39079,-0.28894 0.56129,0.18709 0.11154,0.0558 0.28596,-0.0882 0.37417,0 0.0441,0.0441 0,0.12472 0,0.18709"
       id="path10310"
       inkscape:connector-curvature="0" />
    <path
       style="fill:none;fill-opacity:1;stroke:#0e0a08;stroke-width:3;stroke-miterlimit:4;stroke-dasharray:none;stroke-opacity:1"
       d="m 35.942584,188.1465 c 1.18491,0 2.36979,0 3.5547,0 0.18709,0 0.37606,-0.0265 0.56126,0 0.25453,0.0364 0.4938,0.15073 0.74835,0.18709 0.18521,0.0265 0.37783,-0.0367 0.56126,0 0.13674,0.0273 0.23744,0.15974 0.37418,0.18709 0.39486,0.079 0.8972,0 1.30963,0"
       id="path10312"
       inkscape:connector-curvature="0" />
    <path
       style="fill:none;fill-opacity:1;stroke:#0e0a08;stroke-width:3;stroke-miterlimit:4;stroke-dasharray:none;stroke-opacity:1"
       d="m 37.065134,194.8817 c 0.37417,0.0624 0.76266,0.0671 1.12252,0.18708 0.21331,0.0711 0.35459,0.28561 0.56126,0.37418 0.4173,0.17884 0.8881,0.20556 1.30963,0.37418 0.4989,0.19956 0.31494,0.25008 0.93544,0.37418 0.12232,0.0244 0.25585,-0.0395 0.37417,0 0.82585,0.27528 -0.67971,0.18708 0.56126,0.18708"
       id="path10314"
       inkscape:connector-curvature="0" />
    <path
       style="fill:none;fill-opacity:1;stroke:#0e0a08;stroke-width:3;stroke-miterlimit:4;stroke-dasharray:none;stroke-opacity:1"
       d="m 57.457784,186.64979 c 0.24945,-0.0624 0.49321,-0.15519 0.74835,-0.18709 0.24754,-0.0309 0.50014,0.0248 0.74837,0 0.37746,-0.0377 0.74449,-0.15558 1.12252,-0.18708 0.68363,-0.057 1.372,0 2.05799,0 0.37417,0 0.74988,-0.0339 1.12252,0 0.31668,0.0288 0.61904,0.15544 0.93546,0.18708 0.31025,0.031 0.63103,-0.0676 0.93543,0 0.27226,0.0605 0.4935,0.26091 0.74835,0.37418 0.30689,0.1364 0.61685,0.26798 0.93543,0.37418 0.24395,0.0813 0.50761,0.0968 0.74838,0.18709 0.26114,0.0979 0.4872,0.27625 0.74835,0.37418 1.10593,0.41473 2.39093,0.4573 3.55467,0.37417 1.06712,-0.0762 2.14958,-0.28635 3.18051,-0.56126 0.3811,-0.10163 0.73824,-0.28549 1.12254,-0.37418 0.42969,-0.0992 0.87845,-0.0947 1.30961,-0.18709 0.44395,-0.0951 0.86569,-0.27905 1.30964,-0.37418 1.12,-0.24 1.34382,-0.18709 2.43215,-0.18709 0.31181,0 0.62553,-0.0344 0.93544,0 0.65556,0.0728 1.35652,0.33686 1.87089,0.74836 0.13774,0.11019 0.23643,0.26399 0.37418,0.37418 0.17557,0.14046 0.38568,0.23371 0.56126,0.37418 0.27548,0.22037 0.44585,0.56685 0.74834,0.74835 0.16913,0.10146 0.37817,0.11385 0.56129,0.18709 0.4014,0.16056 0.45284,0.30523 0.93544,0.37417 0.24693,0.0353 0.49889,0 0.74834,0 0.99783,0 1.99562,0 2.99342,0 1.12255,0 2.24507,0 3.36759,0 0.31184,0 0.62518,0.031 0.93546,0 0.31642,-0.0316 0.62362,-0.12472 0.93543,-0.18708 0.643,-0.1286 1.06731,-0.19804 1.68381,-0.37418 0.86188,-0.24625 0.24726,-0.18709 1.12252,-0.18709"
       id="path10316"
       inkscape:connector-curvature="0" />
    <path
       style="fill:none;fill-opacity:1;stroke:#0e0a08;stroke-width:3;stroke-miterlimit:4;stroke-dasharray:none;stroke-opacity:1"
       d="m 60.077024,193.38499 c 0.4989,-0.0624 1.0068,-0.074 1.49673,-0.18709 0.32721,-0.0755 0.61142,-0.28582 0.93543,-0.37418 0.28554,-0.0779 2.22562,-0.34467 2.43216,-0.37418 0.87307,-0.12472 1.73953,-0.31134 2.61924,-0.37417 0.43542,-0.0311 0.87307,0 1.30961,0 1.18491,0 2.36979,0 3.5547,0 0.74835,0 1.49929,-0.0621 2.24504,0 0.37804,0.0315 0.74838,0.12472 1.12255,0.18708 0.26646,0.0444 1.73112,0.27613 2.05796,0.37418 0.32168,0.0965 0.61378,0.27768 0.93546,0.37418 0.30456,0.0914 0.63087,0.0957 0.93543,0.18709 0.32168,0.0965 0.61378,0.27767 0.93546,0.37417 0.30456,0.0914 0.63376,0.0865 0.93544,0.18709 0.52916,0.17639 0.97443,0.5525 1.49669,0.74836 0.37788,0.1417 1.84722,0.51153 2.24507,0.56126 0.24752,0.0309 0.50083,-0.0309 0.74835,0 0.25516,0.0319 0.49281,0.1587 0.74837,0.18709 0.30991,0.0344 0.62362,0 0.93544,0 0.87307,0 1.74617,0 2.61924,0 0.56126,0 1.12252,0 1.68381,0 0.18708,0 0.37671,0.0308 0.56126,0 0.19452,-0.0324 0.36674,-0.15467 0.56126,-0.18709 0.30758,-0.0513 0.62362,0 0.93543,0"
       id="path10318"
       inkscape:connector-curvature="0" />
    <path
       style="fill:none;fill-opacity:1;stroke:#0e0a08;stroke-width:3;stroke-miterlimit:4;stroke-dasharray:none;stroke-opacity:1"
       d="m 61.012464,203.30068 c 0.31184,-0.0624 0.63087,-0.0957 0.93546,-0.18708 0.32165,-0.0965 0.61682,-0.26798 0.93543,-0.37418 0.43072,-0.14357 0.8757,-0.24066 1.30964,-0.37418 0.37695,-0.11599 0.74141,-0.27255 1.12252,-0.37417 1.85065,-0.49351 3.15801,-0.56127 5.0514,-0.56127 0.43653,0 0.87691,-0.0577 1.30961,0 0.50974,0.068 0.99388,0.26642 1.49672,0.37418 0.37092,0.0795 0.76266,0.0671 1.12252,0.18709 0.39687,0.13229 0.73636,0.40036 1.12255,0.56126 0.36406,0.1517 0.76345,0.21097 1.12252,0.37418 0.66209,0.30094 1.23243,0.77427 1.87089,1.12253 1.17182,0.63917 1.00367,0.41967 2.05796,1.12253 0.25945,0.17297 0.48892,0.3883 0.74837,0.56127 1.05349,0.70233 0.70308,0.4005 1.68378,0.93544 0.44141,0.24076 0.85191,0.5403 1.30964,0.74836 0.23408,0.1064 0.4989,0.12472 0.74835,0.18708 0.24945,0.0624 0.49321,0.1552 0.74834,0.18709 0.24755,0.0309 0.49893,0 0.74838,0 0.62362,0 1.24724,0 1.87087,0"
       id="path10320"
       inkscape:connector-curvature="0" />
    <path
       style="fill:none;fill-opacity:1;stroke:#0e0a08;stroke-width:3;stroke-miterlimit:4;stroke-dasharray:none;stroke-opacity:1"
       d="m 230.49324,104.67286 c 1.09421,7.65949 -0.14699,-1.91088 0.37418,4.86431 0.0676,0.87934 0.30653,1.73989 0.37417,2.61924 0.0574,0.74615 -0.0622,1.49929 0,2.24506 0.063,0.75606 0.31599,1.48862 0.37418,2.24507 0.067,0.87051 0,1.74616 0,2.61924 0,1.62143 0,3.24287 0,4.8643 0,3.74178 0,7.48355 0,11.22532 0,2.24507 0,4.49013 0,6.7352 0,0.14916 -0.10877,3.52424 0,3.74177 0.31735,0.6347 0.5276,0.25519 1.12253,0.37417 0.38676,0.0774 0.73208,0.3184 1.12253,0.37418 0.49389,0.0706 0.99781,0 1.49671,0 1.24726,0 2.49964,-0.11292 3.74178,0 1.51112,0.13738 2.97801,0.62235 4.49012,0.74836 0.74577,0.0621 1.49892,-0.0574 2.24507,0 0.87935,0.0676 1.74616,0.24945 2.61924,0.37418 2.49691,0.3567 4.9907,0.73901 7.48355,1.12253 0.74985,0.11536 1.489,0.31117 2.24506,0.37417 0.74577,0.0622 1.49978,-0.0678 2.24506,0 0.63337,0.0576 1.23807,0.3109 1.87089,0.37418 1.31982,0.13198 2.77984,0 4.11596,0 0.49173,0 1.82282,0.14074 2.24505,0 0.16734,-0.0558 0.21642,-0.29529 0.3742,-0.37418 0.11154,-0.0558 0.28596,0.0882 0.37417,0 0.0882,-0.0882 0,-0.24945 0,-0.37417 0,-0.37418 -0.0615,-0.75345 0,-1.12253 0.0648,-0.38906 0.32525,-0.73116 0.37417,-1.12254 0.15471,-1.23762 0,-2.49451 0,-3.74177 0,-3.3676 0,-6.73519 0,-10.10279 0,-3.24287 0,-6.48574 0,-9.72861 0,-1.74616 -0.13393,-3.49746 0,-5.23848 0.0582,-0.75644 0.30549,-1.4895 0.37418,-2.24507 0.13115,-1.44281 0,-3.03581 0,-4.49012 0,-0.57187 0.143,-2.0472 0,-2.61925 -0.0677,-0.27056 -0.28599,-0.48377 -0.37418,-0.74835 -0.0789,-0.23665 0.11155,-0.52524 0,-0.74835 -1.241,-1.241 0.17637,0.35277 -0.37417,-0.74836 -0.0789,-0.15777 -0.2953,-0.21641 -0.37417,-0.37418 -0.0558,-0.11155 0.0882,-0.28598 0,-0.37417 -0.11708,-0.11706 -2.80483,-1.45899 -2.99345,-1.49671 -0.71374,-0.14275 -2.56438,0 -3.36758,0 -1.27041,0 -3.28662,-0.15044 -4.49013,0 -0.51029,0.0638 -0.98762,0.30145 -1.49671,0.37418 -0.8643,0.12347 -1.74616,0 -2.61924,0 -0.99781,0 -2.00332,0.12376 -2.99342,0 -0.51029,-0.0638 -0.98642,-0.3104 -1.49671,-0.37418 -0.86634,-0.10829 -1.75493,0.12347 -2.61924,0 -0.50909,-0.0727 -0.98762,-0.30145 -1.49671,-0.37418 -0.74083,-0.10583 -1.50689,0.12303 -2.24506,0 -0.38905,-0.0648 -0.73208,-0.3184 -1.12254,-0.37418 -3.23685,0 0.0405,0.15777 -2.61924,-0.37418 -0.61151,-0.1223 -1.25937,0.12231 -1.87088,0 -0.27348,-0.0547 -0.47779,-0.30653 -0.74836,-0.37417 -0.363,-0.0907 -0.74835,0 -1.12253,0 -0.87308,0 -1.74616,0 -2.61924,0 -0.15407,0 -1.02349,-0.0991 -1.12253,0 0,0.55056 0.0882,0.28598 -0.37418,0.74835"
       id="path10322"
       inkscape:connector-curvature="0" />
    <path
       style="fill:none;fill-opacity:1;stroke:#0e0a08;stroke-width:3;stroke-miterlimit:4;stroke-dasharray:none;stroke-opacity:1"
       d="m 276.51704,103.17615 c 0.24157,1.11652 -0.6029,1.97524 -0.74834,2.99342 -0.19212,1.34472 0.16851,2.76783 0,4.11595 -0.0638,0.51029 -0.31039,0.98643 -0.37418,1.49671 -0.13925,1.11387 0.11168,2.25064 0,3.3676 -0.0633,0.63282 -0.3166,1.23752 -0.37417,1.87088 -0.12422,1.36635 0,2.74397 0,4.11596 0,0.74835 -0.0678,1.49978 0,2.24506 0.0576,0.63337 0.31088,1.23806 0.37417,1.87089 0.13653,1.36517 -0.12422,2.7496 0,4.11594 0.0576,0.63337 0.31089,1.23807 0.37418,1.87089 0.062,0.62054 0,1.24726 0,1.87089 0,1.87089 0,3.74177 0,5.61266 0,0.4989 -0.0551,1.00086 0,1.49671 0.0702,0.63209 0.2953,1.23982 0.37417,1.87089 0.10829,0.86633 -0.10829,1.7529 0,2.61924 0.0638,0.51028 0.30144,0.98762 0.37417,1.4967 0.0529,0.37042 -0.0615,0.75345 0,1.12254 0.1297,0.7781 0.59365,1.47155 0.74835,2.24506 0.0734,0.36691 -0.16732,0.78786 0,1.12253 0.0789,0.15777 0.2953,0.21642 0.3742,0.37418 0.11155,0.22312 -0.1764,0.57197 0,0.74836 0.0882,0.0882 0.24945,0 0.37418,0 0.62362,0 1.26587,0.15125 1.87086,0 0.27059,-0.0676 0.47488,-0.31949 0.74838,-0.37418 0.3669,-0.0734 0.7521,0.0529 1.12252,0 1.90984,-0.27284 3.68935,-1.2563 5.61266,-1.49671 0.49506,-0.0619 1.00166,0.0619 1.49672,0 0.51027,-0.0638 0.9856,-0.31739 1.49669,-0.37418 1.11567,-0.12396 2.24507,0 3.36759,0 1.62145,0 3.2429,0 4.86432,0 3.45215,0 -0.47284,-0.121 2.99341,0.37418 0.74084,0.10583 1.49672,0 2.24507,0 1.372,0 2.74397,0 4.11597,0 0.41121,0 1.95402,0.14551 2.24504,0 0.15777,-0.0789 0.27636,-0.22741 0.3742,-0.37418 0.5016,-0.75241 0.37417,-1.39057 0.37417,-2.24506 0,-1.74616 0,-3.49232 0,-5.23848 0,-2.12034 0,-4.24068 0,-6.36102 0,-0.74835 -0.0622,-1.49929 0,-2.24506 0.13624,-1.63485 0.51634,-3.24028 0.74835,-4.86431 0.48146,-3.37029 0.22918,-1.7493 0.74835,-4.8643 0.12472,-0.74836 0.30549,-1.48951 0.37417,-2.24507 0.0565,-0.62106 -0.0565,-1.24982 0,-1.87089 0.0687,-0.75556 0.31118,-1.489 0.3742,-2.24506 0.0621,-0.74577 -0.0745,-1.50042 0,-2.24506 0.0512,-0.51171 0.31038,-0.98642 0.37417,-1.49671 0.13923,-1.11386 0,-2.24507 0,-3.3676 0,-1.37198 0,-2.74397 0,-4.11595 0,-0.9978 0,-1.99561 0,-2.99342 0,-0.4989 0.121,-1.0127 0,-1.49671 -0.0677,-0.27057 -0.28598,-0.48377 -0.37417,-0.74835 -0.0394,-0.11833 0.0882,-0.28599 0,-0.37418 -0.0882,-0.0882 -0.25585,0.0394 -0.3742,0 -0.26458,-0.0882 -0.47778,-0.30653 -0.74835,-0.37418 -0.65066,-0.16266 -2.94952,0 -3.74176,0 -2.28894,0 1.30053,0.0789 -1.8709,-0.374174 -0.49389,-0.07055 -0.99779,0 -1.49669,0 -0.3742,0 -0.75345,-0.06151 -1.12255,0 -0.38904,0.06484 -0.73348,0.309334 -1.12252,0.374174 -1.21356,0.20226 -2.52823,-0.202253 -3.74179,0 -0.38904,0.0648 -0.73348,0.30934 -1.12252,0.37418 -0.73816,0.12303 -1.50688,-0.12303 -2.24507,0 -0.38904,0.0648 -0.73348,0.30934 -1.12252,0.37418 -0.61516,0.10252 -1.25937,-0.12231 -1.8709,0 -0.77351,0.1547 -1.46695,0.61867 -2.24507,0.74835 -0.36906,0.0615 -0.74834,0 -1.12252,0 -0.37417,0.12473 -0.73578,0.29683 -1.12254,0.37418 -0.73356,0.14671 -1.84529,0 -2.61925,0 -0.71678,0 -2.82376,-0.13595 -3.36759,0 -0.27056,0.0676 -0.47778,0.30654 -0.74834,0.37418 -0.68313,0.17078 -2.84372,-0.20956 -3.36759,0 -0.5179,0.20716 -0.99783,0.4989 -1.49673,0.74835 z"
       id="path10328"
       inkscape:connector-curvature="0" />
    <path
       style="fill:none;fill-opacity:1;stroke:#0e0a08;stroke-width:3;stroke-miterlimit:4;stroke-dasharray:none;stroke-opacity:1"
       d="m 231.24583,155.9771 c -0.0882,0.52916 -0.21601,1.05323 -0.26458,1.5875 -0.0399,0.43916 0.0439,0.88413 0,1.32291 -0.45635,4.5635 -0.10466,-2.76812 -0.52917,3.175 -0.044,0.61579 0.044,1.2363 0,1.85209 -0.0444,0.62204 -0.17639,1.23472 -0.26458,1.85208 -0.0882,0.70556 -0.21729,1.40719 -0.26459,2.11667 -0.088,1.31998 0.0825,2.64841 0,3.96875 -0.0444,0.70966 -0.21728,1.40719 -0.26458,2.11666 -0.088,1.31999 0.0825,2.64841 0,3.96875 -0.0444,0.70967 -0.21729,1.4072 -0.26458,2.11667 -0.0411,0.61599 0,1.23472 0,1.85208 0,1.6757 0,3.35139 0,5.02709 0,3.96875 0,7.9375 0,11.90625 0,0.43474 -0.0945,2.89161 0,3.175 0.0624,0.18709 0.20222,0.34207 0.26458,0.52916 0.1298,0.3894 -0.23692,0.80758 0.26458,1.05834 0.24848,0.12424 0.66268,-0.23837 0.79375,-0.26459 0.25945,-0.0519 0.53431,0.0519 0.79375,0 0.19338,-0.0387 0.35278,-0.17639 0.52917,-0.26458 0.35278,-0.0882 0.69835,-0.21316 1.05833,-0.26458 0.26193,-0.0374 0.53121,0.0328 0.79375,0 4.07182,-0.81437 -1.01183,0.11242 2.38125,-0.26459 0.44696,-0.0497 0.87545,-0.21983 1.32292,-0.26458 0.43879,-0.0439 0.88194,0 1.32292,0 1.05833,0 2.11978,-0.0812 3.175,0 0.62179,0.0478 1.23029,0.21675 1.85208,0.26458 0.52761,0.0406 1.06051,-0.0479 1.5875,0 0.44786,0.0407 0.87506,0.22387 1.32292,0.26459 0.96615,0.0878 1.94426,-0.0878 2.91041,0 0.53427,0.0486 1.05969,0.16861 1.5875,0.26458 3.94146,0.71663 -1.59744,-0.14522 2.91042,0.26458 0.89572,0.0814 1.75089,0.43967 2.64583,0.52917 0.43879,0.0439 0.88465,-0.0487 1.32292,0 0.72282,0.0803 1.39501,0.43896 2.11667,0.52917 0.61259,0.0766 1.24312,-0.1015 1.85208,0 0.2751,0.0459 0.52027,0.20988 0.79375,0.26458 0.43241,0.0865 0.88194,0 1.32292,0 0.61735,0 1.23473,0 1.85208,0 0.19153,0 1.42544,0.081 1.5875,0 0.11155,-0.0558 0.15303,-0.2088 0.26458,-0.26458 0.0789,-0.0394 0.20222,0.0624 0.26459,0 0.0624,-0.0624 -0.0624,-0.20223 0,-0.26459 0.0624,-0.0624 0.20222,0.0624 0.26458,0 0.0624,-0.0624 0,-0.17639 0,-0.26458 0,-0.17639 0,-0.35278 0,-0.52917 0,-0.35277 -0.0389,-0.70771 0,-1.05833 0.15822,-1.42408 0.67424,-2.79916 0.79375,-4.23333 0.0439,-0.52734 -0.0439,-1.06017 0,-1.5875 0.0963,-1.15601 0.38529,-2.28853 0.52917,-3.43959 0.31001,-2.48003 0.24333,-2.45461 0.52916,-5.02708 0.0785,-0.7067 0.21728,-1.40719 0.26459,-2.11667 0.0411,-0.61599 -0.0411,-1.23609 0,-1.85208 0.14155,-2.12318 0.68191,-4.22527 0.79375,-6.35 0.051,-0.9688 -0.051,-1.94162 0,-2.91042 0.0374,-0.71006 0.21727,-1.40719 0.26458,-2.11666 0.088,-1.31999 0,-2.64584 0,-3.96875 0,-1.76389 0,-3.52778 0,-5.29167 0,-3.771 -0.10377,0.40484 0.26458,-2.91042 0.0682,-0.61358 0,-1.23472 0,-1.85208 0,-0.29602 0.0992,-1.55434 0,-1.85208 -0.0395,-0.11833 -0.20881,-0.15303 -0.26458,-0.26459 -0.23418,-0.46837 0.39354,-0.0904 -0.26458,-0.52916 -0.1641,-0.1094 -0.33785,-0.21676 -0.52917,-0.26459 -0.24696,-0.0617 -2.47594,-0.0283 -2.64583,0 -0.27512,0.0459 -0.51766,0.22515 -0.79375,0.26459 -0.69848,0.0998 -1.41542,-0.0779 -2.11667,0 -0.44696,0.0497 -0.87596,0.21492 -1.32292,0.26458 -0.78889,0.0876 -1.59144,-0.079 -2.38125,0 -0.44747,0.0447 -0.87668,0.2088 -1.32291,0.26458 -0.6126,0.0766 -1.23473,0 -1.85209,0 -0.70555,0 -1.41656,0.0875 -2.11666,0 -0.36083,-0.0451 -0.69693,-0.22442 -1.05834,-0.26458 -0.78889,-0.0876 -1.59363,0.0984 -2.38125,0 -0.36082,-0.0451 -0.6975,-0.21948 -1.05833,-0.26458 -0.35005,-0.0438 -0.70556,0 -1.05833,0 -1.14653,0 -2.29306,0 -3.43959,0 -0.79375,0 -1.59363,0.0984 -2.38125,0 -0.36082,-0.0451 -0.69835,-0.21316 -1.05833,-0.26459 -0.77434,-0.11062 -1.86244,0 -2.64583,0 -0.52917,0 -1.06554,-0.087 -1.5875,0 -0.2751,0.0459 -0.52027,0.20989 -0.79375,0.26459 -0.76472,0.15294 -1.61124,-0.12834 -2.38125,0 -0.35869,0.0598 -0.69965,0.2048 -1.05834,0.26458 -0.37125,0.0619 -0.94629,0 -1.32291,0 -0.58597,0 -1.27855,0.0956 -1.85209,0 -0.35868,-0.0598 -0.70555,-0.17639 -1.05833,-0.26458 z"
       id="path10330"
       inkscape:connector-curvature="0" />
    <path
       style="fill:none;fill-opacity:1;stroke:#0e0a08;stroke-width:3;stroke-miterlimit:4;stroke-dasharray:none;stroke-opacity:1"
       d="m 277.28333,159.41668 c 0,2.38125 0,4.7625 0,7.14375 0,0.61736 -0.0411,1.23609 0,1.85208 0.0946,1.41894 0.44045,2.81401 0.52917,4.23334 0.044,0.70418 0,1.41111 0,2.11666 0,1.41111 0,2.82223 0,4.23334 0,0.70555 -0.0469,1.41267 0,2.11666 0.0415,0.62225 0.22016,1.23004 0.26458,1.85209 0.088,1.23158 -0.0947,2.47308 0,3.70416 0.0411,0.53489 0.21601,1.05324 0.26458,1.5875 0.10988,1.20882 0,2.73343 0,3.96875 0,0.79375 0.0877,1.59236 0,2.38125 -0.0497,0.44696 -0.21492,0.87596 -0.26458,1.32292 -0.0389,0.35062 0.0438,0.70828 0,1.05833 -0.0451,0.36083 -0.21315,0.69835 -0.26458,1.05834 -0.15433,1.08038 0.20579,0.61736 0,1.85208 -0.0324,0.19452 -0.2259,0.33579 -0.26459,0.52917 -0.0642,0.32084 -0.0682,3.36316 0,3.70416 0.0547,0.27348 0.2099,0.52027 0.26459,0.79375 0.11252,0.5627 0,1.75147 0,2.38125 0,0.17639 0,0.35278 0,0.52917 0,0.0882 -0.0624,0.20222 0,0.26458 0.0624,0.0624 0.17639,0 0.26458,0 0.0882,0 0.18571,0.0394 0.26458,0 0.11155,-0.0558 0.15304,-0.2088 0.26459,-0.26458 0.0789,-0.0394 0.17639,0 0.26458,0 0.26458,-0.0882 0.55459,-0.12109 0.79375,-0.26458 0.21392,-0.12835 0.31525,-0.40083 0.52917,-0.52917 0.23915,-0.14349 0.5443,-0.13986 0.79375,-0.26458 1.63457,-0.81729 -0.13028,-0.35323 1.85208,-0.79375 0.87799,-0.19511 1.75088,-0.43968 2.64583,-0.52917 0.43879,-0.0439 0.88194,0 1.32292,0 1.49931,0 2.9986,0 4.49792,0 1.67568,0 3.35139,0 5.02708,0 0.52917,0 1.06016,-0.0439 1.5875,0 0.53462,0.0445 1.05323,0.21601 1.5875,0.26458 0.43915,0.0399 0.88413,-0.0439 1.32292,0 0.44746,0.0447 0.87545,0.21984 1.32291,0.26459 0.43879,0.0439 0.88413,-0.0439 1.32292,0 0.44746,0.0447 0.87545,0.21983 1.32292,0.26458 0.7898,0.079 1.5875,0 2.38125,0 1.14652,0 2.29306,0 3.43958,0 0.12959,0 2.61559,0.0302 2.64583,0 0.0212,-0.0213 0,-2.83575 0,-2.91042 0,-1.39151 0.1066,-2.84762 0,-4.23333 -0.35189,-4.57459 -0.26458,0.86167 -0.26458,-3.70417 0,-1.85208 -0.0925,-3.70647 0,-5.55625 0.0355,-0.71016 0.21728,-1.40719 0.26458,-2.11666 0.0821,-1.23199 0,-2.46945 0,-3.70417 0,-2.19284 -0.1094,-4.42626 0,-6.61458 0.0443,-0.88524 0.21254,-1.76102 0.26459,-2.64584 0.0777,-1.32063 0,-2.64583 0,-3.96875 0,-0.70555 0.0469,-1.41267 0,-2.11666 -0.3519,-5.27837 -0.26459,1.55838 -0.26459,-3.70417 0,-1.41111 0,-2.82222 0,-4.23333 0,-0.54112 0.10271,-2.13223 0,-2.64584 -0.0387,-0.19338 -0.20222,-0.34207 -0.26458,-0.52916 -0.0558,-0.16734 0.12472,-0.40445 0,-0.52917 -0.0624,-0.0624 -0.20222,0.0624 -0.26458,0 -0.0624,-0.0624 0.0624,-0.20222 0,-0.26458 -0.12232,-0.12231 -0.634,0.0799 -0.79375,0 -0.11155,-0.0558 -0.15304,-0.20881 -0.26459,-0.26459 -0.083,-0.0415 -1.23486,-0.022 -1.32291,0 -0.19132,0.0478 -0.35277,0.17639 -0.52917,0.26459 -0.26458,0.0882 -0.52028,0.20989 -0.79375,0.26458 -0.17296,0.0346 -0.35518,-0.029 -0.52917,0 -1.97252,0.32876 -0.21629,0.26458 -1.85208,0.26458 -2.78072,0 0.68448,-0.0856 -2.11667,0.26459 -0.70011,0.0875 -1.4111,0 -2.11666,0 -1.14652,0 -2.29307,0 -3.43959,0 -0.58467,0 -1.58858,0.10561 -2.11666,0 -0.19339,-0.0387 -0.33579,-0.22591 -0.52917,-0.26459 -0.25945,-0.0519 -0.53277,0.0435 -0.79375,0 -0.27511,-0.0458 -0.51864,-0.21873 -0.79375,-0.26458 -0.43498,-0.0725 -0.89051,0.0865 -1.32292,0 -0.27347,-0.0547 -0.51863,-0.21873 -0.79375,-0.26458 -0.77229,-0.12872 -1.60895,0.12871 -2.38125,0 -0.27511,-0.0459 -0.51863,-0.21874 -0.79375,-0.26459 -0.41669,-0.0694 -2.28129,-0.0521 -2.64583,0 -0.27609,0.0394 -0.52028,0.20989 -0.79375,0.26459 -0.48646,0.0973 -1.11866,-0.15629 -1.5875,0 -0.11832,0.0394 -0.15304,0.2088 -0.26458,0.26458 -0.28432,0.14216 -0.75221,-0.10204 -1.05834,0 -0.18708,0.0624 -0.33784,0.21675 -0.52916,0.26458 -0.25668,0.0642 -0.55711,-0.11832 -0.79375,0 -0.11155,0.0558 -0.14627,0.22515 -0.26459,0.26459 -0.27329,0.0911 -1.95953,0 -2.38125,0 -0.17639,0 -0.40444,-0.12473 -0.52916,0 -0.0624,0.0624 0.0624,0.20222 0,0.26458 -0.12473,0.12472 -0.40445,-0.12472 -0.52917,0 -0.0624,0.0624 0.0624,0.20222 0,0.26458 -0.12472,0.12473 -0.3714,-0.0789 -0.52917,0 -0.11155,0.0558 -0.15303,0.20881 -0.26458,0.26459 -0.5584,0.2792 -0.57378,-1.23677 0,1.05833 z"
       id="path10332"
       inkscape:connector-curvature="0" />
    <path
       style="fill:none;fill-opacity:1;stroke:#0e0a08;stroke-width:3;stroke-miterlimit:4;stroke-dasharray:none;stroke-opacity:1"
       d="m 160.60208,155.18335 c -0.24673,0.58855 0.4052,1.09162 0.52917,1.5875 0.0428,0.17112 -0.0558,0.36182 0,0.52916 0.0394,0.11833 0.17639,0.17639 0.26458,0.26459 0.0882,0.17639 0.21675,0.33784 0.26458,0.52916 0.0428,0.17113 -0.0978,0.38241 0,0.52917 0.1094,0.16409 0.35278,0.17639 0.52917,0.26458 0.17639,0.0882 0.35278,0.17639 0.52917,0.26459 0.43349,0.21675 1.13543,0.68073 1.5875,0.79375 0.4278,0.10695 0.89051,-0.0865 1.32291,0 0.19338,0.0387 0.33579,0.2259 0.52917,0.26458 0.27909,0.0558 1.79853,0.0636 2.11667,0 0.27348,-0.0547 0.52027,-0.20989 0.79375,-0.26458 0.34592,-0.0692 0.71609,0.0856 1.05833,0 0.19132,-0.0478 0.35278,-0.17639 0.52917,-0.26459 0.17639,-0.0882 0.36508,-0.15519 0.52916,-0.26458 0.10378,-0.0692 0.16081,-0.1954 0.26459,-0.26458 0.54362,-0.36242 1.20045,-0.47776 1.5875,-1.05834 0.89108,-1.33662 0.002,-0.006 0.26458,-0.79375 0.3555,-1.0665 0.3555,-0.25642 0,-1.32291 -0.0279,-0.0837 0.0279,-0.18092 0,-0.26459 -0.16018,-0.48054 -0.22644,-0.49102 -0.52917,-0.79375 -0.17639,-0.17639 -0.29251,-0.45028 -0.52916,-0.52916 -0.16734,-0.0558 -0.36183,0.0558 -0.52917,0 -0.11832,-0.0394 -0.17639,-0.17639 -0.26458,-0.26459 -0.17639,-0.0882 -0.33785,-0.21675 -0.52917,-0.26458 -0.31,-0.0775 -1.00284,0 -1.32292,0 -0.79375,0 -1.5875,0 -2.38125,0 -1.14652,0 -2.29305,0 -3.43958,0 -0.29797,0 -1.59957,-0.0842 -1.85208,0 -0.11833,0.0394 -0.14626,0.22514 -0.26459,0.26458 -0.251,0.0837 -0.52916,0 -0.79375,0"
       id="path10334"
       inkscape:connector-curvature="0" />
    <path
       style="fill:none;fill-opacity:1;stroke:#0e0a08;stroke-width:3;stroke-miterlimit:4;stroke-dasharray:none;stroke-opacity:1"
       d="m 178.85833,152.8021 c -2.76459,0 0.40477,-0.11156 -1.85208,0.26458 -0.26098,0.0435 -0.53277,-0.0435 -0.79375,0 -0.2751,0.0459 -0.51865,0.21873 -0.79375,0.26458 -0.26098,0.0435 -0.53431,-0.0519 -0.79375,0 -0.19338,0.0387 -0.33785,0.21676 -0.52917,0.26459 -0.78236,0.19559 -0.30881,-0.29756 -1.05833,0.26458 -0.19956,0.14967 -0.32961,0.37949 -0.52917,0.52917 -0.15776,0.11832 -0.36006,0.16312 -0.52917,0.26458 -0.47337,0.28402 -0.98304,0.60517 -1.32291,1.05833 -0.11833,0.15777 -0.14626,0.3714 -0.26459,0.52917 -0.2245,0.29934 -0.58619,0.48241 -0.79375,0.79375 -0.21878,0.32818 -0.31038,0.73016 -0.52916,1.05833 -0.0692,0.10378 -0.22514,0.14626 -0.26459,0.26459 -0.0558,0.16733 0.0428,0.35804 0,0.52916 -0.0478,0.19132 -0.20222,0.34208 -0.26458,0.52917 -0.0674,0.20218 0,0.57909 0,0.79375 0,0.5333 -0.13497,0.65878 0.26458,1.05833 0.0882,0.0882 0.15303,0.20881 0.26459,0.26459 0.18067,0.0903 0.80952,0 1.05833,0 0.42459,0 1.8324,0.0947 2.11667,0 0.37417,-0.12473 0.69212,-0.38269 1.05833,-0.52917 0.44097,-0.17639 0.88194,-0.35278 1.32292,-0.52917 1.82717,-0.73087 -0.22741,0.0984 1.5875,-0.26458 0.38676,-0.0773 0.70555,-0.35278 1.05833,-0.52917 0.17639,-0.0882 0.34208,-0.20222 0.52917,-0.26458 0.0837,-0.0279 0.18091,0.0279 0.26458,0 0.31947,-0.10649 0.89074,-0.45856 1.05833,-0.79375 0.0395,-0.0789 -0.0394,-0.1857 0,-0.26458 0.0558,-0.11156 0.20881,-0.15303 0.26459,-0.26459 0.0376,-0.0752 0.0376,-2.30608 0,-2.38125 -0.0558,-0.11156 -0.20881,-0.15302 -0.26459,-0.26458 -0.0394,-0.0789 0.0624,-0.20222 0,-0.26458 -0.0624,-0.0624 -0.1857,0.0394 -0.26458,0 -0.11156,-0.0558 -0.15302,-0.20881 -0.26458,-0.26459 -0.0789,-0.0394 -0.20222,0.0624 -0.26459,0 -0.0624,-0.0624 0.0624,-0.20222 0,-0.26458 -0.12472,-0.12472 -0.40444,0.12472 -0.52916,0 -0.0624,-0.0624 0.0624,-0.20222 0,-0.26458 -0.26101,-0.26101 -0.52917,0.54215 -0.52917,-0.26459"
       id="path10336"
       inkscape:connector-curvature="0" />
    <path
       style="fill:none;fill-opacity:1;stroke:#0e0a08;stroke-width:3;stroke-miterlimit:4;stroke-dasharray:none;stroke-opacity:1"
       d="m 186.00208,155.44793 c -0.76292,0.31134 -1.60291,-0.15567 -2.38125,0 -0.19338,0.0387 -0.33785,0.21675 -0.52917,0.26458 -0.17112,0.0428 -0.35804,-0.0428 -0.52916,0 -0.19132,0.0478 -0.34208,0.20222 -0.52917,0.26459 -0.0837,0.0279 -0.18091,-0.0279 -0.26458,0 -0.18709,0.0624 -0.33785,0.21675 -0.52917,0.26458 -0.78236,0.19559 -0.30881,-0.29756 -1.05833,0.26458 -0.49389,0.37042 -0.82903,0.9525 -1.32292,1.32292 -0.25439,0.19079 -0.5689,0.30431 -0.79375,0.52917 -0.13945,0.13945 -0.12513,0.38971 -0.26458,0.52916 -0.13945,0.13945 -0.3714,0.14626 -0.52917,0.26459 -0.29934,0.2245 -0.45907,0.62641 -0.79375,0.79375 -0.0789,0.0394 -0.1857,-0.0394 -0.26458,0 -0.11156,0.0558 -0.17639,0.17639 -0.26459,0.26458 -0.0882,0.0882 -0.2088,0.15302 -0.26458,0.26458 -0.0394,0.0789 0.0279,0.18092 0,0.26459 -0.0624,0.18709 -0.20222,0.34207 -0.26458,0.52916 -0.0441,0.13229 -0.0441,0.66146 0,0.79375 0.33257,0.99772 0.57303,0.57303 1.05833,1.05834 0.13945,0.13945 0.12514,0.38971 0.26458,0.52916 0.48015,0.48015 1.51019,0.26459 2.11667,0.26459 1.41591,0 -0.59926,-0.0558 1.32292,0.26458 1.03189,0.17198 0.5857,-0.0976 1.5875,-0.26458 0.8581,-0.14302 1.78772,0.14301 2.64583,0 0.2751,-0.0459 0.51865,-0.21874 0.79375,-0.26459 0.26098,-0.0435 0.53277,0.0435 0.79375,0 0.5502,-0.0917 1.05833,-0.35277 1.5875,-0.52916 0.68841,-0.22947 1.50384,-0.3852 2.11667,-0.79375 0.10378,-0.0692 0.1608,-0.1954 0.26458,-0.26459 0.67606,-0.4507 0.48613,-0.0308 1.05833,-0.79375 0.18754,-0.25004 0.71923,-1.28942 0.79375,-1.5875 0.0576,-0.23047 0.0649,-2.45125 0,-2.64583 -0.0394,-0.11832 -0.19539,-0.16081 -0.26458,-0.26458 -0.22125,-0.33188 -0.39048,-0.8567 -0.79375,-1.05834 -0.0789,-0.0394 -0.1857,0.0394 -0.26458,0 -0.11156,-0.0558 -0.15303,-0.2088 -0.26459,-0.26458 -0.18623,-0.0931 -2.03295,0 -2.38125,0"
       id="path10338"
       inkscape:connector-curvature="0" />
    <path
       style="fill:none;fill-opacity:1;stroke:#0e0a08;stroke-width:3;stroke-miterlimit:4;stroke-dasharray:none;stroke-opacity:1"
       d="m 208.49166,156.50626 c -0.96961,0.0286 -1.57691,0.39159 -2.38125,0.79375 -0.17639,0.0882 -0.38971,0.12514 -0.52916,0.26459 -0.0624,0.0624 0.0279,0.18091 0,0.26458 -0.0624,0.18709 -0.21675,0.33785 -0.26459,0.52917 -0.0428,0.17112 0,0.35277 0,0.52916 0,1.21329 0.0558,-0.27889 -0.26458,1.32292 -0.1648,0.824 0.10537,0.26225 0.26458,1.05833 0.11659,0.58293 -0.14436,1.27461 0,1.85209 0.0478,0.19132 0.21676,0.33784 0.26459,0.52916 0.0428,0.17112 -0.0558,0.36183 0,0.52917 0.0789,0.23665 0.35277,0.35278 0.52916,0.52917 1.1646,1.16459 1.01401,1.05833 2.64584,1.05833 0.35277,0 0.71609,-0.0856 1.05833,0 0.62435,0.15609 0.38794,0.43218 1.05833,0.26458 0.19132,-0.0478 0.34208,-0.20222 0.52917,-0.26458 0.0837,-0.0279 0.18091,0.0279 0.26458,0 0.36867,-0.12289 1.2802,-0.56327 1.5875,-0.79375 0.59267,-0.4445 0.99484,-1.143 1.5875,-1.5875 0.15777,-0.11832 0.38972,-0.12513 0.52917,-0.26458 0.13945,-0.13945 0.14626,-0.3714 0.26458,-0.52917 0.22451,-0.29934 0.5862,-0.48242 0.79375,-0.79375 0.1094,-0.16409 0.20222,-0.34208 0.26459,-0.52917 0.0661,-0.19836 0.0515,-1.749 0,-1.85208 -0.0558,-0.11156 -0.1954,-0.16081 -0.26459,-0.26458 -0.10939,-0.16409 -0.15519,-0.36508 -0.26458,-0.52917 -0.13837,-0.20756 -0.39079,-0.32161 -0.52917,-0.52917 -0.25704,-0.38557 -0.16518,-0.55109 -0.52916,-0.79375 -0.16409,-0.10939 -0.36508,-0.15519 -0.52917,-0.26458 -0.10378,-0.0692 -0.15302,-0.2088 -0.26458,-0.26458 -0.0789,-0.0394 -0.1857,0.0394 -0.26459,0 -0.11155,-0.0558 -0.15302,-0.20881 -0.26458,-0.26459 -0.0789,-0.0394 -0.17639,0 -0.26458,0 -0.17639,0 -0.35278,0 -0.52917,0 -0.73372,0 0.42235,0.0394 -0.79375,-0.26458 -0.24282,-0.0607 -2.34315,-0.0605 -2.64583,0 -0.35658,0.0713 -0.70556,0.17639 -1.05834,0.26458 z"
       id="path10340"
       inkscape:connector-curvature="0" />
    <path
       style="fill:none;fill-opacity:1;stroke:#0e0a08;stroke-width:3;stroke-miterlimit:4;stroke-dasharray:none;stroke-opacity:1"
       d="m 219.86875,156.24168 c -1.04369,-0.19011 -0.89613,1.16071 -1.32292,1.5875 -0.13945,0.13945 -0.36508,0.15519 -0.52917,0.26458 -0.31133,0.20756 -0.4944,0.56925 -0.79375,0.79375 -0.0643,0.0483 -1.29825,0.76909 -1.32291,0.79375 -0.0624,0.0624 0.0279,0.18092 0,0.26459 -0.30403,0.91207 -0.26459,0.19599 -0.26459,0.79375 0,0.70555 0,1.41111 0,2.11666 0,0.26459 -0.0519,0.53431 0,0.79375 -0.15947,0.47888 0.42861,0.49208 0.52917,0.79375 0.0558,0.16734 -0.0558,0.36183 0,0.52917 0.10952,0.32855 0.83706,0.64623 1.05833,0.79375 0.20756,0.13837 0.29252,0.45028 0.52917,0.52917 0.16734,0.0558 0.35805,-0.0428 0.52917,0 0.19132,0.0478 0.33579,0.2259 0.52916,0.26458 0.49743,0.0995 1.59181,0 2.11667,0 1.14653,0 2.29306,0 3.43958,0 0.61736,0 1.24093,0.0873 1.85209,0 0.55218,-0.0789 1.0373,-0.43747 1.5875,-0.52917 0.26098,-0.0435 0.5343,0.0519 0.79375,0 0.38675,-0.0773 0.69212,-0.38268 1.05833,-0.52916 0.61977,-0.24791 1.2864,-0.41663 1.85208,-0.79375 0.10378,-0.0692 0.16081,-0.1954 0.26459,-0.26459 0.16408,-0.10939 0.3714,-0.14626 0.52916,-0.26458 0.1311,-0.0983 1.21924,-1.11557 1.32292,-1.32292 0.20481,-0.40962 -0.28507,-1.60798 -0.52917,-1.85208 -0.27889,-0.27889 -0.77943,-0.25027 -1.05833,-0.52917 -0.13945,-0.13945 -0.12513,-0.38971 -0.26458,-0.52916 -0.2789,-0.2789 -0.70556,-0.35278 -1.05834,-0.52917 -0.43349,-0.21675 -1.13543,-0.68073 -1.5875,-0.79375 -0.17112,-0.0428 -0.35804,0.0428 -0.52916,0 -1.37387,-0.34347 0.28245,-0.26458 -1.05834,-0.26458 -1.7334,0 0.15376,0.0837 -1.5875,-0.26459 -0.53603,-0.1072 -1.5363,0 -2.11666,0 -0.35278,0 -0.71609,0.0856 -1.05834,0 -0.19132,-0.0478 -0.33784,-0.21675 -0.52916,-0.26458 -0.39349,-0.0984 -1.6433,0 -2.11667,0 -0.17639,0 -0.36183,0.0558 -0.52917,0 -0.11832,-0.0394 -0.14626,-0.22514 -0.26458,-0.26458 -0.251,-0.0837 -0.52917,0 -0.79375,0"
       id="path10342"
       inkscape:connector-curvature="0" />
    <path
       style="fill:none;fill-opacity:1;stroke:#0e0a08;stroke-width:3;stroke-miterlimit:4;stroke-dasharray:none;stroke-opacity:1"
       d="m 193.93958,169.47085 c -0.76292,0.31133 -1.60291,-0.15567 -2.38125,0 -0.19338,0.0387 -0.34606,0.19134 -0.52917,0.26458 -0.51789,0.20716 -1.04054,0.41977 -1.5875,0.52917 -0.80686,0.16137 -0.36372,-0.31093 -1.32291,0.26458 -0.2139,0.12834 -0.31527,0.40082 -0.52917,0.52917 -0.23915,0.14349 -0.5546,0.12109 -0.79375,0.26458 -0.2139,0.12834 -0.3296,0.37949 -0.52917,0.52917 -0.15776,0.11832 -0.36508,0.15519 -0.52916,0.26458 -0.31134,0.20755 -0.49441,0.56924 -0.79375,0.79375 -0.15777,0.11832 -0.36508,0.15519 -0.52917,0.26458 -0.36399,0.24266 -0.27212,0.40818 -0.52917,0.79375 -0.0692,0.10378 -0.2088,0.15303 -0.26458,0.26459 -0.0641,0.12821 -0.042,1.6842 0,1.85208 0.11803,0.4721 0.47261,0.73719 0.79375,1.05833 0.0882,0.0882 0.2088,0.15303 0.26458,0.26459 0.0395,0.0789 -0.0394,0.1857 0,0.26458 0.0558,0.11156 0.17639,0.17639 0.26459,0.26458 0.0882,0.0882 0.15302,0.20881 0.26458,0.26459 0.0789,0.0394 0.1857,-0.0394 0.26458,0 0.22312,0.11156 0.35278,0.35277 0.52917,0.52916"
       id="path10344"
       inkscape:connector-curvature="0" />
    <path
       style="fill:none;fill-opacity:1;stroke:#0e0a08;stroke-width:3;stroke-miterlimit:4;stroke-dasharray:none;stroke-opacity:1"
       d="m 199.49583,172.11668 c 0.89586,0.32261 1.76661,0.70664 2.64583,1.05833 0.75722,0.30289 0.70243,0.15687 1.32292,0.52917 0.27268,0.1636 0.52108,0.36556 0.79375,0.52917 0.33821,0.20292 0.73016,0.31038 1.05833,0.52916 0.20756,0.13837 0.35278,0.35278 0.52917,0.52917 0.0882,0.0882 0.2088,0.15302 0.26458,0.26458 0.0394,0.0789 0,0.17639 0,0.26459 0,0.44097 0,0.88194 0,1.32291 0,0.0882 0.0624,0.20222 0,0.26459 -0.35277,0.35277 -0.26458,-0.44098 -0.26458,0.26458"
       id="path10346"
       inkscape:connector-curvature="0" />
    <path
       style="fill:none;fill-opacity:1;stroke:#0e0a08;stroke-width:3;stroke-miterlimit:4;stroke-dasharray:none;stroke-opacity:1"
       d="m 191.82291,151.47918 c -0.86626,-1.05669 -2.0357,-1.86076 -2.91041,-2.91042 -0.40715,-0.48857 -0.70556,-1.05833 -1.05834,-1.5875 -0.37515,-0.56272 -0.76199,-0.99482 -1.05833,-1.5875"
       id="path10348"
       inkscape:connector-curvature="0" />
    <path
       style="fill:none;fill-opacity:1;stroke:#0e0a08;stroke-width:3;stroke-miterlimit:4;stroke-dasharray:none;stroke-opacity:1"
       d="m 199.76041,149.6271 c -1.75202,-1.92972 -2.81665,-4.31039 -3.96875,-6.61459 -0.47037,-0.94074 -0.53421,-0.94369 -0.79375,-1.85208 -0.0999,-0.34964 -0.14959,-0.71336 -0.26458,-1.05833 -0.0624,-0.18709 -0.21675,-0.33785 -0.26458,-0.52917 -0.0642,-0.25668 0,-0.52917 0,-0.79375"
       id="path10350"
       inkscape:connector-curvature="0" />
    <path
       style="fill:none;fill-opacity:1;stroke:#0e0a08;stroke-width:3;stroke-miterlimit:4;stroke-dasharray:none;stroke-opacity:1"
       d="m 205.05208,149.36251 c 1.07802,-0.94866 1.55273,-2.26407 2.64583,-3.175 0.24429,-0.20357 0.54947,-0.32559 0.79375,-0.52916 0.28746,-0.23955 0.5063,-0.55421 0.79375,-0.79375 0.48858,-0.40715 1.05834,-0.70556 1.5875,-1.05834"
       id="path10352"
       inkscape:connector-curvature="0" />
    <path
       style="fill:none;fill-opacity:1;stroke:#0e0a08;stroke-width:3;stroke-miterlimit:4;stroke-dasharray:none;stroke-opacity:1"
       d="m 314.85416,159.68126 c 2.94439,-0.49073 0.39042,-0.28192 2.64584,0 2.22599,0.27825 -0.11269,-0.37237 2.11666,0.26459 3.04559,0.87017 -1.38329,-0.23055 1.5875,0.26458 0.5502,0.0917 1.0373,0.43747 1.5875,0.52917 0.26099,0.0435 0.5343,-0.0519 0.79375,0 0.19339,0.0387 0.35277,0.17639 0.52917,0.26458 0.1764,0.0882 0.36507,0.15519 0.52917,0.26458 0.10377,0.0692 0.16081,0.1954 0.26458,0.26459 0.16409,0.10939 0.36507,0.15519 0.52917,0.26458 0.10377,0.0692 0.16081,0.1954 0.26458,0.26458 0.16409,0.1094 0.36507,0.15519 0.52917,0.26459 0.10377,0.0692 0.15303,0.2088 0.26458,0.26458 0.0789,0.0394 0.18571,-0.0394 0.26458,0 0.1764,0.0882 0.70557,0.61736 0.79375,0.79375 0.0821,0.16419 0,0.94064 0,1.05833 0,0.6892 -0.0217,0.32969 -0.26458,1.05834 -0.0279,0.0837 0.0394,0.1857 0,0.26458 -0.15166,0.30332 -0.55205,0.36804 -0.79375,0.52917 -0.10377,0.0692 -0.16081,0.19539 -0.26458,0.26458 -0.1641,0.10939 -0.35277,0.17639 -0.52917,0.26458 -0.1764,0.0882 -0.33785,0.21675 -0.52917,0.26459 -0.20592,0.0515 -2.6018,0.0617 -2.91041,0 -0.19339,-0.0387 -0.33579,-0.22591 -0.52917,-0.26459 -0.43241,-0.0865 -0.89051,0.0865 -1.32292,0 -0.27347,-0.0547 -0.52027,-0.20989 -0.79375,-0.26458 -0.17296,-0.0346 -0.35621,0.0346 -0.52916,0 -0.27348,-0.0547 -0.52028,-0.20989 -0.79375,-0.26458 -0.17296,-0.0346 -0.35804,0.0428 -0.52917,0 -0.3029,-0.0757 -1.8266,-0.86497 -2.11667,-1.05834 -0.10377,-0.0692 -0.16081,-0.19539 -0.26458,-0.26458 -0.1641,-0.10939 -0.36507,-0.15519 -0.52917,-0.26458 -0.18039,-0.12026 -0.96911,-0.87991 -1.05833,-1.05834 -0.0395,-0.0789 0.0394,-0.1857 0,-0.26458 -0.38931,-0.77862 -0.26458,0.41071 -0.26458,-0.79375 0,-0.40711 -0.0941,-2.36339 0,-2.64583 0.0624,-0.18709 0.20222,-0.34208 0.26458,-0.52917 0.1298,-0.3894 -0.23693,-0.80758 0.26458,-1.05833 0.2313,-0.11565 0.83492,0.0558 1.05834,0 0.19132,-0.0478 0.35276,-0.17639 0.52916,-0.26459"
       id="path10354"
       inkscape:connector-curvature="0" />
    <path
       style="fill:none;fill-opacity:1;stroke:#0e0a08;stroke-width:3;stroke-miterlimit:4;stroke-dasharray:none;stroke-opacity:1"
       d="m 334.9625,161.00418 c -0.60616,0.13532 -1.24312,-0.10149 -1.85209,0 -0.5502,0.0917 -1.0373,0.43747 -1.5875,0.52917 -0.26098,0.0435 -0.53276,-0.0435 -0.79375,0 -0.5502,0.0917 -1.0373,0.43746 -1.5875,0.52916 -2.14529,0.35755 0.58793,-0.46055 -1.5875,0.26459 -2.17543,0.72514 0.5578,-0.093 -1.5875,0.26458 -0.27511,0.0459 -0.51863,0.21873 -0.79375,0.26458 -0.26098,0.0435 -0.53276,-0.0435 -0.79375,0 -0.5502,0.0917 -1.0696,0.32201 -1.5875,0.52917 -0.18309,0.0732 -0.33784,0.21675 -0.52916,0.26458 -1.06966,0.26742 0.0124,-0.37786 -1.05834,0.26459 -0.58515,-0.0259 -0.69141,0.54914 -1.05833,0.79375 -0.1641,0.10939 -0.38973,0.12513 -0.52917,0.26458 -0.13943,0.13945 -0.21674,0.33785 -0.26458,0.52917 -0.14428,0.57713 0.0952,0.81485 0.26458,1.32291 0.0279,0.0837 -0.0489,0.1912 0,0.26459 0.2023,0.30347 1.03095,1.10393 1.32292,1.32291 0.44061,0.33045 1.09395,0.54697 1.5875,0.79375 0.1764,0.0882 0.36507,0.15519 0.52917,0.26459 0.4841,0.32274 0.0265,0.33732 0.79375,0.52916 0.34223,0.0856 0.70556,0 1.05833,0 0.63616,0 1.48974,0.10449 2.11667,0 0.27511,-0.0459 0.52027,-0.20989 0.79375,-0.26458 0.17295,-0.0346 0.3562,0.0346 0.52916,0 0.69562,-0.13912 1.21232,-0.53784 1.85209,-0.79375 1.82716,-0.73087 -0.22741,0.0984 1.5875,-0.26458 0.13337,-0.0267 2.0339,-0.97557 2.11666,-1.05834 0.13944,-0.13945 0.15521,-0.36508 0.26459,-0.52916 0.40523,-0.60785 0.15113,0.11345 0.79375,-0.52917 0.27889,-0.27889 0.31038,-0.73016 0.52916,-1.05833 0.40362,-0.60545 0.20945,0.16544 0.52917,-0.79375 0.10432,-0.31301 0,-1.1978 0,-1.5875 0,-0.0972 0.0106,-1.04769 0,-1.05834 -0.0624,-0.0624 -0.1764,0 -0.26458,0 -0.26459,-0.35277 -0.52917,-0.70555 -0.79375,-1.05833 z"
       id="path10356"
       inkscape:connector-curvature="0" />
    <path
       style="fill:none;fill-opacity:1;stroke:#0e0a08;stroke-width:3;stroke-miterlimit:4;stroke-dasharray:none;stroke-opacity:1"
       d="m 339.19583,171.32293 c -0.35277,0.44097 -0.70557,0.88194 -1.05833,1.32292 -0.1764,0.0882 -0.38974,0.12513 -0.52917,0.26458 -0.01,0.01 -0.75766,1.26878 -0.79375,1.32292 -0.20352,0.30529 -0.59023,0.48846 -0.79375,0.79375 -0.10938,0.16408 -0.15521,0.36508 -0.26458,0.52916 -0.0692,0.10378 -0.22514,0.14626 -0.26459,0.26459 -0.0589,0.1767 -0.0372,2.7987 0,2.91041 0.0394,0.11833 0.22514,0.14626 0.26459,0.26459 0.0558,0.16733 -0.0558,0.36182 0,0.52916 0.0394,0.11833 0.22513,0.14626 0.26458,0.26459 0.0558,0.16733 -0.0558,0.36182 0,0.52916 0.10951,0.32855 0.83706,0.64624 1.05833,0.79375 0.10377,0.0692 0.15304,0.20881 0.26459,0.26459 0.0789,0.0394 0.18571,-0.0395 0.26458,0 0.11155,0.0558 0.15303,0.2088 0.26458,0.26458 0.14277,0.0714 2.46907,0 2.91042,0"
       id="path10358"
       inkscape:connector-curvature="0" />
    <path
       style="fill:none;fill-opacity:1;stroke:#0e0a08;stroke-width:3;stroke-miterlimit:4;stroke-dasharray:none;stroke-opacity:1"
       d="m 349.25,183.49376 c 0.69659,1.19767 0.52916,2.15598 0.52916,3.43959 0,0.47336 0.0984,1.72318 0,2.11666 -0.0478,0.19132 -0.21674,0.33785 -0.26458,0.52917 -0.0428,0.17112 0.0558,0.36183 0,0.52917 -0.0789,0.23665 -0.41762,0.30605 -0.52917,0.52916 -0.0394,0.0789 0.0394,0.1857 0,0.26459 -0.0604,0.12084 -0.9375,0.99791 -1.05833,1.05833 -0.0789,0.0394 -0.18571,-0.0394 -0.26458,0 -0.11155,0.0558 -0.14627,0.22514 -0.26459,0.26458 -0.31231,0.10411 -1.48645,0 -1.85208,0 -0.41765,0 -0.70133,0.38359 -1.05833,0.26459 -0.18709,-0.0624 -0.34208,-0.20222 -0.52917,-0.26459 -0.14965,-0.0499 -0.68749,0.10627 -0.79375,0 -0.0624,-0.0624 0.0624,-0.20222 0,-0.26458 -0.12473,-0.12473 -0.3714,0.0789 -0.52917,0 -0.11155,-0.0558 -0.15303,-0.2088 -0.26458,-0.26458 -0.35277,-0.17639 -0.26458,0.26458 -0.26458,-0.26459"
       id="path10360"
       inkscape:connector-curvature="0" />
    <path
       style="fill:none;fill-opacity:1;stroke:#0e0a08;stroke-width:3;stroke-miterlimit:4;stroke-dasharray:none;stroke-opacity:1"
       d="m 340.78333,159.68126 c -0.0914,-0.54869 -0.29234,-2.01432 -0.52917,-2.64583 -0.27696,-0.73861 -0.7476,-1.39161 -1.05833,-2.11667 -0.10986,-0.25634 -0.13986,-0.54429 -0.26458,-0.79375 -0.28443,-0.56884 -0.67676,-1.07871 -1.05834,-1.5875 -0.0748,-0.0998 -0.19539,-0.1608 -0.26458,-0.26458 -0.30319,-0.45479 -0.39939,-0.92855 -0.79375,-1.32292"
       id="path10362"
       inkscape:connector-curvature="0" />
    <path
       style="fill:none;fill-opacity:1;stroke:#0e0a08;stroke-width:3;stroke-miterlimit:4;stroke-dasharray:none;stroke-opacity:1"
       d="m 348.45625,156.24168 c 0.14742,-1.05098 -0.10531,-2.12192 0,-3.175 0.0895,-0.89495 0.43968,-1.75089 0.52916,-2.64583 0.0439,-0.43879 -0.0487,-0.88465 0,-1.32292 0.0402,-0.36141 0.21315,-0.69835 0.26459,-1.05833 0.15433,-1.08038 -0.2058,-0.61736 0,-1.85209 0.0324,-0.19452 0.21674,-0.33784 0.26458,-0.52916 0.0685,-0.27408 0,-0.75495 0,-1.05834"
       id="path10364"
       inkscape:connector-curvature="0" />
    <path
       style="fill:none;fill-opacity:1;stroke:#0e0a08;stroke-width:3;stroke-miterlimit:4;stroke-dasharray:none;stroke-opacity:1"
       d="m 352.425,162.59168 c -0.52232,-0.12975 -2.25968,-0.42727 -2.91042,-0.26458 -0.19132,0.0478 -0.34208,0.20222 -0.52917,0.26458 -0.0837,0.0279 -0.18092,-0.0279 -0.26458,0 -0.54576,0.18192 -1.03026,0.65444 -1.5875,0.79375 -0.17113,0.0428 -0.35804,-0.0428 -0.52917,0 -0.19132,0.0478 -0.35277,0.17639 -0.52916,0.26458 -0.1764,0.0882 -0.3714,0.14626 -0.52917,0.26459 -0.1311,0.0983 -1.21925,1.11556 -1.32292,1.32291 -0.0394,0.0789 0.0279,0.18092 0,0.26459 -0.0624,0.18709 -0.21674,0.33784 -0.26458,0.52916 -0.15801,0.63207 0.3438,0.76685 0.52917,1.32292 0.26254,0.78762 -0.62651,-0.54288 0.26458,0.79375 0.24265,0.36399 0.40817,0.27212 0.79375,0.52917 0.10377,0.0692 0.16081,0.19539 0.26458,0.26458 0.1641,0.10939 0.35277,0.17639 0.52917,0.26458 0.1764,0.0882 0.33785,0.21675 0.52917,0.26459 0.17113,0.0428 0.35803,-0.0428 0.52916,0 0.19132,0.0478 0.33785,0.21675 0.52917,0.26458 0.40021,0.10005 1.92931,0 2.38125,0 0.56189,0 1.31707,0.10701 1.85208,0 0.27348,-0.0547 0.52028,-0.20989 0.79375,-0.26458 0.71123,-0.14225 0.38833,0.23792 1.05834,-0.26459 0.92583,-0.69436 0.21426,-0.28569 0.79375,-1.05833 0.14967,-0.19956 0.40081,-0.31526 0.52916,-0.52917 0.14349,-0.23915 0.161,-0.5348 0.26459,-0.79375 0.0732,-0.1831 0.21674,-0.33784 0.26458,-0.52916 0.0951,-0.38027 0,-1.175 0,-1.5875 0,-0.29342 0.10723,-2.69595 0,-2.91042 -0.11155,-0.22312 -0.41762,-0.30605 -0.52917,-0.52917 -0.0395,-0.0789 0.0624,-0.20222 0,-0.26458 -0.0624,-0.0624 -0.20222,0.0624 -0.26458,0 -0.0624,-0.0624 0.0624,-0.20222 0,-0.26458 -0.12473,-0.12473 -0.3714,0.0789 -0.52917,0 -0.11155,-0.0558 -0.15303,-0.20881 -0.26458,-0.26459 -0.12211,-0.061 -0.93623,-0.061 -1.05833,0 -0.1764,0.0882 -0.70557,0.61736 -0.79375,0.79375 -0.0394,0.0789 0,0.17639 0,0.26459 0,0.35277 0,0.70555 0,1.05833 z"
       id="path10368"
       inkscape:connector-curvature="0" />
    <path
       style="fill:none;fill-opacity:1;stroke:#0e0a08;stroke-width:3;stroke-miterlimit:4;stroke-dasharray:none;stroke-opacity:1"
       d="m 365.65416,162.06251 c -0.44098,-0.0882 -0.88193,-0.17639 -1.32291,-0.26458 -0.26459,0 -0.53277,0.0435 -0.79375,0 -0.27512,-0.0459 -0.51864,-0.21873 -0.79375,-0.26458 -0.43498,-0.0725 -0.88194,0 -1.32292,0 -1.67569,0 -3.3514,0 -5.02708,0 -0.36569,0 -2.68209,-0.11417 -2.91042,0 -0.11155,0.0558 -0.15304,0.2088 -0.26458,0.26458 -0.0789,0.0394 -0.18572,-0.0394 -0.26459,0 -0.11155,0.0558 -0.20881,0.15302 -0.26458,0.26458 -0.0494,0.0988 -0.044,1.45541 0,1.5875 0.31972,0.95919 0.12554,0.18831 0.52917,0.79375 0.10937,0.16409 0.12514,0.38972 0.26458,0.52917 0.13943,0.13945 0.37139,0.14626 0.52917,0.26458 0.19954,0.14968 0.32961,0.3795 0.52916,0.52917 0.15777,0.11832 0.3714,0.14626 0.52917,0.26458 0.19955,0.14968 0.32962,0.3795 0.52917,0.52917 0.15777,0.11832 0.36507,0.15519 0.52916,0.26458 0.10377,0.0692 0.16082,0.1954 0.26459,0.26459 0.32816,0.21878 0.73017,0.31038 1.05833,0.52916 0.10377,0.0692 0.16081,0.1954 0.26458,0.26459 0.32816,0.21878 0.73017,0.31038 1.05834,0.52916 0.10377,0.0692 0.14626,0.22514 0.26458,0.26459 0.33467,0.11156 0.70556,0 1.05833,0 0.26638,0 1.07109,0.0839 1.32292,0 0.11832,-0.0394 0.15303,-0.20881 0.26458,-0.26459 0.65167,-0.32583 -0.23884,0.76802 0.79375,-0.26458 0.13944,-0.13945 0.12515,-0.38972 0.26459,-0.52917 0.13943,-0.13945 0.38973,-0.12513 0.52916,-0.26458 0.24879,-0.2488 0.61989,-1.23978 0.79375,-1.5875 0.1764,-0.35278 0.4518,-0.67158 0.52917,-1.05833 0.0519,-0.25945 -0.0519,-0.53431 0,-0.79375 0.0387,-0.19338 0.20222,-0.34208 0.26458,-0.52917 0.0473,-0.14199 0.0701,-1.71199 0,-1.85208 -0.0558,-0.11156 -0.20881,-0.15303 -0.26458,-0.26459 -0.38931,-0.77862 0.61293,0.34835 -0.26458,-0.52916"
       id="path10370"
       inkscape:connector-curvature="0" />
    <path
       style="fill:none;fill-opacity:1;stroke:#0e0a08;stroke-width:3;stroke-miterlimit:4;stroke-dasharray:none;stroke-opacity:1"
       d="m 372.79791,160.21043 c -1.17303,0.0408 -2.33116,-0.17879 -3.43958,0.26458 -0.18309,0.0733 -0.33578,0.22591 -0.52917,0.26459 -0.43241,0.0865 -0.89051,-0.0865 -1.32291,0 -1.37642,0.27528 -0.26459,0.17639 -1.32292,0.52916 -0.0837,0.0279 -0.18092,-0.0279 -0.26458,0 -0.37418,0.12473 -0.73018,0.31039 -1.05834,0.52917 -0.20756,0.13837 -0.30604,0.41761 -0.52916,0.52917 -0.0789,0.0394 -0.18572,-0.0394 -0.26459,0 -0.22312,0.11156 -0.30604,0.4176 -0.52916,0.52916 -0.0789,0.0394 -0.20223,-0.0624 -0.26459,0 -0.0624,0.0624 0,0.17639 0,0.26459 0,0.23829 -0.0839,1.15507 0,1.32291 0.0558,0.11156 0.1764,0.17639 0.26459,0.26459 0.24341,0.24341 0.508,0.60325 0.79375,0.79375 0.16409,0.10939 0.36507,0.15519 0.52916,0.26458 0.10377,0.0692 0.16082,0.1954 0.26459,0.26458 0.16409,0.1094 0.37139,0.14626 0.52916,0.26459 0.19955,0.14967 0.32962,0.37949 0.52917,0.52916 0.31554,0.23665 0.74279,0.29252 1.05833,0.52917 0.19955,0.14967 0.32962,0.37949 0.52917,0.52917 0.46567,0.34925 1.12183,0.4445 1.5875,0.79375 0.19955,0.14967 0.3216,0.39079 0.52917,0.52916 0.0734,0.0489 0.18092,-0.0279 0.26458,0 0.18709,0.0624 0.35277,0.17639 0.52917,0.26459 0.17639,0.0882 0.36507,0.15519 0.52916,0.26458 0.10377,0.0692 0.14626,0.22514 0.26459,0.26458 0.0328,0.0109 0.9395,0.0594 1.05833,0 0.11155,-0.0558 0.15303,-0.2088 0.26458,-0.26458 0.0789,-0.0394 0.18571,0.0394 0.26459,0 0.11154,-0.0558 0.16081,-0.1954 0.26458,-0.26458 0.16409,-0.1094 0.38973,-0.12514 0.52917,-0.26459 0.0624,-0.0624 -0.0394,-0.1857 0,-0.26458 0.0558,-0.11156 0.19539,-0.16081 0.26458,-0.26458 0.10938,-0.16409 0.1552,-0.36508 0.26458,-0.52917 0.0692,-0.10378 0.1954,-0.16081 0.26459,-0.26458 0.10937,-0.16409 0.1552,-0.36508 0.26458,-0.52917 0.0692,-0.10378 0.22513,-0.14626 0.26458,-0.26458 0.1007,-0.30214 0,-1.91317 0,-2.38125 0,-0.79375 0,-1.5875 0,-2.38125 0,-0.25084 0.10986,-0.83861 0,-1.05834 -0.0558,-0.11156 -0.20881,-0.15302 -0.26458,-0.26458 -0.0394,-0.0789 0.0624,-0.20222 0,-0.26458 -0.0624,-0.0624 -0.18571,0.0394 -0.26458,0 -0.37759,-0.1888 -0.32065,-0.52917 -0.79375,-0.52917"
       id="path10372"
       inkscape:connector-curvature="0" />
  </g>
</svg>
