<?xml version="1.0" encoding="UTF-8" standalone="no"?>
<!-- Created with Inkscape (http://www.inkscape.org/) -->

<svg
   xmlns:dc="http://purl.org/dc/elements/1.1/"
   xmlns:cc="http://creativecommons.org/ns#"
   xmlns:rdf="http://www.w3.org/1999/02/22-rdf-syntax-ns#"
   xmlns:svg="http://www.w3.org/2000/svg"
   xmlns="http://www.w3.org/2000/svg"
   xmlns:sodipodi="http://sodipodi.sourceforge.net/DTD/sodipodi-0.dtd"
   xmlns:inkscape="http://www.inkscape.org/namespaces/inkscape"
   width="1920"
   height="1080"
   viewBox="0 0 508.00002 285.74999"
   version="1.1"
   id="svg8"
   inkscape:version="0.92.4 5da689c313, 2019-01-14"
   sodipodi:docname="033.svg">
  <defs
     id="defs2">
    <clipPath
       clipPathUnits="userSpaceOnUse"
       id="clipPath3044">
      <rect
         style="opacity:1;fill:#000000;fill-opacity:1;stroke:none;stroke-width:0.60000002;stroke-miterlimit:4;stroke-dasharray:none;stroke-opacity:1"
         id="rect3046"
         width="243.21527"
         height="226.00311"
         x="320.13846"
         y="134.60152" />
    </clipPath>
  </defs>
  <sodipodi:namedview
     id="base"
     pagecolor="#ffffff"
     bordercolor="#666666"
     borderopacity="1.0"
     inkscape:pageopacity="0.0"
     inkscape:pageshadow="2"
     inkscape:zoom="0.5"
     inkscape:cx="621.66518"
     inkscape:cy="673.48469"
     inkscape:document-units="mm"
     inkscape:current-layer="layer1"
     showgrid="false"
     units="px"
     inkscape:window-width="1920"
     inkscape:window-height="1080"
     inkscape:window-x="1366"
     inkscape:window-y="0"
     inkscape:window-maximized="0"
     showguides="true" />
  <metadata
     id="metadata5">
    <rdf:RDF>
      <cc:Work
         rdf:about="">
        <dc:format>image/svg+xml</dc:format>
        <dc:type
           rdf:resource="http://purl.org/dc/dcmitype/StillImage" />
        <dc:title></dc:title>
      </cc:Work>
    </rdf:RDF>
  </metadata>
  <g
     inkscape:label="Capa 1"
     inkscape:groupmode="layer"
     id="layer1"
     transform="translate(0,-11.250015)">
    <path
       style="opacity:1;fill:#000000;fill-opacity:1;stroke:none;stroke-width:0.60000002;stroke-miterlimit:4;stroke-dasharray:none;stroke-opacity:1"
       id="path1468"
       d="m 220.99802,59.842027 c -0.077,0.106124 -0.14534,0.219167 -0.2311,0.31837 -0.21547,0.249222 -0.47948,0.457547 -0.67128,0.725406 -0.19073,0.266374 -0.3022,0.581691 -0.46729,0.864677 -0.25974,0.445211 -0.526,0.886925 -0.80678,1.319175 -0.43824,0.674656 -0.96439,1.294577 -1.34978,2.000755 -0.41578,0.761839 -0.69593,1.590202 -1.04389,2.385304 -0.49379,1.049385 -0.98031,2.102215 -1.48136,3.148155 -0.63428,1.324097 -1.31688,2.625302 -1.92456,3.961815 -1.50577,3.311718 -2.57981,6.214528 -3.99394,9.59068 -1.30696,3.120292 -3.84421,8.902277 -5.16407,11.927292 -0.88398,2.13895 -1.76795,4.277904 -2.65193,6.416854 -0.97383,2.24039 -1.97697,4.46827 -2.92148,6.72117 -0.94666,2.25804 -1.81119,4.54985 -2.75156,6.81052 -1.43818,3.45744 -4.6308,10.81597 -6.17362,14.20179 -1.10901,2.43382 -2.27244,4.84247 -3.40865,7.2637 -2.76281,6.68656 -5.50861,13.38003 -8.26021,20.07118 -0.8244,2.00471 -1.708,3.9857 -2.4856,6.00902 -0.68444,1.78094 -1.25942,3.60205 -1.89891,5.39962 -0.59092,1.66104 -1.19486,3.31742 -1.79229,4.97614 -1.49288,3.90996 -2.56652,7.95571 -3.80505,11.94795 -0.32455,1.04615 -0.71818,2.0718 -0.99799,3.1308 -0.14797,0.56005 -0.78408,4.05468 -0.91846,4.78176 -0.15852,0.62419 -0.36031,1.23897 -0.47555,1.87258 -0.0427,0.23455 -0.0561,2.51355 -0.41249,2.67529 -2.59653,1.1784 -2.2953,1.15989 -2.06395,-0.34939 -0.3407,-0.93489 -0.0197,-1.92884 -0.18104,-2.87563 -0.1007,-0.59082 -0.41654,-1.1267 -0.55976,-1.70869 -0.17269,-0.70173 -0.14814,-1.45093 -0.38575,-2.13342 -0.25021,-0.71866 -0.70721,-1.34765 -1.06082,-2.02147 -0.21945,-0.77983 -0.4389,-1.55966 -0.65836,-2.33948 -0.34255,-0.70993 -0.6851,-1.41986 -1.02765,-2.12978 -0.37574,-0.66897 -0.78079,-1.32231 -1.12724,-2.00691 -0.33585,-0.66368 -0.50769,-1.4134 -0.91766,-2.03403 -0.40241,-0.60917 -0.97813,-1.08464 -1.48779,-1.60739 -0.84835,-0.87014 -2.17624,-2.09209 -3.06616,-2.92378 -1.47322,-0.88388 -2.59788,-1.65113 -4.24243,-2.2386 -0.93965,-0.33567 -1.91935,-0.54837 -2.88898,-0.78379 -2.68504,-0.65191 -4.03413,-0.90627 -6.84104,-1.13006 -1.34279,-0.10707 -2.69146,-0.11926 -4.03719,-0.17889 -1.39564,0.001 -2.79635,-0.11605 -4.18691,0.003 -1.68941,0.1444 -3.35602,0.49019 -5.02581,0.78467 -4.95887,0.87451 -9.87847,2.083 -14.63812,3.7393 -1.71106,0.59543 -3.38196,1.30052 -5.07294,1.95078 -4.98816,2.00901 -10.108682,3.90774 -14.48402,7.1109 -1.126289,0.82456 -2.29557,1.59763 -3.351839,2.51016 -0.937917,0.81028 -1.742895,1.76275 -2.614343,2.64412 -2.39939,3.16005 -4.887513,6.31114 -6.462781,9.99192 -0.492403,1.15055 -0.819489,2.36586 -1.177539,3.56504 -1.187169,3.97609 -1.020246,3.74146 -1.720495,7.82842 -0.233604,4.33613 -0.320834,3.61877 -0.04955,7.96715 0.08177,1.31076 0.121505,2.6294 0.329787,3.92608 0.393745,2.45127 1.166781,4.34504 1.909019,6.68388 0.309169,0.97421 0.595048,1.95565 0.89257,2.93348 2.225796,6.61093 -0.569466,-1.04451 2.105271,4.57366 0.299841,0.62981 0.335952,1.36789 0.658825,1.98621 0.277442,0.53131 0.76649,0.92308 1.115002,1.41074 2.245016,3.14133 -0.526965,-0.36623 1.676093,2.3555 0.616691,0.72303 0.795917,1.07037 1.631363,1.53481 0.309673,0.17215 0.664395,0.2477 0.988115,0.39172 0.270447,0.12031 0.515522,0.29627 0.792578,0.40047 0.813851,0.30609 1.107715,0.24544 1.995686,0.28963 0.704736,0.18914 1.104908,0.33296 1.857058,0.37098 0.448958,0.0227 0.899858,-0.0551 1.348364,-0.0247 0.35456,0.024 1.798542,0.34879 2.148157,0.3936 0.412793,0.0529 0.830064,0.0615 1.245098,0.0922 2.154086,0.57979 -0.223452,0.004 2.289294,0.38152 0.362466,0.0545 0.71129,0.17997 1.072176,0.24406 0.410431,0.0729 0.834041,0.0694 1.239421,0.16645 0.32537,0.0779 0.62583,0.23681 0.93874,0.35521 0.3541,0.0753 0.7082,0.15054 1.0623,0.22581 0.18832,0.0241 1.96757,0.25386 2.18986,0.27397 0.36478,0.033 0.73442,0.0127 1.09685,0.0656 0.27534,0.0402 0.53823,0.14156 0.80734,0.21234 0,0 -2.08978,1.47571 -2.08978,1.47571 v 0 c -0.30947,-0.0439 -0.61686,-0.10654 -0.92841,-0.13184 -0.38151,-0.031 -0.77191,0.036 -1.14769,-0.0367 -0.61663,-0.11936 -1.09448,-0.71862 -1.80052,-0.55541 -0.36303,-0.0696 -0.72372,-0.15272 -1.0891,-0.20868 -0.40958,-0.0627 -0.833342,-0.0427 -1.234326,-0.14715 -0.313846,-0.0817 -0.5652,-0.34956 -0.884801,-0.40463 -0.469294,-0.0809 -0.956112,0.0653 -1.428621,0.006 -3.457461,-0.43368 2.131505,-0.33163 -2.388301,-0.2979 -1.08322,-0.27035 -2.143471,-0.50523 -3.262177,-0.57758 -0.417851,-0.027 -0.840312,0.0181 -1.255697,-0.0347 -0.306313,-0.0389 -0.596709,-0.15909 -0.895064,-0.23864 -0.363469,-0.0242 -0.726937,-0.0484 -1.090406,-0.0726 -0.289243,-0.0791 -0.57359,-0.17894 -0.867725,-0.23725 -0.351938,-0.0698 -0.726247,-0.032 -1.06639,-0.14616 -0.550233,-0.18466 -1.033428,-0.75759 -1.503849,-1.05102 -1.726224,-1.07677 -0.512099,0.1027 -1.857642,-1.46327 -1.043065,-1.17228 -2.080599,-2.41235 -2.831214,-3.80145 -0.328906,-0.60868 -0.547243,-1.27162 -0.853998,-1.89176 -1.713632,-3.4643 -0.692071,-0.66377 -1.893409,-4.72041 -1.254037,-3.58672 -0.906039,-2.31068 -1.835838,-6.18768 -0.283972,-1.18408 -0.632775,-2.35666 -0.818909,-3.56001 -0.201652,-1.30366 -0.252849,-2.62654 -0.341622,-3.94272 -0.269547,-3.99639 -0.195027,-3.94624 -0.159054,-7.91393 0.4338,-2.09611 1.159909,-5.81443 1.759148,-7.90144 0.933363,-3.25066 1.411139,-4.19957 3.023494,-7.21495 0.589259,-1.10202 1.154833,-2.22384 1.864125,-3.25271 0.756375,-1.09717 1.679091,-2.06984 2.518635,-3.10475 2.53039,-2.39226 3.368027,-3.3839 6.279353,-5.33409 5.7614,-3.85933 12.011348,-6.82972 18.440418,-9.38955 1.5442,-0.53272 3.0899,-1.06111 4.6326,-1.59816 1.78027,-0.61975 3.53508,-1.31622 5.33628,-1.87221 4.60286,-1.42079 9.90315,-2.5524 14.71735,-2.8742 1.41763,-0.0948 2.84151,-0.0222 4.26226,-0.0333 3.68668,0.26186 7.45509,0.33152 11.05601,1.25738 0.93074,0.23931 1.82498,0.60328 2.73251,0.9194 0.85767,0.29874 1.74433,0.53138 2.56277,0.92508 0.68868,0.33127 1.2871,0.82427 1.93065,1.23641 0.53732,0.47639 1.09933,0.9263 1.61195,1.42916 2.70617,2.65463 4.54264,5.97294 5.92846,9.47127 2.07483,5.50072 -0.32045,-0.97801 1.54896,4.4824 0.22649,0.66157 0.57959,1.28284 0.73639,1.9643 0.14529,0.6314 0.0849,1.29362 0.1613,1.93701 0.35979,3.03167 0.20629,0.20287 0.29986,2.84043 0.54643,1.54053 0.58243,0.90188 -2.06181,2.4046 -0.16518,0.0939 0.23517,-0.31802 0.26223,-0.50608 0.0389,-0.27006 -0.0944,-0.54344 -0.072,-0.81537 0.0345,-0.41892 0.60341,-3.02308 0.64097,-3.2003 2.01207,-8.59319 -1.20702,5.02566 1.27259,-4.96684 0.24512,-0.98779 0.39125,-1.99985 0.66757,-2.97938 0.339,-1.20173 0.80914,-2.36298 1.17617,-3.55645 2.44345,-7.94514 -0.3608,0.2738 2.72578,-8.45091 2.71793,-6.82545 1.45985,-3.35343 3.76658,-10.41885 0.80071,-2.0715 1.82906,-4.04849 2.6782,-6.10062 0.86426,-2.08866 1.61579,-4.22245 2.46084,-6.31895 1.85088,-4.5919 3.8539,-9.12151 5.70273,-13.71426 2.53796,-5.41587 4.24233,-8.93433 6.59356,-14.41781 0.99321,-2.31637 1.87957,-4.67766 2.87614,-6.99259 1.01021,-2.34662 2.13924,-4.64101 3.14339,-6.99022 1.85022,-4.32861 3.40574,-8.78009 5.3909,-13.052955 4.67751,-11.864049 0.0436,-0.345519 4.92806,-11.81835 0.72441,-1.701546 1.41036,-3.419274 2.09917,-5.135536 0.58462,-1.456637 1.09234,-2.944778 1.72105,-4.382937 0.58929,-1.348001 1.29062,-2.644208 1.93012,-3.969125 0.50961,-1.055812 1.01147,-2.115347 1.51721,-3.173021 0.72739,-1.435748 1.47506,-2.861419 2.18154,-4.307573 0.19755,-0.404381 0.32454,-0.846111 0.56656,-1.225555 0.25022,-0.392293 0.6382,-0.682818 0.89722,-1.069356 0.10665,-0.159165 0.0716,-0.389469 0.1842,-0.544473 0.14792,-0.203589 0.38038,-0.329578 0.57058,-0.494368 0,0 2.33154,-0.947624 2.33154,-0.947624 z"
       inkscape:connector-curvature="0" />
    <path
       style="opacity:1;fill:#000000;fill-opacity:1;stroke:none;stroke-width:0.60000002;stroke-miterlimit:4;stroke-dasharray:none;stroke-opacity:1"
       id="path1470"
       d="m 228.31839,27.241058 c -0.0501,0.206376 -0.13739,0.40715 -0.15039,0.619129 -0.0155,0.252921 0.0744,0.504068 0.0659,0.757322 -0.028,0.834461 -0.29089,1.476547 -0.19111,2.333438 0.0535,0.459493 0.2679,0.886383 0.36977,1.337626 0.12222,0.541446 0.20124,1.091747 0.30187,1.63762 0.74113,2.382728 0.23497,1.140031 1.44046,3.408652 0.31631,0.595271 0.56059,1.233663 0.94195,1.789513 0.39714,0.578848 0.92852,1.053317 1.37827,1.592308 0.43892,0.526007 0.80286,1.117729 1.28729,1.602152 0.49981,0.499804 1.09905,0.889119 1.64858,1.33368 2.57919,1.74307 0.83019,0.662485 3.59195,2.121033 0.57436,0.303328 1.11281,0.678965 1.71021,0.933934 1.72004,0.73411 3.5551,0.964895 5.39431,1.122566 0.43624,0.02416 0.87575,0.130995 1.30872,0.07245 0.92562,-0.125153 2.27185,-0.741957 3.02154,-1.254035 0.37332,-0.254997 -0.85689,0.872639 -1.21682,0.599059 -0.32408,-0.246335 0.57663,-0.575598 0.84509,-0.881612 0.30672,-0.349639 0.58598,-0.722448 0.87897,-1.083673 0.52936,-1.349084 1.45565,-2.530821 1.64566,-4.008149 0.0627,-0.487188 -0.0419,-0.981517 -0.0601,-1.472385 -0.078,-2.103152 0.056,-1.01387 -0.3335,-3.006447 -0.35668,-1.78908 -1.30084,-3.242051 -2.38392,-4.66264 -0.22474,-0.29477 -0.42708,-0.608478 -0.67729,-0.881954 -0.24607,-0.268948 -0.5373,-0.49279 -0.80596,-0.739185 -1.43846,-0.844348 -3.05656,-1.704133 -4.78754,-1.54536 -1.00942,0.09259 -2.0725,0.48128 -3.03308,0.787342 -0.4995,0.295435 -1.10401,0.46068 -1.4985,0.886306 -0.18175,0.196091 0.8856,-0.375043 0.79238,-0.124457 -0.20502,0.551098 -0.83883,0.826361 -1.22005,1.274038 -0.39134,0.45956 -0.78124,0.926775 -1.09379,1.44316 -0.26268,0.433977 -0.41042,0.927864 -0.62074,1.389494 -0.2375,0.521288 -0.48177,1.039459 -0.72266,1.559188 0.21589,0.865777 -0.0808,1.756922 0.0367,2.623626 0.0664,0.489924 0.60372,1.838738 0.87481,2.262804 0.24035,0.375967 1.26278,1.43597 1.56783,1.761066 1.58456,1.079963 0.44522,0.440291 2.37675,1.150266 0.6604,0.242745 1.46334,0.672348 2.1863,0.754949 0.73911,0.08444 1.56333,-0.08138 2.29041,-0.188995 0.38676,-0.167523 0.73883,-0.507624 1.16028,-0.502573 0.36597,0.0044 -0.61414,0.565499 -0.97506,0.504793 -0.27808,-0.04677 0.42588,-0.369885 0.6318,-0.562528 0.7348,-0.687454 1.27408,-1.384686 1.81839,-2.225842 0.27471,-0.922451 0.83144,-2.001475 0.56113,-2.995115 -0.10615,-0.390204 -0.46544,-0.795215 -0.70239,-1.103231 -0.56599,-0.318346 -0.72663,-1.032338 -1.33113,-1.300748 -0.65977,-0.292948 -1.44668,-0.154366 -2.11991,-0.03675 -1.92595,0.934892 0.60721,-0.425125 0.95487,-0.536679 0.30877,-0.09907 -0.54726,0.353873 -0.78564,0.573706 -0.1575,0.14525 -0.25798,0.342187 -0.39028,0.510716 -0.63884,0.81378 -0.34249,0.333801 -0.76849,1.144126 -0.68596,1.308074 -0.0213,-0.0609 -0.48632,1.193157 -0.0828,0.223364 -0.25961,0.416269 -0.29208,0.652275 -0.049,0.356264 0.41535,0.923623 0.5911,1.199465 0.31866,0.513032 0.74852,0.556604 1.29084,0.678587 0.63394,0.142592 0.76875,0.12365 1.40625,-0.03234 1.2386,-0.703916 -2.29087,2.121916 -1.17146,0.412255 0,0 2.22339,-0.957839 2.22339,-0.957839 v 0 c -0.47972,1.244838 -1.92346,1.74204 -3.15096,2.125503 -0.27612,0.05964 -0.92164,0.222184 -1.19923,0.181722 -0.31669,-0.04616 -0.55499,-0.320152 -0.84364,-0.458378 -0.17054,-0.08167 -0.38017,-0.0951 -0.52356,-0.218361 -0.12441,-0.106944 -0.15607,-0.288626 -0.2341,-0.432937 -0.1084,-0.130617 -0.25561,-0.237035 -0.3252,-0.391853 -0.0737,-0.163997 -0.0556,-0.355362 -0.09,-0.531842 -0.0339,-0.174183 -0.12519,-0.342657 -0.11493,-0.519816 0.0129,-0.222838 0.13794,-0.425577 0.18235,-0.644324 0.26641,-1.312111 -0.1864,0.180226 0.2594,-1.156478 0.58393,-0.852096 0.26986,-0.428413 0.94641,-1.267912 0.11645,-0.162535 0.17235,-0.368586 0.31027,-0.513348 0.22254,-0.233585 0.48438,-0.430063 0.75535,-0.605159 2.60469,-1.683063 1.73775,-1.44544 3.25019,-1.755575 0.40159,-0.07278 1.29331,-0.275929 1.70112,-0.174405 0.19681,0.04899 0.29615,0.292466 0.48419,0.368449 1.01085,0.408468 1.21362,-0.127868 1.70924,1.197654 0.34448,0.863634 0.12266,0.45485 0.66987,1.223941 0.35755,0.781331 0.107,0.726268 -0.0209,1.55919 -0.20456,1.332783 0.26553,0.213524 -0.55455,1.637353 -0.0806,0.233574 -0.11823,0.486753 -0.24181,0.700722 -0.16509,0.285858 -0.39332,0.531339 -0.61238,0.778288 -1.52447,1.718556 -3.63977,2.842567 -5.76679,3.638785 -0.96685,0.217273 -1.57321,0.454472 -2.57297,0.297119 -0.3596,-0.0566 -0.67673,-0.276172 -1.03085,-0.360505 -0.49867,-0.118756 -1.03503,-0.07458 -1.51797,-0.246486 -0.2965,-0.105537 -1.87985,-1.240528 -2.12528,-1.41247 -0.1729,-0.186423 -1.52365,-1.624571 -1.64822,-1.833316 -0.21387,-0.358394 -0.31637,-0.773573 -0.44013,-1.172158 -0.40446,-1.302583 -0.53671,-2.628857 -0.34444,-3.983482 0.15804,-0.495966 0.27073,-1.008741 0.47412,-1.487899 1.47803,-3.481993 4.43854,-5.718865 7.78493,-7.318096 1.3264,-0.478221 1.85577,-0.783691 3.26964,-0.856031 0.78449,-0.04014 2.0743,0.154829 2.81673,0.439556 0.38098,0.14611 1.74653,1.008976 2.09792,1.225419 2.33097,1.844957 -0.35291,-0.506179 1.37787,1.759241 0.26011,0.340457 0.72743,0.49015 0.97005,0.843283 0.24879,0.362116 0.28445,0.832313 0.45838,1.23577 1.4005,3.24882 -0.16098,-0.856571 1.11161,2.609431 0.11164,0.477134 0.29225,0.943243 0.33492,1.431402 0.007,0.0826 -0.12524,3.100488 -0.13601,3.238362 -0.0502,0.642231 -0.19712,2.056646 -0.45689,2.692569 -0.1796,0.439669 -0.48056,0.819338 -0.72085,1.229006 -1.90745,2.30414 -2.02939,2.332879 -5.09863,4.124319 -0.4929,0.287698 -0.99462,0.575821 -1.53603,0.756394 -0.37572,0.125317 -2.6614,0.264308 -2.84253,0.277733 -0.60235,-0.03832 -1.21243,-0.0114 -1.80705,-0.114953 -0.65524,-0.114102 -2.96964,-0.909614 -3.51803,-1.16545 -0.58908,-0.27482 -1.12276,-0.65572 -1.69226,-0.969119 -2.7883,-1.534411 -0.97701,-0.358283 -3.55926,-2.193073 -0.50038,-0.484703 -0.96353,-1.011063 -1.50114,-1.454107 -0.58015,-0.478108 -1.33394,-0.747155 -1.84217,-1.301113 -0.47304,-0.515612 -0.69319,-1.215792 -1.02975,-1.82926 -0.32798,-0.597802 -0.67405,-1.187072 -0.96376,-1.804329 -0.27675,-0.58965 -0.48882,-1.207544 -0.73323,-1.811315 -0.25585,-0.541324 -0.5117,-1.082649 -0.76755,-1.623973 -0.2434,-1.252725 -0.37993,-1.861187 -0.55386,-3.093675 -0.0562,-0.39843 -0.13911,-0.796592 -0.14016,-1.198968 -0.002,-0.831317 0.25004,-1.688259 0.34646,-2.511561 0,0 2.17039,-1.078756 2.17039,-1.078756 z"
       inkscape:connector-curvature="0" />
    <path
       style="opacity:1;fill:#000000;fill-opacity:1;stroke:none;stroke-width:0.60000002;stroke-miterlimit:4;stroke-dasharray:none;stroke-opacity:1"
       id="path1472"
       d="m 274.88761,36.907294 c 2.1936,0.150816 4.3965,-0.0799 6.59442,-0.02686 0.72845,0.01758 1.45523,0.07771 2.18284,0.11657 0.76004,0.073 1.51656,0.217696 2.28012,0.218992 6.96013,0.01182 -0.67106,-0.5199 6.29129,-0.152636 3.62993,0.191478 7.1519,0.856582 10.71092,1.550502 4.64098,0.63192 4.29466,0.345667 8.62848,1.843625 1.37973,0.47689 2.71302,1.079081 4.07768,1.597527 2.88224,1.094989 6.40252,2.20599 9.09252,3.749567 1.35802,0.77925 2.54706,1.821587 3.8206,2.732381 4.34851,2.743303 4.19669,2.196277 7.55375,6.079215 1.04807,1.212249 1.92104,2.565902 2.91325,3.824287 1.04884,1.330219 2.27666,2.526252 3.20911,3.940503 0.96107,1.45769 1.6058,3.101237 2.44361,4.633103 0.86492,1.581409 1.77599,3.137122 2.66398,4.705683 1.06365,3.497636 2.29981,6.940558 3.37688,10.433852 0.52345,1.697688 0.97856,3.415826 1.49257,5.116396 0.49572,1.640144 1.12609,3.241717 1.53654,4.905256 0.96372,3.905824 0.99613,5.997858 1.34749,9.974123 0.23397,3.96846 0.40709,5.3186 0.2784,9.25552 -0.0464,1.42061 -0.0835,2.84764 -0.28596,4.25452 -0.26559,1.84572 -1.36785,5.96103 -2.00991,7.78171 -0.3882,1.10084 -0.89667,2.15551 -1.34501,3.23326 -0.73385,1.12838 -2.59056,4.12658 -3.61939,5.20841 -2.6271,2.76242 -6.45761,4.79146 -9.94265,6.12247 -0.92215,0.35218 -1.92757,0.42674 -2.89134,0.64011 -1.70524,0.14809 -3.9439,0.39136 -5.65232,0.33684 -0.81349,-0.026 -1.61652,-0.1928 -2.42694,-0.2679 -0.85463,-0.0792 -1.71479,-0.0971 -2.56752,-0.19492 -1.09765,-0.1259 -3.14854,-0.52658 -4.26119,-0.73398 -0.53049,-0.18578 -1.05156,-0.40106 -1.59147,-0.55736 -0.55322,-0.16015 -1.14795,-0.17772 -1.68312,-0.39058 -0.38756,-0.15415 -0.67488,-0.49472 -1.04172,-0.69321 -0.37743,-0.20423 -0.80317,-0.30855 -1.18205,-0.51009 -1.18224,-0.78602 -0.57351,-0.43416 -1.82417,-1.05904 -2.03788,-1.12255 0.14298,0.26857 -1.16255,-1.0939 -0.17,-0.17739 -0.46345,-0.20055 -0.63188,-0.3794 -0.1347,-0.14302 -0.1215,-0.38006 -0.23461,-0.54068 -0.35391,-0.50246 -0.49675,-0.33962 -1.08664,-0.32396 -0.0423,-0.0807 -0.0361,-0.23348 -0.12684,-0.24211 -0.3447,-0.0328 -1.82544,0.88237 -1.09202,0.43482 2.60162,-1.58757 1.43873,-0.84921 0.65969,0.0734 -0.22162,0.51798 -0.61778,0.93084 -0.8844,1.42089 -0.1461,0.26854 -0.22725,0.56832 -0.36293,0.84229 -0.17915,0.36177 -0.42894,0.68874 -0.58049,1.06291 -0.14312,0.35329 -0.19648,0.7366 -0.29734,1.1042 -0.1319,0.48085 -0.26726,0.96075 -0.4009,1.44113 -0.43397,1.25357 -0.57811,2.58167 -0.94618,3.85135 -0.24987,0.86202 -0.58277,1.69784 -0.86293,2.5505 -0.33409,1.01687 -0.64429,2.04149 -0.97976,3.05791 -0.38282,1.15992 -0.80915,2.30551 -1.17506,3.47089 -0.39717,1.26499 -0.74245,2.54569 -1.11369,3.81854 -0.48585,1.45771 -0.9335,2.92872 -1.45759,4.37313 -0.6028,1.66129 -1.34958,3.26916 -1.92206,4.94113 -2.28505,6.67359 -0.63791,3.33526 -3.07851,10.13888 -5.19994,14.49567 0.48911,-3.1143 -3.85649,10.70239 -5.48753,16.64127 1.96094,-6.03774 -3.16481,9.85502 -0.49218,1.52605 -1.04188,3.03335 -1.52199,4.56323 -0.32647,1.04023 -1.94368,6.78004 -2.36072,7.93171 -0.45572,1.25844 -1.04097,2.46613 -1.56144,3.6992 -0.80012,2.28539 -1.34919,4.0291 -2.35561,6.22631 -0.44545,0.97252 -1.04605,1.8715 -1.45841,2.85851 -0.29961,0.71716 -0.3842,1.51048 -0.669,2.23364 -0.3058,0.7765 -1.65666,3.28899 -2.07751,4.08591 -0.61862,1.49678 -1.40231,2.9113 -2.20109,4.31629 0,0 -1.97215,0.88726 -1.97215,0.88726 v 0 c 0.5453,-1.46995 1.20647,-2.87921 2.01925,-4.22508 2.78302,-6.43312 -1.62854,3.64249 1.93585,-4.01339 0.36083,-0.77502 0.63187,-1.58919 0.97705,-2.37131 0.41286,-0.93555 0.89397,-1.84032 1.29651,-2.78036 0.88728,-2.07205 1.56792,-4.22885 2.50023,-6.28289 1.66209,-4.78449 0.87024,-2.34378 2.36731,-7.32478 0.50612,-1.4682 1.15385,-2.88477 1.66685,-4.35058 0.52255,-1.49315 0.91855,-3.02853 1.43851,-4.52258 0.58121,-1.67004 1.34326,-3.27671 1.86396,-4.96659 0.48655,-1.579 0.7679,-3.21404 1.15187,-4.82106 0.64939,-1.78401 1.29138,-3.57072 1.94813,-5.35202 0.66471,-1.80285 1.40853,-3.57748 2.01625,-5.40032 0.56232,-1.68669 0.99436,-3.41405 1.49154,-5.12108 0.49913,-1.65865 0.94572,-3.33404 1.49746,-4.97595 0.55436,-1.64971 1.23116,-3.25588 1.81914,-4.89389 0.52496,-1.46243 1.01296,-2.93785 1.51945,-4.40678 0.41148,-1.29059 0.83061,-2.57879 1.23447,-3.87179 0.35351,-1.13174 0.64579,-2.28324 1.03759,-3.4023 0.37796,-1.07952 0.94821,-2.09009 1.26968,-3.18775 0.21627,-0.73843 0.16362,-1.5336 0.3329,-2.28419 1.65145,-7.32255 -0.0669,2.03283 0.97258,-3.87787 0.71245,-2.45408 0.10496,-0.51967 0.89038,-2.6702 0.0993,-0.27201 0.49096,-1.51805 0.65124,-1.79809 0.18751,-0.32762 0.45099,-0.60546 0.67646,-0.90818 0.11475,-0.21083 0.2295,-0.42165 0.34425,-0.63247 1.35851,-1.63888 3.25036,-2.88465 5.41417,-2.93025 0.38521,1.01245 -0.20674,-0.23027 0.7733,0.63271 0.14819,0.13049 0.11787,0.38883 0.24651,0.53867 0.15272,0.17793 0.39222,0.25938 0.56989,0.41242 0.39372,0.33918 0.6885,0.78501 1.12852,1.07564 0.66186,0.34058 1.2168,0.61311 1.85831,0.99844 0.33136,0.19904 0.62608,0.46201 0.97596,0.62631 1.38266,0.6493 2.97556,0.82423 4.31724,1.58645 1.39086,0.24787 2.76727,0.58359 4.1675,0.77134 0.83418,0.11184 1.67833,0.13066 2.51579,0.21448 0.7987,0.0799 1.58946,0.26898 2.3921,0.27677 1.86378,0.0181 4.16018,-0.38919 5.9948,-0.65719 0.95213,-0.22159 1.88809,-0.53028 2.85636,-0.66477 0.17833,-0.0248 0.33914,0.27417 0.50242,0.19827 0.85979,-0.39972 1.62769,-0.97863 2.38971,-1.54284 1.64524,-1.21817 3.55844,-2.87371 4.73628,-4.57794 0.5561,-0.80464 0.88577,-1.74418 1.32866,-2.61626 0.63034,-1.15175 1.38824,-2.24237 1.891,-3.45526 0.86043,-2.07579 1.42743,-5.42959 1.74501,-7.60548 0.65654,-4.49826 1.12718,-9.04273 0.2055,-13.54626 -0.32877,-3.365964 -0.53287,-6.649253 -1.33159,-9.953475 -0.60513,-2.503319 -2.50923,-7.448257 -3.2393,-9.883876 -0.52805,-1.761611 -0.83108,-3.587922 -1.403,-5.335778 -0.56304,-1.720702 -1.33056,-3.367627 -1.99583,-5.051441 -1.97083,-4.335888 -2.26333,-5.474123 -4.9217,-9.39837 -0.94166,-1.390081 -2.06473,-2.64882 -3.05806,-4.002484 -0.94027,-1.281409 -1.66687,-2.730201 -2.74158,-3.901168 -0.62722,-0.683402 -6.61427,-5.490778 -7.4008,-6.127906 -2.97026,-1.764337 -5.32495,-3.279851 -8.48931,-4.692568 -1.45494,-0.649562 -2.97281,-1.148072 -4.465,-1.706755 -1.38404,-0.518179 -2.74421,-1.111758 -4.16349,-1.523746 -2.05983,-0.597945 -6.59564,-1.36338 -8.73185,-1.749621 -0.97788,-0.162287 -6.28756,-1.060672 -7.43802,-1.188402 -1.12972,-0.125431 -2.26767,-0.161169 -3.4022,-0.230955 -2.8779,-0.177025 -5.75593,-0.256813 -8.63444,-0.01066 -0.71662,-0.04683 -1.43171,-0.142758 -2.14987,-0.140504 -0.75814,0.0024 -1.51212,0.114443 -2.2692,0.154376 -1.45926,0.07697 -2.95997,0.100534 -4.40957,-0.06624 0,0 2.08309,-1.513452 2.08309,-1.513452 z"
       inkscape:connector-curvature="0" />
    <path
       style="opacity:1;fill:#000000;fill-opacity:1;stroke:none;stroke-width:0.60000002;stroke-miterlimit:4;stroke-dasharray:none;stroke-opacity:1"
       id="path1474"
       d="m 254.21204,255.1592 c -1.24218,-0.0984 -1.86327,0.0504 -2.93935,0.70581 0.57191,-0.30167 2.2339,-1.59609 1.43337,-0.42588 -0.18529,0.27085 -0.45944,0.47957 -0.61591,0.76802 -0.36646,0.67556 -0.0705,0.69694 -0.14882,1.39086 -0.0331,0.2935 -0.13825,0.57433 -0.20738,0.8615 -0.0482,1.56096 -0.20112,0.19616 0.49253,1.3935 0.12564,0.21689 0.0839,0.50939 0.22236,0.71834 0.13194,0.19913 0.38906,0.28167 0.55444,0.45404 0.11417,0.11899 0.12915,0.33487 0.27547,0.41094 0.164,0.0853 0.36944,0.0136 0.55416,0.0204 0.74568,0.11644 1.20021,0.13338 -1.36059,0.87987 -0.20529,0.0598 0.29876,-0.30883 0.41952,-0.4853 0.15527,-0.22692 0.25447,-0.48846 0.4045,-0.71887 0.96079,-1.47557 0.60367,-0.48515 0.95306,-1.91972 0.4162,-1.44347 0.18278,-0.46182 0.41016,-1.92903 0.0529,-0.34161 0.18682,-0.67669 0.1751,-1.02218 -0.0101,-0.29839 -0.1624,-0.57465 -0.23904,-0.86321 -0.0776,-0.29205 -0.1,-0.60277 -0.22354,-0.87852 -0.12654,-0.28244 -0.34396,-0.51461 -0.51594,-0.77191 -0.0234,-0.0218 -1.4229,-1.33125 -1.45248,-1.34967 -0.32187,-0.20034 -0.71227,-0.26447 -1.051,-0.43476 -0.29283,-0.14722 -0.5378,-0.38264 -0.83774,-0.51479 -0.81164,-0.3576 -1.22575,-0.32022 -2.09409,-0.39492 -0.74247,0.0967 -1.36784,0.12888 -2.07059,0.39939 -0.36169,0.13923 -1.39204,0.68226 -1.04247,0.51491 2.10607,-1.00821 1.54227,-0.93149 0.53697,0.0911 -0.26564,0.27021 -0.49478,0.57403 -0.74217,0.86105 -0.66728,1.27785 -0.31311,0.34915 -0.51946,1.63343 -0.0503,0.31319 -0.22181,0.61539 -0.1949,0.93146 0.0218,0.25587 0.25958,0.44856 0.33331,0.69454 0.40301,1.34444 -0.29767,0.35172 0.63943,1.39199 0.66772,0.4878 1.36143,0.90777 2.12585,1.22439 0.2383,0.0987 0.49485,0.15435 0.72452,0.27175 0.16947,0.0866 0.27299,0.31619 0.46239,0.335 0.33935,0.0337 0.67028,-0.12613 1.00542,-0.18919 0.14644,-0.005 0.29944,0.0291 0.43931,-0.0146 0.2141,-0.0668 0.79483,-0.41591 0.59771,-0.30894 -0.63255,0.3433 -1.24635,0.72579 -1.90409,1.01794 -0.21942,0.0975 0.40108,-0.26734 0.57849,-0.42912 0.29398,-0.2681 0.41241,-0.52816 0.60843,-0.86366 0.15555,-0.19514 0.36714,-0.35657 0.46663,-0.58542 0.0506,-0.11645 -0.0351,-0.25157 -0.0479,-0.37789 -0.0129,-0.1277 -0.038,-0.25588 -0.0294,-0.38394 0.0285,-0.4216 0.14471,-0.57992 -0.0745,-0.95806 -0.002,-0.23135 -0.0988,-0.25873 -0.27426,-0.16589 0,0 1.94456,-1.37757 1.94456,-1.37757 v 0 c 0.89,-0.25085 -0.17308,0.13165 0.755,0.16861 0.0219,0.439 0.21653,1.18219 0.0859,1.59052 -0.0671,0.2097 -0.22513,0.37914 -0.32021,0.57773 -0.0746,0.15587 -0.12517,0.32216 -0.18775,0.48324 -0.16294,0.29966 -0.25585,0.6538 -0.49821,0.89381 -0.20728,0.20528 -0.45846,0.36227 -0.70341,0.52071 -1.21736,0.78746 -2.20115,1.78139 -3.63934,1.78487 -0.84957,-0.17664 -2.23181,-0.49991 -2.96183,-0.92076 -0.23241,-0.13398 -1.02741,-0.89296 -1.2134,-1.06562 -0.22381,-0.29695 -0.79654,-0.9975 -0.89795,-1.37177 -0.0801,-0.29559 0.0173,-0.61659 -0.037,-0.91798 -0.048,-0.2662 -0.26984,-0.49599 -0.26646,-0.76645 0.008,-0.62961 0.52569,-1.37775 0.81282,-1.88154 0.32179,-0.4309 0.92462,-1.3101 1.37807,-1.62815 2.19613,-1.54033 3.6887,-2.58348 6.27169,-2.69539 0.57271,0.0494 1.73615,0.0847 2.27051,0.38664 0.26728,0.15104 0.35629,0.52022 0.61488,0.68569 0.33631,0.21522 0.78614,0.20565 1.12008,0.42453 0.56541,0.37061 0.78255,1.14537 1.36058,1.50404 1.35695,1.47707 0.2049,-0.10008 0.70599,1.77285 0.0797,0.29777 0.39656,0.49973 0.4623,0.80088 0.0714,0.32705 -0.0436,0.6681 -0.0687,1.0019 -0.0958,1.26998 -0.0143,0.72203 -0.32227,1.95658 -0.69569,1.98436 -1.97775,5.31328 -4.82847,4.73058 -0.26794,0.005 -0.55535,0.11456 -0.80381,0.0141 -0.16947,-0.0685 -0.18239,-0.31887 -0.29884,-0.45976 -0.16445,-0.19895 -0.94264,-0.90569 -1.04536,-1.12432 -0.19148,-0.40752 -0.13459,-1.27492 -0.13119,-1.69322 -0.0639,-0.23818 -0.1906,-0.46793 -0.19163,-0.71452 -0.003,-0.69685 0.35018,-1.12159 0.66142,-1.70765 0.12156,-0.22889 0.24527,-0.45697 0.35448,-0.69201 0.0752,-0.16192 0.0561,-0.38949 0.19821,-0.49761 0.81589,-0.6209 1.7366,-1.0904 2.60491,-1.63559 0.59266,-0.31866 1.09578,-0.5064 1.75138,-0.6508 0.23275,-0.0513 0.45978,-0.13872 0.69734,-0.15793 0.2488,-0.0201 0.48959,0.16242 0.74527,0.0731 0,0 -2.20697,1.60346 -2.20697,1.60346 z"
       inkscape:connector-curvature="0" />
  </g>
</svg>
