<?xml version="1.0" encoding="UTF-8" standalone="no"?>
<!-- Created with Inkscape (http://www.inkscape.org/) -->

<svg
   xmlns:dc="http://purl.org/dc/elements/1.1/"
   xmlns:cc="http://creativecommons.org/ns#"
   xmlns:rdf="http://www.w3.org/1999/02/22-rdf-syntax-ns#"
   xmlns:svg="http://www.w3.org/2000/svg"
   xmlns="http://www.w3.org/2000/svg"
   xmlns:sodipodi="http://sodipodi.sourceforge.net/DTD/sodipodi-0.dtd"
   xmlns:inkscape="http://www.inkscape.org/namespaces/inkscape"
   width="1920"
   height="1080"
   viewBox="0 0 508.00002 285.74999"
   version="1.1"
   id="svg8"
   inkscape:version="0.92.4 5da689c313, 2019-01-14"
   sodipodi:docname="035.svg">
  <defs
     id="defs2">
    <clipPath
       clipPathUnits="userSpaceOnUse"
       id="clipPath3044">
      <rect
         style="opacity:1;fill:#000000;fill-opacity:1;stroke:none;stroke-width:0.60000002;stroke-miterlimit:4;stroke-dasharray:none;stroke-opacity:1"
         id="rect3046"
         width="243.21527"
         height="226.00311"
         x="320.13846"
         y="134.60152" />
    </clipPath>
  </defs>
  <sodipodi:namedview
     id="base"
     pagecolor="#ffffff"
     bordercolor="#666666"
     borderopacity="1.0"
     inkscape:pageopacity="0.0"
     inkscape:pageshadow="2"
     inkscape:zoom="0.5"
     inkscape:cx="1081.091"
     inkscape:cy="601.95017"
     inkscape:document-units="mm"
     inkscape:current-layer="layer1"
     showgrid="false"
     units="px"
     inkscape:window-width="1920"
     inkscape:window-height="1080"
     inkscape:window-x="1366"
     inkscape:window-y="0"
     inkscape:window-maximized="0"
     showguides="true" />
  <metadata
     id="metadata5">
    <rdf:RDF>
      <cc:Work
         rdf:about="">
        <dc:format>image/svg+xml</dc:format>
        <dc:type
           rdf:resource="http://purl.org/dc/dcmitype/StillImage" />
        <dc:title></dc:title>
      </cc:Work>
    </rdf:RDF>
  </metadata>
  <g
     inkscape:label="Capa 1"
     inkscape:groupmode="layer"
     id="layer1"
     transform="translate(0,-11.250015)">
    <g
       aria-label="
"
       transform="matrix(0.64161387,0,0,0.64161387,45.073958,-44.883307)"
       style="font-style:normal;font-variant:normal;font-weight:normal;font-stretch:normal;font-size:40px;line-height:1.25;font-family:'InconsolataGo Nerd Font';-inkscape-font-specification:'InconsolataGo Nerd Font';letter-spacing:0px;word-spacing:0px;fill:#ff7800;fill-opacity:1;stroke:none"
       id="flowRoot1898">
      <path
         d="m 53.72,155.355 q 0,0.92 0.8,1.48 l 5.84,3.52 H 44.52 q -1,0 -1.72,0.72 -0.72,0.68 -0.72,1.8 0,1.08 0.68,1.8 0.72,0.68 1.76,0.68 h 9.84 l -10.64,6.64 q -1,0.64 -1.36,1.52 -0.36,0.84 -0.36,1.84 0.08,1.32 0.92,2.32 0.88,0.96 2.44,1.04 0.84,-0.08 1.68,-0.52 0.88,-0.48 1.68,-1.2 l 3.28,-2.64 q 0.4,5.4 4.12,9 3.76,3.56 9.24,3.64 5.72,-0.08 9.44,-3.84 3.76,-3.8 3.92,-9.44 -0.08,-3.76 -1.84,-6.72 -1.76,-2.96 -4.72,-4.76 l -0.4,-0.24 q -3.84,-2.56 -7.52,-4.36 -3.64,-1.8 -7.96,-3.76 -0.56,-0.16 -0.92,-0.16 -0.8,0 -1.24,0.48 -0.4,0.44 -0.4,1.16 z m 11.64,10 q 3.52,0.08 5.88,2.44 2.4,2.32 2.48,5.92 -0.08,3.52 -2.48,5.88 -2.36,2.32 -5.88,2.4 -3.52,-0.08 -5.92,-2.4 -2.36,-2.36 -2.44,-5.88 0.08,-3.6 2.44,-5.92 2.4,-2.36 5.92,-2.44 z m 0,2.48 q -2.48,0.08 -4.16,1.72 -1.64,1.64 -1.64,4.12 0,2.48 1.64,4.16 1.64,1.68 4.16,1.68 2.52,0 4.16,-1.68 1.64,-1.68 1.64,-4.16 0,-2.48 -1.68,-4.12 -1.64,-1.64 -4.12,-1.72 z"
         id="path1929"
         inkscape:connector-curvature="0"
         style="fill:#ff7800;fill-opacity:1" />
    </g>
    <g
       aria-label=""
       style="font-style:normal;font-weight:normal;font-size:10.58333302px;line-height:1.25;font-family:sans-serif;letter-spacing:0px;word-spacing:0px;fill:#1793d1;fill-opacity:1;stroke:none;stroke-width:0.26458332"
       id="text1910"
       transform="matrix(5.3840659,0,0,5.3840659,-94.51734,-309.95804)">
      <path
         d="m 45.116749,79.544264 q 0.04233,0.08467 0.15875,0.359834 0.116417,0.275166 0.148167,0.359833 0.03175,0.07408 0.137583,0.328083 0.105833,0.243417 0.169333,0.381 0.0635,0.137584 0.201084,0.423334 0.148166,0.275166 0.28575,0.550333 0.148166,0.264583 0.34925,0.656167 0.201083,0.391583 0.455083,0.846666 -0.275167,-0.15875 -0.6985,-0.264583 0.15875,0.08467 0.296333,0.179917 0.148167,0.08467 0.22225,0.137583 0.07408,0.04233 0.201084,0.148167 0.127,0.09525 0.148166,0.127 0.328084,0.592666 0.423333,0.783166 -1.206499,-0.6985 -1.957916,-0.846666 0.03175,-0.127 0.03175,-0.264584 0.01058,-0.381 -0.15875,-0.66675 -0.15875,-0.296333 -0.391583,-0.306916 -0.232834,-0.02117 -0.402167,0.232833 -0.169333,0.254 -0.1905,0.635 v 0.03175 q 0,0.169333 0.04233,0.338667 -0.762,0.148166 -1.989666,0.846666 1.344083,-2.402416 1.830916,-3.429 0.264584,0.232834 0.719667,0.41275 -0.338667,-0.243416 -0.645583,-0.560916 0.169333,-0.34925 0.613833,-1.439334 z m 2.518833,4.572 v -0.148166 h -0.04233 v 0 h 0.127 v 0 h -0.0635 v 0.148166 z m 0.105833,0 v -0.148166 h 0.04233 l 0.02117,0.105833 q 0.01058,0.02117 0.01058,0.02117 0,0 0.01058,-0.02117 l 0.03175,-0.105833 h 0.03175 v 0.148166 h -0.02117 v -0.127 l -0.04233,0.127 h -0.02117 l -0.04233,-0.127 v 0.127 h -0.02117 z"
         style="fill:#1793d1;fill-opacity:1;stroke-width:0.26458332"
         id="path1926"
         inkscape:connector-curvature="0" />
    </g>
    <g
       aria-label=""
       style="font-style:normal;font-weight:normal;font-size:10.58333302px;line-height:1.25;font-family:sans-serif;letter-spacing:0px;word-spacing:0px;fill:#bd2c00;fill-opacity:1;stroke:none;stroke-width:0.26458332"
       id="text1914"
       transform="matrix(7.4346798,0,0,7.4346798,-424.37383,-661.7133)">
      <path
         d="m 72.379414,118.19459 1.545166,-1.54516 0.4445,0.45508 q -0.05292,0.17992 0.01058,0.34925 0.07408,0.15875 0.232833,0.24342 v 1.4605 q -0.127,0.0847 -0.201083,0.20108 -0.0635,0.11642 -0.0635,0.26458 0.01058,0.22225 0.15875,0.381 0.148166,0.14817 0.370416,0.14817 0.22225,0 0.370417,-0.14817 0.148167,-0.15875 0.15875,-0.381 0,-0.14816 -0.07408,-0.26458 -0.0635,-0.127 -0.1905,-0.20108 v -1.27 l 0.53975,0.53975 q -0.01058,0.0635 -0.01058,0.13758 0,0.22225 0.15875,0.37042 0.15875,0.14816 0.381,0.14816 0.22225,0 0.370417,-0.14816 0.148166,-0.14817 0.148166,-0.37042 0,-0.22225 -0.148166,-0.37042 -0.148167,-0.14816 -0.370417,-0.15875 -0.07408,0 -0.137583,0.0212 l -0.687917,-0.67733 q 0.05292,-0.1905 -0.03175,-0.35984 -0.08467,-0.17991 -0.264583,-0.254 -0.169333,-0.0741 -0.34925,-0.0423 l -0.4445,-0.4445 0.211667,-0.21167 q 0.15875,-0.14816 0.370416,-0.14816 0.211667,0 0.370417,0.14816 l 2.12725,2.12725 q 0.148166,0.15875 0.148166,0.37042 0,0.21167 -0.148166,0.37042 l -2.12725,2.12725 q -0.15875,0.14816 -0.370417,0.14816 -0.211666,0 -0.370416,-0.14816 l -2.12725,-2.12725 q -0.148167,-0.15875 -0.148167,-0.37042 0,-0.21167 0.148167,-0.37042 z"
         style="fill:#bd2c00;fill-opacity:1;stroke-width:0.26458332"
         id="path1923"
         inkscape:connector-curvature="0" />
    </g>
    <g
       aria-label=""
       style="font-style:normal;font-weight:normal;font-size:10.58333302px;line-height:1.25;font-family:sans-serif;letter-spacing:0px;word-spacing:0px;fill:#008829;fill-opacity:1;stroke:none;stroke-width:0.26458332"
       id="text1918"
       transform="matrix(4.2785641,0,0,4.2785641,-80.328787,-282.38722)">
      <path
         d="m 31.270032,103.24182 q 0.01058,0.0212 0.03175,0.0318 0.02117,0.0106 0.03175,0.0106 h 0.370416 q 0.01058,0 0.03175,-0.0106 0.02117,-0.0106 0.03175,-0.0318 l 0.09525,-0.10583 q 0.01058,0 0.01058,-0.0106 0.01058,-0.0106 0.01058,-0.0318 l 0.09525,-0.33867 q 0.01058,-0.0423 0,-0.0635 0,-0.0212 -0.02117,-0.0423 l -0.0635,-0.0635 q -0.01058,0 -0.03175,0 -0.02117,0 -0.03175,0 h -0.34925 l -0.02117,-0.0212 q -0.01058,0 -0.02117,0 0,0 -0.01058,0 l -0.127,0.0847 q -0.01058,0 -0.02117,0.0212 0,0.0212 -0.01058,0.0423 l -0.116417,0.33866 q -0.01058,0.0212 -0.01058,0.0529 0.01058,0.0318 0.03175,0.0529 l 0.09525,0.0847 z m 0.05292,1.8415 h -0.02117 -0.08467 l 0.497417,-1.4605 q 0.01058,-0.0423 -0.01058,-0.0741 -0.01058,-0.0317 -0.04233,-0.0529 h -0.03175 -0.836083 q -0.03175,0 -0.05292,0.0212 -0.01058,0.0212 -0.02117,0.0423 l -0.05292,0.1905 q -0.01058,0.0212 0.01058,0.0529 0.03175,0.0318 0.0635,0.0529 l 0.02117,-0.0212 h 0.127 l -0.508,1.43933 q -0.01058,0.0423 0,0.0847 0.02117,0.0423 0.0635,0.0635 l 0.02117,0.0212 h 0.772584 q 0.03175,0 0.05292,-0.0318 0.03175,-0.0318 0.04233,-0.0529 l 0.05292,-0.16933 q 0.01058,-0.0212 -0.01058,-0.0635 -0.01058,-0.0423 -0.05292,-0.0423 v 0 z m 3.672417,-1.37583 -0.127,-0.16933 v 0 q -0.01058,-0.0212 -0.03175,-0.0318 -0.01058,-0.0106 -0.03175,-0.0106 h -0.508 q -0.02117,0 -0.04233,0.0106 -0.01058,0.0106 -0.02117,0.0318 l -0.137583,0.16933 h -0.22225 l -0.148167,-0.16933 v -0.0212 q -0.01058,-0.0212 -0.03175,-0.0212 -0.01058,0 -0.03175,0 h -0.275167 l 1.397,-1.397 -1.55575,-1.56633 1.386417,-1.439333 v -0.613833 l -0.1905,-0.254 h -2.82575 l -0.232833,0.254 v 0.1905 l -0.783167,-0.783167 -0.529167,0.508 -0.169333,-0.169333 h -2.794 l -0.22225,0.254 v 0.656166 l 0.201084,0.211667 h 0.211666 v 1.799163 l -0.963083,0.9525 0.963083,0.97367 v 2.2225 l 0.359833,0.21167 h 0.804334 l 0.635,-0.67734 1.49225,1.50284 1.005416,-0.99484 q 0,0.0212 0.01058,0.0212 0.02117,0 0.05292,0.0212 l 0.02117,-0.0212 h 0.656167 q 0.03175,0 0.05292,0 0.02117,0 0.02117,-0.0423 l 0.05292,-0.127 q 0.01058,-0.0423 -0.01058,-0.0635 -0.01058,-0.0212 -0.04233,-0.0423 h -0.03175 -0.02117 l 0.232834,-0.74083 0.15875,-0.14817 h 0.34925 l -0.34925,1.10067 q -0.01058,0.0212 0.01058,0.0529 0.02117,0.0318 0.04233,0.0318 h 0.03175 0.635 q 0.03175,0 0.05292,-0.0106 0.02117,-0.0106 0.03175,-0.0317 l 0.05292,-0.127 q 0.02117,-0.0423 0,-0.0741 -0.01058,-0.0318 -0.04233,-0.0318 -0.01058,-0.0212 -0.02117,-0.0106 -0.01058,0.0106 -0.02117,0.0106 h -0.02117 l 0.28575,-0.91017 h 0.423334 l -0.359834,1.10067 q -0.01058,0.0423 0.01058,0.0635 0.02117,0.0212 0.0635,0.0212 l 0.02117,-0.0212 h 0.687917 q 0.03175,0 0.05292,0 0.02117,0 0.03175,-0.0423 l 0.0635,-0.127 q 0.01058,-0.0423 -0.01058,-0.0635 -0.01058,-0.0212 -0.05292,-0.0423 0,0 -0.01058,0 -0.01058,0 -0.02117,0 h -0.05292 l 0.391583,-1.27 q 0.01058,-0.0212 0,-0.0529 0,-0.0317 -0.01058,-0.0529 v 0 z m -4.41325,-5.693833 0.783167,0.783167 v 0.317499 l 0.232833,0.296334 h 0.116417 l -2.010834,1.926163 v -1.926163 h 0.232834 l 0.1905,-0.296334 V 98.50049 l -0.01058,-0.02117 0.465667,-0.465667 z m -4.138083,4.085163 0.836083,-0.8255 v 1.67217 z m 2.69875,2.667 4.042833,-4.14866 1.471083,1.48166 -1.397,1.397 h -0.01058 q -0.01058,0 -0.02117,0.0106 0,0.0106 -0.01058,0.0318 l -0.15875,0.16933 h -0.201083 l -0.148167,-0.16933 q -0.01058,-0.0212 -0.03175,-0.0318 -0.01058,-0.0106 -0.03175,-0.0106 h -0.613833 q -0.03175,0 -0.0635,0.0106 -0.02117,0.0106 -0.03175,0.0529 l -0.04233,0.16934 q -0.01058,0.0423 0,0.0741 0.01058,0.0318 0.04233,0.0529 h 0.105833 l -0.4445,1.29116 -1.037167,1.05834 -1.418166,-1.43934 z"
         style="font-style:normal;font-variant:normal;font-weight:normal;font-stretch:normal;font-family:'InconsolataGo Nerd Font';-inkscape-font-specification:'InconsolataGo Nerd Font';fill:#008829;fill-opacity:1;stroke-width:0.26458332"
         id="path1920"
         inkscape:connector-curvature="0" />
    </g>
    <flowRoot
       xml:space="preserve"
       id="flowRoot1958"
       style="font-style:normal;font-weight:normal;font-size:40px;line-height:1.25;font-family:sans-serif;letter-spacing:0px;word-spacing:0px;fill:#000000;fill-opacity:1;stroke:none"
       transform="matrix(0.26458333,0,0,0.26458333,17.4625,94.329182)"><flowRegion
         id="flowRegion1960"><rect
           id="rect1962"
           width="1258"
           height="378"
           x="686"
           y="160" /></flowRegion><flowPara
         id="flowPara1964">Repositorio de Github: <flowSpan
   style="font-style:normal;font-variant:normal;font-weight:normal;font-stretch:normal;font-family:'InconsolataGo Nerd Font';-inkscape-font-specification:'InconsolataGo Nerd Font'"
   id="flowSpan1966">https://github.com/otreblan/comu2</flowSpan></flowPara></flowRoot>  </g>
</svg>
