<?xml version="1.0" encoding="UTF-8" standalone="no"?>
<!-- Created with Inkscape (http://www.inkscape.org/) -->

<svg
   xmlns:dc="http://purl.org/dc/elements/1.1/"
   xmlns:cc="http://creativecommons.org/ns#"
   xmlns:rdf="http://www.w3.org/1999/02/22-rdf-syntax-ns#"
   xmlns:svg="http://www.w3.org/2000/svg"
   xmlns="http://www.w3.org/2000/svg"
   xmlns:sodipodi="http://sodipodi.sourceforge.net/DTD/sodipodi-0.dtd"
   xmlns:inkscape="http://www.inkscape.org/namespaces/inkscape"
   width="1920"
   height="1080"
   viewBox="0 0 508.00002 285.74999"
   version="1.1"
   id="svg8"
   inkscape:version="0.92.4 5da689c313, 2019-01-14"
   sodipodi:docname="dibujo10.svg">
  <defs
     id="defs2" />
  <sodipodi:namedview
     id="base"
     pagecolor="#ffffff"
     bordercolor="#666666"
     borderopacity="1.0"
     inkscape:pageopacity="0.0"
     inkscape:pageshadow="2"
     inkscape:zoom="0.5"
     inkscape:cx="981.09804"
     inkscape:cy="694.37264"
     inkscape:document-units="mm"
     inkscape:current-layer="layer1"
     showgrid="false"
     units="px"
     inkscape:window-width="1366"
     inkscape:window-height="768"
     inkscape:window-x="0"
     inkscape:window-y="0"
     inkscape:window-maximized="0"
     showguides="true" />
  <metadata
     id="metadata5">
    <rdf:RDF>
      <cc:Work
         rdf:about="">
        <dc:format>image/svg+xml</dc:format>
        <dc:type
           rdf:resource="http://purl.org/dc/dcmitype/StillImage" />
        <dc:title></dc:title>
      </cc:Work>
    </rdf:RDF>
  </metadata>
  <g
     inkscape:label="Capa 1"
     inkscape:groupmode="layer"
     id="layer1"
     transform="translate(0,-11.250015)">
    <path
       style="fill:none;fill-opacity:1;stroke:#0e0a08;stroke-width:3;stroke-miterlimit:4;stroke-dasharray:none;stroke-opacity:1"
       d="m 112.71249,104.38335 c -6.24083,0 2.06928,0.17112 -4.23333,-0.52917 -0.87654,-0.0974 -1.7639,0 -2.64583,0 -2.99861,0 -5.997237,0 -8.995837,0 -1.7639,0 -3.53856,0.19479 -5.29166,0 -1.44566,-0.16063 -2.79342,-0.85263 -4.23334,-1.05833 -0.52385,-0.0748 -1.06553,0.087 -1.5875,0 -1.1004,-0.1834 -2.08108,-0.83955 -3.175,-1.05834 -0.34591,-0.0692 -0.71241,0.0692 -1.05833,0 -1.75504,-0.351 -1.23473,-0.49389 -2.64583,-1.05833 -1.0358,-0.41432 -2.13921,-0.64402 -3.175,-1.05833 -0.36621,-0.14649 -0.69213,-0.38269 -1.05834,-0.52917 -1.55101,-0.6204 -3.21148,-0.9671 -4.7625,-1.5875 -1.76249,-0.705 -3.52708,-1.41084 -5.29166,-2.11667 -0.36621,-0.14648 -0.70557,-0.35277 -1.05834,-0.52916 -0.52916,0 -1.07413,0.12834 -1.5875,0 -0.24201,-0.0605 -0.29252,-0.45029 -0.52916,-0.52917 -0.66935,-0.22312 -1.44733,0.22311 -2.11667,0 -0.23664,-0.0789 -0.30604,-0.41761 -0.52917,-0.52917 -0.31554,-0.15776 -0.74279,0.15777 -1.05833,0 -0.22312,-0.11156 -0.30604,-0.4176 -0.52917,-0.52916 -0.70556,-0.35278 -0.52916,0.52916 -0.52916,-0.52917"
       id="path5325"
       inkscape:connector-curvature="0" />
    <path
       style="fill:none;fill-opacity:1;stroke:#0e0a08;stroke-width:3;stroke-miterlimit:4;stroke-dasharray:none;stroke-opacity:1"
       d="m 129.64582,106.50001 c 12.84198,-7.33827 -3.16891,1.58446 6.35,-3.175 0.91993,-0.45996 1.7095,-1.16189 2.64584,-1.5875 5.43338,-2.46971 0.98356,0.30197 5.82083,-2.11666 0.91993,-0.45997 1.7259,-1.12754 2.64583,-1.5875 1.75303,-0.87652 4.00971,-1.45808 5.82084,-2.11667 3.86209,-1.4044 1.6497,-0.74986 5.82083,-2.64583 1.72948,-0.78613 3.63098,-1.19406 5.29167,-2.11667 0.77097,-0.42831 1.38284,-1.09829 2.11666,-1.5875 3.70753,-2.47169 1.47077,-0.67258 4.23334,-2.64583 0.71765,-0.51262 1.36877,-1.12007 2.11666,-1.5875 0.66892,-0.41808 1.43177,-0.66697 2.11667,-1.05834 2.5082,-1.43326 0.78711,-0.65591 3.175,-2.64583 0.58695,-1.00126 1.84269,-0.94499 2.64583,-1.5875 3.50542,-3.50542 0.0543,-0.38899 2.64584,-2.11667 0.20756,-0.13837 0.30604,-0.4176 0.52916,-0.52916 0.15778,-0.0789 0.3714,0.0789 0.52917,0 1.20356,-0.60179 -0.24598,-1.05834 1.05833,-1.05834"
       id="path5327"
       inkscape:connector-curvature="0" />
    <path
       style="fill:none;fill-opacity:1;stroke:#0e0a08;stroke-width:3;stroke-miterlimit:4;stroke-dasharray:none;stroke-opacity:1"
       d="m 56.620833,92.74168 c 0.17639,1.5875 0.1089,3.22151 0.52916,4.7625 0.17828,0.6537 2.33834,1.87067 2.64584,2.11667 0.97395,0.77915 1.76389,1.76389 2.64583,2.64583 1.05833,1.05833 2.11667,2.11667 3.175,3.175 0.70556,0.70556 1.49333,1.33751 2.11667,2.11667 0.39729,0.49661 0.66103,1.09088 1.05833,1.5875 0.76843,0.96052 1.90791,1.66193 2.64583,2.64583 0.23665,0.31553 0.25027,0.77944 0.52917,1.05833 0.2789,0.2789 0.83955,0.20099 1.05833,0.52917 0.19569,0.29353 -0.11155,0.72366 0,1.05833 0.21902,0.6571 1.67413,1.29247 2.11667,1.5875 0.4151,0.27674 0.61211,0.83522 1.05833,1.05834 0.72991,0.36495 0.47332,-0.64085 1.05834,0.52916 0.0789,0.15777 -0.12473,0.40444 0,0.52917 0.0241,0.024 2.39633,0 2.64583,0"
       id="path5329"
       inkscape:connector-curvature="0" />
    <path
       style="fill:none;fill-opacity:1;stroke:#0e0a08;stroke-width:3;stroke-miterlimit:4;stroke-dasharray:none;stroke-opacity:1"
       d="m 185.20832,76.33751 c -1.05833,1.5875 -2.25552,3.09074 -3.175,4.7625 -2.4104,4.38259 -3.79909,9.20945 -5.82083,13.75834 -0.64074,1.44169 -1.56271,2.75611 -2.11667,4.23333 -0.25534,0.68096 -0.27381,1.4357 -0.52916,2.11667 -1.39158,3.71087 -0.5814,0.63363 -2.11667,3.70416 -0.24945,0.49891 -0.322,1.06961 -0.52917,1.5875 -0.35276,0.88195 -0.70556,1.76389 -1.05833,2.64584 -0.43794,1.09482 -1.14956,2.08017 -1.5875,3.175 -0.20717,0.51789 -0.322,1.0696 -0.52917,1.5875 -0.29297,0.73241 -0.80888,1.36831 -1.05833,2.11666 -0.52509,1.57524 1.25299,-1.08574 -0.52917,1.5875 -0.13837,0.20756 -0.41761,0.30605 -0.52916,0.52917 -0.0789,0.15777 0.12472,0.40444 0,0.52917 -0.12473,0.12472 -0.40444,-0.12473 -0.52917,0 -0.12472,0.12472 0.12473,0.40444 0,0.52916 -0.12472,0.12473 -0.40444,-0.12472 -0.52917,0 -0.12472,0.12473 0.12473,0.40444 0,0.52917 -0.12472,0.12472 -0.40444,-0.12473 -0.52916,0 -0.12473,0.12472 0.12472,0.40444 0,0.52917 -0.12473,0.12472 -0.40444,-0.12473 -0.52917,0 -0.12472,0.12472 0.15777,0.45028 0,0.52916 -0.31554,0.15777 -0.74279,-0.15776 -1.05833,0 -0.15777,0.0789 0.15777,0.45029 0,0.52917 -0.31554,0.15777 -0.7161,-0.0856 -1.05834,0 -0.76528,0.19132 -1.35138,0.86701 -2.11666,1.05833 -0.34224,0.0856 -0.7161,-0.0856 -1.05834,0 -0.76528,0.19132 -1.36831,0.80888 -2.11666,1.05834 -0.16735,0.0558 -0.35277,0 -0.52917,0 -0.35277,0.17639 -0.68416,0.40444 -1.05833,0.52916 -0.62238,0.20746 -2.91476,0 -3.70417,0"
       id="path5331"
       inkscape:connector-curvature="0" />
    <path
       style="fill:none;fill-opacity:1;stroke:#0e0a08;stroke-width:3;stroke-miterlimit:4;stroke-dasharray:none;stroke-opacity:1"
       d="m 102.65833,130.31251 c -2.07534,0.94229 -2.793657,1.73533 -4.233337,3.175 -0.35277,0.35278 -0.83521,0.6121 -1.05833,1.05834 -0.15777,0.31553 0.15777,0.7428 0,1.05833 -0.11155,0.22311 -0.41762,0.30605 -0.52917,0.52917 -0.0789,0.15776 0,0.35277 0,0.52916 0,0.17639 -0.0789,0.3714 0,0.52917 0.11155,0.22311 0.41762,0.30605 0.52917,0.52917 0.0789,0.15776 -0.0789,0.3714 0,0.52916 0.11155,0.22312 0.41762,0.30605 0.52917,0.52917 0.0789,0.15776 -0.0789,0.3714 0,0.52917 0.11154,0.22311 0.41761,0.30605 0.52916,0.52916 0.36497,0.72991 -0.64085,0.47333 0.52917,1.05834 0.53123,0.26561 2.631357,-0.27182 3.174997,0 0.22312,0.11155 0.30604,0.4176 0.52917,0.52916 0.67045,0.33523 1.61636,-0.36239 2.11666,-0.52916 0.33467,-0.11156 0.72366,0.11155 1.05834,0 2.99809,-1.49905 -0.78883,0.19721 2.11666,-0.52917 0.38264,-0.0957 0.67157,-0.45182 1.05834,-0.52917 0.86481,-0.17296 1.78101,0.17297 2.64583,0 0.54695,-0.10939 1.04055,-0.41977 1.5875,-0.52916 0.69186,-0.13838 1.44732,0.22311 2.11667,0 0.23664,-0.0789 0.29252,-0.45029 0.52916,-0.52917 0.50202,-0.16734 1.11419,0.23665 1.5875,0 0.22312,-0.11156 0.30605,-0.41761 0.52917,-0.52917 0.7299,-0.36495 0.47331,0.64085 1.05833,-0.52916 0.18066,-0.36134 0,-1.61906 0,-2.11667 0,-0.70556 0.22312,-1.44732 0,-2.11667 -0.0789,-0.23665 -0.39079,-0.32161 -0.52916,-0.52916 -0.21879,-0.32818 -0.31039,-0.73016 -0.52917,-1.05834 -0.24053,-0.36078 -1.75982,-1.93824 -2.11667,-2.11666 -0.1197,-0.0598 -5.05103,-0.12032 -5.29166,0 -1.75504,1.75502 0.49889,-0.24946 -1.05834,0.52916 -1.75503,1.75503 0.4989,-0.24945 -1.05833,0.52917 -0.22312,0.11156 -0.30604,0.41761 -0.52917,0.52917 -0.15777,0.0789 -0.35277,0 -0.52916,0 -0.1764,0 -0.40445,0.12472 -0.52917,0 -0.12473,-0.12473 0.12472,-0.40445 0,-0.52917 -0.12473,-0.12473 -0.3714,0.0789 -0.52917,0 -0.22312,-0.11156 -0.29252,-0.45028 -0.52916,-0.52917 -0.33468,-0.11156 -0.70557,0 -1.05834,0 -0.70556,0 -1.4111,0 -2.11666,0 z"
       id="path5333"
       inkscape:connector-curvature="0" />
    <path
       style="fill:none;fill-opacity:1;stroke:#0e0a08;stroke-width:3;stroke-miterlimit:4;stroke-dasharray:none;stroke-opacity:1"
       d="m 79.904163,118.14168 c -1.21722,2.89979 -2.75437,4.34186 -4.7625,6.35 -0.35277,0.35278 -0.80166,0.63053 -1.05833,1.05833 -0.62241,1.03734 -1.25561,4.13008 -1.5875,5.29167 -0.15325,0.53633 -0.43747,1.0373 -0.52917,1.5875 -0.087,0.52197 0.0748,1.06365 0,1.5875 -0.18161,1.27122 -0.87672,2.43294 -1.05833,3.70417 -0.0998,0.69846 0.0998,1.4182 0,2.11666 -0.15778,1.10437 -0.87493,2.0746 -1.05834,3.175 -0.087,0.52197 0.087,1.06554 0,1.5875 -0.0917,0.5502 -0.43746,1.0373 -0.52916,1.5875 -0.18651,1.11907 0,2.54251 0,3.70417 0,0.35278 -0.24945,0.80888 0,1.05833 0.24944,0.24945 0.71609,-0.0856 1.05833,0 0.70556,0.17639 1.46619,0.85441 2.11667,0.52917 0.22312,-0.11156 0.30604,-0.41761 0.52916,-0.52917 0.15777,-0.0789 0.36182,0.0558 0.52917,0 0.37417,-0.12472 0.68416,-0.40444 1.05833,-0.52916 0.16735,-0.0558 0.3714,0.0789 0.52917,0 0.22312,-0.11156 0.3216,-0.3908 0.52917,-0.52917 0.32816,-0.21878 0.73017,-0.31038 1.05833,-0.52917 0.84571,-0.5638 1.81734,-2.23158 2.64583,-2.64583 0.15777,-0.0789 0.40444,0.12472 0.52917,0 0.12472,-0.12473 -0.0789,-0.3714 0,-0.52917 0.11155,-0.22311 0.41762,-0.30605 0.52917,-0.52916 0.0789,-0.15777 -0.0789,-0.37141 0,-0.52917 1.10114,-2.20227 -0.0365,0.5657 1.05833,-0.52917 0.12472,-0.12472 -0.0789,-0.3714 0,-0.52916 1.10114,-2.20227 -0.0365,0.56569 1.05833,-0.52917 0.12473,-0.12473 -0.0789,-0.3714 0,-0.52917 0.11155,-0.22311 0.41762,-0.30605 0.52917,-0.52916 0.0789,-0.15777 -0.0789,-0.37141 0,-0.52917 0.11155,-0.22312 0.45029,-0.29252 0.52917,-0.52917 0.16734,-0.50201 -0.23665,-1.1142 0,-1.5875 0.11154,-0.22311 0.41761,-0.30605 0.52916,-0.52916 0.0789,-0.15777 -0.0789,-0.37141 0,-0.52917 0.11155,-0.22312 0.41762,-0.30605 0.52917,-0.52917 0.15616,-0.31229 0,-1.23183 0,-1.5875"
       id="path5341"
       inkscape:connector-curvature="0" />
    <path
       style="fill:none;fill-opacity:1;stroke:#0e0a08;stroke-width:3;stroke-miterlimit:4;stroke-dasharray:none;stroke-opacity:1"
       d="m 155.57499,123.43335 c 5.74553,-0.40974 5.53717,0.7332 8.99583,2.11666 0.5179,0.20716 1.06961,0.32201 1.5875,0.52917 0.36621,0.14648 0.6757,0.43351 1.05834,0.52917 0.34224,0.0856 0.73078,-0.13102 1.05833,0 0.5905,0.23619 1.04214,0.73112 1.5875,1.05833 0.33822,0.20293 0.73017,0.31038 1.05833,0.52917 0.20757,0.13837 0.32161,0.39079 0.52917,0.52916 0.32816,0.21879 0.77944,0.25027 1.05833,0.52917 0.2789,0.27889 0.25027,0.77944 0.52917,1.05833 2.06521,2.0652 0.28419,-0.12249 1.5875,0.52917 2.20226,1.10113 -0.5657,-0.0365 0.52917,1.05833 0.12472,0.12473 0.37139,-0.0789 0.52916,0 2.20226,1.10113 -0.5657,-0.0365 0.52917,1.05834 0.12473,0.12472 0.40444,-0.12473 0.52917,0 0.12472,0.12472 0,0.35277 0,0.52916 0,0.17639 0.0789,0.3714 0,0.52917 -0.11155,0.22311 -0.41762,0.30605 -0.52917,0.52917 -0.0789,0.15776 0.0789,0.3714 0,0.52916 -0.11155,0.22312 -0.41762,0.30605 -0.52917,0.52917 -0.0789,0.15777 0.12473,0.40444 0,0.52917 -0.24944,0.24945 -0.74279,-0.15777 -1.05833,0 -0.22312,0.11155 -0.30604,0.4176 -0.52917,0.52916 -0.15777,0.0789 -0.37139,-0.0789 -0.52916,0 -0.22313,0.11156 -0.30605,0.41761 -0.52917,0.52917 -0.33568,0.16784 -2.16924,0 -2.64583,0"
       id="path5343"
       inkscape:connector-curvature="0" />
    <path
       style="fill:none;fill-opacity:1;stroke:#0e0a08;stroke-width:3;stroke-miterlimit:4;stroke-dasharray:none;stroke-opacity:1"
       d="m 84.666663,136.66251 c 0.52917,1.5875 1.10665,3.1597 1.5875,4.7625 0.18558,0.61857 0,1.4633 0,2.11667 0,1.5875 0,3.175 0,4.7625 0,0.38305 0.16206,2.85089 0,3.175 -0.11155,0.22311 -0.41762,0.30605 -0.52917,0.52917 -0.0789,0.15776 0.0789,0.3714 0,0.52916 -0.11155,0.22312 -0.39079,0.32161 -0.52916,0.52917 -0.43757,0.65635 -0.58502,1.4856 -1.05834,2.11667 -0.29935,0.39912 -0.80166,0.63052 -1.05833,1.05833 -0.58518,0.97532 -1.00232,3.25801 -1.5875,4.23333 -0.25667,0.42781 -0.75898,0.65921 -1.05833,1.05834 -0.38484,0.51313 -0.96132,2.16074 -1.05834,2.64583 -0.32729,1.63649 0.52369,0.53737 -0.52916,2.11667 -0.38918,0.58375 -1.27493,0.96236 -1.5875,1.5875 -0.28224,0.56444 0.28223,1.55222 0,2.11666 -0.11155,0.22312 -0.41762,0.30605 -0.52917,0.52917 -0.0789,0.15776 0.0558,0.36183 0,0.52917 -0.12473,0.37417 -0.40444,0.68415 -0.52917,1.05833 -0.0558,0.16734 0.0558,0.36183 0,0.52917 -0.12472,0.37417 -0.40444,0.68415 -0.52916,1.05833 -0.0558,0.16734 0.0789,0.3714 0,0.52917 -0.11155,0.22311 -0.41762,0.30605 -0.52917,0.52916 -0.15777,0.31554 0.24945,0.80888 0,1.05834 -0.12473,0.12472 -0.40444,-0.12473 -0.52917,0 -0.24945,0.24945 0.24945,0.80888 0,1.05833 -0.12472,0.12472 -0.40444,-0.12473 -0.52916,0 -0.12473,0.12472 0.0789,0.3714 0,0.52917 -0.11155,0.22311 -0.41762,0.30605 -0.52917,0.52916 -0.0789,0.15777 0.0789,0.3714 0,0.52917 -0.11155,0.22311 -0.41762,0.30605 -0.52917,0.52917 -0.0789,0.15776 0.0789,0.3714 0,0.52916 -1.21089,2.42179 0.21932,-2.24547 -1.05833,1.5875 -0.0558,0.16734 0.0789,0.3714 0,0.52917 -0.11155,0.22311 -0.4503,0.29251 -0.52917,0.52917 0,2.40891 0.24945,0.0303 -0.52916,1.5875 -0.2313,0.46259 0.1117,1.66982 0,2.11666 -0.63884,2.55532 -0.25146,-0.0262 -1.05834,1.5875 -0.0789,0.15777 0.0558,0.36183 0,0.52917 -0.24945,0.74835 -0.80888,1.36831 -1.05833,2.11667 -0.0558,0.16733 0.0558,0.36182 0,0.52916 -1.27765,3.83298 0.15256,-0.83428 -1.05833,1.5875 -0.0789,0.15777 0.0789,0.3714 0,0.52917 -0.11155,0.22311 -0.41762,0.30605 -0.52917,0.52917 -0.15616,0.31229 0,1.23183 0,1.5875"
       id="path5345"
       inkscape:connector-curvature="0" />
    <path
       style="fill:none;fill-opacity:1;stroke:#0e0a08;stroke-width:3;stroke-miterlimit:4;stroke-dasharray:none;stroke-opacity:1"
       d="m 80.433333,165.76668 c 2.02715,1.69192 4.34538,3.04427 6.35,4.7625 0.56819,0.48702 1.0193,1.10047 1.5875,1.5875 2.18725,1.8748 4.71148,3.39495 6.87916,5.29167 0.75092,0.65706 1.32906,1.50407 2.11667,2.11666 0.81185,0.63145 1.79006,1.01698 2.645827,1.5875 0.84611,0.56408 4.2122,3.21501 4.7625,3.70417 3.02829,2.69181 1.20962,1.74632 4.7625,4.23333 0.84259,0.58982 1.79007,1.01698 2.64584,1.5875 0.73382,0.48922 1.38284,1.09829 2.11666,1.5875 0.85577,0.57052 1.79007,1.01698 2.64584,1.5875 2.65885,1.77257 1.68767,1.63758 4.7625,3.175 3.3125,1.65626 1.73087,0.57696 4.76249,1.5875 1.80229,0.60076 3.47203,1.57077 5.29167,2.11667 0.92448,0.27734 5.0672,0.93272 5.82083,1.05833 1.05834,0.17639 2.10649,0.43203 3.175,0.52917 0.87832,0.0799 1.76753,-0.0798 2.64584,0 1.9917,0.0288 3.85852,0.8621 5.82083,1.05833 1.75514,0.17552 3.52777,0 5.29167,0 0.88193,0 1.76929,0.0974 2.64583,0 0.72282,-0.0803 1.39385,-0.44885 2.11667,-0.52916 1.56813,-0.17424 3.19437,0.17423 4.7625,0 0.89392,-0.0993 1.75088,-0.43968 2.64583,-0.52917 0.87757,-0.0878 1.76826,0.0878 2.64583,0 0.89496,-0.0895 1.75192,-0.42984 2.64584,-0.52917 0.70125,-0.0779 1.41541,0.0779 2.11666,0 0.89393,-0.0993 1.75192,-0.42984 2.64584,-0.52916 0.70125,-0.0779 1.41655,0.0875 2.11666,0 6.56212,-0.82027 -1.56776,-0.17969 3.70417,-1.05834 0.52197,-0.087 1.0686,0.10378 1.5875,0 0.77351,-0.1547 1.36832,-0.80888 2.11667,-1.05833 0.16735,-0.0558 0.37139,0.0789 0.52916,0 0.26096,-0.13048 3.10656,-2.96968 3.175,-3.175 0.11155,-0.33468 -0.0856,-0.71609 0,-1.05833 0.0956,-0.38265 0.4335,-0.6757 0.52917,-1.05834 0.12785,-0.51141 -0.22344,-2.19894 0,-2.64583 0.11155,-0.22312 0.41762,-0.30605 0.52917,-0.52917 0.15777,-0.31553 -0.15777,-0.7428 0,-1.05833 0.11155,-0.22312 0.35277,-0.35278 0.52916,-0.52917 0.1764,-0.35277 0.3827,-0.69212 0.52917,-1.05833 0.30491,-0.76228 0.52647,-1.9367 1.05833,-2.64583 2.49243,-3.32323 -0.47326,1.67069 2.11667,-2.64584 0.40585,-0.67642 0.50054,-1.55887 1.05833,-2.11666 0.2789,-0.2789 0.77944,-0.25028 1.05834,-0.52917 0.27889,-0.2789 0.35277,-0.70556 0.52916,-1.05833 0.1764,-0.35278 0.40445,-0.68416 0.52917,-1.05834 0.0558,-0.16734 -0.0558,-0.36183 0,-0.52916 0.70557,-2.11667 0.50776,0.10699 1.05833,-2.64584 0.0692,-0.34592 -0.0692,-0.7124 0,-1.05833 0.10938,-0.54696 0.43747,-1.0373 0.52917,-1.5875 0.126,-0.75593 0.126,-4.00657 0,-4.7625 -0.0917,-0.5502 -0.45029,-1.03532 -0.52917,-1.5875 -0.0998,-0.69847 0.0998,-1.4182 0,-2.11667 -0.14401,-1.00817 -1.53627,-4.95023 -2.11666,-5.82083 -0.13838,-0.20756 -0.39079,-0.32161 -0.52917,-0.52917 -0.70035,-1.05054 -0.31594,-1.35373 -1.5875,-2.11666 -0.47831,-0.28698 -1.0886,-0.27972 -1.5875,-0.52917 -2.25777,-1.12889 -4.09223,-3.10444 -6.35,-4.23333 -0.4989,-0.24946 -1.0886,-0.27972 -1.5875,-0.52917 -6.35444,-3.17722 2.27605,0.83647 -2.64583,-2.11667 -0.47832,-0.28698 -1.0886,-0.27971 -1.5875,-0.52916 -1.13768,-0.56884 -2.03732,-1.54783 -3.175,-2.11667 -0.4989,-0.24945 -1.0886,-0.27972 -1.5875,-0.52917 -0.56883,-0.28442 -1.01867,-0.77391 -1.5875,-1.05833 -1.72109,-0.86054 -1.25873,-0.13359 -2.64584,-1.05833 -0.20756,-0.13838 -0.30604,-0.41761 -0.52916,-0.52917 -0.15777,-0.0789 -0.35277,0 -0.52917,0 -0.35277,-0.17639 -0.73017,-0.31038 -1.05833,-0.52917 -0.20757,-0.13837 -0.30605,-0.41761 -0.52917,-0.52916 -0.15777,-0.0789 -0.40444,0.12472 -0.52917,0 -0.12472,-0.12473 -0.0484,-0.35957 0,-0.52917 0.30647,-1.07266 0.70557,-2.11667 1.05834,-3.175"
       id="path5347"
       inkscape:connector-curvature="0" />
    <path
       style="fill:none;fill-opacity:1;stroke:#0e0a08;stroke-width:3;stroke-miterlimit:4;stroke-dasharray:none;stroke-opacity:1"
       d="m 143.40416,202.27918 c -2.82223,0 -5.68738,-0.49046 -8.46667,0 -0.5493,0.0969 -0.322,1.0696 -0.52917,1.5875 -0.29297,0.73241 -0.62076,1.46032 -1.05833,2.11667 -0.13838,0.20755 -0.45029,0.29251 -0.52917,0.52916 -0.11154,0.33468 0.11155,0.72366 0,1.05834 -0.65389,1.96167 -0.52916,-0.64503 -0.52916,1.05833"
       id="path5349"
       inkscape:connector-curvature="0" />
    <path
       style="fill:none;fill-opacity:1;stroke:#0e0a08;stroke-width:3;stroke-miterlimit:4;stroke-dasharray:none;stroke-opacity:1"
       d="m 157.16249,201.75001 c -0.003,1.33016 -0.8065,2.44497 -1.05833,3.70417 -0.0692,0.34593 0.0856,0.71609 0,1.05833 -0.0957,0.38264 -0.43352,0.67569 -0.52917,1.05834 -0.0856,0.34224 0.11155,0.72365 0,1.05833 -0.0789,0.23665 -0.41762,0.30605 -0.52917,0.52917 -0.0789,0.15776 0.12473,0.40444 0,0.52916 -0.70556,0.70556 -0.52916,-0.88194 -0.52916,0.52917"
       id="path5351"
       inkscape:connector-curvature="0" />
    <path
       style="fill:none;fill-opacity:1;stroke:#0e0a08;stroke-width:3;stroke-miterlimit:4;stroke-dasharray:none;stroke-opacity:1"
       d="m 170.92082,203.33751 c 1.69609,1.24569 0.55103,2.67861 1.5875,4.23334 0.13838,0.20755 0.4503,0.29251 0.52917,0.52916 0.21413,0.64238 0,1.92802 0,2.64583"
       id="path5353"
       inkscape:connector-curvature="0" />
    <path
       style="fill:none;fill-opacity:1;stroke:#0e0a08;stroke-width:3;stroke-miterlimit:4;stroke-dasharray:none;stroke-opacity:1"
       d="m 191.55832,189.05001 c -4.36435,10.91088 -4.23333,6.7838 -4.23333,11.64167 0,0.35278 0.15777,0.7428 0,1.05833 -0.65389,1.30779 -0.52917,-0.18266 -0.52917,1.05834"
       id="path5355"
       inkscape:connector-curvature="0" />
    <path
       style="fill:none;fill-opacity:1;stroke:#0e0a08;stroke-width:3;stroke-miterlimit:4;stroke-dasharray:none;stroke-opacity:1"
       d="m 148.16666,177.93751 c 1.94027,0 3.88056,0 5.82083,0 2.11667,0 4.23333,0 6.35,0 0.64013,0 2.02584,-0.155 2.64583,0 0.38264,0.0957 0.68416,0.40444 1.05834,0.52917 0.16735,0.0558 0.37139,-0.0789 0.52916,0 0.22313,0.11156 0.28716,0.46867 0.52917,0.52917 0.68448,0.17112 1.44732,-0.22312 2.11667,0 2.9981,1.49904 -0.78883,-0.19721 2.11666,0.52916 0.38264,0.0957 0.68416,0.40444 1.05834,0.52917 0.16735,0.0558 0.36182,-0.0558 0.52916,0 0.37418,0.12472 0.6757,0.43351 1.05834,0.52917 0.34224,0.0856 0.71609,-0.0856 1.05833,0 0.38264,0.0957 0.67569,0.4335 1.05833,0.52916 0.34224,0.0856 0.72367,-0.11156 1.05834,0 0.23664,0.0789 0.29252,0.45029 0.52916,0.52917 0.50202,0.16734 1.11419,-0.23665 1.5875,0 0.22313,0.11156 0.30605,0.41761 0.52917,0.52917 0.31554,0.15776 0.72366,-0.11156 1.05833,0 1.82415,0.60804 0.39198,0.52916 1.5875,0.52916 2.82224,0 5.64444,0 8.46667,0 0.88194,0 1.7639,0 2.64583,0 0.35277,0 1.08763,-0.35156 1.05834,0 -0.1782,2.13845 -0.70557,4.23333 -1.05834,6.35"
       id="path5357"
       inkscape:connector-curvature="0" />
    <path
       style="fill:none;fill-opacity:1;stroke:#0e0a08;stroke-width:3;stroke-miterlimit:4;stroke-dasharray:none;stroke-opacity:1"
       d="m 143.40416,155.71251 c 0.15997,0.13059 -0.20325,4.55924 0,4.7625 1.09487,1.09487 -0.0428,-1.6731 1.05833,0.52917 0.0789,0.15776 -0.12472,0.40444 0,0.52917 0.0654,0.0654 1.78483,0 2.11667,0 0.61664,0 3.90443,0.16444 4.23333,0 0.22312,-0.11156 0.30604,-0.41761 0.52917,-0.52917 0.15777,-0.0789 0.40444,0.12472 0.52916,0 0.12473,-0.12473 -0.12472,-0.40444 0,-0.52917 0.12473,-0.12472 0.40445,0.12473 0.52917,0 0.12473,-0.12472 -0.12472,-0.40444 0,-0.52916 0.12473,-0.12473 0.40444,0.12472 0.52917,0 0.12472,-0.12473 -0.1764,-0.52917 0,-0.52917 0.1764,0 0,0.35278 0,0.52917"
       id="path5359"
       inkscape:connector-curvature="0" />
    <path
       style="fill:none;fill-opacity:1;stroke:#0e0a08;stroke-width:3;stroke-miterlimit:4;stroke-dasharray:none;stroke-opacity:1"
       d="m 167.74582,158.35835 c 1.69334,2.25777 1.5875,1.23472 1.5875,2.64583 0,0.17639 -0.0789,0.3714 0,0.52917 0.11155,0.22311 0.41762,0.30605 0.52917,0.52916 0.28223,0.56445 -0.28223,0.49389 0,1.05834 0.11155,0.22311 0.41762,0.30605 0.52917,0.52916 0.0789,0.15777 -0.12473,0.40444 0,0.52917 0.12472,0.12472 0.40444,-0.12473 0.52916,0 0.14007,0.14007 0,1.36961 0,1.5875"
       id="path5361"
       inkscape:connector-curvature="0" />
    <path
       style="fill:none;fill-opacity:1;stroke:#0e0a08;stroke-width:3;stroke-miterlimit:4;stroke-dasharray:none;stroke-opacity:1"
       d="m 171.44999,141.95418 c -0.81055,-1.2188 -1.8302,-2.19418 -2.84784,-3.21183 -0.12473,-0.12472 -0.22294,-0.28342 -0.37418,-0.37417 -0.16912,-0.10146 -0.39719,-0.0777 -0.56128,-0.18709 -0.22014,-0.14677 -0.35801,-0.39188 -0.56126,-0.56127 -0.17272,-0.14394 -0.38852,-0.23023 -0.56126,-0.37417 -1.49056,-1.24214 0.21635,0.0244 -0.93544,-0.93545 -0.23955,-0.19962 -0.49464,-0.38002 -0.74837,-0.56126 -0.73041,-0.52173 -1.49815,-0.99877 -2.24504,-1.49671 -0.3742,-0.24945 -0.77709,-0.46046 -1.12255,-0.74836 -0.20326,-0.16938 -0.34113,-0.4145 -0.56126,-0.56126 -0.1641,-0.1094 -0.39217,-0.0856 -0.56126,-0.18709 -0.30253,-0.18151 -0.46615,-0.53669 -0.74838,-0.74836 -0.11155,-0.0837 -0.2626,-0.10342 -0.37417,-0.18709 -0.1411,-0.10583 -0.23305,-0.26834 -0.37417,-0.37417 -0.31155,-0.23367 -0.77354,-0.38677 -1.12253,-0.56127 -0.35811,-0.17906 -0.74313,-0.4348 -1.12254,-0.56126 -0.0592,-0.0197 -0.12793,0.0197 -0.18709,0 -0.13229,-0.0441 -0.24188,-0.143 -0.37417,-0.18709 -0.36651,-0.12217 -1.50477,0.12204 -1.8709,0 -0.13229,-0.0441 -0.23889,-0.15327 -0.37417,-0.18709 -0.34465,-0.0862 -0.78634,0.11206 -1.12252,0 -0.0837,-0.0279 -0.10343,-0.1592 -0.18709,-0.18709 -0.17748,-0.0592 -0.39394,0.0837 -0.56126,0 -0.0789,-0.0394 -0.10822,-0.14765 -0.18709,-0.18709 -0.55057,-0.27528 0.2463,0.43341 -0.3742,-0.18709"
       id="path5365"
       inkscape:connector-curvature="0" />
    <path
       style="fill:none;fill-opacity:1;stroke:#0e0a08;stroke-width:3;stroke-miterlimit:4;stroke-dasharray:none;stroke-opacity:1"
       d="m 107.79833,135.56185 c 0.81368,0.49057 1.03638,0.37417 1.87087,0.37417 0.12473,0 0.28599,0.0882 0.37418,0 0.0441,-0.0441 -0.0441,-0.14299 0,-0.18708 0.0882,-0.0882 0.24947,0 0.3742,0"
       id="path5367"
       inkscape:connector-curvature="0" />
    <path
       style="fill:none;fill-opacity:1;stroke:#0e0a08;stroke-width:3;stroke-miterlimit:4;stroke-dasharray:none;stroke-opacity:1"
       d="m 112.71249,104.38335 c 0.66022,0.066 1.23982,-0.29529 1.8709,-0.37417 0.24752,-0.031 0.4989,0 0.74835,0 0.81071,0 1.62144,0 2.43215,0 0.56126,0 1.12596,-0.062 1.68378,0 0.31605,0.0351 0.61942,0.15197 0.93547,0.18708 0.55782,0.062 1.12532,-0.0558 1.68378,0 0.31641,0.0317 0.62502,0.11811 0.93546,0.18709 1.12247,0.24944 2.24501,0.4989 3.36759,0.74836 0.50202,0.11156 0.98761,0.30145 1.49672,0.37418 0.18521,0.0265 0.37605,-0.0265 0.56126,0 0.25453,0.0364 0.49472,0.14481 0.74835,0.18709 0.12303,0.0205 0.25114,-0.0205 0.37417,0 1.30405,0.21733 0.28038,0.18708 1.12255,0.18708 0.68598,0 1.37197,0 2.05795,0 0.27477,0 0.67771,0.0644 0.93547,0 0.13528,-0.0338 0.24468,-0.13529 0.37417,-0.18708 1.88328,-0.75332 -0.39722,0.14607 0.93543,-0.18709 0.13529,-0.0338 0.24189,-0.143 0.37418,-0.18709 0.16838,-0.0561 0.39288,0.0561 0.56126,0 0.0837,-0.0279 0.10821,-0.14765 0.18711,-0.18709 0.11041,-0.0552 0.43551,0 0.56126,0 0.12473,0 0.24945,0 0.37418,0 0.0624,0 0.23984,-0.0333 0.18708,0 -0.30932,0.195 -0.65156,0.33211 -0.97732,0.49817"
       id="path5371"
       inkscape:connector-curvature="0" />
    <path
       style="fill:none;fill-opacity:1;stroke:#0e0a08;stroke-width:3;stroke-miterlimit:4;stroke-dasharray:none;stroke-opacity:1"
       d="m 114.90769,194.49478 c 0.24945,0.9978 0.4989,1.99561 0.74834,2.99342 0.24948,0.4989 0.6131,0.95557 0.74838,1.49671 0.24199,0.96801 -0.31554,2.04681 0,2.99342 0.11155,0.33467 0.59057,0.43281 0.74835,0.74835 0.20126,0.40251 0,4.48079 0,5.23848"
       id="path5375"
       inkscape:connector-curvature="0" />
    <path
       style="fill:none;fill-opacity:1;stroke:#0e0a08;stroke-width:3;stroke-miterlimit:4;stroke-dasharray:none;stroke-opacity:1"
       d="m 79.904163,118.14168 c 0.94141,0.38115 1.82435,0.96543 2.82429,1.14345 0.50628,0.0901 0.98642,-0.31039 1.4967,-0.37417 0.49506,-0.0619 0.9978,0 1.49672,0 1.37197,0 2.74397,0 4.11594,0 0.99782,0 1.99562,0 2.99341,0 0.4989,0 1.00283,-0.0706 1.49673,0 0.78089,0.11155 1.46695,0.61867 2.24506,0.74835 0.36907,0.0615 0.75343,-0.0615 1.12253,0 0.74308,0.12385 2.628227,0.82679 3.367587,1.12253 0.99782,0.39913 0.62989,0.50016 1.87089,0.74836 0.24461,0.0489 0.50636,-0.0605 0.74835,0 0.67725,-0.22553 0.69591,0.60614 1.12255,0.74835 0.23664,0.0789 0.51673,-0.0926 0.74834,0 0.41754,0.16702 0.72031,0.54724 1.12253,0.74836 0.22312,0.11156 0.52525,-0.11156 0.74837,0 0.15774,0.0789 0.2164,0.29529 0.37417,0.37418 0.2231,0.11155 0.65979,-0.23321 0.74835,0 0.79314,2.08887 1.3661,4.25484 2.04915,6.38226"
       id="path5377"
       inkscape:connector-curvature="0" />
    <path
       style="fill:none;fill-opacity:1;stroke:#0e0a08;stroke-width:3;stroke-miterlimit:4;stroke-dasharray:none;stroke-opacity:1"
       d="m 150.81249,123.96251 c -0.4935,-0.43659 -0.89188,-1.01362 -1.48047,-1.30978 -0.33425,-0.16819 -0.75214,0.0529 -1.12255,0 -1.01817,-0.14545 -1.97284,-0.62078 -2.99342,-0.74836 -0.49503,-0.0619 -1.00166,0.0619 -1.49669,0 -0.51031,-0.0638 -0.9856,-0.31738 -1.49673,-0.37417 -0.61981,-0.0689 -1.24724,0 -1.87089,0 -1.99559,0 -3.99121,0 -5.98683,0 -0.9978,0 -1.9956,0 -2.99342,0 -0.37417,0 -0.75343,-0.0615 -1.12252,0 -0.38907,0.0648 -0.73348,0.30933 -1.12255,0.37417 -0.73816,0.12303 -1.51122,-0.14676 -2.24504,0 -0.2735,0.0547 -0.47781,0.30654 -0.74838,0.37418 -0.44227,0.11058 -1.501,-0.18493 -1.87086,0 -0.15777,0.0789 -0.21643,0.2953 -0.3742,0.37418 -0.2231,0.11156 -0.52523,-0.11156 -0.74835,0 -0.15777,0.0789 -0.22741,0.27633 -0.37418,0.37418 -0.19645,0.13098 -0.99996,0.38067 -1.12252,0.74835 -0.0789,0.23665 0.0789,0.51171 0,0.74836 -0.0558,0.16733 -0.27633,0.22741 -0.37417,0.37417 -0.15473,0.23206 -0.17698,0.55115 -0.3742,0.74836 -0.0882,0.0882 -0.28596,-0.0882 -0.37417,0 -0.0882,0.0882 0.0558,0.26262 0,0.37418 -0.38577,0.77153 -0.37418,-0.0262 -0.37418,1.12253"
       id="path5379"
       inkscape:connector-curvature="0" />
    <path
       style="fill:none;fill-opacity:1;stroke:#0e0a08;stroke-width:3;stroke-miterlimit:4;stroke-dasharray:none;stroke-opacity:1"
       d="m 133.61457,131.63543 c -0.0282,-0.0161 -1.20104,-0.70904 -1.4552,-0.79375 -0.21331,-0.0711 -0.44098,-0.0882 -0.66146,-0.13229 -0.22048,-0.0441 -0.43799,-0.10746 -0.66146,-0.13229 -0.39444,-0.0438 -0.79375,0 -1.19063,0 -0.22047,0 -0.44233,-0.0243 -0.66145,0 -0.54878,0.061 -0.5528,0.18021 -1.05834,0.39687 -0.12816,0.0549 -0.27215,0.0699 -0.39687,0.13229 -0.14222,0.0711 -0.26459,0.17639 -0.39688,0.26459 -0.13229,0.0882 -0.28445,0.15215 -0.39687,0.26458 -0.11242,0.11243 -0.1628,0.27473 -0.26459,0.39687 -0.11977,0.14373 -0.27709,0.25316 -0.39687,0.39688 -0.293,0.35161 -0.2939,0.51434 -0.52917,0.92604 -0.15777,0.27609 -0.38695,0.50933 -0.52916,0.79375 -0.1042,0.20839 -0.35891,0.96282 -0.39688,1.19063 -0.0262,0.1565 -0.0262,0.90183 0,1.05833 0.0719,0.43109 0.52938,1.27026 0.79375,1.5875 0.11978,0.14372 0.27512,0.25482 0.39688,0.39687 0.14348,0.16741 0.25339,0.36177 0.39687,0.52917 0.3901,0.45512 0.3425,0.33914 0.79375,0.66146 0.17942,0.12815 0.33774,0.28748 0.52917,0.39687 0.14062,0.0804 0.8206,0.24116 0.92604,0.26459 0.2195,0.0488 0.44196,0.0835 0.66146,0.13229 0.17748,0.0394 0.34875,0.10974 0.52916,0.13229 0.35005,0.0438 0.70557,0 1.05834,0 0.72612,0 1.5322,0.0551 2.24896,0 0.38359,-0.0295 1.31352,-0.20208 1.71979,-0.26458 2.21292,-0.34045 -0.26014,0.0654 1.71979,-0.26459 0.52917,-0.0882 1.0537,-0.2112 1.5875,-0.26458 0.17552,-0.0175 0.35414,0.0219 0.52917,0 0.52197,-0.0652 0.99322,-0.29817 1.4552,-0.52917 0.0882,-0.0441 0.19487,-0.0626 0.26459,-0.13229 0.0635,-0.0635 0.37309,-0.69865 0.39687,-0.79375 0.0428,-0.17112 0,-0.35277 0,-0.52916 0,-0.26459 0.0435,-0.53277 0,-0.79375 -0.0574,-0.34412 -0.48104,-1.44915 -0.66146,-1.7198 -0.0692,-0.10377 -0.18666,-0.16719 -0.26458,-0.26458 -0.0993,-0.12415 -0.1764,-0.26458 -0.26458,-0.39687 -0.1764,-0.26459 -0.33052,-0.54545 -0.52917,-0.79375 -0.13766,-0.17209 -0.3915,-0.35708 -0.52917,-0.52917 -0.0993,-0.12415 -0.16525,-0.27272 -0.26458,-0.39688 -0.19613,-0.24517 -0.64349,-0.5433 -0.79375,-0.79375 -0.0718,-0.11957 -0.0605,-0.27729 -0.13229,-0.39687 -0.22093,-0.36822 -0.24265,-0.18199 -0.52917,-0.39688 -0.14967,-0.11225 -0.24122,-0.29309 -0.39687,-0.39687 -0.082,-0.0547 -0.18254,-0.0776 -0.26459,-0.13229 -0.0519,-0.0346 -0.0731,-0.11257 -0.13229,-0.13229 -0.13655,-0.0455 -1.09945,0 -1.32291,0 -0.13187,0 -0.82275,-0.0516 -0.92605,0 -0.27278,0.13639 0.009,0.13229 -0.39687,0.13229"
       id="path5381"
       inkscape:connector-curvature="0" />
    <path
       style="fill:none;fill-opacity:1;stroke:#0e0a08;stroke-width:3;stroke-miterlimit:4;stroke-dasharray:none;stroke-opacity:1"
       d="m 132.82082,137.05939 c -0.13229,-0.17639 -0.26458,-0.35278 -0.39687,-0.52917 -0.0441,0 -0.0928,0.0197 -0.13229,0 -0.0558,-0.0279 -0.0765,-0.1044 -0.13229,-0.13229 -0.0395,-0.0197 -0.1323,0.0441 -0.1323,0 0,-0.0441 0.0928,0.0197 0.1323,0 0.11154,-0.0558 0.14626,-0.22514 0.26458,-0.26458 0.25839,-0.0861 0.30287,0.0568 0.52917,0.13229 0.13231,0.0441 0.62568,0 0.79375,0"
       id="path5383"
       inkscape:connector-curvature="0" />
    <path
       style="fill:none;fill-opacity:1;stroke:#0e0a08;stroke-width:3;stroke-miterlimit:4;stroke-dasharray:none;stroke-opacity:1"
       d="m 84.666663,136.66251 c -0.33425,0.38147 -0.72438,0.72044 -1.00277,1.1444 -0.0765,0.11657 0.27556,-0.0885 0.37417,-0.18709 0.0986,-0.0986 0.11054,-0.25761 0.18709,-0.37417 0.51398,-0.78276 1.20002,-1.43874 1.68381,-2.24507 0.0717,-0.11957 0.12472,-0.24945 0.18708,-0.37418 0.0624,-0.12472 0.11534,-0.2546 0.18709,-0.37417 0.11568,-0.19281 0.2585,-0.36846 0.37417,-0.56127 0.21318,-0.3553 0.33155,-0.77796 0.56127,-1.12253 0.0489,-0.0734 0.13816,-0.11371 0.18708,-0.18709 0.1547,-0.23206 0.17698,-0.55115 0.37418,-0.74835 0.0986,-0.0986 0.27559,-0.0885 0.3742,-0.18709 0.95607,-0.9561 -0.78447,0.26094 0.56126,-0.74836 0.11154,-0.0837 0.27556,-0.0885 0.37417,-0.18709 0.0986,-0.0986 0.0885,-0.27557 0.18709,-0.37417 0.38708,-0.3871 -0.0151,0.59153 0.37417,-0.18709 0.0279,-0.0558 -0.0279,-0.13131 0,-0.18709 0.0395,-0.0789 0.14764,-0.10821 0.18709,-0.18709 0.0279,-0.0558 -0.0441,-0.14299 0,-0.18709 0.0441,-0.0441 0.14301,0.0441 0.18708,0 0.0441,-0.0441 -0.0441,-0.14299 0,-0.18709 0.0441,-0.0441 0.13132,0.0279 0.18709,0 0.11547,-0.0577 0.87773,-0.81999 0.93546,-0.93544 0.0279,-0.0558 -0.0441,-0.14299 0,-0.18709 0.0441,-0.0441 0.12473,0 0.18709,0"
       id="path5385"
       inkscape:connector-curvature="0" />
    <path
       style="fill:none;fill-opacity:1;stroke:#0e0a08;stroke-width:3;stroke-miterlimit:4;stroke-dasharray:none;stroke-opacity:1"
       d="m 77.864143,109.36944 c 0.55735,0.21767 0.98589,0.64354 1.4967,0.93544 0.24214,0.13837 0.50622,0.2358 0.74837,0.37418 0.39045,0.22311 0.7203,0.54724 1.12252,0.74835 0.54166,0.27082 1.4441,0.49695 2.05798,0.37418 0.21834,-0.0437 0.83373,-0.50314 0.93544,-0.56127 0.24215,-0.13837 0.52141,-0.21207 0.74835,-0.37418 0.21531,-0.15378 0.358,-0.39188 0.56128,-0.56126 0.22815,-0.19014 0.98145,-0.66632 1.30961,-0.74836 0.121,-0.0303 0.24945,0 0.37418,0 0.12472,0 0.26262,-0.0558 0.37417,0 0.15777,0.0789 0.24945,0.24945 0.37417,0.37418 0.24067,0.24065 0.56055,0.46662 0.74838,0.74836 0.30435,0.45653 0.41952,1.05826 0.74834,1.4967 0.33653,0.44872 0.9856,0.731 1.49673,0.93545 1.09873,0.4395 0.0225,0.004 1.12252,0.18709 0.49569,0.0826 0.48035,0.2781 0.93543,0.18709 0.19338,-0.0387 0.3679,-0.14842 0.56129,-0.18709 0.30575,-0.0611 0.62785,0.0513 0.93543,0 0.19452,-0.0324 0.36674,-0.15467 0.56126,-0.18709 0.18455,-0.0308 0.37672,0.0307 0.56126,0 0.62902,-0.10484 1.21555,-0.46765 1.8709,-0.56127 0.18521,-0.0265 0.37605,0.0265 0.56126,0 0.25456,-0.0364 0.49382,-0.15072 0.74835,-0.18709 0.53117,-0.0759 1.14662,0 1.683807,0"
       id="path5387"
       inkscape:connector-curvature="0" />
    <path
       style="fill:none;fill-opacity:1;stroke:#0e0a08;stroke-width:3;stroke-miterlimit:4;stroke-dasharray:none;stroke-opacity:1"
       d="m 142.40972,113.48539 c 0.31181,-0.31182 0.58738,-0.66472 0.93546,-0.93545 0.22014,-0.17122 0.51184,-0.22636 0.74835,-0.37418 0.26442,-0.16526 0.48392,-0.396 0.74835,-0.56126 0.23651,-0.14782 0.51186,-0.22637 0.74834,-0.37418 0.26443,-0.16526 0.49893,-0.37418 0.74838,-0.56126 0.4989,-0.37418 1.0232,-0.71669 1.49669,-1.12254 0.2009,-0.17219 0.35801,-0.39188 0.56126,-0.56126 0.17275,-0.14395 0.3742,-0.24945 0.56129,-0.37418 0.24945,-0.18709 0.5116,-0.35834 0.74835,-0.56127 0.40177,-0.34437 0.78377,-0.71601 1.12252,-1.12253 0.14396,-0.17273 0.21519,-0.40227 0.37417,-0.56126 0.15902,-0.159 0.38569,-0.23372 0.56129,-0.37418 0.40915,-0.32733 0.70353,-0.80828 1.12252,-1.12253 0.49652,-0.3724 1.2931,-0.55576 1.8709,-0.74836 0.39981,-0.13327 0.8985,-0.31544 1.30961,-0.37418 0.1852,-0.0265 0.37674,0.0308 0.56126,0 0.19454,-0.0324 0.36674,-0.15466 0.56128,-0.18708 0.18452,-0.0308 0.37672,0.0307 0.56126,0 0.19453,-0.0324 0.36674,-0.15467 0.56126,-0.18709 0.18455,-0.0308 0.37672,0.0308 0.56127,0 0.19452,-0.0324 0.3679,-0.14842 0.56126,-0.18709 0.99951,-0.1999 -0.42106,0.35551 0.93546,-0.18709 0.8478,-0.33913 0.0259,-0.0173 0.56126,-0.37418 0.11602,-0.0774 0.25815,-0.10973 0.37417,-0.18709 0.0734,-0.0489 0.11372,-0.13816 0.18709,-0.18708 0.11602,-0.0774 0.27556,-0.0885 0.37417,-0.18709 0.0986,-0.0986 0.0885,-0.27558 0.18709,-0.37418 0.0986,-0.0986 0.27559,-0.0885 0.37417,-0.18709 0.0986,-0.0986 0.10975,-0.25815 0.18712,-0.37418 0.0489,-0.0734 0.13816,-0.1137 0.18708,-0.18709 0.1547,-0.23205 0.20683,-0.52523 0.37418,-0.74835 0.21619,-0.28827 1.04481,-1.09778 1.3096,-1.30962 0.17558,-0.14046 0.38569,-0.23371 0.56126,-0.37418 0.27549,-0.22038 0.44585,-0.56685 0.74838,-0.74835 0.16909,-0.10146 0.40349,-0.0688 0.56126,-0.18709 0.11155,-0.0837 0.0885,-0.27557 0.18709,-0.37418 0.0986,-0.0986 0.26262,-0.10342 0.37417,-0.18709 0.1411,-0.10583 0.23307,-0.26834 0.37417,-0.37417 0.11158,-0.0837 0.25816,-0.10974 0.37418,-0.18709 0.0734,-0.0489 0.11655,-0.13418 0.18708,-0.18709 0.17989,-0.13491 0.40228,-0.21518 0.56129,-0.37418 0.0986,-0.0986 0.0885,-0.27557 0.18709,-0.37418 0.0986,-0.0986 0.27556,-0.0885 0.37417,-0.18709 0.0986,-0.0986 0.10343,-0.26262 0.18709,-0.37417 0.10583,-0.14111 0.26834,-0.23307 0.37417,-0.37418 0.16735,-0.22312 0.21947,-0.5163 0.37418,-0.74835 0.0978,-0.14677 0.2953,-0.21641 0.37417,-0.37418 0.2753,-0.55057 -0.43339,0.24632 0.18709,-0.37418"
       id="path5389"
       inkscape:connector-curvature="0" />
    <path
       style="fill:none;fill-opacity:1;stroke:#0e0a08;stroke-width:3;stroke-miterlimit:4;stroke-dasharray:none;stroke-opacity:1"
       d="m 66.674993,102.06824 c 0.11025,0.0441 0.21656,0.0997 0.33073,0.13229 0.0424,0.0121 0.0891,-0.009 0.13229,0 0.18463,0.0369 0.35682,0.1295 0.52917,0.19844 0.0647,0.0259 0.13864,0.0303 0.19844,0.0661 0.0535,0.0321 0.0882,0.0882 0.13229,0.13229 0.0661,0.0661 0.13229,0.13229 0.19844,0.19844 0.13229,0.13229 0.27511,0.25482 0.39687,0.39687 0.0718,0.0837 0.12668,0.18088 0.19844,0.26458 0.12176,0.14205 0.25315,0.27711 0.39687,0.39688 0.0611,0.0509 0.13375,0.0861 0.19844,0.13229 0.0897,0.0641 0.16383,0.15367 0.26458,0.19844 0.10274,0.0457 0.22048,0.0441 0.33073,0.0661 0.11026,0.022 0.21887,0.055 0.33073,0.0661 0.1097,0.011 0.22048,0 0.33073,0 0.13229,0 0.26514,0.012 0.39688,0 0.96544,-0.0878 -0.29808,-0.0661 0.66146,-0.0661 0.11025,0 0.22047,0 0.33072,0 0.0882,0 0.17902,-0.0214 0.26459,0 0.17928,0.0448 0.65487,0.34151 0.79375,0.46303 0.31636,0.27682 0.44955,0.57285 0.66146,0.92604 0.0661,0.11024 0.14094,0.21574 0.19843,0.33073 0.10621,0.2124 0.15838,0.44906 0.26459,0.66145 0.0356,0.0711 0.0928,0.12942 0.13229,0.19844 0.0489,0.0856 0.0776,0.18254 0.13229,0.26459 0.0346,0.0519 0.0949,0.0824 0.13229,0.13229 0.19685,0.26246 -0.13732,0.009 0.26459,0.33073 0.0385,0.0308 0.0928,0.0366 0.13229,0.0661 0.0499,0.0374 0.0804,0.0977 0.13229,0.13229 0.082,0.0547 0.1764,0.0882 0.26458,0.1323 0.0882,0.0441 0.17227,0.0977 0.26459,0.13229 0.0851,0.0319 0.17914,0.0351 0.26458,0.0661 0.1578,0.0574 0.30522,0.14105 0.46302,0.19844 0.0854,0.0311 0.17947,0.0342 0.26458,0.0662 0.0923,0.0346 0.17227,0.0977 0.26459,0.13229 0.17023,0.0638 0.35435,0.0823 0.52916,0.13229 0.45993,0.1314 -0.10141,-0.0132 0.46302,0.19844 0.0308,0.0116 0.49835,0.12073 0.52917,0.13229 0.0923,0.0346 0.17227,0.0977 0.26458,0.13229 0.0851,0.0319 0.18103,0.0303 0.26459,0.0661 0.0731,0.0313 0.1294,0.0928 0.19843,0.13229 0.0856,0.0489 0.18884,0.0692 0.26459,0.13229 0.0611,0.0509 0.0761,0.14222 0.13229,0.19844 0.0562,0.0562 0.13737,0.0814 0.19844,0.13229 0.11977,0.0998 0.23333,0.20899 0.33073,0.33073 0.0497,0.0621 0.0826,0.13636 0.13229,0.19844 0.0389,0.0487 0.0949,0.0824 0.13229,0.13229 0.0296,0.0394 0.0388,0.0913 0.0661,0.13229 0.0476,0.0714 0.13758,0.13758 0.19843,0.19844"
       id="path5391"
       inkscape:connector-curvature="0" />
    <path
       style="fill:none;fill-opacity:1;stroke:#0e0a08;stroke-width:3;stroke-miterlimit:4;stroke-dasharray:none;stroke-opacity:1"
       d="m 89.363013,111.92397 c 0.49533,-0.0201 0.95406,-0.27003 1.45521,-0.19844 0.069,0.01 0.12967,0.0547 0.19844,0.0661 0.0652,0.0109 0.13359,-0.013 0.19844,0 0.0483,0.01 0.0865,0.0478 0.13229,0.0662 0.13446,0.0538 0.21439,0.0547 0.33073,0.13229 0.0259,0.0173 0.0383,0.0522 0.0661,0.0661 0.0394,0.0197 0.0882,0 0.13229,0"
       id="path5393"
       inkscape:connector-curvature="0" />
    <path
       style="fill:none;fill-opacity:1;stroke:#0e0a08;stroke-width:3;stroke-miterlimit:4;stroke-dasharray:none;stroke-opacity:1"
       d="m 142.21353,109.8073 c 0.11025,0.0441 0.22453,0.0792 0.33073,0.1323 0.41392,0.20695 0.8064,0.47145 1.19063,0.7276 0.68678,0.45784 1.35416,0.94592 2.05052,1.38906 1.17607,0.74841 -0.47533,-0.30081 0.66146,0.33073 0.0964,0.0535 0.16597,0.14914 0.26458,0.19844 0.0813,0.0407 0.17584,0.0464 0.26458,0.0661 0.3755,0.0834 0.25104,0.0661 0.59532,0.0661 0.11025,0 0.22047,0 0.33072,0 0.11026,0 0.22263,0.0216 0.33073,0 0.17241,-0.0345 0.5928,-0.26946 0.72761,-0.33073 0.51474,-0.23397 0.22145,-0.0134 0.79375,-0.46302 0.39835,-0.313 0.84008,-0.69787 1.12448,-1.12448 0.082,-0.12306 0.11361,-0.2757 0.19843,-0.39687 0.0715,-0.10218 0.18246,-0.17072 0.26459,-0.26459 0.0726,-0.083 0.13435,-0.17487 0.19844,-0.26458 0.0462,-0.0647 0.0761,-0.14222 0.13229,-0.19844 0.003,-0.003 0.32739,-0.19843 0.33073,-0.19843 0.0697,0 0.13229,0.0441 0.19843,0.0661 0.23419,0.0781 0.21781,0.0622 0.46302,0.19844 0.1124,0.0624 0.21575,0.14094 0.33073,0.19844 0.10621,0.0531 0.22265,0.0832 0.33073,0.13229 0.13465,0.0612 0.25787,0.14789 0.39688,0.19844 0.28009,0.10185 1.0583,0.10583 1.32291,0 0.21614,-0.0865 0.58325,-0.3848 0.72761,-0.52917 0.61314,-0.61315 0.50562,-0.55853 0.92604,-1.32292 0.23495,-0.42717 0.37248,-0.61961 0.52917,-1.05833 0.054,-0.15117 0.0815,-0.31074 0.13229,-0.46302 0.0375,-0.11265 0.10104,-0.21618 0.13229,-0.33073 0.14655,-0.53736 -0.0109,-0.23232 0.13229,-0.66146 0.0375,-0.11264 0.0982,-0.217 0.13229,-0.33073 0.0323,-0.10768 0.0244,-0.22634 0.0662,-0.33073 0.0413,-0.10317 0.42267,-0.67379 0.46302,-0.7276 0.6423,-0.85642 1.56509,-1.40749 2.4474,-1.98438 0.0825,-0.054 0.17012,-0.10395 0.26458,-0.13229 0.53941,-0.16182 0.24363,0.0523 0.66146,-0.19844 0.0267,-0.016 0.0586,-0.0359 0.0661,-0.0661 0.0161,-0.0642 0,-0.13229 0,-0.19844 0,-0.11024 0,-0.22048 0,-0.33073 0,-0.13229 0.0119,-0.26512 0,-0.39687 -0.0293,-0.32231 -0.11022,-0.40413 -0.19843,-0.72761 -0.0296,-0.10846 -0.0418,-0.22098 -0.0661,-0.33073 -0.0497,-0.22353 -0.15468,-0.4426 -0.19844,-0.66146 -0.009,-0.0432 -0.009,-0.0891 0,-0.13229 0.0156,-0.0782 0.16031,-0.53813 0.19844,-0.59531 0.16534,-0.248 0.60719,-0.44369 0.8599,-0.59531 0.36576,-0.21946 0.74305,-0.4046 1.12448,-0.59531 0.13229,-0.0661 0.25881,-0.14535 0.39687,-0.19844 0.14981,-0.0576 0.31321,-0.0747 0.46302,-0.13229 0.13806,-0.0531 0.26458,-0.1323 0.39688,-0.19844 0.15433,-0.0441 0.31075,-0.0815 0.46302,-0.13229 0.36208,-0.12069 0.35655,-0.16207 0.7276,-0.33073 0.21619,-0.0983 0.44905,-0.15838 0.66146,-0.26459 0.11499,-0.0575 0.21325,-0.14622 0.33073,-0.19843 0.0831,-0.0369 0.18103,-0.0303 0.26458,-0.0661 0.14613,-0.0626 0.25466,-0.19348 0.39688,-0.26458 0.0624,-0.0312 0.13229,-0.0441 0.19843,-0.0662"
       id="path5395"
       inkscape:connector-curvature="0" />
    <path
       style="fill:none;fill-opacity:1;stroke:#0e0a08;stroke-width:3;stroke-miterlimit:4;stroke-dasharray:none;stroke-opacity:1"
       d="m 170.47302,93.09272 c 0.21542,-0.0288 0.44214,-0.0118 0.64624,-0.0865 0.0747,-0.0273 0.0826,-0.13636 0.13229,-0.19843 0.0389,-0.0487 0.0933,-0.0836 0.1323,-0.1323 0.0993,-0.12415 0.16279,-0.27473 0.26458,-0.39687 0.11978,-0.14373 0.27511,-0.25483 0.39687,-0.39688 0.14349,-0.1674 0.2534,-0.36176 0.39688,-0.52916 0.0609,-0.071 0.14406,-0.12232 0.19844,-0.19844 0.0573,-0.0802 0.075,-0.18435 0.13229,-0.26458 0.0544,-0.0761 0.13856,-0.12658 0.19844,-0.19844 0.10178,-0.12214 0.16525,-0.27272 0.26458,-0.39688 0.0389,-0.0487 0.0949,-0.0824 0.13229,-0.13229 0.0871,-0.11614 0.11782,-0.27596 0.19844,-0.39687 0.0346,-0.0519 0.1044,-0.0765 0.13229,-0.13229 0.0196,-0.0394 -0.0312,-0.10111 0,-0.1323 0.0882,-0.0882 0.0661,0.11025 0.0661,-0.0661"
       id="path5397"
       inkscape:connector-curvature="0" />
    <path
       style="fill:none;fill-opacity:1;stroke:#0e0a08;stroke-width:3;stroke-miterlimit:4;stroke-dasharray:none;stroke-opacity:1"
       d="m 158.02239,101.34064 c -1.13165,0 0.4795,-0.0216 -0.66146,0.0661 -0.17587,0.0135 -0.35399,-0.0206 -0.52917,0 -0.65071,0.0766 -1.19457,0.35182 -1.78594,0.59532 -1.71725,0.7071 0.4634,-0.24441 -0.92604,0.39687 -0.15245,0.0704 -0.32001,0.11043 -0.46302,0.19844 -0.14666,0.0902 -0.2591,0.22741 -0.39687,0.33073 -0.12719,0.0954 -0.26829,0.17106 -0.39688,0.26458 -0.11417,0.083 -0.21656,0.18155 -0.33073,0.26458 -0.25717,0.18704 -0.52916,0.35278 -0.79375,0.52917 -0.69112,0.46075 -1.38985,0.91914 -2.11666,1.32292 -0.0862,0.0479 -0.17839,0.0844 -0.26459,0.13229 -0.11239,0.0624 -0.22376,0.12712 -0.33073,0.19844 -0.0917,0.0611 -0.16822,0.1449 -0.26458,0.19843 -0.1038,0.0577 -0.22222,0.0841 -0.33073,0.1323 -0.0901,0.04 -0.17446,0.0922 -0.26458,0.13229 -0.10851,0.0482 -0.22223,0.0841 -0.33073,0.13229 -0.18021,0.0801 -0.3479,0.1869 -0.52917,0.26458 -0.12816,0.0549 -0.26458,0.0882 -0.39687,0.13229 -0.19844,0.0662 -0.39688,0.1323 -0.59532,0.19844 -0.13229,0.0441 -0.27215,0.0699 -0.39687,0.13229 -0.0711,0.0356 -0.12734,0.0967 -0.19844,0.1323 -0.0624,0.0312 -0.14041,0.0275 -0.19844,0.0661 -0.0778,0.0519 -0.12657,0.13855 -0.19843,0.19844 -0.53144,0.44286 0.18394,-0.22064 -0.46302,0.26458 -0.0686,0.0515 -0.37299,0.38585 -0.46302,0.46302 -0.12785,0.14626 -0.31732,0.20931 -0.46303,0.33073 -0.0719,0.0599 -0.13229,0.13229 -0.19843,0.19844 -0.0661,0.0661 -0.13229,0.13229 -0.19844,0.19844 -0.0441,0.0661 -0.0761,0.14222 -0.13229,0.19843 -0.0562,0.0562 -0.14222,0.0761 -0.19844,0.1323 -0.0562,0.0562 -0.0826,0.13636 -0.13229,0.19843 -0.0779,0.0974 -0.18976,0.16481 -0.26458,0.26459 -0.0296,0.0394 -0.0193,0.1167 -0.0661,0.13229 -0.16865,0.0562 -0.3528,0.0441 -0.52917,0.0661"
       id="path5399"
       inkscape:connector-curvature="0" />
    <path
       style="fill:none;fill-opacity:1;stroke:#0e0a08;stroke-width:3;stroke-miterlimit:4;stroke-dasharray:none;stroke-opacity:1"
       d="m 177.53541,201.22085 c 0,4.23333 0,8.46666 0,12.69999"
       id="path5405"
       inkscape:connector-curvature="0" />
    <path
       style="fill:none;fill-opacity:1;stroke:#0e0a08;stroke-width:3;stroke-miterlimit:4;stroke-dasharray:none;stroke-opacity:1"
       d="m 143.40416,202.27918 c 1.14652,0.44097 2.4175,0.64152 3.43958,1.32292 0.23207,0.1547 -0.161,0.5348 -0.26458,0.79375 -0.64865,1.6216 0.0919,-0.81621 -0.26459,1.32291 -0.0459,0.2751 -0.20989,0.52027 -0.26458,0.79375 -0.0346,0.17297 0.0346,0.3562 0,0.52917 -0.0547,0.27348 -0.20989,0.52027 -0.26458,0.79375 -0.10377,0.51889 0,1.05833 0,1.5875 0,0.84927 -0.1048,1.80753 0,2.64583 0.0451,0.36084 0.21947,0.6975 0.26458,1.05833 0.0438,0.35005 -0.0499,0.70911 0,1.05834 0.0395,0.27609 0.18796,0.52559 0.26458,0.79375 0.19979,0.69929 0.42633,1.39671 0.52917,2.11666 0.0374,0.26192 -0.0435,0.53277 0,0.79375 0.38709,2.32257 0.0973,-0.40444 0.52917,1.32292 0.0428,0.17113 -0.0558,0.36182 0,0.52917 0.0394,0.11832 0.22513,0.14626 0.26458,0.26458 0.10705,0.32118 0,0.96401 0,1.32292 0,0.0882 0.0624,0.20222 0,0.26458 -0.0624,0.0624 -0.1764,0 -0.26458,0"
       id="path5409"
       inkscape:connector-curvature="0" />
    <path
       style="fill:none;fill-opacity:1;stroke:#0e0a08;stroke-width:3;stroke-miterlimit:4;stroke-dasharray:none;stroke-opacity:1"
       d="m 170.92082,203.33751 c -1.67571,0.88194 -3.43939,1.61384 -5.02708,2.64584 -0.23384,0.15199 -0.1764,0.52916 -0.26458,0.79375 -0.72515,2.17542 0.093,-0.5578 -0.26459,1.5875 -0.0459,0.2751 -0.21873,0.51864 -0.26458,0.79375 -0.0435,0.26098 0.0435,0.53276 0,0.79375 -0.0458,0.2751 -0.21873,0.51864 -0.26458,0.79374 -0.0725,0.43498 0.0865,0.89051 0,1.32292 -0.0547,0.27347 -0.21873,0.51864 -0.26459,0.79375 -0.087,0.52197 0.0748,1.06365 0,1.5875 -0.0514,0.35999 -0.21314,0.69834 -0.26458,1.05833 -0.0374,0.26192 0,0.52917 0,0.79375 0,0.79375 0,1.5875 0,2.38125 0,0.49737 -0.10999,1.41211 0,1.85209 0.0478,0.19132 0.21675,0.33784 0.26458,0.52916 0.0856,0.34224 0,0.70557 0,1.05834 0,0.61735 0,1.23473 0,1.85208"
       id="path5411"
       inkscape:connector-curvature="0" />
    <path
       style="fill:#000000;fill-opacity:1;stroke:#0e0a08;stroke-width:3;stroke-miterlimit:4;stroke-dasharray:none;stroke-opacity:1"
       d="m 360.33278,132.73616 c -0.67545,1.16803 -1.12718,2.44841 -1.49672,3.74177 -0.14129,0.49448 -0.19359,1.0152 -0.37417,1.49672 -0.19585,0.52227 -0.57198,0.96754 -0.74835,1.4967 -0.20114,0.60335 -0.17306,1.26755 -0.37417,1.87089 -0.1764,0.52917 -0.57198,0.96754 -0.74838,1.49671 -0.20111,0.60334 -0.24945,1.24726 -0.37417,1.87089 -0.24945,1.24726 -0.4989,2.49451 -0.74835,3.74177 -0.92427,4.62137 0.2091,-1.1501 -0.74835,4.11595 -0.20568,1.13126 -0.64812,3.01336 -0.74837,4.11595 -0.0565,0.62107 0.0565,1.24982 0,1.87089 -0.0687,0.75556 -0.31118,1.48901 -0.37417,2.24506 -0.0621,0.74577 0,1.49671 0,2.24506 -0.12473,0.74836 -0.30549,1.48951 -0.37418,2.24507 -0.11292,1.24214 0.13774,2.50214 0,3.74177 -0.49517,4.45662 -0.37417,-1.41952 -0.37417,2.99342 0,0.74836 0,1.49671 0,2.24507 0,0.36074 -0.1547,1.93565 0,2.24506 0.22227,0.44457 0.96001,1.0167 1.49669,0.74835 0.15777,-0.0789 0.22744,-0.27633 0.3742,-0.37417 0.23204,-0.15471 0.55113,-0.17697 0.74835,-0.37418 0.1972,-0.19721 0.20683,-0.52524 0.37417,-0.74835 0.21167,-0.28223 0.56685,-0.44586 0.74835,-0.74836 0.20294,-0.33821 0.2277,-0.75632 0.37418,-1.12253 1.10114,-2.75283 -0.49263,1.85208 0.74837,-1.87089 0.24945,-0.74835 0.39558,-1.53951 0.74835,-2.24506 0.20111,-0.40223 0.54724,-0.72031 0.74835,-1.12253 0.17639,-0.35278 0.1978,-0.76976 0.37417,-1.12254 0.20114,-0.40223 0.49892,-0.74835 0.74837,-1.12253 0.24945,-0.37418 0.46742,-0.77137 0.74835,-1.12253 0.22037,-0.27547 0.53668,-0.46613 0.74835,-0.74835 0.16735,-0.22312 0.20685,-0.52524 0.37417,-0.74836 0.21167,-0.28222 0.53671,-0.46613 0.74838,-0.74836 0.33467,-0.44623 0.43894,-1.03259 0.74834,-1.4967 0.0978,-0.14677 0.2953,-0.21641 0.37418,-0.37418 0.0558,-0.11156 -0.0394,-0.25585 0,-0.37418 0.0882,-0.26458 0.28598,-0.48377 0.37417,-0.74835 0.0395,-0.11833 -0.0558,-0.26262 0,-0.37418 0.0789,-0.15777 0.3184,-0.20684 0.37417,-0.37418 0.0789,-0.23665 -0.11154,-0.52523 0,-0.74835 0.0558,-0.11156 0.28599,0.0882 0.37418,0 0.1764,-0.17639 -0.11155,-0.52524 0,-0.74836 0.0789,-0.15776 0.2953,-0.21641 0.3742,-0.37417 0.12922,-0.25846 -0.13137,-1.73955 0,-1.87089 0.0882,-0.0882 0.24945,0 0.37417,0"
       id="path7123"
       inkscape:connector-curvature="0" />
    <path
       style="fill:#fcd023;fill-opacity:1;stroke:#0e0a08;stroke-width:3;stroke-miterlimit:4;stroke-dasharray:none;stroke-opacity:1"
       d="m 374.17734,186.24352 c -1.51992,0.21696 -4.31292,-0.49231 -5.61266,0.37418 -0.43418,0.28944 -1.60506,1.51645 -1.87089,1.87089 -0.46733,0.6231 -0.77354,1.54706 -1.12252,2.24506 -0.24948,0.4989 -0.4137,1.05047 -0.74838,1.49671 -0.3175,0.42333 -0.80502,0.6992 -1.12252,1.12253 -0.63338,0.84451 -0.92646,1.76386 -1.49672,2.61924 -0.29353,0.44029 -0.80502,0.6992 -1.12252,1.12253 -0.33467,0.44624 -0.43894,1.0326 -0.74835,1.49671 -0.45643,0.68465 -0.47707,0.0373 -0.74837,1.12253 -0.0605,0.24201 0.0605,0.50636 0,0.74836 -0.0676,0.27057 -0.30652,0.47779 -0.37417,0.74835 -0.0605,0.24201 0.0605,0.50636 0,0.74836 -0.0676,0.27057 -0.30652,0.47778 -0.37418,0.74835 -0.14301,0.57205 0,2.04738 0,2.61925 0,0.95374 -0.15592,2.05786 0,2.99341 0.0649,0.38906 0.29684,0.73578 0.37418,1.12254 0.0978,0.48921 -0.121,1.0127 0,1.4967 0.13528,0.54114 0.57197,0.96755 0.74834,1.49671 0.0395,0.11833 -0.0558,0.26262 0,0.37418 0.2145,0.42897 0.78074,0.52048 1.12255,0.74836 0.52395,0.3493 0.9602,1.22845 1.4967,1.49671 0.35279,0.17639 0.76975,0.19778 1.12254,0.37417 0.15777,0.0789 0.22741,0.27634 0.37418,0.37418 0.23206,0.1547 0.49889,0.24945 0.74834,0.37418 0.24945,0.12472 0.47779,0.30653 0.74838,0.37417 0.24199,0.0605 0.50633,-0.0605 0.74835,0 0.27056,0.0676 0.47778,0.30654 0.74834,0.37418 0.36301,0.0907 0.76756,-0.11832 1.12252,0 0.26459,0.0882 0.48379,0.28599 0.74838,0.37418 0.27048,0.0902 3.43662,0.0763 3.74176,0 0.27057,-0.0676 0.47779,-0.30654 0.74835,-0.37418 0.24201,-0.0605 0.50636,0.0605 0.74837,0 0.27057,-0.0676 0.4894,-0.2706 0.74835,-0.37418 0.83759,-0.33503 1.87553,-0.56474 2.61924,-1.12253 0.28223,-0.21166 0.44585,-0.56685 0.74835,-0.74835 0.33822,-0.20293 0.78433,-0.17125 1.12255,-0.37418 0.3025,-0.1815 0.4989,-0.4989 0.74835,-0.74835 1.11069,-1.11071 1.81932,-2.40861 2.61924,-3.74178 0.52708,-0.87848 0.78039,-1.01557 1.12252,-1.87088 0.1465,-0.36621 0.2277,-0.75633 0.37417,-1.12254 0.10359,-0.25894 0.30655,-0.47778 0.37418,-0.74835 0.0605,-0.242 -0.0605,-0.50635 0,-0.74835 0.0677,-0.27057 0.30654,-0.47779 0.3742,-0.74836 0.13443,-0.53777 0,-1.6617 0,-2.24506 0,-0.87308 0,-1.74616 0,-2.61925 0,-0.62362 0.12229,-1.25936 0,-1.87088 -0.0774,-0.38676 -0.29684,-0.73578 -0.3742,-1.12253 -0.1859,-0.92957 0.22153,-2.48154 0,-3.3676 -0.0676,-0.27057 -0.30652,-0.47779 -0.37418,-0.74835 -0.0605,-0.24201 0.0605,-0.50636 0,-0.74836 -0.0676,-0.27057 -0.30652,-0.47779 -0.37417,-0.74835 -0.0605,-0.24201 0.0605,-0.50636 0,-0.74836 0.22553,-0.67724 -0.60613,-0.6959 -0.74835,-1.12253 -0.54001,-1.62005 0.7153,0.13753 -0.37417,-1.49671 -0.19569,-0.29353 -0.5906,-0.43282 -0.74837,-0.74836 -0.0558,-0.11155 0.0882,-0.28598 0,-0.37417 -0.0882,-0.0882 -0.28597,0.0882 -0.37418,0 -0.0882,-0.0882 0.0882,-0.28598 0,-0.37418 -0.0882,-0.0882 -0.2626,0.0558 -0.37417,0 -0.15777,-0.0789 -0.21641,-0.29529 -0.37418,-0.37418 -0.23735,-0.11868 -1.53389,0 -1.87089,0 -0.97957,0 -2.43665,-0.15515 -3.36759,0 -0.50726,0.0846 -0.9978,0.24945 -1.4967,0.37418 z"
       id="path7131"
       inkscape:connector-curvature="0" />
    <path
       style="fill:#fcd023;fill-opacity:1;stroke:#0e0a08;stroke-width:3;stroke-miterlimit:4;stroke-dasharray:none;stroke-opacity:1"
       d="m 397.7505,185.86934 c -0.86643,1.36258 -0.94713,3.02462 -1.49669,4.49013 -0.6862,1.82984 -0.88244,1.07252 -1.12255,2.99342 -0.55645,4.45154 0.80716,-1.94847 -0.37418,3.3676 -0.11154,0.50201 -0.31739,0.98559 -0.37417,1.49671 -0.0689,0.61981 0,1.24725 0,1.87088 0,1.87089 0,3.74177 0,5.61266 0,1.12253 0.13922,2.25373 0,3.3676 -0.0638,0.51028 -0.30144,0.98762 -0.37417,1.49671 -0.21828,1.52789 0.29101,0.87308 0,2.61924 -0.0458,0.2751 -0.31949,0.47487 -0.37418,0.74835 -0.12231,0.61152 0.15124,1.26588 0,1.87089 -0.0677,0.27057 -0.30654,0.47779 -0.37417,0.74835 -0.14504,0.58016 0,1.59447 0,2.24507 0,0.12472 -0.0882,0.28598 0,0.37418 0.0882,0.0882 0.28596,-0.0882 0.37417,0 0.0882,0.0882 -0.0882,0.28598 0,0.37417 0.17637,0.17639 0.4989,0 0.74835,0 0.67048,0 2.4288,0.14116 2.99342,0 0.27056,-0.0676 0.47778,-0.30653 0.74834,-0.37417 0.48401,-0.12101 1.00751,0.0978 1.49673,0 0.76131,0.12995 1.21226,-0.61663 1.87089,-0.74836 0.3669,-0.0734 0.75343,0.0615 1.12252,0 0.77812,-0.12968 1.46696,-0.61867 2.24507,-0.74835 0.87461,-0.14577 2.79403,0 3.74177,0 0.24944,0 0.50636,0.0605 0.74834,0 0.27059,-0.0676 0.48379,-0.28599 0.74838,-0.37418 0.33676,-0.11225 0.78576,0.11225 1.12252,0 0.16735,-0.0558 0.2164,-0.29529 0.37417,-0.37418 0.22313,-0.11156 0.52525,0.11156 0.74835,0 0.17092,-0.0855 1.41126,-1.32581 1.49672,-1.49671 0.26879,-0.53757 1.03973,-2.78796 1.12252,-3.36759 0.14113,-0.98778 -0.11017,-2.00172 0,-2.99342 0.0702,-0.63209 0.30396,-1.2388 0.3742,-1.87089 0.0551,-0.49585 -0.0706,-1.00282 0,-1.49671 0.0558,-0.39045 0.31838,-0.73208 0.37418,-1.12253 0.0705,-0.49389 0,-0.99781 0,-1.49671 0,-1.24726 0,-2.49451 0,-3.74177 0,-1.62144 0,-3.24287 0,-4.86431 0,-0.62363 0.12229,-1.25937 0,-1.87088 -0.0774,-0.38676 -0.29684,-0.73578 -0.37418,-1.12254 -0.0978,-0.48921 0.121,-1.0127 0,-1.49671 -0.0677,-0.27056 -0.30654,-0.47778 -0.3742,-0.74835 -0.0605,-0.242 0.0605,-0.50635 0,-0.74835 -0.0676,-0.27057 -0.28596,-0.48378 -0.37417,-0.74836 -0.0394,-0.11832 0.0558,-0.26262 0,-0.37418 -0.0789,-0.15776 -0.29528,-0.21641 -0.37418,-0.37418 -0.0558,-0.11155 0.0558,-0.26261 0,-0.37417 -0.15777,-0.31554 -0.49889,-0.49891 -0.74834,-0.74836 -0.24945,-0.24945 -0.41368,-0.63679 -0.74835,-0.74835 -0.23667,-0.0789 -0.5117,0.0789 -0.74837,0 -0.16733,-0.0558 -0.20683,-0.3184 -0.37418,-0.37418 -0.35496,-0.11832 -0.74835,0 -1.12252,0 -0.82603,0 -3.50671,0.15231 -4.11596,0 -0.17111,-0.0428 -0.20683,-0.3184 -0.37418,-0.37418 -0.0865,-0.0288 -3.92649,-0.0947 -4.11593,0 -0.15778,0.0789 -0.21643,0.2953 -0.37418,0.37418 -0.11157,0.0558 -0.28599,-0.0882 -0.3742,0 -0.0882,0.0882 0.0882,0.28598 0,0.37418 -0.0882,0.0882 -0.28596,-0.0882 -0.37417,0 -0.0882,0.0882 0.0882,0.28598 0,0.37418 -0.17637,0.17639 -0.52523,-0.11156 -0.74835,0 -0.15777,0.0789 -0.2164,0.29529 -0.37417,0.37417 -0.11158,0.0558 -0.24945,0 -0.37418,0 -0.4989,0 -0.99782,0 -1.49672,0 z"
       id="path7133"
       inkscape:connector-curvature="0" />
    <path
       style="fill:none;fill-opacity:1;stroke:#0e0a08;stroke-width:3;stroke-miterlimit:4;stroke-dasharray:none;stroke-opacity:1"
       d="m 357.33937,174.64402 c -0.38092,1.28824 0.26302,2.80081 0,4.11595 -0.0774,0.38676 -0.29684,0.73578 -0.3742,1.12254 -0.10377,0.51889 0.10379,1.35199 0,1.87088 -0.0547,0.27348 -0.30652,0.47779 -0.37418,0.74836 -0.0605,0.242 0,0.4989 0,0.74835 0,0.24945 0.0605,0.50635 0,0.74836 -0.0676,0.27056 -0.30652,0.47778 -0.37417,0.74835 -0.22506,0.90024 0.26874,2.93558 0,3.74178 -0.0882,0.26458 -0.28599,0.48376 -0.37418,0.74835 -0.0544,0.16317 -0.0544,3.5786 0,3.74177 0.0882,0.26459 0.28599,0.48377 0.37418,0.74836 0.11226,0.33676 -0.11226,0.78577 0,1.12253 0.0882,0.26458 0.28599,0.48377 0.37417,0.74835 0.0789,0.23665 -0.11155,0.52524 0,0.74836 0.0789,0.15777 0.2953,0.21641 0.37418,0.37418 0.11157,0.22311 -0.17638,0.57196 0,0.74835 0.0882,0.0882 0.26262,-0.0558 0.3742,0 0.31551,0.15777 0.4328,0.59059 0.74834,0.74836 0.11155,0.0558 0.26263,-0.0558 0.37418,0 0.15777,0.0789 0.2164,0.29529 0.37417,0.37417 0.22312,0.11156 0.57198,-0.17639 0.74835,0 0.0882,0.0882 0,0.24945 0,0.37418"
       id="path7135"
       inkscape:connector-curvature="0" />
    <path
       style="fill:#fcd023;fill-opacity:1;stroke:none;stroke-width:3;stroke-miterlimit:4;stroke-dasharray:none;stroke-opacity:1"
       d="m 380.53835,114.77565 c 0.46699,1.9047 2.15149,3.55461 2.99342,5.23848 0.17639,0.35278 0.19777,0.76976 0.37417,1.12254 0.20111,0.40222 0.517,0.73691 0.74835,1.12253 0.37129,0.61879 0.75126,1.25209 1.12255,1.87088 0.4178,0.69636 0.636,1.59638 1.12252,2.24507 0.21166,0.28222 0.5906,0.43282 0.74837,0.74835 0.11155,0.22312 -0.0605,0.50635 0,0.74836 0.0676,0.27056 0.24945,0.4989 0.37417,0.74835 0.12473,0.24945 0.21948,0.5163 0.37418,0.74835 0.0978,0.14677 0.27633,0.22742 0.37417,0.37418 0.1547,0.23206 0.28599,0.48377 0.37418,0.74836 0.15483,0.46451 -0.30716,0.40768 0.37417,0.74835 0.63688,0.31844 0.93361,-0.87063 1.12255,-1.12253 0.92734,-1.23647 0.60497,-0.20283 1.12252,-1.49671 0.21561,-0.53902 0.37227,-1.36945 0.74835,-1.87089 0.21166,-0.28222 0.56687,-0.44584 0.74837,-0.74835 0.20291,-0.33821 0.22767,-0.75633 0.37417,-1.12253 0.30591,-0.76479 0.75401,-1.50804 1.12252,-2.24507 0.36174,-0.72345 0.67427,-1.57266 1.12253,-2.24506 0.19568,-0.29353 0.5906,-0.43282 0.74837,-0.74836 0.0558,-0.11155 -0.0558,-0.26261 0,-0.37417 0.0789,-0.15777 0.29527,-0.21641 0.37417,-0.37418 0.11155,-0.22312 -0.11154,-0.52524 0,-0.74835 0.46236,-0.92475 0.37418,0.12915 0.37418,-0.74836"
       id="path7145"
       inkscape:connector-curvature="0" />
    <path
       style="fill:none;fill-opacity:1;stroke:#0e0a08;stroke-width:3;stroke-miterlimit:4;stroke-dasharray:none;stroke-opacity:1"
       d="m 382.40925,99.434379 c -0.49893,0.249452 -0.99783,0.498904 -1.49673,0.748351 0,0.12473 0.0882,0.28599 0,0.37418 -0.0882,0.0882 -0.28598,-0.0882 -0.37417,0 -0.1764,0.17639 0,0.4989 0,0.74836 0,0.37884 -0.10062,2.41798 0,2.61924 0.0789,0.15777 0.2953,0.21641 0.37417,0.37418 0.0558,0.11155 -0.0558,0.26261 0,0.37417 0.36092,0.72183 0.63331,0.12956 1.12253,0.37418 0.15777,0.0789 0.20685,0.3184 0.3742,0.37418 0.0464,0.0155 1.32865,0.084 1.49669,0 0.15777,-0.0789 0.2164,-0.2953 0.37417,-0.37418 0.11158,-0.0558 0.26263,0.0558 0.37418,0 0.15777,-0.0789 0.21643,-0.29529 0.3742,-0.37418 0.11155,-0.0558 0.2626,0.0558 0.37417,0 0.31552,-0.15777 0.43281,-0.59058 0.74835,-0.74835 0.11155,-0.0558 0.28599,0.0882 0.37417,0 0.0882,-0.0882 -0.0882,-0.28599 0,-0.37418 0.7742,-0.77419 -0.0303,1.18306 0.74835,-0.37418 0.0257,-0.0511 0.0257,-2.19396 0,-2.24506 -0.0789,-0.15777 -0.29527,-0.21641 -0.37417,-0.37418 -0.0558,-0.11156 0.0882,-0.28598 0,-0.37418 -0.0882,-0.0882 -0.26263,0.0558 -0.37418,0 -1.55723,-0.778614 0.40003,0.0258 -0.37417,-0.748351 -0.0882,-0.08819 -0.28599,0.08819 -0.37417,0 -0.0882,-0.08819 0.0882,-0.285982 0,-0.374176 -0.1764,-0.17639 -0.57198,0.176387 -0.74835,0 -0.49893,-0.498904 0.62362,-0.374179 -0.3742,-0.374179 -0.24945,0 -0.57195,-0.176387 -0.74835,0 -0.0882,0.0882 0.11158,0.3184 0,0.374179 -0.45995,0.229981 -0.9978,0.249449 -1.49669,0.374176 z"
       id="path7147"
       inkscape:connector-curvature="0" />
    <path
       style="fill:none;fill-opacity:1;stroke:#0e0a08;stroke-width:3;stroke-miterlimit:4;stroke-dasharray:none;stroke-opacity:1"
       d="m 395.50543,100.93109 c -0.4989,0.37418 -0.99779,0.74835 -1.49669,1.12253 0,0.12473 0.0882,0.28598 0,0.37418 -0.0882,0.0882 -0.28599,-0.0882 -0.37418,0 -0.0882,0.0882 0.0558,0.26262 0,0.37417 -0.0789,0.15777 -0.2953,0.21642 -0.37417,0.37418 -0.15539,0.31075 0,1.14198 0,1.49671 0,0.2515 -0.11044,0.90171 0,1.12253 0.0789,0.15777 0.24945,0.24946 0.37417,0.37418 0.12473,0.12473 0.21641,0.29529 0.37418,0.37418 0.0901,0.045 3.6517,0.045 3.74176,0 0.44903,-0.22451 0.67352,-0.89803 1.12255,-1.12253 0.11155,-0.0558 0.28596,0.0882 0.37417,0 0.0882,-0.0882 -0.0558,-0.26262 0,-0.37418 0.0789,-0.15777 0.29528,-0.21641 0.37418,-0.37418 0.11041,-0.22082 0,-0.87103 0,-1.12253 0,-0.36636 0.10448,-2.41025 0,-2.61924 -0.41368,-0.82733 -0.23223,-0.11612 -0.74835,-0.37418 -0.15777,-0.0789 -0.21643,-0.29529 -0.3742,-0.37418 -0.19249,-0.0962 -1.29445,-0.0809 -1.4967,0 -0.51789,0.20716 -0.99779,0.49891 -1.49672,0.74836 z"
       id="path7149"
       inkscape:connector-curvature="0" />
    <path
       style="fill:#000000;fill-opacity:1;stroke:#0e0a08;stroke-width:3;stroke-miterlimit:4;stroke-dasharray:none;stroke-opacity:1"
       d="m 413.46596,155.1868 c 0.19462,0.25951 1.33344,1.59199 1.49669,2.24507 0.0605,0.242 -0.0605,0.50635 0,0.74835 0.1981,0.79238 0.92446,1.45269 1.12255,2.24506 0.0605,0.24201 -0.0789,0.51171 0,0.74836 0.0558,0.16734 0.24945,0.24945 0.37417,0.37418 0.12473,0.24945 0.30655,0.47778 0.37418,0.74835 0.0605,0.24201 0,0.49891 0,0.74835 0.12472,0.24946 0.30654,0.47779 0.37417,0.74836 0.12102,0.48401 -0.15777,1.02341 0,1.49671 0.0558,0.16734 0.3184,0.20684 0.37417,0.37418 0.18709,0.56126 -0.18708,1.30962 0,1.87088 0.0882,0.26459 0.30655,0.47779 0.37418,0.74836 0.14613,0.58449 0,2.61962 0,3.3676 0,0.12472 -0.0882,0.28598 0,0.37417 0.0882,0.0882 0.24947,0 0.3742,0 0.12472,0 0.2626,0.0558 0.37417,0 0.15777,-0.0789 0.21641,-0.29529 0.37418,-0.37417 0.11154,-0.0558 0.26262,0.0558 0.37417,0 0.15777,-0.0789 0.24945,-0.24946 0.37417,-0.37418 0.24945,-0.24946 0.4989,-0.4989 0.74835,-0.74836 0.3742,-0.37418 0.80505,-0.69919 1.12255,-1.12253 0.33467,-0.44623 0.43894,-1.0326 0.74835,-1.49671 0.45643,-0.68465 0.47707,-0.0373 0.74834,-1.12253 0.0605,-0.242 -0.0605,-0.50635 0,-0.74836 0.13529,-0.54113 0.63897,-0.94975 0.74838,-1.4967 0.12229,-0.61152 0,-1.24726 0,-1.87089 0,-1.16238 -0.34449,-1.23535 -0.74838,-2.24507 -0.79171,-1.97929 -1.56937,-3.9598 -2.24504,-5.98683 -0.24947,-0.74836 -0.59367,-1.47155 -0.74837,-2.24507 -0.0489,-0.2446 0.0489,-0.50375 0,-0.74835 -0.1547,-0.77352 -0.61868,-1.46696 -0.74835,-2.24507 -0.0615,-0.36908 0.0734,-0.75562 0,-1.12253 -0.0547,-0.27348 -0.31948,-0.47487 -0.37417,-0.74835 -0.0734,-0.36691 0.0734,-0.75562 0,-1.12254 -0.0618,-0.30919 -1.27768,-2.66484 -1.49673,-2.99341 -0.0978,-0.14677 -0.27633,-0.22742 -0.37417,-0.37418 -0.1547,-0.23206 -0.20682,-0.52524 -0.37417,-0.74835 -0.21167,-0.28223 -0.53668,-0.46614 -0.74835,-0.74836 -0.16735,-0.22312 -0.21947,-0.5163 -0.37417,-0.74835 -0.34319,-0.51476 -0.57727,-0.38484 -1.12255,-0.74836 -0.51475,-0.34317 -0.38484,-0.57725 -0.74835,-1.12253 -0.37518,-0.56278 -1.19409,-0.51729 -1.49672,-1.12253 -0.25805,-0.51613 0.45315,-0.33469 -0.37417,-0.74836 -0.11155,-0.0558 -0.28597,0.0882 -0.37418,0 -0.0882,-0.0882 0.0882,-0.28598 0,-0.37418 -0.0882,-0.0882 -0.28599,0.0882 -0.37417,0 -0.0882,-0.0882 0.0882,-0.28598 0,-0.37417 -0.0882,-0.0882 -0.26263,0.0558 -0.37418,0 -0.31554,-0.15777 -0.43283,-0.59059 -0.74834,-0.74836 -0.11158,-0.0558 -0.26263,0.0558 -0.37418,0 -0.15777,-0.0789 -0.21643,-0.29529 -0.3742,-0.37417 -0.11155,-0.0558 -0.28596,0.0882 -0.37417,0 -0.4989,-0.49891 0.62362,-0.37418 -0.37417,-0.37418"
       id="path7151"
       inkscape:connector-curvature="0" />
    <path
       style="fill:none;fill-opacity:1;stroke:#0e0a08;stroke-width:3;stroke-miterlimit:4;stroke-dasharray:none;stroke-opacity:1"
       d="m 384.65429,199.33973 c 0.10326,-0.12382 3.58235,0.15943 3.74179,0 0.0882,-0.0882 -0.0882,-0.28599 0,-0.37418 0.17637,-0.17639 0.4989,0 0.74835,0 1.24724,0 2.49451,0 3.74176,0"
       id="path7153"
       inkscape:connector-curvature="0" />
    <path
       style="fill:none;fill-opacity:1;stroke:#0e0a08;stroke-width:3;stroke-miterlimit:4;stroke-dasharray:none;stroke-opacity:1"
       d="m 416.83355,193.35289 c 0.24945,-0.62363 0.4989,-1.24726 0.74834,-1.87089 0,-0.24945 -0.0605,-0.50635 0,-0.74835 0.0677,-0.27057 0.28599,-0.48377 0.37418,-0.74836 0.11835,-0.35497 -0.11832,-0.76755 0,-1.12253 0.0558,-0.16733 0.2953,-0.21641 0.3742,-0.37417 0.19209,-0.38418 -0.11592,-3.91056 0,-4.49013 0.0547,-0.27348 0.30652,-0.47779 0.37417,-0.74836 0.0908,-0.363 -0.11832,-0.76755 0,-1.12253 0.0882,-0.26458 0.28599,-0.48377 0.37418,-0.74835 0.12475,-0.37426 0,-1.76972 0,-2.24507 0,-0.76111 -0.15291,-2.38184 0,-2.99342 0.0676,-0.27057 0.28598,-0.48377 0.37417,-0.74835 0.14171,-0.4251 0,-1.04209 0,-1.49671 0,-0.14907 0,-2.67867 0,-1.49671"
       id="path7155"
       inkscape:connector-curvature="0" />
    <path
       style="fill:none;fill-opacity:1;stroke:#0e0a08;stroke-width:3;stroke-miterlimit:4;stroke-dasharray:none;stroke-opacity:1"
       d="m 360.33278,132.73616 c 0.62363,-0.24945 1.24725,-0.4989 1.87087,-0.74835 0.24945,0 0.50636,0.0605 0.74838,0 0.27056,-0.0676 0.51628,-0.21948 0.74834,-0.37418 0.14677,-0.0978 0.20683,-0.3184 0.37418,-0.37418 0.23664,-0.0789 0.5117,0.0789 0.74834,0 0.33468,-0.11155 0.43284,-0.59058 0.74838,-0.74835 0.11155,-0.0558 0.24945,0 0.37417,0 0.24945,-0.12473 0.51628,-0.21948 0.74835,-0.37418 0.14676,-0.0978 0.2164,-0.29529 0.37417,-0.37418 0.11155,-0.0558 0.26263,0.0558 0.37418,0 1.55723,-0.77861 -0.4,0.0258 0.37417,-0.74835 0.0882,-0.0882 0.26263,0.0558 0.37417,0 0.24948,-0.12473 0.99783,-0.87308 1.12255,-1.12253 0.0558,-0.11156 -0.0558,-0.26262 0,-0.37418 0.0789,-0.15777 0.2953,-0.21641 0.37418,-0.37418 0.0558,-0.11156 -0.0882,-0.28598 0,-0.37418 0.0882,-0.0882 0.28598,0.0882 0.37417,0 0.0882,-0.0882 -0.0558,-0.26262 0,-0.37417 0.0789,-0.15777 0.2953,-0.21641 0.37417,-0.37418 0.0558,-0.11156 -0.0558,-0.26262 0,-0.37418 0.0789,-0.15777 0.2953,-0.21641 0.37418,-0.37417 0.0558,-0.11156 -0.0558,-0.26262 0,-0.37418 0.0789,-0.15777 0.2953,-0.21641 0.3742,-0.37418 0.0558,-0.11156 -0.0558,-0.26262 0,-0.37418 0.0789,-0.15776 0.29527,-0.21641 0.37417,-0.37417 0.0558,-0.11156 -0.0558,-0.26262 0,-0.37418 0.0789,-0.15777 0.29528,-0.21641 0.37417,-0.37418 0.22022,-0.44041 -0.18346,-2.06886 0,-2.61924 0.0882,-0.26458 0.28599,-0.48377 0.37418,-0.74836 0.0905,-0.27149 0.0905,-1.97356 0,-2.24506 -0.34348,-1.03046 -0.37418,-0.52204 -0.37418,-1.49671 0,-1.99561 0,-3.99122 0,-5.98684 0,-0.37884 -0.10062,-2.41798 0,-2.61924 0.0789,-0.15776 0.3184,-0.20684 0.37418,-0.37417 0.11832,-0.35498 -0.16735,-0.78786 0,-1.12254 0.0789,-0.15776 0.3184,-0.20684 0.37417,-0.37417 0.0789,-0.23665 0,-0.49891 0,-0.74836 0.12473,-0.24945 0.28599,-0.48377 0.37418,-0.74835 0.0394,-0.11833 0,-0.24946 0,-0.37418 0,-0.24945 -0.0789,-0.5117 0,-0.74836 0.0558,-0.16733 0.2953,-0.21641 0.37417,-0.37417 0.14552,-0.29102 0,-1.83385 0,-2.24507 0,-1.746158 0,-3.492318 0,-5.238478 0,-0.137411 -0.0151,-1.481653 0,-1.496711 0.0882,-0.08819 0.28599,0.0882 0.37417,0 0.0882,-0.08819 -0.0558,-0.262617 0,-0.374176 1.24101,-1.240991 -0.17637,0.352777 0.3742,-0.748355 0.15775,-0.315535 0.55267,-0.454827 0.74835,-0.748356 0.1547,-0.232053 0.21947,-0.516297 0.37417,-0.748353 0.2752,-0.412779 0.90152,-0.680492 1.12253,-1.122532 0.0558,-0.111558 -0.0558,-0.26262 0,-0.374179 0.0789,-0.157765 0.2953,-0.21641 0.3742,-0.374176 0.0558,-0.111559 -0.0882,-0.285983 0,-0.374176 0.0882,-0.0882 0.2626,0.05578 0.37417,0 0.31552,-0.157769 0.43281,-0.59059 0.74835,-0.748356 0.11155,-0.05578 0.26262,0.05578 0.37417,0 0.31554,-0.157768 0.43283,-0.590587 0.74835,-0.748355 0.11157,-0.05578 0.26262,0.05578 0.3742,0 0.449,-0.224507 0.6735,-0.898025 1.12252,-1.122532 0.11155,-0.05578 0.26263,0.05578 0.37417,0 0.15777,-0.07888 0.21641,-0.295294 0.37418,-0.374176 0.11157,-0.05578 0.24945,0 0.37417,0 0.24945,-0.124728 0.51631,-0.219475 0.74838,-0.374179 0.14676,-0.09784 0.2164,-0.295294 0.37417,-0.374177 0.39912,-0.199562 1.09757,0.199562 1.49669,0 0.15778,-0.07888 0.20686,-0.318397 0.37418,-0.374176 0.41285,-0.137621 1.72841,0 2.24507,0 1.49672,0 2.99341,0 4.49013,0 0.4236,0 4.30171,-0.09422 4.49012,0 0.15777,0.07888 0.21643,0.295293 0.3742,0.374176 0.29932,0.149672 0.82317,-0.149672 1.12252,0 0.15777,0.07888 0.2164,0.295294 0.37417,0.374177 0.11158,0.05578 0.26263,-0.05578 0.37417,0 0.15778,0.07888 0.21643,0.295296 0.37418,0.374179 0.22312,0.111556 0.52525,-0.111559 0.74837,0 1.24098,1.240988 -0.35279,-0.17639 0.74835,0.374176 0.31554,0.157768 0.43283,0.590587 0.74835,0.748355 0.11157,0.05578 0.26262,-0.05578 0.37417,0 0.44903,0.224507 0.67352,0.898025 1.12255,1.122532 0.11155,0.05578 0.26262,-0.05578 0.37417,0 0.24945,0.124725 0.9978,0.87308 1.12252,1.122532 0.0558,0.111559 -0.0882,0.285983 0,0.374176 0.1764,0.17639 0.52525,-0.111556 0.74838,0 0.15774,0.07889 0.2164,0.295294 0.37417,0.374179 0.11155,0.05578 0.26263,-0.05578 0.37418,0 0.15777,0.07888 0.24944,0.249452 0.37417,0.374177 0.12472,0.124724 0.2953,0.216411 0.37417,0.374176 0.0558,0.111559 -0.0882,0.285983 0,0.374179 0.0882,0.08819 0.28599,-0.0882 0.37418,0 0.17639,0.176387 -0.11155,0.525238 0,0.748353 0.0789,0.157768 0.2953,0.216411 0.37417,0.374179 0.11158,0.223115 -0.11155,0.525238 0,0.748356 0.0789,0.157765 0.2953,0.216408 0.3742,0.374176 0.0558,0.111559 -0.0394,0.255852 0,0.374176 0.0882,0.264584 0.28596,0.483772 0.37417,0.748356 0.13589,0.407731 0,2.75894 0,3.367595 0,0.354732 0.15537,1.185963 0,1.496711 -0.0789,0.157766 -0.2953,0.216408 -0.37417,0.374176 -0.0558,0.111559 0.0558,0.262621 0,0.374177 -0.0789,0.157768 -0.2953,0.216414 -0.3742,0.374174 -0.14965,0.29935 0.14968,0.8232 0,1.12254 -0.0789,0.15776 -0.29527,0.21641 -0.37417,0.37417 -0.14968,0.29934 0.14967,0.82319 0,1.12253 -0.0789,0.15777 -0.29528,0.21642 -0.37418,0.37418 -0.2309,0.46182 0.2309,2.15742 0,2.61924 -0.0789,0.15777 -0.3184,0.20684 -0.37417,0.37418 -0.11872,0.35613 0,1.49418 0,1.87089 0,1.37198 0,2.74396 0,4.11595 0,0.37417 0.11832,0.76755 0,1.12253 -0.0558,0.16734 -0.33139,0.20305 -0.37417,0.37418 -0.77005,3.0802 0.57753,-0.43927 0,1.87088 -0.48575,1.94295 -0.37418,-0.39945 -0.37418,1.49671 0,0.47779 0.12687,3.48805 0,3.74178 -0.0789,0.15777 -0.2953,0.21641 -0.37417,0.37418 -0.12777,0.2555 0,1.14484 0,1.4967 0,1.12254 0,2.24507 0,3.3676 0,0.37885 -0.10065,2.41798 0,2.61924 0.0789,0.15777 0.29527,0.21641 0.37417,0.37418 0.0558,0.11156 -0.0558,0.26262 0,0.37417 0.0789,0.15777 0.29528,0.21642 0.37418,0.37418 0.0558,0.11156 -0.0558,0.26262 0,0.37418 0.0789,0.15777 0.2953,0.21641 0.37417,0.37418 0.0558,0.11156 -0.0882,0.28598 0,0.37418 0.0882,0.0882 0.28599,-0.0882 0.37417,0 0.0882,0.0882 -0.0558,0.26262 0,0.37417 0.15777,0.31554 0.59061,0.43282 0.74835,0.74836 0.0558,0.11156 -0.0558,0.26262 0,0.37417 0.0789,0.15777 0.2953,0.21641 0.3742,0.37418 0.0558,0.11156 -0.0882,0.28599 0,0.37418 0.0882,0.0882 0.28596,-0.0882 0.37417,0 0.0882,0.0882 -0.0558,0.26262 0,0.37418 0.0789,0.15776 0.29528,0.21641 0.37418,0.37417 0.43537,0.87077 -1.08511,-0.16837 0.74835,0.74836"
       id="path7157"
       inkscape:connector-curvature="0" />
    <path
       style="fill:#000000;fill-opacity:1;stroke:#0e0a08;stroke-width:3;stroke-miterlimit:4;stroke-dasharray:none;stroke-opacity:1"
       d="m 362.74375,166.56043 c 0,0.97014 0,1.94028 0,2.91042 0,0.17639 -0.0346,0.3562 0,0.52916 0.0547,0.27348 0.20989,0.52027 0.26458,0.79375 0.14414,0.7207 -0.092,1.64556 0,2.38125 0.0451,0.36083 0.21947,0.69751 0.26458,1.05834 0.0875,0.7001 -0.0998,1.4182 0,2.11666 0.0394,0.2761 0.22514,0.51766 0.26459,0.79375 0.0873,0.61116 0,1.23473 0,1.85209 0,1.4993 0,2.99861 0,4.49791 0,0.54464 -0.11137,2.46495 0,2.91042 0.0478,0.19132 0.21674,0.33785 0.26458,0.52917 0.0642,0.25668 -0.11832,0.55709 0,0.79375 0.0558,0.11156 0.20881,0.15302 0.26458,0.26458 0.0718,0.14353 -0.0724,0.98594 0,1.05833 0.0135,0.0136 1.43656,0 1.5875,0"
       id="path7165"
       inkscape:connector-curvature="0" />
    <path
       style="fill:#000000;fill-opacity:1;stroke:#0e0a08;stroke-width:3;stroke-miterlimit:4;stroke-dasharray:none;stroke-opacity:1"
       d="m 362.74375,166.56043 c -1.63939,6.01109 -0.68811,4.02201 -1.85209,6.35 -0.0882,0.17639 -0.2259,0.33579 -0.26458,0.52917 -0.0865,0.4324 0.10694,0.89511 0,1.32291 -0.0478,0.19132 -0.2259,0.33579 -0.26458,0.52917 -0.11872,0.59362 0.11871,1.25847 0,1.85208 -0.0547,0.27348 -0.2099,0.52027 -0.26459,0.79375 -0.0346,0.17297 0.0346,0.35621 0,0.52917 -0.10938,0.54696 -0.41979,1.04054 -0.52916,1.5875 -0.0692,0.34593 0.0856,0.71609 0,1.05833 -0.0478,0.19132 -0.19135,0.34606 -0.26459,0.52917 -0.61878,0.13769 -0.16139,0.74878 -0.26458,1.05833 -0.12473,0.37418 -0.43349,0.6757 -0.52917,1.05834 -0.0856,0.34224 0.11155,0.72366 0,1.05833 -0.0394,0.11832 -0.22513,0.14626 -0.26458,0.26458 -0.11155,0.33468 0.11155,0.72366 0,1.05834 -0.0394,0.11832 -0.20881,0.15302 -0.26458,0.26458 -0.0418,0.0835 -0.0572,1.0011 0,1.05833 0.0624,0.0624 0.17639,0 0.26458,0"
       id="path7167"
       inkscape:connector-curvature="0" />
    <path
       style="fill:#000000;fill-opacity:1;stroke:#0e0a08;stroke-width:3;stroke-miterlimit:4;stroke-dasharray:none;stroke-opacity:1"
       d="m 357.33937,174.64402 c 5.69198,-3.19178 3.42699,-3.01454 3.81688,-0.67526 0.32035,1.92218 0.26458,-0.093 0.26458,1.32292 0,1.85208 0,3.70417 0,5.55625 0,0.70556 0.0998,1.4182 0,2.11667 -0.0395,0.27609 -0.22514,0.51765 -0.26458,0.79375 -0.0873,0.61115 0.10149,1.24312 0,1.85208 -0.0459,0.2751 -0.2099,0.52027 -0.26459,0.79375 -0.0865,0.43241 0.0865,0.89051 0,1.32292 -0.0387,0.19337 -0.21674,0.33784 -0.26458,0.52916 -0.0428,0.17112 0.0428,0.35805 0,0.52917 -0.34346,1.37387 -0.26458,-0.28245 -0.26458,1.05833 0,0.6205 0.0624,-0.12472 -0.26459,0.52917 -0.0789,0.15777 0.0889,0.68153 0,0.52917 -0.65614,-1.1248 -1.23473,-2.29306 -1.85208,-3.43959"
       id="path7169"
       inkscape:connector-curvature="0" />
    <path
       style="fill:#000000;fill-opacity:1;stroke:#0e0a08;stroke-width:3;stroke-miterlimit:4;stroke-dasharray:none;stroke-opacity:1"
       d="m 360.33278,132.73616 c 0.80365,0.86781 1.39581,1.99648 2.41097,2.60344 0.27244,0.16289 2.06242,-1.28675 2.11666,-1.32292 4.94218,-3.29479 -1.65351,1.19881 2.38125,-1.32292 0.37394,-0.23371 0.70557,-0.52916 1.05834,-0.79375 0.35276,-0.26458 0.72352,-0.50677 1.05833,-0.79375 0.56819,-0.48702 1.01259,-1.10841 1.5875,-1.5875 0.69429,-0.57856 0.80976,-0.3741 1.32292,-1.05833 0.23664,-0.31553 0.31038,-0.73016 0.52916,-1.05833 0.13838,-0.20756 0.41762,-0.30605 0.52917,-0.52917 0.0394,-0.0789 -0.0395,-0.1857 0,-0.26458 0.32694,-0.65389 0.26458,0.0913 0.26458,-0.52917"
       id="path7171"
       inkscape:connector-curvature="0" />
    <path
       style="fill:#000000;fill-opacity:1;stroke:#0e0a08;stroke-width:3;stroke-miterlimit:4;stroke-dasharray:none;stroke-opacity:1"
       d="m 357.45208,142.21876 c 0.35277,-0.35277 0.73366,-0.67953 1.05833,-1.05833 0.20696,-0.24143 0.3256,-0.54946 0.52917,-0.79375 0.62897,-0.75476 1.42081,-1.42081 2.11667,-2.11667 0.77948,-0.7795 1.53476,-1.67585 2.38125,-2.38125 0.24429,-0.20357 0.54946,-0.32559 0.79375,-0.52916 0.74199,-0.61834 1.43351,-1.43351 2.11666,-2.11667 0.68985,-0.68986 1.5077,-1.35548 2.11667,-2.11667 0.19865,-0.24831 0.30432,-0.56889 0.52917,-0.79375 0.13943,-0.13945 0.37139,-0.14626 0.52916,-0.26458 0.92583,-0.69436 0.21426,-0.28569 0.79375,-1.05833 0.14968,-0.19957 0.37949,-0.32961 0.52917,-0.52917 0.11832,-0.15777 0.1552,-0.36508 0.26458,-0.52917 0.40706,-0.61057 1.18044,-0.97692 1.5875,-1.5875 0.10938,-0.16408 0.15521,-0.36508 0.26459,-0.52916 0.0692,-0.10378 0.2088,-0.15303 0.26458,-0.26459 0.0394,-0.0789 -0.0395,-0.34346 0,-0.26458 0.12472,0.24945 0.17637,0.52917 0.26458,0.79375"
       id="path7173"
       inkscape:connector-curvature="0" />
    <path
       style="fill:#000000;fill-opacity:1;stroke:#0e0a08;stroke-width:3;stroke-miterlimit:4;stroke-dasharray:none;stroke-opacity:1"
       d="m 373.59166,126.07918 c 0.26459,-1.41111 0.55772,-2.81717 0.79375,-4.23333 0.0725,-0.43498 0,-0.88195 0,-1.32292 0,-0.88194 0,-1.76389 0,-2.64583 0,-0.44098 -0.10694,-0.89511 0,-1.32292 0.0478,-0.19132 0.2259,-0.33579 0.26459,-0.52917 0.0865,-0.4324 -0.13944,-0.90457 0,-1.32291 0.0394,-0.11833 0.23434,-0.14358 0.26458,-0.26459 0.0642,-0.25668 -0.0519,-0.5343 0,-0.79375 0.0387,-0.19337 0.20222,-0.34207 0.26458,-0.52916 0.0837,-0.25101 -0.0642,-0.53707 0,-0.79375 0.0478,-0.19132 0.2259,-0.33579 0.26459,-0.52917 0.0519,-0.25944 0,-0.52917 0,-0.79375 0,-0.70556 0,-1.41111 0,-2.11667 0,-1.5875 0,-3.175 0,-4.7625 0,-0.4933 -0.10171,-1.97444 0,-2.38125 0.0478,-0.19132 0.21674,-0.33784 0.26458,-0.52916 0.0856,-0.34225 -0.0856,-0.71609 0,-1.05834 0.0478,-0.191316 0.21675,-0.337843 0.26458,-0.529163 0.0856,-0.342244 -0.0692,-0.712406 0,-1.058333 0.0547,-0.273479 0.2099,-0.520271 0.26459,-0.79375 0.12763,-0.638241 -0.15545,-1.494904 0,-2.116667 0.0478,-0.19132 0.20222,-0.342077 0.26458,-0.529166 0.0279,-0.08367 0,-0.17639 0,-0.264584 0,-0.08819 0.0736,-0.215931 0,-0.264583 -0.86125,-0.569603 -1.7993,-1.0136 -2.69894,-1.520399"
       id="path7175"
       inkscape:connector-curvature="0" />
    <path
       style="fill:#000000;fill-opacity:1;stroke:#0e0a08;stroke-width:3;stroke-miterlimit:4;stroke-dasharray:none;stroke-opacity:1"
       d="m 373.80314,93.073365 c 1.25241,0.418605 2.4751,0.939813 3.75727,1.255816 0.39063,0.09627 0.21955,-0.439119 0.26459,-0.529167 0.11154,-0.223115 0.41761,-0.306052 0.52916,-0.529167 0.0395,-0.07888 -0.0394,-0.1857 0,-0.264583 0.23291,-0.465799 0.36105,-0.156408 0.79375,-0.264583 0.38264,-0.09566 0.70557,-0.352777 1.05834,-0.529167 0.17639,-0.08819 0.36507,-0.155191 0.52916,-0.264583 0.10377,-0.06919 0.14626,-0.225142 0.26459,-0.264584 0.16734,-0.05578 0.35803,0.04278 0.52916,0 0.47887,0.159473 0.49207,-0.428609 0.79375,-0.529166 0.16735,-0.05578 0.35804,0.04278 0.52917,0 0.19132,-0.04783 0.35277,-0.17639 0.52917,-0.264584 0.17639,-0.08819 0.36507,-0.155191 0.52916,-0.264583 0.10377,-0.06919 0.14626,-0.225142 0.26459,-0.264583 0.16734,-0.05578 0.36181,0.05578 0.52916,0 0.11832,-0.03944 0.1764,-0.17639 0.26459,-0.264584 0.17639,-0.08819 0.33784,-0.216752 0.52916,-0.264583 0.17113,-0.04278 0.36182,0.05578 0.52917,0 0.11832,-0.03944 0.16081,-0.195397 0.26458,-0.264583 0.69723,-0.464826 0.71829,-0.09456 1.05834,-0.264584 0.11154,-0.05578 0.15303,-0.208804 0.26458,-0.264583 0.20579,-0.102891 1.29672,0 1.5875,0 1.34077,0 -0.31554,0.07888 1.05833,-0.264583 0.17113,-0.04278 0.35804,0.04278 0.52917,0 0.38264,-0.09566 0.69212,-0.382683 1.05833,-0.529167 0.25895,-0.103579 0.55459,-0.121092 0.79375,-0.264583 1.53006,-0.918036 -0.37497,-0.220425 1.05834,-0.79375 0.25894,-0.103579 0.5348,-0.161005 0.79375,-0.264584 0.3662,-0.146484 0.6759,-0.432622 1.05833,-0.529166 1.22203,-0.30851 2.46343,-0.534575 3.69514,-0.801862"
       id="path7177"
       inkscape:connector-curvature="0" />
    <path
       style="fill:none;fill-opacity:1;stroke:#0e0a08;stroke-width:3;stroke-miterlimit:4;stroke-dasharray:none;stroke-opacity:1"
       d="m 384.96875,90.095845 c -0.0882,-0.793748 -0.26459,-1.582613 -0.26459,-2.381248 0,-0.08819 0.1764,0 0.26459,0 0.17639,0 0.35276,0 0.52916,0 0.3655,0 0.97359,-0.116443 1.32292,0 0.18709,0.06236 0.33784,0.216752 0.52917,0.264584 0.38025,0.09506 1.17498,0 1.5875,0 0.44098,0 0.89511,-0.106953 1.32291,0 0.19132,0.04783 0.33578,0.225906 0.52917,0.264583 0.43241,0.08648 0.89511,-0.106952 1.32292,0 0.19132,0.04783 0.33784,0.216752 0.52916,0.264583 0.17113,0.04278 0.35621,-0.03459 0.52917,0 0.27347,0.05469 0.52028,0.209889 0.79375,0.264584 0.17296,0.03459 0.35803,-0.04278 0.52917,0 0.38264,0.09566 0.69212,0.382682 1.05833,0.529166 2.66337,1.065348 -0.56176,-0.206586 1.32292,0.264584 0.19132,0.04783 0.35276,0.176389 0.52916,0.264583 0.1764,0.08819 0.36507,0.155191 0.52917,0.264583 0.10377,0.06919 0.14626,0.225142 0.26458,0.264584 0.16735,0.05578 0.35804,-0.04278 0.52917,0 0.55724,0.139308 1.04174,0.611827 1.5875,0.79375 0.0837,0.02789 0.18092,-0.02789 0.26458,0 0.37418,0.124724 0.68416,0.404442 1.05833,0.529166 0.0837,0.02789 0.18093,-0.02789 0.26459,0 0.18709,0.06236 0.34208,0.202221 0.52916,0.264584 0.0837,0.02789 0.18572,-0.03944 0.26459,0 0.54554,0.272777 -0.0185,0.264583 0.79375,0.264583"
       id="path7179"
       inkscape:connector-curvature="0" />
    <path
       style="fill:none;fill-opacity:1;stroke:#0e0a08;stroke-width:3;stroke-miterlimit:4;stroke-dasharray:none;stroke-opacity:1"
       d="m 381.66087,85.589819 c 0.22069,0.70826 0.29927,1.47769 0.66204,2.124778 0.0284,0.05068 1.34848,0 1.85209,0 2.38125,0 4.7625,0 7.14375,0"
       id="path7181"
       inkscape:connector-curvature="0" />
    <path
       style="fill:none;fill-opacity:1;stroke:#0e0a08;stroke-width:3;stroke-miterlimit:4;stroke-dasharray:none;stroke-opacity:1"
       d="m 403.48958,92.212514 c 0.1764,0.176387 0.41762,0.306049 0.52916,0.529167 0.0789,0.157765 0,0.352777 0,0.529166 0,0.17639 0.0428,0.358045 0,0.529167 -0.0478,0.19132 -0.2259,0.335788 -0.26458,0.529167 -0.0519,0.259445 0,0.529166 0,0.79375 0,0.705556 0,1.41111 0,2.116666 0,4.233333 0,8.466663 0,12.700003"
       id="path7183"
       inkscape:connector-curvature="0" />
    <path
       style="fill:none;fill-opacity:1;stroke:#0e0a08;stroke-width:3;stroke-miterlimit:4;stroke-dasharray:none;stroke-opacity:1"
       d="m 403.75416,109.9396 c -0.0882,-0.52917 -0.0949,-1.07857 -0.26458,-1.5875 -0.0837,-0.25101 -0.0435,0.53276 0,0.79375 0.0459,0.2751 0.29538,0.51656 0.26458,0.79375 -0.0616,0.55438 -0.39388,1.04636 -0.52917,1.5875 -0.0428,0.17112 0.0346,0.3562 0,0.52916 -0.34824,1.74126 -0.26458,-0.1459 -0.26458,1.5875 0,0.35278 0.0692,0.71241 0,1.05834 -0.0547,0.27348 -0.20989,0.52027 -0.26458,0.79375 -0.10176,0.50881 0.10176,1.07868 0,1.5875 -0.0547,0.27348 -0.2099,0.52027 -0.26459,0.79375 -0.16959,0.84802 0.1696,1.79781 0,2.64583 -0.0547,0.27348 -0.20989,0.52027 -0.26458,0.79375 -0.0692,0.34593 0,0.70556 0,1.05833 0,0.61736 0,1.23473 0,1.85209"
       id="path7185"
       inkscape:connector-curvature="0" />
    <path
       style="fill:none;fill-opacity:1;stroke:#0e0a08;stroke-width:3;stroke-miterlimit:4;stroke-dasharray:none;stroke-opacity:1"
       d="m 402.16666,124.2271 c -0.26458,1.23472 -0.64622,2.45006 -0.79375,3.70416 -0.0273,0.23237 0.92239,2.30599 1.05833,2.64584 0.10359,0.25894 0.161,0.5348 0.26459,0.79375 0.0732,0.1831 0.21674,0.33784 0.26458,0.52916 0.0428,0.17113 -0.0428,0.35805 0,0.52917 0.0957,0.38264 0.43349,0.67569 0.52917,1.05833 0.0428,0.17113 -0.0428,0.35805 0,0.52917 0.0478,0.19132 0.1764,0.35278 0.26458,0.52917 0.0882,0.17639 0.15521,0.36508 0.26458,0.52916 0.0692,0.10378 0.22514,0.14626 0.26459,0.26459 0.0558,0.16734 -0.0558,0.36183 0,0.52916 0.11784,0.35353 1.04307,2.22608 1.32291,2.64584 0.87752,0.87751 -0.12472,-0.24946 0.26459,0.52916 0.32694,0.65389 0.26458,-0.0913 0.26458,0.52917 0.44097,0 0.90458,-0.13945 1.32292,0 0.18709,0.0624 0.19135,0.34606 0.26459,0.52917 0.10358,0.25895 0.161,0.5348 0.26458,0.79375 0.20931,0.52327 0.65739,1.04204 0.79375,1.5875 0.0428,0.17112 -0.0558,0.36183 0,0.52916 0.20916,0.62747 0.26458,-0.1676 0.26458,0.79375"
       id="path7187"
       inkscape:connector-curvature="0" />
    <path
       style="fill:none;fill-opacity:1;stroke:#0e0a08;stroke-width:3;stroke-miterlimit:4;stroke-dasharray:none;stroke-opacity:1"
       d="m 383.90594,190.35947 c 0.79523,1.15101 1.48328,2.384 2.38572,3.45304 0.17068,0.20218 0.52917,0 0.79375,0 0.41251,0 1.20724,0.0951 1.5875,0 0.19132,-0.0478 0.34208,-0.20222 0.52917,-0.26458 0.36803,-0.12268 1.55456,0.14876 1.85208,0 0.11155,-0.0558 0.15304,-0.2088 0.26459,-0.26458 0.0835,-0.0418 1.0011,-0.0572 1.05833,0 0.0412,0.0412 0.0412,1.0171 0,1.05833 -0.0624,0.0624 -0.18571,-0.0394 -0.26458,0 -0.31258,0.15628 -0.50187,0.59916 -0.79375,0.79375 -0.45604,0.30402 -0.39995,0.26458 -0.79375,0.26458 -0.0882,0 -0.31327,-0.0735 -0.26459,0 0.81497,1.23064 1.75051,2.37703 2.62578,3.56554"
       id="path7189"
       inkscape:connector-curvature="0" />
    <path
       style="fill:none;fill-opacity:1;stroke:#0e0a08;stroke-width:3;stroke-miterlimit:4;stroke-dasharray:none;stroke-opacity:1"
       d="m 383.90594,190.35947 c 0.97163,0.53365 1.89296,1.17142 2.91489,1.60096 0.11499,0.0483 0.14626,-0.22514 0.26458,-0.26458 0.0778,-0.0259 2.03327,-0.0417 2.11667,0 0.11155,0.0558 0.15303,0.2088 0.26458,0.26458 0.28223,0.14111 0.7761,-0.14111 1.05834,0 0.54554,0.27278 -0.0185,0.26458 0.79375,0.26458"
       id="path7191"
       inkscape:connector-curvature="0" />
    <path
       style="fill:none;fill-opacity:1;stroke:#0e0a08;stroke-width:3;stroke-miterlimit:4;stroke-dasharray:none;stroke-opacity:1"
       d="m 384.65429,199.33973 c 1.97067,-2.98548 1.0882,-2.06762 2.16654,-3.14597 0.0882,-0.0882 0.15303,-0.2088 0.26458,-0.26458 0.0789,-0.0394 0.18571,0.0394 0.26459,0 0.22312,-0.11156 0.30604,-0.41761 0.52916,-0.52917 0.0789,-0.0394 0.20222,0.0624 0.26459,0 0.0624,-0.0624 -0.0624,-0.20222 0,-0.26458 0.0624,-0.0624 0.20222,0.0624 0.26458,0 0.54742,-0.54743 -0.83656,0.0214 0.26458,-0.52917 0.0789,-0.0394 0.20222,0.0624 0.26459,0 0.0624,-0.0624 -0.0394,-0.1857 0,-0.26458 0.21166,-0.42333 0.84666,-0.635 1.05833,-1.05833 0.0394,-0.0789 -0.0689,-0.20949 0,-0.26459 0.40156,-0.32125 0.88193,-0.52917 1.32292,-0.79375"
       id="path7193"
       inkscape:connector-curvature="0" />
    <path
       style="fill:none;fill-opacity:1;stroke:#0e0a08;stroke-width:3;stroke-miterlimit:4;stroke-dasharray:none;stroke-opacity:1"
       d="m 358.24583,187.46251 c -0.52917,0.88194 -1.21828,1.68587 -1.5875,2.64584 -0.10012,0.2603 0.20989,0.52027 0.26458,0.79375 0.0346,0.17296 -0.0428,0.35804 0,0.52916 0.0478,0.19132 0.2259,0.33579 0.26459,0.52917 0.0865,0.43241 -0.10695,0.89511 0,1.32292 0.0478,0.19132 0.20222,0.34207 0.26458,0.52916 0.0837,0.25101 -0.0642,0.53707 0,0.79375 0.0478,0.19132 0.21675,0.33785 0.26458,0.52917 0.0428,0.17112 -0.0558,0.36183 0,0.52917 0.0394,0.11832 0.22514,0.14626 0.26459,0.26458 0.0558,0.16734 -0.0428,0.35804 0,0.52917 -0.15947,0.47888 0.42859,0.49207 0.52916,0.79375 0,1.20445 -0.12472,0.0151 0.26459,0.79375 0.0789,0.15776 -0.12473,0.40444 0,0.52916 0.0624,0.0624 0.18515,-0.0383 0.26458,0 0.20124,0.0971 0.36322,0.26036 0.54483,0.39054"
       id="path7195"
       inkscape:connector-curvature="0" />
    <path
       style="fill:none;fill-opacity:1;stroke:#0e0a08;stroke-width:3;stroke-miterlimit:4;stroke-dasharray:none;stroke-opacity:1"
       d="m 357.98125,196.45835 c 1.14651,-1.05834 2.29306,-2.11667 3.43958,-3.175 0,-0.0882 -0.0624,-0.20222 0,-0.26459 0.0624,-0.0624 0.20222,0.0624 0.26458,0 0.12473,-0.12472 -0.0789,-0.3714 0,-0.52916 0.15629,-0.31257 0.59918,-0.50188 0.79375,-0.79375 0.10938,-0.16409 0.12515,-0.38972 0.26459,-0.52917 0.13943,-0.13945 0.38973,-0.12514 0.52916,-0.26458 0.13944,-0.13945 0.12515,-0.38972 0.26459,-0.52917 0.13943,-0.13945 0.38973,-0.12514 0.52916,-0.26458 0.13944,-0.13945 0.15521,-0.36508 0.26459,-0.52917 0.0692,-0.10378 0.2088,-0.15302 0.26458,-0.26458 0.0395,-0.0789 -0.0624,-0.20222 0,-0.26459 0.0624,-0.0624 0.20222,0.0624 0.26458,0 0.12473,-0.12472 -0.16735,-0.58494 0,-0.52916 0.30168,0.10055 0.52917,0.35277 0.79375,0.52916"
       id="path7197"
       inkscape:connector-curvature="0" />
    <path
       style="fill:none;fill-opacity:1;stroke:#0e0a08;stroke-width:3;stroke-miterlimit:4;stroke-dasharray:none;stroke-opacity:1"
       d="m 415.66041,183.75835 c 0.5197,-0.77012 0.10364,-1.57654 0.26458,-2.38125 0.0387,-0.19338 0.21675,-0.33785 0.26459,-0.52917 0.0967,-0.38669 -0.1487,-1.81926 0,-2.11667 0.0558,-0.11156 0.22513,-0.14626 0.26458,-0.26458 0.0558,-0.16734 -0.0428,-0.35805 0,-0.52917 0.0478,-0.19132 0.21675,-0.33784 0.26458,-0.52916 0.0428,-0.17113 -0.0346,-0.35621 0,-0.52917 0.0547,-0.27348 0.21874,-0.51865 0.26459,-0.79375 0.0435,-0.26098 -0.0519,-0.53431 0,-0.79375 0.3829,-1.91454 0.26458,1.20922 0.26458,-1.32292 0,-0.59242 -0.003,-1.58728 0,-1.5875 0.73041,-0.0818 1.46992,0.0118 2.20488,0.0177"
       id="path7199"
       inkscape:connector-curvature="0" />
  </g>
</svg>
