<?xml version="1.0" encoding="UTF-8" standalone="no"?>
<!-- Created with Inkscape (http://www.inkscape.org/) -->

<svg
   xmlns:dc="http://purl.org/dc/elements/1.1/"
   xmlns:cc="http://creativecommons.org/ns#"
   xmlns:rdf="http://www.w3.org/1999/02/22-rdf-syntax-ns#"
   xmlns:svg="http://www.w3.org/2000/svg"
   xmlns="http://www.w3.org/2000/svg"
   xmlns:sodipodi="http://sodipodi.sourceforge.net/DTD/sodipodi-0.dtd"
   xmlns:inkscape="http://www.inkscape.org/namespaces/inkscape"
   width="1920"
   height="1080"
   viewBox="0 0 508.00002 285.74999"
   version="1.1"
   id="svg8"
   inkscape:version="0.92.4 5da689c313, 2019-01-14"
   sodipodi:docname="dibujo27.svg">
  <defs
     id="defs2" />
  <sodipodi:namedview
     id="base"
     pagecolor="#ffffff"
     bordercolor="#666666"
     borderopacity="1.0"
     inkscape:pageopacity="0.0"
     inkscape:pageshadow="2"
     inkscape:zoom="0.5"
     inkscape:cx="906.77888"
     inkscape:cy="650.63294"
     inkscape:document-units="mm"
     inkscape:current-layer="layer1"
     showgrid="false"
     units="px"
     inkscape:window-width="1366"
     inkscape:window-height="741"
     inkscape:window-x="0"
     inkscape:window-y="27"
     inkscape:window-maximized="0"
     showguides="false" />
  <metadata
     id="metadata5">
    <rdf:RDF>
      <cc:Work
         rdf:about="">
        <dc:format>image/svg+xml</dc:format>
        <dc:type
           rdf:resource="http://purl.org/dc/dcmitype/StillImage" />
        <dc:title></dc:title>
      </cc:Work>
    </rdf:RDF>
  </metadata>
  <g
     inkscape:label="Capa 1"
     inkscape:groupmode="layer"
     id="layer1"
     transform="translate(0,-11.250015)">
    <path
       style="fill:none;fill-opacity:1;stroke:#0e0a08;stroke-width:3;stroke-miterlimit:4;stroke-dasharray:none;stroke-opacity:1"
       d="m 142.34583,103.85418 c 1.01115,-2.02229 1.61408,-3.44694 3.175,-5.291666 1.12792,-1.332995 2.51599,-2.424591 3.70417,-3.704167 1.10656,-1.191686 2.11666,-2.469443 3.175,-3.704166 1.23472,-1.411111 2.42479,-2.862575 3.70416,-4.233334 6.24251,-6.688394 1.21539,-1.199679 6.35,-5.820833 3.69021,-3.321185 1.64416,-1.783527 4.7625,-5.291666 0.66291,-0.745771 1.41111,-1.411111 2.11667,-2.116667 0.70556,-0.705557 1.35908,-1.467303 2.11667,-2.116667 0.48287,-0.41389 1.13779,-0.608629 1.5875,-1.058333 0.4497,-0.449704 0.60863,-1.137796 1.05833,-1.5875 1.31187,-1.311868 1.39313,-0.752364 2.64583,-1.5875 0.58376,-0.38917 0.96237,-1.274932 1.5875,-1.5875 0.15777,-0.07888 0.35278,0 0.52917,0 0.17639,0 0.40444,-0.124725 0.52917,0 0.0587,0.05866 -0.0408,5.454018 0,5.820833 0.0993,0.893911 0.45447,1.749531 0.52916,2.645834 0.21973,2.636694 0,5.291666 0,7.937499 0,4.056944 0.16215,8.117131 0,12.170834 -0.0849,2.122307 -0.45055,4.227451 -0.52916,6.349999 -0.17627,4.75924 0.17627,9.52826 0,14.2875 -0.0981,2.64989 -0.43452,5.28748 -0.52917,7.9375 -0.0818,2.2916 0,4.58611 0,6.87917 0,3.70416 -0.19468,7.41345 0,11.1125 0.1024,1.94558 0.43188,3.87498 0.52917,5.82083 0.14974,2.99487 -0.19947,6.00386 0,8.99583 0.083,1.2445 0.4403,2.46008 0.52916,3.70417 0.088,1.23158 -0.088,2.47258 0,3.70417 0.23757,3.32587 0.991,6.77339 1.5875,10.05416 0.29091,1.6 0.82835,3.15262 1.05834,4.7625 0.0748,0.52385 -0.087,1.06554 0,1.5875 0.64072,3.84435 0.52916,-0.18598 0.52916,2.64584"
       id="path10054"
       inkscape:connector-curvature="0" />
    <path
       style="fill:none;fill-opacity:1;stroke:#0e0a08;stroke-width:3;stroke-miterlimit:4;stroke-dasharray:none;stroke-opacity:1"
       d="m 237.06666,65.225014 c -7.43409,2.973636 2.57442,-0.811143 -5.82083,1.5875 -1.44908,0.414023 -2.85262,0.983441 -4.23333,1.5875 -1.4454,0.63236 -2.80368,1.449494 -4.23334,2.116667 -4.21941,1.969058 -3.82142,1.214877 -7.9375,4.233333 -3.43243,2.517116 -4.15228,3.656494 -6.87916,6.879167 -2.56613,3.032691 -5.29542,6.358757 -6.87917,10.054166 -1.51271,3.529666 -1.5875,7.360579 -1.5875,11.112503 0,1.23472 -0.20299,2.48624 0,3.70416 0.15616,0.93696 0.70556,1.76389 1.05833,2.64584 0.25227,0.63066 1.54623,4.07797 2.11667,4.7625 0.40714,0.48857 1.05833,0.70555 1.5875,1.05833 0.52917,0.35278 1.05833,0.70556 1.5875,1.05833 0.52917,0.35278 0.97599,0.88362 1.5875,1.05834 1.42345,0.4067 4.95014,-0.59171 6.35,-1.05834 4.3288,-1.44293 6.23618,-3.95877 8.99583,-7.40833 0.70556,-0.88194 1.5103,-1.69297 2.11667,-2.64583 1.46048,-2.29505 1.80345,-3.82284 2.64583,-6.350003 0.35278,-1.058333 0.80749,-2.087988 1.05834,-3.175 0.28046,-1.215316 0.24871,-2.48885 0.52916,-3.704166 0.25085,-1.087012 0.78777,-2.092728 1.05834,-3.175 0.29286,-1.171469 0.89048,-5.872091 1.05833,-6.879167 0.14786,-0.887172 0.36828,-1.760929 0.52917,-2.645833 1.87044,-10.287429 -0.45418,3.029222 0.52916,-5.820833 0.0803,-0.722821 0.42632,-1.396707 0.52917,-2.116667 0.14967,-1.047697 0,-2.116667 0,-3.175 0,-2.067163 -0.15777,-0.05587 0.52917,-2.116667 0.11156,-0.334674 -0.35278,-1.058333 0,-1.058333 0.17639,0 0,0.352777 0,0.529167 0,0.352777 0,0.705556 0,1.058333 0,1.76389 -0.10358,3.530822 0,5.291667 0.1144,1.944917 0.35277,3.880556 0.52916,5.820833 0.17639,5.115277 0.29676,10.232795 0.52917,15.345833 0.35619,7.836256 1.5753,15.521996 2.64583,23.283336 0.34085,2.47112 0.74893,4.93308 1.05834,7.40833 0.21987,1.759 0.2662,3.53859 0.52916,5.29167 1.10903,7.39351 0.81173,3.0003 2.11667,9.525 0.24461,1.22303 0.35278,2.46944 0.52917,3.70416 0.35277,1.23473 0.76958,2.45292 1.05833,3.70417 1.27424,5.52171 0.0359,0.88817 0.52917,5.82083 0.0895,0.89495 0.43967,1.75089 0.52916,2.64584 0.0878,0.87756 -0.10939,1.7707 0,2.64583 0.0692,0.55348 0.45029,1.03531 0.52917,1.5875 0.17462,1.22231 -0.20299,2.48624 0,3.70417 0.0917,0.5502 0.43747,1.0373 0.52917,1.5875 0.21824,1.30948 0,2.89297 0,4.23333"
       id="path10056"
       inkscape:connector-curvature="0" />
    <path
       style="fill:none;fill-opacity:1;stroke:#0e0a08;stroke-width:3;stroke-miterlimit:4;stroke-dasharray:none;stroke-opacity:1"
       d="m 279.92916,69.987514 c -2.46943,0 -4.93889,0 -7.40833,0 -3.4417,0 -2.11296,-0.144991 -5.82083,0.529167 -0.8849,0.16089 -1.79258,0.244747 -2.64584,0.529167 -0.74835,0.249451 -1.41111,0.705556 -2.11666,1.058333 -2.9055,1.45275 -1.4856,0.585033 -4.23334,2.645833 -0.70555,0.529167 -1.5427,0.917879 -2.11666,1.5875 -0.51337,0.59893 -0.64026,1.447737 -1.05834,2.116667 -0.46743,0.747887 -1.22931,1.310735 -1.5875,2.116666 -0.70213,1.579793 -0.52916,3.639786 -0.52916,5.291667 0,1.76389 -0.19479,3.538567 0,5.291667 0.0803,0.722823 0.35277,1.41111 0.52916,2.116666 0.65374,2.614954 1.27545,6.318356 3.70417,7.937503 0.32818,0.21878 0.67158,0.45181 1.05833,0.52916 0.41657,0.0833 6.02627,0.0925 6.35,0 3.29584,-0.94166 0.96825,-0.94413 3.70417,-2.116663 0.66847,-0.286485 1.4482,-0.242681 2.11667,-0.529166 0.58454,-0.250524 1.03531,-0.7428 1.5875,-1.058334 1.90121,-1.086411 2.09261,-0.827436 3.70416,-2.116666 0.38958,-0.311664 0.66876,-0.74667 1.05834,-1.058334 0.49662,-0.397293 1.13778,-0.608629 1.5875,-1.058333 0.44971,-0.449704 0.66103,-1.090882 1.05833,-1.5875 0.31165,-0.389578 0.74668,-0.668756 1.05833,-1.058333 1.60568,-2.007085 1.96713,-3.445315 2.64584,-5.820834 0.15324,-0.536329 0.45029,-1.035314 0.52916,-1.5875 0.0998,-0.698463 0,-1.41111 0,-2.116666 0,-1.454846 0.22072,-3.967335 0,-5.291667 -0.18341,-1.100402 -0.83955,-2.081083 -1.05833,-3.175 -0.0692,-0.345927 0.19569,-0.764804 0,-1.058333 -0.55348,-0.830226 -1.67045,-3.009133 -2.11667,-2.116667 -0.79277,1.58554 0.42508,3.522038 0.52917,5.291667 0.15536,2.641266 0,5.291666 0,7.9375 0,4.409723 0.17624,8.822967 0,13.229166 -0.0919,2.297991 -0.44077,4.581033 -0.52917,6.879163 -0.18304,4.75898 0.16412,9.52783 0,14.2875 -0.0914,2.65013 -0.43103,5.28761 -0.52916,7.9375 -0.20828,5.62374 0,11.30407 0,16.93334 0,2.46944 0.17594,4.94516 0,7.40833 -0.0889,1.24409 -0.4335,2.46058 -0.52917,3.70417 -0.0812,1.05521 0.0879,2.12032 0,3.175 -0.84021,10.08256 -0.13914,-2.06182 -1.05833,5.29166 -0.0875,0.70011 0.0998,1.4182 0,2.11667 -0.0789,0.55219 -0.43747,1.0373 -0.52917,1.5875 -0.16076,0.96453 0,2.17583 0,3.175"
       id="path10058"
       inkscape:connector-curvature="0" />
    <path
       style="fill:none;fill-opacity:1;stroke:#0e0a08;stroke-width:3;stroke-miterlimit:4;stroke-dasharray:none;stroke-opacity:1"
       d="m 348.72083,58.345848 c -3.87228,0.148738 -7.77306,-0.214924 -11.64167,0 -0.85553,0.04753 -7.2001,0.786929 -8.46666,1.058333 -2.51124,0.538126 -4.9389,1.41111 -7.40834,2.116667 -1.23473,0.352777 -2.50563,0.597357 -3.70416,1.058333 -1.10437,0.424762 -2.11667,1.058333 -3.175,1.5875 -2.5939,1.29695 -3.24948,1.388094 -5.29167,3.175 -2.28526,1.999599 -4.55446,4.622326 -5.82083,7.408333 -0.46162,1.015587 -0.73025,2.108751 -1.05834,3.175 -1.23743,4.021656 -1.5875,6.414204 -1.5875,10.583333 0,1.234723 -0.18775,2.483803 0,3.704167 0.0766,0.498036 1.73567,5.185854 2.11667,5.820833 1.97755,3.295933 5.17924,4.706283 8.46667,6.350003 1.05833,0.52916 2.04406,1.23952 3.175,1.5875 2.44943,0.75367 6.05417,0.52916 8.46666,0.52916 12.72464,0 -2.08476,0.22451 8.46667,-0.52916 1.23158,-0.088 2.47258,0.088 3.70417,0 4.86902,-0.34779 2.61442,-0.56024 7.40833,-1.5875 2.43914,-0.52268 4.94281,-0.67903 7.40833,-1.05834 2.1209,-0.32629 4.23334,-0.70555 6.35,-1.05833 1.05834,-0.17639 2.10577,-0.44007 3.175,-0.52917 1.05468,-0.0879 2.11667,0 3.175,0 1.57089,0 3.27636,-0.2139 4.7625,0.52917 0.78883,0.39442 1.38285,1.09829 2.11667,1.5875 0.85577,0.57052 1.91857,0.86023 2.64583,1.5875 0.72726,0.72727 1.05834,1.76389 1.5875,2.64583 0.52917,0.88195 1.16189,1.70951 1.5875,2.64584 1.21063,2.66337 1.17126,3.96556 1.5875,6.87916 0.1764,1.23473 0.52917,2.45691 0.52917,3.70417 0,1.42209 -0.34121,2.82372 -0.52917,4.23333 -0.3883,2.91231 -0.5185,4.62897 -1.5875,7.40834 -0.42476,1.10438 -1.05833,2.11666 -1.5875,3.175 -0.70556,1.41111 -1.13109,3.00138 -2.11666,4.23333 -1.17134,1.46416 -2.82224,2.46944 -4.23334,3.70417 -0.38423,0.33619 -6.38267,5.64486 -7.40833,6.35 -2.1317,1.46554 -8.1025,4.86667 -10.58333,5.82083 -2.75974,1.06143 -5.63796,1.78492 -8.46667,2.64583 -4.33766,1.32016 -2.98249,0.95524 -7.40833,1.5875 -1.23474,0.17639 -2.45693,0.52917 -3.70417,0.52917 -0.39322,0 -6.23575,-0.90985 -6.87917,-1.05833 -3.04911,-0.70365 -7.04016,-2.24546 -9.525,-4.23334 -3.88374,-3.107 -6.29867,-8.1113 -7.9375,-12.7 -1.25396,-3.51107 -1.11506,-4.15807 -1.5875,-7.9375 -0.59965,-4.79715 -0.73493,-6.86453 0,-11.64166 0.16314,-1.06046 0.35277,-2.11667 0.52917,-3.175 0.1764,-1.05834 0.16251,-2.16667 0.52917,-3.175 0.3515,-0.96659 1.16189,-1.70951 1.5875,-2.64584 1.61737,-3.55819 0.26884,-2.76469 2.64583,-5.82083 0.61259,-0.78762 1.45375,-1.3709 2.11667,-2.11667 0.75035,-0.84415 1.3663,-1.80168 2.11666,-2.64583 1.3258,-1.49154 2.73148,-2.91921 4.23334,-4.233333 0.66373,-0.580763 1.45748,-1.001567 2.11666,-1.5875 0.93221,-0.828632 1.67188,-1.866677 2.64584,-2.645833 0.80314,-0.642509 1.83396,-0.956053 2.64583,-1.5875 0.78761,-0.612592 1.37088,-1.453761 2.11667,-2.116667 1.6883,-1.500719 3.52776,-2.822223 5.29166,-4.233333 1.7639,-1.41111 3.44112,-2.937952 5.29167,-4.233333 0.84259,-0.589815 1.79006,-1.016982 2.64583,-1.5875 1.46765,-0.978429 2.82223,-2.116667 4.23334,-3.175 1.88489,-1.413674 3.7715,-2.938309 5.29166,-4.7625 0.40714,-0.488572 0.65119,-1.098928 1.05834,-1.5875 0.95816,-1.149805 2.24001,-2.006267 3.175,-3.175 0.24638,-0.307988 0.32623,-0.720122 0.52916,-1.058333 0.32721,-0.545349 0.77391,-1.018662 1.05834,-1.5875 1.02454,-2.049106 0.11821,-1.531149 0.52916,-3.175 0.0612,-0.244668 0.77375,-1.098355 0.52917,-1.5875 -0.11155,-0.223115 -0.41762,-0.306052 -0.52917,-0.529167 -0.0789,-0.157766 0.0789,-0.371398 0,-0.529167 -0.57306,-1.146108 -2.75185,-0.291089 -3.70416,-0.529166 -2.47621,-0.619056 0.67648,-1.189257 -3.70417,-1.5875 -1.06852,-0.09714 -2.11286,0.377431 -3.175,0.529166 -0.50078,0.07154 -1.08104,0 -1.5875,0"
       id="path10062"
       inkscape:connector-curvature="0" />
  </g>
</svg>
