<?xml version="1.0" encoding="UTF-8" standalone="no"?>
<!-- Created with Inkscape (http://www.inkscape.org/) -->

<svg
   xmlns:dc="http://purl.org/dc/elements/1.1/"
   xmlns:cc="http://creativecommons.org/ns#"
   xmlns:rdf="http://www.w3.org/1999/02/22-rdf-syntax-ns#"
   xmlns:svg="http://www.w3.org/2000/svg"
   xmlns="http://www.w3.org/2000/svg"
   xmlns:sodipodi="http://sodipodi.sourceforge.net/DTD/sodipodi-0.dtd"
   xmlns:inkscape="http://www.inkscape.org/namespaces/inkscape"
   width="1920"
   height="1080"
   viewBox="0 0 508.00002 285.74999"
   version="1.1"
   id="svg8"
   inkscape:version="0.92.4 5da689c313, 2019-01-14"
   sodipodi:docname="dibujo32.svg">
  <defs
     id="defs2" />
  <sodipodi:namedview
     id="base"
     pagecolor="#ffffff"
     bordercolor="#666666"
     borderopacity="1.0"
     inkscape:pageopacity="0.0"
     inkscape:pageshadow="2"
     inkscape:zoom="2"
     inkscape:cx="725.12192"
     inkscape:cy="454.80413"
     inkscape:document-units="mm"
     inkscape:current-layer="layer1"
     showgrid="false"
     units="px"
     inkscape:window-width="1366"
     inkscape:window-height="741"
     inkscape:window-x="0"
     inkscape:window-y="27"
     inkscape:window-maximized="0"
     showguides="false" />
  <metadata
     id="metadata5">
    <rdf:RDF>
      <cc:Work
         rdf:about="">
        <dc:format>image/svg+xml</dc:format>
        <dc:type
           rdf:resource="http://purl.org/dc/dcmitype/StillImage" />
        <dc:title></dc:title>
      </cc:Work>
    </rdf:RDF>
  </metadata>
  <g
     inkscape:label="Capa 1"
     inkscape:groupmode="layer"
     id="layer1"
     transform="translate(0,-11.250015)">
    <path
       style="fill:none;fill-opacity:1;stroke:#000000;stroke-width:3;stroke-miterlimit:4;stroke-dasharray:none;stroke-opacity:1"
       id="path1558"
       d="m 178.76308,182.16159 c 0.4232,-0.0556 0.8464,-0.11116 1.2696,-0.16673 0.94116,-0.22843 1.86787,-0.52784 2.82347,-0.68529 1.37255,-0.22617 7.31616,-0.64207 8.18909,-0.72054 20.75735,-1.86612 -9.35554,0.68939 13.90028,-1.25645 17.63948,-1.87015 -0.81667,0.16235 18.1898,-2.18341 3.16739,-0.39092 6.34339,-0.70909 9.51246,-1.08616 3.20561,-0.38141 6.3976,-0.88401 9.61136,-1.18926 23.39887,-2.22248 -7.05276,1.447 17.81141,-1.71233 2.88576,-0.32409 5.77154,-0.64818 8.65729,-0.97226 2.60128,-0.27176 5.20425,-0.52765 7.80381,-0.81528 2.41255,-0.26694 4.81542,-0.62324 7.2322,-0.84841 1.96805,-0.18335 3.94655,-0.23042 5.9177,-0.37674 1.78038,-0.13217 3.55745,-0.30577 5.33619,-0.45865 0,0 -0.33192,0.24658 -0.33192,0.24658 v 0 c -8.92109,0.38691 -1.0781,-0.0611 -11.34517,0.90287 -2.27425,0.21352 -4.55914,0.30923 -6.83062,0.55042 -31.79265,3.37587 16.26309,-1.27766 -16.52457,1.83465 -8.23093,0.69574 -9.53597,0.72531 -17.89045,1.77125 -3.27918,0.41054 -6.54008,0.96247 -9.8225,1.3462 -3.07244,0.35919 -6.16563,0.52303 -9.23808,0.88211 -3.23377,0.37793 -6.4385,0.98948 -9.67659,1.32846 -2.68302,0.28086 -5.3838,0.35326 -8.07569,0.52989 -2.5828,0.28124 -5.16559,0.56249 -7.74838,0.84373 -2.21362,0.25865 -4.42531,0.53435 -6.64085,0.77594 -1.62945,0.17767 -3.26244,0.3212 -4.89366,0.4818 -1.23077,0.17879 -2.45726,0.39008 -3.69232,0.53635 -0.70007,0.0829 -1.41467,0.0318 -2.10952,0.15078 -0.58992,0.10105 -1.14859,0.3371 -1.72289,0.50564 0,0 0.28855,-0.21516 0.28855,-0.21516 z"
       inkscape:connector-curvature="0" />
    <path
       style="fill:none;fill-opacity:1;stroke:#000000;stroke-width:3;stroke-miterlimit:4;stroke-dasharray:none;stroke-opacity:1"
       id="path1560"
       d="m 168.80731,147.78741 c 0.0499,2.24774 1.69687,3.98581 2.30511,5.95875 0.3566,1.15672 0.32614,2.40523 0.63783,3.57485 2.88102,10.81113 -0.13569,-3.94935 2.17303,8.29311 1.14065,4.03476 1.69533,5.33764 2.11712,9.59152 0.1753,1.76802 0.0302,3.558 0.20421,5.32614 0.16506,1.67687 0.67201,3.3102 0.81119,4.98942 1.0496,12.66331 -1.15439,-1.76685 0.81558,9.79868 -1.62528,18.98694 0.83282,-8.69929 -1.08877,9.73159 -0.38191,3.66307 -0.10201,4.73652 -0.74469,8.33724 -1.86689,10.45956 -0.28143,-1.89117 -1.36094,7.33044 -0.84118,4.0871 -0.4798,2.11711 -1.10368,5.90636 0,0 -0.65832,0.31425 -0.65832,0.31425 v 0 c 1.47634,-4.02412 0.94216,-1.9726 1.61753,-6.15066 0.81575,-3.79972 1.5415,-7.59472 1.96305,-11.46302 0.1563,-1.43434 0.21481,-2.87807 0.36396,-4.31318 0.16402,-1.57826 0.47421,-3.14186 0.5754,-4.7254 0.10119,-1.5835 0.0205,-3.17339 0.0307,-4.76009 -0.0457,-1.639 -0.0221,-3.2814 -0.13709,-4.917 -1.30151,-18.51534 0.16563,9.09404 -1.00971,-10.11764 -0.10865,-1.77595 0.0947,-3.57799 -0.18921,-5.33446 -0.51651,-3.19514 -2.42784,-6.06827 -2.51127,-9.37948 -1.22181,-8.81822 0.23484,-0.7131 -2.01575,-8.37678 -0.61848,-2.10603 -0.68834,-4.25792 -1.59078,-6.28424 -0.28076,-0.6304 -0.89427,-1.07677 -1.16439,-1.71181 -0.20068,-0.47179 -0.14118,-1.01564 -0.21176,-1.52347 0,0 0.17162,-0.0951 0.17162,-0.0951 z"
       inkscape:connector-curvature="0" />
    <path
       style="fill:none;fill-opacity:1;stroke:#000000;stroke-width:3;stroke-miterlimit:4;stroke-dasharray:none;stroke-opacity:1"
       id="path1562"
       d="m 309.19049,144.70037 c -0.4536,1.12002 -1.29458,2.04715 -1.75106,3.16222 -0.288,0.70347 -0.3464,1.48292 -0.5927,2.20204 -0.86362,2.52145 -1.83607,4.06181 -2.41892,6.7413 -0.27911,1.28308 -0.29372,2.60969 -0.44056,3.91453 -0.82447,11.75332 0.15325,-3.31621 -0.36703,8.73597 -0.0685,1.58675 -0.33602,3.16495 -0.3311,4.75317 0.005,1.53071 0.23461,3.05245 0.35997,4.57803 0.41608,5.06331 0.35329,4.20586 0.86397,9.23768 0.8955,2.77584 1.158,5.70328 1.92227,8.50878 0.36272,1.33138 0.84011,2.62981 1.31837,3.92419 0.46442,1.25697 1.06685,2.46116 1.50836,3.72636 2.02904,5.81439 -0.15832,1.89127 3.18516,6.86516 0.48853,1.08081 0.85614,2.22492 1.46563,3.24244 0.56619,0.9452 1.34493,1.74581 2.03629,2.60373 1.52794,1.89608 2.24986,2.68588 3.83344,4.49637 0,0 -0.10356,0.0627 -0.10356,0.0627 v 0 c -2.64686,-2.84527 -1.3776,-1.34866 -3.80891,-4.51262 -2.73055,-3.5534 -1.47188,-1.66211 -3.7542,-5.70422 -2.80858,-6.46494 -0.0918,-0.37751 -3.20344,-6.85958 -0.57767,-1.2034 -1.28297,-2.3609 -1.67878,-3.63573 -0.42463,-1.36772 -0.44853,-2.83088 -0.76274,-4.22811 -0.31391,-1.39581 -0.74655,-2.76223 -1.11983,-4.14335 -0.30054,-1.43753 -0.60108,-2.87506 -0.90162,-4.31259 -1.40401,-12.14095 0.33454,3.07668 -0.99594,-9.17026 -0.16301,-1.50037 -0.46109,-2.98953 -0.52083,-4.49756 -0.29758,-7.51356 0.4495,-1.85219 0.88717,-9.44319 0.0776,-1.34587 -0.14756,-2.69216 -0.22135,-4.03824 0.32226,-1.38986 0.64873,-2.77874 0.96679,-4.16956 0.26638,-1.16495 0.46087,-2.34792 0.7865,-3.49771 0.90114,-3.18173 0.97864,-2.66548 2.36942,-5.50737 1.38517,-2.83039 0.12346,-0.81819 1.72487,-3.14792 0,0 -0.25564,0.1133 -0.25564,0.1133 z"
       inkscape:connector-curvature="0" />
    <path
       style="fill:none;fill-opacity:1;stroke:#000000;stroke-width:3;stroke-miterlimit:4;stroke-dasharray:none;stroke-opacity:1"
       id="path1564"
       d="m 181.30907,60.136561 c 0.0685,0.393792 0.14073,0.786963 0.20557,1.181378 0.37088,2.256017 0.22503,1.187542 0.37012,3.741083 0.0466,0.819944 0.0218,1.647783 0.14748,2.459382 0.13041,0.842341 0.43495,1.648854 0.61745,2.481463 0.1973,0.900102 0.34768,1.809851 0.52153,2.714776 1.7793,3.544822 0.93239,1.530625 2.24349,5.61313 0.34505,1.074431 0.44191,2.266495 1.04561,3.219919 0.60343,0.953008 1.66673,1.521594 2.46271,2.320827 1.69568,1.702593 2.45781,2.678816 3.98278,4.487682 2.42655,1.337297 4.95963,2.482861 7.56289,3.431283 0.69383,0.252781 1.3685,0.613873 2.10195,0.699638 1.44607,0.169098 3.96887,-0.298984 5.40345,-0.513178 0.63078,-0.08372 1.27927,-0.08077 1.89234,-0.251155 3.06069,-0.850604 5.86344,-2.953113 7.94479,-5.300814 0.51736,-0.583573 0.94996,-1.237125 1.42493,-1.855689 0.69938,-0.812485 1.53368,-1.526053 2.09812,-2.437456 0.53847,-0.869463 0.98483,-3.349932 1.21924,-4.304487 0.20508,-0.835086 0.48482,-1.652352 0.6536,-2.495521 0.12373,-0.61808 0.601,-4.551741 0.67151,-5.118508 0.008,-1.594082 0.11258,-3.63116 -0.24916,-5.209688 -0.18514,-0.80795 -0.55317,-1.563288 -0.86224,-2.332408 -0.96214,-2.394307 -2.24501,-4.572224 -3.5133,-6.811782 -2.98535,-4.999855 0.72076,0.547264 -3.35857,-3.590026 -0.51803,-0.525393 -0.7172,-1.300405 -1.19223,-1.864989 -0.35451,-0.421346 -2.62899,-2.387587 -3.20486,-2.616391 -0.76686,-0.304683 -1.62525,-0.286665 -2.43787,-0.43 -1.88554,-1.188474 -3.61408,-1.086001 -5.71256,-1.315509 -0.57217,-0.06258 -1.12916,-0.308919 -1.70398,-0.279442 -0.87915,0.04508 -1.72137,0.37782 -2.59318,0.499798 -0.57758,0.08081 -1.16422,0.07158 -1.74633,0.107368 -3.60139,0.29977 -6.97652,1.675905 -10.14552,3.341613 -0.85822,0.806183 -2.03794,1.209993 -2.89422,2.015522 -0.19853,0.186759 -0.18997,0.520597 -0.35816,0.735081 -0.33301,0.424662 -0.82523,0.714457 -1.12855,1.160812 -0.19296,0.283951 -0.21652,0.651587 -0.32451,0.977466 -0.12173,0.367294 -0.2431,0.734703 -0.36465,1.102056 0.0252,0.351551 0.0504,0.703103 0.0756,1.054655 -0.11456,0.467588 -0.34003,0.921359 -0.34368,1.40276 -0.003,0.388747 0.34338,0.731899 0.32457,1.120201 -0.0265,0.547095 -0.41718,1.032452 -0.45535,1.578856 -0.0295,0.422466 0.20249,0.824161 0.25813,1.243986 0.0602,0.453978 0.059,0.913993 0.0884,1.370992 0.0341,0.186719 0.43983,2.444361 0.49955,2.617602 0.13924,0.403873 0.515,0.718886 0.58497,1.14032 0.0814,0.490402 -0.16577,0.987004 -0.14933,1.483844 0.0413,1.249696 0.25519,1.267153 0.93142,2.22572 -0.0612,0.647541 -0.32873,2.013267 0.11811,2.660846 0.25764,0.373377 0.82275,0.425121 1.12921,0.759592 0.53753,0.586658 0.69688,1.664438 1.01773,2.340329 0.19015,0.400556 0.45882,0.758878 0.68822,1.138315 1.21367,0.739978 1.649,2.172237 2.77597,3.003528 0.42253,0.31168 0.94214,0.466151 1.39327,0.734783 2.07643,1.23644 0.19648,0.465426 2.5953,1.267857 1.41771,0.431379 3.49446,1.374301 4.99317,1.274463 0.0192,-0.0013 2.50168,-0.522679 2.76827,-0.578615 2.91903,-1.152506 4.44857,-3.354183 5.76795,-6.107408 0.60104,-1.760826 1.31737,-3.516326 1.66625,-5.353093 0.37476,-1.973037 0.37756,-4.029908 0.38202,-6.027655 0.29506,-2.374321 0.44059,-2.107843 0.0571,-4.411723 -0.11146,-0.669671 -0.38237,-1.310408 -0.45322,-1.985584 -0.0792,-0.754629 0.18125,-1.538039 0.006,-2.276303 -1.78311,-7.513254 -0.39764,4.43348 -1.16558,-3.945089 -1.42449,-3.603029 0.074,-0.21092 -1.83558,-3.480255 -0.32015,-0.548103 -0.44942,-1.209373 -0.84258,-1.707708 -0.3948,-0.500422 -0.97275,-0.824185 -1.46977,-1.223259 -0.92042,-0.739034 -1.86504,-1.447429 -2.79321,-2.176688 -1.74343,-0.548838 -3.56139,-0.731048 -5.34796,-1.078218 -0.41324,-0.0803 -0.81654,-0.274207 -1.23704,-0.254309 -0.005,2.34e-4 -2.62338,0.597176 -2.93124,0.667343 -1.28868,0.763785 -2.80813,1.5253 -3.75394,2.759185 -0.26637,0.347496 -0.39149,0.783344 -0.58117,1.177967 -0.24559,0.510948 -0.60786,0.983877 -0.72459,1.538634 -0.0944,0.448834 0.0748,0.914268 0.11227,1.371402 -0.69402,3.119712 -0.38292,0.646996 -0.15493,3.614438 0.0521,0.677992 7.9e-4,1.360263 0.025,2.039821 0.0258,0.722519 -0.11026,1.481728 0.12509,2.165329 0.2344,0.680844 0.8662,1.154266 1.23142,1.77483 0.38832,0.6598 0.6822,1.370807 1.0233,2.056207 0.68794,1.46495 1.83661,2.634583 2.64656,4.01918 0.40908,0.699322 0.56931,1.543677 1.06403,2.185275 0.51426,0.666922 1.30933,1.064573 1.90269,1.662208 3.19888,3.221929 -0.26971,0.540626 3.5842,3.237487 0.74307,0.400515 1.48614,0.801034 2.2292,1.201552 0.58754,0.455295 1.10916,1.011621 1.7626,1.365888 0.71045,0.385177 1.49898,0.616259 2.27954,0.825592 0.81917,0.219686 1.68879,0.219512 2.50298,0.456994 0.61216,0.178551 1.1145,0.691986 1.74574,0.782259 0.89117,0.12745 1.79781,-0.09796 2.69671,-0.146936 0.50036,0.141787 0.98114,0.413871 1.50106,0.425357 1.27022,0.02806 3.96423,-0.705802 5.08493,-1.424673 0.23637,-0.151622 0.3978,-0.396494 0.59738,-0.594058 0.37268,-0.368917 0.74626,-0.73692 1.11939,-1.105379 0.74126,-1.721191 1.52105,-3.840906 1.38513,-5.751314 -0.0631,-0.886359 -0.65302,-2.440781 -0.9284,-3.251589 -0.43839,-0.43085 -0.94163,-0.80441 -1.31517,-1.29255 -0.36434,-0.476099 -0.51218,-1.094275 -0.87599,-1.570779 -1.0227,-1.339516 -1.58832,-1.392798 -2.9027,-2.395778 -0.90039,-0.687073 -1.72724,-1.465575 -2.59791,-2.18994 -1.18834,-0.101534 -2.2285,-0.813282 -3.39224,-1.003451 -0.59851,-0.0978 -1.21206,-0.04497 -1.81807,-0.0678 -0.46552,-0.01754 -0.9341,-0.109654 -1.39652,-0.0533 -0.92538,0.112784 -1.90527,0.560089 -2.7636,0.90273 -1.60924,1.062929 -2.67512,2.340295 -3.29917,4.172815 -0.15853,0.465529 -0.36676,0.92584 -0.41772,1.414973 -0.045,0.432387 0.0901,0.864775 0.13513,1.297159 -0.0948,1.941444 -0.24265,1.114732 0.38019,2.882324 0.16103,0.456988 0.23153,0.96144 0.49966,1.365017 0.27082,0.407617 0.87247,0.555649 1.073,1.002056 1.22078,2.717528 -1.47233,0.66893 1.41406,2.330802 1.12359,0.112281 0.75147,1.366126 1.33274,1.859957 0.0658,0.05588 1.97073,0.61173 2.13966,0.632844 0.56345,0.07042 1.13586,-0.01027 1.7035,0.0044 0.15487,-0.08105 0.99323,-0.402471 1.02471,-0.769893 0.0154,-0.179842 -0.27809,-0.30031 -0.25257,-0.478999 0.0541,-0.37919 0.36055,-0.681429 0.47068,-1.048292 0.27127,-0.903663 0.17475,-1.437658 0.14468,-2.37054 0.0616,-0.504324 0.29398,-1.016793 0.1847,-1.512972 -0.17489,-0.794168 -1.31983,-1.52573 -1.78803,-2.055071 -0.1839,-0.207915 -1.30819,-1.904336 -1.54096,-2.105655 -0.34385,-0.297392 -0.79179,-0.446955 -1.18768,-0.670433 -1.27287,-1.148845 -2.85237,-0.388379 -4.33991,-0.669319 -0.27069,-0.05113 -0.46505,-0.375153 -0.74042,-0.367125 -0.0514,0.0016 -2.59316,0.701503 -2.85889,0.774417 -1.12756,0.351443 -0.62587,0.174299 -1.51206,0.511225 0,0 -0.28191,0.225367 -0.28191,0.225367 v 0 c 1.05051,-0.337363 0.33934,-0.08147 2.06287,-0.941182 0.74437,-0.203147 1.69273,-0.524928 2.48512,-0.493193 0.31458,0.01259 0.59875,0.222882 0.91301,0.241853 0.53096,0.03205 1.06736,-0.170808 1.5932,-0.09058 0.39534,0.06032 0.72705,0.333365 1.09058,0.500044 0.58642,0.06566 1.17284,0.131318 1.75927,0.19698 1.17838,1.231884 0.4994,0.674113 2.06981,1.632463 0.30822,0.319289 0.37874,0.807114 0.63035,1.172689 0.25699,0.373393 0.65462,0.641694 0.88647,1.031201 0.28721,0.482507 0.6744,1.940046 0.83212,2.484138 0.43335,1.778976 0.22198,0.452522 0.22292,2.207628 1.5e-4,0.276534 0.17632,0.581133 0.0517,0.827992 -0.21597,0.427784 -0.66497,0.690237 -0.99406,1.038574 -0.21676,0.229421 -0.39446,0.500674 -0.64343,0.694645 -0.13493,0.105117 -0.32015,0.120502 -0.48023,0.180753 -0.21792,-0.0016 -0.43593,-0.01116 -0.65377,-0.0048 -0.3855,0.01132 -0.78577,0.167476 -1.15555,0.05793 -0.2541,-0.07528 -0.33731,-0.419899 -0.55858,-0.56574 -0.30304,-0.199736 -0.68236,-0.261038 -0.9894,-0.454554 -0.69754,-0.439626 -1.17124,-1.196668 -2.00851,-1.443747 -0.3497,-0.314063 -0.75057,-0.579141 -1.04911,-0.942189 -0.29581,-0.359733 -0.46877,-0.805045 -0.71349,-1.201303 -0.24714,-0.400167 -0.6323,-0.735494 -0.76188,-1.187625 -0.14855,-0.518372 0.033,-1.083162 -0.0419,-1.61717 -0.0664,-0.473607 -0.2527,-0.922502 -0.37905,-1.383755 -0.0499,-0.474335 -0.0997,-0.948669 -0.14958,-1.423003 -0.003,-0.453557 -0.0707,-0.911427 -0.008,-1.360673 0.0669,-0.480986 0.24573,-0.940062 0.39245,-1.40298 0.65573,-2.068891 1.68998,-3.154513 3.4937,-4.321677 1.93615,-0.71805 0.35745,-0.233011 2.3324,-0.576041 1.19361,-0.207322 2.64295,-0.722423 3.89621,-0.360603 1.00756,0.290888 1.44598,1.821924 2.82137,1.392156 0.56619,0.259678 1.17427,0.442703 1.69856,0.779031 0.48946,0.313989 0.88022,0.760359 1.31066,1.151358 0.8389,0.762013 1.86148,1.716101 2.58385,2.592094 0.38334,0.464857 0.67111,1.004004 1.06056,1.463754 0.39588,0.467344 0.85919,0.873117 1.28879,1.309674 0.41579,1.346034 0.71653,1.944021 0.70182,3.373245 -0.006,0.571555 -0.2384,1.129265 -0.22018,1.700559 0.0137,0.427979 0.3706,0.821137 0.31411,1.245589 -0.0857,0.643798 -1.11572,2.225183 -1.45479,2.784012 -0.66395,1.06621 -0.42658,0.927836 -1.64653,1.677832 -0.55795,0.343016 -1.11749,0.697968 -1.7278,0.935667 -1.63643,0.637347 -3.45749,0.276836 -5.1474,0.266427 -0.78685,-0.03023 -1.57975,0.01135 -2.36053,-0.09068 -2.2519,-0.294232 -4.30135,-1.318934 -6.3742,-2.164903 -0.79859,-0.325921 -1.65935,-0.519287 -2.40754,-0.948467 -0.6747,-0.38703 -1.20739,-0.980967 -1.81109,-1.471449 -1.61291,-1.090541 -2.57418,-1.634641 -3.97459,-3.00174 -2.3389,-2.283269 -3.64243,-5.313944 -5.59491,-7.893407 -0.14041,-0.332132 -1.59988,-3.721291 -1.68055,-4.153477 -0.13596,-0.728332 0.16357,-1.503008 -0.0125,-2.222696 -0.14465,-0.591319 -0.82407,-0.977513 -0.91751,-1.579054 -0.0649,-0.417952 0.69463,-3.500133 0.7982,-3.943027 0.12788,-0.533591 0.2914,-1.059876 0.38364,-1.600769 0.0704,-0.413089 -0.0245,-0.853744 0.10296,-1.252932 0.14256,-0.446352 0.43271,-0.832961 0.68858,-1.225489 0.7982,-1.224484 1.99838,-1.862372 3.31656,-2.42013 0.89523,-0.289704 2.31032,-0.787427 3.21832,-0.896825 0.51263,-0.06176 1.0324,0.03528 1.54871,0.03037 1.18955,-0.01131 2.66711,-0.268645 3.81275,0.31354 0.4506,0.228986 0.71154,0.718062 1.06731,1.077093 2.54185,1.100132 1.08433,0.246026 3.10945,1.972816 0.48745,0.415641 1.09857,0.705051 1.49352,1.209405 0.39207,0.500663 0.50444,1.169328 0.80718,1.728549 2.03366,3.756636 0.0934,-0.516202 1.81279,3.492812 1.31661,3.645218 0.20832,0.108366 0.92694,4.071422 0.29691,1.637453 0.77132,2.343949 0.92189,4.013054 0.0646,0.716309 -0.081,3.71506 -0.11061,4.441436 0.20201,4.437668 0.19478,-0.538715 -0.58226,4.324123 -0.0943,0.590354 0.1065,1.201856 0.02,1.793417 -0.26053,1.782947 -1.24657,3.443787 -1.44172,5.250256 -0.0748,0.152771 -1.24018,2.566951 -1.41188,2.793278 -0.35947,0.473834 -0.84469,0.837576 -1.26133,1.262015 -0.27947,0.284697 -0.51357,0.618273 -0.82686,0.865267 -0.8616,0.679275 -1.98339,1.167863 -2.9516,1.648105 -1.20703,0.193593 -2.52663,0.332156 -3.75,0.238112 -0.44228,-0.034 -0.87269,-0.159956 -1.30733,-0.248613 -0.46346,-0.09454 -0.95542,-0.106738 -1.38672,-0.300919 -0.34698,-0.156212 -0.58968,-0.481091 -0.88451,-0.721637 -0.53765,-0.119653 -1.11152,-0.131025 -1.61295,-0.358961 -0.94869,-0.431255 -1.24371,-1.232085 -1.96381,-1.900258 -1.06873,-0.991674 -2.48139,-1.49973 -3.4835,-2.574145 -1.20352,-3.780308 0.57393,1.037125 -1.42935,-2.205079 -0.22744,-0.368105 -0.1368,-0.866143 -0.32049,-1.257922 -0.17364,-0.370367 -0.56215,-0.613008 -0.7313,-0.985446 -0.34937,-0.769234 -0.28767,-1.75106 -0.30758,-2.557894 -0.62442,-4.557715 0.50286,1.8874 -1.01919,-2.180783 -0.16285,-0.435263 0.0301,-0.931968 -0.0194,-1.394053 -0.14267,-1.331433 -0.69545,-2.616776 -0.67749,-3.974925 -0.0974,-0.421775 -0.17992,-0.847272 -0.29225,-1.265325 -0.10771,-0.400883 -0.40681,-0.776634 -0.36742,-1.189863 0.0567,-0.594733 0.55617,-1.082516 0.64036,-1.673981 0.0559,-0.392457 -0.26643,-0.770295 -0.23617,-1.165551 0.18426,-2.406599 0.90282,-0.585732 -0.0335,-2.318313 0.61268,-1.074711 1.71605,-3.370734 2.61404,-4.176342 0.25205,-0.226121 2.29501,-1.607688 2.68224,-1.871771 1.22235,-0.70689 2.05301,-1.245182 3.36482,-1.775836 0.50045,-0.202441 1.02605,-0.336177 1.54101,-0.498173 1.85138,-0.582399 3.71723,-1.135851 5.64947,-1.382102 3.32847,-0.504949 0.71637,-0.232788 3.85617,-0.251907 0.7357,-0.0045 1.47248,-0.140364 2.20571,-0.07985 0.58975,0.04867 1.14771,0.291489 1.72857,0.404545 3.18585,0.620078 0.97366,-0.07871 3.85736,1.008478 3.29283,1.486625 0.41723,0.06724 3.52064,1.957784 0.66698,0.406316 1.41873,0.67699 2.04473,1.143985 0.61089,0.455721 1.11529,1.040982 1.63341,1.599911 1.75294,1.890972 1.45624,1.685952 2.72131,3.971494 0.61555,0.649579 1.40398,1.17099 1.84666,1.948738 0.4326,0.760029 0.44983,1.690508 0.70145,2.528046 0.24474,0.814618 0.44556,1.648352 0.78728,2.427275 0.32978,0.751707 1.01933,1.344202 1.21686,2.140947 0.41297,1.665706 -0.55153,3.510031 0.40547,5.132406 0.005,0.282459 0.10066,4.446114 0.0297,4.78686 -0.19524,0.938107 -0.67721,1.792872 -1.03076,2.68347 -0.32191,0.810898 -0.66196,1.61448 -0.99548,2.420671 -0.30422,0.735383 -0.5047,1.523804 -0.91776,2.20404 -0.51142,0.8422 -1.22011,1.547492 -1.83017,2.321237 -0.36562,0.573968 -0.62588,1.230696 -1.09688,1.721905 -0.73031,0.761656 -1.65232,1.313249 -2.4621,1.989818 -0.50821,0.424611 -0.94683,0.935619 -1.49101,1.313024 -0.57318,0.397515 -1.21435,0.688242 -1.83982,0.996997 -2.9021,1.432576 -2.00617,1.070814 -4.83875,1.694786 -3.3594,0.323964 -1.37796,0.317447 -4.58809,-0.07018 -0.89611,-0.108207 -1.82556,-0.03823 -2.69225,-0.290367 -0.74449,-0.216586 -1.3496,-0.767766 -2.05456,-1.090573 -8.29668,-3.799123 3.23937,1.887318 -5.37625,-2.429931 -0.63727,-0.718465 -1.24268,-1.466501 -1.91181,-2.155396 -1.92436,-1.981211 -2.86592,-2.347603 -4.33902,-4.765315 -0.57717,-0.947275 -0.90393,-2.026317 -1.38337,-3.026614 -2.1779,-4.543996 -0.78778,-1.125662 -2.43439,-5.514078 -0.0443,-0.499734 -0.43555,-4.951905 -0.49976,-5.53615 -0.0872,-0.793157 -0.12492,-1.597326 -0.30866,-2.37382 -0.14806,-0.625771 -0.58314,-1.169577 -0.68018,-1.805263 -0.15627,-1.023609 0.3551,-2.074997 0.0838,-3.105277 0,0 -0.12847,0.06546 -0.12847,0.06546 z"
       inkscape:connector-curvature="0" />
    <path
       style="fill:none;fill-opacity:1;stroke:#000000;stroke-width:3;stroke-miterlimit:4;stroke-dasharray:none;stroke-opacity:1"
       id="path1566"
       d="m 265.99327,50.859772 c -1.35938,0.331091 -2.51254,1.155001 -3.73716,1.786038 -0.51401,0.264861 -1.07,0.446701 -1.57155,0.734462 -2.08637,1.19706 -2.7744,1.799862 -4.63256,3.200897 -0.98223,0.886989 -3.95181,3.52312 -4.68275,4.397254 -0.6023,0.720291 -1.01001,1.58315 -1.50672,2.379935 -1.34903,2.164003 -2.24507,3.369108 -3.02233,5.823127 -0.3044,0.961048 -0.40237,1.975651 -0.60355,2.963479 -0.68558,3.158939 -0.49547,6.308526 -0.0973,9.482036 0.27853,2.219638 0.44583,4.171228 1.43255,6.223934 0.44804,0.932072 1.1426,1.724081 1.7139,2.58612 0.30782,0.947975 0.45471,1.964338 0.92347,2.843927 0.43371,0.813808 1.15258,1.439904 1.73886,2.1517 1.7359,2.107496 1.30342,1.874276 3.63161,3.258637 0.61855,0.367795 1.21116,0.843447 1.91371,0.999305 0.89705,0.199004 1.83755,0.02447 2.75632,0.03671 3.58712,-0.08574 7.01011,-1.294185 9.9072,-3.421861 1.6402,-1.20459 2.89766,-2.72878 4.26836,-4.213119 1.18912,-2.030886 2.43726,-4.023056 3.34288,-6.208051 1.5368,-3.707924 2.29177,-7.893452 2.30359,-11.902625 0.004,-1.389639 -0.2028,-2.771884 -0.30421,-4.157824 -0.97746,-3.967197 -1.37547,-8.099756 -2.59533,-12.010382 -0.37198,-1.192514 -1.00986,-2.292194 -1.368,-3.488944 -1.79843,-6.009761 0.61833,-1.271701 -2.36868,-6.292178 -1.71331,-4.550495 0.0839,-1.284089 -3.27404,-4.409151 -0.53922,-0.501806 -0.81198,-1.261237 -1.38993,-1.717857 -0.56745,-0.44831 -1.32183,-0.589916 -1.96051,-0.92913 -0.48705,-0.25867 -0.87696,-0.728563 -1.41203,-0.86207 -0.66426,-0.165747 -1.36927,-0.0018 -2.0539,-0.0027 -0.33521,-0.109208 -0.65469,-0.36134 -1.00562,-0.327622 -1.54102,0.148061 -3.18815,1.53686 -4.0751,2.711254 -0.39437,0.522171 -1.66605,3.252908 -1.8508,3.636556 -0.50172,1.535417 -1.21705,3.423528 -1.33608,5.052007 -0.0631,0.863518 0.17737,1.726359 0.16664,2.592112 -0.0126,1.01441 -0.14601,2.023811 -0.23638,3.034263 -0.0967,1.081024 -0.43167,2.159728 -0.3247,3.239781 0.0934,0.942948 0.60813,1.794896 0.9122,2.692347 1.32448,7.97787 -0.53825,-1.731648 1.60264,5.48773 0.98769,3.330655 -0.29115,2.257576 1.62135,5.13538 2.73166,4.110406 0.82512,-0.47209 2.41486,4.09728 2.04967,0.855704 3.31864,2.938031 5.38023,3.762412 0.6953,0.278032 1.47365,0.276219 2.19596,0.473673 2.84509,0.777729 0.39238,0.658926 3.81513,0.420729 2.20721,-0.146513 4.17788,-0.981154 5.3934,-2.923905 0.52512,-0.839311 0.94837,-2.563894 1.20608,-3.447634 0.26638,-1.689087 0.57946,-2.944307 0.37668,-4.678392 -0.0947,-0.809866 -0.39986,-1.581208 -0.57758,-2.376993 -0.18714,-0.837959 -0.1782,-1.734415 -0.51681,-2.523423 -0.32404,-0.755052 -1.00248,-1.306264 -1.42833,-2.008937 -0.40793,-0.67306 -0.71067,-1.404482 -1.066,-2.106723 -0.54023,-0.613701 -2.08635,-2.48974 -2.87256,-2.941471 -0.58862,-0.338214 -1.32807,-0.328433 -1.9376,-0.627385 -0.37592,-0.184388 -0.55432,-0.7453 -0.96964,-0.798558 -1.28656,-0.164986 -2.91724,0.838981 -3.96669,1.354572 -0.90977,0.737208 -2.37098,1.853787 -2.9182,2.755873 -0.31602,0.520943 -0.21855,1.200449 -0.37996,1.787983 -0.21936,0.798499 -0.49291,1.581335 -0.76093,2.36484 -0.31787,0.929233 -0.79502,1.811449 -0.99652,2.772656 -0.17621,0.840613 -0.0828,1.71577 -0.12421,2.573658 0.0172,1.65726 0.55669,3.249676 0.68982,4.890632 0.0666,0.821323 -0.17886,1.67072 0.0133,2.472026 0.15855,0.661218 0.75131,1.144252 1.00512,1.775063 1.27405,3.166359 -0.54592,0.653616 1.44456,3.010234 0.36743,0.260508 0.67173,0.64934 1.10229,0.781521 2.09589,0.643395 4.47648,-0.966754 5.71188,-2.48719 0.45291,-0.557432 0.75858,-1.219832 1.13789,-1.829749 1.40248,-3.32335 0.67794,-1.084797 1.28736,-4.570926 0.15822,-0.905026 0.46032,-1.787856 0.53729,-2.703375 0.0696,-0.828104 -0.10375,-1.660025 -0.1006,-2.491044 0.0146,-3.813323 0.50504,-1.438902 -0.55406,-4.748903 -0.2581,-0.613759 -0.31782,-1.356561 -0.77431,-1.841273 -0.47617,-0.505618 -1.25486,-0.599448 -1.85441,-0.950044 -1.44282,-0.843709 -1.35268,-1.327161 -3.20773,-1.351677 -1.30659,-0.01728 -3.11493,0.566901 -4.36633,0.910952 -0.55196,0.268137 -1.13838,0.474631 -1.65587,0.80441 -1.84667,1.176822 -4.55046,4.479491 -4.93367,6.64863 -0.0959,0.542634 0.11578,1.095976 0.17367,1.643962 -0.98321,3.534228 -0.70222,0.755658 0.11113,3.567237 0.15351,0.530638 -0.005,1.133954 0.20695,1.644216 0.22544,0.543647 2.08248,2.354768 2.60726,2.838863 0.96218,0.0894 1.75795,0.258209 2.71293,-0.01103 1.37724,-0.388295 3.23539,-1.636221 4.22689,-2.639137 0.35425,-0.358341 0.59579,-0.812813 0.89368,-1.219218 0.22969,-1.075585 1.18851,-1.799154 1.53562,-2.807894 0.47662,-1.385091 -0.57092,-2.899301 -1.31038,-3.942254 -0.86463,-0.09193 -1.89111,-0.280927 -2.76471,-0.06449 -2.41972,0.599479 -4.03105,2.576147 -5.61467,4.343847 -1.12043,2.516063 -2.94124,4.969809 -2.80895,7.861051 0.23566,5.150524 0.60388,-2.133603 0.20214,3.38791 1.10957,2.297962 2.48577,3.501088 5.16996,3.067195 0.46537,-0.07523 0.9109,-0.24326 1.36635,-0.364892 0,0 -0.72646,0.549238 -0.72646,0.549238 v 0 c -0.39836,0.07149 -0.7905,0.203806 -1.19509,0.214485 -0.85362,0.02252 -2.69658,-0.55145 -3.31456,-1.127181 -0.72977,-0.679884 -0.79209,-1.60093 -1.00647,-2.497471 -0.41082,-1.454023 -0.88232,-3.437538 -0.62042,-4.95414 0.39292,-2.27539 1.94392,-4.051818 2.86149,-6.105493 1.61454,-1.977805 3.54117,-4.236524 6.20841,-4.759571 0.81772,-0.160356 1.61227,0.157723 2.37223,0.368914 1.2718,0.740542 0.94721,0.240212 1.31448,1.592709 0.0936,0.344615 0.33176,0.690711 0.25725,1.039945 -0.12427,0.582412 -0.63069,1.023004 -0.81801,1.588294 -0.95303,2.875883 1.41322,-0.892165 -1.17761,2.639396 -0.31335,0.412173 -0.57957,0.864875 -0.94006,1.236519 -1.32686,1.367896 -3.57319,2.76582 -5.545,2.827552 -0.41841,0.0131 -0.8195,-0.171381 -1.22925,-0.257072 -0.36375,-0.195087 -0.76306,-0.334949 -1.09127,-0.585266 -0.35174,-0.268261 -0.61852,-0.632613 -0.92449,-0.952092 -0.70213,-0.733132 -1.49676,-1.384967 -1.70572,-2.463181 -0.0247,-0.127439 0.14223,-3.592698 0.1484,-3.726707 0.73321,-2.892192 0.15904,-1.134197 1.43903,-4.000656 0.2446,-0.547777 0.38568,-1.148339 0.70649,-1.655262 1.21671,-1.922537 3.24204,-3.032408 5.2196,-4.000265 0.73147,-0.220681 1.44008,-0.540692 2.19441,-0.662045 1.82343,-0.293347 3.65397,0.357806 5.19216,1.270526 0.55856,0.331449 1.21999,0.578213 1.60993,1.097643 0.40328,0.537181 0.43119,1.272331 0.6468,1.908497 0.33232,0.644316 0.79984,1.235295 0.99695,1.932951 0.62453,2.210401 0.0349,2.946786 -0.13933,5.195879 -0.0632,0.816113 0.0765,1.642603 -0.0188,2.455601 -0.27821,2.374958 -0.67482,2.675356 -1.75739,4.797049 -0.36872,0.605851 -0.66993,1.258353 -1.10617,1.817553 -0.99237,1.27209 -2.58641,2.552353 -4.28464,2.626405 -1.05214,0.04588 -1.74495,-0.429768 -2.65239,-0.860671 -1.26884,-1.013463 -1.59542,-0.964663 -2.06027,-2.676285 -0.19176,-0.706093 -0.0291,-1.486175 -0.2641,-2.179065 -0.2357,-0.694841 -0.99926,-1.17197 -1.11823,-1.895991 -0.15211,-0.92574 0.23186,-1.861926 0.3478,-2.792889 -0.15533,-0.802021 -0.31065,-1.604042 -0.46597,-2.40606 0.24132,-0.956606 0.48264,-1.913213 0.72396,-2.869819 0.31335,-0.914704 0.68745,-1.8108 0.94005,-2.74411 0.19463,-0.719138 0.11116,-1.511702 0.39786,-2.199336 0.3448,-0.826952 0.99599,-1.490326 1.46008,-2.256713 1.41992,-2.344791 -0.0387,-0.829376 2.72923,-2.897367 1.36171,-0.299011 3.65017,-0.835875 4.96999,-0.494115 1.309,0.338958 3.38389,2.996345 4.26265,3.933388 2.78638,4.301636 -0.0555,-0.483372 2.01821,4.380659 0.32227,0.755904 0.9007,1.387247 1.2055,2.150366 0.30234,0.756989 0.54544,1.557309 0.60026,2.370601 0.10589,1.571228 -0.60068,3.125441 -0.40759,4.70676 -0.15941,0.626893 -0.24598,1.276953 -0.47821,1.880677 -0.82616,2.147967 -2.76934,4.057504 -5.0246,4.62852 -0.55784,0.141245 -1.14059,0.153744 -1.71087,0.230616 -0.69242,0.01188 -3.70621,0.117446 -4.30086,-0.107897 -0.51358,-0.194609 -0.69577,-0.881822 -1.16821,-1.161862 -0.66291,-0.39293 -1.52477,-0.383011 -2.16405,-0.8133 -1.20771,-0.812877 -1.52876,-2.67213 -3.254,-2.912957 -2.70865,-3.130113 -0.56253,-0.299262 -2.53304,-4.024786 -0.4047,-0.765138 -1.02058,-1.415203 -1.36343,-2.20998 -0.36483,-0.84569 -0.46586,-1.78281 -0.73852,-2.662552 -1.2605,-4.066995 -0.86331,-1.22524 -0.9981,-5.812904 -0.13369,-0.984996 -0.19068,-1.98348 -0.40107,-2.954988 -0.19589,-0.904573 -0.72055,-1.733865 -0.81375,-2.654699 -0.10231,-1.010754 0.14055,-2.027206 0.23749,-3.038489 0.0908,-0.947626 0.25561,-1.887889 0.32578,-2.837272 0.28061,-3.79703 -0.46559,-1.129631 1.10516,-4.943375 0.24661,-0.656605 0.43174,-1.339726 0.73985,-1.96982 1.01684,-2.079437 2.86463,-3.83451 5.18007,-4.32867 0.49989,-0.106686 1.02175,-0.03308 1.53263,-0.04961 2.79517,0.336858 0.78722,-0.123313 3.25788,1.021133 0.68307,0.316403 1.53402,0.34683 2.09092,0.853324 0.54155,0.49251 0.56719,1.364365 0.99811,1.956071 5.07524,6.968597 -1.49608,-3.660586 3.29433,4.394577 0.52565,0.922117 1.14401,1.797232 1.57692,2.766356 0.4786,1.071486 0.75631,2.221889 1.14575,3.328913 0.41643,1.183825 0.80902,2.377001 1.2718,3.543491 0.48146,1.21359 1.2568,2.322954 1.55948,3.592994 0.65659,2.754963 -0.13126,5.738852 1.00841,8.436324 0.0592,4.703172 0.16316,3.818702 -0.23125,8.468849 -0.10822,1.27571 -0.098,2.574962 -0.39373,3.820639 -0.31197,1.314302 -0.89733,2.549686 -1.41459,3.797543 -1.36427,3.291134 -1.49056,3.258122 -3.26885,6.180482 -0.69059,0.781296 -1.30249,1.639945 -2.07179,2.343888 -0.85963,0.786622 -1.84404,1.425779 -2.79054,2.105403 -0.78935,0.566783 -1.56408,1.163765 -2.4153,1.632567 -1.08749,0.59895 -3.91116,1.609333 -5.0846,1.788146 -0.70919,0.10807 -1.43442,-0.03088 -2.15163,-0.04632 -1.60348,-0.23432 -3.13736,-0.329753 -4.62374,-1.07601 -1.34915,-0.67736 -2.73896,-2.146165 -3.76837,-3.18293 -0.66212,-0.666858 -1.46435,-1.22913 -1.95683,-2.029489 -0.52001,-0.845113 -0.67608,-1.865863 -1.01412,-2.798794 -3.03501,-4.909902 -0.49535,-0.234775 -2.4579,-5.727467 -0.3453,-0.966407 -1.16992,-1.780477 -1.2778,-2.801033 -0.13055,-1.235215 0.53623,-2.438013 0.59289,-3.678817 0.31622,-6.924431 -1.35535,1.124641 0.57824,-6.365917 0.20987,-0.992187 0.31201,-2.013437 0.62961,-2.976562 0.34628,-1.050092 0.87498,-2.031556 1.35097,-3.029572 0.42923,-0.899988 0.82897,-1.820783 1.36369,-2.662386 1.61757,-2.545905 3.79419,-4.7718 6.0565,-6.737723 0.25062,-0.166073 4.35145,-2.895285 4.94426,-3.249133 0.65228,-0.389351 1.33914,-0.717648 2.00537,-1.082612 1.10803,-0.606978 2.50309,-1.613985 3.8131,-1.846802 0,0 -0.32724,0.261771 -0.32724,0.261771 z"
       inkscape:connector-curvature="0" />
  </g>
</svg>
