<?xml version="1.0" encoding="UTF-8" standalone="no"?>
<!-- Created with Inkscape (http://www.inkscape.org/) -->

<svg
   xmlns:dc="http://purl.org/dc/elements/1.1/"
   xmlns:cc="http://creativecommons.org/ns#"
   xmlns:rdf="http://www.w3.org/1999/02/22-rdf-syntax-ns#"
   xmlns:svg="http://www.w3.org/2000/svg"
   xmlns="http://www.w3.org/2000/svg"
   xmlns:sodipodi="http://sodipodi.sourceforge.net/DTD/sodipodi-0.dtd"
   xmlns:inkscape="http://www.inkscape.org/namespaces/inkscape"
   width="1920"
   height="1080"
   viewBox="0 0 508.00002 285.74999"
   version="1.1"
   id="svg8"
   inkscape:version="0.92.4 5da689c313, 2019-01-14"
   sodipodi:docname="dibujo28.svg">
  <defs
     id="defs2" />
  <sodipodi:namedview
     id="base"
     pagecolor="#ffffff"
     bordercolor="#666666"
     borderopacity="1.0"
     inkscape:pageopacity="0.0"
     inkscape:pageshadow="2"
     inkscape:zoom="0.5"
     inkscape:cx="1032.3026"
     inkscape:cy="614.30973"
     inkscape:document-units="mm"
     inkscape:current-layer="layer1"
     showgrid="false"
     units="px"
     inkscape:window-width="1366"
     inkscape:window-height="741"
     inkscape:window-x="0"
     inkscape:window-y="27"
     inkscape:window-maximized="0"
     showguides="false" />
  <metadata
     id="metadata5">
    <rdf:RDF>
      <cc:Work
         rdf:about="">
        <dc:format>image/svg+xml</dc:format>
        <dc:type
           rdf:resource="http://purl.org/dc/dcmitype/StillImage" />
        <dc:title></dc:title>
      </cc:Work>
    </rdf:RDF>
  </metadata>
  <g
     inkscape:label="Capa 1"
     inkscape:groupmode="layer"
     id="layer1"
     transform="translate(0,-11.250015)">
    <path
       style="fill:none;fill-opacity:1;stroke:#0e0a08;stroke-width:3;stroke-miterlimit:4;stroke-dasharray:none;stroke-opacity:1"
       d="m 354.0125,92.741681 c 0.0428,3.580156 1.31476,7.037673 1.5875,10.583329 0.0947,1.23109 -0.0947,2.47309 0,3.70417 0.0823,1.06978 0.44688,2.10523 0.52916,3.175 0.0947,1.23109 0,2.46945 0,3.70417 0,2.11667 0,4.23333 0,6.35 0,1.76389 0,3.52778 0,5.29167 0,0.70555 0.0998,1.4182 0,2.11666 -0.0789,0.55219 -0.43746,1.0373 -0.52916,1.5875 -0.087,0.52197 0,1.05834 0,1.5875 -0.1764,0.52917 -0.41979,1.04054 -0.52917,1.5875 -0.13838,0.69186 0.17113,1.43218 0,2.11667 -0.0957,0.38264 -0.40444,0.68416 -0.52917,1.05833 -0.0524,0.15715 -0.0543,2.53723 0,2.64584 0.54422,1.08842 2.23086,1.55018 3.175,2.11666 0.54536,0.32721 1.00293,0.80781 1.5875,1.05834 1.33694,0.57297 2.82223,0.70555 4.23334,1.05833 0.70556,0.17639 1.42671,0.29918 2.11666,0.52917 0.90115,0.30038 1.71127,0.88841 2.64584,1.05833 1.04126,0.18932 2.12031,-0.0879 3.175,0 2.13844,0.1782 4.21044,0.89375 6.35,1.05833 1.23108,0.0947 2.46943,0 3.70416,0 1.05834,0 2.11979,0.0812 3.175,0 1.2436,-0.0957 2.46007,-0.4403 3.70417,-0.52916 1.23158,-0.088 2.46943,0 3.70417,0 5.29166,0 10.58333,0 15.875,0 0.88193,0 1.76389,0 2.64583,0 0.52917,0 1.06553,0.087 1.5875,0 0.5502,-0.0917 1.0373,-0.43747 1.5875,-0.52917 6.01874,-1.00312 -1.89468,0.98433 2.64583,-0.52917 0.16735,-0.0558 0.40444,0.12473 0.52917,0 0.12472,-0.12472 -0.12473,-0.40444 0,-0.52916 0.12472,-0.12473 0.40444,0.12472 0.52917,0 0.27889,-0.2789 0.31038,-0.73016 0.52916,-1.05834 0.13838,-0.20755 0.41762,-0.30605 0.52917,-0.52916 0.8251,-1.65023 0.52917,-3.51672 0.52917,-5.29167 0,-2.95438 -0.22604,-6.05724 0,-8.99583 0.0823,-1.06977 0.44688,-2.10523 0.52916,-3.175 0.0947,-1.23109 0,-2.46945 0,-3.70417 0,-2.99861 0,-5.99722 0,-8.99583 0,-4.23334 0,-8.46667 0,-12.700006 0,-0.594714 0.20984,-4.34282 0,-4.7625 -0.55126,-1.1025 -1.78263,-0.183882 -2.64583,-0.529166 -0.5905,-0.236197 -1.01867,-0.773914 -1.5875,-1.058334 -1.95858,-0.979291 -1.40698,-0.242019 -3.70417,-0.529166 -1.4433,-0.180414 -2.7877,-0.897708 -4.23333,-1.058334 -10.00154,-1.111284 4.80314,1.306256 -5.29167,-0.529166 -7.89485,-1.435428 1.06254,0.09659 -5.82083,-0.529167 -1.9917,-0.02885 -3.85853,-0.862102 -5.82083,-1.058333 -6.32923,-0.632923 1.39985,0.914974 -5.82084,-0.529167 -0.71316,-0.142629 -1.39385,-0.448852 -2.11666,-0.529167 -1.57779,-0.17531 -3.18725,0.196906 -4.7625,0 -0.72166,-0.09021 -1.39502,-0.438959 -2.11667,-0.529166 -1.72863,-0.216078 -4.02775,0 -5.82083,0 -1.13591,0 -3.75312,-0.201877 -4.7625,0 -0.38677,0.07735 -0.68416,0.404442 -1.05834,0.529166 -0.60425,0.20142 -3.8136,0 -4.7625,0 -0.35277,0 -0.72366,-0.111558 -1.05833,0 -0.23664,0.07888 -0.30604,0.417608 -0.52917,0.529167 -0.31554,0.157768 -0.74279,-0.157766 -1.05833,0 -0.22312,0.111559 -0.30604,0.417608 -0.52917,0.529167 -0.31554,0.157768 -0.80888,-0.249452 -1.05833,0 -1.09487,1.094864 1.67309,-0.0428 -0.52917,1.058333 -0.15777,0.07888 -0.40444,-0.124725 -0.52916,0 -0.24945,0.249452 0,0.705556 0,1.058333 0,0.705557 0,1.411111 0,2.116667 z"
       id="path10102"
       inkscape:connector-curvature="0" />
    <path
       style="fill:none;fill-opacity:1;stroke:#0e0a08;stroke-width:3;stroke-miterlimit:4;stroke-dasharray:none;stroke-opacity:1"
       d="m 425.45,89.566681 c -0.0717,2.926874 1.30108,5.602536 1.5875,8.466667 0.0878,0.877567 -0.0878,1.768266 0,2.645832 0.0895,0.89495 0.43968,1.75089 0.52916,2.64583 0.22328,2.23284 0,5.10552 0,7.40834 0,1.76389 0.19479,3.53857 0,5.29167 -0.0803,0.72282 -0.43897,1.39501 -0.52916,2.11666 -0.17503,1.40022 0.17502,2.83312 0,4.23334 -0.0902,0.72165 -0.43897,1.39501 -0.52917,2.11666 -0.17502,1.40022 0,2.82223 0,4.23334 0,1.94027 0,3.88055 0,5.82083 0,0.70556 0.0998,1.4182 0,2.11667 -0.0789,0.55218 -0.43746,1.0373 -0.52917,1.5875 -0.20227,1.21368 0.28755,3.08316 0,4.23333 -0.0957,0.38264 -0.43349,0.67569 -0.52916,1.05833 -0.12835,0.51337 0,1.05834 0,1.5875 0,0.57983 -0.0206,2.1064 0,2.11667 0.23719,0.1186 3.98184,0 4.23333,0 3.3514,0 6.70277,0 10.05417,0 2.11666,0 4.23957,-0.16234 6.35,0 4.36088,0.33545 8.90325,1.39568 13.22916,2.11667 3.00628,0.50104 6.00718,0.98976 8.99583,1.5875 1.59465,0.31893 3.15262,0.82835 4.7625,1.05833 0.52385,0.0748 1.06366,-0.0748 1.5875,0 0.71996,0.10285 1.39931,0.4096 2.11667,0.52917 0.69596,0.11599 1.4111,0 2.11667,0 0.13266,0 3.67231,0.0319 3.70416,0 0.12473,-0.12473 0,-0.35278 0,-0.52917 0,-1.36358 -0.14837,-2.89796 0,-4.23333 0.0993,-0.89391 0.42985,-1.75193 0.52917,-2.64584 0.0779,-0.70124 0,-1.41111 0,-2.11666 0,-2.46945 0,-4.93889 0,-7.40834 0,-2.82222 0.20108,-5.65161 0,-8.46666 -0.0889,-1.24409 -0.35277,-2.46945 -0.52917,-3.70417 -0.17639,-1.23472 -0.44029,-2.46008 -0.52916,-3.70417 -0.22355,-3.12981 0,-6.38288 0,-9.525 0,-5.11527 0,-10.230556 0,-15.345832 0,-0.596189 0.0389,-6.311099 0,-6.35 -0.003,-0.0028 -1.5698,0.0044 -1.5875,0 -0.38264,-0.09566 -0.6757,-0.433507 -1.05834,-0.529167 -0.48381,-0.120957 -5.26766,-0.07902 -5.82083,0 -0.71996,0.102852 -1.39501,0.43896 -2.11667,0.529167 -2.08409,0.260514 -4.2659,-0.260512 -6.35,0 -0.72165,0.09021 -1.39385,0.448852 -2.11666,0.529166 -2.26155,0.251283 -4.62148,-0.282212 -6.87917,0 -0.72165,0.09021 -1.39501,0.43896 -2.11667,0.529167 -1.22517,0.153149 -2.46943,0 -3.70416,0 -3.175,0 -6.35,0 -9.525,0 -1.23473,0 -2.48185,0.174617 -3.70417,0 -0.55218,-0.07888 -1.04055,-0.419775 -1.5875,-0.529167 -0.86482,-0.172963 -1.7639,0 -2.64583,0 -1.23473,0 -2.46944,0 -3.70417,0 -0.48683,0 -1.11125,-0.09525 -1.5875,0 -0.71316,0.142629 -1.4111,0.352777 -2.11666,0.529167 z"
       id="path10106"
       inkscape:connector-curvature="0" />
    <path
       style="fill:none;fill-opacity:1;stroke:#0e0a08;stroke-width:3;stroke-miterlimit:4;stroke-dasharray:none;stroke-opacity:1"
       d="m 353.60575,149.91071 c 0,2.8687 0,5.73739 0,8.60609 0,0.93544 0.0584,1.8727 0,2.80633 -0.0352,0.56362 -0.15576,1.11994 -0.18708,1.68379 -0.0311,0.5604 0,1.12253 0,1.6838 0,1.62144 0,3.24287 0,4.86431 0,4.17831 0,8.35662 0,12.53494 0,2.1827 0,4.3654 0,6.5481 0,0.62363 0,1.24726 0,1.87089 0,0.24945 -0.0275,0.50043 0,0.74835 0.0351,0.31605 0.15197,0.6194 0.18708,0.93545 0.0551,0.49585 -0.0619,1.00165 0,1.4967 0.0319,0.25515 0.15074,0.49381 0.18709,0.74836 0.0265,0.18521 -0.0265,0.37606 0,0.56127 0.0364,0.25454 0.15073,0.49381 0.18709,0.74835 0.0759,0.53115 0,1.14662 0,1.6838 0,1.37198 0,2.74397 0,4.11595 0,0.62363 0,1.24726 0,1.87088 0,0.18709 -0.0592,0.38378 0,0.56127 0.0279,0.0837 0.1592,0.10342 0.18711,0.18709 0.0464,0.1392 -0.0545,1.25513 0,1.30962 0.0441,0.0441 0.12793,-0.0197 0.18709,0 0.13229,0.0441 0.23743,0.15974 0.37417,0.18709 0.25456,0.0509 1.8133,0.035 2.05796,0 0.25455,-0.0364 0.49323,-0.1552 0.74837,-0.18709 0.61881,-0.0774 1.24981,0.0565 1.87087,0 0.3167,-0.0288 0.61857,-0.16068 0.93546,-0.18709 0.43503,-0.0362 0.87437,0.0335 1.30961,0 0.81785,-0.0629 1.61433,-0.31127 2.43215,-0.37418 0.37309,-0.0287 0.74946,0.0287 1.12255,0 0.43966,-0.0338 0.86961,-0.15775 1.30961,-0.18709 0.93337,-0.0622 1.87089,0 2.80633,0 1.99562,0 3.99121,0 5.98683,0 1.30964,0 2.61924,0 3.92888,0 0.68598,0 1.37618,-0.0757 2.05795,0 0.25556,0.0284 0.49253,0.16151 0.74838,0.18709 0.37232,0.0372 0.74835,0 1.12252,0 0.62362,0 1.25034,0.0621 1.87089,0 0.31642,-0.0316 0.61902,-0.15544 0.93544,-0.18709 0.62053,-0.062 1.25034,0.0621 1.87089,0 0.31642,-0.0316 0.61939,-0.15197 0.93544,-0.18708 0.24794,-0.0276 0.4989,0 0.74835,0 0.81073,0 1.62144,0 2.43215,0 0.43654,0 0.87747,0.0617 1.30964,0 0.25453,-0.0364 0.49379,-0.15073 0.74834,-0.18709 0.54438,-0.0778 1.14515,0.10773 1.68381,0 0.13674,-0.0273 0.24469,-0.1353 0.37418,-0.18709 0.48159,-0.19264 0.8456,-0.32926 1.3096,-0.56127 0.30655,-0.15326 0.80288,-0.48135 1.12255,-0.56126 0.121,-0.0302 0.25315,0.0302 0.37418,0 0.13528,-0.0338 0.246,-0.13216 0.37417,-0.18709 0.043,-0.0184 1.24841,-0.51988 1.49669,-0.56127 0.18455,-0.0308 0.37783,0.0367 0.56129,0 0.13674,-0.0274 0.23744,-0.15974 0.37417,-0.18709 0.18347,-0.0367 0.37418,0 0.56127,0 0.56126,0 1.12252,0 1.6838,0 0.56126,0 1.12252,0 1.68379,0 0.31181,0 0.62968,-0.0611 0.93546,0 0.19335,0.0387 0.37814,0.11385 0.56126,0.18709 0.38708,0.15483 0.73543,0.40644 1.12252,0.56127 0.18312,0.0732 0.37817,0.11385 0.56126,0.18709 0.37002,0.148 0.73684,0.46484 1.12255,0.56126 0.12099,0.0302 0.25318,-0.0302 0.37417,0 0.27056,0.0676 0.48376,0.28599 0.74835,0.37418 0.0592,0.0197 0.12792,-0.0197 0.18708,0 0.1323,0.0441 0.2389,0.15327 0.37418,0.18709 0.24201,0.0605 0.50636,-0.0605 0.74837,0 0.13528,0.0338 0.24188,0.14299 0.37418,0.18709 0.24979,0.0833 0.98282,0 1.3096,0 0.0832,0 0.63225,0.0581 0.74838,0 0.33374,-0.16688 0.49813,-1.2127 0.56126,-1.49671 0.069,-0.31042 0.1583,-0.61876 0.18709,-0.93544 0.0339,-0.37265 0,-0.74836 0,-1.12254 0,-0.93544 -0.0492,-1.87218 0,-2.80633 0.0885,-1.68171 0.44995,-3.38161 0.56126,-5.05139 0.0911,-1.36599 -0.0854,-2.74956 0,-4.11595 0.0314,-0.50181 0.15364,-0.99504 0.18708,-1.49671 0.029,-0.43557 -0.029,-0.87405 0,-1.30962 0.0334,-0.50167 0.15365,-0.99504 0.18709,-1.49671 0.0291,-0.43557 -0.0335,-0.87437 0,-1.30962 0.0291,-0.37822 0.1556,-0.7445 0.18709,-1.12253 0.0311,-0.37289 0,-0.74836 0,-1.12254 0,-0.37417 0.0339,-0.74989 0,-1.12253 -0.0288,-0.31668 -0.15545,-0.61903 -0.18709,-0.93544 -0.031,-0.31027 0.0282,-0.62491 0,-0.93544 -0.0343,-0.37778 -0.15274,-0.74476 -0.18709,-1.12254 -0.0282,-0.31053 0,-0.62362 0,-0.93544 0,-0.99781 0,-1.99561 0,-2.99342 0,-0.37418 0.0339,-0.74989 0,-1.12253 -0.0288,-0.31668 -0.15544,-0.61903 -0.18708,-0.93544 -0.031,-0.31027 0.0344,-0.62554 0,-0.93545 -0.0284,-0.25555 -0.12473,-0.4989 -0.18709,-0.74835 -0.19839,-0.79354 -0.47077,-1.61769 -0.56126,-2.43216 -0.0275,-0.24792 0.0309,-0.50082 0,-0.74835 -0.0319,-0.25514 -0.1587,-0.4928 -0.18709,-0.74835 -0.0344,-0.30991 0,-0.62363 0,-0.93545 0,-0.24945 -0.0276,-0.50043 0,-0.74835 0.0351,-0.31605 0.15195,-0.6194 0.18709,-0.93544 0.0275,-0.24793 -0.031,-0.50083 0,-0.74836 0.0319,-0.25514 0.15518,-0.49321 0.18709,-0.74835 0.0838,-0.67012 -0.111,-1.39213 0,-2.05798 0.023,-0.13755 0.15972,-0.23744 0.18708,-0.37418 0.0367,-0.18345 0,-0.37417 0,-0.56126 0,-0.62363 0,-1.24726 0,-1.87089 0,-0.0687 0.007,-0.74083 0,-0.74835 -0.007,-0.007 -1.60713,0 -1.68381,0 -1.24724,0 -2.49451,0 -3.74176,0 -0.31181,0 -0.62362,0 -0.93543,0 -0.31184,0 -0.62868,0.0558 -0.93546,0 -0.38804,-0.0706 -0.73989,-0.27852 -1.12253,-0.37418 -0.73601,-0.18401 -1.49862,-0.23846 -2.24507,-0.37418 -0.31286,-0.0569 -0.61875,-0.1583 -0.93543,-0.18709 -0.37264,-0.0339 -0.74964,0.0311 -1.12255,0 -0.37801,-0.0315 -0.74834,-0.12472 -1.12252,-0.18709 -0.43653,-0.0624 -0.86995,-0.15326 -1.30963,-0.18708 -0.37307,-0.0287 -0.74946,0.0287 -1.12252,0 -2.11998,-0.16308 -0.5157,-0.11901 -2.43216,-0.56127 -1.54292,-0.35606 -0.997,-0.0154 -2.43216,-0.37418 -0.38264,-0.0957 -0.74199,-0.2704 -1.12252,-0.37418 -0.46214,-0.12603 -1.63015,-0.29639 -2.05798,-0.37417 -1.37213,-0.24948 -2.74005,-0.51904 -4.11594,-0.74836 -0.3742,-0.0624 -0.74932,-0.11923 -1.12254,-0.18708 -0.31287,-0.0569 -0.61876,-0.15831 -0.93544,-0.18709 -0.68318,-0.0621 -1.37538,0.0683 -2.05798,0 -0.31642,-0.0317 -0.61902,-0.15545 -0.93544,-0.18709 -0.31027,-0.031 -0.62364,0 -0.93546,0 -0.31181,-0.0624 -0.61939,-0.15198 -0.93543,-0.18709 -0.32872,-0.0365 -1.42084,0.0292 -1.68381,0 -0.25553,-0.0284 -0.49279,-0.1587 -0.74835,-0.18709 -0.5544,-0.0616 -1.12937,0.0616 -1.68378,0 -0.58616,0.001 -1.11329,-0.30286 -1.68381,-0.37418 -0.49506,-0.0619 -1.00166,0.0619 -1.49672,0 -0.25514,-0.0319 -0.49321,-0.15519 -0.74835,-0.18709 -0.49503,-0.0619 -1.00165,0.0619 -1.49669,0 -0.25516,-0.0319 -0.49321,-0.15519 -0.74837,-0.18709 -0.49504,-0.0619 -1.00283,0.0706 -1.4967,0 -0.19524,-0.0279 -0.36605,-0.1592 -0.56126,-0.18709 -0.4939,-0.0705 -1.00166,0.0619 -1.49672,0 -0.47583,0.0313 -0.86019,-0.30997 -1.30961,-0.37417 -0.43217,-0.0617 -0.87902,0.0718 -1.30963,0 -0.19453,-0.0324 -0.36788,-0.14841 -0.56126,-0.18709 -0.12232,-0.0245 -0.24945,0 -0.37418,0 -0.4989,0 -0.99782,0 -1.49672,0 -0.56126,0 -1.12252,0 -1.68378,0 -0.17738,0 -0.59299,-0.0777 -0.74838,0 -0.0789,0.0394 -0.10339,0.1592 -0.18708,0.18709 -0.23665,0.0789 -0.50634,-0.0605 -0.74835,0 -0.13528,0.0338 -0.24188,0.14299 -0.37417,0.18709 -0.19619,0.0654 -1.88826,0 -2.24507,0 -0.12576,0 -0.45085,-0.0552 -0.56126,0 -0.0789,0.0394 -0.10822,0.14764 -0.18709,0.18708 -0.11157,0.0558 -0.24945,0 -0.37417,0 -0.24945,0 -0.49893,0 -0.74838,0 z"
       id="path10108"
       inkscape:connector-curvature="0" />
    <path
       style="fill:none;fill-opacity:1;stroke:#0e0a08;stroke-width:3;stroke-miterlimit:4;stroke-dasharray:none;stroke-opacity:1"
       d="m 427.13161,155.52338 c 0,0.31181 -0.0222,0.62442 0,0.93544 0.17867,2.5015 0.65177,4.97272 0.74835,7.48355 0.0312,0.81011 -0.0337,1.62213 0,2.43215 0.20357,4.88546 0.13943,-0.48363 0.37417,3.74177 0.0311,0.5604 -0.0295,1.12331 0,1.6838 0.0329,0.62587 0.15581,1.24493 0.18709,1.87089 0.0311,0.62285 0,1.24725 0,1.87088 0,1.49671 0,2.99342 0,4.49013 0,1.30962 0,2.61924 0,3.92886 0,0.87308 0.067,1.74874 0,2.61924 -0.0291,0.37823 -0.15275,0.74476 -0.18709,1.12254 -0.0282,0.31053 0,0.62363 0,0.93544 0,0.81072 0,1.62144 0,2.43215 0,0.18319 0.0523,1.20513 0,1.30962 -0.0394,0.0789 -0.14764,0.10821 -0.18709,0.18709 -0.0558,0.11156 0.0558,0.26262 0,0.37418 -0.0394,0.0789 -0.14764,0.1082 -0.18708,0.18709 -0.25649,0.51297 -0.50779,1.52314 -0.56127,2.05797 -0.031,0.31027 0,0.62363 0,0.93545 0,0.74835 0,1.49671 0,2.24506 0,0.31181 0.031,0.62518 0,0.93544 -0.0316,0.31642 -0.15544,0.61904 -0.18708,0.93545 -0.062,0.62053 0.062,1.25035 0,1.87088 -0.0317,0.31641 -0.15198,0.6194 -0.18709,0.93545 -0.0275,0.24792 0.0309,0.50083 0,0.74835 -0.29001,2.32006 -0.0635,-0.55428 -0.37417,1.30962 -0.0615,0.36909 0.0734,0.75562 0,1.12254 -0.0274,0.13674 -0.14301,0.24188 -0.18709,0.37417 -0.0561,0.16838 0.0561,0.39289 0,0.56127 -0.0279,0.0837 -0.14766,0.1082 -0.18709,0.18709 -0.0193,0.0384 -0.0265,0.53488 0,0.56126 0.14624,0.14625 0.32547,-0.16273 0.37418,-0.18709 0.0558,-0.0279 0.13131,0.0279 0.18708,0 0.15777,-0.0789 0.20683,-0.3184 0.37418,-0.37417 0.11832,-0.0395 0.2504,0.0155 0.37417,0 0.37642,-0.0471 0.74451,-0.15559 1.12255,-0.18709 0.37288,-0.0311 0.74835,0 1.12252,0 0.13229,0 2.29986,0 2.43216,0 2.80633,0 5.61266,0 8.41898,0 1.06016,0 2.12217,-0.0623 3.18051,0 0.50191,0.0295 0.9947,0.1592 1.49672,0.18709 0.62264,0.0346 1.24725,0 1.87087,0 1.30963,0 2.61924,0 3.92888,0 0.62362,0 1.24819,-0.0346 1.87086,0 0.50202,0.0279 0.99492,0.15572 1.49673,0.18708 0.49791,0.0311 0.99867,-0.0293 1.49669,0 0.56375,0.0332 1.12006,0.15393 1.68381,0.18709 1.18285,0.0696 2.37143,-0.0623 3.55468,0 0.5021,0.0264 0.99737,0.12835 1.49672,0.18709 0.56083,0.066 1.12006,0.15393 1.68378,0.18709 1.61586,0.095 3.24847,-0.0951 4.86431,0 0.50192,0.0295 0.99481,0.15757 1.49672,0.18709 0.56028,0.033 1.1235,-0.033 1.68378,0 0.50195,0.0295 0.99492,0.15573 1.49673,0.18709 0.49791,0.0311 0.99779,0 1.49669,0 0.8731,0 1.74617,0 2.61924,0 0.68601,0 1.37541,0.0683 2.05799,0 0.31641,-0.0316 0.61941,-0.15197 0.93546,-0.18709 0.24791,-0.0276 0.50138,0.0353 0.74834,0 0.62296,-0.089 1.07501,-0.51373 1.4967,-0.93544 0.12472,-0.12473 0.28342,-0.22293 0.37417,-0.37418 0.10909,-0.18179 0.347,-1.18278 0.3742,-1.30962 0.13325,-0.62186 0.29192,-1.24025 0.37418,-1.87089 0.23968,-1.83771 0.18708,-2.69758 0.18708,-4.49013 0,-3.74177 0,-7.48354 0,-11.22532 0,-3.36759 0,-6.73519 0,-10.10278 0,-1.30963 0,-2.61924 0,-3.92887 0,-0.99608 0,-0.50063 0,-1.49671 0,-0.18708 0.0308,-0.37672 0,-0.56126 -0.0648,-0.38905 -0.29683,-0.73577 -0.37417,-1.12253 -0.0243,-0.12231 0.0302,-0.25318 0,-0.37418 -0.0677,-0.27057 -0.30655,-0.47779 -0.37417,-0.74836 -0.0303,-0.121 0.0302,-0.25317 0,-0.37417 -0.10049,-0.40194 -0.56817,-1.07627 -0.74838,-1.49671 -0.13229,-0.30868 -0.20754,-0.64386 -0.37417,-0.93545 -0.0875,-0.15314 -0.26834,-0.23306 -0.37418,-0.37417 -0.0837,-0.11156 -0.12472,-0.24945 -0.18708,-0.37418 -0.0624,-0.18709 -0.0688,-0.4035 -0.18709,-0.56127 -0.0837,-0.11155 -0.26263,-0.10342 -0.37417,-0.18708 -0.14113,-0.10584 -0.26834,-0.23307 -0.37418,-0.37418 -0.0837,-0.11156 -0.10342,-0.26262 -0.18708,-0.37418 -0.10584,-0.14111 -0.24948,-0.24945 -0.3742,-0.37418 -0.12473,-0.12472 -0.23305,-0.26834 -0.37418,-0.37417 -0.11155,-0.0837 -0.26262,-0.10343 -0.37417,-0.18709 -1.70932,-1.282 0.76118,0.34444 -0.74835,-0.56127 -0.1928,-0.11568 -0.34507,-0.3124 -0.56126,-0.37418 -0.83344,0 -0.60037,0.0789 -1.30963,-0.18708 -0.31446,-0.11792 -0.61378,-0.27768 -0.93544,-0.37418 -0.32686,-0.0981 -1.79152,-0.32977 -2.05798,-0.37418 -1.24471,-0.20745 -2.49261,-0.38281 -3.74176,-0.56126 -1.37139,-0.19592 -2.7413,-0.38944 -4.11597,-0.56127 -0.4989,-0.0624 -0.99489,-0.15573 -1.49669,-0.18709 -0.49795,-0.0311 -0.99867,0.0293 -1.49673,0 -0.56374,-0.0332 -1.12006,-0.15393 -1.68378,-0.18709 -0.49805,-0.0293 -0.99867,0.0293 -1.49672,0 -0.56375,-0.0332 -1.12006,-0.15393 -1.68381,-0.18709 -0.49802,-0.0293 -0.99779,0 -1.49669,0 -1.06019,0 -2.12035,0 -3.18051,0 -0.49889,0 -0.99877,0.0311 -1.49672,0 -3.73599,-0.2335 0.39627,-0.18709 -2.61924,-0.18709 -1.30961,0 -2.61924,0 -3.92885,0 -0.74837,0 -1.49979,0.0678 -2.24507,0 -0.31668,-0.0288 -0.61875,-0.1583 -0.93543,-0.18709 -0.37264,-0.0339 -0.74991,0.0339 -1.12255,0 -0.31668,-0.0288 -0.62362,-0.12472 -0.93544,-0.18708 -0.62362,-0.12473 -1.24727,-0.24945 -1.87089,-0.37418 -0.31181,-0.0624 -0.61902,-0.15545 -0.93543,-0.18709 -0.31028,-0.031 -0.62519,0.031 -0.93544,0 -0.39587,-0.0396 -1.26714,-0.27001 -1.68381,-0.37418 -0.4989,-0.12472 -1.00224,-0.2329 -1.49672,-0.37417 -0.1896,-0.0542 -0.36602,-0.1592 -0.56126,-0.18709 -0.24694,-0.0353 -0.50141,0.0353 -0.74835,0 -0.39044,-0.0558 -0.73348,-0.30934 -1.12254,-0.37418 -0.18453,-0.0308 -0.3778,0.0367 -0.56127,0 -0.13673,-0.0273 -0.23743,-0.15974 -0.37417,-0.18709 -0.32615,-0.0652 -0.80068,0.10728 -1.12252,0 -0.13229,-0.0441 -0.24188,-0.14299 -0.37417,-0.18709 -0.37071,-0.12356 -1.12602,0.12357 -1.49673,0 -0.13229,-0.0441 -0.23889,-0.15326 -0.37417,-0.18709 -0.15798,-0.0395 -0.58481,0.0818 -0.74835,0 -0.0789,-0.0394 -0.10821,-0.14764 -0.18708,-0.18709 -0.0681,-0.0341 -0.74838,0.0328 -0.74838,0 0,-0.0624 0.12473,0 0.18709,0 0.0624,0 0.12472,0 0.18709,0"
       id="path10110"
       inkscape:connector-curvature="0" />
    <path
       style="fill:none;fill-opacity:1;stroke:#0e0a08;stroke-width:3;stroke-miterlimit:4;stroke-dasharray:none;stroke-opacity:1"
       d="m 107.76307,105.04704 c 0,3.99122 0,7.98245 0,11.97367 0,1.12254 0.12397,2.25193 0,3.3676 -0.0568,0.51111 -0.31039,0.98642 -0.37418,1.49671 -0.0619,0.49505 0.0619,1.00166 0,1.49671 -0.0638,0.51029 -0.31738,0.9856 -0.37417,1.49671 -0.12396,1.11566 0.12396,2.25193 0,3.36759 -0.0702,0.63209 -0.3109,1.23807 -0.37418,1.87089 -0.24838,2.48381 0.24838,1.25797 0,3.74177 -0.0633,0.63283 -0.3166,1.23752 -0.37418,1.87089 -0.0678,0.74528 0.0678,1.49978 0,2.24507 -0.0576,0.63336 -0.31089,1.23806 -0.37417,1.87088 -0.0621,0.62054 0.062,1.25035 0,1.87089 -0.17565,1.75644 -0.80051,3.84152 -1.12254,5.61266 -0.49891,2.744 -0.99781,5.48798 -1.49671,8.2319 -0.13571,0.74644 -0.17455,1.51312 -0.37417,2.24506 -0.17673,0.64801 -0.49891,1.24726 -0.74836,1.87089 -0.24945,0.74835 -0.55703,1.47978 -0.74835,2.24506 -0.18401,0.73603 -0.17456,1.51312 -0.37418,2.24507 -0.17673,0.648 -0.51882,1.23965 -0.74836,1.87088 -0.539153,1.48269 -1.081591,2.96805 -1.496704,4.49013 -0.167338,0.61357 -0.206841,1.25732 -0.374176,1.87089 -0.565971,2.07522 -1.568654,3.9576 -2.245064,5.98684 -0.162624,0.48786 -0.211556,1.00884 -0.374179,1.49671 -2.047931,6.14379 0.459229,-1.84824 -1.496708,3.36759 -0.180568,0.48152 -0.193609,1.0152 -0.374179,1.49671 -0.195853,0.52228 -0.552501,0.97443 -0.748353,1.49671 -0.180568,0.48151 -0.171604,1.02403 -0.374179,1.49671 -0.177147,0.41335 -0.525238,0.73208 -0.748353,1.12253 -0.553484,0.9686 -1.105003,1.94887 -1.496711,2.99342 -0.180567,0.48152 -0.193609,1.0152 -0.374176,1.49671 -0.584332,1.55822 -1.660734,2.93191 -2.245064,4.49013 -0.180567,0.48151 -0.171601,1.02403 -0.374179,1.49671 -0.354293,0.82669 -1.094481,1.4406 -1.496708,2.24506 -0.17639,0.35278 -0.197789,0.76976 -0.374176,1.12253 -0.201116,0.40223 -0.547241,0.72031 -0.748356,1.12253 -0.17639,0.35278 -0.197789,0.76976 -0.374176,1.12254 -0.915676,1.83134 -0.45262,0.47876 -1.496711,1.87088 -0.167336,0.22312 -0.206841,0.52524 -0.374177,0.74836 -0.211666,0.28222 -0.536688,0.46613 -0.748355,0.74835 -0.167338,0.22312 -0.206841,0.52524 -0.374176,0.74836 -0.211667,0.28222 -0.536689,0.46613 -0.748356,0.74835 -0.167338,0.22312 -0.176969,0.55115 -0.374176,0.74836 -0.19721,0.19721 -0.52524,0.20684 -0.748356,0.37417 -2.69145,2.01859 0.789657,-0.41547 -1.122531,1.49671 -0.19721,0.19721 -0.5163,0.21948 -0.748356,0.37418 -0.146764,0.0978 -0.249452,0.24945 -0.374176,0.37418 -0.344014,0.34401 -1.834441,2.03975 -2.245064,2.24506 -0.111559,0.0558 -0.26262,-0.0558 -0.374179,0 -0.157766,0.0789 -0.216411,0.2953 -0.374176,0.37418 -0.498904,0.24945 -0.374177,-0.37418 -0.374177,0.37418"
       id="path10114"
       inkscape:connector-curvature="0" />
    <path
       style="fill:none;fill-opacity:1;stroke:#0e0a08;stroke-width:3;stroke-miterlimit:4;stroke-dasharray:none;stroke-opacity:1"
       d="m 104.39548,156.30933 c 2.33499,2.72416 -0.0899,0.26926 2.24506,2.99342 0.34438,0.40178 0.80503,0.6992 1.12253,1.12253 0.43636,0.58182 0.71912,1.26577 1.12253,1.87089 0.34593,0.51889 0.81968,0.95156 1.12254,1.49671 0.32619,0.58714 0.4989,1.24726 0.74835,1.87089 0.37418,0.62363 0.74836,1.24725 1.12253,1.87088 1.03065,1.71776 2.17748,3.40262 2.99342,5.23849 0.54558,1.22756 0.99781,2.49451 1.49671,3.74177 0.4989,1.24726 1.07191,2.46737 1.49671,3.74177 0.16262,0.48787 0.19361,1.0152 0.37418,1.49671 0.19585,0.52228 0.5525,0.97444 0.74835,1.49671 0.53273,1.4206 0.70545,3.03033 1.12253,4.49013 0.35769,1.2519 0.76461,2.48905 1.12253,3.74177 0.10836,0.37925 0.30934,0.73349 0.37418,1.12254 0.0615,0.36908 0,0.74835 0,1.12253 0.12473,0.37417 0.30934,0.73348 0.37418,1.12253 0.12303,0.73817 -0.14676,1.51124 0,2.24506 0.0547,0.27348 0.30654,0.47779 0.37418,0.74836 0.121,0.484 0,0.9978 0,1.49671 0,0.87308 0,1.74616 0,2.61924 0,0.37418 -0.11833,0.76756 0,1.12253 0.0558,0.16734 0.3184,0.20684 0.37418,0.37418 0.0789,0.23665 -0.0605,0.50635 0,0.74835 0.231,0.92404 0.95051,1.58712 1.12253,2.61924 0.0615,0.36909 -0.0734,0.75562 0,1.12254 0.10939,0.54696 0.59511,0.96038 0.74835,1.49671 0.17472,0.6115 0.26962,1.24356 0.37418,1.87088 0.0205,0.12303 -0.0558,0.26262 0,0.37418 0.0789,0.15777 0.3184,0.20684 0.37418,0.37418 5.3e-4,0.002 -2.7e-4,1.12217 0,1.12253 0.0882,0.0882 0.28598,-0.0882 0.37417,0 0.17639,0.17639 0,0.4989 0,0.74835"
       id="path10116"
       inkscape:connector-curvature="0" />
    <path
       style="fill:none;fill-opacity:1;stroke:#0e0a08;stroke-width:3;stroke-miterlimit:4;stroke-dasharray:none;stroke-opacity:1"
       d="m 106.64054,128.62021 c -0.86807,1.19202 -1.82953,2.43649 -2.99342,3.3676 -0.35116,0.28093 -0.77706,0.46046 -1.12253,0.74835 -0.40652,0.33877 -0.71601,0.78377 -1.12253,1.12253 -0.34548,0.2879 -0.77706,0.46046 -1.12254,0.74836 -3.677937,3.06495 1.07245,-0.69826 -1.87088,2.24506 -0.31799,0.31799 -0.777061,0.46046 -1.122532,0.74836 -0.677529,0.5646 -1.182206,1.31994 -1.870887,1.87088 -0.351161,0.28093 -0.771372,0.46743 -1.122532,0.74836 -0.550947,0.44076 -0.997808,0.9978 -1.496711,1.49671 -0.498901,0.4989 -1.073375,0.93226 -1.496708,1.49671 -0.167339,0.22311 -0.230688,0.5092 -0.374177,0.74835 -1.831348,3.05225 0.265695,-0.47898 -1.496711,1.87089 -0.167335,0.22311 -0.230687,0.5092 -0.374176,0.74835 -0.231373,0.38562 -0.478533,0.76277 -0.748355,1.12254 -0.31431,0.41907 -0.808223,0.70345 -1.122532,1.12253 -0.334674,0.44623 -0.438949,1.0326 -0.748356,1.49671 -0.09784,0.14676 -0.249452,0.24945 -0.374176,0.37417 -0.124727,0.12473 -0.276334,0.22742 -0.374176,0.37418 -0.154705,0.23206 -0.219475,0.5163 -0.37418,0.74836 -0.09784,0.14676 -0.295293,0.21641 -0.374176,0.37417 -0.05578,0.11156 0.05578,0.26262 0,0.37418 -0.157768,0.31553 -0.590587,0.43282 -0.748355,0.74835 -0.05578,0.11156 0.05578,0.26262 0,0.37418 -0.157766,0.31554 -0.636797,0.41368 -0.748356,0.74836 -0.07888,0.23665 0.0605,0.50635 0,0.74835 0.225528,0.67724 -0.606144,0.69591 -0.748353,1.12253 -0.07888,0.23666 0.0605,0.50636 0,0.74836 -0.135284,0.54114 -0.571965,0.96754 -0.748355,1.49671 -0.07888,0.23665 0,0.4989 0,0.74835"
       id="path10118"
       inkscape:connector-curvature="0" />
    <path
       style="fill:none;fill-opacity:1;stroke:#0e0a08;stroke-width:3;stroke-miterlimit:4;stroke-dasharray:none;stroke-opacity:1"
       d="m 349.61314,158.53081 c -0.69336,-2.01178 -2.50671,-2.94633 -3.74176,-4.49013 -0.86437,-1.08045 -0.49287,-1.06782 -1.4967,-1.87089 -0.35118,-0.28093 -0.77139,-0.46743 -1.12254,-0.74835 -0.27546,-0.22038 -0.47287,-0.52798 -0.74835,-0.74836 -0.35116,-0.28093 -0.77137,-0.46743 -1.12252,-0.74835 -0.55097,-0.44076 -0.93229,-1.07338 -1.49672,-1.49671 -0.87808,-0.65855 -2.11535,-0.83816 -2.99342,-1.49671 -0.28223,-0.21167 -0.46614,-0.53669 -0.74835,-0.74836 -0.22312,-0.16733 -0.49892,-0.24945 -0.74837,-0.37417 -0.24945,-0.12473 -0.47779,-0.30654 -0.74835,-0.37418 -0.24201,-0.0605 -0.5117,0.0789 -0.74835,0 -0.41005,-0.13669 -0.75861,-0.87992 -1.12254,-1.12253 -0.18841,-0.82438 -0.76976,-0.19779 -1.12252,-0.37418 -0.62185,-0.31093 -0.49927,-0.79005 -1.49673,-1.12253 -0.11832,-0.0394 -0.24945,0 -0.37417,0 -0.12472,-0.12473 -0.2164,-0.2953 -0.37417,-0.37418 -0.11155,-0.0558 -0.28599,0.0882 -0.37418,0 -0.0882,-0.0882 0.0882,-0.28598 0,-0.37418 -0.0882,-0.0882 -0.28599,0.0882 -0.37417,0 -0.0882,-0.0882 -0.12473,-0.37417 0,-0.37417 0.12472,0 0,0.24945 0,0.37417 0,-0.37417 -0.0734,-0.75562 0,-1.12253 0.0547,-0.27348 0.24945,-0.4989 0.37417,-0.74836 0.12473,-0.37417 0.30933,-0.73348 0.37418,-1.12253 0.0615,-0.36908 -0.0615,-0.75344 0,-1.12253 0.0649,-0.38905 0.3184,-0.73208 0.37417,-1.12253 0.0706,-0.49389 -0.0705,-1.00282 0,-1.49671 0.11157,-0.78091 0.61868,-1.46696 0.74837,-2.24506 0.0615,-0.36909 0,-0.74836 0,-1.12253 0.12473,-0.37418 0.29681,-0.73578 0.37418,-1.12254 0.0978,-0.48921 0,-0.9978 0,-1.49671 0,-1.37198 0,-2.74396 0,-4.11595 0,-0.50757 -0.15142,-1.41666 0,-1.87089 0.0558,-0.16733 0.29527,-0.2164 0.37417,-0.37417 0.11295,-0.22592 -0.17298,-0.94956 0,-1.12253 0.0882,-0.0882 0.28599,0.0882 0.37418,0 0.0882,-0.0882 -0.0882,-0.28599 0,-0.37418 0.38438,-0.38438 3.90128,1.39857 4.49013,1.49671 0.36907,0.0615 0.75343,-0.0615 1.12252,0 0.76132,-0.12996 1.21227,0.61663 1.8709,0.74835 0.3669,0.0734 0.75343,-0.0615 1.12252,0 0.77811,0.12969 1.47156,0.59365 2.24507,0.74836 0.48921,0.0978 1.01269,-0.121 1.49669,0 0.27059,0.0676 0.47782,0.30653 0.74838,0.37418 0.484,0.121 1.01269,-0.12101 1.49669,0 0.54116,0.13528 0.95557,0.61307 1.49673,0.74835 0.24198,0.0605 0.50633,-0.0605 0.74834,0 1.08522,0.2713 0.43789,0.29192 1.12252,0.74835 0.28681,0.19121 1.20992,0.55716 1.49673,0.74836 0.14676,0.0978 0.2274,0.27633 0.37417,0.37418 0.23206,0.1547 0.51631,0.21947 0.74835,0.37417 0.14676,0.0978 0.22743,0.27634 0.3742,0.37418 0.23204,0.15471 0.51628,0.21948 0.74834,0.37418 0.29353,0.19568 0.43281,0.59059 0.74835,0.74835 0.11155,0.0558 0.26263,-0.0558 0.37418,0 1.55723,0.77862 -0.4,-0.0258 0.37417,0.74836 0.0882,0.0882 0.28599,-0.0882 0.3742,0 0.0882,0.0882 -0.0882,0.28598 0,0.37417 0.4989,0.49891 0.37417,-0.62362 0.37417,0.37418"
       id="path10120"
       inkscape:connector-curvature="0" />
    <path
       style="fill:none;fill-opacity:1;stroke:#0e0a08;stroke-width:3;stroke-miterlimit:4;stroke-dasharray:none;stroke-opacity:1"
       d="m 156.91183,122.60978 c 0.87308,0.12472 1.7373,0.37418 2.61924,0.37418 2.43842,0 4.76908,-1.3694 7.10937,-1.87089 0.86237,-0.18479 1.75687,-0.18938 2.61924,-0.37418 0.88786,-0.19025 1.73138,-0.55809 2.61924,-0.74835 0.86237,-0.18479 1.74616,-0.24945 2.61924,-0.37418 3.3703,-0.48147 1.7493,-0.22918 4.86431,-0.74835 2.24506,-0.37418 4.49013,-0.74836 6.73519,-1.12253 0.74836,-0.12473 1.48901,-0.31118 2.24506,-0.37418 1.88297,-0.15691 4.43281,0 6.36102,0 1.99561,0 3.99123,0 5.98684,0 0.87308,0 1.74873,0.067 2.61924,0 0.75644,-0.0582 1.48862,-0.31599 2.24506,-0.37418 0.87051,-0.067 1.74874,0.067 2.61924,0 1.51289,-0.11637 2.97802,-0.62234 4.49013,-0.74835 0.74577,-0.0622 1.4993,0.0621 2.24507,0 0.75605,-0.063 1.489,-0.31118 2.24506,-0.37418 0.74577,-0.0622 1.49978,0.0678 2.24506,0 0.63337,-0.0576 1.23752,-0.3166 1.87089,-0.37418 0.74528,-0.0678 1.4993,0.0622 2.24507,0 0.75605,-0.063 1.489,-0.31117 2.24506,-0.37417 1.36724,-0.11394 2.7496,0.12421 4.11595,0 0.75556,-0.0687 1.4895,-0.30549 2.24506,-0.37418 1.36635,-0.12422 2.74397,0 4.11595,0 2.24507,0 4.49013,0 6.7352,0 2.99341,0 5.98683,0 8.98025,0 1.37199,0 2.75078,-0.13652 4.11595,0 0.63283,0.0633 1.23807,0.31089 1.87089,0.37418 0.62053,0.062 1.25107,-0.0689 1.87089,0 0.51111,0.0568 0.98642,0.31039 1.49671,0.37417 0.9901,0.12376 2.00331,-0.12376 2.99342,0 0.51028,0.0638 0.98762,0.30145 1.4967,0.37418 1.08876,0.15554 2.2903,-0.21546 3.3676,0 0.27348,0.0547 0.47779,0.30653 0.74835,0.37418 0.48401,0.121 1.01271,-0.121 1.49672,0 0.27056,0.0676 0.47778,0.30653 0.74835,0.37417 0.48401,0.12101 1.0127,-0.121 1.49671,0 0.54114,0.13529 0.97881,0.5412 1.49671,0.74836 0.73241,0.29296 1.51265,0.45539 2.24506,0.74835 0.25895,0.10358 0.47488,0.31948 0.74836,0.37418 0.36691,0.0734 0.75562,-0.0734 1.12253,0 0.54696,0.10939 0.96754,0.57197 1.49671,0.74836 0.11832,0.0394 0.25585,-0.0394 0.37418,0 0.24945,0.12472 0.4989,0.24945 0.74835,0.37417 0.12473,0 0.25585,-0.0394 0.37418,0 0.26458,0.0882 0.48377,0.28599 0.74835,0.37418 0.33676,0.11225 0.78577,-0.11225 1.12253,0 0.26459,0.0882 0.48377,0.28598 0.74836,0.37418 0.11832,0.0394 0.25585,-0.0395 0.37418,0 0.26458,0.0882 0.48377,0.28598 0.74835,0.37417 0.11833,0.0395 0.25318,-0.0302 0.37418,0 0.76528,0.19133 1.47154,0.59366 2.24506,0.74836 0.24461,0.0489 0.49891,0 0.74836,0 0.24945,0.12472 0.47778,0.30653 0.74835,0.37418 0.242,0.0605 0.50635,-0.0605 0.74836,0 1.74921,0.4373 -0.25251,0.31105 1.4967,0.74835 0.24201,0.0605 0.50636,-0.0605 0.74836,0 0.27057,0.0676 0.47779,0.30654 0.74835,0.37418 0.24201,0.0605 0.51171,-0.0789 0.74836,0 0.16734,0.0558 0.22741,0.27633 0.37418,0.37417 0.23205,0.15471 0.4989,0.24946 0.74835,0.37418 1.75503,0.87752 -0.44097,-0.17639 1.87089,0.74836 0.51789,0.20716 0.94975,0.63896 1.49671,0.74835 0.36691,0.0734 0.75562,-0.0734 1.12253,0 0.27348,0.0547 0.48941,0.2706 0.74835,0.37418 0.36621,0.14648 0.75633,0.22769 1.12254,0.37418 0.77416,0.30966 1.4709,0.81287 2.24506,1.12253 0.36621,0.14648 0.75632,0.22769 1.12253,0.37418 0.5179,0.20715 0.95557,0.61307 1.49671,0.74835 0.242,0.0605 0.50635,-0.0605 0.74836,0 0.79237,0.19809 1.45268,0.92444 2.24506,1.12253 0.242,0.0605 0.4989,0 0.74835,0 0.24946,0.12473 0.48378,0.28599 0.74836,0.37418 0.23665,0.0789 0.52524,-0.11156 0.74835,0 0.15777,0.0789 0.21641,0.2953 0.37418,0.37418 0.22312,0.11156 0.52524,-0.11156 0.74835,0 0.15777,0.0789 0.21642,0.29529 0.37418,0.37417 0.49624,0.24813 3.24553,-0.24811 3.74178,0 0.92475,0.46238 -0.12917,0.37418 0.74835,0.37418 0.37417,0 0.75954,-0.0908 1.12255,0 0.27056,0.0676 0.47778,0.30654 0.74834,0.37418 0.24199,0.0605 0.50634,-0.0605 0.74835,0 0.77139,0.19285 1.50503,0.82652 2.24507,1.12253 0.36621,0.14649 0.75631,0.2277 1.12252,0.37418 0.25895,0.10358 0.47779,0.30653 0.74837,0.37418 0.24199,0.0605 0.50634,-0.0605 0.74835,0 0.54113,0.13528 0.95557,0.61307 1.4967,0.74835 0.24201,0.0605 0.5117,-0.0789 0.74837,0 0.16732,0.0558 0.20683,0.3184 0.37418,0.37418 0.47328,0.15777 1.01269,-0.121 1.49669,0 0.27059,0.0676 0.48379,0.28598 0.74837,0.37418 0.33677,0.11225 0.78576,-0.11226 1.12253,0 0.16734,0.0558 0.20685,0.3184 0.37417,0.37417 0.23664,0.0789 0.5117,-0.0789 0.74835,0 0.16735,0.0558 0.21643,0.2953 0.3742,0.37418 0.11154,0.0558 0.2626,-0.0558 0.37417,0 0.15777,0.0789 0.2164,0.29529 0.37417,0.37418 0.11155,0.0558 0.4576,0.0927 0.37418,0 -1.17999,-1.31109 -2.49452,-2.49452 -3.74177,-3.74177"
       id="path10122"
       inkscape:connector-curvature="0" />
    <path
       style="fill:none;fill-opacity:1;stroke:#0e0a08;stroke-width:3;stroke-miterlimit:4;stroke-dasharray:none;stroke-opacity:1"
       d="m 107.76307,105.04704 c -0.74835,-0.24945 -1.47501,-0.57723 -2.24506,-0.74835 -0.36527,-0.0812 -0.74836,0 -1.12253,0 -0.49891,0 -0.99781,0 -1.49671,0 -1.49671,0 -2.993422,0 -4.49013,0 -0.997808,0 -2.00332,0.12376 -2.993419,0 -1.020572,-0.12758 -1.975242,-0.6029 -2.99342,-0.74836 -0.370416,-0.0529 -0.753446,0.0615 -1.122531,0 -0.389052,-0.0648 -0.748356,-0.24945 -1.122532,-0.37418 -1.122532,-0.37418 -2.245064,-0.74835 -3.367596,-1.12253 -0.374179,-0.12473 -0.735774,-0.29683 -1.122531,-0.37418 -0.244608,-0.0489 -0.503749,0.0489 -0.748356,0 -0.728826,-0.14576 -2.743906,-1.02894 -3.367595,-1.49671 -0.282223,-0.211662 -0.466133,-0.536684 -0.748356,-0.748351 -0.605869,-0.4544 -0.741042,-0.176119 -1.122532,-0.748355 -0.154704,-0.232055 -0.219474,-0.5163 -0.374176,-0.748353 -0.09784,-0.146767 -0.276336,-0.227414 -0.374179,-0.374179 -0.285086,-0.42763 -0.661427,-1.436245 -0.748355,-1.870887 -0.15244,-0.762201 0,-1.858023 0,-2.61924 0,-1.13262 -0.155673,-2.652051 0,-3.741775 0.05578,-0.390453 0.265824,-0.743288 0.374179,-1.122531 0.248716,-0.870506 0.499639,-1.748735 0.748355,-2.61924 0.390887,-1.368111 0.731642,-2.747841 1.122532,-4.115951 0.336545,-1.177912 0.651076,-2.641714 1.122532,-3.741775 0.439449,-1.025379 0.997804,-1.995612 1.496708,-2.993419 0.498903,-0.997804 0.848291,-2.085631 1.496711,-2.993416 0.659122,-0.922774 2.801374,-2.779848 3.741772,-3.367598 1.133689,-0.708555 2.139357,-0.950826 3.367595,-1.496709 0.509717,-0.226541 0.967544,-0.571965 1.496711,-0.748355 0.603342,-0.201112 1.261729,-0.191429 1.870884,-0.374176 0.643343,-0.193003 1.219275,-0.585452 1.870888,-0.748356 0.855612,-0.213902 1.747554,-0.24007 2.619242,-0.374176 1.149119,-0.176787 3.779309,-0.664895 4.864309,-0.748356 1.61665,-0.124359 3.24287,0 4.8643,0 1.74616,0 3.49232,0 5.23848,0 0.74836,0 1.49892,-0.0574 2.24507,0 1.75869,0.135284 3.49232,0.498904 5.23848,0.748356 0.87308,0.124724 1.75687,0.189383 2.61924,0.374176 1.13201,0.242575 3.70877,1.088874 4.86431,1.496711 2.00981,0.709343 4.08053,1.29191 5.98683,2.245064 1.30098,0.650488 2.49452,1.496708 3.74178,2.245063 1.30384,0.782307 2.23385,1.253041 3.36759,2.245064 0.92923,0.81307 1.68177,1.815695 2.61924,2.61924 1.65436,1.418016 1.29654,0.585139 2.24507,2.245066 0.27674,0.484296 0.47161,1.01241 0.74835,1.496708 0.22312,0.390454 0.54724,0.720305 0.74836,1.122532 0.17639,0.352777 0.24945,0.748356 0.37418,1.122532 0.12472,0.374179 0.30933,0.733481 0.37417,1.122532 0.12303,0.738174 0,1.496711 0,2.245064 0,0.374179 0.0734,0.75562 0,1.122531 -0.14034,0.701728 -1.1398,2.083885 -1.49671,2.619243 -0.4989,0.748355 -0.86073,1.609085 -1.4967,2.245064 -0.63598,0.635979 -1.55412,0.920922 -2.24507,1.496711 -0.40652,0.338761 -0.71601,0.783767 -1.12253,1.122531 -0.78541,0.654505 -2.46562,1.72965 -3.3676,2.245064 -0.96859,0.553482 -2.02482,0.943226 -2.99342,1.496708 -0.39045,0.223118 -0.73208,0.525238 -1.12253,0.748356 -0.48429,0.276741 -1.01241,0.471612 -1.49671,0.748355 -0.39045,0.223115 -0.70919,0.571206 -1.12253,0.748353 -0.47268,0.202574 -1.01519,0.193614 -1.49671,0.374174 -0.52227,0.19586 -0.97443,0.55251 -1.49671,0.74836 -0.48151,0.18057 -1.00224,0.2329 -1.49671,0.37418 -0.8705,0.24871 -1.74873,0.49964 -2.61924,0.74835 -1.51148,0.43185 -2.99864,0.99955 -4.49013,1.49671 -0.37418,0.12472 -0.73577,0.29683 -1.12253,0.37418 -0.24461,0.0489 -0.50635,-0.0605 -0.74835,0 -0.54114,0.13528 -0.95558,0.61307 -1.49671,0.74835 -0.24201,0.0605 -0.50635,-0.0605 -0.74836,0 -0.27057,0.0676 -0.47778,0.30654 -0.74835,0.37418 -0.24201,0.0605 -0.51171,-0.0789 -0.74836,0 -0.16733,0.0558 -0.20684,0.3184 -0.37417,0.37418 -0.35498,0.11832 -0.76756,-0.11833 -1.12254,0 -0.26458,0.0882 -0.48377,0.28598 -0.74835,0.37417 -0.3952,0.13174 -2.43396,0 -2.99342,0 -0.33699,0 -1.63352,0.11869 -1.87089,0 -0.40223,-0.20111 -0.74835,-0.4989 -1.12253,-0.74835 z"
       id="path10124"
       inkscape:connector-curvature="0" />
    <path
       style="fill:none;fill-opacity:1;stroke:#0e0a08;stroke-width:3;stroke-miterlimit:4;stroke-dasharray:none;stroke-opacity:1"
       d="m 99.905348,76.609561 c -0.01746,0.867035 -1.842836,0.692254 -2.245064,1.496711 -0.111559,0.223115 0.111559,0.525238 0,0.748353 -0.07888,0.157768 -0.295293,0.216411 -0.374176,0.374179 -0.05578,0.111556 0,0.249452 0,0.374176 0,0.124725 -0.05578,0.262621 0,0.374177 0.07888,0.157768 0.295293,0.216411 0.374176,0.374179 0.05578,0.111556 -0.05578,0.262617 0,0.374176 0.06702,0.134041 2.111026,2.178045 2.245064,2.245064 0.111562,0.05578 0.262622,-0.05578 0.374172,0 0.31554,0.157768 0.43283,0.590587 0.74836,0.748355 0.11811,0.05906 1.41577,0.08094 1.49671,0 0.19721,-0.197209 0.28598,-0.483772 0.37418,-0.748355 0.0669,-0.200798 0.0991,-2.421115 0,-2.61924 -0.0789,-0.157768 -0.2953,-0.216411 -0.37418,-0.374179 -0.11156,-0.223115 0.11156,-0.525238 0,-0.748353 -0.0789,-0.157768 -0.2953,-0.216411 -0.37418,-0.374179 -0.11155,-0.223115 0.17639,-0.571966 0,-0.748353 -0.4989,-0.498903 -0.37417,0.623628 -0.37417,-0.374179"
       id="path10130"
       inkscape:connector-curvature="0" />
    <path
       style="fill:none;fill-opacity:1;stroke:#0e0a08;stroke-width:3;stroke-miterlimit:4;stroke-dasharray:none;stroke-opacity:1"
       d="m 119.73675,71.371079 c -0.19464,0.259511 -1.33344,1.591992 -1.49671,2.245063 -0.15556,0.622226 0,1.915848 0,2.619243 0,0.336995 -0.11869,1.633522 0,1.870887 0.12472,0.249452 0.87308,0.997805 1.12253,1.122532 0.38703,0.193516 1.42436,-0.148841 1.87088,0 0.50806,0.169349 1.25349,0.682876 1.87089,0.374176 0.11156,-0.05578 -0.0882,-0.285982 0,-0.374176 0.77419,-0.774187 -0.0303,1.183058 0.74836,-0.374179 0.11156,-0.223115 -0.0789,-0.511704 0,-0.748353 0.0882,-0.264583 0.28598,-0.483772 0.37417,-0.748355 0.0624,-0.18709 0.0624,-0.935442 0,-1.122532 -0.0882,-0.264583 -0.28598,-0.483772 -0.37417,-0.748355 -0.37129,-1.113862 0.886,0.767738 -0.37418,-1.122532 -0.0978,-0.146765 -0.27633,-0.227412 -0.37418,-0.374177 -0.1547,-0.232055 -0.20684,-0.52524 -0.37417,-0.748355 -0.21167,-0.282223 -0.53669,-0.466132 -0.74836,-0.748355 -0.0818,-0.109125 -0.41175,-1.055209 -0.74836,-1.122532 -0.48921,-0.09784 -0.9978,0 -1.4967,0 z"
       id="path10132"
       inkscape:connector-curvature="0" />
    <path
       style="fill:none;fill-opacity:1;stroke:#0e0a08;stroke-width:3;stroke-miterlimit:4;stroke-dasharray:none;stroke-opacity:1"
       d="m 97.660284,95.318429 c 0.681559,-0.340781 1.793391,-0.984891 2.619236,-1.122532 0.36909,-0.06152 0.75212,0.05292 1.12254,0 0.50909,-0.07273 0.98642,-0.310391 1.49671,-0.374177 0.49505,-0.06188 1.00282,0.07055 1.49671,0 0.39045,-0.05578 0.73348,-0.309337 1.12253,-0.374179 0.73817,-0.123028 1.49671,0 2.24506,0 1.74616,0 3.49232,0 5.23849,0 0.58336,0 1.70729,0.134443 2.24506,0 0.27057,-0.06764 0.48377,-0.285982 0.74835,-0.374176 0.23665,-0.07888 0.51171,0.07888 0.74836,0 0.26458,-0.08819 0.48377,-0.285983 0.74835,-0.374176 0.11833,-0.03945 0.26262,0.05578 0.37418,0 0.15777,-0.07889 0.20684,-0.3184 0.37418,-0.374179 0.23665,-0.07888 0.5117,0.07888 0.74835,0 0.33468,-0.111559 0.43282,-0.590588 0.74836,-0.748356 0.22311,-0.111556 0.52523,0.111559 0.74835,0 0.15777,-0.07888 0.21641,-0.295293 0.37418,-0.374176 0.22311,-0.111559 0.57196,0.176389 0.74835,0 0.49891,-0.498904 -0.62362,-0.374177 0.37418,-0.374177"
       id="path10134"
       inkscape:connector-curvature="0" />
    <path
       style="fill:none;fill-opacity:1;stroke:#0e0a08;stroke-width:3;stroke-miterlimit:4;stroke-dasharray:none;stroke-opacity:1"
       d="m 90.925093,90.828301 c 0.103743,0.780754 1.740247,1.48784 2.245064,2.245064 0.154702,0.232055 0.219474,0.5163 0.374176,0.748355 0.275185,0.412777 0.901512,0.68049 1.122532,1.122532 0.05578,0.111556 -0.05578,0.262618 0,0.374177 0.778619,1.557237 -0.02582,-0.400008 0.748356,0.374176 0.08819,0.0882 -0.05578,0.26262 0,0.374179 0.157765,0.315534 0.590587,0.432819 0.748355,0.748353 0.05578,0.111559 -0.05578,0.26262 0,0.374179 0.07888,0.157766 0.295293,0.21641 0.374176,0.374176 0.155374,0.310748 0,1.141979 0,1.496711 0,0.137411 0.01506,1.481647 0,1.496707 -0.08819,0.0882 -0.400312,0.12196 -0.374176,0 0.38051,-1.775723 0.997805,-3.492321 1.496705,-5.238481"
       id="path10136"
       inkscape:connector-curvature="0" />
    <path
       style="fill:none;fill-opacity:1;stroke:#0e0a08;stroke-width:3;stroke-miterlimit:4;stroke-dasharray:none;stroke-opacity:1"
       d="m 121.98181,90.828301 c 0.74835,-1.371983 1.44101,-2.775855 2.24506,-4.115951 0.0642,-0.106952 0.0558,0.262618 0,0.374177 -0.0789,0.157768 -0.27633,0.227414 -0.37417,0.374179 -0.82438,0.188431 -0.19779,0.769752 -0.37418,1.122532 -0.0789,0.157765 -0.27633,0.227412 -0.37418,0.374176 -2.0815,3.122247 -0.28593,0.57186 -1.87089,3.741775 -0.0789,0.157765 -0.29529,0.216408 -0.37417,0.374176 -0.0558,0.111559 0.0558,0.26262 0,0.374176 -0.0789,0.157769 -0.29529,0.216411 -0.37418,0.374179 -0.0558,0.111557 0,0.24945 0,0.374177 0,0.124724 -0.0882,0.285983 0,0.374176 0.0882,0.0882 0.24945,0 0.37418,0 0.12473,0 0.33834,0.119467 0.37417,0 0.3655,-1.218313 0.49891,-2.494515 0.74836,-3.741772"
       id="path10138"
       inkscape:connector-curvature="0" />
    <path
       style="fill:none;fill-opacity:1;stroke:#0e0a08;stroke-width:3;stroke-miterlimit:4;stroke-dasharray:none;stroke-opacity:1"
       d="m 156.91183,122.60978 c -0.622,0.6273 -1.14166,1.3762 -1.866,1.8819 -0.45735,0.3193 -1.07481,0.30944 -1.5875,0.52917 -0.72505,0.31073 -1.41111,0.70555 -2.11667,1.05833 -0.70555,0.35278 -1.43176,0.66696 -2.11666,1.05833 -0.55219,0.31554 -1.00294,0.80781 -1.5875,1.05834 -0.66847,0.28648 -1.4482,0.24268 -2.11667,0.52916 -1.64432,0.70471 -3.14084,2.36418 -4.7625,3.175 -0.4989,0.24946 -1.08859,0.27972 -1.5875,0.52917 -0.56884,0.28442 -1.01866,0.77391 -1.5875,1.05833 -0.4989,0.24946 -1.1092,0.24219 -1.5875,0.52917 -0.4278,0.25668 -0.63053,0.80165 -1.05833,1.05833 -0.4783,0.28698 -1.1092,0.24219 -1.5875,0.52917 -0.42781,0.25668 -0.63053,0.80165 -1.05834,1.05833 -0.4783,0.28698 -1.0696,0.32201 -1.58749,0.52917 -0.36621,0.14648 -0.70556,0.35278 -1.05834,0.52917 -0.86699,0.43349 -2.27086,1.36146 -3.175,1.5875 -0.34224,0.0856 -0.7124,-0.0692 -1.05833,0 -1.06264,-0.12144 -1.72431,0.82795 -2.64583,1.05833 -0.34225,0.0856 -0.71609,-0.0856 -1.05834,0 -0.38264,0.0957 -0.67157,0.45182 -1.05833,0.52917 -0.51889,0.10377 -1.07414,-0.12834 -1.5875,0 -0.24201,0.0605 -0.29252,0.45028 -0.52917,0.52916 -0.79375,0.26459 -1.85208,-0.26458 -2.64583,0 -0.37418,0.12473 -0.68416,0.40445 -1.05833,0.52917 -0.6845,0.22817 -2.33946,0 -3.175,0 -2.11667,0 -4.23334,0 -6.35,0"
       id="path10142"
       inkscape:connector-curvature="0" />
    <path
       style="fill:none;fill-opacity:1;stroke:#0e0a08;stroke-width:3;stroke-miterlimit:4;stroke-dasharray:none;stroke-opacity:1"
       d="m 154.25208,124.2271 c 0.11025,-0.0661 0.22788,-0.1213 0.33073,-0.19844 0.0748,-0.0561 0.12657,-0.13855 0.19844,-0.19844 0.0611,-0.0509 0.13374,-0.0861 0.19844,-0.13229 0.14197,-0.10141 0.30713,-0.24165 0.46302,-0.33073 0.17122,-0.0978 0.36508,-0.15519 0.52916,-0.26458 0.12973,-0.0865 0.21096,-0.23092 0.33073,-0.33073 0.16334,-0.13612 0.36316,-0.19792 0.52917,-0.33073 0.0974,-0.0779 0.15763,-0.20041 0.26458,-0.26458 0.0598,-0.0359 0.14266,-0.0243 0.19844,-0.0662 0.0394,-0.0296 0.0313,-0.0974 0.0661,-0.13229 0.0349,-0.0349 0.0913,-0.0388 0.13229,-0.0661 0.0259,-0.0173 0.0366,-0.0563 0.0661,-0.0661 0.0418,-0.0139 0.0895,0.0107 0.13229,0 0.0478,-0.012 0.0855,-0.0506 0.1323,-0.0661 0.0209,-0.007 0.0464,0.01 0.0661,0 0.0279,-0.0139 0.0383,-0.0522 0.0662,-0.0661 0.039,-0.0195 0.15398,0 0.19844,0"
       id="path10145"
       inkscape:connector-curvature="0" />
    <path
       style="fill:none;fill-opacity:1;stroke:#0e0a08;stroke-width:3;stroke-miterlimit:4;stroke-dasharray:none;stroke-opacity:1"
       d="m 162.45416,122.77189 c -0.50531,0.0869 -1.00813,0.22792 -1.52135,0.26458 -0.15395,0.011 -0.30907,-0.011 -0.46302,0 -0.15551,0.0111 -0.30746,0.0558 -0.46302,0.0662 -0.176,0.0117 -0.35312,-0.011 -0.52917,0 -1.72532,0.10783 0.56022,0.0214 -0.99219,0.13229 -0.15394,0.011 -0.30868,0 -0.46302,0 -0.17639,0.022 -0.35185,0.0535 -0.52916,0.0662 -0.26391,0.0189 -0.53008,-0.022 -0.79375,0 -0.13366,0.0111 -0.26331,0.054 -0.39688,0.0661 -0.10979,0.01 -0.22103,-0.011 -0.33073,0 -0.18136,0.0182 -0.41452,0.0921 -0.59531,0.13229 -0.28747,0.0639 -0.45524,0.10765 -0.7276,0.19844 -0.0661,0.022 -0.13608,0.035 -0.19844,0.0662 -0.0279,0.0139 -0.0366,0.0563 -0.0662,0.0661 -0.028,0.009 -0.26458,-0.0301 -0.26458,0.0662 0,0.11873 0.0882,0.22049 0.13229,0.33073"
       id="path10147"
       inkscape:connector-curvature="0" />
  </g>
</svg>
