<?xml version="1.0" encoding="UTF-8" standalone="no"?>
<!-- Created with Inkscape (http://www.inkscape.org/) -->

<svg
   xmlns:dc="http://purl.org/dc/elements/1.1/"
   xmlns:cc="http://creativecommons.org/ns#"
   xmlns:rdf="http://www.w3.org/1999/02/22-rdf-syntax-ns#"
   xmlns:svg="http://www.w3.org/2000/svg"
   xmlns="http://www.w3.org/2000/svg"
   xmlns:sodipodi="http://sodipodi.sourceforge.net/DTD/sodipodi-0.dtd"
   xmlns:inkscape="http://www.inkscape.org/namespaces/inkscape"
   width="1920"
   height="1080"
   viewBox="0 0 508.00002 285.74999"
   version="1.1"
   id="svg8"
   inkscape:version="0.92.4 5da689c313, 2019-01-14"
   sodipodi:docname="dibujo3.svg">
  <defs
     id="defs2" />
  <sodipodi:namedview
     id="base"
     pagecolor="#ffffff"
     bordercolor="#666666"
     borderopacity="1.0"
     inkscape:pageopacity="0.0"
     inkscape:pageshadow="2"
     inkscape:zoom="0.5"
     inkscape:cx="850.15155"
     inkscape:cy="510.8045"
     inkscape:document-units="mm"
     inkscape:current-layer="layer1"
     showgrid="false"
     units="px"
     inkscape:window-width="1366"
     inkscape:window-height="741"
     inkscape:window-x="0"
     inkscape:window-y="27"
     inkscape:window-maximized="0"
     showguides="false" />
  <metadata
     id="metadata5">
    <rdf:RDF>
      <cc:Work
         rdf:about="">
        <dc:format>image/svg+xml</dc:format>
        <dc:type
           rdf:resource="http://purl.org/dc/dcmitype/StillImage" />
        <dc:title />
      </cc:Work>
    </rdf:RDF>
  </metadata>
  <g
     inkscape:label="Capa 1"
     inkscape:groupmode="layer"
     id="layer1"
     transform="translate(0,-11.250015)">
    <path
       style="fill:none;fill-opacity:1;stroke:#000000;stroke-width:4.5999999;stroke-miterlimit:4;stroke-dasharray:none;stroke-opacity:1"
       d="m 156.61994,116.32581 c 1.91042,-0.39789 2.22925,-2.83426 3.74178,-3.74177 0.48315,-0.28989 1.09964,-0.28256 1.60361,-0.53454 1.52461,-0.7623 2.51279,-1.84423 4.27631,-2.13816 0.52727,-0.0879 1.07946,0.10484 1.60362,0 0.60588,-0.12117 2.66112,-1.23953 3.20724,-1.60361 0.20966,-0.13978 0.29548,-0.45486 0.53453,-0.53454 3.75444,-1.25148 -0.90356,1.13691 1.60362,-0.53454 0.33151,-0.22101 0.6911,-0.40855 1.06908,-0.53454 0.33807,-0.11269 0.81709,0.25198 1.06908,0 0.12599,-0.12599 -0.12599,-0.40855 0,-0.53454 0.25198,-0.25198 0.81709,0.25198 1.06908,0 0.12599,-0.12599 -0.17818,-0.53454 0,-0.53454 0.17817,0 0.17817,0.53454 0,0.53454 -0.17818,0 0,-0.71272 0,-0.53454 0,0.83338 -0.19207,2.43899 0,3.20724 0.0966,0.38652 0.4564,0.67839 0.53453,1.06907 0.10484,0.52416 0,1.06908 0,1.60362 0,0.35636 0.0699,0.71964 0,1.06908 -1.465,4.39502 0.18782,-1.12691 -0.53453,3.20723 -0.0926,0.55579 -0.44191,1.04783 -0.53454,1.60362 -0.20523,1.23137 0,4.06953 0,5.34539 0,4.27631 0,8.55263 0,12.82894 0,10.15624 0,20.31248 0,30.46872"
       id="path1054"
       inkscape:connector-curvature="0" />
    <path
       style="fill:none;fill-opacity:1;stroke:#000000;stroke-width:4.5999999;stroke-miterlimit:4;stroke-dasharray:none;stroke-opacity:1"
       d="m 221.29917,102.96234 c -0.8909,0.35636 -1.7818,0.71271 -2.6727,1.06907 -0.71272,0.17819 -1.45028,0.27659 -2.13816,0.53454 -0.7461,0.27979 -1.40574,0.75519 -2.13815,1.06908 -1.39099,0.59614 -2.99439,0.749 -4.27631,1.60362 -0.64889,0.43259 -1.70557,1.48927 -2.13816,2.13815 -0.221,0.33151 -0.31353,0.73758 -0.53454,1.06908 -0.13977,0.20967 -0.45485,0.29549 -0.53454,0.53454 -0.30606,0.9182 0.19482,2.76767 0,3.74177 -0.0781,0.39069 -0.46904,0.67608 -0.53454,1.06908 -0.11717,0.70302 0.1008,1.43261 0,2.13816 -0.0797,0.55779 -0.44191,1.04783 -0.53454,1.60362 -0.21273,1.2764 0,3.46122 0,4.81085 0,0.8909 -0.17472,1.7991 0,2.67269 0.0781,0.39069 0.38657,0.69916 0.53454,1.06908 0.20926,0.52316 0.32528,1.08046 0.53454,1.60362 0.14797,0.36992 0.43791,0.68255 0.53454,1.06908 0.0864,0.34572 -0.15937,0.75034 0,1.06908 0.22538,0.45076 0.7667,0.6659 1.06908,1.06907 1.3131,0.1906 0.22199,1.1348 0.53454,1.60362 0.41933,0.62899 0.97462,1.18429 1.60362,1.60362 0.66301,0.44201 1.3822,0.81709 2.13815,1.06908 0.50711,0.16903 1.08504,-0.12965 1.60362,0 1.26136,0.31534 0.78375,0.87313 2.13815,0.53453 0.38653,-0.0966 0.68256,-0.4379 1.06908,-0.53453 0.34572,-0.0864 0.75034,0.15937 1.06908,0 0.45076,-0.22539 0.6659,-0.7667 1.06908,-1.06908 0.31874,-0.23906 0.78735,-0.25281 1.06908,-0.53454 0.28172,-0.28173 0.29548,-0.75034 0.53454,-1.06908 0.30238,-0.40317 0.76669,-0.6659 1.06907,-1.06908 0.47811,-0.63747 0.62707,-1.47514 1.06908,-2.13815 0.13978,-0.20967 0.45486,-0.29549 0.53454,-0.53454 0.11269,-0.33808 -0.0699,-0.71964 0,-1.06908 0.1105,-0.55251 0.42404,-1.0511 0.53454,-1.60362 0.22258,-1.1129 0,-4.1167 0,-5.34539 0,-0.35636 -0.0699,-0.71964 0,-1.06908 0.1105,-0.55251 0.39788,-1.05698 0.53454,-1.60361 0.14935,-0.59739 0.11009,-4.79493 0,-5.3454 -0.1105,-0.55251 -0.42404,-1.0511 -0.53454,-1.60361 -0.13978,-0.69888 0.13977,-1.43928 0,-2.13816 -0.64723,-3.23615 -0.53454,-0.22147 -0.53454,-2.67269 0,-0.71272 0,-1.42544 0,-2.13816 0,-0.5269 0,-1.59598 0,-1.06908 0,1.7818 0,3.5636 0,5.34539 0,1.06908 -0.17575,2.15271 0,3.20724 0.30541,1.83245 1.36886,3.46736 1.60362,5.34539 0.0884,0.70721 -0.0884,1.43094 0,2.13816 0.0911,0.72898 0.44341,1.40917 0.53454,2.13815 0.0884,0.70721 -0.0787,1.4298 0,2.13816 0.10033,0.90298 0.4342,1.76971 0.53454,2.67269 0.0787,0.70836 -0.0787,1.4298 0,2.13816 0.10033,0.90298 0.4342,1.76971 0.53453,2.67269 0.25399,2.2859 -0.2852,4.66735 0,6.94901 0.0911,0.72898 0.44342,1.40918 0.53455,2.13816 0.1989,1.59123 -0.1771,3.21704 0,4.81085 0.0811,0.73016 0.44341,1.40918 0.53453,2.13815 0.0884,0.70722 -0.0884,1.43095 0,2.13816 -0.0895,1.35951 0.88563,2.45764 1.06908,3.74178 0.1008,0.70555 -0.10079,1.4326 0,2.13815 0.0797,0.55779 0.44191,1.04783 0.53454,1.60362 0.0879,0.52726 0,1.06908 0,1.60362 0.17818,0.53453 0.42404,1.0511 0.53454,1.60361 0.23452,1.17261 0,3.45516 0,4.81085"
       id="path1058"
       inkscape:connector-curvature="0" />
    <path
       style="fill:none;fill-opacity:1;stroke:#000000;stroke-width:4.5999999;stroke-miterlimit:4;stroke-dasharray:none;stroke-opacity:1"
       d="m 271.0113,110.44588 c -0.89091,0.53454 -3.34706,-1.53371 -4.27633,-1.06908 -1.07801,0.53902 -1.73855,0.36848 -2.67268,1.06908 -0.40318,0.30238 -0.6659,0.7667 -1.06908,1.06908 -0.31873,0.23905 -0.75034,0.29549 -1.06908,0.53454 -0.40317,0.30238 -0.6659,0.7667 -1.06908,1.06908 -0.77964,0.58473 -1.54611,0.71555 -2.13815,1.60361 -0.22101,0.33151 -0.31354,0.73758 -0.53454,1.06908 -0.27955,0.41933 -0.8437,0.61832 -1.06908,1.06908 -0.0797,0.15937 0.0564,0.3655 0,0.53454 -0.12599,0.37798 -0.43791,0.68255 -0.53454,1.06908 -0.20913,0.83655 0,3.69054 0,4.81085 0,0.35636 0.11269,0.73101 0,1.06908 -0.12599,0.37798 -0.40854,0.6911 -0.53454,1.06908 -0.0735,0.22064 -0.14595,5.05347 0,5.34539 0.22538,0.45076 0.8437,0.61831 1.06908,1.06908 0.0797,0.15937 -0.0797,0.37516 0,0.53453 0.56445,1.12889 0.50463,-0.0598 1.06908,1.06908 0.0797,0.15937 -0.0797,0.37517 0,0.53454 0.12207,0.24414 1.89402,2.01609 2.13816,2.13816 0.4781,0.23905 1.08503,-0.12965 1.60361,0 0.38653,0.0966 0.6911,0.40854 1.06908,0.53454 0.50711,0.16903 1.08504,-0.12965 1.60361,0 3.02853,1.51426 -0.79683,-0.19921 2.13815,0.53454 0.96751,-0.32219 0.99418,0.86592 1.60364,1.06907 0.33806,0.1127 0.72335,-0.0864 1.06908,0 1.55027,0.38758 0.62555,0.41704 1.60361,1.06908 0.3315,0.22101 0.73758,0.31354 1.06908,0.53454 0.20965,0.13978 0.32488,0.39476 0.53454,0.53454 3.23394,2.15597 -1.0958,-1.08689 2.13815,1.06908 0.62899,0.41933 0.99885,1.15004 1.60361,1.60361 0.31874,0.23906 0.78735,0.25282 1.06908,0.53454 0.28172,0.28173 0.29548,0.75034 0.53453,1.06908 0.45358,0.60476 1.1843,0.97463 1.60364,1.60362 0.22101,0.33151 0.31353,0.73757 0.53454,1.06908 0.65204,0.97806 0.68149,0.0533 1.06908,1.60361 0.0864,0.34573 -0.0864,0.72336 0,1.06908 0.0966,0.38653 0.4564,0.6784 0.53453,1.06908 0.39765,1.98819 -0.36253,3.579 -1.06907,5.34539 -0.65082,1.62706 -1.00717,2.86256 -2.13815,4.27631 -0.62966,0.78707 -1.53342,1.33181 -2.13818,2.13816 -0.23905,0.31874 -0.25281,0.78735 -0.53454,1.06908 -0.28173,0.28173 -0.75033,0.29548 -1.06907,0.53454 -0.60476,0.45357 -0.97462,1.18429 -1.60362,1.60361 -0.98448,0.65633 -2.1921,0.99454 -3.20722,1.60362 -1.255,0.75299 -1.45082,1.11487 -2.67272,1.60362 -1.04629,0.41852 -2.1609,0.65056 -3.20722,1.06908 -1.37413,0.54965 -2.79405,1.35657 -4.27631,1.60361 -0.60578,0.10097 -5.85232,0.11243 -6.41447,0 -0.82185,-0.16437 -2.40947,-1.20473 -3.20724,-1.60361 -0.84929,-0.42465 -2.11619,-0.76888 -2.67269,-1.60362 -0.76191,-1.14286 -1.10277,-2.48965 -1.60362,-3.74177 -0.14797,-0.36993 -0.4379,-0.68256 -0.53454,-1.06908 -0.0935,-0.37389 -0.15286,-4.88681 0,-5.34539 0.25199,-0.75595 0.62707,-1.47514 1.06908,-2.13816 0.32618,-0.48926 2.18343,-2.34652 2.6727,-2.67269 0.3315,-0.22101 0.73757,-0.31354 1.06907,-0.53454 0.77973,-0.51982 1.47367,-1.47367 2.13816,-2.13816 0.35636,-0.35636 0.78953,-0.64975 1.06908,-1.06908 0.221,-0.3315 0.31353,-0.73757 0.53454,-1.06908 0.27955,-0.41932 0.71272,-0.71271 1.06908,-1.06907 0.89089,-0.8909 1.78179,-1.7818 2.67269,-2.6727 l 3.20723,-3.20723 c 0.53454,-0.53454 0.99886,-1.15005 1.60362,-1.60362 0.31874,-0.23905 0.78735,-0.25281 1.06908,-0.53454 0.28173,-0.28173 0.25281,-0.78735 0.53454,-1.06908 0.28173,-0.28172 0.75033,-0.29548 1.06907,-0.53454 0.40317,-0.30238 0.6659,-0.76669 1.06908,-1.06907 0.31874,-0.23906 0.73758,-0.31354 1.06907,-0.53454 0.20968,-0.13978 0.32488,-0.39477 0.53454,-0.53454 0.33152,-0.22101 0.75036,-0.29549 1.0691,-0.53454 0.40317,-0.30238 0.66591,-0.7667 1.06908,-1.06908 0.63746,-0.4781 1.57469,-0.50562 2.13815,-1.06908 1.29828,-1.29829 -0.15896,-0.78493 1.06907,-1.60361 0.3315,-0.22101 0.73758,-0.31354 1.06908,-0.53454 0.35197,-0.23466 4.14665,-4.01701 4.27633,-4.27632 0.0797,-0.15937 -0.0564,-0.3655 0,-0.53453 0.12597,-0.37798 0.43788,-0.68256 0.53453,-1.06908 0.12132,-0.48527 0.05,-2.9075 0,-3.20724 -0.25788,-1.54729 -1.38178,-2.7234 -1.60363,-4.27631 -0.10078,-0.70555 0.11718,-1.43514 0,-2.13816 -0.131,-0.786 -0.8758,-1.3651 -1.06908,-2.13815 -0.0864,-0.34572 0.0864,-0.72336 0,-1.06908 -0.0966,-0.38653 -0.40854,-0.6911 -0.53454,-1.06908 -0.0563,-0.16903 0.0797,-0.37517 0,-0.53454 -0.11268,-0.22538 -0.42185,-0.30915 -0.53454,-0.53454 -0.0797,-0.15936 0.126,-0.40854 0,-0.53454 -0.25198,-0.25198 -0.7127,0 -1.06907,0 -1.47011,0 0.27257,-1.20536 -1.06908,-0.53454 -0.22537,0.1127 -0.30916,0.42185 -0.53453,0.53454 -0.15936,0.0797 -0.3655,-0.0563 -0.53454,0 -0.37799,0.126 -0.69109,0.40855 -1.06908,0.53454 -0.16904,0.0563 -0.37518,-0.0797 -0.53454,0 -1.32106,0.66053 0.1845,0.53454 -1.06907,0.53454"
       id="path1060"
       inkscape:connector-curvature="0"
       sodipodi:nodetypes="cccccccccccscccccccscccccccccccccccccccccsccccccscccccccsscccsscscccccccccccccccccccccsscccccc" />
    <path
       style="fill:none;fill-opacity:1;stroke:#000000;stroke-width:4.5999999;stroke-miterlimit:4;stroke-dasharray:none;stroke-opacity:1"
       d="m 336.22506,140.91461 c -5.10643,-1.32978 -10.31155,-2.26358 -15.50162,-3.20724 -0.85892,-0.15616 -4.86426,-0.76437 -5.87994,-1.06907 -1.83811,-0.55144 -3.50726,-1.58672 -5.3454,-2.13816 -0.87022,-0.26107 -1.81076,-0.24723 -2.67269,-0.53454 -0.75594,-0.25198 -1.40573,-0.75518 -2.13815,-1.06908 -1.54768,-0.66328 -3.24715,-0.97814 -4.81084,-1.60361 -0.73986,-0.29594 -1.36512,-0.87582 -2.13818,-1.06908 -3.54568,0 0.75597,0.25198 -1.60361,-0.53454 -0.33806,-0.11269 -0.73099,0.11269 -1.06908,0 -0.23905,-0.0797 -0.30916,-0.42185 -0.53454,-0.53454 -0.15935,-0.0797 -0.40854,0.12599 -0.53453,0 -0.126,-0.12599 0.12599,-0.40855 0,-0.53454 -0.126,-0.12599 -0.40855,0.12599 -0.53454,0 -0.12724,-0.12724 0.87032,-3.34424 1.06907,-3.74177 0.28732,-0.57461 0.75034,-1.04583 1.06908,-1.60362 0.39534,-0.69185 0.60592,-1.48974 1.06908,-2.13815 0.43939,-0.61515 1.11164,-1.02966 1.60361,-1.60362 1.18197,-1.03323 1.69145,-2.56428 2.67271,-3.74178 0.48395,-0.58073 1.11967,-1.02287 1.60362,-1.60361 0.41126,-0.49354 0.66775,-1.10196 1.06907,-1.60362 0.31483,-0.39353 0.75425,-0.67555 1.06908,-1.06908 0.40132,-0.50166 0.66775,-1.10196 1.06907,-1.60362 0.62966,-0.78706 1.5334,-1.3318 2.13815,-2.13815 1.9417,-2.58892 -0.56586,0.0313 1.06908,-1.60362 0.4337,-0.43368 1.3313,-1.05899 1.60364,-1.60362 0.0797,-0.15936 -0.126,-0.40854 0,-0.53454 0.12597,-0.12599 0.40854,0.126 0.53454,0 0.12599,-0.12599 -0.126,-0.40854 0,-0.53453 0.12599,-0.126 0.35634,0 0.53453,0 0.17817,0 0.40855,-0.126 0.53454,0 0.126,0.12599 -0.0797,0.37517 0,0.53453 0.22537,0.45077 0.90969,0.59098 1.06908,1.06908 0.11268,0.33808 -0.0864,0.72336 0,1.06908 0.0966,0.38653 0.43791,0.68255 0.53453,1.06908 0.20215,0.80854 0,3.89779 0,4.81085 0,2.67269 0,5.34539 0,8.01809 0,2.49451 0,4.98903 0,7.48354 0,1.24726 0.1764,2.50706 0,3.74178 -0.1039,0.72727 -0.43063,1.41088 -0.53453,2.13815 -0.24945,1.74616 0.24945,3.59923 0,5.34539 -0.1039,0.72727 -0.44342,1.40918 -0.53454,2.13816 -0.0884,0.70721 0,1.42544 0,2.13815 0,1.7818 0,3.5636 0,5.3454 0,4.45449 0,8.90898 0,13.36347"
       id="path1062"
       inkscape:connector-curvature="0" />
  </g>
</svg>
