<?xml version="1.0" encoding="UTF-8" standalone="no"?>
<!-- Created with Inkscape (http://www.inkscape.org/) -->

<svg
   xmlns:dc="http://purl.org/dc/elements/1.1/"
   xmlns:cc="http://creativecommons.org/ns#"
   xmlns:rdf="http://www.w3.org/1999/02/22-rdf-syntax-ns#"
   xmlns:svg="http://www.w3.org/2000/svg"
   xmlns="http://www.w3.org/2000/svg"
   xmlns:sodipodi="http://sodipodi.sourceforge.net/DTD/sodipodi-0.dtd"
   xmlns:inkscape="http://www.inkscape.org/namespaces/inkscape"
   width="1920"
   height="1080"
   viewBox="0 0 508.00002 285.74999"
   version="1.1"
   id="svg8"
   inkscape:version="0.92.4 5da689c313, 2019-01-14"
   sodipodi:docname="dibujo26.svg">
  <defs
     id="defs2" />
  <sodipodi:namedview
     id="base"
     pagecolor="#ffffff"
     bordercolor="#666666"
     borderopacity="1.0"
     inkscape:pageopacity="0.0"
     inkscape:pageshadow="2"
     inkscape:zoom="0.5"
     inkscape:cx="1102.9805"
     inkscape:cy="551.80915"
     inkscape:document-units="mm"
     inkscape:current-layer="layer1"
     showgrid="false"
     units="px"
     inkscape:window-width="1366"
     inkscape:window-height="768"
     inkscape:window-x="0"
     inkscape:window-y="0"
     inkscape:window-maximized="0"
     showguides="true" />
  <metadata
     id="metadata5">
    <rdf:RDF>
      <cc:Work
         rdf:about="">
        <dc:format>image/svg+xml</dc:format>
        <dc:type
           rdf:resource="http://purl.org/dc/dcmitype/StillImage" />
        <dc:title></dc:title>
      </cc:Work>
    </rdf:RDF>
  </metadata>
  <g
     inkscape:label="Capa 1"
     inkscape:groupmode="layer"
     id="layer1"
     transform="translate(0,-11.250015)">
    <path
       style="fill:none;fill-opacity:1;stroke:#0e0a08;stroke-width:3;stroke-miterlimit:4;stroke-dasharray:none;stroke-opacity:1"
       d="m 199.49583,84.275014 c 0,0.881944 -0.0628,1.766131 0,2.645833 0.1138,1.59321 0.3908,3.171235 0.52917,4.7625 0.6735,7.745336 1.10259,15.524733 1.5875,23.283333 1.74014,27.84235 -0.44949,-10.01958 0.52916,16.40417 0.0278,0.74971 0.9452,11.15259 1.05834,12.17083 0.13773,1.23963 0.4335,2.46058 0.52916,3.70417 0.0812,1.05521 -0.0879,2.12032 0,3.175 0.0891,1.06922 0.42241,2.10739 0.52917,3.175 0.0702,0.70205 0,1.41111 0,2.11666 0.17639,0.70556 0.42632,1.39671 0.52917,2.11667 0.12472,0.87308 -0.2139,1.79022 0,2.64583 0.68693,2.74774 0.52916,-0.56491 0.52916,2.11667 0,0.17639 0.17639,0.52917 0,0.52917 -0.17639,0 0.0346,-0.35621 0,-0.52917 -0.28525,-1.42629 -0.54761,-2.8714 -1.05833,-4.23333 -0.31962,-0.85233 -2.68499,-5.69665 -3.175,-6.35 -0.59868,-0.79825 -1.41111,-1.41111 -2.11667,-2.11667 -0.70555,-0.70556 -1.33751,-1.49334 -2.11666,-2.11667 -3.41071,-2.72857 -3.36194,-2.21172 -7.9375,-3.175 -4.69095,-0.98756 -7.14945,-1.5875 -12.17084,-1.5875 -2.47573,0 -4.93989,0.33929 -7.40833,0.52917 -2.11774,0.1629 -4.24547,0.24219 -6.35,0.52917 -3.14126,0.42835 -5.99608,1.19366 -8.99583,2.11666 -1.06625,0.32808 -2.17719,0.55943 -3.175,1.05834 -3.92209,1.96104 -7.39257,5.60834 -10.05417,8.99583 -0.93745,1.19312 -1.72068,2.50147 -2.64583,3.70417 -0.83996,1.09195 -1.96233,1.97887 -2.64584,3.175 -0.74771,1.3085 -1.05833,2.82222 -1.5875,4.23333 -1.24635,3.32363 -2.24483,5.38686 -2.64583,8.99583 -0.17531,1.57779 0,3.175 0,4.7625 0,1.76389 -0.10358,3.53083 0,5.29167 0.0732,1.2451 0.4462,2.45967 0.52917,3.70417 0.0939,1.40798 -0.1865,2.8346 0,4.23333 0.16971,1.27286 0.70555,2.46944 1.05833,3.70417 2.02029,7.07101 -0.0678,0.35298 2.64583,7.40833 0.40048,1.04122 0.62927,2.14523 1.05834,3.175 1.6297,3.91128 4.58558,8.50527 7.40833,11.64167 0.83437,0.92707 1.81146,1.71875 2.64583,2.64583 3.3235,3.69278 0.84575,1.76658 4.7625,5.29167 0.83951,0.75555 1.80633,1.36111 2.64584,2.11666 1.66874,1.50187 3.08452,3.27096 4.7625,4.7625 0.84415,0.75036 1.80168,1.36631 2.64583,2.11667 1.72998,1.53776 2.21142,2.58088 4.23333,3.70417 0.83035,0.4613 1.79624,0.63353 2.64584,1.05833 0.91993,0.45996 1.7259,1.12753 2.64583,1.5875 2.67074,1.33537 2.80598,1.03934 5.82083,1.5875 1.76981,0.32178 3.50178,0.87934 5.29167,1.05833 1.57962,0.15796 3.18471,-0.17531 4.7625,0 0.89391,0.0993 1.75192,0.42985 2.64583,0.52917 1.71393,0.19044 3.56275,0 5.29167,0"
       id="path10027"
       inkscape:connector-curvature="0" />
    <path
       style="fill:none;fill-opacity:1;stroke:#0e0a08;stroke-width:3;stroke-miterlimit:4;stroke-dasharray:none;stroke-opacity:1"
       d="m 220.6625,79.512514 c 0.90859,-1.590048 3.74263,-6.662671 4.7625,-7.9375 1.09082,-1.363522 2.46944,-2.469443 3.70416,-3.704166 1.23473,-1.234723 2.31709,-2.64346 3.70417,-3.704167 1.63402,-1.249542 3.50089,-2.162823 5.29167,-3.175 3.64258,-2.058852 8.43844,-4.894405 12.7,-5.820833 2.07552,-0.451202 4.22756,-0.447535 6.35,-0.529167 5.11652,-0.196789 10.32301,-0.11366 15.34583,1.058333 6.20546,1.447941 9.75053,3.448736 15.34583,6.35 2.31204,1.198827 4.72557,2.239714 6.87917,3.704167 2.27841,1.549323 4.1802,3.593563 6.35,5.291667 4.76197,3.726756 6.02798,3.911316 10.05417,7.937499 2.88528,2.885276 3.43082,3.952508 5.29166,7.408334 2.04846,3.804256 3.54082,7.781171 3.175,12.170833 -0.31385,3.766166 -1.49976,5.452436 -4.23333,7.937496 -5.60747,5.09771 -6.89951,5.03217 -14.2875,6.87917 -1.4111,0.35278 -2.79342,0.85263 -4.23333,1.05833 -1.0477,0.14968 -2.11979,-0.0812 -3.175,0 -3.72285,0.28638 -7.38966,1.30113 -11.1125,1.5875 -1.05521,0.0812 -2.12101,-0.0958 -3.175,0 -0.80021,0.0727 -3.84231,0.79543 -4.7625,1.05834 -0.53634,0.15323 -1.04056,0.41977 -1.5875,0.52916 -0.34592,0.0692 -0.71242,-0.0692 -1.05834,0 -1.22081,0.24417 -2.50494,0.99992 -3.175,2.11667 -0.32535,0.54225 -0.95948,3.30879 -1.05833,3.70417 -0.43759,1.75042 -0.92858,3.47522 -1.05833,5.29166 -0.10055,1.40753 0.0671,2.82382 0,4.23334 -0.10938,2.29722 -0.37619,4.58443 -0.52917,6.87916 -0.42304,6.34571 -0.58269,12.70802 -1.05833,19.05 -0.27829,3.71051 -0.79937,7.4006 -1.05834,11.1125 -0.43357,6.21454 -0.48044,14.28075 -1.05833,20.6375 -0.2575,2.83251 -0.76567,5.63758 -1.05833,8.46667 -0.32706,3.16154 -0.84371,11.91927 -1.05834,14.81667 -0.28784,3.88591 -0.81527,7.75269 -1.05833,11.64166 -0.066,1.05627 0.0812,2.11979 0,3.175 -0.0957,1.24359 -0.42559,2.46122 -0.52917,3.70417 -0.18695,2.24345 0,4.62397 0,6.87917"
       id="path10029"
       inkscape:connector-curvature="0" />
    <path
       style="fill:none;fill-opacity:1;stroke:#0e0a08;stroke-width:3;stroke-miterlimit:4;stroke-dasharray:none;stroke-opacity:1"
       d="m 196.85,51.466681 c -1.97587,1.988513 -3.02817,4.711253 -4.7625,6.879167 -0.31167,0.389578 -0.80165,0.630528 -1.05834,1.058333 -0.29606,0.493437 -0.85459,3.053313 -0.52916,3.704167 0.22311,0.446233 0.78159,0.64322 1.05833,1.058333 0.21878,0.328176 0.21363,0.821682 0.52917,1.058333 0.44623,0.334674 1.0696,0.322009 1.5875,0.529167 0.3662,0.146484 0.68415,0.404442 1.05833,0.529167 1.3799,0.459965 2.82222,0.705556 4.23333,1.058333 1.35957,0.339892 3.41891,0.890384 4.7625,1.058333 1.22519,0.153149 2.46945,0 3.70417,0 0.52917,0 1.06861,0.103778 1.5875,0 0.38676,-0.07735 0.70556,-0.352777 1.05833,-0.529166 0.35278,-0.17639 0.73016,-0.310383 1.05834,-0.529167 0.20755,-0.138372 0.32161,-0.390795 0.52916,-0.529167 0.66376,-0.442502 1.7134,-0.780952 2.11667,-1.5875 0.23665,-0.4733 -0.10378,-1.068609 0,-1.5875 0.16113,-0.805645 0.83249,-1.735865 0.52917,-2.645833 -0.0789,-0.236651 -0.45029,-0.292515 -0.52917,-0.529167 -0.11156,-0.334674 0.11156,-0.723659 0,-1.058333 -0.0996,-0.298823 -1.30113,-1.444313 -1.5875,-1.5875 -0.15777,-0.07888 -0.3714,0.07888 -0.52917,0 -0.22311,-0.111559 -0.29251,-0.450284 -0.52916,-0.529167 -0.66935,-0.223115 -1.42482,0.138372 -2.11667,0 -4.47749,-1.492496 0.58642,0.0096 -2.64583,-0.529166 -0.71738,-0.119563 -1.39929,-0.409604 -2.11667,-0.529167 -0.34798,-0.058 -0.71241,0.06919 -1.05833,0 -0.54696,-0.109392 -1.0373,-0.437467 -1.5875,-0.529167 -1.04394,-0.17399 -2.13722,0.207558 -3.175,0 -0.38676,-0.07735 -0.6757,-0.433506 -1.05834,-0.529166 -0.83104,-0.207762 -2.74798,0 -3.70416,0"
       id="path10031"
       inkscape:connector-curvature="0" />
    <path
       style="fill:none;fill-opacity:1;stroke:#0e0a08;stroke-width:3;stroke-miterlimit:4;stroke-dasharray:none;stroke-opacity:1"
       d="m 252.41249,253.07918 c -0.70555,0 -1.48559,-0.31553 -2.11666,0 -0.52437,0.26219 -2.47905,4.37333 -2.64584,4.7625 -0.21972,0.51269 -0.322,1.06961 -0.52916,1.5875 -0.14649,0.36621 -0.46433,0.66928 -0.52917,1.05834 -0.11599,0.69595 0.11599,1.42071 0,2.11666 -0.0648,0.38905 -0.46433,0.66928 -0.52917,1.05834 -0.11928,0.71571 -0.10689,6.66009 0,7.40833 0.0789,0.55218 0.35278,1.05833 0.52917,1.5875 0.17639,0.52916 0.35278,1.05833 0.52917,1.5875 0.17639,0.52916 0.18072,1.15194 0.52916,1.5875 0.3973,0.49662 1.1378,0.60862 1.5875,1.05833 0.44971,0.44971 0.67675,1.07871 1.05834,1.5875 0.44901,0.59867 0.98881,1.13848 1.5875,1.5875 0.31553,0.23664 0.73015,0.31038 1.05833,0.52917 0.20756,0.13838 0.30605,0.41762 0.52917,0.52916 0.16282,0.0814 1.42467,0.0814 1.5875,0 0.22311,-0.11154 0.32161,-0.39078 0.52916,-0.52916 0.32818,-0.21879 0.77944,-0.25027 1.05834,-0.52917 1.51534,-1.51535 2.14845,-3.83132 2.64583,-5.82083 1.29938,-5.1975 -0.14545,1.30908 0.52917,-4.7625 0.0803,-0.72282 0.42631,-1.39671 0.52916,-2.11667 0.1053,-0.7371 0.1528,-3.46937 0,-4.23333 -0.10939,-0.54696 -0.39388,-1.04637 -0.52916,-1.5875 -0.31505,-1.26019 0.78335,0.38128 -0.52917,-1.5875 -0.13837,-0.20756 -0.39079,-0.32161 -0.52917,-0.52917 -0.21878,-0.32817 -0.25027,-0.77944 -0.52916,-1.05833 -0.2789,-0.2789 -0.7428,-0.29252 -1.05834,-0.52917 -0.59868,-0.44901 -0.96483,-1.17239 -1.5875,-1.5875 -0.32817,-0.21878 -0.73015,-0.31038 -1.05833,-0.52916 -0.93975,-0.62651 -1.439,-1.74229 -2.11667,-2.64584 z"
       id="path10033"
       inkscape:connector-curvature="0" />
  </g>
</svg>
