<?xml version="1.0" encoding="UTF-8" standalone="no"?>
<!-- Created with Inkscape (http://www.inkscape.org/) -->

<svg
   xmlns:dc="http://purl.org/dc/elements/1.1/"
   xmlns:cc="http://creativecommons.org/ns#"
   xmlns:rdf="http://www.w3.org/1999/02/22-rdf-syntax-ns#"
   xmlns:svg="http://www.w3.org/2000/svg"
   xmlns="http://www.w3.org/2000/svg"
   xmlns:xlink="http://www.w3.org/1999/xlink"
   xmlns:sodipodi="http://sodipodi.sourceforge.net/DTD/sodipodi-0.dtd"
   xmlns:inkscape="http://www.inkscape.org/namespaces/inkscape"
   width="1920"
   height="1080"
   viewBox="0 0 508.00002 285.74999"
   version="1.1"
   id="svg8"
   inkscape:version="0.92.4 5da689c313, 2019-01-14"
   sodipodi:docname="dibujo4.svg">
  <defs
     id="defs2">
    <linearGradient
       inkscape:collect="always"
       id="linearGradient1460">
      <stop
         style="stop-color:#fff000;stop-opacity:1"
         offset="0"
         id="stop1456" />
      <stop
         style="stop-color:#fdde00;stop-opacity:0"
         offset="1"
         id="stop1458" />
    </linearGradient>
    <radialGradient
       inkscape:collect="always"
       xlink:href="#linearGradient1460"
       id="radialGradient1462"
       cx="368.29999"
       cy="101.20834"
       fx="368.29999"
       fy="101.20834"
       r="57.679165"
       gradientUnits="userSpaceOnUse"
       gradientTransform="translate(0,-14.780005)" />
  </defs>
  <sodipodi:namedview
     id="base"
     pagecolor="#ffffff"
     bordercolor="#666666"
     borderopacity="1.0"
     inkscape:pageopacity="0.0"
     inkscape:pageshadow="2"
     inkscape:zoom="0.25"
     inkscape:cx="559.21934"
     inkscape:cy="806.84346"
     inkscape:document-units="mm"
     inkscape:current-layer="layer1"
     showgrid="false"
     units="px"
     inkscape:window-width="1366"
     inkscape:window-height="741"
     inkscape:window-x="0"
     inkscape:window-y="27"
     inkscape:window-maximized="0"
     showguides="false" />
  <metadata
     id="metadata5">
    <rdf:RDF>
      <cc:Work
         rdf:about="">
        <dc:format>image/svg+xml</dc:format>
        <dc:type
           rdf:resource="http://purl.org/dc/dcmitype/StillImage" />
        <dc:title></dc:title>
      </cc:Work>
    </rdf:RDF>
  </metadata>
  <g
     inkscape:label="Capa 1"
     inkscape:groupmode="layer"
     id="layer1"
     transform="translate(0,-11.250015)">
    <circle
       style="fill:url(#radialGradient1462);fill-opacity:1;stroke:none;stroke-width:3;stroke-miterlimit:4;stroke-dasharray:none;stroke-opacity:1"
       id="path1454"
       cx="368.29999"
       cy="86.428337"
       r="57.679165" />
    <path
       style="fill:#ffffff;fill-opacity:1;stroke:#000000;stroke-width:3;stroke-miterlimit:4;stroke-dasharray:none;stroke-opacity:1"
       d="m 360.3625,69.458348 c -0.61736,0.176389 -1.22428,0.394636 -1.85209,0.529166 -3.27559,0.701916 -0.43677,-0.290981 -4.23333,0.79375 -0.88231,0.252087 -6.28076,2.11795 -6.87917,2.38125 -2.46136,1.082995 -3.25006,1.806292 -5.29166,3.439584 -1.72215,1.377722 -1.41227,1.14768 -2.91042,2.645833 -0.44098,0.440973 -0.96528,0.812019 -1.32292,1.322916 -0.27236,0.389089 -0.36687,0.87657 -0.52916,1.322917 -0.32838,0.903007 -0.79375,2.185101 -0.79375,3.175 0,0.623628 0.17639,1.234723 0.26458,1.852083 0.31004,2.170187 0.13996,1.579346 0.79375,3.704167 0.57205,1.859158 1.33596,3.307075 2.64583,4.7625 0.4172,0.463539 0.80402,0.97699 1.32292,1.322917 0.82045,0.546959 1.73564,0.943668 2.64583,1.322916 3.36754,1.403136 4.91189,1.752918 8.73125,2.116663 2.48439,0.23661 9.67732,0.38056 12.17084,0.26459 1.77077,-0.0824 3.52734,-0.35704 5.29166,-0.529169 2.82641,-0.275747 7.41596,-0.671296 10.31875,-1.058334 1.06352,-0.141803 2.11191,-0.384199 3.175,-0.529166 6.72269,-0.916731 -0.69688,0.405048 4.49792,-0.79375 5.08786,-1.174121 -1.98887,0.755409 3.175,-0.79375 0.3483,-0.10449 0.73308,-0.10196 1.05833,-0.264584 0.39442,-0.19721 0.71956,-0.511447 1.05834,-0.79375 1.4479,-1.206595 1.41628,-2.723896 1.32291,-4.497916 -0.0678,-1.288511 -0.23656,-4.203065 -0.79375,-5.55625 -0.31678,-0.769356 -0.8614,-1.424379 -1.32291,-2.116667 -1.11149,-1.667224 -2.40163,-3.480305 -3.96875,-4.7625 -1.0894,-0.891326 -1.93996,-1.234562 -3.175,-1.852083 -3.99714,-1.99857 1.00988,0.466106 -3.43959,-1.5875 -2.07647,-0.958371 -1.17062,-0.714822 -3.43958,-1.5875 -0.52062,-0.200234 -1.07262,-0.314632 -1.5875,-0.529167 -0.54613,-0.227549 -1.03151,-0.591566 -1.5875,-0.79375 -0.42262,-0.153683 -0.89218,-0.135361 -1.32292,-0.264583 -1.92542,-0.577628 -0.68204,-0.548278 -2.64583,-0.79375 -0.85389,-0.106736 -1.78419,0 -2.64583,0 -0.66802,0 -1.74946,-0.105299 -2.38125,0 -0.27512,0.04585 -0.52028,0.209889 -0.79375,0.264583 -0.43241,0.08648 -0.88795,-0.0725 -1.32292,0 -0.27512,0.04585 -0.52028,0.209889 -0.79375,0.264584 -0.15251,0.0305 -2.01179,0.05244 -2.11667,0 -0.11155,-0.05578 -0.15303,-0.208804 -0.26458,-0.264584 -0.15777,-0.07888 -0.3714,0.07888 -0.52917,0 -0.11155,-0.05578 -0.15303,-0.208804 -0.26458,-0.264583 -0.0789,-0.03944 -0.20222,0.06236 -0.26458,0 -0.0624,-0.06236 0.0624,-0.202221 0,-0.264583 -0.0624,-0.06236 -0.18093,0.02789 -0.26459,0 -0.18708,-0.06236 -0.36507,-0.155192 -0.52916,-0.264584 -0.20757,-0.138372 -0.32161,-0.390795 -0.52917,-0.529166 -0.1641,-0.109392 -0.36507,-0.155192 -0.52917,-0.264584 -0.10377,-0.06919 -0.15303,-0.208804 -0.26458,-0.264583 -0.0789,-0.03944 -0.20222,0.06236 -0.26458,0 -0.35277,-0.352777 0.44098,-0.264583 -0.26459,-0.264583"
       id="path862"
       inkscape:connector-curvature="0" />
    <path
       style="fill:none;fill-opacity:1;stroke:#000000;stroke-width:3;stroke-miterlimit:4;stroke-dasharray:none;stroke-opacity:1"
       d="m 368.3,101.20835 c -1.93665,12.27246 -2.41875,24.70155 -3.70417,37.04166 -0.60979,5.85397 -2.35455,18.32513 -3.175,24.34167 -0.52917,3.88056 -0.85468,7.79437 -1.5875,11.64167 -0.6804,3.57212 -1.96988,7.01036 -2.64583,10.58333 -0.56127,2.96667 -0.57756,6.01506 -1.05834,8.99583 -1.1785,7.30668 -1.56321,7.02961 -3.70416,13.75834 -0.55838,1.75486 -1.09461,3.51729 -1.5875,5.29166 -0.38931,1.40148 -0.54761,2.87141 -1.05834,4.23334 -0.55396,1.47721 -1.49518,2.78322 -2.11666,4.23333 -0.43945,1.02538 -0.59672,2.15941 -1.05834,3.175 -0.42561,0.93632 -1.095,1.7429 -1.5875,2.64583 -1.13321,2.07755 -2.04179,4.27246 -3.175,6.35 -0.98501,1.80586 -2.03396,3.58012 -3.175,5.29167 -0.48921,0.73382 -1.12006,1.36878 -1.5875,2.11667 -0.41809,0.66893 -0.66696,1.43176 -1.05833,2.11666 -0.63106,1.10437 -1.46225,2.08431 -2.11667,3.175 -0.20293,0.33821 -0.31038,0.73016 -0.52916,1.05834 -0.51459,0.77188 -1.45886,1.45885 -2.11667,2.11666"
       id="path866"
       inkscape:connector-curvature="0" />
    <path
       style="fill:none;fill-opacity:1;stroke:#000000;stroke-width:3;stroke-miterlimit:4;stroke-dasharray:none;stroke-opacity:1"
       d="m 359.83333,180.58335 c 1.03328,3.34078 1.87314,6.79951 3.175,10.05416 0.64519,1.61298 1.44253,3.16141 2.11667,4.7625 0.7372,1.75089 1.33707,3.55923 2.11666,5.29167 0.80928,1.79839 1.85952,3.48312 2.64584,5.29167 0.97959,2.25307 1.73339,4.59807 2.64583,6.87916 2.40546,6.01367 4.8949,12.02228 7.40833,17.99167 0.67413,1.60109 1.42036,3.17092 2.11667,4.7625 0.53843,1.23071 0.95062,2.5214 1.5875,3.70417 0.60304,1.11992 1.54784,2.03732 2.11667,3.175 0.49889,0.9978 0.59671,2.15941 1.05833,3.175 0.42561,0.93632 1.12752,1.7259 1.5875,2.64583 3.6622,9.15549 -1.05381,-2.1076 2.11667,4.23333 0.60184,1.20372 0.82142,2.55506 1.5875,3.70417 0.13837,0.20755 0.41761,0.30605 0.52916,0.52917 0.0789,0.15776 -0.12472,0.40444 0,0.52916 0.12473,0.12473 0.35277,0 0.52917,0"
       id="path868"
       inkscape:connector-curvature="0" />
    <path
       style="fill:none;fill-opacity:1;stroke:#000000;stroke-width:3;stroke-miterlimit:4;stroke-dasharray:none;stroke-opacity:1"
       d="m 321.73333,189.05001 c 0,-0.59092 -0.18531,-1.56072 0,-2.11666 0.12472,-0.37418 0.45177,-0.67158 0.52917,-1.05834 0.20756,-1.03778 -0.14968,-2.1273 0,-3.175 0.16499,-1.15503 0.89334,-2.54913 1.05833,-3.70416 0.0998,-0.69847 -0.0875,-1.41656 0,-2.11667 0.18042,-1.44331 0.85262,-2.79341 1.05833,-4.23333 0.0748,-0.52385 -0.087,-1.06554 0,-1.5875 0.18341,-1.10041 0.75187,-2.10235 1.05834,-3.175 0.19978,-0.69929 0.24267,-1.4482 0.52916,-2.11667 0.46578,-1.08677 2.43986,-3.6598 3.175,-4.7625 0.70557,-1.05833 1.48561,-2.07063 2.11667,-3.175 0.39137,-0.6849 0.59984,-1.47477 1.05833,-2.11667 0.43498,-0.60896 1.05834,-1.05833 1.5875,-1.5875 1.05834,-1.05833 2.06754,-2.1682 3.175,-3.175 1.40092,-1.27356 4.98729,-4.44492 6.87917,-5.82083 1.02867,-0.74813 2.14633,-1.36854 3.175,-2.11667 1.2967,-0.94305 4.73593,-3.87486 5.82083,-4.7625 2.60588,-2.13208 5.44669,-4.08563 7.9375,-6.35 1.10747,-1.00679 2.11667,-2.11666 3.175,-3.175 3.15375,1.35161 3.52308,1.16446 5.82084,3.17501 0.75093,0.65706 1.32905,1.50407 2.11667,2.11666 0.81186,0.63145 1.91856,0.86023 2.64583,1.5875 0.72727,0.72727 0.95605,1.83397 1.5875,2.64584 0.61259,0.78762 1.45961,1.36574 2.11667,2.11666 1.85453,2.11947 3.21292,4.5548 4.7625,6.87917 0.21684,0.32526 2.36184,3.04153 2.64583,3.70417 0.28649,0.66846 0.2738,1.4357 0.52917,2.11666 1.23548,3.29464 1.16025,0.91728 1.5875,4.7625 0.17531,1.57779 0,3.175 0,4.7625 0,3.70417 0,7.40834 0,11.1125 0,1.23472 -0.20299,2.48625 0,3.70417 0.0917,0.5502 0.43746,1.0373 0.52916,1.5875 0.087,0.52197 -0.10377,1.06861 0,1.5875 0.0774,0.38676 0.43351,0.67569 0.52917,1.05833 0.94234,3.76936 -1.60153,-2.6809 0.52917,2.64584 0.29296,0.73241 0.62076,1.46031 1.05833,2.11666 0.80726,1.2109 0.41887,-0.33088 1.05833,1.5875 0.52508,1.57524 -1.253,-1.08575 0.52917,1.5875 0.27674,0.41511 0.83522,0.6121 1.05833,1.05834 0.0789,0.15776 -0.12472,0.40444 0,0.52916 0.77862,0 0.40444,-0.12472 1.05834,0.52917"
       id="path870"
       inkscape:connector-curvature="0" />
    <path
       style="fill:none;fill-opacity:1;stroke:#000000;stroke-width:3;stroke-miterlimit:4;stroke-dasharray:none;stroke-opacity:1"
       d="m 354.0125,80.835431 c 0.0122,0.02413 0.43143,1.141756 0.79375,1.322916 0.0789,0.03944 0.18571,-0.03944 0.26458,0 0.11155,0.05578 0.15303,0.208804 0.26458,0.264584 0.0789,0.03944 0.20222,-0.06236 0.26459,0 0.0624,0.06236 -0.0624,0.202221 0,0.264583 0.0624,0.06236 0.20222,-0.06236 0.26458,0 0.0624,0.06236 -0.0624,0.202221 0,0.264583 0.0265,0.02646 0.76729,0.02646 0.79375,0 0.0624,-0.06236 -0.0624,-0.202221 0,-0.264583 0.0624,-0.06236 0.20222,0.06236 0.26458,0 0.35277,-0.352777 -0.44098,-0.264583 0.26459,-0.264583"
       id="path874"
       inkscape:connector-curvature="0" />
    <path
       style="fill:none;fill-opacity:1;stroke:#000000;stroke-width:3;stroke-miterlimit:4;stroke-dasharray:none;stroke-opacity:1"
       d="m 370.94583,80.041681 c 1.12538,0.407368 1.82711,1.297937 2.64583,2.116666 0.1764,0.17639 0.30605,0.417608 0.52917,0.529167 0.0789,0.03944 0.1764,0 0.26458,0"
       id="path876"
       inkscape:connector-curvature="0" />
    <path
       style="fill:#81553f;fill-opacity:1;stroke:#81553f;stroke-width:3;stroke-miterlimit:4;stroke-dasharray:none;stroke-opacity:1"
       d="m 340.78333,83.216681 c -0.13359,1.045789 -0.78671,1.914501 -1.05833,2.910416 -0.14116,0.517562 -0.13447,1.067052 -0.26459,1.5875 -0.13528,0.541137 -0.36512,1.054376 -0.52916,1.5875 -0.18884,0.613672 -0.34034,1.238412 -0.52917,1.852084 -0.32867,1.068154 -0.84045,2.350129 -1.05833,3.439583 -0.26176,1.308706 -0.35277,2.645833 -0.52917,3.96875 -0.3528,2.645926 -0.68083,5.294866 -1.05833,7.937496 -0.25189,1.76324 -0.50097,3.53492 -0.79375,5.29167 -0.0739,0.44359 -0.22387,0.87506 -0.26459,1.32292 -0.0878,0.96615 0,1.94027 0,2.91041 0,2.44104 0.0856,-0.33434 -0.26458,2.11667 -0.0821,0.57471 0,1.26538 0,1.85208 0,0.24881 -0.0903,0.87767 0,1.05834 0.0558,0.11156 0.20881,0.15302 0.26458,0.26458 0.0395,0.0789 0,0.17639 0,0.26458 0.1764,0.17639 0.37949,0.32961 0.52917,0.52917 0.23664,0.31553 0.32623,0.72012 0.52917,1.05833 0.37795,0.62995 0.73046,1.19632 1.05833,1.85209 0.0882,0.17639 0.1764,0.35277 0.26458,0.52916 0,0.17639 -0.0558,0.36183 0,0.52917 0.19688,0.59065 1.28368,0.22787 1.5875,0 0.97512,-0.73134 0.17219,-0.28697 0.79375,-1.32292 0.12835,-0.2139 0.35277,-0.35277 0.52917,-0.52916 0.1764,-0.35278 0.33348,-0.71589 0.52917,-1.05834 0.51792,-0.90637 1.33416,-1.47487 1.85208,-2.38125 0.58616,-1.02576 1.00134,-2.14923 1.5875,-3.175 0.49871,-0.87277 1.04127,-1.12378 1.5875,-1.85208 0.11832,-0.15777 0.20222,-0.34208 0.26458,-0.52917 0.0279,-0.0837 -0.0624,-0.20222 0,-0.26458 0.0624,-0.0624 0.18571,-0.0394 0.26459,0 0.12083,0.0604 0.9979,0.93749 1.05833,1.05833 0.0394,0.0789 -0.0624,0.20222 0,0.26459 0.34716,0.34715 2.32378,-1.53003 2.64583,-1.85209 0.52917,-0.52916 1.10842,-1.01259 1.5875,-1.5875 0.20357,-0.24428 0.30433,-0.56889 0.52917,-0.79375 0.13943,-0.13944 0.37139,-0.14626 0.52917,-0.26458 0.19954,-0.14967 0.3216,-0.39079 0.52916,-0.52917 0.094,-0.0627 0.95393,-0.0522 1.05834,0 0.40523,0.20262 0.2069,0.4715 0.52916,0.79375 0.2789,0.2789 0.74279,0.29252 1.05834,0.52917 0.19954,0.14967 0.32961,0.37949 0.52916,0.52917 0.15777,0.11832 0.36007,0.16312 0.52917,0.26458 0.27268,0.16361 0.50146,0.40391 0.79375,0.52917 0.33422,0.14324 0.71003,0.16009 1.05833,0.26458 0.53428,0.16028 1.0373,0.43747 1.5875,0.52917 0.52197,0.087 1.0599,-0.0406 1.5875,0 0.6218,0.0478 1.23571,0.16975 1.85209,0.26458 3.80526,0.58543 7.66677,1.05658 11.37708,2.11667 0.48186,0.13767 0.89712,0.27369 1.32292,0.52916 0.27267,0.16361 0.50932,0.38696 0.79375,0.52917 0.24944,0.12472 0.5443,0.13986 0.79375,0.26458 0.81081,0.40542 1.55908,1.23515 2.38125,1.5875 0.66846,0.28649 1.4111,0.35278 2.11666,0.52917 0.62545,0.15637 1.77663,0.46199 2.38125,0.52917 0.35063,0.0389 0.70557,0 1.05834,0 0.79375,0 1.5875,0 2.38125,0 0.89831,0 2.32399,0.10637 3.175,0 0.72165,-0.0902 1.3967,-0.42632 2.11666,-0.52917 0.26191,-0.0374 0.53277,0.0435 0.79375,0 0.72861,-0.12144 1.55385,-0.60807 2.11667,-1.05833 2.80712,-2.2457 2.38125,-5.51805 2.38125,-8.73125 0,-1.05834 0.1053,-2.12192 0,-3.175 -0.0895,-0.89495 -0.43969,-1.75089 -0.52917,-2.64584 -0.0439,-0.43878 0.0399,-0.88375 0,-1.32291 -0.0564,-0.62061 -0.39584,-2.24382 -0.52917,-2.91042 -0.10485,-0.52425 -0.34234,-1.820769 -0.52916,-2.381249 -0.62513,-1.875378 -0.28054,-0.755529 -1.05833,-2.116667 -0.29353,-0.513675 -0.48938,-1.080185 -0.79375,-1.5875 -0.1636,-0.272674 -0.38696,-0.509331 -0.52917,-0.79375 -0.12473,-0.249452 -0.13986,-0.544298 -0.26458,-0.79375 -0.18968,-0.379373 -0.81135,-0.68784 -1.05834,-1.058333 -0.10938,-0.164087 -0.1552,-0.36508 -0.26458,-0.529167 -0.30599,-0.458973 -0.91033,-0.484301 -1.32292,-0.79375 -0.19955,-0.149672 -0.32962,-0.379495 -0.52916,-0.529167 -0.46459,-0.348429 -1.10387,-0.47132 -1.5875,-0.79375 -0.10377,-0.06919 -0.14627,-0.225142 -0.26459,-0.264583 -0.16735,-0.05578 -0.35803,0.04278 -0.52916,0 -0.19133,-0.04783 -0.33785,-0.216752 -0.52917,-0.264583 -0.17113,-0.04278 -0.35804,0.04278 -0.52917,0 -0.19132,-0.04783 -0.34208,-0.202221 -0.52916,-0.264584 -0.25102,-0.08367 -0.52917,0 -0.79375,0 -0.0882,0 -0.18572,-0.03944 -0.26459,0 -0.11155,0.05578 -0.15303,0.208804 -0.26458,0.264584 -0.0789,0.03944 -0.18092,-0.02789 -0.26458,0 -0.18709,0.06236 -0.33785,0.216752 -0.52917,0.264583 -0.2994,0.07485 -2.59292,0.05292 -2.91042,0 -0.27511,-0.04585 -0.52027,-0.209889 -0.79375,-0.264583 -0.17296,-0.03459 -0.35803,0.04278 -0.52916,0 -0.19133,-0.04783 -0.35277,-0.17639 -0.52917,-0.264584 -0.89345,-0.446722 -0.79375,-0.607819 -0.79375,-1.5875 0,-0.79375 0,-1.5875 0,-2.38125 0,-0.264583 0,-0.529166 0,-0.79375 0,-0.08819 0.0882,-0.264583 0,-0.264583 -0.12473,0 -0.15304,0.208804 -0.26458,0.264583 -0.24945,0.124725 -0.56169,0.109879 -0.79375,0.264584 -1.30035,0.866899 -0.34677,0.611338 -1.32292,1.5875 -0.22484,0.224853 -0.55232,0.322223 -0.79375,0.529166 -0.37881,0.324681 -0.70557,0.705557 -1.05833,1.058334 -0.52917,0.529166 -1.10842,1.012597 -1.5875,1.5875 -0.20358,0.244287 -0.33052,0.545441 -0.52917,0.79375 -0.45477,0.568468 -1.07238,1.072369 -1.5875,1.5875 -0.21466,0.214661 -0.52417,0.658963 -0.79375,0.79375 -0.0789,0.03944 -0.1764,0 -0.26458,0 -0.0882,0 -0.18572,0.03944 -0.26459,0 -0.11155,-0.05578 -0.16081,-0.195398 -0.26458,-0.264584 -0.1641,-0.109392 -0.36507,-0.155191 -0.52917,-0.264583 -0.31133,-0.207555 -0.4944,-0.569243 -0.79375,-0.79375 -0.55224,-0.414184 -1.99572,-0.928314 -2.64583,-1.058333 -0.17296,-0.03459 -0.35277,0 -0.52917,0 -0.26458,0 -0.5343,-0.05189 -0.79375,0 -0.19338,0.03868 -0.34607,0.191341 -0.52916,0.264583 -0.25895,0.103579 -0.52028,0.209889 -0.79375,0.264583 -0.17296,0.03459 -0.35804,-0.04278 -0.52917,0 -0.19132,0.04783 -0.34608,0.191342 -0.52917,0.264584 -0.53784,0.215135 -0.85754,0.218919 -1.32291,0.529166 -0.10377,0.06919 -0.15304,0.208804 -0.26459,0.264584 -0.0789,0.03944 -0.18571,-0.03944 -0.26458,0 -0.11155,0.05578 -0.15304,0.208804 -0.26458,0.264583 -0.47038,0.235185 -0.14701,-0.146992 -0.26459,-0.264583 -0.0624,-0.06236 -0.18571,0.03944 -0.26458,0 -0.11155,-0.05578 -0.15304,-0.208804 -0.26458,-0.264584 -0.18402,-0.092 -1.65114,0.02871 -1.85209,0 -0.82714,-0.11816 -1.0982,-0.313772 -1.85208,-0.529166 -2.51616,-0.718905 0.38759,0.09316 -2.11667,-0.264584 -0.27609,-0.03944 -0.51863,-0.218733 -0.79375,-0.264583 -0.26098,-0.0435 -0.53276,0.0435 -0.79375,0 -0.27511,-0.04585 -0.51863,-0.218734 -0.79375,-0.264583 -0.26098,-0.0435 -0.5343,0.05189 -0.79375,0 -0.38677,-0.07735 -0.67569,-0.433507 -1.05833,-0.529167 -0.17113,-0.04278 -0.35804,0.04278 -0.52917,0 -0.76734,-0.191839 -0.30964,-0.206423 -0.79375,-0.529167 -0.32816,-0.218784 -0.73017,-0.310382 -1.05833,-0.529166 -0.50882,-0.339209 -0.8141,-0.983708 -1.32292,-1.322917 -0.32816,-0.218784 -0.73017,-0.310383 -1.05833,-0.529167 -0.10377,-0.06919 -0.16081,-0.195397 -0.26458,-0.264583 -0.32817,-0.218784 -0.73017,-0.310383 -1.05834,-0.529167 -0.20756,-0.138371 -0.30604,-0.417607 -0.52916,-0.529166 -0.0789,-0.03944 -0.18572,0.03944 -0.26459,0 -0.11155,-0.05578 -0.15303,-0.208804 -0.26458,-0.264584 -0.0789,-0.03944 -0.18571,0.03944 -0.26458,0 -0.11155,-0.05578 -0.15304,-0.208803 -0.26459,-0.264583 -0.0789,-0.03944 -0.20222,0.06236 -0.26458,0 -0.31181,-0.311814 -0.52917,-0.705556 -0.79375,-1.058333 z"
       id="path878"
       inkscape:connector-curvature="0" />
    <path
       style="fill:none;fill-opacity:1;stroke:#81553f;stroke-width:3;stroke-miterlimit:4;stroke-dasharray:none;stroke-opacity:1"
       d="m 357.71666,69.458348 c -1.32291,-0.617361 -2.59889,-1.347396 -3.96875,-1.852084 -0.72302,-0.266377 -1.43655,0.189013 -2.11666,0.264584 -0.43829,0.0487 -0.88464,-0.0487 -1.32292,0 -0.36142,0.04015 -0.70337,0.1857 -1.05833,0.264583 -0.439,0.09755 -0.89218,0.135361 -1.32292,0.264583 -0.45493,0.136475 -0.87236,0.378976 -1.32292,0.529167 -0.34496,0.114991 -0.71784,0.136903 -1.05833,0.264583 -0.74848,0.280681 -2.2883,1.069073 -2.91042,1.5875 -0.32999,0.274998 -2.17786,2.076191 -2.38125,2.38125 -0.1547,0.232056 -0.13986,0.544298 -0.26458,0.79375 -0.3951,0.790221 -1.0917,1.637541 -1.5875,2.38125 -0.52917,0.79375 -1.05833,1.5875 -1.5875,2.38125 -0.3106,0.465889 -0.59037,0.814427 -0.79375,1.322917 -0.20717,0.517895 -0.35277,1.058333 -0.52917,1.5875 -0.1764,0.529166 -0.45029,1.035314 -0.52916,1.5875 -0.0499,0.349231 0.0438,0.708279 0,1.058333 -0.0902,0.721654 -0.44887,1.393844 -0.52917,2.116667 -0.0487,0.438274 0.0439,0.884131 0,1.322916 -0.0447,0.447474 -0.1764,0.881944 -0.26458,1.322917 -0.26432,1.321588 -0.50139,2.653117 -0.79375,3.96875 -0.25419,1.143836 -0.47173,2.312464 -0.79375,3.439583 -0.15325,0.536329 -0.43747,1.037299 -0.52917,1.5875 -0.0435,0.260983 0.0642,0.537067 0,0.79375 -0.0302,0.121002 -0.1954,0.160806 -0.26458,0.264584 -0.10938,0.164086 -0.21675,0.337846 -0.26459,0.529166 -0.0428,0.171122 0.0558,0.361829 0,0.529163 -0.0395,0.11833 -0.20881,0.15303 -0.26458,0.26459 -0.0789,0.15776 0.0789,0.3714 0,0.52916 -0.0558,0.11156 -0.20881,0.15303 -0.26458,0.26459 -0.14018,0.28037 0.0999,0.75854 0,1.05833 -0.74952,1.49905 0.0986,-0.39442 -0.26459,1.05833 -0.0478,0.19132 -0.2259,0.33579 -0.26458,0.52917 -0.10094,0.50469 0,1.8133 0,2.38125 0,1.41111 0,2.82222 0,4.23333 0,0.61736 0,1.23473 0,1.85209 0,0.0882 0,0.17639 0,0.26458 0,0.0882 0.0882,0.26458 0,0.26458 -0.32076,0 0.0659,-0.33044 0.26458,-0.52916 0.39129,-0.3913 0.13788,-0.40245 0.52917,-0.79375 0.1764,-0.17639 0.41762,-0.30605 0.52917,-0.52917 0.0394,-0.0789 -0.0279,-0.18091 0,-0.26458 0.0624,-0.18709 0.20222,-0.34208 0.26458,-0.52917 0.0279,-0.0837 -0.0624,-0.20222 0,-0.26458 0.0624,-0.0624 0.20222,0.0624 0.26458,0 0.12473,-0.12473 0,-0.35278 0,-0.52917"
       id="path880"
       inkscape:connector-curvature="0" />
    <path
       style="fill:none;fill-opacity:1;stroke:#81553f;stroke-width:3;stroke-miterlimit:4;stroke-dasharray:none;stroke-opacity:1"
       d="m 360.3625,69.458348 c 1.67568,0 3.35311,0.07609 5.02708,0 0.2786,-0.01267 0.52559,-0.187966 0.79375,-0.264584 0.69929,-0.199797 1.4111,-0.352777 2.11667,-0.529166 0.56337,-0.140846 1.8534,-0.481182 2.38125,-0.529167 0.52699,-0.04791 1.06015,0.04395 1.5875,0 0.99684,-0.0039 1.92841,-0.439894 2.91041,-0.529167 0.527,-0.04791 1.05834,0 1.5875,0 0.44098,0 0.88376,-0.03992 1.32292,0 0.53427,0.04857 1.0537,0.211204 1.5875,0.264584 1.40626,0.140626 0.84214,-0.248449 2.38125,0.264583 1.0382,0.34607 1.97257,1.051586 2.91042,1.5875 0.34245,0.195686 0.71588,0.333481 1.05833,0.529167 0.6378,0.364453 1.82589,1.124693 2.38125,1.5875 2.60069,2.167249 -0.75832,-0.493747 1.32292,1.5875 0.22484,0.224853 0.5689,0.304313 0.79375,0.529166 0.44971,0.449705 0.65119,1.098929 1.05833,1.5875 0.23955,0.287451 0.55419,0.506299 0.79375,0.79375 0.40714,0.488572 0.70556,1.058334 1.05833,1.5875 0.52364,0.785471 1.11927,1.561833 1.5875,2.38125 1.00288,1.755024 0.15767,0.367909 0.79375,1.852083 0.68533,1.599094 0.29914,0.523489 1.05834,1.852084 0.19568,0.34245 0.33348,0.715883 0.52916,1.058333 0.59756,1.045739 1.48148,1.894134 2.11667,2.910417 0.20905,0.334465 0.35277,0.705556 0.52916,1.058333 0.35277,0.705556 0.74761,1.391613 1.05834,2.116667 0.10985,0.256344 0.15473,0.537405 0.26458,0.79375 0.15536,0.362526 0.3738,0.695806 0.52917,1.058333 0.10985,0.256344 0.13986,0.544298 0.26458,0.79375 0.14222,0.284419 0.38695,0.509331 0.52917,0.79375 0.23415,0.468336 0.69016,1.863355 0.79375,2.38125 0.0346,0.172963 -0.0428,0.358045 0,0.529167 0.0478,0.19132 0.20222,0.342077 0.26458,0.529166 0.0558,0.167339 -0.0789,0.371401 0,0.529167 0.32695,0.653891 0.26458,-0.09133 0.26458,0.529167"
       id="path882"
       inkscape:connector-curvature="0" />
  </g>
</svg>
