<?xml version="1.0" encoding="UTF-8" standalone="no"?>
<!-- Created with Inkscape (http://www.inkscape.org/) -->

<svg
   xmlns:dc="http://purl.org/dc/elements/1.1/"
   xmlns:cc="http://creativecommons.org/ns#"
   xmlns:rdf="http://www.w3.org/1999/02/22-rdf-syntax-ns#"
   xmlns:svg="http://www.w3.org/2000/svg"
   xmlns="http://www.w3.org/2000/svg"
   xmlns:sodipodi="http://sodipodi.sourceforge.net/DTD/sodipodi-0.dtd"
   xmlns:inkscape="http://www.inkscape.org/namespaces/inkscape"
   width="1920"
   height="1080"
   viewBox="0 0 508.00002 285.74999"
   version="1.1"
   id="svg8"
   inkscape:version="0.92.4 5da689c313, 2019-01-14"
   sodipodi:docname="dibujo25.svg">
  <defs
     id="defs2" />
  <sodipodi:namedview
     id="base"
     pagecolor="#ffffff"
     bordercolor="#666666"
     borderopacity="1.0"
     inkscape:pageopacity="0.0"
     inkscape:pageshadow="2"
     inkscape:zoom="0.70710678"
     inkscape:cx="972.09016"
     inkscape:cy="738.72031"
     inkscape:document-units="mm"
     inkscape:current-layer="layer1"
     showgrid="false"
     units="px"
     inkscape:window-width="1366"
     inkscape:window-height="768"
     inkscape:window-x="0"
     inkscape:window-y="0"
     inkscape:window-maximized="0"
     showguides="true" />
  <metadata
     id="metadata5">
    <rdf:RDF>
      <cc:Work
         rdf:about="">
        <dc:format>image/svg+xml</dc:format>
        <dc:type
           rdf:resource="http://purl.org/dc/dcmitype/StillImage" />
        <dc:title></dc:title>
      </cc:Work>
    </rdf:RDF>
  </metadata>
  <g
     inkscape:label="Capa 1"
     inkscape:groupmode="layer"
     id="layer1"
     transform="translate(0,-11.250015)">
    <path
       style="fill:none;fill-opacity:1;stroke:#0e0a08;stroke-width:3;stroke-miterlimit:4;stroke-dasharray:none;stroke-opacity:1"
       d="m 55.378246,93.447541 c 0,0.997808 0,1.995615 0,2.993419 0,1.247259 0.103579,2.498826 0,3.74177 -0.160491,1.92589 -1.148667,7.64036 -1.496711,9.72861 -0.249452,1.49671 -0.622345,2.97802 -0.748353,4.49013 -0.124295,1.49154 0.124294,2.99859 0,4.49013 -0.25202,3.02423 -1.221959,5.95801 -1.49671,8.98026 -0.283263,3.11589 0.439396,6.65284 0,9.72861 -0.111559,0.7809 -0.61867,1.46696 -0.748356,2.24506 -0.264324,1.58595 0,3.60746 0,5.23848 0,0.503 -0.220824,1.80342 0,2.24507 0.939078,1.87815 4.018412,0.20334 5.238483,0 0.738174,-0.12303 1.496711,0 2.245066,0 3.242868,0 6.485739,0 9.72861,0 1.496708,0 2.999566,-0.13551 4.490127,0 1.266735,0.11516 2.476127,0.62179 3.741775,0.74835 1.241068,0.12411 2.500704,-0.1241 3.741772,0 1.265647,0.12657 2.476127,0.62179 3.741774,0.74836 2.233922,0.22339 4.490128,0 6.735191,0 1.094468,0 5.637898,0.27432 6.735194,0 0.541136,-0.13529 0.967541,-0.57197 1.496708,-0.74836 0.236651,-0.0789 0.511704,0.0789 0.748355,0 0.546889,-0.18229 1.902569,-0.81172 2.245069,-1.49671 0.11155,-0.22311 -0.11156,-0.52523 0,-0.74835 0.15776,-0.31554 0.63679,-0.41368 0.74835,-0.74836 0.39442,-1.18325 -0.17639,-2.50705 0,-3.74177 0.14545,-1.01818 0.63477,-1.97119 0.74835,-2.99342 0.13774,-1.23963 0,-2.49451 0,-3.74177 0,-1.99561 0.14219,-3.9963 0,-5.98684 -0.1081,-1.5135 -0.63198,-2.97724 -0.74835,-4.49013 -0.13393,-1.74101 0.12441,-3.49675 0,-5.23848 -1.03058,-14.42808 -0.74835,4.68716 -0.74835,-11.22532 0,-3.24287 0.2693,-6.49694 0,-9.728609 -0.10563,-1.267566 -0.62179,-2.476129 -0.74836,-3.741774 -0.12411,-1.241068 0.13774,-2.502144 0,-3.741775 -0.46498,-4.184843 -0.78718,-1.690846 -1.496709,-5.238482 -0.09784,-0.489215 0,-0.997805 0,-1.496709 -0.249451,-0.498903 -0.571965,-0.967541 -0.748355,-1.496708 -0.157766,-0.473302 0.352777,-1.143934 0,-1.496711 -0.17639,-0.176389 -0.525238,0.111559 -0.748355,0 -0.315535,-0.157765 -0.395576,-0.748355 -0.748353,-0.748355 -0.557792,0 -0.955575,0.613071 -1.496711,0.748355 -0.484008,0.121002 -1.012701,-0.121002 -1.496708,0 -1.120106,0.280027 -2.937005,1.84268 -3.741775,2.245064 -0.705554,0.352779 -1.539507,0.395578 -2.245063,0.748355 -0.804458,0.402228 -1.418376,1.142416 -2.245064,1.496709 -0.945354,0.405153 -2.004478,0.465801 -2.993419,0.748355 -2.680354,0.765815 -5.451808,1.897552 -8.231902,2.245064 -10.580828,1.322604 4.593992,-1.322602 -5.986835,0 -1.020575,0.127571 -1.975242,0.6029 -2.993419,0.748355 -1.728613,0.246944 -3.492323,0 -5.238483,0 -2.743967,0 -5.487935,0 -8.231902,0"
       id="path9868"
       inkscape:connector-curvature="0" />
    <path
       style="fill:none;fill-opacity:1;stroke:#0e0a08;stroke-width:3;stroke-miterlimit:4;stroke-dasharray:none;stroke-opacity:1"
       d="m 47.8947,158.5544 c 0,4.73958 0,9.47916 0,14.21874 0,1.49671 0.124293,2.99859 0,4.49012 -0.126011,1.51212 -0.622348,2.97802 -0.748356,4.49013 -0.207158,2.4859 0.275474,5.00429 0,7.48355 -0.140464,1.26418 -0.621789,2.47613 -0.748355,3.74177 -0.124106,1.24107 0.137737,2.50215 0,3.74178 -0.11358,1.02222 -0.620784,1.97284 -0.748356,2.99341 -0.123761,0.99011 0.141113,2.00565 0,2.99342 -0.111556,0.78091 -0.618669,1.46697 -0.748352,2.24507 -0.307372,1.84422 0,4.73406 0,6.73519 0,0.70946 -0.310748,2.37192 0,2.99342 0.766543,1.53309 3.195661,0.48946 4.490127,0.74835 0.773517,0.15471 1.48658,0.53165 2.245064,0.74836 5.513218,1.5752 0.37656,0.11249 6.735193,0.74835 1.265645,0.12657 2.494516,0.49891 3.741772,0.74836 9.720207,1.94404 -2.361967,-0.70859 7.483546,2.24506 1.218317,0.36549 2.494516,0.4989 3.741775,0.74835 3.750691,0.75014 7.494481,1.41599 11.225318,2.24507 1.241671,0.27593 2.500106,0.47243 3.741775,0.74835 1.004022,0.22312 1.975241,0.6029 2.993419,0.74836 0.740833,0.10583 1.50423,-0.10583 2.245063,0 1.018178,0.14545 1.975242,0.6029 2.993419,0.74835 1.234723,0.17639 2.531756,-0.3025 3.741768,0 0.54114,0.13529 0.95558,0.61307 1.49672,0.74836 1.03097,0.25774 2.64268,0 3.74177,0 0.24945,0 0.57196,0.17639 0.74835,0 0.17639,-0.17639 -0.11156,-0.52524 0,-0.74836 1.14108,-2.28215 0.59327,1.3687 1.49671,-2.24506 0.30251,-1.21002 0,-2.49452 0,-3.74177 0,-2.44506 -0.26932,-5.05969 0,-7.48355 0.14047,-1.26418 0.60789,-2.4776 0.74836,-3.74177 0.22038,-1.98341 -0.24753,-4.00664 0,-5.98684 0.12757,-1.02057 0.62078,-1.97285 0.74835,-2.99342 0.16604,-1.32828 0.18738,-6.92028 0,-8.2319 -0.22311,-1.56182 -1.23734,-2.93393 -1.49671,-4.49013 -0.12303,-0.73817 0,-1.49671 0,-2.24506 -0.24945,-0.74836 -0.59365,-1.47155 -0.74835,-2.24507 -0.0978,-0.48921 0.121,-1.0127 0,-1.49671 -0.27057,-1.08227 -1.22614,-1.91114 -1.49671,-2.99342 -0.12101,-0.484 0,-0.9978 0,-1.4967 -0.24945,-0.49891 -0.57197,-0.96755 -0.74836,-1.49671 -0.21037,-0.63113 0.29549,-1.65409 0,-2.24507 -0.15776,-0.31553 -0.59059,-0.43282 -0.74835,-0.74835 -0.11156,-0.22312 0.11156,-0.52524 0,-0.74836 -0.15777,-0.31553 -0.59059,-0.43282 -0.74836,-0.74835 -0.66237,-1.32475 1.11313,-0.25572 -0.74835,-1.49671 -0.46411,-0.30941 -1.0326,-0.43895 -1.49671,-0.74836 -0.29353,-0.19568 -0.45483,-0.55266 -0.74836,-0.74835 -0.464104,-0.30941 -1.050471,-0.41368 -1.496704,-0.74836 -0.564444,-0.42333 -0.891701,-1.1337 -1.496708,-1.4967 -1.243912,-0.74635 -8.319244,-2.81725 -9.728613,-2.99342 -0.9901,-0.12376 -2.003316,0.12376 -2.993419,0 -1.020572,-0.12757 -1.995612,-0.49891 -2.993416,-0.74836 -1.247259,-0.24945 -2.477596,-0.60789 -3.741775,-0.74835 -0.991703,-0.11019 -1.995612,0 -2.993419,0 -0.997805,-0.24945 -1.972844,-0.62079 -2.993419,-0.74836 -1.9802,-0.24752 -3.991224,0 -5.986835,0 -3.741775,0 -7.483547,0 -11.225321,0 -1.247259,0 -2.507052,0.17639 -3.741775,0 -1.018177,-0.14545 -1.995612,-0.4989 -2.993416,-0.74835 z"
       id="path9872"
       inkscape:connector-curvature="0" />
    <path
       style="fill:none;fill-opacity:1;stroke:#0e0a08;stroke-width:3;stroke-miterlimit:4;stroke-dasharray:none;stroke-opacity:1"
       d="m 115.99497,167.53465 c -0.24945,0.87308 -0.4989,1.74616 -0.74835,2.61924 -0.24945,0.62364 -0.55083,1.22893 -0.74836,1.87089 -0.30247,0.98303 -0.4989,1.99561 -0.74835,2.99342 -0.24945,0.99781 -0.57927,1.9789 -0.74835,2.99342 -0.10226,0.61351 -0.71022,7.43816 -0.74836,7.85772 -0.52097,5.73073 -0.37418,2.73831 -0.37418,8.98026 0,1.12253 -0.07,2.24725 0,3.3676 0.055,0.88022 0.31551,1.73924 0.37418,2.61924 0.12445,1.86674 -0.13329,3.74652 0,5.61266 0.48001,6.72015 0.37418,-1.11382 0.37418,4.8643 0,1.24726 -0.13774,2.50215 0,3.74178 0.49518,4.45661 0.37418,-1.41952 0.37418,2.99341 0,1.49671 0,2.99342 0,4.49013 0,0.24945 0,0.49891 0,0.74836 0,0.12472 -0.0882,0.28598 0,0.37417 0.0882,0.0882 0.28598,-0.0882 0.37417,0 0.0882,0.0882 -0.0882,0.28599 0,0.37418 0.2789,0.2789 0.73578,-0.29683 1.12253,-0.37418 0.36692,-0.0734 0.75212,0.0529 1.12254,0 0.50909,-0.0727 0.99243,-0.27332 1.4967,-0.37417 1.48789,-0.29758 2.97802,-0.62235 4.49013,-0.74836 0.74577,-0.0622 1.49892,0.0574 2.24507,0 1.75869,-0.13528 3.47907,-0.62268 5.23848,-0.74835 6.95259,0 -1.34823,0.14353 4.86431,-0.37418 1.49153,-0.1243 2.99858,0.1243 4.49012,0 0.75606,-0.063 1.4895,-0.30549 2.24507,-0.37418 1.70952,-0.15541 3.86565,0 5.61266,0 1.74616,0 3.49232,0 5.23848,0 0.42053,0 3.07084,0.14838 3.36759,0 0.15777,-0.0789 0.21642,-0.29529 0.37418,-0.37418 0.22312,-0.11155 0.57197,0.17639 0.74836,0 0.0882,-0.0882 -0.0558,-0.26261 0,-0.37417 0.0789,-0.15777 0.29529,-0.21641 0.37418,-0.37418 0.17639,-0.35278 0.24945,-0.74835 0.37417,-1.12253 0.54253,-1.62758 0.78551,-3.17916 1.12253,-4.86431 0.34654,-1.73268 0.94616,-3.47466 1.12254,-5.23848 0.062,-0.62053 -0.0621,-1.25035 0,-1.87089 0.12656,-1.26564 0.60789,-2.47759 0.74835,-3.74177 0.0551,-0.49585 -0.0551,-1.00086 0,-1.49671 0.50522,-4.54696 0.19552,0.50224 0.74836,-3.36759 0.0882,-0.61736 -0.15126,-1.26588 0,-1.87089 0.0676,-0.27057 0.30653,-0.47779 0.37417,-0.74836 0.12888,-0.51548 0,-1.32134 0,-1.87088"
       id="path9876"
       inkscape:connector-curvature="0" />
    <path
       style="fill:none;fill-opacity:1;stroke:#0e0a08;stroke-width:3;stroke-miterlimit:4;stroke-dasharray:none;stroke-opacity:1"
       d="m 159.39954,100.18273 c 0,-3.367593 0,-6.735189 0,-10.102784 0,-0.244213 -0.10452,-3.906909 0,-4.115951 0.0789,-0.157766 0.29528,-0.216411 0.37418,-0.374176 0.11156,-0.223118 -0.11156,-0.525241 0,-0.748356 0.46238,-0.924742 0.37418,0.129159 0.37418,-0.748355 0,-0.877512 -0.0882,0.17639 0.37418,-0.748353 0.11156,-0.223118 -0.11156,-0.52524 0,-0.748355 0.0789,-0.157769 0.29527,-0.216411 0.37417,-0.374177 0.11042,-0.220826 0,-0.871037 0,-1.122534 0,-0.249449 0.17639,-0.571966 0,-0.748353 -0.2925,-0.292505 -0.65095,0.325466 -0.74835,0.374176 -0.11156,0.05578 -0.26262,-0.05578 -0.37418,0 -0.15776,0.07888 -0.21641,0.295297 -0.37418,0.374177 -0.11155,0.05578 -0.25585,-0.03944 -0.37417,0 -0.52917,0.176389 -0.95558,0.613071 -1.49671,0.748355 -0.24201,0.0605 -0.50635,-0.0605 -0.74836,0 -1.07406,0.268518 -2.6677,1.60237 -3.74177,1.870887 -0.242,0.0605 -0.5117,-0.07888 -0.74836,0 -0.16733,0.05578 -0.20684,0.318397 -0.37417,0.374177 -0.38452,0.128172 -2.48734,0 -2.99342,0 -2.36979,0 -4.73958,0 -7.10937,0 -3.93254,0 0.96801,0.121002 -2.99342,-0.374177 -0.9901,-0.123761 -2.00172,0.110189 -2.99342,0 -0.63209,-0.07023 -1.23806,-0.310896 -1.87088,-0.374176 -1.24107,-0.124108 -2.50071,0.124105 -3.74178,0 -0.63282,-0.06328 -1.23806,-0.310899 -1.87089,-0.374179 -0.62053,-0.06205 -1.24725,0 -1.87088,0 -0.74836,0 -1.51124,-0.146764 -2.24507,0 -5.13625,1.02725 2.50659,0.748355 -3.36759,0.748355 -1.74616,0 -3.49232,0 -5.23848,0 -0.24929,0 -1.41531,-0.0814 -1.49671,0 -0.17297,0.172969 0.11296,0.896615 0,1.122532 -0.0789,0.157769 -0.29528,0.216411 -0.37418,0.374177 -0.16734,0.334674 0.0734,0.75562 0,1.122531 -0.0773,0.38676 -0.29688,0.735775 -0.37418,1.122535 -0.1223,0.611518 0.10253,1.255741 0,1.870884 -0.0648,0.389052 -0.24945,0.748356 -0.37417,1.122532 -0.12473,0.249452 -0.32828,0.473255 -0.37418,0.748356 -0.082,0.492114 0.0705,1.002821 0,1.496711 -0.11156,0.780904 -0.61867,1.466961 -0.74836,2.245063 -0.13643,0.818563 0.20198,1.811322 0,2.61924 -0.0676,0.270568 -0.28597,0.483772 -0.37417,0.748356 -0.0839,0.2516 -0.0611,3.932512 0,4.115952 0.0882,0.26458 0.31947,0.47487 0.37417,0.74835 0.0734,0.36691 0,0.74836 0,1.12254 0,0.9978 -0.11019,2.00171 0,2.99341 0.0702,0.63209 0.31658,1.23752 0.37418,1.87089 0.0677,0.74528 -0.0574,1.49891 0,2.24506 0.13528,1.7587 0.63102,3.4785 0.74836,5.23849 0.0664,0.99559 -0.0622,1.99755 0,2.99341 0.0627,1.00362 0.31147,1.98981 0.37417,2.99342 0.1167,1.86725 0,3.74178 0,5.61266 0,6.61047 0,13.22094 0,19.8314 0.4989,-0.87308 0.92005,-1.79544 1.49671,-2.61924 0.83162,-1.18802 2.66953,-2.44852 3.74178,-3.36759 0.93747,-0.80355 1.74616,-1.74616 2.61924,-2.61924 1.4821,-1.48211 2.91311,-3.11024 4.49013,-4.49013 0.46932,-0.41066 1.02738,-0.71187 1.49671,-1.12253 1.58942,-1.39075 2.9007,-3.09938 4.49012,-4.49013 0.93866,-0.82133 2.04643,-1.43336 2.99342,-2.24507 0.80355,-0.68875 1.43203,-1.56753 2.24507,-2.24506 0.34547,-0.28789 0.80454,-0.43037 1.12253,-0.74836 0.31799,-0.31798 0.43036,-0.80454 0.74835,-1.12253 0.63598,-0.63598 1.55412,-0.92092 2.24507,-1.49671 0.40651,-0.33876 0.71601,-0.78376 1.12253,-1.12253 0.34547,-0.28789 0.77706,-0.46046 1.12253,-0.74835 0.40652,-0.33877 0.71602,-0.78377 1.12253,-1.12254 0.34548,-0.28789 0.77706,-0.46046 1.12253,-0.74835 0.67753,-0.56461 1.24726,-1.24726 1.87089,-1.87089 0.74836,-0.74835 1.56754,-1.43203 2.24507,-2.24506 0.28789,-0.34547 0.46742,-0.77137 0.74835,-1.12253 0.44076,-0.55095 0.94576,-1.05596 1.49671,-1.49671 0.35116,-0.28093 0.77137,-0.46743 1.12253,-0.74836 0.55095,-0.44075 1.07338,-0.93226 1.49671,-1.49671 0.16734,-0.22311 0.17697,-0.55114 0.37418,-0.74835 1.91219,-1.91219 -0.52188,1.56892 1.49671,-1.12253 0.49275,-0.65701 0.66654,-1.56109 1.12253,-2.24507 0.0978,-0.14676 0.24945,-0.24945 0.37418,-0.37417 0.12472,-0.24946 0.21947,-0.5163 0.37417,-0.74836 0.19569,-0.29353 0.55267,-0.45482 0.74836,-0.74835 0.1547,-0.23206 0.17697,-0.55115 0.37418,-0.74836 0.0882,-0.0882 0.28598,0.0882 0.37417,0 0.0882,-0.0882 -0.0558,-0.26262 0,-0.37418 0.15777,-0.31553 0.49891,-0.4989 0.74836,-0.74835"
       id="path9878"
       inkscape:connector-curvature="0" />
    <path
       style="fill:none;fill-opacity:1;stroke:#0e0a08;stroke-width:3;stroke-miterlimit:4;stroke-dasharray:none;stroke-opacity:1"
       d="m 115.99497,167.53465 c 2.8144,0.4628 4.05698,3.21011 6.36102,4.49013 0.58714,0.32619 1.27013,0.44798 1.87088,0.74836 6.55934,3.27966 -2.27268,-0.88843 3.3676,2.24506 0.58714,0.32619 1.28374,0.42216 1.87089,0.74836 6.73938,3.7441 -3.74597,-1.49905 2.99342,2.24506 0.58714,0.32619 1.27012,0.44797 1.87088,0.74835 1.30098,0.65049 2.47028,1.53868 3.74177,2.24507 1.46061,0.81144 3.03951,1.41614 4.49013,2.24506 0.39046,0.22312 0.72031,0.54724 1.12254,0.74836 0.35277,0.17639 0.76975,0.19778 1.12253,0.37417 4.49327,2.24664 -1.60942,-0.59147 1.87089,1.49671 0.3382,0.20293 0.75632,0.2277 1.12253,0.37418 0.25895,0.10358 0.4989,0.24945 0.74835,0.37418 0.24945,0.12472 0.5163,0.21947 0.74836,0.37417 0.14676,0.0978 0.20684,0.3184 0.37417,0.37418 0.23665,0.0789 0.51171,-0.0789 0.74836,0 0.33467,0.11156 0.43282,0.59059 0.74835,0.74836 0.22312,0.11156 0.52524,-0.11156 0.74836,0 0.15776,0.0789 0.21641,0.29529 0.37417,0.37418 0.22312,0.11155 0.52524,-0.11156 0.74836,0 0.15777,0.0789 0.21641,0.29529 0.37418,0.37417 0.11156,0.0558 0.25585,-0.0394 0.37417,0 0.26459,0.0882 0.47779,0.30654 0.74836,0.37418 0.242,0.0605 0.50635,-0.0605 0.74835,0 0.94152,0.23538 2.0362,1.17763 2.99342,1.49671 0.11833,0.0394 0.26262,-0.0558 0.37418,0 0.31553,0.15776 0.43282,0.59059 0.74835,0.74835 0.22312,0.11156 0.57197,-0.17639 0.74836,0 0.0882,0.0882 -0.0882,0.28599 0,0.37418 0.17639,0.17639 0.57196,-0.17639 0.74835,0 0.0999,0.0999 0,1.68854 0,1.87089"
       id="path9880"
       inkscape:connector-curvature="0" />
    <path
       style="fill:none;fill-opacity:1;stroke:#0e0a08;stroke-width:3;stroke-miterlimit:4;stroke-dasharray:none;stroke-opacity:1"
       d="m 159.27916,136.13335 c -0.96368,-0.26353 -1.90825,-0.89131 -2.91041,-1.05834 -0.26098,-0.0435 -0.53277,0.0435 -0.79375,0 -0.58578,-0.0976 -1.26631,-0.43153 -1.85209,-0.52916 -0.43497,-0.0725 -0.88194,0 -1.32291,0 -0.70556,0 -1.41111,0 -2.11667,0 -1.05833,0 -2.11667,0 -3.175,0 -0.17639,0 -0.3714,0.0789 -0.52917,0 -0.11155,-0.0558 -0.26458,-0.38931 -0.26458,-0.26459 0,0.0133 0.78313,1.3123 0.79375,1.32292 0.2789,0.27889 0.77944,0.25027 1.05833,0.52917 0.13945,0.13945 0.1552,0.36508 0.26459,0.52916 0.13837,0.20756 0.32161,0.3908 0.52916,0.52917 0.13325,0.58292 0.5443,0.13986 0.79375,0.26458 0.28223,0.14111 0.24695,0.38806 0.52917,0.52917 0.0789,0.0394 0.1857,-0.0394 0.26458,0 0.25797,0.12898 0.93846,0.8985 1.05834,1.05833 0.11832,0.15777 0.14626,0.3714 0.26458,0.52917 0.22451,0.29934 0.5862,0.48241 0.79375,0.79375 0.10939,0.16409 0.15519,0.36508 0.26458,0.52917 0.13838,0.20755 0.41761,0.30605 0.52917,0.52916 0.0394,0.0789 -0.0394,0.1857 0,0.26459 0.0558,0.11156 0.20881,0.15302 0.26458,0.26458 0.0148,0.0295 0.0148,1.29338 0,1.32292 -0.0558,0.11156 -0.2088,0.15302 -0.26458,0.26458 -0.12395,0.24791 0.0609,1.01866 0,1.32292 -0.0547,0.27348 -0.20989,0.52027 -0.26458,0.79375 -0.20756,1.03778 0.25944,0.0257 0,1.32291 -0.0387,0.19338 -0.21675,0.33785 -0.26459,0.52917 -0.0856,0.34224 0.0856,0.71609 0,1.05833 -0.0478,0.19132 -0.21675,0.33785 -0.26458,0.52917 -0.0856,0.34224 0.0856,0.71609 0,1.05833 -0.0478,0.19132 -0.21675,0.33785 -0.26458,0.52917 -0.0677,0.27089 -0.0457,2.68175 0,2.91042 0.0547,0.27348 0.21873,0.51865 0.26458,0.79375 0.0435,0.26098 -0.0374,0.53182 0,0.79375 0.11816,0.82713 0.31377,1.0982 0.52917,1.85208 0.36665,1.28328 0.6526,2.53111 1.32291,3.70417 0.94075,1.64629 0.0294,0.0294 1.32292,1.32291 1.37519,1.37519 -0.25081,0.2756 1.05833,1.32292 0.97522,0.78017 0.49856,0.29913 1.32292,0.79375 0.27268,0.1636 0.50933,0.38696 0.79375,0.52917 0.46834,0.23417 1.86336,0.69017 2.38125,0.79375 0.58878,0.11775 2.11079,0 2.64583,0 0.41251,0 1.20724,0.0951 1.5875,0 0.38264,-0.0957 0.69213,-0.38269 1.05834,-0.52917 0.88229,-0.35291 1.76459,-0.70584 2.64583,-1.05833 0.7755,-0.3102 1.60575,-0.48355 2.38125,-0.79375 0.61691,-0.24677 0.57077,-0.40381 1.32292,-0.52917 2.49068,-0.41511 -1.29537,0.63469 1.85208,-0.26458 0.53633,-0.15324 1.03532,-0.45029 1.5875,-0.52917 0.34923,-0.0499 0.71036,0.058 1.05833,0 0.19453,-0.0324 0.33579,-0.22591 0.52917,-0.26458 0.25945,-0.0519 0.52917,0 0.79375,0 0.97014,0 1.94028,0 2.91042,0 0.52916,0 1.06553,-0.087 1.5875,0 0.2751,0.0458 0.52027,0.20989 0.79375,0.26458 0.42401,0.0848 0.8989,-0.0848 1.32291,0 0.2534,0.0507 1.37068,0.63113 1.5875,0.79375 1.12889,0.84667 -0.0705,0.21167 1.05834,1.05833 0.77264,0.57948 0.36397,-0.13207 1.05833,0.79375 0.42977,0.57303 0.0573,0.61647 0.79375,1.05834 0.23915,0.14349 0.5546,0.12109 0.79375,0.26458 0.2139,0.12834 0.32961,0.37949 0.52917,0.52917 0.15776,0.11832 0.35277,0.17639 0.52916,0.26458 0.26459,0.17639 0.54545,0.33052 0.79375,0.52917 0.19479,0.15583 0.33438,0.37333 0.52917,0.52916 0.24831,0.19865 0.5689,0.30432 0.79375,0.52917 0.22485,0.22485 0.30431,0.5689 0.52917,0.79375 0.53782,0.53783 1.7446,1.07818 2.38125,1.5875 0.19479,0.15583 0.31526,0.40082 0.52916,0.52917 0.23916,0.14349 0.53481,0.161 0.79375,0.26458 0.36621,0.14648 0.73016,0.31038 1.05834,0.52917 0.10378,0.0692 0.15302,0.2088 0.26458,0.26458 0.0789,0.0394 0.17639,0 0.26458,0 0.17639,0 0.35278,0 0.52917,0 0.0882,0 0.21167,0.0706 0.26458,0 0.99899,-1.33198 0.41414,-2.51928 0,-3.96875 -0.17639,-0.61736 -0.36373,-1.2317 -0.52916,-1.85208 -0.61449,-2.30433 -0.39153,-1.80163 -1.05834,-3.96875 -0.32807,-1.06625 -0.78776,-2.09273 -1.05833,-3.175 -0.13011,-0.52045 -0.11043,-1.07366 -0.26458,-1.5875 -0.11334,-0.37779 -0.3738,-0.69581 -0.52917,-1.05834 -0.28829,-0.67267 -0.26458,-1.14588 -0.26458,-1.85208 0,-0.17639 -0.0789,-0.3714 0,-0.52917 0.33755,-0.6751 2.02148,-0.0981 2.38125,0 1.71941,0.46893 3.15586,1.38638 4.7625,2.11667 0.43237,0.19653 0.89054,0.33263 1.32291,0.52917 0.89767,0.40802 1.76389,0.88194 2.64584,1.32291 0.57369,0.28685 1.20323,0.66398 1.85208,0.79375 0.17296,0.0346 0.36183,-0.0558 0.52917,0 0.11832,0.0394 0.26458,0.38931 0.26458,0.26459 0,-2.0043 -1.39638,-3.42668 -2.38125,-5.02709 -0.64214,-1.04348 -1.25706,-2.10395 -1.85208,-3.175 -1.11896,-2.01412 0.0505,-0.18887 -1.05834,-1.85208 -0.31444,-0.47166 -0.79375,-0.98736 -0.79375,-1.5875 0,-0.0882 -0.0624,-0.20222 0,-0.26458 0.13945,-0.13945 0.34208,-0.20222 0.52917,-0.26459 1.53939,-0.51313 0.57727,-0.19242 2.11667,0 0.35005,0.0438 0.70828,-0.0437 1.05833,0 0.72165,0.0902 1.39501,0.43896 2.11667,0.52917 0.35005,0.0438 0.7091,-0.0499 1.05833,0 0.27609,0.0394 0.52027,0.20989 0.79375,0.26458 0.18691,0.0374 1.42329,0.0547 1.5875,0 0.11832,-0.0394 0.17639,-0.17639 0.26458,-0.26458 0.0882,-0.0882 0.22515,-0.14626 0.26459,-0.26458 0.18575,-0.55727 -0.43466,-1.56855 -0.52917,-1.85209 -0.11499,-0.34497 -0.14959,-0.71336 -0.26458,-1.05833 -0.30038,-0.90114 -0.67255,-1.77782 -1.05834,-2.64583 -0.31292,-0.70409 -0.64554,-1.11104 -0.79375,-1.85209 -0.0692,-0.34592 0,-0.70555 0,-1.05833 0,-0.26458 -0.18709,-0.60666 0,-0.79375 0.42696,-0.42696 1.40215,-0.20031 1.85209,-0.26458 0.27609,-0.0394 0.51765,-0.22515 0.79375,-0.26459 1.29767,-0.18538 0.84421,0.10553 2.11666,0.26459 2.76459,0 -0.40476,-0.11156 1.85209,0.26458 0.26098,0.0435 0.5343,-0.0519 0.79375,0 0.27348,0.0547 0.59654,0.46179 0.79375,0.26458 0.0624,-0.0624 0.0214,-0.17902 0,-0.26458 -0.31299,-1.25195 -1.23648,-2.03022 -2.11667,-2.91042 -0.70556,-0.70555 -1.36574,-1.4596 -2.11667,-2.11666 -0.66373,-0.58077 -1.44704,-1.01354 -2.11666,-1.5875 -0.2841,-0.24352 -0.5063,-0.55421 -0.79375,-0.79375 -0.24429,-0.20358 -0.54947,-0.3256 -0.79375,-0.52917 -0.28745,-0.23954 -0.5063,-0.55421 -0.79375,-0.79375 -0.71428,-0.59523 -1.60713,-1.07141 -2.38125,-1.5875 -0.52917,-0.35278 -1.01866,-0.77391 -1.5875,-1.05833 -0.24945,-0.12473 -0.53741,-0.15472 -0.79375,-0.26459 -0.36253,-0.15537 -0.69581,-0.37379 -1.05834,-0.52916 -0.51269,-0.21973 -1.08859,-0.27972 -1.5875,-0.52917 -0.28442,-0.14221 -0.50933,-0.38696 -0.79375,-0.52917 -0.24945,-0.12472 -0.5348,-0.161 -0.79375,-0.26458 -0.1831,-0.0732 -0.34207,-0.20222 -0.52916,-0.26458 -0.23813,-0.0794 -0.55563,0.0794 -0.79375,0 -0.11833,-0.0394 -0.15303,-0.20881 -0.26459,-0.26459 -0.15776,-0.0789 -0.40444,0.12473 -0.52916,0 -0.0624,-0.0624 0.0624,-0.20222 0,-0.26458 -0.0624,-0.0624 -0.1857,0.0394 -0.26459,0 -0.11155,-0.0558 -0.17639,-0.17639 -0.26458,-0.26458 -0.17639,-0.0882 -0.34606,-0.19134 -0.52917,-0.26459 -0.75991,-0.30396 -1.59422,-0.56888 -2.38125,-0.79375 -0.35277,-0.0882 -0.70555,-0.17639 -1.05833,-0.26458 -0.17639,0 -0.3562,0.0346 -0.52917,0 -0.27347,-0.0547 -0.51865,-0.21873 -0.79375,-0.26458 -0.26098,-0.0435 -0.5343,0.0519 -0.79375,0 -0.19337,-0.0387 -0.34207,-0.20222 -0.52916,-0.26459 -0.39688,-0.13229 -0.92604,0.1323 -1.32292,0 -0.11832,-0.0394 -0.15302,-0.2088 -0.26458,-0.26458 -0.14706,-0.0735 -0.8996,-0.0529 -1.05834,0 -0.18709,0.0624 -0.34207,0.20222 -0.52916,0.26458 -0.25101,0.0837 -0.53707,-0.0642 -0.79375,0 -0.19132,0.0478 -0.33785,0.21676 -0.52917,0.26459 -0.23685,0.0592 -2.16526,0.072 -2.38125,0 -0.11832,-0.0394 -0.15302,-0.20881 -0.26458,-0.26459 -0.0789,-0.0394 -0.18092,0.0279 -0.26459,0 -0.18709,-0.0624 -0.34207,-0.20222 -0.52916,-0.26458 -0.0837,-0.0279 -0.1857,0.0394 -0.26459,0 -0.47253,-0.23626 -0.85038,-1.08665 -1.32291,-1.32292 -0.15777,-0.0789 -0.35278,0 -0.52917,0 -0.35278,0 -0.71609,-0.0856 -1.05833,0 -0.34733,0.0868 -1.27993,0.58871 -1.5875,0.79375 -0.10378,0.0692 -0.14626,0.22515 -0.26459,0.26459 -0.16733,0.0558 -0.35804,-0.0428 -0.52916,0 -1.27766,0.31941 0.0131,0.12573 -0.79375,0.52916 -0.0789,0.0395 -0.17639,0 -0.26459,0 -0.17639,0.0882 -0.36508,0.15519 -0.52916,0.26459 -0.29188,0.19458 -0.48118,0.63746 -0.79375,0.79375 -0.0789,0.0394 -0.1857,-0.0394 -0.26459,0 -0.22311,0.11156 -0.30605,0.4176 -0.52916,0.52916 -0.0789,0.0394 -0.20222,-0.0624 -0.26459,0 -0.0624,0.0624 0.0624,0.20222 0,0.26459 -0.0624,0.0624 -0.20222,-0.0624 -0.26458,0 -0.0624,0.0624 0.0624,0.20222 0,0.26458 -0.20196,0.20196 -0.46717,-0.22325 -0.52917,-0.26458 -0.16408,-0.1094 -0.3714,-0.14626 -0.52916,-0.26459 -0.39912,-0.29934 -0.74667,-0.66875 -1.05834,-1.05833 -0.19864,-0.24831 -0.33052,-0.54544 -0.52916,-0.79375 -0.31167,-0.38958 -0.74667,-0.66876 -1.05834,-1.05833 -0.19864,-0.24831 -0.36556,-0.52108 -0.52916,-0.79375 -0.10146,-0.16911 -0.12514,-0.38972 -0.26459,-0.52917 -0.13944,-0.13945 -0.3714,-0.14626 -0.52916,-0.26458 -0.19956,-0.14968 -0.35278,-0.35278 -0.52917,-0.52917 -0.31186,-0.31186 -1.04301,-1.18296 -1.32292,-1.32292 -0.0789,-0.0394 -0.17639,0 -0.26458,0 -0.17639,-0.0882 -0.35278,-0.17639 -0.52917,-0.26458 -1.91838,-0.95919 0.41835,0.27889 -0.79375,-0.52917 -0.46537,-0.31024 -0.78507,-0.31403 -1.32291,-0.52916 -0.36621,-0.14649 -0.68416,-0.40445 -1.05834,-0.52917 -0.0837,-0.0279 -0.18091,0.0279 -0.26458,0 -0.18709,-0.0624 -0.34208,-0.20222 -0.52917,-0.26458 -0.23525,-0.0784 -1.27874,0.22041 -0.79375,-0.26459 0.20564,-0.20563 0.17796,0.26694 0.52917,0.79375 0.20353,0.30529 0.59023,0.48846 0.79375,0.79375 0.10939,0.16409 0.15519,0.36508 0.26458,0.52917 0.20353,0.30529 0.59023,0.48846 0.79375,0.79375 0.1094,0.16409 0.1552,0.36508 0.26459,0.52917 0.13837,0.20755 0.39079,0.32161 0.52916,0.52916 0.4249,0.63734 0.71542,1.43083 1.05834,2.11667 0.21675,0.4335 0.68073,1.13543 0.79375,1.5875 0.0428,0.17112 -0.0428,0.35805 0,0.52917 0.0478,0.19132 0.20222,0.34207 0.26458,0.52916 0.0279,0.0837 -0.0394,0.1857 0,0.26459 0.32695,0.65389 0.26458,-0.0913 0.26458,0.52916 0,0.70556 -0.0882,-0.0882 0.26459,0.26459 0.0624,0.0624 0,0.17639 0,0.26458 0,0.0882 0.0624,0.20222 0,0.26458 -0.0624,0.0624 -0.20222,-0.0624 -0.26459,0 -0.12472,0.12473 0.12473,0.40445 0,0.52917 -0.0624,0.0624 -0.20222,-0.0624 -0.26458,0 -0.27889,0.27889 -0.31038,0.73016 -0.52917,1.05833 -0.0692,0.10378 -0.19539,0.16081 -0.26458,0.26459 -0.10939,0.16408 -0.14626,0.3714 -0.26458,0.52916 -0.14967,0.19957 -0.3795,0.32961 -0.52917,0.52917 -0.11832,0.15777 -0.12513,0.38972 -0.26458,0.52917 -0.13945,0.13945 -0.38972,0.12513 -0.52917,0.26458 -0.13945,0.13945 -0.1005,0.41977 -0.26458,0.52917 -0.14677,0.0978 -0.3824,-0.0978 -0.52917,0 -0.77445,0.5163 -0.0542,0.37299 -0.26458,0.79375 -0.0558,0.11156 -0.17639,0.17639 -0.26459,0.26458 -0.21466,0.21466 -0.52417,0.65896 -0.79375,0.79375 -0.0789,0.0394 -0.1857,-0.0394 -0.26458,0 -1.10113,0.55057 0.28285,-0.0183 -0.26458,0.52917 -0.54744,0.54743 0.0214,-0.83655 -0.52917,0.26458 -0.0394,0.0789 0.0394,0.1857 0,0.26458 -0.2392,0.4784 -1.61288,1.37369 -1.85208,1.85209 -0.0394,0.0789 0.0624,0.20222 0,0.26458 -0.0624,0.0624 -0.1857,-0.0394 -0.26459,0 -0.11155,0.0558 -0.2088,0.15302 -0.26458,0.26458 -0.0394,0.0789 0.0624,0.20222 0,0.26459 -0.0624,0.0624 -0.26458,0.0882 -0.26458,0 0,-0.0882 0.26458,-0.0882 0.26458,0 0,0.12472 -0.2088,0.15302 -0.26458,0.26458 -0.0789,0.15777 0.12472,0.40444 0,0.52917 -0.31182,0.31181 -0.70556,0.52916 -1.05834,0.79375 z"
       id="path9882"
       inkscape:connector-curvature="0" />
    <path
       style="fill:none;fill-opacity:1;stroke:#0e0a08;stroke-width:3;stroke-miterlimit:4;stroke-dasharray:none;stroke-opacity:1"
       d="m 162.98333,148.56876 c 0.44097,0.26459 0.88194,0.52917 1.32292,0.79375 0.0882,0 0.18091,-0.0279 0.26458,0 0.1101,0.0367 0.55465,0.38414 0.79375,0.26459 0.11156,-0.0558 0.15303,-0.20881 0.26458,-0.26459 0.15777,-0.0789 0.37141,0.0789 0.52917,0 0.22312,-0.11156 0.35278,-0.35277 0.52917,-0.52916 0.85158,-0.85159 0.79375,-0.99815 0.79375,-2.11667 0,-0.25083 0.10986,-0.8386 0,-1.05833 -0.20164,-0.40328 -0.72646,-0.5725 -1.05834,-0.79375 -0.10377,-0.0692 -0.14625,-0.22515 -0.26458,-0.26459 -0.16734,-0.0558 -0.36183,-0.0558 -0.52917,0 -0.19124,0.0637 -0.87535,0.87536 -1.05833,1.05834 -0.17639,0.17639 -0.45028,0.29251 -0.52917,0.52916 -0.0955,0.28663 0,1.68151 0,2.11667 0,0.17639 -0.12472,0.40444 0,0.52917 0.37463,0.37462 0.23391,-0.20322 0.26459,-0.26459 0.27278,-0.54555 0.26458,0.0185 0.26458,-0.79375"
       id="path9884"
       inkscape:connector-curvature="0" />
    <path
       style="fill:none;fill-opacity:1;stroke:#0e0a08;stroke-width:3;stroke-miterlimit:4;stroke-dasharray:none;stroke-opacity:1"
       d="m 175.94791,131.63543 c -0.20147,0.51012 -1.29935,0.74662 -1.5875,1.32292 -0.0394,0.0789 0,0.17639 0,0.26458 0,0.2383 -0.0839,1.15508 0,1.32292 0.13479,0.26958 0.57909,0.57909 0.79375,0.79375 0.27618,0.27617 1.03382,1.17836 1.32292,1.32292 0.0789,0.0394 0.1857,-0.0394 0.26458,0 0.0689,0.0344 0.32234,0.47141 0.52917,0.26458 0.0624,-0.0624 -0.0624,-0.20222 0,-0.26458 0.0624,-0.0624 0.20222,0.0624 0.26458,0 0.13945,-0.13945 0.1552,-0.36508 0.26459,-0.52917 0.13837,-0.20755 0.45028,-0.29252 0.52916,-0.52917 0.0839,-0.25182 0,-1.05654 0,-1.32291 0,-0.29284 0.0921,-1.93252 0,-2.11667 -0.87751,-0.87751 0.12473,0.24945 -0.26458,-0.52917 -0.0558,-0.11156 -0.2088,-0.15302 -0.26458,-0.26458 -0.0394,-0.0789 0.0624,-0.20222 0,-0.26458 -0.12473,-0.12473 -0.35278,0 -0.52917,0 -0.0882,0 -0.20222,0.0624 -0.26458,0 -0.0624,-0.0624 0.0789,-0.30403 0,-0.26459 -0.39442,0.19721 -0.70556,0.52917 -1.05834,0.79375 z"
       id="path9886"
       inkscape:connector-curvature="0" />
    <path
       style="fill:none;fill-opacity:1;stroke:#0e0a08;stroke-width:3;stroke-miterlimit:4;stroke-dasharray:none;stroke-opacity:1"
       d="m 169.12815,100.55691 c -0.13455,-1.858633 0.16869,-3.757124 0,-5.612658 -0.0687,-0.755562 -0.30549,-1.489503 -0.37417,-2.245063 -0.0565,-0.62107 0.062,-1.250355 0,-1.870888 -0.12657,-1.265647 -0.49891,-2.494515 -0.74836,-3.741774 -0.24945,-1.247257 -0.38286,-2.523458 -0.74835,-3.741772 -0.19301,-0.643342 -0.53596,-1.233686 -0.74836,-1.870887 -0.41219,-1.23657 -0.63493,-2.522765 -1.12253,-3.741775 -0.20716,-0.517895 -0.43895,-1.0326 -0.74835,-1.496708 -0.0978,-0.146764 -0.2953,-0.216411 -0.37418,-0.374179 -0.55057,-1.101132 0.86681,0.492636 -0.37418,-0.748353"
       id="path9890"
       inkscape:connector-curvature="0" />
    <path
       style="fill:none;fill-opacity:1;stroke:#0e0a08;stroke-width:3;stroke-miterlimit:4;stroke-dasharray:none;stroke-opacity:1"
       d="m 177.36006,105.42122 c 0.19476,-1.36337 0.30729,-2.79277 0.74835,-4.11595 0.2124,-0.6372 0.55535,-1.22755 0.74835,-1.870891 0.3655,-1.218316 0.47243,-2.500103 0.74836,-3.741774 0.11156,-0.50201 0.31739,-0.985597 0.37418,-1.496708 0.11019,-0.991704 0,-1.995612 0,-2.993419 0,-0.87308 0.14353,-1.75804 0,-2.61924 -0.10739,-0.64434 -0.82782,-2.778176 -1.12254,-3.367598 -0.20111,-0.402228 -0.54724,-0.720302 -0.74835,-1.122532 -0.17639,-0.352777 -0.17125,-0.78432 -0.37418,-1.122532 -0.46076,-0.767935 -2.01881,-1.818672 -2.61924,-2.61924 -0.16734,-0.223118 -0.24945,-0.498904 -0.37418,-0.748356 -0.24945,-0.374176 -0.46742,-0.771371 -0.74835,-1.122531 -2.69145,-3.364312 0.94742,1.321601 -1.49671,-1.122532 -0.56343,-0.563433 -0.18492,-0.559102 -0.74836,-1.122532"
       id="path9892"
       inkscape:connector-curvature="0" />
    <path
       style="fill:none;fill-opacity:1;stroke:#0e0a08;stroke-width:3;stroke-miterlimit:4;stroke-dasharray:none;stroke-opacity:1"
       d="m 166.50891,180.63086 c 0.99926,1.52713 2.85465,3.26748 3.74178,4.86431 0.32619,0.58714 0.47556,1.2571 0.74835,1.87088 0.22654,0.50972 0.5412,0.97882 0.74835,1.49671 0.66457,1.66142 1.29653,4.18515 1.49672,5.98684 0.0551,0.49585 -0.0551,1.00086 0,1.49671 0.0702,0.63209 0.29529,1.23982 0.37417,1.87089 0.0879,0.7034 0.0903,3.48385 0,4.11595 -0.0558,0.39045 -0.29682,0.73577 -0.37417,1.12253 -0.0489,0.24461 0.0605,0.50635 0,0.74835 -0.0677,0.27057 -0.30654,0.47779 -0.37418,0.74836 -0.0969,0.38761 0,1.06765 0,1.49671"
       id="path9894"
       inkscape:connector-curvature="0" />
    <path
       style="fill:none;fill-opacity:1;stroke:#0e0a08;stroke-width:3;stroke-miterlimit:4;stroke-dasharray:none;stroke-opacity:1"
       d="m 176.98588,183.2501 c 0.90963,1.78699 2.84878,2.70414 3.74177,4.49013 0.17639,0.35278 0.21881,0.76001 0.37418,1.12253 0.61281,1.4299 0.95007,1.44124 1.12253,2.99342 0.15999,1.43994 0,3.3763 0,4.86431 0,0.87308 0,1.74616 0,2.61924 0,0.37417 0.0615,0.75344 0,1.12253 -0.12968,0.7781 -0.61867,1.46696 -0.74835,2.24506 0,2.85447 0.16733,-0.29517 -0.37418,1.87089 -0.24274,0.97095 0.37526,0.74727 -0.37418,1.49671"
       id="path9896"
       inkscape:connector-curvature="0" />
    <path
       style="fill:none;fill-opacity:1;stroke:#0e0a08;stroke-width:3;stroke-miterlimit:4;stroke-dasharray:none;stroke-opacity:1"
       d="m 223.38387,170.52807 c 2.72368,0.68092 0.26775,-0.005 3.36759,1.12254 0.74135,0.26957 1.51265,0.45538 2.24507,0.74835 5.88173,2.35269 -3.57804,-1.02898 3.36759,1.49671 0.74134,0.26958 1.52694,0.42193 2.24507,0.74835 1.22132,0.55515 2.30461,1.44783 3.3676,2.24507 0.85834,0.64376 1.79499,1.18401 2.61924,1.87088 1.06339,0.88617 2.01186,2.01187 2.99341,2.99342"
       id="path9898"
       inkscape:connector-curvature="0" />
    <path
       style="fill:none;fill-opacity:1;stroke:#0e0a08;stroke-width:3;stroke-miterlimit:4;stroke-dasharray:none;stroke-opacity:1"
       d="m 231.98995,151.81921 c 0.62363,-0.12473 1.23752,-0.3166 1.87088,-0.37418 1.49057,-0.13551 2.99342,0 4.49013,0 2.61924,0 5.23848,0 7.85772,0 1.87089,0 3.74466,0.10378 5.61267,0 1.25154,-0.0695 2.48986,-0.31158 3.74177,-0.37418 2.4914,-0.12457 4.99287,0.13837 7.48354,0 1.00403,-0.0558 1.9904,-0.30253 2.99341,-0.37418 0.74647,-0.0533 1.49672,0 2.24507,0 1.74617,0 3.49234,0 5.23849,0"
       id="path9900"
       inkscape:connector-curvature="0" />
    <path
       style="fill:none;fill-opacity:1;stroke:#0e0a08;stroke-width:3;stroke-miterlimit:4;stroke-dasharray:none;stroke-opacity:1"
       d="m 236.48007,124.13008 c 0.62363,-0.37417 1.24726,-0.74835 1.87089,-1.12253 0.87308,-0.62363 1.7094,-1.30223 2.61924,-1.87088 1.08894,-0.68059 2.27187,-1.20128 3.3676,-1.87089 1.15118,-0.7035 2.20003,-1.56911 3.3676,-2.24507 1.20681,-0.69868 2.49451,-1.24725 3.74177,-1.87088 2.95604,-1.47802 5.9833,-2.73275 8.98025,-4.11595 2.14094,-0.98813 4.16819,-2.11629 6.36103,-2.99342"
       id="path9902"
       inkscape:connector-curvature="0" />
    <path
       style="fill:none;fill-opacity:1;stroke:#0e0a08;stroke-width:3;stroke-miterlimit:4;stroke-dasharray:none;stroke-opacity:1"
       d="m 113.37573,148.07743 c 0.59245,0.0935 1.20063,0.11586 1.77734,0.28063 0.1081,0.0309 0.1076,0.20114 0.18709,0.28064 0.159,0.15899 0.38853,0.23023 0.56127,0.37418 0.10163,0.0847 0.18709,0.18708 0.28063,0.28063 0.343,0.343 0.68599,0.68599 1.02899,1.02899 0.12032,0.12032 0.23331,0.28026 0.37418,0.37417 0.0855,0.057 0.22701,0.0798 0.28063,0.18709 0.0139,0.0279 -0.022,0.0715 0,0.0935 0.009,0.009 0.27128,0.009 0.28063,0 0.022,-0.022 -0.022,-0.0715 0,-0.0935 0.022,-0.022 0.0657,0.0139 0.0935,0 0.20683,-0.10341 0.029,-0.0581 0.0935,-0.18709 0.0394,-0.0789 0.1592,-0.10342 0.18709,-0.18708 0.0197,-0.0592 0,-0.12473 0,-0.18709 0.0312,-0.0624 0.0624,-0.12473 0.0935,-0.18709 0.18794,-0.37588 0.28064,-0.48882 0.28064,-0.93545 0,-0.31181 -0.0282,-0.6249 0,-0.93544 0.0172,-0.18889 0.0624,-0.37418 0.0935,-0.56126 0.24478,-1.46866 -0.09,0.35987 0.28063,-1.12254 0.21275,-0.85096 0.0166,-0.25987 0.0936,-1.02898 0.0158,-0.15821 0.076,-0.3097 0.0935,-0.46773 0.0364,-0.32731 0,-0.69949 0,-1.02898 0,-0.71718 0,-1.43435 0,-2.15152 0,-0.0646 -0.0106,-0.8313 0,-0.8419 0.0132,-0.0132 0.26145,-0.01 0.28064,0 0.0394,0.0197 0.0517,0.0796 0.0935,0.0935 0.0592,0.0197 0.13131,-0.0279 0.18709,0 0.0789,0.0394 0.11653,0.13417 0.18709,0.18709 0.16347,0.12261 0.27907,0.0928 0.46772,0.18709 0.10056,0.0503 0.18423,0.12924 0.28063,0.18709 0.17937,0.10762 0.36901,0.19823 0.56127,0.28063 0.0906,0.0388 0.19,0.0547 0.28063,0.0935 0.25635,0.10987 0.48722,0.27626 0.74836,0.37418 0.12038,0.0451 0.2538,0.0484 0.37418,0.0936 0.13056,0.049 0.24674,0.13045 0.37417,0.18709 0.30689,0.13639 0.62856,0.23778 0.93544,0.37417 0.12743,0.0566 0.24189,0.14299 0.37418,0.18709 0.15084,0.0503 0.31576,0.0468 0.46772,0.0935 0.25464,0.0783 0.49562,0.19638 0.74836,0.28063 0.21996,0.0733 0.43484,0.11377 0.65481,0.18709 0.18709,0.0624 0.36788,0.14841 0.56126,0.18709 0.10537,0.0211 0.26161,0 0.37418,0 0.0624,0 0.14299,0.0441 0.18709,0 0.022,-0.022 -0.01,-0.064 0,-0.0935 0.022,-0.0661 0.0766,-0.11945 0.0935,-0.18709 0.062,-0.24821 -0.0644,-0.51487 -0.0935,-0.74835 -0.0348,-0.27847 0,-0.56127 0,-0.8419 0,-0.81072 0,-1.62144 0,-2.43215 0,-0.31182 0,-0.62363 0,-0.93545 0,-0.12472 0.0138,-0.25021 0,-0.37417 -0.0176,-0.15803 -0.0777,-0.30952 -0.0935,-0.46772 -0.0279,-0.27925 0,-0.56127 0,-0.84191 0,-0.28063 -0.0397,-0.56408 0,-0.84189 0.0139,-0.0976 0.0773,-0.18337 0.0935,-0.28064 0.0379,-0.22756 0,-0.59643 0,-0.8419 0,-0.0624 -0.0151,-0.12658 0,-0.18708 0.0169,-0.0677 0.0715,-0.12095 0.0935,-0.18709 0.0263,-0.0789 -0.0369,-0.20676 0,-0.28064 0.0197,-0.0394 0.0738,-0.0541 0.0935,-0.0935 0.0279,-0.0558 -0.0441,-0.14299 0,-0.18709 5.3e-4,-5.3e-4 0.2775,7.9e-4 0.28063,0 0.0677,-0.0169 0.11945,-0.0766 0.18709,-0.0935 0.1755,-0.0439 0.41552,0.0753 0.56127,0.0935 0.12376,0.0155 0.25041,-0.0155 0.37417,0 0.12758,0.016 0.24868,0.0657 0.37418,0.0935 0.31042,0.069 0.62503,0.11811 0.93545,0.18709 0.1255,0.0279 0.2466,0.0776 0.37417,0.0935 0.12377,0.0155 0.25042,-0.0155 0.37418,0 0.12757,0.016 0.24661,0.0776 0.37418,0.0935 0.12376,0.0155 0.25041,-0.0155 0.37417,0 0.12757,0.016 0.24691,0.0754 0.37418,0.0935 0.23783,0.034 0.50713,0 0.74836,0 0.15978,0 0.7004,0.0354 0.8419,0 0.0676,-0.0169 0.11944,-0.0766 0.18708,-0.0935 0.14023,-0.0351 0.33073,0.0457 0.46773,0 0.0418,-0.0139 0.0517,-0.0796 0.0935,-0.0935 0.0887,-0.0296 0.19189,0.0296 0.28063,0 0.0662,-0.022 0.12095,-0.0715 0.18709,-0.0935 0.0296,-0.01 0.0657,0.0139 0.0935,0 0.25245,-0.12622 -0.003,-0.0419 0.0935,-0.18709 0.0489,-0.0734 0.13417,-0.11653 0.18709,-0.18708 0.13542,-0.18057 0.10543,-0.34352 0.18709,-0.56127 0.049,-0.13057 0.14299,-0.24189 0.18709,-0.37418 0.10055,-0.30167 0.12472,-0.62363 0.18708,-0.93544 0.10567,-0.52832 0.19207,-1.05881 0.28064,-1.59025 0.0312,-0.18709 0.0596,-0.37466 0.0935,-0.56127 0.0284,-0.15643 0.0777,-0.30951 0.0935,-0.46772 0.0463,-0.46309 -0.0463,-0.94007 0,-1.40317 0.0158,-0.1582 0.076,-0.30969 0.0935,-0.46772 0.0375,-0.33717 -0.048,-0.69325 0,-1.02899 0.0139,-0.0976 0.0742,-0.18394 0.0935,-0.28063 0.0122,-0.0611 0,-0.12473 0,-0.18709 0.0312,-0.0935 0.0742,-0.18394 0.0935,-0.28063 0.0122,-0.0611 -0.0151,-0.12659 0,-0.18709 0.0169,-0.0676 0.0624,-0.12472 0.0935,-0.18709 0.0624,-0.12472 0.10974,-0.25815 0.18709,-0.37418 0.0734,-0.11007 0.18709,-0.18708 0.28064,-0.28063 0.0312,-0.0312 0.0568,-0.0691 0.0935,-0.0935 0.058,-0.0387 0.12473,-0.0624 0.18709,-0.0935 0.0624,-0.0312 0.11944,-0.0766 0.18709,-0.0935 0.14301,-0.0358 0.51184,0 0.65481,0 0.39581,0 0.82322,-0.0393 1.21608,0 0.1582,0.0158 0.31181,0.0624 0.46772,0.0935 0.71396,0.1428 1.43336,0.25449 2.15152,0.37418 0.24624,0.041 0.99253,0.16989 1.21607,0.18709 0.18654,0.0143 0.37495,-0.0169 0.56127,0 0.31668,0.0288 0.61903,0.15545 0.93544,0.18709 0.24822,0.0248 0.49891,0 0.74836,0 0.62363,0 1.24725,0 1.87088,0 0.42897,0 -0.0986,0.0197 0.46772,-0.0935 0.0917,-0.0183 0.19189,0.0296 0.28064,0 0.0661,-0.022 0.12094,-0.0715 0.18709,-0.0935 0.0887,-0.0296 0.19189,0.0296 0.28063,0 0.0418,-0.0139 0.0624,-0.0624 0.0935,-0.0935 0.0312,-0.0312 0.0738,-0.0541 0.0935,-0.0935 0.0139,-0.0279 -0.0139,-0.0657 0,-0.0935 0.0197,-0.0394 0.0796,-0.0517 0.0935,-0.0935 0.0197,-0.0592 0,-0.12472 0,-0.18709 0,-0.12472 -0.0138,-0.25021 0,-0.37417 0.0176,-0.15803 0.076,-0.3097 0.0935,-0.46772 0.0469,-0.42248 -0.0509,-0.46613 -0.0935,-0.93545 -0.0282,-0.31053 0,-0.62363 0,-0.93544 0,-0.46772 0,-0.93544 0,-1.40317 0,-0.65481 0,-1.30962 0,-1.96443 0,-0.17463 0.0438,-0.61707 0,-0.74835 -0.022,-0.0661 -0.0766,-0.11945 -0.0935,-0.18709 -0.0197,-0.079 0.0409,-0.2924 0,-0.37418 -0.0197,-0.0394 -0.0738,-0.0541 -0.0935,-0.0935 -0.13764,-0.27529 0.21671,0.12316 -0.0935,-0.18709"
       id="path9906"
       inkscape:connector-curvature="0" />
    <path
       style="fill:none;fill-opacity:1;stroke:#0e0a08;stroke-width:3;stroke-miterlimit:4;stroke-dasharray:none;stroke-opacity:1"
       d="m 148.92186,117.11463 c 0.40973,-0.27501 0.76833,-0.64862 1.22918,-0.82503 0.619,-0.23696 0.91452,0.0647 1.45521,0.13229 1.06978,0.13372 0.0447,-0.1615 0.92604,0.13229 0.95157,0.31719 -0.23675,-0.0676 0.92604,0.26458 0.13408,0.0383 0.26014,0.10495 0.39688,0.1323 0.0865,0.0173 0.1781,-0.0173 0.26458,0 0.27348,0.0547 0.52917,0.17639 0.79375,0.26458 0.26458,0.0882 0.5348,0.161 0.79375,0.26458 0.0916,0.0366 0.16789,0.11296 0.26458,0.13229 0.12973,0.026 0.26459,0 0.39688,0 0.0882,0 0.18091,-0.0279 0.26458,0 0.0592,0.0197 0.0765,0.10441 0.13229,0.1323 0.0781,0.039 0.30796,0 0.39688,0 0.0441,0 0.11257,0.0394 0.13229,0 0.0394,-0.0789 -0.0279,-0.18092 0,-0.26459 0.0197,-0.0592 0.13229,-0.0699 0.13229,-0.13229 0,-0.0986 -0.10837,-0.16892 -0.13229,-0.26458 -0.0214,-0.0856 0.0279,-0.18092 0,-0.26459 -0.0197,-0.0592 -0.0882,-0.0882 -0.13229,-0.13229 -0.0441,-0.0882 -0.11296,-0.16789 -0.13229,-0.26458 -0.026,-0.12972 0.0217,-0.26638 0,-0.39688 -0.27479,-1.64872 0.0102,1.41445 -0.26459,-1.05833 -0.0726,-0.65313 0.0595,-1.3299 0,-1.98437 -0.0407,-0.44786 -0.21492,-0.87597 -0.26458,-1.32292 -0.0195,-0.17531 0.0219,-0.35414 0,-0.52917 -0.0451,-0.36083 -0.21948,-0.6975 -0.26458,-1.05833 -0.0219,-0.17503 0.0219,-0.35414 0,-0.52917 -0.20507,-1.64053 -0.0449,0.39194 -0.26459,-0.92604 -0.0362,-0.21749 0.0535,-0.44756 0,-0.66146 -0.0239,-0.0957 -0.10111,-0.17104 -0.13229,-0.26458 -0.0463,-0.13899 0,-0.38144 0,-0.52917 0,-0.0441 -0.0312,-0.10111 0,-0.13229 0.17396,-0.17396 0.70789,0.47765 0.79375,0.52917 0.11958,0.0717 0.27215,0.0699 0.39688,0.13229 0.42175,0.21087 0.78097,0.55966 1.19062,0.79375 0.48026,0.27444 0.97495,0.51931 1.45521,0.79375 0.72363,0.4135 1.36909,0.94913 2.11667,1.32292 0.0882,0.0441 0.17639,0.0882 0.26458,0.13229 0.0882,0 0.18091,-0.0279 0.26458,0 0.0592,0.0197 0.0765,0.1044 0.13229,0.13229 0.0271,0.0136 0.37822,0.0186 0.39688,0 7.9e-4,-8e-4 0.004,-0.77308 0,-0.79375 -0.17603,-0.88015 -0.0624,0.0982 -0.39688,-0.79375 -0.14275,-0.38067 -0.13602,-0.80493 -0.26458,-1.19063 -0.0751,-0.22528 -0.19635,-0.434 -0.26458,-0.66145 -0.0646,-0.21538 -0.0612,-0.44815 -0.13229,-0.66146 -0.0624,-0.18709 -0.18449,-0.34896 -0.26459,-0.52917 -0.0964,-0.217 -0.18949,-0.43617 -0.26458,-0.66146 -0.0575,-0.17249 -0.0607,-0.36205 -0.13229,-0.52916 -0.0626,-0.14614 -0.19348,-0.25467 -0.26459,-0.39688 -0.0624,-0.12472 -0.0699,-0.27215 -0.13229,-0.39687 -0.7943,-1.58862 0.20912,0.56901 -0.52916,-0.66146 -0.0717,-0.11958 -0.0606,-0.2773 -0.1323,-0.39688 -0.0642,-0.10695 -0.19539,-0.1608 -0.26458,-0.26458 -0.0245,-0.0367 0.0197,-0.0928 0,-0.13229 -0.0279,-0.0558 -0.0977,-0.0804 -0.13229,-0.13229 -0.0547,-0.0821 -0.0776,-0.18254 -0.13229,-0.26459 -0.0692,-0.10378 -0.20881,-0.15302 -0.26459,-0.26458 -0.0197,-0.0394 0.0312,-0.10111 0,-0.13229 -0.0312,-0.0312 -0.16569,0.0288 -0.13229,0 0.44016,-0.37928 0.91681,-0.71401 1.37521,-1.07101"
       id="path9908"
       inkscape:connector-curvature="0" />
    <path
       style="fill:none;fill-opacity:1;stroke:#0e0a08;stroke-width:3;stroke-miterlimit:4;stroke-dasharray:none;stroke-opacity:1"
       d="m 115.99497,167.53465 c 0.5086,-0.97675 1.54485,-1.32612 2.40607,-1.90026 0.26458,-0.17639 0.54544,-0.33052 0.79375,-0.52917 0.0974,-0.0779 0.16719,-0.18667 0.26458,-0.26458 0.12416,-0.0993 0.27273,-0.16526 0.39688,-0.26459 0.0974,-0.0779 0.1648,-0.18974 0.26458,-0.26458 0.15777,-0.11832 0.36508,-0.15519 0.52917,-0.26458 0.10378,-0.0692 0.15302,-0.20881 0.26458,-0.26459 0.0394,-0.0197 0.0928,0.0197 0.13229,0 0.0558,-0.0279 0.0765,-0.1044 0.1323,-0.13229 0.0271,-0.0136 0.37821,-0.0187 0.39687,0 0.0624,0.0624 -0.0279,0.18092 0,0.26459 0.0312,0.0935 0.10111,0.17104 0.13229,0.26458 0.0517,0.15523 0,0.61135 0,0.79375 0,0.88194 0,1.76389 0,2.64583 0,0.35278 -0.0499,0.7091 0,1.05834 0.0257,0.17999 0.10658,0.34917 0.13229,0.52916 0.0553,0.38699 0,1.03972 0,1.45521 0,0.17639 0,0.35278 0,0.52917 0,0.0441 -0.0441,0.13229 0,0.13229 0.0624,0 0.0765,-0.1044 0.1323,-0.13229 0.0394,-0.0197 0.10111,0.0312 0.13229,0 0.39395,-0.39396 -0.19786,-0.17233 0.39687,-0.52917 0.11958,-0.0717 0.28085,-0.0549 0.39688,-0.13229 0.15566,-0.10378 0.26458,-0.26458 0.39687,-0.39688 0.17639,-0.0882 0.36194,-0.16006 0.52917,-0.26458 0.37394,-0.23371 0.68439,-0.56003 1.05833,-0.79375 0.97782,-0.61113 0.0616,0.0981 1.19063,-0.52917 0.19274,-0.10707 0.33643,-0.28979 0.52916,-0.39687 0.20759,-0.11533 0.45387,-0.14926 0.66146,-0.26458 0.19274,-0.10708 0.33643,-0.2898 0.52917,-0.39688 0.20759,-0.11533 0.44445,-0.16814 0.66146,-0.26458 0.5112,-0.2272 0.97862,-0.5078 1.45521,-0.79375 0.57796,-0.34678 -0.0958,0.11402 0.66145,-0.26459 0.0558,-0.0279 0.0731,-0.11256 0.1323,-0.13229 0.0837,-0.0279 0.18091,0.0279 0.26458,0 0.0592,-0.0197 0.0765,-0.1044 0.13229,-0.13229 0.0394,-0.0197 0.0882,0 0.13229,0 0.0441,0 0.10111,-0.0312 0.13229,0 0.0228,0.0228 0.0135,0.46159 0,0.52917 -0.0273,0.13674 -0.094,0.26279 -0.13229,0.39687 -0.0499,0.17482 -0.0882,0.35278 -0.13229,0.52917 -0.0704,0.28169 -0.24059,0.92671 -0.26458,1.19062 -0.0239,0.2635 0.022,0.53008 0,0.79375 -0.0445,0.53462 -0.22004,1.05289 -0.26459,1.5875 -0.022,0.26368 0.024,0.53026 0,0.79375 -0.0446,0.491 -0.21552,0.96464 -0.26458,1.45521 -0.0452,0.45233 0.0732,1.01594 0,1.45521 -0.0229,0.13755 -0.10494,0.26014 -0.13229,0.39688 -0.0519,0.25922 0,0.64614 0,0.92604 0,0.0882 -0.0624,0.20222 0,0.26458 0.0312,0.0312 0.0882,0 0.13229,0 0.25736,0 0.32761,-0.24571 0.52917,-0.39687 0.0789,-0.0592 0.18003,-0.0816 0.26458,-0.1323 0.13634,-0.0818 0.25883,-0.1857 0.39688,-0.26458 0.17122,-0.0978 0.36193,-0.16006 0.52916,-0.26458 0.18697,-0.11686 0.3422,-0.28002 0.52917,-0.39688 0.16723,-0.10452 0.36193,-0.16006 0.52916,-0.26458 0.18698,-0.11686 0.3422,-0.28002 0.52917,-0.39688 0.16723,-0.10452 0.36194,-0.16006 0.52917,-0.26458 0.18697,-0.11686 0.33643,-0.2898 0.52916,-0.39687 0.20759,-0.11533 0.45388,-0.14926 0.66146,-0.26459 0.19274,-0.10707 0.33196,-0.29827 0.52917,-0.39687 0.16262,-0.0813 0.35893,-0.0685 0.52917,-0.13229 0.58148,-0.21806 0.43755,-0.25003 0.92604,-0.52917 0.17122,-0.0978 0.35794,-0.16674 0.52916,-0.26458 0.13805,-0.0789 0.25883,-0.1857 0.39688,-0.26459 0.34245,-0.19568 0.71588,-0.33348 1.05833,-0.52916 0.2761,-0.15777 0.52108,-0.36557 0.79375,-0.52917 0.16911,-0.10146 0.36508,-0.15519 0.52917,-0.26458 0.1955,-0.13034 0.24845,-0.26459 0.52917,-0.26459 0.26458,0 0.0441,-0.0441 0.13229,0.13229 0.0279,0.0558 0.1044,0.0765 0.13229,0.1323 0.0207,0.0415 0.011,0.61743 0,0.66145 -0.0239,0.0957 -0.0957,0.17304 -0.13229,0.26459 -0.1586,0.39649 -0.13914,0.48699 -0.26459,0.92604 -0.0383,0.13408 -0.0985,0.26159 -0.13229,0.39687 -0.0545,0.21814 -0.0677,0.44609 -0.13229,0.66146 -0.0682,0.22746 -0.2021,0.43236 -0.26458,0.66146 -0.0706,0.25878 -0.0882,0.52917 -0.13229,0.79375 -0.12527,0.75157 -0.24744,1.50179 -0.39688,2.24896 -0.13216,0.66079 -0.25069,1.32656 -0.39687,1.98437 -0.0394,0.17749 -0.10974,0.34876 -0.1323,0.52917 -0.0219,0.17503 0.025,0.35455 0,0.52917 -0.0197,0.13804 -0.10936,0.25932 -0.13229,0.39687 -0.0217,0.1305 0.026,0.26716 0,0.39688 -0.0193,0.0967 -0.10111,0.17104 -0.13229,0.26458 -0.0418,0.1255 0,0.26458 0,0.39688 0,0.0882 0,0.17639 0,0.26458 0,0.0441 -0.0441,0.13229 0,0.13229 0.0624,0 0.0765,-0.1044 0.13229,-0.13229 0.12473,-0.0624 0.2674,-0.0805 0.39688,-0.13229 0.3345,-0.1338 0.2991,-0.18982 0.66146,-0.39688 0.98192,-0.56109 0.0566,0.0378 1.19062,-0.52916 0.22999,-0.11499 0.42738,-0.29048 0.66146,-0.39688 0.2539,-0.11541 0.53985,-0.14917 0.79375,-0.26458 0.23408,-0.1064 0.43573,-0.27375 0.66146,-0.39688 2.56542,-1.39932 -0.73265,0.43247 1.45521,-0.66146 0.45996,-0.22998 0.87337,-0.544 1.32291,-0.79375 0.34479,-0.19154 0.70556,-0.35277 1.05834,-0.52916 1.13523,-0.56762 -0.009,0.0318 0.92604,-0.52917 0.57796,-0.34678 -0.0958,0.11403 0.66146,-0.26458 0.0558,-0.0279 0.0731,-0.11257 0.13229,-0.13229 0.0837,-0.0279 0.18091,0.0279 0.26458,0 0.0592,-0.0197 0.0765,-0.10441 0.13229,-0.1323 0.0212,-0.0106 0.39159,-0.0106 0.39688,0 0.0474,0.0949 -0.008,1.00275 0,1.05834 0.0197,0.13804 0.11499,0.2585 0.13229,0.39687 0.097,0.77642 -0.0557,0.55733 -0.13229,1.32292 -0.0219,0.21939 0.02,0.44188 0,0.66146 -0.007,0.49792 -0.21553,0.96463 -0.26459,1.45521 -0.0439,0.43878 0.0487,0.88464 0,1.32291 -0.17507,1.57565 -0.13229,-0.50187 -0.13229,1.05834 0,1.38229 0.0558,-0.20239 -0.13229,0.92604 -0.0362,0.21748 0.0535,0.44755 0,0.66146 -0.0239,0.0957 -0.10837,0.16892 -0.13229,0.26458 -0.0321,0.12834 0,0.26458 0,0.39687 0,0.12972 -0.0908,0.47124 0.13229,0.39688 0.53703,-0.17901 1.12399,-0.61704 1.5875,-0.92604 0.13229,-0.0882 0.27473,-0.1628 0.39688,-0.26459 0.14372,-0.11977 0.25315,-0.2771 0.39687,-0.39687 0.24429,-0.20357 0.53499,-0.34434 0.79375,-0.52917 1.38723,-0.99087 -0.22783,0.16781 0.92604,-0.79375 0.24429,-0.20357 0.54544,-0.33052 0.79375,-0.52916 0.0974,-0.0779 0.16719,-0.18667 0.26459,-0.26459 0.24831,-0.19864 0.54544,-0.33052 0.79375,-0.52916 0.0974,-0.0779 0.16719,-0.18667 0.26458,-0.26459 0.12415,-0.0993 0.27272,-0.16526 0.39687,-0.26458 0.0974,-0.0779 0.15764,-0.20041 0.26459,-0.26458 0.11957,-0.0718 0.2674,-0.0805 0.39687,-0.1323 0.0915,-0.0366 0.17639,-0.0882 0.26459,-0.13229 0.21675,-0.10837 0.56771,-0.34036 0.79375,-0.39687 0.0856,-0.0214 0.18091,0.0279 0.26458,0 0.0592,-0.0197 0.0765,-0.1044 0.13229,-0.13229 0.0789,-0.0394 0.1857,0.0394 0.26458,0 0.0558,-0.0279 0.0765,-0.10441 0.1323,-0.1323 0.0271,-0.0136 0.37822,-0.0187 0.39687,0 0.0312,0.0312 0,0.0882 0,0.1323 0,0.0882 0.0214,0.17902 0,0.26458 -0.0478,0.19132 -0.19134,0.34606 -0.26458,0.52917 -0.0518,0.12947 -0.0882,0.26458 -0.13229,0.39687 -0.29379,0.88137 0.001,-0.14374 -0.1323,0.92604 -0.0225,0.18042 -0.10973,0.34876 -0.13229,0.52917 -0.0219,0.17503 0.025,0.35455 0,0.52917 -0.0197,0.13804 -0.11257,0.25882 -0.13229,0.39687 -0.025,0.17462 0.0219,0.35414 0,0.52917 0.0221,0.33646 -0.21918,0.60823 -0.26458,0.92604 -0.025,0.17462 0.0249,0.35455 0,0.52917 -0.0394,0.27609 -0.21874,0.51865 -0.26459,0.79375 -0.0217,0.13049 0.026,0.26715 0,0.39687 -0.0193,0.0967 -0.10837,0.16892 -0.13229,0.26458 -0.0321,0.12835 0.0418,0.27138 0,0.39688 -0.0312,0.0935 -0.10111,0.17104 -0.13229,0.26458 -0.0463,0.13899 0,0.38144 0,0.52917"
       id="path9910"
       inkscape:connector-curvature="0" />
    <path
       style="fill:none;fill-opacity:1;stroke:#0e0a08;stroke-width:3;stroke-miterlimit:4;stroke-dasharray:none;stroke-opacity:1"
       d="m 172.49575,155.09326 c 0.71717,0 1.43435,0 2.15152,0 0.18709,0 0.37495,-0.0169 0.56127,0 0.15834,0.0144 0.30938,0.0792 0.46772,0.0935 0.18632,0.0169 0.37495,-0.0169 0.56126,0 0.31669,0.0288 0.61904,0.15545 0.93545,0.18709 0.31026,0.031 0.62363,0 0.93544,0 0.343,0 0.6874,0.0311 1.02899,0 0.18889,-0.0172 0.37225,-0.0778 0.56126,-0.0935 0.75858,-0.0632 0.36899,0.0948 1.12254,-0.0935 0.19132,-0.0478 0.371,-0.1352 0.56126,-0.18709 0.1534,-0.0418 0.31543,-0.0479 0.46772,-0.0935 0.2986,-0.0896 0.56551,-0.23598 0.8419,-0.37418 0.49557,-0.24778 0.93614,-0.52509 1.21608,-1.02899 0.0815,-0.14678 0.12473,-0.31181 0.18709,-0.46772 0.0624,-0.1559 0.13884,-0.30688 0.18709,-0.46772 0.15165,-0.50549 0.24587,-1.24832 0.18709,-1.77734 -0.0453,-0.40742 -0.2736,-0.68927 -0.46773,-1.02899 -0.0692,-0.12107 -0.11318,-0.25593 -0.18709,-0.37418 -0.0826,-0.13221 -0.19001,-0.24731 -0.28063,-0.37417 -0.21642,-0.30299 -0.15942,-0.30436 -0.46772,-0.56127 -0.0864,-0.072 -0.19426,-0.11512 -0.28063,-0.18709 -0.45294,-0.37745 -0.0846,-0.22335 -0.65481,-0.46772 -0.0906,-0.0388 -0.19244,-0.0494 -0.28064,-0.0935 -0.39912,-0.19957 -0.7234,-0.5488 -1.12253,-0.74836 -0.17639,-0.0882 -0.37816,-0.11385 -0.56126,-0.18709 -0.12948,-0.0518 -0.25815,-0.10974 -0.37418,-0.18709 -0.0367,-0.0244 -0.0541,-0.0738 -0.0936,-0.0935 -0.0279,-0.0139 -0.0715,0.022 -0.0935,0 -0.022,-0.022 -0.022,-0.0715 0,-0.0935 0.0697,-0.0697 0.18337,0.0773 0.28063,0.0935 0.12303,0.0205 0.25022,-0.0138 0.37418,0 0.53201,0.0591 1.05499,0.23603 1.59025,0.28063 0.18645,0.0155 0.37483,-0.0155 0.56127,0 0.37803,0.0315 0.7445,0.15559 1.12253,0.18709 0.45863,0.0382 0.94195,0 1.40317,0 0.24945,0 0.50141,0.0353 0.74835,0 0.12727,-0.0182 0.24691,-0.0754 0.37418,-0.0935 0.33608,-0.048 0.29038,0.0887 0.65481,-0.0935 0.0789,-0.0394 0.1137,-0.13816 0.18709,-0.18709 0.13109,-0.0874 0.5352,-0.23065 0.65481,-0.37418 0.0893,-0.10712 0.10604,-0.2607 0.18709,-0.37417 0.0769,-0.10765 0.215,-0.16577 0.28063,-0.28063 0.0638,-0.11163 0.0624,-0.24946 0.0935,-0.37418 0.0553,-0.22113 0.16334,-0.62814 0.18709,-0.8419 0.031,-0.27892 0,-0.56127 0,-0.8419 0,-0.15591 0.0155,-0.31259 0,-0.46772 -0.0158,-0.15821 -0.0651,-0.31129 -0.0935,-0.46772 -0.0389,-0.21392 -0.12407,-0.79792 -0.18709,-1.02899 -0.0519,-0.19026 -0.13926,-0.36995 -0.18709,-0.56127 -0.046,-0.184 -0.039,-0.37959 -0.0935,-0.56126 -0.0401,-0.13357 -0.1353,-0.24471 -0.18709,-0.37418 -0.0732,-0.18311 -0.11385,-0.37816 -0.18709,-0.56127 -0.12538,-0.31344 -0.3918,-0.82596 -0.56127,-1.12253 -0.0558,-0.0976 -0.13681,-0.18007 -0.18709,-0.28063 -0.0943,-0.18866 -0.0645,-0.30425 -0.18708,-0.46772 -0.0529,-0.0706 -0.13418,-0.11654 -0.18709,-0.18709 -0.11683,-0.15578 -0.19338,-0.38677 -0.28064,-0.56127"
       id="path9912"
       inkscape:connector-curvature="0" />
    <path
       style="fill:none;fill-opacity:1;stroke:#0e0a08;stroke-width:3;stroke-miterlimit:4;stroke-dasharray:none;stroke-opacity:1"
       d="m 132.94266,104.57271 c -0.49724,-0.0136 -0.9652,-0.21013 -1.45521,-0.26458 -0.39444,-0.0438 -0.79375,0 -1.19062,0 -0.22049,0 -0.44207,-0.0219 -0.66146,0 -0.54565,0.0546 -1.06544,0.24772 -1.5875,0.39688 -0.1978,0.0565 -0.71458,0.15885 -0.92604,0.26458 -0.16237,0.0812 -0.48391,0.48043 -0.52917,0.66146 -0.0214,0.0856 0.0214,0.17902 0,0.26458 -0.0239,0.0957 -0.10837,0.16892 -0.13229,0.26458 -0.0738,0.29531 0.0431,0.26159 0.13229,0.52917 0.0139,0.0418 -0.0139,0.0905 0,0.13229 0.15074,0.45221 0.4636,0.86048 0.79375,1.19063 0.13229,0.13229 0.27711,0.25315 0.39688,0.39687 0.10178,0.12214 0.15215,0.28445 0.26458,0.39688 0.11243,0.11242 0.2675,0.17217 0.39688,0.26458 0.0678,0.0484 0.77015,0.59465 0.92604,0.66146 0.33423,0.14324 0.70869,0.16468 1.05833,0.26458 0.36842,0.10526 0.67141,0.26459 1.05833,0.26459 0.1323,0 0.26854,0.0321 0.39688,0 0.0605,-0.0151 0.0731,-0.11257 0.13229,-0.1323 0.0837,-0.0279 0.17902,0.0214 0.26458,0 0.32022,-0.08 0.2656,-0.1992 0.52917,-0.39687 0.0789,-0.0592 0.19486,-0.0626 0.26458,-0.13229 0.0836,-0.0836 0.77532,-1.23077 0.79375,-1.32292 0.0386,-0.19311 0,-0.57976 0,-0.79375 0,-0.0882 0,-0.17639 0,-0.26458 0,-0.0441 0.0197,-0.0928 0,-0.13229 -0.0279,-0.0558 -0.0882,-0.0882 -0.13229,-0.1323 0,-0.0882 0.0279,-0.18091 0,-0.26458 -0.0394,-0.11832 -0.19539,-0.16081 -0.26458,-0.26458 -0.4796,-0.95919 0.13945,0.20917 -0.26458,-0.39688 -0.0547,-0.082 -0.0776,-0.18254 -0.1323,-0.26458 -0.0601,-0.0902 -0.43995,-0.48456 -0.52916,-0.52917 -0.0394,-0.0197 -0.0882,0 -0.13229,0"
       id="path9930"
       inkscape:connector-curvature="0" />
    <path
       style="fill:none;fill-opacity:1;stroke:#0e0a08;stroke-width:3;stroke-miterlimit:4;stroke-dasharray:none;stroke-opacity:1"
       d="m 128.04787,106.82167 c 0.69465,0.10764 1.08851,-0.18644 1.71979,-0.39687 0.17249,-0.0575 0.35278,-0.0882 0.52917,-0.13229 0.97561,-0.24391 0.0898,0.0182 1.05833,-0.39688 0.12817,-0.0549 0.2674,-0.0805 0.39688,-0.13229 0.0916,-0.0366 0.17303,-0.0957 0.26458,-0.13229 0.12948,-0.0518 0.27215,-0.0699 0.39688,-0.13229 0.0558,-0.0279 0.0731,-0.11257 0.13229,-0.1323 0.0837,-0.0279 0.1857,0.0395 0.26458,0 0.0394,-0.0197 -0.0312,-0.10111 0,-0.13229 0.0882,-0.0882 0.25167,0.0935 0.26458,0.13229 0.08,0.24 -0.05,0.32344 -0.13229,0.52917 -0.0518,0.12947 -0.0805,0.2674 -0.13229,0.39688 -0.1657,0.41425 -0.0909,0.14665 -0.39687,0.52916 -0.0993,0.12416 -0.18279,0.26054 -0.26459,0.39688 -0.11539,0.19231 -0.58692,0.98939 -0.79375,1.05833 -0.16059,0.0535 -0.482,0 -0.66146,0"
       id="path9932"
       inkscape:connector-curvature="0" />
    <path
       style="fill:none;fill-opacity:1;stroke:#0e0a08;stroke-width:3;stroke-miterlimit:4;stroke-dasharray:none;stroke-opacity:1"
       d="m 123.03125,92.080222 c 1.31323,0.348906 2.68377,0.463447 3.96875,0.926042 0.63196,0.227507 1.2298,0.540949 1.85208,0.79375 1.01865,0.413827 3.16678,1.186513 4.23333,1.719792 0.63598,0.317989 1.22687,0.719674 1.85209,1.058333 0.43351,0.234818 0.90607,0.398187 1.32291,0.661458 0.42511,0.268484 0.77229,0.647147 1.19063,0.926042 0.37776,0.251838 0.80872,0.415949 1.19062,0.661458 0.1681,0.108059 1.37438,1.124485 1.45521,1.190623 0.43707,0.35761 0.90084,0.68316 1.32292,1.05834 0.18644,0.16572 0.34143,0.3649 0.52917,0.52916 1.90637,1.66808 -0.55568,-0.57331 0.92604,0.66146 0.14372,0.11977 0.25078,0.28 0.39687,0.39688 0.94036,0.75228 -0.51882,-0.65111 0.52917,0.39687"
       id="path9940"
       inkscape:connector-curvature="0" />
    <path
       style="fill:none;fill-opacity:1;stroke:#0e0a08;stroke-width:3;stroke-miterlimit:4;stroke-dasharray:none;stroke-opacity:1"
       d="m 199.49583,123.43335 c 0.52916,0 1.10394,0.21491 1.5875,0 0.66911,-0.29738 1.07114,-1.8777 1.32292,-2.38125 0.45996,-0.91994 1.12753,-1.7259 1.5875,-2.64584 0.2124,-0.4248 0.31676,-0.89811 0.52916,-1.32291 0.22999,-0.45997 0.54401,-0.87338 0.79375,-1.32292 0.3831,-0.68956 0.7476,-1.39161 1.05834,-2.11667 0.10986,-0.25634 0.13986,-0.54429 0.26458,-0.79375 0.14221,-0.28442 0.36556,-0.52107 0.52917,-0.79375 0.20292,-0.33821 0.31038,-0.73015 0.52916,-1.05833 0.0692,-0.10378 0.22515,-0.14626 0.26459,-0.26458 0.0558,-0.16734 -0.0558,-0.36183 0,-0.52917 0.0328,-0.0984 0.93737,-0.97769 1.05833,-1.05833 0.16409,-0.10939 0.35278,-0.17639 0.52917,-0.26459 0.17639,-0.17639 0.3296,-0.37949 0.52916,-0.52916 0.4733,-0.35498 1.07383,-0.50022 1.5875,-0.79375 0.2761,-0.15777 0.50148,-0.40391 0.79375,-0.52917 0.33424,-0.14324 0.71786,-0.1369 1.05834,-0.26458 0.3693,-0.13849 0.68903,-0.39068 1.05833,-0.52917 0.34048,-0.12768 0.71336,-0.14959 1.05833,-0.26458 0.45057,-0.15019 0.87235,-0.37898 1.32292,-0.52917 0.3788,-0.12627 2.08168,-0.49921 2.38125,-0.52917 0.43879,-0.0439 0.88464,0.0487 1.32292,0 0.36141,-0.0401 0.70555,-0.17639 1.05833,-0.26458 0.52917,-0.0882 1.05324,-0.21601 1.5875,-0.26458 0.43916,-0.0399 0.88413,0.0439 1.32292,0 0.44747,-0.0447 0.87544,-0.21984 1.32291,-0.26459 0.43879,-0.0439 0.88195,0 1.32292,0 1.14653,0 2.29306,0 3.43958,0 1.05834,0 2.11667,0 3.175,0 0.26459,0 0.53277,-0.0435 0.79375,0 1.92218,0.32037 -0.093,0.26459 1.32292,0.26459 0.35278,0 0.70556,0 1.05833,0 0.0882,0 0.17639,0 0.26459,0 0.0882,0 0.26458,-0.0882 0.26458,0 0,0.0882 -0.17639,0 -0.26458,0 -0.52917,0 -1.05834,0 -1.5875,0 -1.14653,0 -2.29306,0 -3.43959,0 -0.44097,0 -0.88464,-0.0487 -1.32291,0 -0.76334,0.0848 -1.61791,0.44435 -2.38125,0.52916 -0.70124,0.0779 -1.4182,-0.0998 -2.11667,0 -0.27609,0.0395 -0.52558,0.18797 -0.79375,0.26459 -0.34964,0.0999 -0.69965,0.2048 -1.05833,0.26458 -0.17399,0.029 -0.35278,0 -0.52917,0 -0.26458,0.0882 -0.52027,0.20989 -0.79375,0.26458 -0.17296,0.0346 -0.3562,-0.0346 -0.52917,0 -1.07212,0.21443 -0.55922,0.1828 -1.32291,0.79375 -0.24831,0.19865 -0.54544,0.33052 -0.79375,0.52917 -0.29219,0.23375 -0.52917,0.52917 -0.79375,0.79375 -0.61736,0.61736 -1.23473,1.23472 -1.85209,1.85208 -0.35277,0.35278 -0.75899,0.65922 -1.05833,1.05834 -0.11832,0.15776 -0.14626,0.3714 -0.26458,0.52916 -0.14967,0.19957 -0.3795,0.32961 -0.52917,0.52917 -0.23665,0.31553 -0.29251,0.7428 -0.52917,1.05833 -0.14967,0.19957 -0.37949,0.32961 -0.52916,0.52917 -0.11833,0.15777 -0.16312,0.36006 -0.26459,0.52917 -0.1636,0.27267 -0.36556,0.52107 -0.52916,0.79375 -0.10147,0.1691 -0.14626,0.3714 -0.26459,0.52916 -0.14967,0.19957 -0.37949,0.32961 -0.52916,0.52917 -0.23665,0.31553 -0.25027,0.77944 -0.52917,1.05833 -0.13945,0.13945 -0.38972,0.12514 -0.52917,0.26459 -0.13944,0.13945 -0.15519,0.36508 -0.26458,0.52916 -0.13837,0.20756 -0.41761,0.30606 -0.52917,0.52917 -0.0394,0.0789 0.0394,0.1857 0,0.26458 -0.11155,0.22312 -0.39079,0.32162 -0.52916,0.52917 -0.10939,0.16409 -0.15519,0.36508 -0.26459,0.52917 -0.0692,0.10377 -0.19539,0.1608 -0.26458,0.26458 -0.21878,0.32818 -0.25027,0.77944 -0.52917,1.05833 -0.13944,0.13945 -0.38971,0.12514 -0.52916,0.26459 -0.13945,0.13945 -0.15519,0.36508 -0.26459,0.52916 -0.19458,0.29188 -0.63746,0.48119 -0.79375,0.79375 -0.0394,0.0789 0.0395,0.1857 0,0.26459 -0.18879,0.37759 -0.52916,0.32064 -0.52916,0.79375"
       id="path9963"
       inkscape:connector-curvature="0" />
    <path
       style="fill:none;fill-opacity:1;stroke:#0e0a08;stroke-width:3;stroke-miterlimit:4;stroke-dasharray:none;stroke-opacity:1"
       d="m 170.99904,158.5544 c -3.31478,1.10492 0.22757,0.0556 -1.6838,0.37418 -0.19452,0.0324 -0.36674,0.15466 -0.56126,0.18708 -0.43098,0.0718 -1.42434,0 -1.87089,0 -0.24945,0 -0.50141,0.0353 -0.74835,0 -0.49002,-0.07 -1.18563,-0.41893 -1.6838,-0.56126 -0.32488,-0.0928 -1.8255,-0.51588 -2.05798,-0.74836 -0.0986,-0.0986 -0.0885,-0.27557 -0.18709,-0.37417 -0.19721,-0.19721 -0.55114,-0.17697 -0.74835,-0.37418 -0.0986,-0.0986 -0.10342,-0.26262 -0.18709,-0.37418 -0.15875,-0.21167 -0.4145,-0.34112 -0.56126,-0.56127 -0.228,-0.34198 -0.3149,-0.79402 -0.56127,-1.12253 -0.10584,-0.14111 -0.26835,-0.23306 -0.37418,-0.37417 -0.0837,-0.11156 -0.1179,-0.25311 -0.18709,-0.37418 -0.1802,-0.31535 -1.00966,-1.60651 -1.12253,-2.05798 0,-1.24099 0.0882,0.26459 -0.18709,-0.56126 -0.0394,-0.11833 0.0394,-0.25586 0,-0.37418 -0.0279,-0.0837 -0.14765,-0.10821 -0.18709,-0.18709 -0.0777,-0.15537 0,-0.57099 0,-0.74835 0,-0.3584 -0.068,-1.4119 0,-1.6838 0.0338,-0.13529 0.1353,-0.2447 0.18709,-0.37418 0.0732,-0.1831 0.11385,-0.37816 0.18709,-0.56126 0.10358,-0.25895 0.31948,-0.47488 0.37418,-0.74836 0.0367,-0.18345 -0.0367,-0.37781 0,-0.56127 0.0274,-0.13674 0.15327,-0.23889 0.18709,-0.37417 0.0605,-0.24201 -0.0489,-0.50375 0,-0.74836 0.0387,-0.19338 0.14841,-0.36788 0.18709,-0.56126 0.0244,-0.12231 -0.0394,-0.25586 0,-0.37418 0.22614,-0.67844 0.41989,-0.73481 0.74835,-1.30962 0.13837,-0.24215 0.24945,-0.4989 0.37418,-0.74836 0.12472,-0.24945 0.28598,-0.48377 0.37418,-0.74835 0.10055,-0.30167 0.13481,-0.62178 0.18708,-0.93544 0.0205,-0.12303 -0.0558,-0.26262 0,-0.37418 0.0394,-0.0789 0.1592,-0.10342 0.18709,-0.18709 0.0394,-0.11832 -0.0558,-0.26262 0,-0.37418 0.0279,-0.0558 0.1592,0.0558 0.18709,0 0.0558,-0.11156 -0.0558,-0.26262 0,-0.37418 0.0279,-0.0558 0.14299,0.0441 0.18709,0 0.0882,-0.0882 -0.0558,-0.26261 0,-0.37417 0.0394,-0.0789 0.13817,-0.11371 0.18709,-0.18709 0.1547,-0.23206 0.21947,-0.5163 0.37417,-0.74835 0.14677,-0.22015 0.40252,-0.3496 0.56127,-0.56127 0.16734,-0.22312 0.20684,-0.52524 0.37418,-0.74836 0.10583,-0.14111 0.26834,-0.23306 0.37418,-0.37417 0.0837,-0.11156 0.0885,-0.27558 0.18709,-0.37418 0.0986,-0.0986 0.27557,-0.0885 0.37417,-0.18709 0.0986,-0.0986 0.10342,-0.26262 0.18709,-0.37418 1.00929,-1.34572 -0.20774,0.39483 0.74835,-0.56126 0.0986,-0.0986 0.0885,-0.27558 0.18709,-0.37418 0.0986,-0.0986 0.27558,-0.0885 0.37418,-0.18709 0.4544,-0.4544 -0.0556,-0.27472 0.37418,-0.56126 0.23205,-0.15471 0.5163,-0.21948 0.74835,-0.37418 0.42982,-0.28654 -0.0802,-0.10687 0.37418,-0.56127 0.0986,-0.0986 0.25815,-0.10974 0.37418,-0.18709 0.32418,-0.21612 0.83039,-0.97646 1.12253,-1.12253 0.0558,-0.0279 0.14299,0.0441 0.18709,0 0.0441,-0.0441 -0.0279,-0.13131 0,-0.18709 0.38931,-0.77862 -0.0129,0.20001 0.37418,-0.18709 0.0441,-0.0441 -0.0441,-0.14299 0,-0.18708 0.0441,-0.0441 0.13131,0.0279 0.18708,0 0.15777,-0.0789 0.22742,-0.27634 0.37418,-0.37418 0.11603,-0.0773 0.25815,-0.10974 0.37418,-0.18709 0.14676,-0.0978 0.22741,-0.27634 0.37418,-0.37418 0.11602,-0.0773 0.25815,-0.10974 0.37417,-0.18709 0.38017,-0.25344 0.78229,-0.78228 1.12254,-1.12253 0.12472,-0.12473 0.21641,-0.29529 0.37417,-0.37418 0.0558,-0.0279 0.143,0.0441 0.18709,0 0.0441,-0.0441 -0.0441,-0.14299 0,-0.18708 0.0441,-0.0441 0.14299,0.0441 0.18709,0 0.0441,-0.0441 -0.0441,-0.143 0,-0.18709 0.0441,-0.0441 0.13131,0.0279 0.18709,0 0.0789,-0.0394 0.1082,-0.14765 0.18709,-0.18709 0.0558,-0.0279 0.13131,0.0279 0.18709,0 0.27848,-0.13925 0.49887,-0.58204 0.74835,-0.74836 0.0519,-0.0346 0.12793,0.0197 0.18709,0 1.35516,-0.45172 -0.29496,0.0539 0.56127,-0.37417 0.19519,-0.0976 0.70944,0.0753 0.93544,0 0.74835,-0.24946 -0.0378,-0.17953 0.93544,-0.37418 0.12231,-0.0245 0.25188,0.0245 0.37418,0 0.38676,-0.0773 0.73348,-0.30934 1.12253,-0.37418 0.18454,-0.0308 0.37672,0.0308 0.56127,0 0.19452,-0.0324 0.36674,-0.15467 0.56126,-0.18709 0.60727,-0.10121 1.26109,0.0871 1.87089,0 0.25455,-0.0364 0.49321,-0.15519 0.74835,-0.18709 0.61117,-0.0764 1.42403,0 2.05798,0 0.4989,0 0.99781,0 1.49671,0 0.24945,0 0.50141,-0.0353 0.74835,0 0.19523,0.0279 0.36605,0.1592 0.56127,0.18709 0.26192,0.0374 0.91673,-0.0561 1.30962,0 0.25455,0.0364 0.49381,0.15073 0.74836,0.18709 0.18521,0.0265 0.37605,-0.0265 0.56126,0 0.64852,0.0927 1.24669,0.38292 1.87089,0.56127 2.33948,0.58487 -0.56918,-0.16263 1.30962,0.37417 0.49447,0.14128 1.01519,0.19361 1.49671,0.37418 0.26114,0.0979 0.48377,0.28598 0.74835,0.37418 0.30168,0.10056 0.63378,0.0865 0.93545,0.18709 3.31674,1.10558 -2.24164,-0.42928 1.6838,0.74835 0.69934,0.20981 1.76154,0.27387 2.43215,0.56127 0.20667,0.0886 0.36015,0.27362 0.56126,0.37417 0.35278,0.17639 0.75633,0.2277 1.12254,0.37418 0.12947,0.0518 0.2447,0.1353 0.37417,0.18709 0.38031,0.15213 0.60638,0.1548 0.93545,0.37418 0.0734,0.0489 0.1137,0.13817 0.18708,0.18709 0.11603,0.0774 0.25816,0.10974 0.37418,0.18709 0.0734,0.0489 0.10821,0.14764 0.18709,0.18709 0.55057,0.27528 -0.24632,-0.43341 0.37418,0.18708"
       id="path9965"
       inkscape:connector-curvature="0" />
    <path
       style="fill:none;fill-opacity:1;stroke:#0e0a08;stroke-width:3;stroke-miterlimit:4;stroke-dasharray:none;stroke-opacity:1"
       d="m 168.00562,160.98655 c -0.8621,0.16756 -1.60017,0.68585 -2.43215,0.93544 -0.30458,0.0914 -0.63086,0.0957 -0.93544,0.18709 -0.32167,0.0965 -0.61685,0.26798 -0.93545,0.37418 -0.43993,0.14664 -0.86969,0.22753 -1.30962,0.37418 -0.3655,-0.008 -0.61684,0.26797 -0.93544,0.37417 -0.14296,0.0477 -0.40948,0 -0.56127,0 -0.0624,0 -0.1592,0.0558 -0.18708,0 -0.0806,-0.16121 0.0366,-1.95197 0,-2.24506 -0.0319,-0.25514 -0.15073,-0.49381 -0.18709,-0.74835 -0.0529,-0.37042 0.0615,-0.75345 0,-1.12254 -0.27372,-1.64229 -0.0688,0.28599 -0.37418,-0.93544 -0.0302,-0.121 0.0302,-0.25318 0,-0.37418 -0.0443,-0.17716 -0.34742,-0.67707 -0.56127,-0.74835 -0.29581,-0.0986 -0.62968,0.0611 -0.93544,0 -0.13674,-0.0274 -0.23744,-0.15974 -0.37418,-0.18709 -0.1177,-0.0236 -1.14534,-0.0411 -1.30962,0 -0.13528,0.0338 -0.23889,0.15327 -0.37417,0.18709 -0.0865,0.0216 -0.71736,0.031 -0.74836,0 -0.0441,-0.0441 0.0151,-0.12659 0,-0.18709 -0.0478,-0.19132 -0.11385,-0.37816 -0.18709,-0.56127 -0.0518,-0.12947 -0.18709,-0.23473 -0.18709,-0.37417 0,-0.19721 0.15467,-0.36674 0.18709,-0.56127 0.0308,-0.18454 0,-0.37418 0,-0.56126 0,-0.49891 0,-0.99781 0,-1.49672 0,-0.68599 0,-1.37198 0,-2.05797 0,-0.24945 -0.0309,-0.50083 0,-0.74835 0.0319,-0.25515 0.15073,-0.49382 0.18709,-0.74836 0.3307,-2.31487 -0.40775,1.25681 0.18709,-1.12253 0.0203,-0.0813 0.0446,-0.84634 0,-0.93544 -0.20001,-0.40001 -0.29355,0.0775 -0.18709,-0.56127 0.0845,-0.50726 0.31039,-0.98642 0.37418,-1.49671 0.0309,-0.24752 -0.0248,-0.50014 0,-0.74835 0.0369,-0.36925 0.28239,-1.64496 0.37418,-2.05798 0.0558,-0.25101 0.15072,-0.49381 0.18708,-0.74835 0.0777,-0.54409 0,-1.45169 0,-2.05798 0,-0.24945 -0.0489,-0.50375 0,-0.74836 0.0387,-0.19337 0.15467,-0.36673 0.18709,-0.56126 0.0718,-0.4306 -0.0617,-0.87747 0,-1.30962 0.0279,-0.19523 0.15467,-0.36674 0.18709,-0.56127 0.0992,-0.59525 -0.0454,-0.55582 -0.18709,-1.12253 -0.0302,-0.121 0.0558,-0.26262 0,-0.37418 -0.38931,-0.77862 0.0129,0.20001 -0.37417,-0.18709 -0.0441,-0.0441 0.0441,-0.14299 0,-0.18708 -0.13765,-0.13764 -0.33765,0.15055 -0.37418,0.18708 -0.12473,0.12473 -0.21641,0.2953 -0.37418,0.37418 -0.0558,0.0279 -0.13131,-0.0279 -0.18709,0 -0.77862,0.38931 0.2,-0.0129 -0.18709,0.37418 -0.1063,0.1063 -0.37418,-0.20294 -0.37418,0.37418 0,0.27437 -0.0735,1.72394 0,1.87088 0.0789,0.15777 0.2953,0.21641 0.37418,0.37418 0.0279,0.0558 -0.0441,0.14299 0,0.18709 0.0441,0.0441 0.14299,-0.0441 0.18709,0 0.0441,0.0441 -0.0279,0.13131 0,0.18709 0.16032,0.32063 0.56127,0.32662 0.56127,0.74835"
       id="path9967"
       inkscape:connector-curvature="0" />
    <path
       style="fill:none;fill-opacity:1;stroke:#0e0a08;stroke-width:3;stroke-miterlimit:4;stroke-dasharray:none;stroke-opacity:1"
       d="m 156.21904,139.65844 c 0.62363,-0.12473 1.27319,-0.15683 1.87088,-0.37418 0.13106,-0.0476 0.10342,-0.26261 0.18709,-0.37417 0.23487,-0.31316 0.65852,-0.65853 0.93545,-0.93544 0.24064,-0.24065 0.56053,-0.46663 0.74835,-0.74836 0.0773,-0.11603 0.0885,-0.27557 0.18709,-0.37418 0.0986,-0.0986 0.27557,-0.0885 0.37418,-0.18709 0.28063,-0.28063 0.28063,-0.84189 0.56126,-1.12253 0.0986,-0.0986 0.27557,-0.0885 0.37418,-0.18709 0.0986,-0.0986 0.10342,-0.26262 0.18709,-0.37417 0.10583,-0.14112 0.26834,-0.23307 0.37417,-0.37418 0.16734,-0.22312 0.20685,-0.52524 0.37418,-0.74836 0.10584,-0.14111 0.26835,-0.23306 0.37418,-0.37417 0.16734,-0.22312 0.21947,-0.5163 0.37418,-0.74836 0.13759,-0.20639 0.45075,-0.34024 0.56126,-0.56126 0.0279,-0.0558 -0.0279,-0.13131 0,-0.18709 0.38931,-0.77862 -0.0129,0.2 0.37418,-0.18709 0.0441,-0.0441 -0.0441,-0.14299 0,-0.18709 1.8e-4,-1.8e-4 0.56042,2.7e-4 0.56127,0 0.0837,-0.0279 0.1082,-0.14765 0.18708,-0.18709 0.15538,-0.0777 0.57099,0 0.74836,0 0.29821,0 1.49056,0.0644 1.6838,0 0.0837,-0.0279 0.1082,-0.14765 0.18709,-0.18709 0.0558,-0.0279 0.12472,0 0.18709,0 0.12472,-0.0624 0.25815,-0.10973 0.37417,-0.18709 0.20639,-0.13759 0.34025,-0.45075 0.56127,-0.56126 0.0558,-0.0279 0.14299,0.0441 0.18709,0 0.0986,-0.0986 0.10973,-0.25815 0.18709,-0.37418 0.0978,-0.14676 0.29529,-0.21641 0.37417,-0.37418 0.0279,-0.0558 0,-0.12472 0,-0.18709 0.0624,-0.0624 0.14765,-0.1082 0.18709,-0.18709 0.0279,-0.0558 -0.0279,-0.1313 0,-0.18708 0.0394,-0.0789 0.13817,-0.11371 0.18709,-0.18709 0.30045,-0.45067 0.50587,-1.01175 0.74836,-1.49671 0.15326,-0.30653 0.48135,-0.80287 0.56126,-1.12253 0.0302,-0.121 -0.0394,-0.25585 0,-0.37418 0.0279,-0.0837 0.1592,-0.10342 0.18709,-0.18709 0.0316,-0.0947 0.0123,-1.82179 0,-1.87088 -0.30536,-1.22143 -0.10046,0.70685 -0.37418,-0.93545 -0.0513,-0.30757 0.0756,-0.63294 0,-0.93544 -0.0338,-0.13529 -0.14299,-0.24189 -0.18709,-0.37418 -0.0197,-0.0592 0.0279,-0.13131 0,-0.18709 -0.0394,-0.0789 -0.14764,-0.1082 -0.18708,-0.18709 -0.27529,-0.55056 0.4334,0.24632 -0.18709,-0.37417"
       id="path9969"
       inkscape:connector-curvature="0" />
    <path
       style="fill:none;fill-opacity:1;stroke:#0e0a08;stroke-width:3;stroke-miterlimit:4;stroke-dasharray:none;stroke-opacity:1"
       d="m 178.32916,121.58126 c 0.11351,0.41307 0.0578,0.9174 0.34052,1.2392 0.0209,0.0238 1.18482,-0.0178 1.30962,0 1.73312,0.24759 -0.22937,0.18709 1.49671,0.18709 0.43654,0 0.87746,-0.0617 1.30962,0 0.25454,0.0364 0.49381,0.15073 0.74835,0.18709 0.54438,0.0778 1.14515,-0.10773 1.6838,0 0.13674,0.0273 0.23889,0.15327 0.37418,0.18709 0.41086,0.10271 0.89876,-0.10272 1.30962,0 0.13528,0.0338 0.24945,0.12472 0.37418,0.18709 0.18708,0 0.37781,-0.0367 0.56126,0 0.0649,0.013 0.80572,0.34823 0.93544,0.37418 0.12231,0.0245 0.25318,-0.0303 0.37418,0 0.13529,0.0338 0.24946,0.12472 0.37418,0.18708 0.18709,0.0624 0.36789,0.14841 0.56127,0.18709 0.1223,0.0245 0.25585,-0.0394 0.37417,0 0.0837,0.0279 0.10342,0.1592 0.18709,0.18709 0.11833,0.0394 0.25318,-0.0302 0.37418,0 0.13528,0.0338 0.23889,0.15327 0.37418,0.18709 0.32372,0.0809 1.27474,0 1.68379,0 0.0624,0 0.14414,0.0452 0.18709,0 0.78823,-0.82981 1.50966,-1.72061 2.26449,-2.58092"
       id="path9971"
       inkscape:connector-curvature="0" />
    <path
       style="fill:none;fill-opacity:1;stroke:#0e0a08;stroke-width:3;stroke-miterlimit:4;stroke-dasharray:none;stroke-opacity:1"
       d="m 170.99904,158.5544 c 0.0624,0.4989 -0.0378,1.047 0.18709,1.49671 0.0204,0.0409 1.50304,0 2.05798,0 0.87308,0 1.74616,0 2.61924,0 0.29168,0 0.85364,0.0672 1.12253,0 0.13528,-0.0338 0.23889,-0.15327 0.37418,-0.18709 0.121,-0.0303 0.24945,0 0.37417,0 0.56127,0 1.12253,0 1.6838,0 0.18709,0 0.37781,0.0367 0.56127,0 1.21434,-0.24287 -0.41696,-0.18709 0.74835,-0.18709 0.17593,0 0.62061,0.0639 0.74836,0 0.0789,-0.0394 0.1082,-0.14765 0.18708,-0.18709 0.0558,-0.0279 0.13131,0.0279 0.18709,0 0.0789,-0.0394 0.10821,-0.14765 0.18709,-0.18709 0.11156,-0.0558 0.26262,0.0558 0.37418,0 0.0789,-0.0394 0.10821,-0.14765 0.18709,-0.18709 0.0558,-0.0279 0.12472,0 0.18709,0 0.12472,-0.0624 0.25815,-0.10973 0.37418,-0.18708 0.0734,-0.0489 0.1137,-0.13817 0.18708,-0.18709 0.11603,-0.0773 0.25815,-0.10974 0.37418,-0.18709 0.0734,-0.0489 0.10821,-0.14765 0.18709,-0.18709 0.17639,-0.0882 0.4035,-0.0688 0.56127,-0.18709 0.11155,-0.0837 0.0885,-0.27557 0.18708,-0.37418 0.0986,-0.0986 0.27558,-0.0885 0.37418,-0.18708 0.9561,-0.9561 -0.78446,0.26093 0.56127,-0.74836 0.11155,-0.0837 0.24945,-0.12472 0.37417,-0.18709 0.12473,-0.12472 0.23307,-0.26834 0.37418,-0.37418 0.11156,-0.0837 0.27558,-0.0885 0.37418,-0.18709 0.0986,-0.0986 0.10342,-0.26261 0.18709,-0.37417 0.10583,-0.14111 0.24945,-0.24945 0.37418,-0.37418 0.43653,-0.43654 0.87308,-0.87308 1.30962,-1.30962 0.27828,-0.27829 0.61084,-0.71905 0.93544,-0.93544 0.11603,-0.0774 0.25815,-0.10974 0.37418,-0.18709 0.12755,-0.085 0.68527,-0.62219 0.74835,-0.74836 0.0279,-0.0558 -0.0441,-0.14299 0,-0.18709 0.0441,-0.0441 0.14299,0.0441 0.18709,0 0.0441,-0.0441 -0.0279,-0.1313 0,-0.18708 0.0789,-0.15777 0.27633,-0.22742 0.37418,-0.37418 0.0773,-0.11603 0.0885,-0.27557 0.18709,-0.37418 0.0986,-0.0986 0.27557,-0.0885 0.37417,-0.18709 0.0986,-0.0986 0.10342,-0.26262 0.18709,-0.37417 0.10584,-0.14112 0.26835,-0.23307 0.37418,-0.37418 0.16734,-0.22312 0.20684,-0.52524 0.37418,-0.74836 0.10583,-0.14111 0.26834,-0.23306 0.37417,-0.37417 0.28729,-0.38306 0.31497,-0.89912 0.56127,-1.30962 0.11569,-0.19281 0.27362,-0.36016 0.37418,-0.56127 0.0882,-0.17639 0.1094,-0.38 0.18709,-0.56127 0.32068,-0.74825 0.71862,-1.53823 1.12253,-2.24506 0.11156,-0.19523 0.26262,-0.36604 0.37417,-0.56127 0.41448,-0.72532 0.70806,-1.51973 1.12254,-2.24506 0.53683,-0.93946 0.26375,-0.17889 0.74835,-1.30962 0.25802,-0.60205 0.31801,-1.26274 0.56127,-1.87089 0.10358,-0.25895 0.28598,-0.48377 0.37418,-0.74835 0.0197,-0.0592 -0.0197,-0.12793 0,-0.18709 0.17174,-0.51523 0.18708,-0.26102 0.18708,-0.74836 0,-1.24725 0,-2.49451 0,-3.74177 0,-0.4016 0.0714,-1.32693 0,-1.6838 -0.0273,-0.13674 -0.15974,-0.23743 -0.18708,-0.37417 -0.0367,-0.18346 0.0367,-0.37782 0,-0.56127 -0.0575,-0.28764 -0.42166,-0.84331 -0.56127,-1.12253 -0.0624,-0.12473 -0.10974,-0.25815 -0.18709,-0.37418 -0.0489,-0.0734 -0.1592,-0.10342 -0.18709,-0.18709 -0.0394,-0.11832 0.0558,-0.26262 0,-0.37418 -0.0279,-0.0558 -0.13131,0.0279 -0.18709,0 -0.77861,-0.3893 0.20001,0.0129 -0.18708,-0.37417 -0.0441,-0.0441 -0.143,0.0441 -0.18709,0 -0.0441,-0.0441 0.0441,-0.14299 0,-0.18709 -0.0441,-0.0441 -0.12793,0.0197 -0.18709,0 -0.1323,-0.0441 -0.25815,-0.10974 -0.37418,-0.18709 -0.24326,-0.16218 -0.2437,-0.37418 -0.56127,-0.37418"
       id="path9973"
       inkscape:connector-curvature="0" />
    <path
       style="fill:none;fill-opacity:1;stroke:#0e0a08;stroke-width:3;stroke-miterlimit:4;stroke-dasharray:none;stroke-opacity:1"
       d="m 195.88183,127.1235 c -0.43654,0.4989 -1.01315,0.90377 -1.30962,1.49671 -0.0789,0.15777 0.26399,0.23644 0.37418,0.37418 0.14046,0.17558 0.21518,0.40227 0.37418,0.56126 0.0986,0.0986 0.29051,0.0755 0.37417,0.18709 0.35772,1.07316 -0.0551,0.11365 0.56127,0.93545 0.56708,0.7561 0.0296,0.0889 0.18709,0.56126 -0.11276,0.33862 0.30307,0.34796 0.37418,0.56127 0.0394,0.11832 -0.0303,0.25318 0,0.37418 0.43428,0.86857 0.0159,-0.10769 0.18709,0.74835 -0.065,0.38066 0.30831,0.60613 0.37417,0.93544 0.0367,0.18346 -0.0367,0.37781 0,0.56127 0.0274,0.13674 0.15327,0.23889 0.18709,0.37418 0.0605,0.242 -0.0605,0.50635 0,0.74835 0.0338,0.13529 0.15327,0.23889 0.18709,0.37418 0.0668,0.26706 0,0.99144 0,1.30962"
       id="path9975"
       inkscape:connector-curvature="0" />
    <path
       style="fill:none;fill-opacity:1;stroke:#0e0a08;stroke-width:3;stroke-miterlimit:4;stroke-dasharray:none;stroke-opacity:1"
       d="m 189.70791,157.24478 c 0.47249,-0.26082 0.6992,-0.80504 1.12253,-1.12254 0.11156,-0.0837 0.25815,-0.10973 0.37418,-0.18708 0.0734,-0.0489 0.1137,-0.13817 0.18709,-0.18709 0.30996,-0.20664 0.42491,-0.18709 0.74835,-0.18709 0.0624,0 0.13131,-0.0279 0.18709,0 0.0789,0.0394 0.1592,0.10342 0.18709,0.18709 0.0394,0.11832 -0.0205,0.25115 0,0.37417 0.0423,0.25364 0.15869,0.4928 0.18709,0.74836 0.10959,0.98637 -0.1109,1.17837 -0.18709,2.24506 -0.0622,0.87087 0,1.74617 0,2.61925 0,1.12253 0,2.24506 0,3.36759 0,0.43654 0,0.87308 0,1.30962 0,0.0624 -0.0441,0.14299 0,0.18709 0.008,0.008 0.67965,0 0.74835,0 0.85168,0 0.0107,0.0882 0.56127,-0.18709 0.13169,-0.0658 1.43751,0 1.6838,0 0.17736,0 0.59298,-0.0777 0.74835,0 0.38577,0.19288 -0.0131,0.18709 0.56127,0.18709"
       id="path9981"
       inkscape:connector-curvature="0" />
    <path
       style="fill:none;fill-opacity:1;stroke:#0e0a08;stroke-width:3;stroke-miterlimit:4;stroke-dasharray:none;stroke-opacity:1"
       d="m 198.68816,149.19996 c 0.43655,-0.74835 0.86888,-1.49918 1.30963,-2.24506 0.73996,-1.25225 1.45488,-2.52058 2.24506,-3.74177 0.29143,-0.4504 0.63008,-0.86855 0.93544,-1.30962 0.25598,-0.36975 0.49047,-0.75412 0.74836,-1.12253 1.22615,-1.75165 -0.0887,0.14384 1.12253,-1.30963 0.14394,-0.17273 0.21518,-0.40227 0.37418,-0.56126 0.0986,-0.0986 0.24188,-0.14299 0.37417,-0.18709 0.0592,-0.0197 0.143,0.0441 0.18709,0 0.0441,-0.0441 -0.0197,-0.24625 0,-0.18709 0.28799,0.86395 0.26118,1.74865 0,2.61924 -0.0965,0.32167 -0.27767,0.61377 -0.37418,0.93545 -0.0914,0.30457 -0.0865,0.63377 -0.18708,0.93544 -0.0882,0.26458 -0.27625,0.48722 -0.37418,0.74835 -0.20843,0.55582 -0.22117,1.17366 -0.56127,1.6838 -0.0948,0.14227 -0.48857,0.37418 -0.18708,0.37418 0.1617,0 0.51731,-0.83289 0.56126,-0.93544 0.0777,-0.18127 0.12473,-0.37418 0.18709,-0.56127 0.12473,-0.31181 0.23778,-0.62855 0.37418,-0.93544 0.22654,-0.50972 0.52863,-0.98402 0.74835,-1.49671 0.15537,-0.36253 0.2277,-0.75633 0.37418,-1.12253 0.0518,-0.12948 0.10974,-0.25816 0.18709,-0.37418 0.0489,-0.0734 0.1592,-0.10342 0.18709,-0.18709 0.0394,-0.11833 -0.0395,-0.25585 0,-0.37418 0.23118,-0.69356 0.18709,0.22805 0.18709,-0.37418"
       id="path9983"
       inkscape:connector-curvature="0" />
    <path
       style="fill:none;fill-opacity:1;stroke:#0e0a08;stroke-width:3;stroke-miterlimit:4;stroke-dasharray:none;stroke-opacity:1"
       d="m 203.73956,131.05236 c -0.31182,0.43654 -0.63787,0.86326 -0.93545,1.30962 -0.0489,0.0734 0.12473,-0.12472 0.18709,-0.18708 0.13428,-0.13428 0.34157,-0.29694 0.56127,-0.18709 0.30339,0.15169 0.52257,0.85162 0.56127,1.12253 0.0794,0.55562 0,1.12253 0,1.6838 0,1.06017 0,2.12034 0,3.18051 0,0.0707 -5.3e-4,1.30906 0,1.30961 0.0441,0.0441 0.12472,0 0.18709,0 0.12472,0 0.25317,0.0303 0.37417,0 0.13529,-0.0338 0.2447,-0.13529 0.37418,-0.18708 0.1831,-0.0732 0.38488,-0.0989 0.56126,-0.18709 0.20112,-0.10056 0.37418,-0.24945 0.56127,-0.37418 0.74522,-0.49681 1.47717,-1.03597 2.24506,-1.49671 0.3553,-0.21318 0.77796,-0.33155 1.12254,-0.56127 0.20639,-0.13759 0.34024,-0.45075 0.56126,-0.56126 0.0558,-0.0279 0.13131,0.0279 0.18709,0 0.15777,-0.0789 0.21641,-0.29529 0.37418,-0.37418 0.0558,-0.0279 0.14299,0.0441 0.18709,0 0.0441,-0.0441 -0.0441,-0.14299 0,-0.18709 0.0441,-0.0441 0.14299,0.0441 0.18709,0 0.0441,-0.0441 0,-0.12472 0,-0.18709"
       id="path9985"
       inkscape:connector-curvature="0" />
    <path
       style="fill:none;fill-opacity:1;stroke:#0e0a08;stroke-width:3;stroke-miterlimit:4;stroke-dasharray:none;stroke-opacity:1"
       d="m 195.88183,127.1235 c 0.37418,-0.62363 0.58196,-1.38437 1.12254,-1.87089 0.0906,-0.0816 1.15561,0.34851 1.30962,0.37418 1.76117,0.29353 -0.91597,-0.44879 1.30962,0.18709 0.55137,0.15754 1.11889,0.46712 1.6838,0.56127 0.18454,0.0307 0.37781,-0.0367 0.56126,0 0.13674,0.0273 0.23889,0.15326 0.37418,0.18709 0.121,0.0302 0.24945,0 0.37418,0 0.12472,0.0624 0.24188,0.14299 0.37417,0.18708 0.11833,0.0395 0.26262,-0.0558 0.37418,0 0.6205,0.6205 -0.17639,-0.0882 0.37418,0.18709 0.2245,0.11226 0.33676,0.44902 0.56127,0.56127 0.0558,0.0279 0.13519,-0.0346 0.18708,0 0.14677,0.0978 0.23307,0.26834 0.37418,0.37418 0.11156,0.0837 0.24945,0.12472 0.37418,0.18709 0.18709,0.12472 0.38568,0.23371 0.56126,0.37417 0.40917,0.32733 0.70353,0.80828 1.12254,1.12253 0.11155,0.0837 0.26262,0.10342 0.37417,0.18709 0.43588,0.32691 0.9118,0.9118 1.30962,1.30962 0.18709,0.18709 0.34112,0.41451 0.56127,0.56127 0.67959,0.45306 0.1323,-0.0548 0.56127,0.37418 0.13012,0.13012 0.83395,0.90161 0.93544,0.93544 0.11832,0.0394 0.25585,-0.0394 0.37418,0 0.0837,0.0279 0.1137,0.13817 0.18709,0.18709 1.3565,0.67825 -0.29582,-0.19721 0.56126,0.37418 0.34601,0.23067 0.90784,0.1919 0.74835,0.37417 -0.43653,0.49891 -0.9978,0.87308 -1.4967,1.30962"
       id="path9987"
       inkscape:connector-curvature="0" />
    <path
       style="fill:none;fill-opacity:1;stroke:#0e0a08;stroke-width:3;stroke-miterlimit:4;stroke-dasharray:none;stroke-opacity:1"
       d="m 201.21562,132.42918 c -0.0125,0.33497 0.21181,0.60938 0.26459,0.92604 0.0217,0.13049 -0.0164,0.26561 0,0.39688 0.0279,0.22311 0.10746,0.43798 0.13229,0.66146 0.0195,0.17531 0,0.35277 0,0.52916 0,0.52917 0,1.05834 0,1.5875 0,0.52917 0.0479,1.06051 0,1.5875 -0.0204,0.22393 -0.10992,0.43772 -0.13229,0.66146 -0.0439,0.43879 0.0439,0.88413 0,1.32292 -0.35631,1.78152 0.045,-0.44971 -0.1323,1.32291 -0.0447,0.44748 -0.21983,0.87545 -0.26458,1.32292 -0.0219,0.21939 0.0394,0.44453 0,0.66146 -0.0499,0.2744 -0.19694,0.52318 -0.26458,0.79375 -0.0651,0.26022 -0.0617,0.53497 -0.13229,0.79375 -0.0625,0.2291 -0.18343,0.43828 -0.26459,0.66146 -0.51817,1.42497 -0.002,0.26964 -0.79375,2.24895 -0.0732,0.18311 -0.18449,0.34896 -0.26458,0.52917 -0.0965,0.217 -0.18949,0.43618 -0.26458,0.66146 -0.0575,0.17249 -0.051,0.36654 -0.1323,0.52917 -0.0986,0.19721 -0.28001,0.34219 -0.39687,0.52916 -0.68821,1.10114 0.0532,0.0258 -0.39688,0.92604 -0.32373,0.64749 -0.16002,0.16927 -0.52916,0.66146 -0.0592,0.0789 -0.0626,0.19486 -0.13229,0.26459 -0.0697,0.0697 -0.18254,0.0776 -0.26459,0.13229 -0.21142,0.14095 -0.45433,0.55789 -0.66146,0.66146 -0.0394,0.0197 -0.10111,-0.0312 -0.13229,0 -0.0312,0.0312 0,0.0882 0,0.13229"
       id="path9989"
       inkscape:connector-curvature="0" />
    <path
       style="fill:none;fill-opacity:1;stroke:#0e0a08;stroke-width:3;stroke-miterlimit:4;stroke-dasharray:none;stroke-opacity:1"
       d="m 192.35208,153.59585 c 0.17019,-0.45221 0.37721,-0.86705 0.52917,-1.32292 0.0441,-0.13229 0.0699,-0.27215 0.13229,-0.39688 0.0711,-0.1422 0.19348,-0.25466 0.26458,-0.39687 0.0624,-0.12472 0.0805,-0.2674 0.13229,-0.39688 0.0366,-0.0916 0.10111,-0.17103 0.1323,-0.26458 0.0848,-0.25432 0.13718,-0.67124 0.26458,-0.92604 0.0711,-0.14221 0.19348,-0.25467 0.26458,-0.39688 0.74209,-1.48417 -0.70425,1.00094 0.39688,-0.92604 0.75826,-1.13738 -0.15084,0.30168 0.39687,-0.79375 0.0711,-0.1422 0.19348,-0.25466 0.26459,-0.39687 0.0624,-0.12473 0.0699,-0.27215 0.13229,-0.39688 0.0711,-0.1422 0.19348,-0.25466 0.26458,-0.39687 0.37861,-0.75722 -0.0822,-0.0835 0.26458,-0.66146 0.18636,-0.31059 0.27592,-0.35906 0.39688,-0.66146 0.0518,-0.12947 0.0486,-0.28531 0.13229,-0.39687 0.0592,-0.0789 0.20542,-0.0534 0.26458,-0.1323 0.16734,-0.22311 0.1211,-0.55459 0.26459,-0.79375 0.0642,-0.10695 0.18975,-0.1648 0.26458,-0.26458 0.0592,-0.0789 0.0816,-0.18003 0.13229,-0.26458 0.0882,-0.13229 0.17639,-0.26458 0.26459,-0.39688 0.0441,-0.0441 0.0977,-0.0804 0.13229,-0.13229 0.29981,-0.44971 0.0177,-0.071 0.13229,-0.52916 0.0239,-0.0957 0.0882,-0.17639 0.13229,-0.26459 0.0441,-0.0882 0.0776,-0.18254 0.13229,-0.26458 0.0692,-0.10378 0.20881,-0.15303 0.26459,-0.26458 0.0197,-0.0394 -0.0197,-0.0929 0,-0.1323 0.0279,-0.0558 0.1044,-0.0765 0.13229,-0.13229 0.0394,-0.0789 -0.0624,-0.20222 0,-0.26458 0.0312,-0.0312 0.0882,0 0.13229,0 0.11915,0 0.57754,-0.042 0.66146,0 0.0558,0.0279 0.0746,0.15603 0.13229,0.13229 0.72942,-0.30035 1.41111,-0.70555 2.11667,-1.05833"
       id="path9991"
       inkscape:connector-curvature="0" />
    <path
       style="fill:none;fill-opacity:1;stroke:#0e0a08;stroke-width:3;stroke-miterlimit:4;stroke-dasharray:none;stroke-opacity:1"
       d="m 196.98229,145.92293 c 0.30868,0.22049 0.61736,0.44097 0.92604,0.66146 0.22049,0.13229 0.45081,0.24942 0.66146,0.39687 0.23132,0.16193 0.43014,0.36725 0.66146,0.52917 0.21065,0.14745 0.45081,0.24942 0.66146,0.39687 0.23131,0.16193 0.43014,0.36725 0.66145,0.52917 0.80745,0.56522 0.4927,0.19552 1.19063,0.79375 0.14205,0.12176 0.26458,0.26458 0.39687,0.39688 0.17639,0.13229 0.35979,0.25572 0.52917,0.39687 0.0958,0.0799 0.15763,0.20041 0.26458,0.26458 0.11958,0.0718 0.2773,0.0606 0.39688,0.1323 0.66146,0.39687 0,0.13229 0.39687,0.39687 0.082,0.0547 0.18254,0.0776 0.26459,0.13229 0.24194,0.16129 0.45525,0.45526 0.66146,0.66146 0.25322,0.25323 0.57913,0.50759 0.79375,0.79375 0.11832,0.15777 0.15519,0.36508 0.26458,0.52917 0.0346,0.0519 0.0882,0.0882 0.13229,0.13229 0.0441,0.0882 0.0776,0.18254 0.13229,0.26458 0.0692,0.10378 0.20881,0.15303 0.26459,0.26459 0.0197,0.0394 -0.0312,0.10111 0,0.13229 0.0312,0.0312 0.10111,-0.0312 0.13229,0 0.0624,0.0624 0,0.17639 0,0.26458"
       id="path9993"
       inkscape:connector-curvature="0" />
    <path
       style="fill:none;fill-opacity:1;stroke:#0e0a08;stroke-width:3;stroke-miterlimit:4;stroke-dasharray:none;stroke-opacity:1"
       d="m 199.62812,153.19897 c 0.30647,-1.06013 0.62316,-2.1149 0.92604,-3.175 0.0766,-0.26816 0.21874,-0.51865 0.26459,-0.79375 0.0217,-0.13049 -0.0217,-0.26638 0,-0.39687 0.0229,-0.13755 0.0882,-0.26459 0.13229,-0.39688 0.0441,-0.13229 0.0699,-0.27215 0.13229,-0.39687 0.0279,-0.0558 0.0977,-0.0804 0.13229,-0.1323 0.0547,-0.082 0.0882,-0.17638 0.13229,-0.26458 0.0441,-0.0882 0.10111,-0.17104 0.1323,-0.26458 0.0139,-0.0418 -0.0197,-0.0928 0,-0.13229 0.16347,-0.32695 0.13229,0.0457 0.13229,-0.26459"
       id="path9995"
       inkscape:connector-curvature="0" />
    <path
       style="fill:none;fill-opacity:1;stroke:#0e0a08;stroke-width:3;stroke-miterlimit:4;stroke-dasharray:none;stroke-opacity:1"
       d="m 185.96613,156.68351 c 0.18837,0.69057 0.23238,1.43794 0.56512,2.07171 0.11038,0.21026 0.44906,0.15838 0.66146,0.26458 0.22998,0.115 0.44097,0.26459 0.66145,0.39688 0.88014,0.52808 1.74867,1.08907 2.64584,1.5875 0.34478,0.19154 0.73738,0.29992 1.05833,0.52917 0.15224,0.10874 0.24121,0.29309 0.39688,0.39687 0.11602,0.0773 0.2773,0.0606 0.39687,0.13229 0.10695,0.0642 0.1648,0.18975 0.26458,0.26459 0.0789,0.0592 0.1857,0.0731 0.26459,0.13229 0.15558,0.11669 0.34293,0.43605 0.52916,0.52916 0.0394,0.0197 0.10111,-0.0312 0.1323,0 0.0312,0.0312 -0.0312,0.10112 0,0.1323 0.0312,0.0312 0.0882,0 0.13229,0 0.0441,0.0441 0.0977,0.0804 0.13229,0.13229 0.0547,0.082 0.0776,0.18254 0.13229,0.26458 0.0346,0.0519 0.0949,0.0824 0.13229,0.13229 0.0954,0.1272 0.16526,0.27272 0.26459,0.39688 0.0779,0.0974 0.18974,0.1648 0.26458,0.26458 0.0592,0.0789 0.0731,0.1857 0.13229,0.26458 0.18325,0.24434 0.49217,0.40753 0.66146,0.66146 0.10939,0.16409 0.15519,0.36508 0.26458,0.52917 0.0692,0.10378 0.17639,0.17639 0.26459,0.26458 0.13229,0.13229 0.29309,0.24121 0.39687,0.39688 0.0245,0.0367 -0.0245,0.0956 0,0.13229 0.0807,0.121 0.77715,0.81437 0.92604,0.92604 0.1272,0.0954 0.26968,0.16919 0.39688,0.26458 0.0499,0.0374 0.0804,0.0977 0.13229,0.1323 0.48054,0.32036 0.0935,-0.0387 0.39687,0.26458 0.0441,0.0441 0.0765,0.1044 0.1323,0.13229 0.0394,0.0197 0.16152,0.033 0.13229,0 -0.51582,-0.58275 -1.08015,-1.12067 -1.62022,-1.68101"
       id="path9997"
       inkscape:connector-curvature="0" />
    <path
       style="fill:none;fill-opacity:1;stroke:#0e0a08;stroke-width:3;stroke-miterlimit:4;stroke-dasharray:none;stroke-opacity:1"
       d="m 196.81728,166.59921 c -0.29778,-0.98307 -0.61266,-1.96111 -0.89332,-2.9492 -0.0522,-0.18391 -0.25358,-1.32311 -0.26459,-1.45521 -0.022,-0.26367 0.022,-0.53007 0,-0.79375 -0.0191,-0.22976 -0.20552,-1.18942 -0.26458,-1.4552 -0.0394,-0.17749 -0.11221,-0.34847 -0.13229,-0.52917 -0.0243,-0.21914 0.0243,-0.44232 0,-0.66146 -0.0402,-0.36141 -0.21948,-0.6975 -0.26459,-1.05833 -0.0219,-0.17503 0.025,-0.35455 0,-0.52917 -0.0454,-0.31781 -0.21918,-0.60823 -0.26458,-0.92604 -0.0436,-0.30558 0,-0.61736 0,-0.92604 0,-0.39688 0,-0.79375 0,-1.19063 0,-0.22048 0.0432,-0.44525 0,-0.66146 -0.0193,-0.0967 -0.11295,-0.16789 -0.13229,-0.26458 -0.0432,-0.2162 0,-0.44097 0,-0.66146 0,-0.26458 0,-0.52916 0,-0.79375 0,-0.0882 -0.0718,-0.31584 0,-0.26458 0.63888,0.45635 1.23472,0.97014 1.85208,1.45521"
       id="path9999"
       inkscape:connector-curvature="0" />
    <path
       style="fill:none;fill-opacity:1;stroke:#0e0a08;stroke-width:3;stroke-miterlimit:4;stroke-dasharray:none;stroke-opacity:1"
       d="m 192.35208,153.59585 c -0.70556,0.39687 -1.45532,0.72379 -2.11667,1.19062 -0.11392,0.0804 -0.0805,0.2674 -0.13229,0.39688 -0.0366,0.0916 -0.0816,0.18003 -0.13229,0.26458 -0.11321,0.18869 -0.32127,0.43466 -0.39687,0.66146 -0.0139,0.0418 0.0197,0.0928 0,0.13229 -0.0558,0.11156 -0.22515,0.14626 -0.26459,0.26458 -0.0739,0.22158 0.0638,0.93528 0,1.19063 -0.0239,0.0957 -0.10837,0.16892 -0.13229,0.26458 -0.0492,0.19675 0,0.82165 0,1.05833 0,0.0882 0,0.17639 0,0.26459 0,0.0441 -0.0111,0.17496 0,0.13229 0.18771,-0.72125 0.35389,-1.44794 0.53083,-2.1719"
       id="path10001"
       inkscape:connector-curvature="0" />
    <path
       style="fill:none;fill-opacity:1;stroke:#0e0a08;stroke-width:3;stroke-miterlimit:4;stroke-dasharray:none;stroke-opacity:1"
       d="m 158.48541,162.72397 c -0.0441,-0.17639 -0.0882,-0.35278 -0.13229,-0.52917 0,-0.0882 0.0173,-0.1781 0,-0.26458 -0.0273,-0.13674 -0.0985,-0.26159 -0.13229,-0.39687 -0.0107,-0.0428 0.0139,-0.0905 0,-0.1323 -0.0312,-0.0935 -0.10111,-0.17104 -0.13229,-0.26458 -0.0279,-0.0837 0.0394,-0.1857 0,-0.26458 -0.0279,-0.0558 -0.1044,-0.0765 -0.13229,-0.13229 -0.039,-0.0781 0,-0.30796 0,-0.39688"
       id="path10003"
       inkscape:connector-curvature="0" />
    <path
       style="fill:none;fill-opacity:1;stroke:#0e0a08;stroke-width:3;stroke-miterlimit:4;stroke-dasharray:none;stroke-opacity:1"
       d="m 148.96041,137.19168 c 2.76684,-0.69171 2.00301,-1.30428 2.91042,-0.39687 0.0441,0.0441 0.0804,0.0977 0.13229,0.13229 0.0821,0.0547 0.19486,0.0626 0.26459,0.13229 0.5163,0.5163 -0.0306,0.071 0.13229,0.39687 0.10583,0.21167 0.42333,0.3175 0.52916,0.52917 0.19466,0.38931 -0.30646,-0.17417 0.1323,0.26458"
       id="path10005"
       inkscape:connector-curvature="0" />
    <path
       style="fill:none;fill-opacity:1;stroke:#0e0a08;stroke-width:3;stroke-miterlimit:4;stroke-dasharray:none;stroke-opacity:1"
       d="m 173.43437,125.41772 c -0.26406,-0.25284 -0.24668,-0.62566 -0.39687,-0.92604 -0.20172,-0.40343 -0.10488,0.24195 -0.26459,-0.39687 -0.0214,-0.0856 0.0279,-0.18092 0,-0.26459 -0.0394,-0.11832 -0.2088,-0.15302 -0.26458,-0.26458 -0.0197,-0.0394 0.0197,-0.0928 0,-0.13229 -0.0558,-0.11156 -0.1954,-0.16081 -0.26458,-0.26459 -0.0547,-0.082 -0.0776,-0.18254 -0.13229,-0.26458 -0.21938,-0.32907 -0.0304,-0.0152 -0.26459,-0.13229 -0.11156,-0.0558 -0.18292,-0.17031 -0.26458,-0.26458 -0.44725,-0.51634 -0.88774,-1.03849 -1.3316,-1.55773"
       id="path10007"
       inkscape:connector-curvature="0" />
    <path
       style="fill:none;fill-opacity:1;stroke:#0e0a08;stroke-width:3;stroke-miterlimit:4;stroke-dasharray:none;stroke-opacity:1"
       d="m 202.61703,126.56224 c -0.46714,0.27995 -1.05805,0.41713 -1.40141,0.83986 -0.11795,0.14522 0.26459,0.26458 0.39688,0.39687 0.13229,0.13229 0.27512,0.25483 0.39687,0.39688 0.14349,0.1674 0.25339,0.36176 0.39688,0.52916 0.15434,0.18007 0.82315,0.78885 0.92604,0.92605 0.11832,0.15776 0.14996,0.36869 0.26458,0.52916 0.10875,0.15224 0.27711,0.25315 0.39688,0.39688 0.10178,0.12214 0.17217,0.26749 0.26458,0.39687 0.20281,0.28394 0.4833,0.61427 0.66146,0.92604 0.0978,0.17123 0.16674,0.35795 0.26458,0.52917 0.0789,0.13805 0.19348,0.25467 0.26459,0.39688 0.0624,0.12472 0.0699,0.27215 0.13229,0.39687 0.14221,0.28442 0.38696,0.50933 0.52916,0.79375 0.39951,0.79901 -0.0191,0.056 0.1323,0.66146 0.0434,0.17366 0.29435,0.63996 0.39687,0.79375 0.0346,0.0519 0.1044,0.0765 0.13229,0.13229 0.0197,0.0394 -0.0197,0.0928 0,0.13229 0.0279,0.0558 0.1044,0.0765 0.13229,0.13229 0.075,0.15007 -0.0983,0.26459 0.26459,0.26459 0.22049,0.48507 0.44097,0.97014 0.66146,1.45521 0.0882,0.26458 0.14917,0.53985 0.26458,0.79375 0.1064,0.23408 0.28189,0.43147 0.39688,0.66145 0.2124,0.42481 0.33627,0.88891 0.52916,1.32292 0.73664,1.47327 -0.14349,-0.38264 0.39688,1.05833 0.0692,0.18466 0.19534,0.34452 0.26458,0.52917 0.11272,0.30059 0.16307,0.62148 0.26459,0.92604 0.0441,0.13229 0.0699,0.27215 0.13229,0.39688 0.30272,0.60545 -0.0548,-0.56137 0.26458,0.39687 0.0139,0.0418 -0.0197,0.0928 0,0.13229 0.16347,0.32695 0.13229,-0.0457 0.13229,0.26459"
       id="path10009"
       inkscape:connector-curvature="0" />
    <path
       style="fill:none;fill-opacity:1;stroke:#0e0a08;stroke-width:3;stroke-miterlimit:4;stroke-dasharray:none;stroke-opacity:1"
       d="m 203.86146,124.09481 c 0.24481,-0.5386 0.54893,-1.04891 0.79375,-1.5875 0.0983,-0.21619 0.16631,-0.44528 0.26458,-0.66146 0.36608,-0.80538 0.79496,-1.58991 1.19062,-2.38125 0.1323,-0.26459 0.24783,-0.53824 0.39688,-0.79375 0.16023,-0.27467 0.38696,-0.50933 0.52917,-0.79375 0.12472,-0.24945 0.14917,-0.53986 0.26458,-0.79375 0.1064,-0.23409 0.27375,-0.43573 0.39687,-0.66146 0.14165,-0.2597 0.25523,-0.53406 0.39688,-0.79375 0.12313,-0.22573 0.29047,-0.42738 0.39687,-0.66146 0.11541,-0.2539 0.14918,-0.53985 0.26459,-0.79375 0.1064,-0.23408 0.28188,-0.43147 0.39687,-0.66146 0.31363,-0.62725 0.17848,-0.62953 0.52917,-1.19062 0.11686,-0.18698 0.28002,-0.3422 0.39687,-0.52917 0.35069,-0.5611 0.21555,-0.56338 0.52917,-1.19062 0.6643,-1.3286 -0.16662,0.69746 0.52917,-0.92605 0.21058,-0.49135 0.023,-0.3451 0.39687,-0.79375 0.11977,-0.14372 0.28813,-0.24463 0.39688,-0.39687 0.11462,-0.16048 0.16674,-0.35794 0.26458,-0.52917 0.18875,-0.33031 0.34042,-0.46344 0.52917,-0.79375 0.0978,-0.17122 0.16674,-0.35794 0.26458,-0.52916 0.15777,-0.2761 0.33052,-0.54545 0.52917,-0.79375 0.15583,-0.19479 0.37949,-0.32961 0.52916,-0.52917 0.0592,-0.0789 0.0626,-0.19486 0.1323,-0.26458 0.0697,-0.0697 0.18253,-0.0776 0.26458,-0.1323 0.0519,-0.0346 0.0765,-0.1044 0.13229,-0.13229 0.0148,-0.007 0.64669,-0.007 0.66146,0 0.0558,0.0279 0.0765,0.1044 0.13229,0.13229 0.0394,0.0197 0.10111,-0.0312 0.13229,0 0.0312,0.0312 -0.0197,0.0928 0,0.1323 0.0558,0.11155 0.20881,0.15302 0.26459,0.26458 0.0394,0.0789 -0.0624,0.20222 0,0.26458 0.0312,0.0312 0.10111,-0.0312 0.13229,0 0.0624,0.0624 0,0.17639 0,0.26459 0,0.19388 0.0468,1.05024 0,1.19062 -0.0197,0.0592 -0.1044,0.0765 -0.13229,0.13229 -0.0394,0.0789 0.0394,0.1857 0,0.26459 -0.27529,0.55056 0.009,-0.14143 -0.26459,0.13229 -0.0312,0.0312 0.0197,0.0928 0,0.13229 -0.27528,0.55056 0.009,-0.14143 -0.26458,0.13229 -0.0312,0.0312 0.0197,0.0928 0,0.13229 -0.27528,0.55057 0.009,-0.14142 -0.26458,0.13229 -0.0312,0.0312 0.0312,0.10111 0,0.1323 -0.0624,0.0624 -0.1857,-0.0395 -0.26459,0 -0.0558,0.0279 -0.0765,0.1044 -0.13229,0.13229 -0.0394,0.0197 -0.0928,-0.0197 -0.13229,0 -0.0558,0.0279 -0.0882,0.0882 -0.13229,0.13229 -0.0882,0.0882 -0.18975,0.1648 -0.26459,0.26458 -0.0592,0.0789 -0.0731,0.1857 -0.13229,0.26459 -0.0748,0.0998 -0.18667,0.16718 -0.26458,0.26458 -0.19865,0.24831 -0.34434,0.53499 -0.52917,0.79375 -0.25631,0.35883 -0.56003,0.68439 -0.79375,1.05833 -0.32348,0.51757 -0.16503,0.48908 -0.52916,0.92604 -0.11978,0.14373 -0.27711,0.25315 -0.39688,0.39688 -0.10178,0.12214 -0.17639,0.26458 -0.26458,0.39687 -0.0882,0.1323 -0.19348,0.25467 -0.26459,0.39688 -0.0624,0.12472 -0.0699,0.27215 -0.13229,0.39687 -0.14221,0.28442 -0.38696,0.50933 -0.52916,0.79375 -0.0624,0.12473 -0.0699,0.27215 -0.1323,0.39688 -0.0711,0.14221 -0.20195,0.25073 -0.26458,0.39687 -0.0716,0.16712 -0.051,0.36655 -0.13229,0.52917 -0.0558,0.11156 -0.20041,0.15763 -0.26458,0.26458 -0.0718,0.11958 -0.0805,0.2674 -0.1323,0.39688 0.0736,0.17218 -0.21043,0.28858 -0.26458,0.39687 -0.0394,0.0789 0,0.17639 0,0.26459"
       id="path10013"
       inkscape:connector-curvature="0" />
    <path
       style="fill:none;fill-opacity:1;stroke:#0e0a08;stroke-width:3;stroke-miterlimit:4;stroke-dasharray:none;stroke-opacity:1"
       d="m 206.77187,143.67397 c 0.77244,0.0374 1.51205,0.51408 2.24896,0.66146 0.0865,0.0173 0.17902,-0.0214 0.26458,0 0.23944,-0.0797 0.24604,0.2143 0.39688,0.26458 0.0837,0.0279 0.18091,-0.0279 0.26458,0 0.0592,0.0197 0.0765,0.10441 0.13229,0.13229 0.0394,0.0197 0.0928,-0.0197 0.1323,0 0.0558,0.0279 0.0765,0.10441 0.13229,0.1323 0.0394,0.0197 0.10111,-0.0312 0.13229,0 0.0312,0.0312 -0.0312,0.10111 0,0.13229 0.0312,0.0312 0.0928,-0.0197 0.13229,0 0.0558,0.0279 0.14111,0.19403 0.13229,0.13229 -0.0514,-0.35998 -0.17639,-0.70555 -0.26458,-1.05833"
       id="path10015"
       inkscape:connector-curvature="0" />
    <path
       style="fill:none;fill-opacity:1;stroke:#0e0a08;stroke-width:3;stroke-miterlimit:4;stroke-dasharray:none;stroke-opacity:1"
       d="m 203.73956,131.05236 c 0.83438,0.37074 1.65345,0.77808 2.50315,1.11224 0.20925,0.0823 0.44097,0.0882 0.66145,0.13229 0.26213,0.0524 0.91039,0.17117 1.19063,0.26458 0.22528,0.0751 0.43617,0.18949 0.66146,0.26459 0.68651,0.22883 1.42064,0.3303 2.11666,0.52916 0.38989,0.1114 0.79118,0.3303 1.19063,0.39688 0.77782,0.12963 0.0168,-0.17849 0.79375,0.13229 0.42301,0.1692 0.76373,0.4907 1.19062,0.66146 0.26892,0.10757 0.42878,0.10946 0.66146,0.26458 0.14594,0.0973 0.24059,0.31873 0.39688,0.39688 0.0789,0.0394 0.1857,-0.0395 0.26458,0 0.0558,0.0279 0.0765,0.1044 0.13229,0.13229 0.0394,0.0197 0.11631,-0.0411 0.13229,0 0.30326,0.77979 0.52917,1.5875 0.79375,2.38125"
       id="path10017"
       inkscape:connector-curvature="0" />
    <path
       style="fill:none;fill-opacity:1;stroke:#0e0a08;stroke-width:3;stroke-miterlimit:4;stroke-dasharray:none;stroke-opacity:1"
       d="m 201.21562,132.42918 c -0.66146,0.0882 -1.36479,0.0168 -1.98437,0.26458 -0.16377,0.0655 0.0219,0.35414 0,0.52917 -0.0451,0.36083 -0.1857,0.70336 -0.26459,1.05833 -0.14618,0.65782 -0.26471,1.32358 -0.39687,1.98438 -0.18503,0.92517 -0.36043,1.85007 -0.52917,2.77812 -0.0402,0.22123 -0.10992,0.43772 -0.13229,0.66146 -0.0219,0.21939 0.0219,0.44207 0,0.66146 -0.0224,0.22374 -0.0921,0.44023 -0.13229,0.66146 -0.0266,0.1466 -0.19923,1.25914 -0.26458,1.45521 -0.0624,0.18709 -0.20223,0.34207 -0.26459,0.52916 -0.12856,0.3857 -0.16598,0.79621 -0.26458,1.19063 -0.11896,0.47583 -0.32749,0.96948 -0.39688,1.45521 -0.0187,0.13096 0.0187,0.26591 0,0.39687 -0.0454,0.31781 -0.21918,0.60824 -0.26458,0.92604 -0.0249,0.17462 0.0219,0.35414 0,0.52917 0.0222,0.33646 -0.21918,0.60823 -0.26458,0.92604 -0.025,0.17462 0.0249,0.35455 0,0.52917 -0.0197,0.13804 -0.11257,0.25883 -0.13229,0.39687 -0.0179,0.12516 -0.0435,1.41346 0,1.5875 0.16603,0.66414 0.35277,1.32292 0.52916,1.98438"
       id="path10019"
       inkscape:connector-curvature="0" />
    <path
       style="fill:none;fill-opacity:1;stroke:#0e0a08;stroke-width:3;stroke-miterlimit:4;stroke-dasharray:none;stroke-opacity:1"
       d="m 236.5375,138.77918 c 0.35922,-0.0718 1.95421,-0.36903 2.38125,-0.52917 0.3693,-0.13848 0.68902,-0.39068 1.05833,-0.52916 0.46928,-0.17598 1.96978,-0.43773 2.38125,-0.52917 0.35498,-0.0789 0.69751,-0.21948 1.05833,-0.26458 0.35006,-0.0438 0.70828,0.0438 1.05834,0 3.28106,-0.41014 -0.78388,-0.0898 1.85208,-0.52917 0.52197,-0.087 1.05833,0 1.5875,0 0.79375,0 1.5875,0 2.38125,0"
       id="path10023"
       inkscape:connector-curvature="0" />
    <path
       style="fill:none;fill-opacity:1;stroke:#0e0a08;stroke-width:3;stroke-miterlimit:4;stroke-dasharray:none;stroke-opacity:1"
       d="m 231.24583,161.26876 c 0.93368,-0.0933 1.75337,0.41761 2.64583,0.52917 0.35006,0.0438 0.71396,-0.0765 1.05834,0 0.46363,0.10303 0.86471,0.4042 1.32291,0.52917 1.84226,0.50243 1.21975,0.022 2.91042,0.52916 0.45491,0.13648 0.86801,0.3927 1.32292,0.52917 1.11256,0.33377 1.30959,0.26458 2.38125,0.26458"
       id="path10025"
       inkscape:connector-curvature="0" />
  </g>
</svg>
