<?xml version="1.0" encoding="UTF-8" standalone="no"?>
<!-- Created with Inkscape (http://www.inkscape.org/) -->

<svg
   xmlns:dc="http://purl.org/dc/elements/1.1/"
   xmlns:cc="http://creativecommons.org/ns#"
   xmlns:rdf="http://www.w3.org/1999/02/22-rdf-syntax-ns#"
   xmlns:svg="http://www.w3.org/2000/svg"
   xmlns="http://www.w3.org/2000/svg"
   xmlns:sodipodi="http://sodipodi.sourceforge.net/DTD/sodipodi-0.dtd"
   xmlns:inkscape="http://www.inkscape.org/namespaces/inkscape"
   width="1920"
   height="1080"
   viewBox="0 0 508.00002 285.74999"
   version="1.1"
   id="svg8"
   inkscape:version="0.92.4 5da689c313, 2019-01-14"
   sodipodi:docname="dibujo30.svg">
  <defs
     id="defs2" />
  <sodipodi:namedview
     id="base"
     pagecolor="#ffffff"
     bordercolor="#666666"
     borderopacity="1.0"
     inkscape:pageopacity="0.0"
     inkscape:pageshadow="2"
     inkscape:zoom="0.5"
     inkscape:cx="1032.3026"
     inkscape:cy="534.30973"
     inkscape:document-units="mm"
     inkscape:current-layer="layer1"
     showgrid="false"
     units="px"
     inkscape:window-width="1366"
     inkscape:window-height="768"
     inkscape:window-x="0"
     inkscape:window-y="0"
     inkscape:window-maximized="0"
     showguides="false" />
  <metadata
     id="metadata5">
    <rdf:RDF>
      <cc:Work
         rdf:about="">
        <dc:format>image/svg+xml</dc:format>
        <dc:type
           rdf:resource="http://purl.org/dc/dcmitype/StillImage" />
        <dc:title></dc:title>
      </cc:Work>
    </rdf:RDF>
  </metadata>
  <g
     inkscape:label="Capa 1"
     inkscape:groupmode="layer"
     id="layer1"
     transform="translate(0,-11.250015)">
    <path
       style="fill:none;fill-opacity:1;stroke:#0e0a08;stroke-width:3;stroke-miterlimit:4;stroke-dasharray:none;stroke-opacity:1"
       d="m 143.40416,220.80001 c -1.76663,-5.25794 -4.59595,-10.0837 -6.35,-15.34583 -0.63597,-1.90794 -1.03499,-3.88707 -1.5875,-5.82083 -1.01182,-3.5414 -2.23767,-7.0215 -3.175,-10.58334 -1.34179,-5.09883 -0.69259,-4.154 -2.11666,-8.99583 -0.47217,-1.60538 -1.16164,-3.14422 -1.5875,-4.7625 -0.91558,-3.47919 -1.33623,-7.07136 -2.11667,-10.58333 -1.41074,-6.34833 -3.26616,-12.60221 -4.23333,-19.05 -0.47994,-3.19957 -0.46231,-6.34618 -1.05833,-9.525 -0.26806,-1.42963 -0.87792,-2.79003 -1.05834,-4.23334 -0.17503,-1.40021 0.0939,-2.82534 0,-4.23333 -0.083,-1.24449 -0.4462,-2.45967 -0.52916,-3.70417 -0.388,-5.8199 0.14338,-2.53649 0.52916,-7.9375 0.088,-1.23158 -0.18775,-2.4838 0,-3.70416 0.16963,-1.10261 0.67709,-2.12659 1.05834,-3.175 0.99616,-2.73946 2.36718,-5.08268 4.7625,-6.87917 0.63106,-0.4733 1.39582,-0.73796 2.11666,-1.05833 3.11276,-1.383453 5.66319,-1.603955 8.99583,-2.116669 3.96632,-0.610204 7.66312,-0.795711 11.64167,0 1.2592,0.251838 2.44854,0.78927 3.70417,1.058329 1.21957,0.26134 2.49902,0.2078 3.70416,0.52917 4.72411,1.25976 13.47058,6.06224 16.93334,9.525 0.79863,0.79863 1.42326,1.75431 2.11666,2.64583 1.62495,2.08922 3.63962,4.20744 4.23334,6.87917 0.34154,1.53695 -0.29045,8.68947 -0.52917,9.525 -0.28255,0.98894 -1.05833,1.76389 -1.5875,2.64583 -0.52917,0.88195 -0.9362,1.84981 -1.5875,2.64584 -2.72739,3.33348 -4.78292,4.27887 -8.46667,6.87916 -3.94344,2.78361 -7.95754,5.56753 -12.17083,7.9375 -1.31704,0.74084 -5.80319,2.83986 -7.40833,3.70417 -1.25211,0.67421 -2.41297,1.52073 -3.70417,2.11667 -1.0129,0.46749 -2.14523,0.62926 -3.175,1.05833 -3.015,1.25625 -5.62952,3.18631 -8.46667,4.7625 -1.37913,0.76619 -2.78322,1.49519 -4.23333,2.11667 -4.57724,1.96167 0.76089,-0.64503 -2.64583,1.05833"
       id="path10201"
       inkscape:connector-curvature="0" />
    <path
       style="fill:none;fill-opacity:1;stroke:#0e0a08;stroke-width:3;stroke-miterlimit:4;stroke-dasharray:none;stroke-opacity:1"
       d="m 196.32083,209.15835 c 0,-11.64167 0,-23.28334 0,-34.925 0,-2.29306 0.0955,-4.5881 0,-6.87917 -0.25757,-6.18181 -1.3298,-12.336 -1.5875,-18.52083 -0.0881,-2.11483 0.1057,-4.23598 0,-6.35 -0.071,-1.42032 -0.36301,-2.82099 -0.52917,-4.23334 -0.18662,-1.58632 -0.26657,-3.18696 -0.52916,-4.7625 -0.26735,-1.60409 -0.80471,-3.15617 -1.05834,-4.7625 -0.27647,-1.75099 -0.32204,-3.53112 -0.52916,-5.29166 -0.25288,-2.14945 -0.91879,-5.84434 -1.05834,-7.9375 -0.16426,-2.46398 0,-4.93889 0,-7.40834 0,-0.88194 0.0878,-1.76826 0,-2.64583 -0.0895,-0.89495 -0.42984,-1.75192 -0.52916,-2.64583 -0.0573,-0.51549 -0.16304,-4.110371 0,-4.762503 0.0957,-0.38264 0.4335,-0.675693 0.52916,-1.058333 0.21635,-0.865394 -0.40243,-1.121701 0.52917,-1.5875 0.36473,-0.182364 3.94712,0 4.23333,0 2.99861,0 6.00006,0.130252 8.99584,0 8.74594,-0.380259 4.35299,-0.646967 13.75833,-1.5875 2.8137,-0.281369 5.64051,-0.434962 8.46667,-0.529167 2.46807,-0.08227 4.93889,0 7.40833,0 6.87917,0 13.75833,0 20.6375,0"
       id="path10203"
       inkscape:connector-curvature="0" />
    <path
       style="fill:none;fill-opacity:1;stroke:#0e0a08;stroke-width:3;stroke-miterlimit:4;stroke-dasharray:none;stroke-opacity:1"
       d="m 195.2625,152.00835 c 6.27337,-1.42951 12.68133,-2.26519 19.05,-3.175 2.46944,-0.35278 4.92015,-0.88061 7.40833,-1.05834 3.11805,-0.22272 6.4227,0.31023 9.525,0 0.89495,-0.0895 1.75192,-0.42984 2.64583,-0.52916 1.22717,-0.13636 2.46945,0 3.70417,0"
       id="path10205"
       inkscape:connector-curvature="0" />
    <path
       style="fill:none;fill-opacity:1;stroke:#0e0a08;stroke-width:3;stroke-miterlimit:4;stroke-dasharray:none;stroke-opacity:1"
       d="m 196.32083,209.15835 c 0.70555,0.17639 1.3894,0.52916 2.11667,0.52916 2.16512,0 3.74566,-1.17246 5.82083,-1.5875 1.56625,-0.31325 3.18697,-0.26658 4.7625,-0.52916 1.6041,-0.26736 3.14435,-0.89652 4.7625,-1.05834 1.93065,-0.19306 3.88324,0.10198 5.82083,0 1.42013,-0.0747 2.82223,-0.35277 4.23334,-0.52916 5.47096,-0.68388 2.82553,-0.32806 7.9375,-1.05834 1.23472,-0.17639 2.46007,-0.4403 3.70416,-0.52916 1.23159,-0.088 2.47309,0.0947 3.70417,0 1.06977,-0.0823 2.10577,-0.44007 3.175,-0.52917 2.59441,-0.2162 5.32845,0 7.9375,0"
       id="path10207"
       inkscape:connector-curvature="0" />
    <path
       style="fill:none;fill-opacity:1;stroke:#0e0a08;stroke-width:3;stroke-miterlimit:4;stroke-dasharray:none;stroke-opacity:1"
       d="m 287.3375,216.56668 c -1.52443,-3.25926 -3.14331,-6.62839 -4.23334,-10.05417 -0.66153,-2.0791 -1.03677,-4.23884 -1.5875,-6.35 -0.59393,-2.27673 -2.8004,-9.99815 -3.175,-12.17083 -0.513,-2.97539 -0.78499,-5.98894 -1.05833,-8.99583 -0.25601,-2.81612 -0.35277,-5.64445 -0.52917,-8.46667 -0.47312,-7.5701 -0.80023,-15.16424 -0.52916,-22.75417 0.67998,-19.03924 0.52916,3.20635 0.52916,-13.75833 0,-11.64536 -0.14372,2.87451 0.52917,-10.58333 0.0793,-1.58552 -0.088,-3.17745 0,-4.7625 0.12126,-2.1826 0.72935,-6.16384 1.05833,-8.46667 0.1764,-1.23472 0.26784,-2.48459 0.52917,-3.70417 0.60891,-2.84154 1.10688,-3.82557 2.11667,-6.35 0.35277,-0.88194 0.56962,-1.831312 1.05833,-2.645829 1.89045,-3.150767 4.56602,-4.616736 7.9375,-5.820834 1.20933,-0.4319 2.42882,-0.908293 3.70417,-1.058333 1.7518,-0.206095 3.52777,0 5.29166,0 2.11667,0 4.2413,-0.183367 6.35,0 4.23408,0.368181 7.10557,1.443752 11.1125,2.645833 4.32954,1.298861 8.7593,2.463763 12.7,4.7625 1.09868,0.640903 2.10191,1.433783 3.175,2.116663 2.93603,1.86839 6.82517,4.12533 8.46667,7.40834 0.19283,0.38566 1.07225,4.62332 1.05833,4.7625 -0.0945,0.94517 -0.66527,1.78109 -1.05833,2.64583 -1.43283,3.15222 -2.02957,4.30699 -4.7625,6.87917 -1.82557,1.71818 -3.88565,3.16881 -5.82083,4.7625 -3.04147,2.50474 -4.24358,3.76865 -7.9375,5.82083 -1.51861,0.84367 -3.19061,1.37696 -4.7625,2.11667 -2.85502,1.34353 -5.60734,2.89898 -8.46667,4.23333 -2.43462,1.13616 -4.96895,2.04913 -7.40833,3.175 -1.07434,0.49585 -2.10066,1.09165 -3.175,1.5875 -1.21971,0.56294 -2.48447,1.02456 -3.70417,1.5875 -2.14868,0.9917 -4.12597,2.36626 -6.35,3.175 -4.46016,0.89203 -0.92853,-0.0556 -4.7625,1.5875 -1.02539,0.43945 -2.1772,0.55943 -3.175,1.05833 -0.22312,0.11156 -0.35277,0.70556 -0.52917,0.52917 -0.17639,-0.17639 0.35277,-0.35278 0.52917,-0.52917 0.70556,-0.70555 1.4111,-1.41111 2.11667,-2.11666"
       id="path10209"
       inkscape:connector-curvature="0" />
    <path
       style="fill:none;fill-opacity:1;stroke:#0e0a08;stroke-width:3;stroke-miterlimit:4;stroke-dasharray:none;stroke-opacity:1"
       d="m 301.625,143.54168 c 1.38292,2.04827 2.51036,4.20116 3.70416,6.35 0.95904,1.72624 1.92082,2.94998 2.64584,4.7625 0.41431,1.03579 0.62925,2.14523 1.05833,3.175 0.45511,1.09223 1.13239,2.08277 1.5875,3.175 0.98806,2.37134 1.30019,4.42972 2.11667,6.87917 0.47656,1.42973 1.19919,2.77715 1.5875,4.23333 2.88361,10.81352 -2.05055,-3.50582 1.5875,7.40833 0.47656,1.42973 1.11093,2.80361 1.5875,4.23334 0.40608,1.21823 0.62642,2.49484 1.05833,3.70416 0.4518,1.26508 1.16271,2.42977 1.5875,3.70417 0.45998,1.3799 0.68355,2.82791 1.05833,4.23333 1.27918,4.7969 2.77397,9.54461 4.23334,14.2875 0.97898,3.18167 2.03739,6.39658 3.175,9.525 0.32461,0.8927 0.78539,1.73601 1.05833,2.64584 0.25844,0.86147 0.24474,1.79257 0.52917,2.64583 0.52916,1.5875 1.05833,1.85208 1.5875,3.175 0.20716,0.51789 0.32199,1.0696 0.52916,1.5875 0.39114,0.97786 1.05834,1.23702 1.05834,2.11667"
       id="path10213"
       inkscape:connector-curvature="0" />
    <path
       style="fill:none;fill-opacity:1;stroke:#0e0a08;stroke-width:3;stroke-miterlimit:4;stroke-dasharray:none;stroke-opacity:1"
       d="m 392.64166,104.38335 c -3.60534,1.12257 -6.73235,3.01418 -10.05416,4.7625 -5.04873,2.65723 -5.53683,2.36639 -10.05417,5.82083 -1.48945,1.13899 -2.81639,2.47615 -4.23333,3.70417 -3.10018,2.68681 -4.48456,3.4868 -6.87917,6.87916 -2.65843,3.76611 -3.79082,6.29519 -5.29167,10.58334 -0.68617,1.96045 -2.39662,7.81117 -2.64583,10.05416 -0.17531,1.57779 0,3.175 0,4.7625 0,9.0056 -0.27271,4.954 0.52917,12.17084 0.78991,7.10927 0.10003,2.45953 1.5875,9.525 0.37057,1.76023 0.55075,3.56594 1.05833,5.29166 0.37904,1.28875 1.05833,2.46945 1.5875,3.70417 0.52917,1.23472 0.95062,2.5214 1.5875,3.70417 1.55757,2.89266 2.09002,3.14835 4.23333,5.29166 0.88194,0.88195 1.67188,1.86668 2.64584,2.64584 0.80314,0.6425 1.76389,1.05833 2.64583,1.5875 0.88193,0.52916 1.67923,1.23601 2.64583,1.5875 1.00833,0.36666 2.11667,0.35277 3.175,0.52916 4.21894,0.70316 2.10206,0.52917 6.35,0.52917 1.05834,0 2.13106,0.17399 3.175,0 1.1004,-0.1834 2.10876,-0.73026 3.175,-1.05833 1.22735,-0.37765 2.55561,-0.48406 3.70417,-1.05834 1.35715,-0.67858 2.51105,-1.70838 3.70417,-2.64583 3.66019,-2.87587 7.02262,-6.09207 9.52499,-10.05417 2.12532,-3.36509 4.83019,-9.15373 6.35,-12.7 0.59368,-1.38521 1.18415,-2.78124 1.5875,-4.23333 0.48144,-1.7332 0.68776,-3.53143 1.05834,-5.29167 1.50349,-7.14155 0.94366,-2.74271 1.5875,-11.1125 0.18989,-2.46844 0.52916,-4.93259 0.52916,-7.40833 0,-1.59727 -0.31334,-3.17988 -0.52916,-4.7625 -0.98108,-7.19454 -0.57182,-5.17633 -2.11667,-10.58333 -0.44535,-1.55874 -1.45103,-5.28163 -2.11667,-6.87917 -2.10558,-5.05341 -0.92821,-1.32724 -3.175,-5.82083 -0.42478,-0.8496 -0.48839,-1.88593 -1.05833,-2.64584 -0.52917,-0.70555 -1.44703,-1.01354 -2.11667,-1.5875 -0.56819,-0.48702 -0.97853,-1.15252 -1.5875,-1.5875 -1.28381,-0.917 -2.86353,-1.33392 -4.23333,-2.11666 -0.55218,-0.31554 -1.00295,-0.80781 -1.5875,-1.05834 -2.14926,-0.92111 -2.38744,-0.31325 -4.7625,-0.52916 -7.09676,-0.64516 0.0193,-0.52917 -5.29166,-0.52917 -3.75,0 0.89839,-0.12834 -3.70417,0.52917 -0.52385,0.0748 -1.06553,-0.087 -1.5875,0 -1.39486,0.23248 -5.34011,2.16512 -6.35,3.175"
       id="path10215"
       inkscape:connector-curvature="0" />
  </g>
</svg>
