<?xml version="1.0" encoding="UTF-8" standalone="no"?>
<!-- Created with Inkscape (http://www.inkscape.org/) -->

<svg
   xmlns:dc="http://purl.org/dc/elements/1.1/"
   xmlns:cc="http://creativecommons.org/ns#"
   xmlns:rdf="http://www.w3.org/1999/02/22-rdf-syntax-ns#"
   xmlns:svg="http://www.w3.org/2000/svg"
   xmlns="http://www.w3.org/2000/svg"
   xmlns:sodipodi="http://sodipodi.sourceforge.net/DTD/sodipodi-0.dtd"
   xmlns:inkscape="http://www.inkscape.org/namespaces/inkscape"
   width="1920"
   height="1080"
   viewBox="0 0 508.00002 285.74999"
   version="1.1"
   id="svg8"
   inkscape:version="0.92.4 5da689c313, 2019-01-14"
   sodipodi:docname="dibujo2.svg">
  <defs
     id="defs2" />
  <sodipodi:namedview
     id="base"
     pagecolor="#ffffff"
     bordercolor="#666666"
     borderopacity="1.0"
     inkscape:pageopacity="0.0"
     inkscape:pageshadow="2"
     inkscape:zoom="0.35"
     inkscape:cx="620.45147"
     inkscape:cy="512.97925"
     inkscape:document-units="mm"
     inkscape:current-layer="layer1"
     showgrid="false"
     units="px"
     inkscape:window-width="1366"
     inkscape:window-height="741"
     inkscape:window-x="0"
     inkscape:window-y="27"
     inkscape:window-maximized="0"
     showguides="false" />
  <metadata
     id="metadata5">
    <rdf:RDF>
      <cc:Work
         rdf:about="">
        <dc:format>image/svg+xml</dc:format>
        <dc:type
           rdf:resource="http://purl.org/dc/dcmitype/StillImage" />
        <dc:title />
      </cc:Work>
    </rdf:RDF>
  </metadata>
  <g
     inkscape:label="Capa 1"
     inkscape:groupmode="layer"
     id="layer1"
     transform="translate(0,-11.250015)">
    <path
       style="fill:none;fill-opacity:1;stroke:#000000;stroke-width:2.66847658;stroke-miterlimit:4;stroke-dasharray:none;stroke-opacity:1"
       d="m 298.81421,158.3936 c 0.0731,0.29235 0.14617,0.58471 0.21926,0.87706 0,0.21926 -0.043,0.44279 0,0.65779 0.0321,0.16026 0.18722,0.27828 0.21927,0.43854 0.086,0.43001 -0.0721,0.88303 0,1.31559 0.038,0.22798 0.18126,0.42981 0.21926,0.65779 0.13041,0.78246 -0.11222,1.62635 0,2.41192 0.0327,0.22881 0.18658,0.429 0.21927,0.6578 0.0414,0.28941 -0.0363,0.58697 0,0.87706 0.0374,0.29903 0.18189,0.57804 0.21926,0.87706 0.0635,0.50767 -0.0841,1.0302 0,1.53486 0.038,0.22798 0.18127,0.42982 0.21927,0.6578 0.0721,0.43256 -0.086,0.88558 0,1.31559 0.0321,0.16025 0.16758,0.28349 0.21926,0.43853 0.0731,0.21931 0,1.03704 0,1.31559"
       id="path979"
       inkscape:connector-curvature="0" />
    <path
       style="fill:none;fill-opacity:1;stroke:#000000;stroke-width:2.66847658;stroke-miterlimit:4;stroke-dasharray:none;stroke-opacity:1"
       d="m 298.81421,158.3936 c 0.29235,0.10963 0.57415,0.25317 0.87706,0.3289 0.14181,0.0354 0.29235,0 0.43853,0 0.18272,0 0.36544,0 0.54816,0 0.18272,0 0.36656,0.0202 0.54817,0 0.14975,-0.0166 0.29235,-0.0731 0.43853,-0.10963 0.18272,-0.0365 0.36274,-0.0911 0.54816,-0.10964 0.18181,-0.0182 0.36656,0.0202 0.54816,0 0.14976,-0.0166 0.28878,-0.093 0.43853,-0.10963 0.32689,-0.0363 0.66034,0.0408 0.9867,0 0.14951,-0.0187 0.28937,-0.0883 0.43853,-0.10964 0.25324,-0.0362 0.51162,0 0.76743,0 0.76743,0 1.53486,0 2.30229,0"
       id="path981"
       inkscape:connector-curvature="0" />
    <path
       style="fill:none;fill-opacity:1;stroke:#000000;stroke-width:2.66847658;stroke-miterlimit:4;stroke-dasharray:none;stroke-opacity:1"
       d="m 299.1431,165.41009 c 1.01187,-0.26913 2.04355,-0.45256 3.06972,-0.6578 0.18272,-0.0365 0.36626,-0.0692 0.54816,-0.10963 0.14709,-0.0327 0.28902,-0.0909 0.43853,-0.10963 0.94839,0 -0.0118,0.0462 0.76743,-0.10963 0.0717,-0.0143 0.14836,0.0178 0.21927,0 0.0793,-0.0198 0.13999,-0.0898 0.21926,-0.10964 0.23928,-0.0598 0.52589,0.0483 0.76743,0 0.0801,-0.016 0.13999,-0.0898 0.21927,-0.10963 0.17726,-0.0443 0.36544,0 0.54816,0 0.43853,0 0.87706,0 1.31559,0"
       id="path987"
       inkscape:connector-curvature="0" />
    <path
       style="fill:none;fill-opacity:1;stroke:#000000;stroke-width:2.66847658;stroke-miterlimit:4;stroke-dasharray:none;stroke-opacity:1"
       d="m 300.34906,172.42658 c 0.29236,-0.2558 0.54622,-0.56383 0.87707,-0.76743 0.2974,-0.18301 0.67097,-0.0746 0.98669,-0.10963 0.3704,-0.0411 0.72592,-0.17811 1.09633,-0.21926 0.14528,-0.0161 0.29348,0.0181 0.43853,0 0.14951,-0.0187 0.28936,-0.0883 0.43853,-0.10964 0.10853,-0.0155 0.22036,0.0155 0.3289,0 0.14916,-0.0213 0.28936,-0.0883 0.43853,-0.10963 0.18088,-0.0258 0.36899,0.0359 0.54816,0 0.11332,-0.0227 0.21558,-0.087 0.3289,-0.10963 0.0837,-0.0168 0.34873,0.0449 0.43853,0 0.0462,-0.0231 0.0634,-0.0865 0.10963,-0.10964 0.11412,-0.0571 0.43404,0.0571 0.54817,0 0.0462,-0.0231 0.0634,-0.0865 0.10964,-0.10963 0.098,-0.049 0.22488,0.0347 0.32888,0 0.049,-0.0164 0.0606,-0.0933 0.10964,-0.10963 0.0968,-0.0323 0.32336,0 0.43852,0"
       id="path1000"
       inkscape:connector-curvature="0" />
    <path
       style="fill:none;fill-opacity:1;stroke:#000000;stroke-width:2.66847658;stroke-miterlimit:4;stroke-dasharray:none;stroke-opacity:1"
       d="m 311.42197,171.98805 c 0,-0.25581 0.0212,-0.5125 0,-0.76743 -0.0155,-0.18569 -0.0911,-0.36275 -0.10964,-0.54816 -0.0364,-0.36363 0,-0.73088 0,-1.09633 0,-0.47507 -0.0364,-0.95155 0,-1.42522 0.0171,-0.22164 0.0912,-0.43628 0.10964,-0.6578 0.0394,-0.47343 0,-0.95015 0,-1.42522 0,-0.70191 -0.046,-1.50222 0,-2.19265 0.16331,-2.44971 0.049,0.56901 0.21927,-1.6445 0.0168,-0.21862 -0.0168,-0.43917 0,-0.65779 -0.025,-0.45381 0.17502,-0.87322 0.21925,-1.31559 0.0182,-0.18182 0,-0.36545 0,-0.54817 0,-0.47507 0,-0.95015 0,-1.42523 0,-0.10962 -0.0155,-0.22036 0,-0.32889 0.0213,-0.14916 0.0849,-0.28991 0.10963,-0.43853 0.0461,-0.27616 0,-0.59443 0,-0.87706 0,-0.0655 -0.0258,-0.21927 0.10964,-0.21927 0.0517,0 0.0731,0.0731 0.10964,0.10964 0.14618,0.14617 0.30938,0.2771 0.43852,0.43853 0.16463,0.20577 0.28536,0.44335 0.43854,0.65779 0.24218,0.33906 0.54372,0.63516 0.76743,0.9867 0.26322,0.41363 0.41074,0.89208 0.65779,1.31558 1.12302,1.92519 -0.27479,-0.71389 0.87707,1.42523 0.37657,0.69938 0.70172,1.45175 0.98668,2.19265 0.083,0.21573 0.13037,0.44446 0.21927,0.6578 0.0943,0.22629 0.23462,0.43151 0.3289,0.6578 0.37285,0.89483 0.10117,0.40466 0.32889,1.31559 0.0561,0.22422 0.14029,0.44058 0.21927,0.65779 0.21399,0.58849 0.26403,0.56614 0.43852,1.20597 0.0882,0.32335 0.15661,0.89256 0.21928,1.20595 0.0947,0.47353 0.19614,0.96058 0.3289,1.42523 0.37854,1.13566 -0.11259,-0.45336 0.10964,0.6578 0.016,0.0801 0.0898,0.13999 0.10961,0.21926 0.0354,0.14181 -0.0462,0.29985 0,0.43853 0.13549,0.40642 0.10964,-0.13363 0.10964,0.21927 0,0.0365 -0.0258,0.13547 0,0.10963 0.2437,-0.2437 0.0478,-1.52377 0.10963,-1.86376 0.0414,-0.22739 0.16322,-0.43357 0.21927,-0.65779 0.15769,-0.63077 0.22927,-1.43545 0.32889,-2.08302 0.0338,-0.21971 0.0758,-0.43809 0.10964,-0.6578 0.0393,-0.2554 0.0515,-0.51564 0.10963,-0.76743 0.052,-0.2252 0.15846,-0.43481 0.21927,-0.65779 0.049,-0.17978 0.0731,-0.36544 0.10964,-0.54816 0.0365,-0.21927 0.0512,-0.44335 0.10963,-0.6578 0.0518,-0.18986 0.16271,-0.35967 0.21926,-0.54816 0.0535,-0.17849 0.0584,-0.369 0.10963,-0.54817 0.0222,-0.0777 0.39884,-1.10757 0.43854,-1.42523 0.0181,-0.14504 -0.0206,-0.29382 0,-0.43852 0.0163,-0.11441 0.0731,-0.21927 0.10962,-0.3289 0.0366,-0.10963 0.0667,-0.22161 0.10963,-0.3289 0.0607,-0.15175 0.1676,-0.28349 0.21928,-0.43853 0.0279,-0.0838 0,-0.23996 0,-0.3289"
       id="path1002"
       inkscape:connector-curvature="0" />
    <path
       style="fill:none;fill-opacity:1;stroke:#000000;stroke-width:2.66847658;stroke-miterlimit:4;stroke-dasharray:none;stroke-opacity:1"
       d="m 353.08239,174.29034 c -0.0365,-0.21927 -0.0699,-0.43909 -0.10964,-0.6578 -0.0334,-0.18333 -0.0928,-0.36259 -0.10963,-0.54816 -0.0198,-0.21837 0,-0.43853 0,-0.6578 0,-0.43853 0,-0.87706 0,-1.31559 0,-0.21927 0.0168,-0.43918 0,-0.6578 -0.0198,-0.25764 -0.0912,-0.50968 -0.10964,-0.76742 -0.0338,-0.47387 0,-0.95015 0,-1.42523 0,-0.43853 0,-0.87706 0,-1.31559 0,-0.21927 -0.0182,-0.43929 0,-0.6578 0.0184,-0.22152 0.0895,-0.43642 0.10964,-0.65779 0.0331,-0.36395 -0.0404,-0.73313 0,-1.09633 0.0167,-0.14976 0.093,-0.28878 0.10963,-0.43853 0,-1.25891 -0.0443,0.0909 0.10964,-0.9867 0.0701,-0.49064 -0.0699,-1.15524 0,-1.64448 0.0164,-0.11441 0.0906,-0.21492 0.10962,-0.3289 0.036,-0.21629 -0.043,-0.44279 0,-0.6578 0.016,-0.0801 0.0838,-0.14174 0.10963,-0.21926 0.0436,-0.13084 -0.0567,-0.43477 0,-0.54817 0.0231,-0.0462 0.0933,-0.0606 0.10964,-0.10963 0.0628,-0.18832 -0.04,-0.56764 0,-0.76743 0.12598,-0.62988 0.10963,0.0314 0.10963,-0.3289 0,-0.49908 -0.0517,-0.006 0.10964,-0.32889 0.0164,-0.0327 -0.0366,-0.10964 0,-0.10964 0.0517,0 0.0666,0.081 0.10963,0.10964 0.068,0.0453 0.17023,0.0443 0.21926,0.10962 0.11377,0.15171 0.22482,0.77854 0.3289,0.9867 0.0589,0.11785 0.16736,0.20779 0.21927,0.3289 0.0593,0.13849 0.0567,0.29745 0.10964,0.43853 0.0574,0.15302 0.16757,0.28349 0.21925,0.43853 0.0589,0.17678 0.0507,0.37139 0.10964,0.54817 0.0517,0.15504 0.14618,0.29234 0.21926,0.43853 0.16196,0.32392 0.33355,0.63673 0.43853,0.98669 0.0535,0.17848 0.0561,0.36968 0.10963,0.54816 0.17001,0.56666 0.22259,0.4828 0.43854,0.98669 0.13604,0.31743 0.20061,0.66599 0.32889,0.9867 0.19873,0.49681 0.0101,0.0152 0.21927,0.3289 0.0453,0.068 0.0643,0.15127 0.10964,0.21926 0.0287,0.043 0.0865,0.0634 0.10963,0.10964 0.0164,0.0327 -0.0259,0.0838 0,0.10963 0.0258,0.0258 0.0838,-0.0259 0.10962,0 0.0655,0.0655 -0.11849,0.21926 0.10964,0.21926 0.0517,0 0.081,-0.0666 0.10963,-0.10963 0.44373,-0.66559 -0.3156,0.34328 0.21927,-0.54816 0.0532,-0.0886 0.14618,-0.14618 0.21927,-0.21926 0.0365,-0.14619 0.0567,-0.29746 0.10962,-0.43854 0.0574,-0.15303 0.1529,-0.28918 0.21927,-0.43853 0.0799,-0.17983 0.12369,-0.37613 0.21927,-0.54816 0.0887,-0.15973 0.24016,-0.27881 0.32889,-0.43853 0.0956,-0.17204 0.13126,-0.37214 0.21927,-0.54816 0.1906,-0.38119 0.42139,-0.74173 0.6578,-1.09633 0.10136,-0.15203 0.23205,-0.28358 0.3289,-0.43853 0.0866,-0.13859 0.13988,-0.29567 0.21926,-0.43854 0.10349,-0.18627 0.22542,-0.36189 0.32889,-0.54816 0.0794,-0.14286 0.12429,-0.30554 0.21928,-0.43853 0.0901,-0.12616 0.23877,-0.20273 0.32889,-0.3289 0.095,-0.13299 0.13818,-0.29663 0.21926,-0.43853 -0.0107,-0.24246 0.22755,-0.28649 0.32891,-0.43853 0.0453,-0.068 0.0643,-0.15127 0.10964,-0.21927 0.0998,-0.14969 0.36192,-0.28531 0.43852,-0.43852 0.0164,-0.0327 -0.0259,-0.0838 0,-0.10964 0.0259,-0.0258 0.0933,-0.0327 0.10963,0 0.0634,0.12688 -0.0519,0.91457 0,1.09633 0.0449,0.15714 0.17231,0.28199 0.21927,0.43853 0.0639,0.21292 0.0631,0.44044 0.10962,0.65779 0.36274,1.69271 0.12302,0.0174 0.32891,1.97339 0.0366,0.3289 0.0731,0.6578 0.10963,0.9867 0.0731,0.25581 0.18411,0.50371 0.21927,0.76743 0.0386,0.28979 -0.0183,0.58528 0,0.87706 0.0157,0.25188 0.17841,1.3586 0.21926,1.64449 0.0365,0.25581 0.0912,0.50968 0.10963,0.76743 0.0338,0.47387 -0.0394,0.95179 0,1.42522 0.0184,0.22153 0.0895,0.43642 0.10963,0.6578 0.0298,0.32754 0,0.6578 0,0.98669 0,0.58471 0,1.16942 0,1.75413"
       id="path1012"
       inkscape:connector-curvature="0" />
    <path
       style="fill:none;fill-opacity:1;stroke:#000000;stroke-width:2.66847658;stroke-miterlimit:4;stroke-dasharray:none;stroke-opacity:1"
       d="m 370.62362,174.94814 c -0.0366,-0.25582 -0.0898,-0.50979 -0.10964,-0.76743 -0.0168,-0.21863 0,-0.43854 0,-0.6578 0,-0.58471 0,-1.16941 0,-1.75412 0,-1.35214 0,-2.70428 0,-4.05641 0,-0.40199 0,-0.80397 0,-1.20596 0,-0.18272 0.0358,-0.369 0,-0.54817 -0.016,-0.0801 -0.0936,-0.13913 -0.10964,-0.21926 -0.0702,-0.35085 0.0588,-0.7434 0,-1.09633 -0.0135,-0.0806 -0.0936,-0.13914 -0.10963,-0.21926 -0.0215,-0.10751 0,-0.21927 0,-0.3289 0,-0.3289 0,-0.65779 0,-0.9867"
       id="path1016"
       inkscape:connector-curvature="0" />
    <path
       style="fill:none;fill-opacity:1;stroke:#000000;stroke-width:2.66847658;stroke-miterlimit:4;stroke-dasharray:none;stroke-opacity:1"
       d="m 370.73325,160.91515 c -0.0731,-0.21927 -0.14618,-0.43853 -0.21927,-0.65779 -0.0731,-0.14618 -0.16188,-0.28551 -0.21927,-0.43853 -0.0529,-0.14109 -0.0503,-0.30005 -0.10963,-0.43854 -0.0519,-0.12111 -0.16034,-0.21104 -0.21926,-0.32889 -0.0517,-0.10337 -0.0667,-0.2216 -0.10963,-0.3289 -0.0808,-0.20209 -0.18233,-0.29196 -0.32891,-0.43854"
       id="path1028"
       inkscape:connector-curvature="0" />
    <path
       style="fill:none;fill-opacity:1;stroke:#000000;stroke-width:2.66847658;stroke-miterlimit:4;stroke-dasharray:none;stroke-opacity:1"
       d="m 377.20157,175.38667 c -0.52939,-1.55714 -0.41659,-3.2158 -0.65779,-4.82384 -0.0606,-0.40406 -0.18054,-0.79922 -0.21928,-1.20596 -0.0346,-0.3638 0.0174,-0.7313 0,-1.09633 -0.0177,-0.37264 -0.16495,-1.75815 -0.21925,-2.19265 -0.20176,-1.61402 0.0175,0.0815 -0.3289,-1.53486 -0.0541,-0.25267 -0.0703,-0.51203 -0.10964,-0.76743 -0.0903,-0.5867 -0.2001,-1.17452 -0.32889,-1.75412 -0.0327,-0.14709 -0.091,-0.28902 -0.10963,-0.43853 -0.0182,-0.14505 0.0206,-0.29383 0,-0.43853 -0.0327,-0.2288 -0.17395,-0.43116 -0.21927,-0.6578 -0.0394,-0.19734 0,-0.45607 0,-0.65779 0,-0.47508 0,-0.95016 0,-1.42523 0,-0.25581 0,-0.51162 0,-0.76743 0,-0.0366 -0.0258,-0.0838 0,-0.10963 0.14234,-0.14234 0.39129,0.3598 0.43852,0.43853 0.0678,0.11299 0.16576,0.20849 0.21927,0.32889 0.0939,0.21121 0.12241,0.44795 0.21927,0.6578 0.12346,0.26752 0.32247,0.49662 0.43852,0.76743 0.10481,0.24454 0.13515,0.51504 0.21928,0.76743 0.0987,0.29621 0.21927,0.58471 0.3289,0.87706 0.3397,0.90586 0.31351,0.76456 0.54816,1.64449 0.0777,0.29118 0.12397,0.59118 0.21927,0.87707 0.088,0.26402 0.23528,0.50532 0.32889,0.76742 0.0895,0.25055 0.13514,0.51504 0.21927,0.76743 0.0987,0.29621 0.23015,0.58085 0.32889,0.87706 0.16826,0.50479 0.30142,1.02073 0.43854,1.53486 0.0776,0.29118 0.12397,0.59117 0.21927,0.87706 0.088,0.26403 0.23527,0.50533 0.32889,0.76743 0.0895,0.25055 0.12375,0.51912 0.21926,0.76743 0.53719,1.07438 0.15245,0.22737 0.54817,1.31559 0.13451,0.3699 0.31406,0.72294 0.43853,1.09633 0.0476,0.14294 0.0567,0.29744 0.10962,0.43853 0.0574,0.15303 0.1549,0.28831 0.21927,0.43853 0.091,0.21244 0.13343,0.4432 0.21927,0.6578 0.0303,0.0759 0.0898,0.13999 0.10964,0.21926 0.0354,0.14181 -0.0462,0.29985 0,0.43853 0.0164,0.049 0.0865,0.0634 0.10963,0.10964 0.0328,0.0655 -0.0722,0.21926 0.10962,0.21926 0.0366,0 0.009,-0.0742 0,-0.10963 -0.028,-0.11212 -0.0953,-0.21423 -0.10962,-0.3289 -0.0227,-0.18131 0,-0.36544 0,-0.54816 0,-2.33639 -0.0323,0.69076 0.10962,-1.86376 0.0183,-0.32839 -0.0164,-0.65821 0,-0.98669 0.0202,-0.40315 0.0913,-0.80274 0.10964,-1.20596 0.0183,-0.40157 -0.0334,-0.80537 0,-1.20596 0.0399,-0.47901 0.17934,-0.94623 0.21927,-1.42523 0.0334,-0.4006 -0.0223,-0.80459 0,-1.20596 0.0143,-0.25801 0.0924,-0.50959 0.10963,-0.76743 0.0194,-0.2917 -0.0182,-0.58527 0,-0.87706 0.0368,-0.58811 0.14139,-1.17003 0.21927,-1.75412 0.31644,-2.37337 -0.0593,0.83008 0.10962,-1.53486 0.10663,-1.49273 0.0968,-0.0779 0.21927,-1.42523 0.0165,-0.18196 -0.0202,-0.36655 0,-0.54816 0.0166,-0.14975 0.0883,-0.28937 0.10964,-0.43853 0.0259,-0.18088 0,-0.36544 0,-0.54816"
       id="path1030"
       inkscape:connector-curvature="0" />
    <path
       style="fill:none;fill-opacity:1;stroke:#000000;stroke-width:2.66847658;stroke-miterlimit:4;stroke-dasharray:none;stroke-opacity:1"
       d="m 388.0552,159.0514 c 0.0365,0.14618 0.07,0.29316 0.10964,0.43852 0.07,0.25668 0.16446,0.5071 0.21927,0.76744 0.23795,1.13027 0.25035,1.78396 0.43852,2.96008 0.0589,0.36799 0.158,0.72871 0.21928,1.09632 0.0484,0.29062 0.0553,0.58748 0.10963,0.87706 0.0555,0.29619 0.14616,0.58471 0.21925,0.87707 0.14618,0.58471 0.29236,1.16941 0.43854,1.75412 0.0638,0.25539 0.33066,1.36401 0.43853,1.64449 0.088,0.2288 0.23462,0.4315 0.3289,0.6578 0.49117,1.1788 -0.0903,0.14513 0.54816,1.31559 0.72958,1.33757 -0.0619,-0.16486 0.6578,0.98669 0.26807,0.42893 0.13677,0.40531 0.43853,0.76743 0.0992,0.11911 0.23204,0.20783 0.32889,0.3289 0.051,0.0638 0.0606,0.15389 0.10964,0.21926 0.0407,0.0544 0.46223,0.50521 0.54816,0.54817 0.0647,0.0324 0.25522,0 0.3289,0 0.0737,0 0.2642,0.0324 0.32889,0 0.49512,-0.24755 0.64041,-1.8365 0.76743,-2.30229 0.48144,-1.4443 -0.003,0.1238 0.3289,-1.31559 0.0598,-0.25924 0.17023,-0.50594 0.21928,-0.76743 0.11526,-0.61482 0.13658,-1.24371 0.21925,-1.86375 0.0454,-0.34055 0.19832,-1.3303 0.21927,-1.6445 0.017,-0.25524 -0.0196,-0.51237 0,-0.76742 0.0341,-0.44328 0.18234,-0.87255 0.21927,-1.3156 0.0182,-0.2185 -0.0182,-0.43928 0,-0.65779 0.0184,-0.22153 0.0895,-0.43642 0.10964,-0.6578 0.0165,-0.18197 0,-0.36544 0,-0.54816 0,-0.18272 0.0181,-0.36635 0,-0.54817 -0.0186,-0.18541 -0.0891,-0.36296 -0.10964,-0.54816 -0.0161,-0.14528 0.0181,-0.29348 0,-0.43853 -0.0187,-0.14951 -0.0883,-0.28937 -0.10964,-0.43853 -0.031,-0.21706 0.0361,-0.44151 0,-0.65779 -0.019,-0.11399 -0.0816,-0.21679 -0.10963,-0.32891 -0.0408,-0.1632 0,-0.3767 0,-0.54816"
       id="path1036"
       inkscape:connector-curvature="0" />
    <path
       style="fill:none;fill-opacity:1;stroke:#000000;stroke-width:2.66847658;stroke-miterlimit:4;stroke-dasharray:none;stroke-opacity:1"
       d="m 404.50011,175.05777 c -0.15157,-0.60626 -0.17718,-0.62551 -0.21926,-1.42523 -0.0346,-0.65688 0.0386,-1.31673 0,-1.97339 -0.16583,-2.81912 -0.0475,0.71243 -0.21928,-1.86375 -0.017,-0.25524 0,-0.51162 0,-0.76743 -0.0365,-0.25581 -0.0912,-0.50968 -0.10963,-0.76743 -0.0182,-0.25516 0.0182,-0.51227 0,-0.76743 -0.0184,-0.25775 -0.0912,-0.50967 -0.10963,-0.76743 -0.0338,-0.47386 0.0394,-0.95179 0,-1.42522 -0.0525,-0.6291 -0.27174,-1.23506 -0.32889,-1.86375 -0.0165,-0.18198 0.0202,-0.36657 0,-0.54817 -0.0429,-0.38651 -0.25393,-0.72149 -0.32891,-1.09633 -0.0609,-0.30453 0.0914,-0.18272 0,-0.54816 -0.0126,-0.0501 -0.0865,-0.0634 -0.10963,-0.10963 -0.0441,-0.0882 0,-0.69376 0,-0.76743 0,-0.37149 -0.0447,-0.84783 0,-1.20596 0.0187,-0.14952 0.0883,-0.28937 0.10963,-0.43853 0.0455,-0.31872 0,-0.75773 0,-1.09633"
       id="path1038"
       inkscape:connector-curvature="0" />
    <path
       style="fill:none;fill-opacity:1;stroke:#000000;stroke-width:2.66847658;stroke-miterlimit:4;stroke-dasharray:none;stroke-opacity:1"
       d="m 399.23773,162.45001 c 0.14618,0 0.29236,0 0.43854,0 0.14618,0 0.29325,0.0161 0.43853,0 0.37041,-0.0411 0.72592,-0.17811 1.09633,-0.21927 0.14528,-0.0161 0.29325,0.0161 0.43852,0 0.37041,-0.0411 0.73253,-0.13842 1.09634,-0.21926 0.14708,-0.0327 0.29364,-0.0682 0.43852,-0.10964 0.11112,-0.0317 0.2145,-0.0933 0.32891,-0.10963 0.1447,-0.0207 0.29381,0.0206 0.43852,0 0.11441,-0.0164 0.21491,-0.0906 0.32891,-0.10963 0.10814,-0.018 0.21926,0 0.32889,0 0.10963,-0.0366 0.21558,-0.087 0.3289,-0.10963 0.22211,-0.0444 0.63658,0 0.87706,0 0.51162,0 1.02325,0 1.53486,0"
       id="path1044"
       inkscape:connector-curvature="0" />
    <path
       style="fill:none;fill-opacity:1;stroke:#000000;stroke-width:2.66847658;stroke-miterlimit:4;stroke-dasharray:none;stroke-opacity:1"
       d="m 415.13448,160.80552 c -1.11598,0.89278 -0.15657,0.0344 -0.76743,0.76743 -0.0993,0.11911 -0.22964,0.20979 -0.3289,0.32889 -0.24281,0.29139 -0.24357,0.42625 -0.43852,0.76744 -0.32229,0.564 -0.17951,0.1 -0.43855,0.87705 -0.0891,0.26737 -0.16132,0.72602 -0.21925,0.9867 -0.0979,0.44057 -0.21944,0.87773 -0.3289,1.31559 -0.0366,0.14618 -0.091,0.28902 -0.10964,0.43853 -0.0181,0.14505 0,0.29235 0,0.43853 0,0.40199 0,0.80398 0,1.20596 0,0.29235 -0.0362,0.58697 0,0.87706 0.0187,0.14952 0.0883,0.28937 0.10964,0.43853 0.0155,0.10853 -0.0155,0.22037 0,0.3289 0.0796,0.55745 0.40195,1.35207 0.65779,1.86376 0.0731,0.14618 0.12121,0.30779 0.21927,0.43853 0.093,0.12403 0.24289,0.19989 0.32889,0.3289 0.0453,0.068 0.0519,0.16148 0.10964,0.21926 0.0578,0.0578 0.15127,0.0643 0.21926,0.10964 0.12901,0.086 0.20486,0.23587 0.32891,0.32889 0.0654,0.049 0.15388,0.0606 0.21925,0.10964 0.0827,0.062 0.13659,0.15725 0.21927,0.21926 0.0654,0.049 0.15391,0.0606 0.21927,0.10963 0.0827,0.062 0.12681,0.17304 0.21926,0.21927 0.0654,0.0327 0.14994,-0.0231 0.21926,0 0.049,0.0164 0.0666,0.081 0.10964,0.10963 0.068,0.0453 0.14175,0.0838 0.21927,0.10963 0.09,0.03 0.47846,0.0233 0.54816,0 0.049,-0.0164 0.0634,-0.0865 0.10963,-0.10963 0.0327,-0.0164 0.0731,0 0.10964,0 0.10964,-0.0365 0.22553,-0.058 0.32889,-0.10963 0.0462,-0.0231 0.0666,-0.081 0.10964,-0.10963 0.068,-0.0453 0.15127,-0.0643 0.21926,-0.10964 0.1651,-0.11006 0.29752,-0.29751 0.43853,-0.43853 0.0731,-0.0731 0.14618,-0.14617 0.21926,-0.21926 0.0366,-0.0366 0.0865,-0.0634 0.10964,-0.10963 0.0517,-0.10337 0.0667,-0.22161 0.10964,-0.3289 0.0607,-0.15174 0.16757,-0.28349 0.21925,-0.43853 0.0477,-0.14295 0.0567,-0.29745 0.10964,-0.43853 0.11477,-0.30605 0.30579,-0.57838 0.43853,-0.87707 0.76779,-1.72752 -0.20559,0.43862 0.32889,-0.98669 0.0574,-0.15303 0.1549,-0.28831 0.21928,-0.43853 0.091,-0.21244 0.17394,-0.43116 0.21926,-0.6578 0.0287,-0.14333 0,-0.29235 0,-0.43853 0,-0.19388 0.0462,-0.58269 0,-0.76743 -0.0198,-0.0793 -0.0838,-0.14174 -0.10963,-0.21926 -0.0476,-0.14295 -0.0422,-0.30376 -0.10963,-0.43853 -0.0462,-0.0924 -0.16609,-0.13064 -0.21928,-0.21927 -0.0594,-0.0991 -0.0579,-0.22553 -0.10963,-0.3289 -0.0589,-0.11785 -0.14616,-0.21926 -0.21926,-0.32889 -0.0731,-0.10964 -0.13491,-0.22768 -0.21926,-0.3289 -0.0993,-0.11911 -0.22965,-0.20979 -0.32891,-0.3289 -0.19895,-0.12818 -0.20104,-0.37769 -0.32889,-0.54816 -0.17786,-0.23715 -0.44795,-0.44795 -0.65779,-0.6578 -0.10964,-0.10963 -0.20784,-0.23204 -0.3289,-0.32889 -0.10289,-0.0823 -0.22601,-0.13696 -0.32889,-0.21927 -0.28003,-0.22401 -0.48078,-0.55243 -0.76743,-0.76743 -0.0654,-0.049 -0.15128,-0.0643 -0.21927,-0.10964 -0.2005,-0.13366 -0.37729,-0.37727 -0.54817,-0.54816 -0.0365,-0.0366 -0.0731,-0.0731 -0.10963,-0.10963 -0.0365,0 -0.0838,0.0258 -0.10963,0 -0.0259,-0.0258 0.0258,-0.0838 0,-0.10963 -0.0259,-0.0258 -0.10964,0.0366 -0.10964,0 0,-0.0366 0.14618,0 0.10964,0 -0.0731,0 -0.14618,0 -0.21927,0"
       id="path1046"
       inkscape:connector-curvature="0" />
    <path
       style="fill:none;fill-opacity:1;stroke:#000000;stroke-width:2.66847658;stroke-miterlimit:4;stroke-dasharray:none;stroke-opacity:1"
       d="m 429.71563,158.94176 c -2.24398,0.374 0.72017,-0.083 -1.20597,0.10964 -1.74173,0.17417 0.47826,0.0361 -0.98668,0.21926 -0.14506,0.0181 -0.29384,-0.0206 -0.43854,0 -0.11439,0.0164 -0.21927,0.0731 -0.32889,0.10963 -0.10964,0.0366 -0.22982,0.0502 -0.32891,0.10963 -0.0886,0.0532 -0.12681,0.17304 -0.21927,0.21927 -0.64835,0.32418 0.23449,-0.39512 -0.43852,0.10964 -0.0948,0.0711 -0.60294,0.56635 -0.65779,0.65779 -0.0595,0.0991 -0.0403,0.23645 -0.10964,0.3289 -0.049,0.0654 -0.16148,0.0519 -0.21927,0.10963 -0.0578,0.0578 -0.0731,0.14618 -0.10963,0.21927 -0.0366,0.0731 -0.0838,0.14174 -0.10964,0.21926 -0.0115,0.0347 0.0164,0.077 0,0.10964 -0.0231,0.0462 -0.0865,0.0634 -0.10962,0.10963 -0.0462,0.0925 0,0.63699 0,0.76742 0,0.18688 -0.043,0.59547 0,0.76743 0.0198,0.0793 0.0898,0.14 0.10962,0.21927 0.0177,0.0709 -0.0177,0.14836 0,0.21926 0.17895,0.71575 0.0589,-0.41421 0.21927,0.54817 0.018,0.10814 -0.0215,0.22139 0,0.3289 0.0321,0.16025 0.16759,0.28348 0.21927,0.43853 0.0115,0.0347 -0.0164,0.0769 0,0.10963 0.0231,0.0462 0.0865,0.0634 0.10964,0.10964 0.0164,0.0327 -0.0164,0.0769 0,0.10962 0.0231,0.0462 0.0731,0.0731 0.10963,0.10964 0.0366,0.0365 0.0606,0.0933 0.10962,0.10963 0.0693,0.0231 0.14836,-0.0178 0.21927,0 0.35558,0.0889 0.77791,0.49859 1.09633,0.6578 0.10336,0.0517 0.22554,0.058 0.32889,0.10963 0.11786,0.0589 0.21106,0.16034 0.32891,0.21926 0.22109,0.11055 0.35658,0.0756 0.54816,0.21927 0.0827,0.062 0.12681,0.17304 0.21926,0.21926 0.0654,0.0327 0.14837,-0.0177 0.21928,0 0.1255,0.0314 0.75686,0.35841 0.87704,0.43854 0.043,0.0286 0.0667,0.081 0.10964,0.10963 0.068,0.0453 0.15127,0.0643 0.21927,0.10963 0.11467,0.0764 0.6837,0.6558 0.76743,0.76743 0.0981,0.13074 0.13517,0.29839 0.21926,0.43853 0.0678,0.11299 0.16034,0.21105 0.21926,0.3289 0.22915,0.45829 0.27492,1.14365 0.21927,1.64449 -0.0167,0.14975 -0.093,0.28878 -0.10964,0.43853 -0.0202,0.1816 0.0397,0.36979 0,0.54816 -0.0354,0.15954 -0.16187,0.28551 -0.21925,0.43853 -0.0529,0.14108 -0.0567,0.29745 -0.10964,0.43854 -0.11631,0.31013 -0.44299,0.94818 -0.65779,1.20595 -0.17848,0.21419 -0.66289,0.69858 -0.87706,0.87707 -0.30197,0.25163 -0.6797,0.41219 -0.9867,0.65779 -0.0807,0.0646 -0.13326,0.16193 -0.21927,0.21926 -0.35041,0.23362 -0.73339,0.25707 -1.09632,0.43854 -0.34776,0.17388 -0.65305,0.4576 -0.9867,0.6578 -0.0701,0.042 -0.1539,0.0606 -0.21926,0.10962 -0.0827,0.062 -0.13064,0.16609 -0.21926,0.21927 -0.0991,0.0595 -0.2216,0.0667 -0.32891,0.10964 -0.22461,0.0898 -0.42847,0.25245 -0.65779,0.32889 -0.0838,0.0279 -0.23996,0 -0.3289,0"
       id="path1048"
       inkscape:connector-curvature="0" />
    <path
       style="opacity:1;fill:#000000;fill-opacity:1;stroke:none;stroke-width:0.60000002;stroke-miterlimit:4;stroke-dasharray:none;stroke-opacity:1"
       id="path6343"
       d="m 336.7179,162.49216 c -0.2926,0.0788 -0.5239,0.32274 -0.81804,0.39431 -0.0495,0.012 -0.0759,-0.0959 -0.12591,-0.0866 -0.32044,0.0599 -1.14684,0.53971 -1.33829,0.62722 -0.17272,0.079 -0.35658,0.13088 -0.53488,0.19632 -0.61307,0.36808 -1.30472,0.46352 -1.97819,0.65487 -0.26395,0.075 -0.51834,0.18638 -0.78748,0.23994 -0.18052,0.0359 -0.36914,0.002 -0.55163,0.0265 -0.25826,0.0344 -0.51146,0.0996 -0.76721,0.14938 -0.63003,0.0919 -1.4161,0.0574 -2.03293,-0.12539 -0.38523,-0.11418 -0.70281,-0.39372 -1.07452,-0.54629 -0.23011,-0.0944 -0.47236,-0.15603 -0.70853,-0.23405 -0.23344,-0.85304 -0.73742,-1.59381 -1.10503,-2.3916 -0.0951,-0.20651 -0.24942,-0.40219 -0.26361,-0.62913 -0.0182,-0.2936 0.1134,-0.57732 0.17011,-0.86598 0.25468,-0.54666 0.0632,-1.7327 0.20793,-2.2673 0.20749,-0.76622 0.88776,-1.59589 1.28143,-2.29684 0.61185,-0.56025 0.91596,-1.30059 1.56877,-1.81811 1.53109,-1.21379 3.91811,-2.33248 5.39144,-3.15123 2.32717,-1.05679 -0.0334,-0.0954 1.5625,-0.52478 0.35348,-0.0951 0.6773,-0.29964 1.03912,-0.35527 0.17465,-0.0269 0.34115,0.10139 0.51726,0.11595 0.50938,0.0421 1.02217,-0.014 1.53326,-0.0161 0.82926,-0.11742 1.68288,-0.006 2.45459,0.33713 0.20762,0.0923 0.37124,0.26572 0.57526,0.36578 1.17986,0.57858 0.37627,-0.0943 1.2519,0.79331 0.27612,0.11357 0.59939,0.14911 0.82836,0.34072 0.0654,0.0547 0.7216,1.3256 0.75758,1.37595 0.16452,0.23017 0.44514,0.37355 0.57354,0.62565 0.0607,0.11926 0.35314,1.70059 0.37452,1.8125 0.19679,0.95863 0.54755,1.8413 0.45124,2.83896 -0.0367,0.38059 -0.23468,0.74326 -0.22193,1.1254 0.0829,2.48373 0.82,-1.02488 -0.0444,2.08391 -0.34198,1.14756 -0.49102,2.33544 -0.72237,3.50493 -0.0822,0.41571 -0.20891,0.82188 -0.28897,1.23801 -0.0747,0.38835 -0.0521,0.79751 -0.17492,1.17345 -0.16095,0.49294 -0.44477,0.93689 -0.66717,1.40534 -0.13219,0.42671 -0.27176,0.85119 -0.39654,1.28012 -0.12173,0.41846 -0.20013,0.84989 -0.34287,1.26165 -0.16256,0.46897 -0.37647,0.91856 -0.57121,1.37511 -0.57904,1.3576 -1.19578,2.69697 -1.82562,4.0315 -0.98571,2.22906 -2.30759,4.28913 -3.53738,6.38713 -0.38539,0.2295 -0.82941,1.44799 -1.13948,1.75738 -0.98287,0.98074 -4.44222,2.83042 -4.77308,3.02397 -0.21852,0.08 -0.43934,0.32623 -0.65553,0.2401 -0.14722,-0.0587 0.20233,-0.36324 0.0835,-0.46802 -0.16015,-0.14118 -0.42887,0.008 -0.64008,-0.0227 -0.27742,-0.0409 -0.8472,-0.19603 -1.01836,-0.47539 -0.10543,-0.17208 -0.0725,-0.39703 -0.10882,-0.59555 -0.45797,-0.93139 -0.15211,-0.11253 -0.26437,-1.21712 -0.0781,-0.76849 -0.29149,-0.51625 -0.003,-1.36342 0.55465,-1.62324 0.37084,-0.15791 0.46588,-1.46351 0.0691,-0.96146 -0.0768,-0.20041 0.49138,-1.23595 0.0839,-0.15293 0.0908,-0.34415 0.19003,-0.48757 0.33528,-0.48445 0.92228,-0.72274 1.15991,-1.26157 0.73794,-0.42369 2.75219,-2.15588 4.33765,-2.31568 0.17135,-0.0173 0.34605,0.01 0.51644,-0.0154 0.32735,-0.0481 0.6422,-0.23484 0.97155,-0.20322 0.17452,0.0168 0.27014,0.22359 0.40521,0.33539 0.42315,-0.0445 0.84633,-0.0889 1.2695,-0.13336 0.0873,0.22847 0.0553,0.55455 0.26196,0.68542 0.32706,0.20711 0.76417,0.12564 1.14319,0.20444 0.41447,0.0862 0.85138,0.11429 1.2364,0.2903 0.33409,0.1527 0.56269,0.47565 0.87214,0.67355 0.35912,0.22967 0.75907,0.3892 1.12681,0.60482 0.37486,0.21979 0.73295,0.467 1.0994,0.7005 0.80576,0.70305 1.91725,0.72324 2.81802,1.20527 0.40791,0.2183 0.70467,0.60404 1.09323,0.85513 0.4267,0.2757 0.90946,0.45548 1.34351,0.71941 2.45999,1.4958 -0.13518,0.23944 2.7074,1.4936 1.38914,0.68918 2.73256,1.46442 4.13377,2.1299 1.25423,0.59567 1.41028,0.54413 2.5173,1.30734 0.32213,0.2221 0.61166,0.48814 0.91749,0.73221 0,0 -2.64644,1.72649 -2.64644,1.72649 v 0 c -0.64296,-0.44765 -1.42468,-1.02983 -2.13476,-1.35959 -0.47879,-0.22235 -0.99587,-0.35169 -1.48532,-0.54946 -1.43772,-0.58094 -2.76074,-1.34806 -4.07392,-2.16785 -1.17729,-0.66117 -1.5316,-0.88998 -2.76236,-1.46042 -1.38406,-0.64149 -2.88732,-1.15563 -4.17925,-1.9837 -0.37214,-0.23853 -0.6939,-0.54778 -1.04085,-0.82167 -3.34494,-1.24959 0.34907,0.24273 -2.40416,-1.17782 -2.88991,-1.49106 0.56518,0.49458 -2.33526,-0.76949 -2.74193,-1.195 1.54058,0.12433 -1.53051,-0.7429 -0.72718,-0.13023 -1.46355,-0.21725 -2.20449,-0.11995 -1.25028,0.16419 -3.08451,1.41627 1.52787,-1.23933 -1.08405,0.77255 -1.72498,1.69555 -2.25179,2.91459 -0.0758,0.24609 -0.34322,1.0733 -0.37074,1.32754 -0.0222,0.20409 0.0317,0.40981 0.0304,0.61509 -0.003,0.25958 -0.10694,0.96712 0.0298,1.23611 0.0848,0.16665 0.28016,0.24768 0.42023,0.37152 0.0842,0.21867 0.29856,1.01648 0.61759,1.07644 0.40082,0.0753 0.9016,-0.19587 1.31416,-0.18773 -5.75349,3.41771 -2.15291,1.42554 -1.15006,0.28668 0.31207,-0.35439 0.27101,-0.95067 0.73512,-1.21099 0.78861,-1.67492 -0.25154,0.35941 1.32156,-1.85329 0.2177,-0.30622 0.34248,-0.66909 0.52727,-0.99623 0.68619,-1.21492 1.34408,-2.43871 2.0434,-3.64694 0.61645,-2.75662 -0.2816,0.7212 1.09096,-2.58256 0.15803,-0.38035 0.10726,-0.82625 0.26429,-1.20699 0.21886,-0.53061 0.60809,-0.97691 0.85098,-1.49695 0.40304,-0.86281 0.52829,-1.60872 0.7389,-2.52053 0.14047,-0.42483 0.26786,-0.8542 0.42138,-1.2745 0.16332,-0.4472 0.38742,-0.87217 0.52866,-1.32683 0.48995,-1.57731 0.0884,-0.7996 0.35369,-2.32646 0.60442,-3.47834 0.0793,0.92814 0.42127,-2.25985 1.20074,-3.95587 -0.15361,1.09263 0.24321,-2.14743 0.0504,-0.41133 0.37206,-0.76892 0.38155,-1.18321 0.007,-0.29513 -0.30644,-0.52578 -0.33567,-0.81952 -0.31565,-3.17047 0.66201,0.76746 -0.0946,-1.93817 -0.55071,-1.01526 -0.36677,-0.47372 -0.54616,-1.62652 -0.12409,-0.24387 -0.43053,-0.34689 -0.59491,-0.56566 -0.1515,-0.20164 -0.19722,-0.46781 -0.33859,-0.6767 -0.42918,-0.63421 -0.53986,-0.57189 -1.22756,-0.90339 -0.54316,-0.92188 -0.0373,-0.38753 -1.20097,-0.73063 -0.43151,-0.12723 -0.7801,-0.47549 -1.21663,-0.58417 -0.27483,-0.0684 -0.5682,-0.008 -0.84815,-0.0506 -0.20082,-0.0308 -0.39042,-0.11269 -0.58563,-0.16904 -0.34957,0.0751 -0.69914,0.1502 -1.0487,0.22531 -0.19868,-0.0209 -0.39743,-0.0843 -0.59603,-0.0628 -0.31271,0.0339 -0.60928,0.15693 -0.91604,0.22644 -0.80915,0.18333 -1.59449,0.39598 -2.33916,0.7822 5.07204,-3.19842 1.50421,-1.02754 0.86823,-0.53696 -0.61259,0.47252 -0.95953,1.25111 -1.57927,1.71783 -0.47958,0.74494 -1.44917,1.9849 -1.452,2.89827 0,0.20313 0.1956,0.3797 0.17994,0.58223 -0.0233,0.29919 -0.19391,0.56797 -0.29088,0.85195 0.0369,0.22367 0.10316,0.44444 0.11075,0.67101 0.008,0.25232 -0.1153,0.50778 -0.063,0.75475 0.0442,0.20853 0.24114,0.35299 0.33795,0.54289 0.33758,0.66222 0.1288,1.17317 0.87397,1.52996 0.14597,0.10861 0.27647,0.24194 0.43792,0.32583 0.81655,0.42425 1.96458,0.39886 2.85816,0.55809 0.85772,-0.19191 0.59983,-0.14446 1.40737,-0.28866 0.19412,-0.0347 0.39671,-0.036 0.5829,-0.10092 0.33684,-0.11746 0.64122,-0.31517 0.97454,-0.44221 0.16719,-0.0637 0.34753,-0.0852 0.52128,-0.12787 0.20693,-0.0796 0.41387,-0.15923 0.62082,-0.23885 1.03455,-0.38963 2.03568,-0.84016 3.04081,-1.29867 0,0 -3.05216,2.40009 -3.05216,2.40009 z"
       inkscape:connector-curvature="0" />
  </g>
</svg>
