<?xml version="1.0" encoding="UTF-8" standalone="no"?>
<!-- Created with Inkscape (http://www.inkscape.org/) -->

<svg
   xmlns:dc="http://purl.org/dc/elements/1.1/"
   xmlns:cc="http://creativecommons.org/ns#"
   xmlns:rdf="http://www.w3.org/1999/02/22-rdf-syntax-ns#"
   xmlns:svg="http://www.w3.org/2000/svg"
   xmlns="http://www.w3.org/2000/svg"
   xmlns:sodipodi="http://sodipodi.sourceforge.net/DTD/sodipodi-0.dtd"
   xmlns:inkscape="http://www.inkscape.org/namespaces/inkscape"
   width="1920"
   height="1080"
   viewBox="0 0 508.00002 285.74999"
   version="1.1"
   id="svg8"
   inkscape:version="0.92.4 5da689c313, 2019-01-14"
   sodipodi:docname="dibujo1.svg">
  <defs
     id="defs2" />
  <sodipodi:namedview
     id="base"
     pagecolor="#ffffff"
     bordercolor="#666666"
     borderopacity="1.0"
     inkscape:pageopacity="0.0"
     inkscape:pageshadow="2"
     inkscape:zoom="1.979899"
     inkscape:cx="1376.5925"
     inkscape:cy="647.37523"
     inkscape:document-units="mm"
     inkscape:current-layer="layer1"
     showgrid="false"
     units="px"
     inkscape:window-width="1366"
     inkscape:window-height="741"
     inkscape:window-x="0"
     inkscape:window-y="27"
     inkscape:window-maximized="0"
     showguides="false" />
  <metadata
     id="metadata5">
    <rdf:RDF>
      <cc:Work
         rdf:about="">
        <dc:format>image/svg+xml</dc:format>
        <dc:type
           rdf:resource="http://purl.org/dc/dcmitype/StillImage" />
        <dc:title></dc:title>
      </cc:Work>
    </rdf:RDF>
  </metadata>
  <g
     inkscape:label="Capa 1"
     inkscape:groupmode="layer"
     id="layer1"
     transform="translate(0,-11.250015)">
    <path
       style="fill:none;fill-opacity:1;stroke:#000000;stroke-width:4.5999999;stroke-miterlimit:4;stroke-dasharray:none;stroke-opacity:1"
       d="m 51.782738,32.038705 c -0.71882,0.143764 -2.248966,0.368531 -3.023811,0.755952 -0.40631,0.203157 -0.727615,0.552797 -1.133928,0.755953 -0.356359,0.17818 -0.777568,0.199796 -1.133927,0.377976 -1.55117,0.775584 -0.718003,0.574401 -1.889882,1.511905 -3.490129,2.326753 0.803045,-0.642436 -1.889882,1.511905 -0.354724,0.28378 -0.779203,0.472171 -1.133927,0.755952 -0.55654,0.445233 -1.084273,0.941729 -1.511906,1.511906 -0.169037,0.22538 -0.233029,0.514371 -0.377976,0.755951 -0.233719,0.389533 -0.552796,0.727615 -0.755951,1.133928 -0.178181,0.356359 -0.251984,0.755954 -0.377976,1.13393 -0.498957,1.496864 -0.377979,1.865596 -0.377979,3.401785 0,2.006391 0.102193,2.748023 1.511906,4.157739 0.251984,0.251984 0.459444,0.558279 0.755952,0.755952 0.468823,0.312547 1.022691,0.4764 1.511906,0.755951 0.394417,0.225383 0.73951,0.530572 1.133927,0.755952 0.978429,0.559104 1.988019,1.067996 3.023809,1.511906 0.732417,0.313891 1.555139,0.399592 2.267858,0.755951 0.406312,0.203158 0.727617,0.552797 1.13393,0.755955 0.356359,0.178178 0.764003,0.230005 1.133927,0.377975 0.261578,0.10463 0.482637,0.309648 0.755952,0.377976 0.244462,0.06111 0.511492,-0.06112 0.755954,0 0.273315,0.06833 0.503968,0.251984 0.755952,0.377976 0.251984,0.125992 0.521541,0.221702 0.755951,0.377976 0.148254,0.09884 0.21861,0.298291 0.377976,0.377976 0.112692,0.05635 0.265287,-0.05635 0.377979,0 0.318735,0.159369 0.437213,0.596585 0.755951,0.755954 0.112692,0.05634 0.288886,-0.08909 0.377976,0 0.633783,0.633783 0.377976,2.585188 0.377976,3.401785 0,1.478163 -0.29428,2.394744 -0.755952,3.779761 -0.125992,0.377975 -0.17299,0.792284 -0.377976,1.13393 -0.183345,0.305575 -0.572608,0.450376 -0.755954,0.755951 -0.204986,0.341644 -0.17299,0.792284 -0.377976,1.133928 -0.2448,0.408003 -2.295265,2.382909 -2.645833,2.645833 -0.450763,0.338074 -1.06114,0.41788 -1.511903,0.755954 -0.285089,0.213815 -0.470866,0.542137 -0.755954,0.755952 -0.663673,0.497755 -1.576936,0.673314 -2.267855,1.133927 -0.148257,0.09884 -0.229722,0.279141 -0.377979,0.377979 -0.23441,0.156273 -0.521541,0.221702 -0.755951,0.377976 -0.416968,0.277979 -0.687401,0.910664 -1.133928,1.133927 -0.112691,0.05635 -0.251984,0 -0.377976,0"
       id="path895"
       inkscape:connector-curvature="0" />
    <path
       style="fill:none;fill-opacity:1;stroke:#000000;stroke-width:4.5999999;stroke-miterlimit:4;stroke-dasharray:none;stroke-opacity:1"
       d="m 81.264881,36.196443 c -1.846869,0.999991 -3.559427,2.154644 -4.913691,3.779762 -0.581634,0.697961 -1.007938,1.511904 -1.511906,2.267858 -0.251984,0.377976 -0.577006,0.716386 -0.755952,1.133927 -0.204631,0.477478 -0.195574,1.025502 -0.377975,1.511906 -0.197843,0.527577 -0.558112,0.984327 -0.755952,1.511904 -0.286284,0.763426 -1.033452,3.731892 -1.13393,4.535714 -0.06251,0.500076 0,1.007936 0,1.511906 0,1.511904 0,3.023809 0,4.535713 0,1.511906 0,3.023809 0,4.535715 0,0.755951 -0.148254,1.526585 0,2.267857 0.05525,0.276254 0.322725,0.479695 0.377976,0.755952 0.07413,0.370636 -0.07413,0.763294 0,1.13393 0.05992,0.299598 1.845241,3.368304 1.889881,3.401785 0.318739,0.239053 0.777568,0.199795 1.133928,0.377976 0.812625,0.406312 1.432777,1.154012 2.267857,1.511905 0.477478,0.204632 1.007938,0.251984 1.511906,0.377976 0.503968,0.125992 0.997646,0.304509 1.511903,0.377976 0.997808,0.142544 2.015874,0 3.023812,0 0.954328,0 2.49923,0.150426 3.401785,0 1.62057,-0.270095 3.15862,-1.396936 4.157737,-2.645833 0.932865,-1.166082 1.535247,-2.497693 2.267857,-3.779764 0.225383,-0.394417 0.577006,-0.716385 0.755954,-1.133927 0.204632,-0.477475 0.251984,-1.007935 0.377976,-1.511906 0.125992,-0.503968 0.304509,-0.997646 0.377976,-1.511903 0.159165,-1.114158 0,-2.621738 0,-3.779763 0,-1.007936 0.142544,-2.026002 0,-3.02381 -0.05635,-0.394417 -0.32163,-0.73951 -0.377976,-1.133927 -0.07127,-0.498904 0.07127,-1.013002 0,-1.511906 -0.05634,-0.394417 -0.321633,-0.73951 -0.377976,-1.133927 -0.07127,-0.498904 0.07127,-1.013003 0,-1.511906 -0.05635,-0.394417 -0.321632,-0.739511 -0.377978,-1.133928 0,-3.269715 0.159369,0.04089 -0.377976,-2.645833 -0.04942,-0.247092 0.06112,-0.511492 0,-0.755952 -0.161451,-0.645813 -0.824288,-1.648576 -1.133927,-2.267857 -0.248373,-0.496742 -0.778508,-1.912435 -1.13393,-2.267858 -0.398421,-0.398422 -1.061141,-0.41788 -1.511904,-0.755951 -0.753051,-0.56479 -0.596997,-0.905203 -1.511905,-1.13393 -0.24446,-0.06112 -0.51149,0.06112 -0.755952,0 -0.273315,-0.06833 -0.488683,-0.288886 -0.755952,-0.377976 -0.119528,-0.03984 -0.25845,0.03984 -0.377976,0 -0.267271,-0.08909 -0.488682,-0.288886 -0.755954,-0.377976 -0.119525,-0.03984 -0.258447,0.03984 -0.377976,0 -0.267268,-0.08909 -0.488682,-0.288887 -0.755951,-0.377976 -0.34018,-0.113393 -0.79375,0.113392 -1.13393,0 -0.643671,-0.214557 -1.211392,-0.755953 -1.889879,-0.755953 -0.67849,0 -1.259922,0.503968 -1.889882,0.755953"
       id="path897"
       inkscape:connector-curvature="0" />
    <path
       style="fill:none;fill-opacity:1;stroke:#000000;stroke-width:4.5999999;stroke-miterlimit:4;stroke-dasharray:none;stroke-opacity:1"
       d="m 108.10119,70.970253 c 0,-3.023811 0,-6.04762 0,-9.071429 0,-0.62996 0.0696,-1.263775 0,-1.889882 -0.0574,-0.5163 -0.32061,-0.995603 -0.37798,-1.511903 -0.0853,-0.767718 -0.0853,-4.523952 0,-5.291667 0.0574,-0.516303 0.30451,-0.997648 0.37798,-1.511906 0.12472,-0.87308 -0.10939,-1.770697 0,-2.645833 0.0644,-0.515467 0.29257,-0.999493 0.37798,-1.511903 0.0829,-0.497113 0,-1.007939 0,-1.511906 0,-1.007936 0,-2.015874 0,-3.023809 0,-0.155639 -0.10006,-1.033876 0,-1.133928 0.0891,-0.08909 0.26528,0.05634 0.37797,0 0.86407,-0.432035 -0.23499,-0.527801 1.13393,-0.755954 0.49711,-0.08285 1.00794,0 1.5119,0 1.13393,0 2.26786,0 3.40179,0 0.62996,0 1.26377,0.06957 1.88988,0 0.5163,-0.05737 1.00794,-0.251984 1.51191,-0.377976 0.62996,-0.125992 1.25063,-0.314052 1.88988,-0.377976 0.62683,-0.06268 1.26478,0.07814 1.88988,0 0.39534,-0.04942 0.74093,-0.312475 1.13393,-0.377976 0.37283,-0.06214 0.75595,0 1.13393,0 0.37797,-0.125991 0.74324,-0.299839 1.13392,-0.377975 0.79562,-0.159123 1.8267,0 2.64584,0 0.12599,0 0.28888,-0.08909 0.37797,0 0.17818,0.178178 0,0.503967 0,0.755951"
       id="path899"
       inkscape:connector-curvature="0" />
    <path
       style="fill:none;fill-opacity:1;stroke:#000000;stroke-width:4.5999999;stroke-miterlimit:4;stroke-dasharray:none;stroke-opacity:1"
       d="m 108.47917,55.473229 c 0.50396,0.125992 0.99949,0.292574 1.5119,0.377976 0.98111,0.163518 2.70627,0 3.77976,0 0.25405,0 0.91086,-0.111535 1.13393,0 0.15937,0.07968 0.20894,0.32163 0.37798,0.377976 0.49327,0.164423 3.42138,0 4.15773,0 0.67141,0 2.43861,0.146301 3.02381,0 0.27332,-0.06833 0.48264,-0.309647 0.75596,-0.377976 0.48892,-0.122229 1.0338,0.159369 1.5119,0 0.16904,-0.05635 0.20894,-0.32163 0.37798,-0.377976 0.41705,-0.139017 1.74596,0 2.26785,0"
       id="path901"
       inkscape:connector-curvature="0" />
    <path
       style="fill:none;fill-opacity:1;stroke:#000000;stroke-width:4.5999999;stroke-miterlimit:4;stroke-dasharray:none;stroke-opacity:1"
       d="m 146.65476,72.104181 c 0,-0.881944 0.0732,-1.766935 0,-2.645833 -0.0534,-0.640218 -0.31405,-1.250633 -0.37798,-1.889882 -0.0627,-0.626832 0.0696,-1.263772 0,-1.889879 -0.0574,-0.516303 -0.31354,-0.996439 -0.37797,-1.511906 -0.15197,-1.215729 0,-3.252404 0,-4.535715 0,-1.133927 -0.12522,-2.274792 0,-3.401785 0.0574,-0.516303 0.31354,-0.996437 0.37797,-1.511906 0.14065,-1.125172 0,-2.267855 0,-3.401785 0,-1.283311 0.15197,-3.319986 0,-4.535715 -0.0644,-0.515466 -0.30451,-0.997646 -0.37797,-1.511903 -0.15803,-1.106199 0,-2.660629 0,-3.779763 0,-2.141863 0,-4.283729 0,-6.425595"
       id="path903"
       inkscape:connector-curvature="0" />
    <path
       style="fill:none;fill-opacity:1;stroke:#000000;stroke-width:4.5999999;stroke-miterlimit:4;stroke-dasharray:none;stroke-opacity:1"
       d="m 135.31547,46.023824 c 0.75596,0 1.51653,-0.08348 2.26786,0 0.39599,0.044 0.74093,0.312475 1.13393,0.377976 0.74567,0.124277 1.5119,0 2.26786,0 1.25992,0 2.51984,0 3.77976,0 0.66845,0 2.00894,0.159226 2.64583,0 0.27332,-0.06833 0.48264,-0.309648 0.75595,-0.377976 0.48893,-0.12223 1.02299,0.122229 1.51191,0 1.46662,-0.366655 0.0453,-0.389298 1.5119,-0.755952 0.24447,-0.06112 0.50887,0.04942 0.75596,0 0.39068,-0.07814 0.74324,-0.299839 1.13393,-0.377976 0.24709,-0.04942 0.50886,0.04942 0.75595,0 0.39068,-0.07814 0.74324,-0.299839 1.13393,-0.377976 0.24709,-0.04942 0.51149,0.06111 0.75595,0 0.27331,-0.06833 0.48264,-0.309649 0.75595,-0.377978 0.24446,-0.06111 0.51149,0.06112 0.75595,0 0.27332,-0.06833 0.48868,-0.288885 0.75596,-0.377976 0.3971,-0.132368 1.08982,0 1.5119,0 1.25992,0 2.51984,0 3.77976,0"
       id="path907"
       inkscape:connector-curvature="0" />
    <path
       style="fill:none;fill-opacity:1;stroke:#000000;stroke-width:4.5999999;stroke-miterlimit:4;stroke-dasharray:none;stroke-opacity:1"
       d="m 173.11309,37.708348 c 0.25199,0.62996 0.45253,1.283023 0.75596,1.889882 2.43224,4.864483 -1.13872,-3.318069 1.5119,2.645833 0.55112,1.24002 1.04817,2.504485 1.51191,3.779761 0.27231,0.748868 0.42621,1.542439 0.75595,2.267857 0.304,0.668803 0.82992,1.221076 1.13393,1.889882 0.32973,0.725419 0.48363,1.518989 0.75595,2.267857 0.69386,1.908128 1.62588,3.743727 2.26786,5.669643 0.16427,0.492821 0.17334,1.034428 0.37797,1.511903 0.17895,0.417542 0.5528,0.727617 0.75595,1.13393 0.17818,0.356359 0.17299,0.792284 0.37798,1.133928 0.18334,0.305575 0.54214,0.470865 0.75595,0.755951 0.33807,0.450763 0.57777,0.977366 0.75596,1.511906 0.0398,0.119526 -0.0564,0.265284 0,0.377976 0.0797,0.159369 0.29829,0.218606 0.37797,0.377976 0.11295,0.22589 -0.24882,0.755954 0.37798,0.755954 0.12599,0 0,-0.251987 0,-0.377979 0,-0.755951 0,-1.511903 0,-2.267854 0,-4.983946 -0.15279,0.844325 0.37797,-3.401788 0.0625,-0.500076 -0.0713,-1.013002 0,-1.511903 0.0564,-0.39442 0.31248,-0.740929 0.37798,-1.13393 0.12428,-0.745668 -0.14826,-1.526585 0,-2.267858 0.0553,-0.276254 0.28889,-0.488683 0.37798,-0.755951 0.0797,-0.239054 0,-0.503968 0,-0.755952 0,-0.626256 -0.27787,-1.511906 0.75595,-1.511906 0.39842,0 0.75595,0.251984 1.13393,0.377976 2.34939,0.783132 1.84632,1.139838 3.02381,3.023812 0.33388,0.534204 0.80005,0.977699 1.13393,1.511903 0.9591,1.918216 0.4434,1.043083 1.5119,2.645833 0.25198,0.377976 0.52223,0.744395 0.75595,1.13393 0.43069,0.717812 0.66983,1.571713 1.13393,2.267855 0.0988,0.148257 0.25198,0.251984 0.37798,0.377979 0.12599,0.125992 0.22972,0.47681 0.37797,0.377975 0.80151,-0.534339 0.9232,-1.873154 1.13393,-2.645833 0.68255,-2.502678 0.93525,-2.708886 1.13393,-5.291667 0.058,-0.753726 -0.058,-1.514131 0,-2.267857 0.0683,-0.888275 0.30965,-1.757558 0.37797,-2.645833 0.058,-0.753727 -0.0628,-1.514518 0,-2.267858 0.0547,-0.656465 0.58721,-3.398358 0.75596,-4.157739 0.11269,-0.507108 0.31354,-0.996437 0.37797,-1.511903 0.0625,-0.500079 -0.0829,-1.014794 0,-1.511906 0.54702,-3.282074 0.37798,2.46135 0.37798,-1.889879"
       id="path909"
       inkscape:connector-curvature="0" />
    <path
       style="fill:none;fill-opacity:1;stroke:#000000;stroke-width:4.5999999;stroke-miterlimit:4;stroke-dasharray:none;stroke-opacity:1"
       d="m 212.04464,63.788705 c 0.25198,-0.881946 0.51461,-1.760918 0.75595,-2.645833 0.30564,-1.120661 0.38863,-2.299806 0.75596,-3.401785 0.17817,-0.53454 0.54669,-0.988753 0.75595,-1.511906 0.29594,-0.739852 0.48363,-1.518989 0.75595,-2.267857 0.46374,-1.275276 1.12198,-2.480014 1.5119,-3.779761 0.18461,-0.615344 0.17483,-1.280414 0.37798,-1.889882 0.17818,-0.53454 0.52711,-0.997013 0.75595,-1.511906 0.27556,-0.620008 0.5414,-1.246208 0.75596,-1.889879 0.32854,-0.985641 0.34668,-2.068859 0.75595,-3.023809 0.17894,-0.417541 0.577,-0.716388 0.75595,-1.13393 0.20463,-0.477475 0.14566,-1.047268 0.37798,-1.511903 0.15936,-0.318738 0.6236,-0.425082 0.75595,-0.755954 0.14037,-0.350941 -0.0741,-0.763292 0,-1.133928 0.0553,-0.276256 0.25198,-0.503969 0.37798,-0.755953 0.12599,-0.251984 0.2217,-0.521541 0.37797,-0.755952 0.0988,-0.148254 0.32163,-0.20894 0.37798,-0.377976 0.0797,-0.239053 -0.0797,-0.516899 0,-0.755953 0.0563,-0.169036 0.29829,-0.218607 0.37797,-0.377976 0.0564,-0.112691 -0.0563,-0.265285 0,-0.377976 0.20119,-0.402376 0.55477,-0.353576 0.75595,-0.755952 0.26069,-0.521365 -0.45774,-0.33809 0.37798,-0.755953 0.22538,-0.11269 0.50397,0 0.75595,0 0.37798,0 0.7705,-0.103838 1.13393,0 0.93684,0.267669 3.30168,1.656383 4.15774,2.267857 1.67671,1.197652 2.55057,2.140834 3.77976,3.779762 0.92245,1.229934 1.34374,1.603827 1.88988,3.023809 0.77464,2.01405 1.30389,3.996631 1.88989,6.047621 0.2189,0.766183 0.53704,1.501671 0.75595,2.267857 0.55557,1.9445 1.14358,4.083219 1.5119,6.047618 0.1872,0.998382 0.29362,2.011537 0.37798,3.023809 0.0837,1.004454 -0.14255,2.026002 0,3.02381 0.0563,0.394417 0.31247,0.740928 0.37797,1.13393 0.0621,0.372832 0,0.755951 0,1.133927 0,1.259919 0,2.519841 0,3.779761"
       id="path911"
       inkscape:connector-curvature="0" />
    <path
       style="fill:none;fill-opacity:1;stroke:#000000;stroke-width:4.5999999;stroke-miterlimit:4;stroke-dasharray:none;stroke-opacity:1"
       d="m 215.8244,52.44942 c 2.14187,0 4.28373,0 6.4256,0 0.37797,0 0.76109,-0.06214 1.13392,0 0.39301,0.0655 0.74093,0.312476 1.13393,0.377976 0.37284,0.06214 0.7611,-0.06214 1.13393,0 0.78601,0.131001 1.48649,0.599678 2.26786,0.755952 0.24709,0.04942 0.5074,-0.04143 0.75595,0 0.51241,0.0854 0.9995,0.292573 1.51191,0.377976 0.98734,0.164557 2.71671,0 3.77976,0 2.39385,0 4.7877,0 7.18155,0"
       id="path913"
       inkscape:connector-curvature="0" />
    <path
       style="fill:none;fill-opacity:1;stroke:#000000;stroke-width:4.5999999;stroke-miterlimit:4;stroke-dasharray:none;stroke-opacity:1"
       d="m 253.24405,63.032754 c 0,-2.015874 0,-4.031748 0,-6.047621 0,-0.62996 -0.0696,-1.263772 0,-1.889879 0.53076,-4.776878 0.37797,2.225802 0.37797,-3.401788 0,-4.991227 -0.12354,1.235453 0.37798,-3.779761 0.11283,-1.128302 0,-2.267857 0,-3.401785 0,-1.763889 0,-3.527779 0,-5.291666 0,-0.755954 -0.14826,-1.526586 0,-2.267858 0.10187,-0.509391 0.31354,-0.996438 0.37797,-1.511905 0.11068,-0.885379 -0.0704,-3.537995 0.75595,-4.157738 0.31874,-0.239054 0.76401,-0.230006 1.13393,-0.377976 0.91396,-0.365583 1.6521,-0.935183 2.64584,-1.133929 0.30748,-0.0615 3.05455,-0.08681 3.40178,0 0.27332,0.06833 0.48869,0.288886 0.75595,0.377976 1.12518,0.375057 -0.77553,-0.894998 1.13393,0.377976 0.62796,0.418637 0.72046,0.960611 1.13392,1.511905 0.21384,0.285088 0.54216,0.470865 0.75597,0.755952 0.33806,0.450763 0.41788,1.061142 0.75594,1.511905 0.21384,0.285088 0.57261,0.450377 0.75597,0.755952 0.40997,0.683288 0.46,1.528007 0.75594,2.267858 0.10464,0.261577 0.27334,0.494374 0.37798,0.755952 0.29594,0.739852 0.46001,1.528006 0.75594,2.267857 0.10465,0.261578 0.30964,0.482637 0.37799,0.755952 0.12223,0.488921 0,1.007938 0,1.511906 0,0.708787 0.1583,2.926918 0,3.401785 -0.0564,0.169037 -0.27914,0.229722 -0.37799,0.377976 -0.15626,0.23441 -0.25199,0.503967 -0.37795,0.755954 -0.35256,0.705088 -0.66186,1.638424 -1.13396,2.267855 -0.37737,0.503189 -1.76466,1.890466 -2.26785,2.267857 -0.22537,0.169037 -0.53056,0.208942 -0.75594,0.377976 -0.75306,0.56479 -0.597,0.905203 -1.51191,1.13393 -2.50718,0 0.53454,-0.178181 -1.13393,0.377976 -0.45357,0.151191 -1.05833,-0.151191 -1.5119,0 -0.35737,0.119123 -1.03301,0.617424 -1.51191,0.377976 -0.15937,-0.07968 -0.20894,-0.321631 -0.37797,-0.377976 -0.34018,-0.113393 -0.79375,0.113392 -1.13393,0 -0.26727,-0.08909 -0.48264,-0.309647 -0.75595,-0.377976 -0.24446,-0.06112 -0.5115,0.06111 -0.75596,0 -0.54663,-0.136657 -0.97736,-0.577773 -1.5119,-0.755952 -0.11953,-0.03984 -0.26529,0.05634 -0.37798,0 -0.15937,-0.07968 -0.2186,-0.298294 -0.37797,-0.377978 -0.11269,-0.05635 -0.26529,0.05635 -0.37798,0 -0.15937,-0.07968 -0.21861,-0.298291 -0.37797,-0.377976 -0.22539,-0.112691 -0.57778,0.178181 -0.75596,0 -0.0891,-0.08909 -0.0891,-0.288885 0,-0.377976 0.17818,-0.178178 0.50397,0 0.75596,0 1.25991,0 2.51984,0 3.77976,0 0.49674,0 1.84135,-0.142168 2.26785,0 0.16904,0.05635 0.21861,0.298292 0.37798,0.377976 0.43949,0.219747 2.20634,-0.219747 2.64583,0 0.31874,0.159369 0.45945,0.558282 0.75595,0.755954 0.23442,0.156274 0.50397,0.251984 0.75596,0.377976 0.25198,0.251984 0.47768,0.533337 0.75595,0.755952 1.05841,0.846733 2.36074,1.400315 3.40177,2.267857 0.94057,0.783805 1.66497,1.910168 2.64584,2.645834 0.2254,0.169034 0.53059,0.208938 0.75597,0.377975 0.37348,0.28012 1.95736,1.802128 2.26784,2.267858 0.15629,0.23441 0.2217,0.521541 0.37799,0.755952 0.5766,0.864925 0.29919,-0.236345 0.75594,1.13393 0.0399,0.119525 -0.0563,0.265284 0,0.377975 0.15938,0.318736 0.59658,0.437214 0.75597,0.755952 0.0563,0.112691 -0.0891,0.288885 0,0.377976 0.0891,0.08909 0.25199,0 0.37795,0"
       id="path915"
       inkscape:connector-curvature="0" />
    <path
       style="fill:none;fill-opacity:1;stroke:#000000;stroke-width:4.5999999;stroke-miterlimit:4;stroke-dasharray:none;stroke-opacity:1"
       d="m 286.88392,70.592275 c 0,-1.007935 0.0718,-2.018432 0,-3.023809 -0.0546,-0.764432 -0.31919,-1.503733 -0.37798,-2.267858 -0.17836,-2.318861 0.24193,-4.883324 0,-7.181545 -0.12462,-1.18409 -0.82937,-5.35418 -1.13393,-7.181549 -0.12599,-0.755951 -0.30858,-1.504624 -0.37795,-2.267857 -0.0571,-0.627372 0,-1.259919 0,-1.889882 -0.126,-0.629959 -0.31407,-1.250632 -0.37799,-1.889879 -0.0627,-0.626835 0.0696,-1.263774 0,-1.889881 -0.0574,-0.516303 -0.31356,-0.996437 -0.37798,-1.511906 -0.0625,-0.500076 0,-1.007936 0,-1.511904 0,-1.259922 0,-2.519841 0,-3.779762 0,-0.100562 -0.0624,-1.102719 0,-1.133929 0.45077,-0.225381 1.0338,0.159369 1.51191,0 0.53453,-0.178179 0.98433,-0.55811 1.5119,-0.755952 1.27236,-0.477132 3.17948,-0.794871 4.5357,-1.133928 1.00796,-0.251985 1.9929,-0.627086 3.02382,-0.755953 0.50009,-0.06251 1.01182,0.06251 1.51191,0 0.51546,-0.06443 0.99645,-0.313542 1.51191,-0.377976 0.87513,-0.109392 1.7639,0 2.64583,0 1.7639,0 3.52777,0 5.29167,0"
       id="path917"
       inkscape:connector-curvature="0" />
    <path
       style="fill:none;fill-opacity:1;stroke:#000000;stroke-width:4.5999999;stroke-miterlimit:4;stroke-dasharray:none;stroke-opacity:1"
       d="m 284.99406,46.779775 c 0.88193,1.889882 1.4125,3.987853 2.64583,5.669645 0.29803,0.406403 1.00793,0 1.51188,0 0.62997,0 1.25992,0 1.88989,0 4.15774,0 8.31549,0 12.47323,0"
       id="path919"
       inkscape:connector-curvature="0" />
    <path
       style="fill:none;fill-opacity:1;stroke:#000000;stroke-width:4.5999999;stroke-miterlimit:4;stroke-dasharray:none;stroke-opacity:1"
       d="m 286.88392,70.592275 c 0.126,-0.755952 -0.12078,-1.685978 0.37798,-2.267855 0.47721,-0.556728 3.23843,-0.323845 3.77976,-0.377978 0.63926,-0.06392 1.25138,-0.307031 1.8899,-0.377976 0.50088,-0.05565 1.00793,0 1.51188,0 1.51191,0 3.02381,0 4.53572,0 3.52777,0 7.05557,0 10.58334,0"
       id="path921"
       inkscape:connector-curvature="0" />
    <path
       style="fill:none;fill-opacity:1;stroke:#000000;stroke-width:4.5999999;stroke-miterlimit:4;stroke-dasharray:none;stroke-opacity:1"
       d="m 285.37201,99.318466 c -1.19176,5.958824 0.24199,-0.347938 -0.75594,2.645834 -0.15343,0.46029 0,4.61497 0,5.29167 0,0.49674 -0.14216,1.84135 0,2.26785 0.55616,1.66847 0.37799,-1.37325 0.37799,1.13393 0,0.24784 -0.0119,3.38986 0,3.40179 0.62994,0.62996 0.12596,-1.00794 0.75594,-0.37798 0.0891,0.0891 -0.0399,0.25845 0,0.37798 0.0891,0.26727 0.32271,0.47969 0.37798,0.75595 0.26802,1.34012 -0.16301,0.97798 -0.37798,2.26786 -0.0621,0.37283 0.0741,0.76329 0,1.13392 -0.0553,0.27626 -0.30965,0.48264 -0.37799,0.75596 -0.0611,0.24446 0,0.50397 0,0.75595 -0.12599,0.25198 -0.30964,0.48264 -0.37795,0.75595 -0.0611,0.24446 0.0797,0.5169 0,0.75596 -0.0564,0.16903 -0.2983,0.2186 -0.37799,0.37797 -0.0388,0.0775 -0.0533,1.08063 0,1.13393 0.19921,0.19921 0.52155,0.2217 0.75594,0.37798 0.14828,0.0988 0.20894,0.32163 0.37799,0.37797 0.23905,0.0797 0.51149,-0.0611 0.75594,0 0.68413,-0.22782 0.70297,0.6123 1.13395,0.75596 0.23905,0.0797 0.51149,-0.0611 0.75594,0 0.27331,0.0683 0.48869,0.28888 0.75594,0.37797 0.51954,0.17318 1.32368,0 1.88989,0 1.38592,0 2.77183,0 4.15774,0 0.50396,0 1.02299,-0.12223 1.51191,0 0.27332,0.0683 0.48263,0.30965 0.75594,0.37798 0.48893,0.12223 1.00793,0 1.51191,0 0.88194,0 1.7639,0 2.64584,0"
       id="path923"
       inkscape:connector-curvature="0" />
    <path
       style="fill:none;fill-opacity:1;stroke:#000000;stroke-width:4.5999999;stroke-miterlimit:4;stroke-dasharray:none;stroke-opacity:1"
       d="m 312.96427,127.2887 c -0.22688,-1.22087 0.24061,-3.33267 0,-4.53571 -0.0552,-0.27626 -0.30964,-0.48264 -0.37796,-0.75595 -0.12223,-0.48892 0.12221,-1.02299 0,-1.51191 -0.0683,-0.27331 -0.30964,-0.48264 -0.37798,-0.75595 -0.12224,-0.48892 0.12224,-1.02298 0,-1.51191 -0.0683,-0.27331 -0.25199,-0.50396 -0.37798,-0.75595 0,-0.37797 0.0741,-0.76329 0,-1.13392 -0.0553,-0.27626 -0.30965,-0.48264 -0.37796,-0.75596 -0.12224,-0.48892 0.15936,-1.0338 0,-1.5119 -0.0564,-0.16904 -0.29829,-0.21861 -0.37799,-0.37798 -0.11988,-0.23977 0,-1.54946 0,-1.88988"
       id="path925"
       inkscape:connector-curvature="0" />
    <path
       style="fill:none;fill-opacity:1;stroke:#000000;stroke-width:4.5999999;stroke-miterlimit:4;stroke-dasharray:none;stroke-opacity:1"
       d="m 310.9681,105.9023 c -0.26729,-0.13363 -0.5406,-0.25578 -0.80182,-0.4009 -0.14039,-0.078 -0.25726,-0.19545 -0.4009,-0.26727 -0.126,-0.063 -0.28012,-0.0612 -0.4009,-0.13364 -0.10805,-0.0648 -0.16647,-0.19167 -0.26728,-0.26727 -0.0673,-0.29442 -0.2749,-0.0706 -0.4009,-0.13363 -0.0973,-0.0487 -0.26728,-0.3713 -0.26728,-0.13364 0,0.063 0.10546,0.0773 0.13364,0.13364 0.0199,0.0398 -0.0198,0.0938 0,0.13363 0.10692,0.21382 0.42765,0.32073 0.53454,0.53454 0.0198,0.0398 -0.0315,0.10214 0,0.13364 0.0315,0.0315 0.0938,-0.0199 0.13364,0 0.0564,0.0282 0.0891,0.0891 0.13364,0.13363 0.27197,0.27198 -0.009,0.26727 0.26726,0.26727"
       id="path929"
       inkscape:connector-curvature="0" />
    <path
       style="fill:none;fill-opacity:1;stroke:#000000;stroke-width:4.5999999;stroke-miterlimit:4;stroke-dasharray:none;stroke-opacity:1"
       d="m 330.07786,100.82418 c 0,3.52418 0.10803,-0.59703 -0.26728,2.40543 -0.0442,0.3536 0.0442,0.71547 0,1.06907 -0.0911,0.72899 -0.35634,1.42544 -0.53454,2.13816 -0.26109,1.04439 -0.64965,2.14217 -0.80179,3.20724 -0.0378,0.26458 0.0378,0.53722 0,0.8018 -0.052,0.36364 -0.22172,0.70459 -0.26728,1.06908 -0.0442,0.35361 0,0.71272 0,1.06908 0,1.15817 0,2.31634 0,3.4745 0,0.35636 0.0442,0.71547 0,1.06908 -0.0456,0.36449 -0.21532,0.70545 -0.26726,1.06908 -0.0748,0.52385 0.0374,1.60896 0,1.87089 -0.0398,0.27889 -0.22095,0.52391 -0.26728,0.8018 -0.0879,0.52727 0.10483,1.07946 0,1.60362 -0.0391,0.19534 -0.21894,0.34128 -0.26725,0.53454 -0.0864,0.34572 0.0864,0.72336 0,1.06908 -0.0483,0.19326 -0.21897,0.34128 -0.26729,0.53454 -0.10369,0.41475 0,1.39442 0,1.87089 0,0.0981 -0.0108,1.05832 0,1.06907 0.063,0.063 0.1782,0 0.26729,0 0.62362,0 1.24724,0 1.87086,0 1.14568,0 2.68232,-0.0805 3.74179,-0.53454 0.29525,-0.12653 0.50655,-0.408 0.8018,-0.53453 0.67527,-0.2894 1.43176,-0.33272 2.13815,-0.53454 1.25359,-0.35817 0.44545,-0.19091 1.87089,-0.80181 0.5179,-0.22196 1.09967,-0.28256 1.60362,-0.53454 0.28731,-0.14365 0.51451,-0.39089 0.80182,-0.53454 0.25199,-0.12599 0.56023,-0.12232 0.80179,-0.26727 0.21609,-0.12965 0.31848,-0.40489 0.53456,-0.53454 1.08689,-0.65213 0.58981,0.212 1.60362,-0.80181 0.14086,-0.14086 0.12639,-0.39367 0.26725,-0.53454 0.14087,-0.14086 0.37518,-0.14774 0.53454,-0.26727 0.77068,-0.57801 0.34653,-0.38615 0.80182,-1.06907 0.0699,-0.10484 0.21093,-0.15458 0.26726,-0.26727 0.0797,-0.15937 0,-0.35636 0,-0.53454 0,-0.89608 -0.11954,-1.72318 -0.8018,-2.40543 -0.22714,-0.22714 -0.60116,-0.28371 -0.80182,-0.53454 -0.176,-0.21999 -0.12231,-0.56023 -0.26725,-0.80181 -0.13378,-0.22292 -1.3725,-1.43026 -1.60362,-1.60361 -0.31874,-0.23906 -0.75035,-0.29549 -1.0691,-0.53454 -0.20158,-0.15119 -0.33295,-0.38335 -0.53454,-0.53454 -0.24926,-0.18695 -1.10532,-0.49604 -1.33633,-0.53454 -0.26363,-0.0439 -0.53972,0.0524 -0.80182,0 -0.39068,-0.0781 -0.67839,-0.4564 -1.06907,-0.53454 -0.26207,-0.0524 -0.53454,0 -0.80182,0 -0.71271,0 -1.42542,0 -2.13815,0 -1.24725,0 -2.49452,0 -3.74177,0 -0.35636,0 -0.7127,0 -1.06907,0 -0.1782,0 -0.71274,0 -0.53454,0 0.865,0 2.14839,0.11308 2.93997,0 0.27887,-0.0398 0.5229,-0.22743 0.80179,-0.26727 0.35277,-0.0504 0.71549,0.0442 1.06908,0 0.36449,-0.0456 0.71051,-0.18758 1.06908,-0.26727 0.44346,-0.0985 0.8909,-0.17818 1.33635,-0.26727 0.36288,-0.0726 1.97406,-0.37277 2.40544,-0.53454 1.4215,-0.53306 0.66053,-0.59072 2.13815,-0.80181 1.42592,-0.2037 0.18735,0.29924 1.60361,-0.26727 0.36991,-0.14797 0.68255,-0.4379 1.06908,-0.53454 0.17285,-0.0432 0.36549,0.0563 0.53453,0 0.0823,-0.0274 1.28344,-1.23051 1.33636,-1.33634 0.14571,-0.29145 -0.14309,-0.34827 -0.26728,-0.53454 -0.11049,-0.16575 -0.15677,-0.36879 -0.26726,-0.53454 -0.20103,-0.30153 -1.0619,-1.13051 -1.33635,-1.33635 -0.15936,-0.11953 -0.37518,-0.14774 -0.53454,-0.26727 -0.59857,-0.44893 -1.0191,-1.136 -1.60362,-1.60361 -0.31247,-0.48503 -0.92077,-0.49013 -1.33635,-0.80181 -0.30237,-0.22679 -0.46374,-0.63278 -0.8018,-0.80181 -0.0797,-0.0398 -0.18759,0.0398 -0.26728,0 -0.11268,-0.0563 -0.15457,-0.21093 -0.26725,-0.26727 -0.0797,-0.0398 -0.18759,0.0398 -0.26729,0 -0.11268,-0.0563 -0.14774,-0.22743 -0.26725,-0.26727 -0.16904,-0.0563 -0.36552,0.0563 -0.53454,0 -0.11954,-0.0398 -0.1546,-0.21092 -0.26728,-0.26727 -0.86929,-0.43464 -0.63574,-0.0675 -1.33636,-0.53454 -0.10483,-0.0699 -0.14774,-0.22743 -0.26725,-0.26727 -0.16905,-0.0563 -0.3655,0.0563 -0.53454,0 -0.11954,-0.0398 -0.15457,-0.21092 -0.26728,-0.26727 -0.14645,-0.0732 -1.80071,0 -2.13816,0 -0.28008,0 -0.81224,-0.10273 -1.06907,0 -0.36991,0.14797 -0.71271,0.35636 -1.06908,0.53454 z"
       id="path931"
       inkscape:connector-curvature="0" />
    <path
       style="fill:none;fill-opacity:1;stroke:#000000;stroke-width:4.5999999;stroke-miterlimit:4;stroke-dasharray:none;stroke-opacity:1"
       d="m 356.53755,125.94752 c -0.17817,-0.80181 -0.42598,-1.59127 -0.53454,-2.40543 -0.0706,-0.52985 0,-1.06908 0,-1.60362 0,-1.6927 0,-3.38541 0,-5.07812 0,-0.53454 0.0444,-1.07092 0,-1.60361 -0.43013,-5.16163 -0.0871,1.53472 -0.53454,-2.93997 -0.0443,-0.44324 0.0492,-0.89362 0,-1.33635 -0.0406,-0.36508 -0.18759,-0.7105 -0.26728,-1.06908 -0.0891,-0.44544 -0.17817,-0.89089 -0.26726,-1.33634 0,-0.26727 0.0378,-0.53723 0,-0.80181 -0.052,-0.36364 -0.22172,-0.70459 -0.26728,-1.06908 -0.0442,-0.35361 0,-0.71272 0,-1.06908 0,-0.97999 0,-1.95998 0,-2.93996 0,-0.71272 0,-1.42544 0,-2.13816 0,-0.35636 -0.0504,-0.7163 0,-1.069077 0.0399,-0.278894 0.22095,-0.523914 0.26728,-0.801809 0.0879,-0.527267 -0.10482,-1.079458 0,-1.603616 0.0391,-0.195344 0.21895,-0.341278 0.26726,-0.53454 0.0648,-0.259289 -0.11951,-0.562756 0,-0.801809 0.0564,-0.112689 0.21092,-0.154578 0.26728,-0.267269 0.0797,-0.159369 -0.0797,-0.375171 0,-0.534538 0.26443,-0.528849 1.17245,-0.205676 1.60361,-0.267271 0.36365,-0.05195 0.70544,-0.215321 1.06908,-0.267269 0.99666,-0.142378 0.77959,0.130857 1.87089,0.267269 0.35359,0.0442 0.71491,-0.03935 1.06908,0 0.45149,0.05017 0.88559,0.210926 1.33636,0.267271 0.26519,0.03315 0.53816,-0.04394 0.80179,0 0.89466,0.149106 1.57001,0.790604 2.40543,1.069078 0.0845,0.02817 0.18759,-0.03984 0.26726,0 0.11271,0.05634 0.14774,0.227425 0.26728,0.267269 0.16904,0.05635 0.37518,-0.07968 0.53454,0 0.0797,0.03984 -0.0399,0.187584 0,0.267269 0.0564,0.112691 0.19738,0.162438 0.26725,0.267269 0.32793,0.491884 0.70634,1.297987 0.80182,1.870887 0.0439,0.263634 -0.0439,0.538176 0,0.801809 0.0463,0.277895 0.22096,0.523917 0.26729,0.801807 0.0879,0.52727 -0.0879,1.07635 0,1.60362 0.0463,0.27789 0.22741,0.52291 0.26725,0.80181 0.0882,0.61736 0,1.24725 0,1.87088 0,0.53019 0.10049,1.63568 0,2.13816 -0.0391,0.19534 -0.21894,0.34128 -0.26725,0.53454 -0.0432,0.17286 0.0432,0.36168 0,0.53454 -0.18749,0.74993 -0.81775,0.83367 -1.06911,1.33635 -0.23656,0.47312 0.39757,0.0913 -0.26725,0.53454 -0.79481,0.52986 -1.78006,0.77153 -2.67269,1.06907 -0.26728,0.0891 -0.52393,0.22096 -0.80182,0.26727 -0.26363,0.0439 -0.53816,-0.0439 -0.80179,0 -0.27792,0.0463 -0.52557,0.21202 -0.80182,0.26727 -0.3252,0.065 -1.62645,-0.12223 -1.8709,0 -0.11268,0.0563 -0.15457,0.21092 -0.26725,0.26727 -0.11414,0.0571 -1.23071,0 -1.33636,0 -1.75101,0 0.15531,-0.0845 -1.60361,0.26727 -0.34944,0.0699 -0.71271,0 -1.06908,0 -0.26728,0 -0.53454,0 -0.80182,0 -0.0891,0 -0.35634,0 -0.26725,0 2.5836,0 5.1672,0 7.75081,0 0.44545,0 0.8909,0 1.33635,0 0.0891,0 0.20426,-0.063 0.26726,0 0.14086,0.14086 0.16478,0.36372 0.26728,0.53454 0.16526,0.27544 0.35634,0.53454 0.53454,0.80181 0.63005,0.9451 1.04246,1.95793 1.60361,2.93996 0.15936,0.2789 0.37518,0.52292 0.53454,0.80181 0.19767,0.34593 0.33687,0.72315 0.53454,1.06908 0.41698,0.72973 0.87013,1.43884 1.33635,2.13816 0.0699,0.10483 0.19738,0.16243 0.26726,0.26727 0.11052,0.16575 0.15677,0.36878 0.26728,0.53453 0.19656,0.29485 0.64392,0.48607 0.8018,0.80181 0.0398,0.0797 -0.063,0.20428 0,0.26727 0.35636,0.35636 0.26728,-0.44544 0.26728,0.26727"
       id="path933"
       inkscape:connector-curvature="0" />
    <path
       style="fill:none;fill-opacity:1;stroke:#000000;stroke-width:4.5999999;stroke-miterlimit:4;stroke-dasharray:none;stroke-opacity:1"
       d="m 379.79,127.01659 c 0.0984,-0.88545 -0.0984,-1.78724 0,-2.67269 0.0406,-0.36508 0.2267,-0.704 0.26726,-1.06908 0.0885,-0.7969 0,-1.60362 0,-2.40543 0,-1.15816 0,-2.31633 0,-3.4745 0,-0.90744 0.10747,-2.34758 0,-3.20723 -0.0456,-0.36449 -0.2267,-0.704 -0.26726,-1.06908 -0.0885,-0.7969 0,-1.60362 0,-2.40543 0,-1.06907 0,-2.13815 0,-3.20723 0,-0.32041 0.0927,-1.41828 0,-1.60362 -0.0564,-0.11269 -0.21092,-0.15458 -0.26728,-0.26727 -0.0683,-0.13657 0,-2.57967 0,-2.93996 0,-0.11006 -0.0707,-0.73106 0,-0.80181 0.0161,-0.0161 1.8039,0 1.8709,0 1.2256,0 -0.28173,0.0563 1.33633,-0.26727 0.4368,-0.0874 0.89955,0.0874 1.33635,0 0.19535,-0.0391 0.34957,-0.19328 0.53454,-0.26727 0.52316,-0.20926 1.04783,-0.44191 1.60362,-0.53454 0.26363,-0.0439 0.53723,0.0378 0.80181,0 0.83553,-0.11936 1.10935,-0.31696 1.8709,-0.53454 2.60308,-0.743741 -0.22577,0.0322 1.87087,-0.26727 0.36364,-0.05194 0.70458,-0.221707 1.06907,-0.267268 0.4744,-0.0593 2.47153,-0.06692 2.93997,0 0.2789,0.03984 0.52293,0.227428 0.80182,0.267268 0.52385,0.0748 1.34702,-0.07483 1.87087,0 0.36365,0.052 0.70546,0.21532 1.06908,0.26727 0.26458,0.0378 0.53819,-0.0439 0.80182,0 0.27789,0.0463 0.52554,0.21202 0.80182,0.26727 0.1747,0.0349 0.36166,-0.0432 0.53454,0 0.19325,0.0483 0.34126,0.21895 0.53453,0.26727 0.3682,0.0921 0.9438,0 1.33633,0"
       id="path935"
       inkscape:connector-curvature="0" />
    <path
       style="fill:none;fill-opacity:1;stroke:#000000;stroke-width:4.5999999;stroke-miterlimit:4;stroke-dasharray:none;stroke-opacity:1"
       d="m 381.66087,112.85131 c 1.32096,-0.13842 2.68901,0.14667 4.00905,0 0.3651,-0.0406 0.70458,-0.22171 1.06907,-0.26727 0.87249,-0.10906 2.27187,0 3.20726,0 0.42584,0 1.16504,-0.10964 1.60361,0 2.90679,0.96893 -0.70432,-0.14086 1.33633,0.26727 0.27628,0.0553 0.52557,0.21202 0.80182,0.26727 0.17473,0.0349 0.35981,-0.0349 0.53454,0 0.27625,0.0553 0.52393,0.22095 0.80182,0.26727 0.43936,0.0732 0.90418,-0.10804 1.33633,0 0.19328,0.0483 0.34554,0.20427 0.53454,0.26727 0.16904,0.0563 0.37517,-0.0797 0.53453,0 0.5511,0.27554 -0.0188,0.26727 0.80182,0.26727"
       id="path937"
       inkscape:connector-curvature="0" />
    <path
       style="fill:none;fill-opacity:1;stroke:#000000;stroke-width:4.5999999;stroke-miterlimit:4;stroke-dasharray:none;stroke-opacity:1"
       d="m 379.79,127.01659 c 0.62363,-0.8909 1.03545,-1.97651 1.87087,-2.67269 0.46781,-0.38983 3.37481,0.47111 4.00905,0.53454 0.44325,0.0443 0.8909,0 1.33635,0 0.44546,0.0891 0.88485,0.2171 1.33634,0.26727 0.70836,0.0787 1.43515,-0.11717 2.13817,0 0.19648,0.0328 0.3392,0.2282 0.53454,0.26727 0.51223,0.10245 2.00472,0 2.67269,0 h 0.26728 c 0.0891,0 0.17822,0.003 0.26726,0 2.78757,-0.0999 0.0891,0 0,0"
       id="path939"
       inkscape:connector-curvature="0"
       sodipodi:nodetypes="cccccccsssc" />
  </g>
</svg>
