<?xml version="1.0" encoding="UTF-8" standalone="no"?>
<!-- Created with Inkscape (http://www.inkscape.org/) -->

<svg
   xmlns:dc="http://purl.org/dc/elements/1.1/"
   xmlns:cc="http://creativecommons.org/ns#"
   xmlns:rdf="http://www.w3.org/1999/02/22-rdf-syntax-ns#"
   xmlns:svg="http://www.w3.org/2000/svg"
   xmlns="http://www.w3.org/2000/svg"
   xmlns:sodipodi="http://sodipodi.sourceforge.net/DTD/sodipodi-0.dtd"
   xmlns:inkscape="http://www.inkscape.org/namespaces/inkscape"
   width="1920"
   height="1080"
   viewBox="0 0 508.00002 285.74999"
   version="1.1"
   id="svg8"
   inkscape:version="0.92.4 5da689c313, 2019-01-14"
   sodipodi:docname="dibujo7.svg">
  <defs
     id="defs2" />
  <sodipodi:namedview
     id="base"
     pagecolor="#ffffff"
     bordercolor="#666666"
     borderopacity="1.0"
     inkscape:pageopacity="0.0"
     inkscape:pageshadow="2"
     inkscape:zoom="0.35355339"
     inkscape:cx="881.92635"
     inkscape:cy="626.8513"
     inkscape:document-units="mm"
     inkscape:current-layer="layer1"
     showgrid="false"
     units="px"
     inkscape:window-width="1366"
     inkscape:window-height="768"
     inkscape:window-x="0"
     inkscape:window-y="0"
     inkscape:window-maximized="0"
     showguides="false" />
  <metadata
     id="metadata5">
    <rdf:RDF>
      <cc:Work
         rdf:about="">
        <dc:format>image/svg+xml</dc:format>
        <dc:type
           rdf:resource="http://purl.org/dc/dcmitype/StillImage" />
        <dc:title></dc:title>
      </cc:Work>
    </rdf:RDF>
  </metadata>
  <g
     inkscape:label="Capa 1"
     inkscape:groupmode="layer"
     id="layer1"
     transform="translate(0,-11.250015)">
    <path
       style="fill:none;fill-opacity:1;stroke:#0e0a08;stroke-width:1.40460455;stroke-miterlimit:4;stroke-dasharray:none;stroke-opacity:1"
       d="m 239.63035,36.252238 c -2.92197,0 0.96884,0.0801 -1.98206,-0.24776 -0.41039,-0.0456 -0.82586,0 -1.23878,0 -1.40395,0 -2.80791,0 -4.21186,0 -0.82586,0 -1.65676,0.0912 -2.47757,0 -0.67686,-0.0752 -1.30788,-0.3992 -1.98205,-0.49551 -0.24527,-0.035 -0.49888,0.0407 -0.74327,0 -0.51521,-0.0859 -0.97437,-0.39308 -1.48654,-0.49552 -0.16196,-0.0324 -0.33355,0.0324 -0.49551,0 -0.82172,-0.16434 -0.57811,-0.23124 -1.23878,-0.49551 -0.48497,-0.19399 -1.00159,-0.30153 -1.48654,-0.49551 -0.17146,-0.0686 -0.32406,-0.17918 -0.49552,-0.24776 -0.72619,-0.29047 -1.50362,-0.4528 -2.22981,-0.74327 -0.8252,-0.33008 -1.65138,-0.66056 -2.47756,-0.99103 -0.17146,-0.0686 -0.33035,-0.16517 -0.49552,-0.24775 -0.24775,0 -0.50291,0.0601 -0.74327,0 -0.11331,-0.0283 -0.13696,-0.21083 -0.24775,-0.24776 -0.31339,-0.10446 -0.67765,0.10446 -0.99103,0 -0.1108,-0.0369 -0.14329,-0.19553 -0.24776,-0.24776 -0.14774,-0.0739 -0.34777,0.0739 -0.49551,0 -0.10447,-0.0522 -0.14329,-0.19552 -0.24776,-0.24775 -0.33034,-0.16517 -0.24775,0.24775 -0.24775,-0.24776"
       id="path5325"
       inkscape:connector-curvature="0" />
    <path
       style="fill:none;fill-opacity:1;stroke:#0e0a08;stroke-width:1.40460455;stroke-miterlimit:4;stroke-dasharray:none;stroke-opacity:1"
       d="m 247.55856,37.243258 c 6.01263,-3.43579 -1.48369,0.74185 2.97308,-1.48654 0.43071,-0.21535 0.80039,-0.544 1.23878,-0.74327 2.54392,-1.15632 0.46051,0.14138 2.72532,-0.99102 0.43072,-0.21536 0.80807,-0.52792 1.23879,-0.74327 0.82077,-0.41039 1.87735,-0.68268 2.72532,-0.99103 1.80824,-0.65754 0.77239,-0.35109 2.72532,-1.23878 0.80975,-0.36807 1.70003,-0.55906 2.47757,-0.99103 0.36097,-0.20053 0.64745,-0.51422 0.99102,-0.74327 1.73588,-1.15725 0.68862,-0.3149 1.98206,-1.23878 0.33601,-0.24001 0.64086,-0.52442 0.99102,-0.74327 0.31319,-0.19575 0.67036,-0.31228 0.99103,-0.49552 1.17434,-0.67105 0.36853,-0.3071 1.48654,-1.23878 0.27481,-0.46879 0.86275,-0.44244 1.23878,-0.74327 1.64125,-1.64124 0.0254,-0.18212 1.23879,-0.99103 0.0972,-0.0648 0.14329,-0.19552 0.24775,-0.24775 0.0739,-0.0369 0.17389,0.0369 0.24776,0 0.56351,-0.28176 -0.11517,-0.49552 0.49551,-0.49552"
       id="path5327"
       inkscape:connector-curvature="0" />
    <path
       style="fill:none;fill-opacity:1;stroke:#0e0a08;stroke-width:1.40460455;stroke-miterlimit:4;stroke-dasharray:none;stroke-opacity:1"
       d="m 213.36815,30.801588 c 0.0826,0.74327 0.051,1.50832 0.24775,2.22981 0.0835,0.30606 1.09481,0.87585 1.23879,0.99103 0.456,0.3648 0.82585,0.82585 1.23878,1.23878 0.49551,0.49551 0.99103,0.99103 1.48654,1.48654 0.33034,0.33034 0.69918,0.62622 0.99103,0.99103 0.18601,0.23251 0.30949,0.51075 0.49551,0.74327 0.35978,0.44971 0.89328,0.77812 1.23878,1.23878 0.1108,0.14773 0.11718,0.36493 0.24776,0.49551 0.13058,0.13058 0.39308,0.0941 0.49551,0.24776 0.0916,0.13743 -0.0522,0.33882 0,0.49551 0.10254,0.30766 0.78383,0.60514 0.99103,0.74327 0.19435,0.12957 0.28659,0.39105 0.49551,0.49552 0.34174,0.17087 0.22161,-0.30005 0.49552,0.24775 0.0369,0.0739 -0.0584,0.18936 0,0.24776 0.0113,0.0112 1.12196,0 1.23878,0"
       id="path5329"
       inkscape:connector-curvature="0" />
    <path
       style="fill:none;fill-opacity:1;stroke:#0e0a08;stroke-width:1.40460455;stroke-miterlimit:4;stroke-dasharray:none;stroke-opacity:1"
       d="m 273.573,23.121128 c -0.49551,0.74327 -1.05604,1.44709 -1.48654,2.22981 -1.12855,2.05194 -1.77874,4.31188 -2.72532,6.44168 -0.29999,0.675 -0.73166,1.29041 -0.99103,1.98205 -0.11955,0.31883 -0.12819,0.6722 -0.24775,0.99103 -0.65154,1.73743 -0.27221,0.29666 -0.99103,1.73429 -0.11679,0.23359 -0.15076,0.50079 -0.24776,0.74327 -0.16516,0.41293 -0.33034,0.82586 -0.49551,1.23879 -0.20504,0.51259 -0.53822,0.97394 -0.74327,1.48654 -0.097,0.24247 -0.15076,0.50079 -0.24776,0.74327 -0.13716,0.34291 -0.37871,0.64064 -0.49551,0.99102 -0.24585,0.73753 0.58665,-0.50834 -0.24776,0.74327 -0.0648,0.0972 -0.19552,0.14329 -0.24775,0.24776 -0.0369,0.0739 0.0584,0.18936 0,0.24776 -0.0584,0.0584 -0.18936,-0.0584 -0.24776,0 -0.0584,0.0584 0.0584,0.18936 0,0.24775 -0.0584,0.0584 -0.18936,-0.0584 -0.24776,0 -0.0584,0.0584 0.0584,0.18936 0,0.24776 -0.0584,0.0584 -0.18936,-0.0584 -0.24775,0 -0.0584,0.0584 0.0584,0.18936 0,0.24776 -0.0584,0.0584 -0.18936,-0.0584 -0.24776,0 -0.0584,0.0584 0.0739,0.21082 0,0.24775 -0.14773,0.0739 -0.34777,-0.0739 -0.49551,0 -0.0739,0.0369 0.0739,0.21083 0,0.24776 -0.14774,0.0739 -0.33528,-0.0401 -0.49552,0 -0.3583,0.0896 -0.63271,0.40593 -0.99102,0.49551 -0.16024,0.0401 -0.33528,-0.0401 -0.49552,0 -0.3583,0.0896 -0.64064,0.37872 -0.99102,0.49552 -0.0784,0.0261 -0.16517,0 -0.24776,0 -0.16516,0.0826 -0.32032,0.18936 -0.49551,0.24775 -0.2914,0.0971 -1.36469,0 -1.7343,0"
       id="path5331"
       inkscape:connector-curvature="0" />
    <path
       style="fill:none;fill-opacity:1;stroke:#0e0a08;stroke-width:1.40460455;stroke-miterlimit:4;stroke-dasharray:none;stroke-opacity:1"
       d="m 234.92297,48.392308 c -0.97167,0.44118 -1.30799,0.81248 -1.98205,1.48654 -0.16517,0.16517 -0.39105,0.28659 -0.49551,0.49552 -0.0739,0.14773 0.0739,0.34778 0,0.49551 -0.0522,0.10446 -0.19553,0.14329 -0.24776,0.24776 -0.0369,0.0739 0,0.16516 0,0.24775 0,0.0826 -0.0369,0.17389 0,0.24776 0.0522,0.10446 0.19553,0.14329 0.24776,0.24776 0.0369,0.0739 -0.0369,0.17389 0,0.24775 0.0522,0.10446 0.19553,0.14329 0.24775,0.24776 0.0369,0.0739 -0.0369,0.17389 0,0.24776 0.0522,0.10446 0.19553,0.14329 0.24776,0.24775 0.17088,0.34174 -0.30005,0.22161 0.24776,0.49551 0.24872,0.12436 1.232,-0.12726 1.48654,0 0.10446,0.0522 0.14328,0.19553 0.24775,0.24776 0.31391,0.15695 0.75679,-0.16967 0.99103,-0.24776 0.15669,-0.0522 0.33882,0.0522 0.49551,0 1.40371,-0.70185 -0.36933,0.0923 0.99103,-0.24775 0.17915,-0.0448 0.31443,-0.21155 0.49551,-0.24776 0.40491,-0.081 0.83387,0.081 1.23878,0 0.25609,-0.0512 0.48719,-0.19654 0.74327,-0.24775 0.32393,-0.0648 0.67764,0.10446 0.99103,0 0.1108,-0.0369 0.13696,-0.21083 0.24776,-0.24776 0.23504,-0.0784 0.52166,0.1108 0.74327,0 0.10446,-0.0522 0.14329,-0.19553 0.24775,-0.24776 0.34174,-0.17087 0.22161,0.30005 0.49552,-0.24775 0.0846,-0.16918 0,-0.75805 0,-0.99103 0,-0.33035 0.10446,-0.67764 0,-0.99103 -0.0369,-0.1108 -0.18297,-0.15058 -0.24776,-0.24775 -0.10244,-0.15366 -0.14532,-0.34187 -0.24776,-0.49552 -0.11261,-0.16892 -0.82395,-0.90749 -0.99102,-0.99102 -0.0561,-0.028 -2.3649,-0.0563 -2.47757,0 -0.82171,0.8217 0.23358,-0.1168 -0.49551,0.24775 -0.82171,0.82171 0.23358,-0.11679 -0.49552,0.24776 -0.10446,0.0522 -0.14328,0.19552 -0.24775,0.24776 -0.0739,0.0369 -0.16517,0 -0.24776,0 -0.0826,0 -0.18936,0.0584 -0.24775,0 -0.0584,-0.0584 0.0584,-0.18937 0,-0.24776 -0.0584,-0.0584 -0.17389,0.0369 -0.24776,0 -0.10447,-0.0522 -0.13696,-0.21082 -0.24776,-0.24776 -0.15669,-0.0522 -0.33035,0 -0.49551,0 -0.33035,0 -0.66068,0 -0.99103,0 z"
       id="path5333"
       inkscape:connector-curvature="0" />
    <path
       style="fill:none;fill-opacity:1;stroke:#0e0a08;stroke-width:1.40460455;stroke-miterlimit:4;stroke-dasharray:none;stroke-opacity:1"
       d="m 224.26944,42.693908 c -0.56991,1.35768 -1.2896,2.03286 -2.22981,2.97308 -0.16517,0.16517 -0.37534,0.29521 -0.49551,0.49551 -0.29142,0.48568 -0.58788,1.93371 -0.74327,2.47757 -0.0718,0.25111 -0.20483,0.48566 -0.24776,0.74327 -0.0407,0.24438 0.035,0.498 0,0.74327 -0.085,0.59518 -0.41048,1.1391 -0.49551,1.7343 -0.0467,0.32702 0.0467,0.664 0,0.99102 -0.0739,0.51707 -0.40965,0.97133 -0.49552,1.48654 -0.0407,0.24439 0.0407,0.49889 0,0.74327 -0.0429,0.2576 -0.20482,0.48566 -0.24775,0.74327 -0.0873,0.52395 0,1.19041 0,1.7343 0,0.16517 -0.1168,0.37871 0,0.49551 0.11678,0.11679 0.33527,-0.0401 0.49551,0 0.33034,0.0826 0.68647,0.40003 0.99103,0.24776 0.10446,-0.0522 0.14328,-0.19553 0.24775,-0.24776 0.0739,-0.0369 0.1694,0.0261 0.24776,0 0.17518,-0.0584 0.32032,-0.18936 0.49551,-0.24776 0.0784,-0.0261 0.17389,0.0369 0.24776,0 0.10446,-0.0522 0.15057,-0.18297 0.24776,-0.24775 0.15364,-0.10244 0.34186,-0.14532 0.49551,-0.24776 0.39596,-0.26397 0.85088,-1.04483 1.23878,-1.23878 0.0739,-0.0369 0.18936,0.0584 0.24776,0 0.0584,-0.0584 -0.0369,-0.17389 0,-0.24776 0.0522,-0.10446 0.19553,-0.14329 0.24776,-0.24776 0.0369,-0.0739 -0.0369,-0.17389 0,-0.24775 0.51555,-1.03111 -0.0171,0.26486 0.49551,-0.24776 0.0584,-0.0584 -0.0369,-0.17389 0,-0.24776 0.51555,-1.0311 -0.0171,0.26486 0.49551,-0.24775 0.0584,-0.0584 -0.0369,-0.17389 0,-0.24776 0.0522,-0.10446 0.19553,-0.14329 0.24776,-0.24776 0.0369,-0.0739 -0.0369,-0.17389 0,-0.24775 0.0522,-0.10447 0.21082,-0.13696 0.24776,-0.24776 0.0783,-0.23504 -0.1108,-0.52167 0,-0.74327 0.0522,-0.10446 0.19552,-0.14329 0.24775,-0.24775 0.0369,-0.0739 -0.0369,-0.1739 0,-0.24776 0.0522,-0.10447 0.19553,-0.1433 0.24776,-0.24776 0.0731,-0.14622 0,-0.57675 0,-0.74327"
       id="path5341"
       inkscape:connector-curvature="0" />
    <path
       style="fill:none;fill-opacity:1;stroke:#0e0a08;stroke-width:1.40460455;stroke-miterlimit:4;stroke-dasharray:none;stroke-opacity:1"
       d="m 259.69863,45.171478 c 2.69007,-0.19184 2.59251,0.34328 4.21186,0.99102 0.24249,0.097 0.5008,0.15077 0.74327,0.24776 0.17146,0.0686 0.31637,0.20297 0.49552,0.24776 0.16024,0.0401 0.34215,-0.0614 0.49551,0 0.27648,0.11058 0.48793,0.34231 0.74327,0.49551 0.15836,0.095 0.34187,0.14532 0.49551,0.24776 0.0972,0.0648 0.15058,0.18296 0.24776,0.24775 0.15365,0.10244 0.36494,0.11718 0.49551,0.24776 0.13059,0.13057 0.11718,0.36493 0.24776,0.49551 0.96694,0.96693 0.13306,-0.0573 0.74327,0.24776 1.0311,0.51555 -0.26486,-0.0171 0.24776,0.49551 0.0584,0.0584 0.17389,-0.0369 0.24775,0 1.0311,0.51555 -0.26486,-0.0171 0.24776,0.49552 0.0584,0.0584 0.18936,-0.0584 0.24776,0 0.0584,0.0584 0,0.16516 0,0.24775 0,0.0826 0.0369,0.17389 0,0.24776 -0.0522,0.10446 -0.19553,0.14329 -0.24776,0.24776 -0.0369,0.0739 0.0369,0.17389 0,0.24775 -0.0522,0.10446 -0.19553,0.14329 -0.24776,0.24776 -0.0369,0.0739 0.0584,0.18936 0,0.24776 -0.11678,0.11679 -0.34777,-0.0739 -0.49551,0 -0.10446,0.0522 -0.14329,0.19552 -0.24776,0.24775 -0.0739,0.0369 -0.17388,-0.0369 -0.24775,0 -0.10447,0.0522 -0.14329,0.19552 -0.24776,0.24776 -0.15716,0.0786 -1.01564,0 -1.23878,0"
       id="path5343"
       inkscape:connector-curvature="0" />
    <path
       style="fill:none;fill-opacity:1;stroke:#0e0a08;stroke-width:1.40460455;stroke-miterlimit:4;stroke-dasharray:none;stroke-opacity:1"
       d="m 226.49925,51.365388 c 0.24776,0.74327 0.51813,1.47938 0.74327,2.22981 0.0869,0.28961 0,0.68512 0,0.99103 0,0.74327 0,1.48654 0,2.22981 0,0.17934 0.0759,1.33479 0,1.48654 -0.0522,0.10446 -0.19553,0.14329 -0.24776,0.24775 -0.0369,0.0739 0.0369,0.17389 0,0.24776 -0.0522,0.10446 -0.18297,0.15058 -0.24775,0.24776 -0.20488,0.3073 -0.27391,0.69556 -0.49552,0.99102 -0.14016,0.18687 -0.37534,0.29521 -0.49551,0.49552 -0.27399,0.45664 -0.46929,1.5254 -0.74327,1.98205 -0.12018,0.2003 -0.35536,0.30864 -0.49551,0.49551 -0.18019,0.24025 -0.4501,1.01167 -0.49552,1.23878 -0.15324,0.76621 0.24519,0.2516 -0.24775,0.99103 -0.18222,0.27332 -0.59693,0.45058 -0.74327,0.74327 -0.13215,0.26427 0.13214,0.72675 0,0.99103 -0.0522,0.10446 -0.19553,0.14329 -0.24776,0.24775 -0.0369,0.0739 0.0261,0.16941 0,0.24776 -0.0584,0.17519 -0.18936,0.32032 -0.24776,0.49551 -0.0261,0.0784 0.0261,0.16941 0,0.24776 -0.0584,0.17519 -0.18936,0.32032 -0.24775,0.49551 -0.0261,0.0784 0.0369,0.17389 0,0.24776 -0.0522,0.10446 -0.19553,0.1433 -0.24776,0.24776 -0.0739,0.14773 0.11679,0.37871 0,0.49551 -0.0584,0.0584 -0.18936,-0.0584 -0.24776,0 -0.11679,0.1168 0.11679,0.37872 0,0.49551 -0.0584,0.0584 -0.18936,-0.0584 -0.24775,0 -0.0584,0.0584 0.0369,0.17389 0,0.24776 -0.0522,0.10446 -0.19553,0.1433 -0.24776,0.24776 -0.0369,0.0739 0.0369,0.17389 0,0.24775 -0.0522,0.10446 -0.19553,0.1433 -0.24776,0.24776 -0.0369,0.0739 0.0369,0.17389 0,0.24776 -0.56694,1.13388 0.10269,-1.05134 -0.49551,0.74327 -0.0261,0.0783 0.0369,0.17389 0,0.24775 -0.0522,0.10446 -0.21083,0.13696 -0.24776,0.24776 0,1.12786 0.11679,0.0142 -0.24775,0.74327 -0.1083,0.21659 0.0523,0.78181 0,0.99103 -0.29911,1.1964 -0.11774,-0.0123 -0.49552,0.74326 -0.0369,0.0739 0.0261,0.16941 0,0.24776 -0.11679,0.35038 -0.37872,0.64065 -0.49551,0.99103 -0.0261,0.0784 0.0261,0.16941 0,0.24775 -0.5982,1.79461 0.0714,-0.39061 -0.49551,0.74327 -0.0369,0.0739 0.0369,0.17389 0,0.24776 -0.0522,0.10446 -0.19553,0.1433 -0.24776,0.24776 -0.0731,0.14622 0,0.57675 0,0.74327"
       id="path5345"
       inkscape:connector-curvature="0" />
    <path
       style="fill:none;fill-opacity:1;stroke:#0e0a08;stroke-width:1.40460455;stroke-miterlimit:4;stroke-dasharray:none;stroke-opacity:1"
       d="m 224.5172,64.991998 c 0.94911,0.79216 2.03451,1.42534 2.97307,2.22981 0.26603,0.22803 0.47724,0.51525 0.74327,0.74327 1.02408,0.87779 2.20593,1.58953 3.22084,2.47757 0.35158,0.30764 0.62227,0.70421 0.99103,0.99103 0.38011,0.29564 0.8381,0.47615 1.23878,0.74327 0.39615,0.2641 1.97216,1.50527 2.22981,1.73429 1.41785,1.26031 0.56634,0.81763 2.22981,1.98205 0.3945,0.27616 0.83811,0.47616 1.23878,0.74327 0.34358,0.22906 0.64745,0.51423 0.99103,0.74327 0.40067,0.26712 0.83811,0.47616 1.23878,0.74327 1.24488,0.82992 0.79017,0.76672 2.22981,1.48654 1.55092,0.77547 0.8104,0.27014 2.22981,0.74327 0.84383,0.28128 1.62561,0.73544 2.47756,0.99103 0.43285,0.12985 2.37248,0.4367 2.72533,0.49551 0.49551,0.0826 0.98626,0.20228 1.48654,0.24776 0.41123,0.0374 0.82756,-0.0374 1.23878,0 0.93252,0.0135 1.80657,0.40364 2.72532,0.49551 0.82176,0.0822 1.65171,0 2.47757,0 0.41292,0 0.82839,0.0456 1.23878,0 0.33843,-0.0376 0.65261,-0.21015 0.99103,-0.24775 0.7342,-0.0816 1.49561,0.0816 2.22981,0 0.41854,-0.0465 0.81977,-0.20586 1.23878,-0.24776 0.41088,-0.0411 0.8279,0.0411 1.23878,0 0.41903,-0.0419 0.82026,-0.20125 1.23879,-0.24776 0.32833,-0.0365 0.6627,0.0365 0.99102,0 0.41854,-0.0465 0.82026,-0.20125 1.23879,-0.24775 0.32833,-0.0365 0.66323,0.041 0.99102,0 3.0724,-0.38405 -0.73402,-0.0841 1.7343,-0.49552 0.24439,-0.0407 0.50032,0.0486 0.74327,0 0.36216,-0.0724 0.64065,-0.37871 0.99103,-0.49551 0.0784,-0.0261 0.17388,0.0369 0.24775,0 0.12218,-0.0611 1.4545,-1.39041 1.48654,-1.48654 0.0522,-0.1567 -0.0401,-0.33527 0,-0.49551 0.0448,-0.17916 0.20297,-0.31636 0.24776,-0.49552 0.0599,-0.23944 -0.10461,-1.02954 0,-1.23878 0.0522,-0.10446 0.19553,-0.14329 0.24776,-0.24776 0.0739,-0.14773 -0.0739,-0.34778 0,-0.49551 0.0522,-0.10446 0.16517,-0.16517 0.24775,-0.24776 0.0826,-0.16516 0.17918,-0.32405 0.24776,-0.49551 0.14276,-0.3569 0.24649,-0.90676 0.49551,-1.23878 1.16696,-1.55594 -0.22158,0.78222 0.99103,-1.23878 0.19002,-0.31671 0.23435,-0.72987 0.49551,-0.99103 0.13058,-0.13058 0.36494,-0.11718 0.49552,-0.24776 0.13057,-0.13058 0.16517,-0.33034 0.24775,-0.49551 0.0826,-0.16517 0.18937,-0.32032 0.24776,-0.49551 0.0261,-0.0784 -0.0261,-0.16941 0,-0.24776 0.33035,-0.99103 0.23773,0.0501 0.49551,-1.23878 0.0324,-0.16196 -0.0324,-0.33355 0,-0.49552 0.0512,-0.25608 0.20483,-0.48566 0.24776,-0.74327 0.059,-0.35392 0.059,-1.87588 0,-2.22981 -0.0429,-0.2576 -0.21083,-0.48473 -0.24776,-0.74327 -0.0467,-0.32702 0.0467,-0.664 0,-0.99102 -0.0674,-0.47203 -0.71928,-2.31771 -0.99102,-2.72532 -0.0648,-0.0972 -0.18297,-0.15058 -0.24776,-0.24776 -0.3279,-0.49187 -0.14792,-0.63382 -0.74327,-0.99103 -0.22395,-0.13436 -0.50968,-0.13096 -0.74327,-0.24775 -1.05709,-0.52855 -1.91599,-1.45351 -2.97308,-1.98206 -0.23358,-0.11679 -0.50968,-0.13096 -0.74327,-0.24775 -2.97516,-1.48758 1.06565,0.39163 -1.23878,-0.99103 -0.22395,-0.13437 -0.50968,-0.13096 -0.74327,-0.24776 -0.53266,-0.26633 -0.95388,-0.72469 -1.48654,-0.99102 -0.23359,-0.1168 -0.50968,-0.13097 -0.74327,-0.24776 -0.26633,-0.13317 -0.47694,-0.36235 -0.74327,-0.49551 -0.80582,-0.40291 -0.58934,-0.0626 -1.23879,-0.49552 -0.0972,-0.0648 -0.14328,-0.19552 -0.24775,-0.24775 -0.0739,-0.0369 -0.16517,0 -0.24776,0 -0.16517,-0.0826 -0.34186,-0.14532 -0.49551,-0.24776 -0.0972,-0.0648 -0.14329,-0.19553 -0.24776,-0.24776 -0.0739,-0.0369 -0.18936,0.0584 -0.24776,0 -0.0584,-0.0584 -0.0227,-0.16835 0,-0.24775 0.14349,-0.50222 0.33035,-0.99103 0.49552,-1.48654"
       id="path5347"
       inkscape:connector-curvature="0" />
    <path
       style="fill:none;fill-opacity:1;stroke:#0e0a08;stroke-width:1.40460455;stroke-miterlimit:4;stroke-dasharray:none;stroke-opacity:1"
       d="m 254.00023,82.087208 c -1.32137,0 -2.66284,-0.22963 -3.96411,0 -0.25718,0.0454 -0.15076,0.50079 -0.24775,0.74327 -0.13717,0.34292 -0.29064,0.68373 -0.49552,0.99103 -0.0648,0.0972 -0.21082,0.13695 -0.24775,0.24775 -0.0522,0.1567 0.0522,0.33882 0,0.49552 -0.30616,0.91846 -0.24776,-0.302 -0.24776,0.49551"
       id="path5349"
       inkscape:connector-curvature="0" />
    <path
       style="fill:none;fill-opacity:1;stroke:#0e0a08;stroke-width:1.40460455;stroke-miterlimit:4;stroke-dasharray:none;stroke-opacity:1"
       d="m 260.4419,81.839448 c -10e-4,0.62279 -0.3776,1.14474 -0.49551,1.7343 -0.0324,0.16197 0.0401,0.33528 0,0.49551 -0.0448,0.17916 -0.20297,0.31636 -0.24776,0.49552 -0.0401,0.16024 0.0522,0.33881 0,0.49551 -0.0369,0.1108 -0.19553,0.14329 -0.24776,0.24776 -0.0369,0.0739 0.0584,0.18936 0,0.24775 -0.33034,0.33035 -0.24775,-0.41292 -0.24775,0.24776"
       id="path5351"
       inkscape:connector-curvature="0" />
    <path
       style="fill:none;fill-opacity:1;stroke:#0e0a08;stroke-width:1.40460455;stroke-miterlimit:4;stroke-dasharray:none;stroke-opacity:1"
       d="m 266.88357,82.582718 c 0.79412,0.58324 0.258,1.25413 0.74327,1.98206 0.0648,0.0972 0.21083,0.13695 0.24776,0.24775 0.10026,0.30077 0,0.90271 0,1.23878"
       id="path5353"
       inkscape:connector-curvature="0" />
    <path
       style="fill:none;fill-opacity:1;stroke:#0e0a08;stroke-width:1.40460455;stroke-miterlimit:4;stroke-dasharray:none;stroke-opacity:1"
       d="m 276.54608,75.893288 c -2.04339,5.1085 -1.98205,3.17619 -1.98205,5.45065 0,0.16517 0.0739,0.34778 0,0.49551 -0.30615,0.61231 -0.24776,-0.0855 -0.24776,0.49552"
       id="path5355"
       inkscape:connector-curvature="0" />
    <path
       style="fill:none;fill-opacity:1;stroke:#0e0a08;stroke-width:1.40460455;stroke-miterlimit:4;stroke-dasharray:none;stroke-opacity:1"
       d="m 256.23004,70.690408 c 0.90844,0 1.81689,0 2.72532,0 0.99103,0 1.98205,0 2.97308,0 0.29971,0 0.9485,-0.0726 1.23878,0 0.17916,0.0448 0.32033,0.18936 0.49552,0.24775 0.0784,0.0261 0.17389,-0.0369 0.24775,0 0.10447,0.0522 0.13445,0.21944 0.24776,0.24776 0.32048,0.0801 0.67764,-0.10446 0.99103,0 1.40372,0.70185 -0.36933,-0.0923 0.99102,0.24776 0.17916,0.0448 0.32033,0.18935 0.49552,0.24775 0.0784,0.0261 0.1694,-0.0261 0.24775,0 0.1752,0.0584 0.31637,0.20297 0.49552,0.24776 0.16024,0.0401 0.33527,-0.0401 0.49551,0 0.17915,0.0448 0.31636,0.20297 0.49551,0.24776 0.16024,0.0401 0.33883,-0.0522 0.49552,0 0.1108,0.0369 0.13696,0.21082 0.24775,0.24775 0.23505,0.0784 0.52167,-0.1108 0.74327,0 0.10447,0.0522 0.1433,0.19553 0.24776,0.24776 0.14774,0.0739 0.33882,-0.0522 0.49551,0 0.85407,0.28469 0.18353,0.24776 0.74327,0.24776 1.32138,0 2.64274,0 3.96411,0 0.41293,0 0.82586,0 1.23878,0 0.16517,0 0.50923,-0.16461 0.49552,0 -0.0834,1.00122 -0.33035,1.98205 -0.49552,2.97307"
       id="path5357"
       inkscape:connector-curvature="0" />
    <path
       style="fill:none;fill-opacity:1;stroke:#0e0a08;stroke-width:1.40460455;stroke-miterlimit:4;stroke-dasharray:none;stroke-opacity:1"
       d="m 254.00023,60.284628 c 0.0749,0.0611 -0.0952,2.13464 0,2.22981 0.51262,0.51262 -0.02,-0.78335 0.49551,0.24776 0.0369,0.0739 -0.0584,0.18935 0,0.24775 0.0306,0.0306 0.83566,0 0.99103,0 0.28871,0 1.82806,0.077 1.98205,0 0.10447,-0.0522 0.14329,-0.19552 0.24776,-0.24775 0.0739,-0.037 0.18936,0.0584 0.24776,0 0.0584,-0.0584 -0.0584,-0.18936 0,-0.24776 0.0584,-0.0584 0.18936,0.0584 0.24775,0 0.0584,-0.0584 -0.0584,-0.18936 0,-0.24776 0.0584,-0.0584 0.18936,0.0584 0.24776,0 0.0584,-0.0584 -0.0826,-0.24775 0,-0.24775 0.0826,0 0,0.16517 0,0.24775"
       id="path5359"
       inkscape:connector-curvature="0" />
    <path
       style="fill:none;fill-opacity:1;stroke:#0e0a08;stroke-width:1.40460455;stroke-miterlimit:4;stroke-dasharray:none;stroke-opacity:1"
       d="m 265.39703,61.523408 c 0.79283,1.05709 0.74327,0.5781 0.74327,1.23879 0,0.0826 -0.0369,0.17389 0,0.24775 0.0522,0.10446 0.19553,0.1433 0.24776,0.24776 0.13214,0.26427 -0.13214,0.23124 0,0.49551 0.0522,0.10446 0.19553,0.1433 0.24776,0.24776 0.0369,0.0739 -0.0584,0.18936 0,0.24775 0.0584,0.0584 0.18936,-0.0584 0.24775,0 0.0656,0.0656 0,0.64126 0,0.74327"
       id="path5361"
       inkscape:connector-curvature="0" />
    <path
       style="fill:none;fill-opacity:1;stroke:#0e0a08;stroke-width:1.40460455;stroke-miterlimit:4;stroke-dasharray:none;stroke-opacity:1"
       d="m 267.13133,53.842958 c -0.3795,-0.57065 -0.8569,-1.02732 -1.33336,-1.50379 -0.0584,-0.0584 -0.10438,-0.13269 -0.17519,-0.17518 -0.0792,-0.0475 -0.18597,-0.0364 -0.26279,-0.0876 -0.10307,-0.0687 -0.16763,-0.18348 -0.26279,-0.26279 -0.0809,-0.0674 -0.1819,-0.10779 -0.26278,-0.17518 -0.69788,-0.58158 0.1013,0.0114 -0.43797,-0.43798 -0.11216,-0.0935 -0.2316,-0.17793 -0.35039,-0.26279 -0.34198,-0.24427 -0.70144,-0.46762 -1.05113,-0.70076 -0.1752,-0.11679 -0.36384,-0.21559 -0.52558,-0.35038 -0.0952,-0.0793 -0.15972,-0.19407 -0.26279,-0.26278 -0.0768,-0.0512 -0.18361,-0.0401 -0.26278,-0.0876 -0.14164,-0.085 -0.21825,-0.25128 -0.35039,-0.35038 -0.0522,-0.0392 -0.12295,-0.0484 -0.17519,-0.0876 -0.0661,-0.0496 -0.10911,-0.12564 -0.17519,-0.17519 -0.14586,-0.1094 -0.36217,-0.18108 -0.52557,-0.26278 -0.16766,-0.0838 -0.34793,-0.20358 -0.52557,-0.26279 -0.0277,-0.009 -0.0599,0.009 -0.0876,0 -0.0619,-0.0206 -0.11324,-0.067 -0.17518,-0.0876 -0.1716,-0.0572 -0.70454,0.0571 -0.87596,0 -0.0619,-0.0206 -0.11185,-0.0718 -0.17519,-0.0876 -0.16136,-0.0404 -0.36816,0.0525 -0.52556,0 -0.0392,-0.0131 -0.0484,-0.0745 -0.0876,-0.0876 -0.0831,-0.0277 -0.18444,0.0392 -0.26278,0 -0.0369,-0.0185 -0.0507,-0.0691 -0.0876,-0.0876 -0.25778,-0.12889 0.11532,0.20292 -0.1752,-0.0876"
       id="path5365"
       inkscape:connector-curvature="0" />
    <path
       style="fill:none;fill-opacity:1;stroke:#0e0a08;stroke-width:1.40460455;stroke-miterlimit:4;stroke-dasharray:none;stroke-opacity:1"
       d="m 237.32953,50.850058 c 0.38097,0.22968 0.48523,0.17519 0.87594,0.17519 0.0584,0 0.1339,0.0413 0.1752,0 0.0206,-0.0207 -0.0206,-0.067 0,-0.0876 0.0413,-0.0413 0.1168,0 0.1752,0"
       id="path5367"
       inkscape:connector-curvature="0" />
    <path
       style="fill:none;fill-opacity:1;stroke:#0e0a08;stroke-width:1.40460455;stroke-miterlimit:4;stroke-dasharray:none;stroke-opacity:1"
       d="m 239.63035,36.252238 c 0.30911,0.0309 0.58048,-0.13826 0.87595,-0.17519 0.11589,-0.0145 0.23359,0 0.35038,0 0.37958,0 0.75916,0 1.13874,0 0.26278,0 0.52718,-0.029 0.78835,0 0.14797,0.0164 0.29001,0.0712 0.43799,0.0876 0.26117,0.029 0.52687,-0.0261 0.78834,0 0.14815,0.0148 0.29264,0.0553 0.43799,0.0876 0.52554,0.11679 1.05112,0.23358 1.57671,0.35038 0.23505,0.0522 0.4624,0.14114 0.70077,0.17519 0.0867,0.0124 0.17606,-0.0124 0.26278,0 0.11917,0.0171 0.23163,0.0678 0.35038,0.0876 0.0576,0.01 0.11758,-0.01 0.17518,0 0.61056,0.10175 0.13128,0.0876 0.52558,0.0876 0.32118,0 0.64236,0 0.96354,0 0.12865,0 0.3173,0.0301 0.43799,0 0.0633,-0.0158 0.11456,-0.0633 0.17518,-0.0876 0.88176,-0.35271 -0.18597,0.0684 0.43797,-0.0876 0.0634,-0.0158 0.11326,-0.0669 0.1752,-0.0876 0.0788,-0.0263 0.18394,0.0263 0.26278,0 0.0392,-0.0131 0.0507,-0.0691 0.0876,-0.0876 0.0517,-0.0258 0.20391,0 0.26279,0 0.0584,0 0.11679,0 0.17519,0 0.0292,0 0.11229,-0.0156 0.0876,0 -0.14483,0.0913 -0.30506,0.1555 -0.45758,0.23324"
       id="path5371"
       inkscape:connector-curvature="0" />
    <path
       style="fill:none;fill-opacity:1;stroke:#0e0a08;stroke-width:1.40460455;stroke-miterlimit:4;stroke-dasharray:none;stroke-opacity:1"
       d="m 240.65814,78.442538 c 0.1168,0.46718 0.23359,0.93435 0.35038,1.40153 0.1168,0.23358 0.28705,0.4474 0.35039,0.70076 0.1133,0.45322 -0.14774,0.95832 0,1.40152 0.0522,0.1567 0.2765,0.20265 0.35038,0.35038 0.0942,0.18846 0,2.09791 0,2.45267"
       id="path5375"
       inkscape:connector-curvature="0" />
    <path
       style="fill:none;fill-opacity:1;stroke:#0e0a08;stroke-width:1.40460455;stroke-miterlimit:4;stroke-dasharray:none;stroke-opacity:1"
       d="m 224.26944,42.693908 c 0.44077,0.17845 0.85416,0.45201 1.32233,0.53536 0.23705,0.0422 0.46185,-0.14532 0.70076,-0.17518 0.23179,-0.029 0.46717,0 0.70077,0 0.64236,0 1.28473,0 1.92709,0 0.46718,0 0.93435,0 1.40152,0 0.23358,0 0.46952,-0.0331 0.70077,0 0.36561,0.0522 0.68683,0.28966 1.05114,0.35038 0.1728,0.0288 0.35275,-0.0288 0.52557,0 0.34791,0.058 1.23054,0.3871 1.57671,0.52557 0.46718,0.18687 0.29491,0.23417 0.87595,0.35038 0.11453,0.0229 0.23708,-0.0283 0.35038,0 0.31709,-0.10559 0.32583,0.28379 0.52558,0.35038 0.1108,0.0369 0.24193,-0.0434 0.35037,0 0.1955,0.0782 0.33725,0.25622 0.52557,0.35038 0.10447,0.0522 0.24593,-0.0522 0.35039,0 0.0739,0.0369 0.10132,0.13826 0.17519,0.17519 0.10446,0.0522 0.30891,-0.10919 0.35038,0 0.37135,0.97801 0.63961,1.99212 0.95941,2.98819"
       id="path5377"
       inkscape:connector-curvature="0" />
    <path
       style="fill:none;fill-opacity:1;stroke:#0e0a08;stroke-width:1.40460455;stroke-miterlimit:4;stroke-dasharray:none;stroke-opacity:1"
       d="m 257.46882,45.419228 c -0.23105,-0.20441 -0.41758,-0.47458 -0.69315,-0.61324 -0.1565,-0.0787 -0.35216,0.0248 -0.52558,0 -0.47671,-0.0681 -0.92369,-0.29065 -1.40153,-0.35038 -0.23177,-0.029 -0.46898,0.029 -0.70075,0 -0.23893,-0.0299 -0.46146,-0.1486 -0.70077,-0.17519 -0.2902,-0.0323 -0.58396,0 -0.87596,0 -0.93433,0 -1.86869,0 -2.80304,0 -0.46717,0 -0.93434,0 -1.40152,0 -0.17519,0 -0.35276,-0.0288 -0.52557,0 -0.18216,0.0303 -0.34341,0.14483 -0.52558,0.17519 -0.3456,0.0576 -0.70755,-0.0687 -1.05113,0 -0.12805,0.0256 -0.22371,0.14352 -0.35039,0.17519 -0.20707,0.0518 -0.70277,-0.0866 -0.87594,0 -0.0739,0.0369 -0.10133,0.13826 -0.1752,0.17519 -0.10446,0.0522 -0.24591,-0.0522 -0.35038,0 -0.0739,0.0369 -0.10647,0.12938 -0.17519,0.17519 -0.092,0.0613 -0.46818,0.17823 -0.52557,0.35038 -0.0369,0.1108 0.0369,0.23958 0,0.35038 -0.0261,0.0784 -0.12938,0.10648 -0.17518,0.17519 -0.0725,0.10865 -0.0829,0.25805 -0.1752,0.35038 -0.0413,0.0413 -0.13389,-0.0413 -0.17519,0 -0.0413,0.0413 0.0261,0.12296 0,0.17519 -0.18062,0.36124 -0.17519,-0.0123 -0.17519,0.52557"
       id="path5379"
       inkscape:connector-curvature="0" />
    <path
       style="fill:none;fill-opacity:1;stroke:#0e0a08;stroke-width:1.40460455;stroke-miterlimit:4;stroke-dasharray:none;stroke-opacity:1"
       d="m 249.41673,49.011698 c -0.0132,-0.008 -0.56233,-0.33197 -0.68133,-0.37163 -0.0999,-0.0333 -0.20646,-0.0413 -0.30969,-0.0619 -0.10323,-0.0206 -0.20507,-0.0503 -0.3097,-0.0619 -0.18468,-0.0205 -0.37163,0 -0.55745,0 -0.10323,0 -0.2071,-0.0114 -0.30969,0 -0.25694,0.0286 -0.25883,0.0844 -0.49552,0.18582 -0.06,0.0257 -0.12742,0.0327 -0.18582,0.0619 -0.0666,0.0333 -0.12388,0.0826 -0.18582,0.12389 -0.0619,0.0413 -0.13318,0.0712 -0.18581,0.12387 -0.0526,0.0526 -0.0762,0.12863 -0.12388,0.18582 -0.0561,0.0673 -0.12974,0.11853 -0.18582,0.18582 -0.13718,0.16462 -0.1376,0.24081 -0.24776,0.43357 -0.0739,0.12927 -0.18117,0.23847 -0.24775,0.37164 -0.0488,0.0976 -0.16804,0.45079 -0.18582,0.55745 -0.0123,0.0733 -0.0123,0.42224 0,0.49551 0.0337,0.20184 0.24786,0.59474 0.37164,0.74327 0.0561,0.0673 0.12881,0.11931 0.18582,0.18582 0.0672,0.0784 0.11863,0.16938 0.18581,0.24776 0.18265,0.21308 0.16036,0.15878 0.37164,0.30969 0.084,0.06 0.15813,0.1346 0.24775,0.18582 0.0658,0.0376 0.38421,0.11291 0.43358,0.12388 0.10277,0.0229 0.20692,0.0391 0.30969,0.0619 0.0831,0.0184 0.16329,0.0514 0.24776,0.0619 0.16389,0.0205 0.33035,0 0.49551,0 0.33997,0 0.71738,0.0258 1.05297,0 0.1796,-0.0138 0.61499,-0.0946 0.80521,-0.12388 1.03609,-0.1594 -0.1218,0.0306 0.80521,-0.12388 0.24775,-0.0413 0.49334,-0.0989 0.74327,-0.12388 0.0822,-0.008 0.16581,0.0103 0.24775,0 0.24439,-0.0305 0.46503,-0.1396 0.68133,-0.24776 0.0413,-0.0206 0.0912,-0.0293 0.12388,-0.0619 0.0297,-0.0297 0.17468,-0.32711 0.18582,-0.37163 0.02,-0.0801 0,-0.16517 0,-0.24775 0,-0.12389 0.0204,-0.24945 0,-0.37164 -0.0269,-0.16112 -0.22523,-0.67849 -0.3097,-0.80521 -0.0324,-0.0486 -0.0874,-0.0783 -0.12388,-0.12388 -0.0465,-0.0581 -0.0826,-0.12388 -0.12387,-0.18581 -0.0826,-0.12389 -0.15475,-0.25539 -0.24776,-0.37164 -0.0644,-0.0806 -0.1833,-0.16718 -0.24776,-0.24776 -0.0465,-0.0581 -0.0774,-0.12769 -0.12388,-0.18582 -0.0918,-0.11479 -0.30128,-0.25437 -0.37163,-0.37163 -0.0336,-0.056 -0.0283,-0.12983 -0.0619,-0.18582 -0.10344,-0.1724 -0.11361,-0.0852 -0.24776,-0.18582 -0.0701,-0.0525 -0.11294,-0.13722 -0.18581,-0.18581 -0.0384,-0.0256 -0.0855,-0.0363 -0.12388,-0.0619 -0.0243,-0.0162 -0.0342,-0.0527 -0.0619,-0.0619 -0.0639,-0.0213 -0.51477,0 -0.61939,0 -0.0617,0 -0.38521,-0.0242 -0.43358,0 -0.12771,0.0639 0.004,0.0619 -0.18581,0.0619"
       id="path5381"
       inkscape:connector-curvature="0" />
    <path
       style="fill:none;fill-opacity:1;stroke:#0e0a08;stroke-width:1.40460455;stroke-miterlimit:4;stroke-dasharray:none;stroke-opacity:1"
       d="m 249.0451,51.551208 c -0.0619,-0.0826 -0.12388,-0.16517 -0.18582,-0.24776 -0.0206,0 -0.0435,0.009 -0.0619,0 -0.0261,-0.0131 -0.0358,-0.0489 -0.0619,-0.0619 -0.0185,-0.009 -0.0619,0.0206 -0.0619,0 0,-0.0207 0.0435,0.009 0.0619,0 0.0522,-0.0261 0.0685,-0.10541 0.12388,-0.12387 0.12098,-0.0403 0.14181,0.0266 0.24776,0.0619 0.062,0.0207 0.29294,0 0.37163,0"
       id="path5383"
       inkscape:connector-curvature="0" />
    <path
       style="fill:none;fill-opacity:1;stroke:#0e0a08;stroke-width:1.40460455;stroke-miterlimit:4;stroke-dasharray:none;stroke-opacity:1"
       d="m 226.49925,51.365388 c -0.1565,0.1786 -0.33916,0.33731 -0.4695,0.53581 -0.0358,0.0546 0.12902,-0.0414 0.17519,-0.0876 0.0462,-0.0462 0.0517,-0.12061 0.0876,-0.17518 0.24065,-0.36649 0.56185,-0.67362 0.78836,-1.05115 0.0336,-0.056 0.0584,-0.11679 0.0876,-0.17519 0.0292,-0.0584 0.054,-0.11921 0.0876,-0.17519 0.0542,-0.0903 0.12103,-0.17251 0.17519,-0.26279 0.0998,-0.16635 0.15523,-0.36424 0.26278,-0.52557 0.0229,-0.0344 0.0647,-0.0532 0.0876,-0.0876 0.0724,-0.10865 0.0829,-0.25805 0.17519,-0.35038 0.0462,-0.0462 0.12903,-0.0414 0.1752,-0.0876 0.44763,-0.44764 -0.36729,0.12218 0.26278,-0.35038 0.0522,-0.0392 0.12902,-0.0414 0.17519,-0.0876 0.0462,-0.0462 0.0414,-0.12903 0.0876,-0.17519 0.18124,-0.18124 -0.007,0.27695 0.17519,-0.0876 0.0131,-0.0261 -0.0131,-0.0615 0,-0.0876 0.0185,-0.0369 0.0691,-0.0507 0.0876,-0.0876 0.0131,-0.0261 -0.0206,-0.067 0,-0.0876 0.0206,-0.0206 0.067,0.0206 0.0876,0 0.0207,-0.0206 -0.0206,-0.0669 0,-0.0876 0.0207,-0.0206 0.0615,0.0131 0.0876,0 0.0541,-0.027 0.41096,-0.38392 0.43799,-0.43798 0.0131,-0.0261 -0.0207,-0.0669 0,-0.0876 0.0206,-0.0207 0.0584,0 0.0876,0"
       id="path5385"
       inkscape:connector-curvature="0" />
    <path
       style="fill:none;fill-opacity:1;stroke:#0e0a08;stroke-width:1.40460455;stroke-miterlimit:4;stroke-dasharray:none;stroke-opacity:1"
       d="m 223.3143,38.586728 c 0.26095,0.10192 0.46159,0.30131 0.70075,0.43798 0.11337,0.0648 0.23702,0.1104 0.35039,0.17519 0.18281,0.10446 0.33725,0.25622 0.52557,0.35038 0.2536,0.1268 0.67613,0.23267 0.96355,0.17519 0.10222,-0.0205 0.39035,-0.23557 0.43797,-0.26279 0.11338,-0.0648 0.24413,-0.0993 0.35038,-0.17519 0.10081,-0.072 0.16762,-0.18348 0.26279,-0.26278 0.10682,-0.089 0.45952,-0.31198 0.61316,-0.35039 0.0567,-0.0142 0.1168,0 0.17519,0 0.0584,0 0.12296,-0.0261 0.17519,0 0.0739,0.0369 0.11679,0.1168 0.17519,0.1752 0.11268,0.11267 0.26245,0.21847 0.35039,0.35038 0.1425,0.21375 0.19642,0.49548 0.35038,0.70076 0.15756,0.21009 0.46145,0.34225 0.70077,0.43797 0.51442,0.20578 0.0105,0.002 0.52556,0.0876 0.23208,0.0387 0.2249,0.13021 0.43797,0.0876 0.0905,-0.0181 0.17225,-0.0695 0.2628,-0.0876 0.14315,-0.0286 0.29396,0.024 0.43797,0 0.0911,-0.0152 0.17171,-0.0724 0.26278,-0.0876 0.0864,-0.0144 0.17638,0.0144 0.26278,0 0.29451,-0.0491 0.56913,-0.21895 0.87596,-0.26278 0.0867,-0.0124 0.17607,0.0124 0.26278,0 0.11919,-0.0171 0.23121,-0.0706 0.35038,-0.0876 0.2487,-0.0355 0.53685,0 0.78837,0"
       id="path5387"
       inkscape:connector-curvature="0" />
    <path
       style="fill:none;fill-opacity:1;stroke:#0e0a08;stroke-width:1.40460455;stroke-miterlimit:4;stroke-dasharray:none;stroke-opacity:1"
       d="m 253.53463,40.513828 c 0.14599,-0.146 0.27502,-0.31123 0.43799,-0.43798 0.10307,-0.0802 0.23964,-0.10598 0.35038,-0.17519 0.1238,-0.0774 0.22657,-0.18541 0.35037,-0.26279 0.11074,-0.0692 0.23966,-0.10598 0.35038,-0.17519 0.12381,-0.0774 0.2336,-0.17519 0.35039,-0.26278 0.23359,-0.17519 0.47907,-0.33556 0.70075,-0.52558 0.0941,-0.0806 0.16762,-0.18348 0.26279,-0.26278 0.0809,-0.0674 0.1752,-0.11679 0.26279,-0.17519 0.1168,-0.0876 0.23954,-0.16778 0.35038,-0.26279 0.18811,-0.16123 0.36696,-0.33524 0.52557,-0.52557 0.0674,-0.0809 0.10075,-0.18834 0.17518,-0.26278 0.0745,-0.0744 0.18059,-0.10943 0.2628,-0.17519 0.19157,-0.15326 0.3294,-0.37844 0.52557,-0.52557 0.23247,-0.17436 0.60543,-0.26021 0.87596,-0.35039 0.18719,-0.0624 0.42067,-0.14769 0.61316,-0.17519 0.0867,-0.0124 0.17639,0.0144 0.26278,0 0.0911,-0.0152 0.17171,-0.0724 0.26279,-0.0876 0.0864,-0.0144 0.17638,0.0144 0.26278,0 0.0911,-0.0152 0.17171,-0.0724 0.26279,-0.0876 0.0864,-0.0144 0.17638,0.0144 0.26278,0 0.0911,-0.0152 0.17226,-0.0695 0.26279,-0.0876 0.46797,-0.0936 -0.19714,0.16645 0.43798,-0.0876 0.39694,-0.15878 0.0121,-0.008 0.26278,-0.17519 0.0543,-0.0362 0.12087,-0.0514 0.17519,-0.0876 0.0344,-0.0229 0.0532,-0.0647 0.0876,-0.0876 0.0543,-0.0362 0.12901,-0.0414 0.17518,-0.0876 0.0462,-0.0462 0.0414,-0.12903 0.0876,-0.17519 0.0462,-0.0462 0.12903,-0.0414 0.17519,-0.0876 0.0462,-0.0462 0.0514,-0.12086 0.0876,-0.17519 0.0229,-0.0344 0.0647,-0.0532 0.0876,-0.0876 0.0724,-0.10864 0.0968,-0.24591 0.17519,-0.35037 0.10122,-0.13497 0.48918,-0.51399 0.61316,-0.61317 0.0822,-0.0658 0.18058,-0.10942 0.26278,-0.17519 0.12898,-0.10318 0.20875,-0.2654 0.35039,-0.35038 0.0792,-0.0475 0.18892,-0.0322 0.26278,-0.0876 0.0522,-0.0392 0.0414,-0.12902 0.0876,-0.17519 0.0462,-0.0462 0.12296,-0.0484 0.17519,-0.0876 0.0661,-0.0496 0.10912,-0.12564 0.17518,-0.17519 0.0522,-0.0392 0.12087,-0.0514 0.1752,-0.0876 0.0344,-0.0229 0.0546,-0.0628 0.0876,-0.0876 0.0842,-0.0632 0.18834,-0.10075 0.26279,-0.17519 0.0462,-0.0462 0.0414,-0.12903 0.0876,-0.1752 0.0462,-0.0462 0.12902,-0.0414 0.17519,-0.0876 0.0462,-0.0462 0.0484,-0.12296 0.0876,-0.17519 0.0496,-0.0661 0.12564,-0.10912 0.17519,-0.17519 0.0784,-0.10447 0.10275,-0.24173 0.17519,-0.35038 0.0458,-0.0687 0.13826,-0.10132 0.17519,-0.17519 0.12889,-0.25778 -0.20292,0.11533 0.0876,-0.17519"
       id="path5389"
       inkscape:connector-curvature="0" />
    <path
       style="fill:none;fill-opacity:1;stroke:#0e0a08;stroke-width:1.40460455;stroke-miterlimit:4;stroke-dasharray:none;stroke-opacity:1"
       d="m 218.07552,35.168298 c 0.0516,0.0207 0.10139,0.0467 0.15485,0.0619 0.0199,0.006 0.0417,-0.004 0.0619,0 0.0864,0.0173 0.16706,0.0606 0.24775,0.0929 0.0303,0.0121 0.0649,0.0142 0.0929,0.0309 0.0251,0.015 0.0413,0.0413 0.0619,0.0619 0.031,0.0309 0.0619,0.0619 0.0929,0.0929 0.0619,0.0619 0.12881,0.11931 0.18582,0.18582 0.0336,0.0392 0.0593,0.0847 0.0929,0.12388 0.057,0.0665 0.11852,0.12974 0.18581,0.18582 0.0286,0.0238 0.0626,0.0403 0.0929,0.0619 0.042,0.03 0.0767,0.072 0.12388,0.0929 0.0481,0.0214 0.10323,0.0206 0.15485,0.0309 0.0516,0.0103 0.10247,0.0257 0.15485,0.0309 0.0514,0.005 0.10323,0 0.15484,0 0.0619,0 0.12414,0.006 0.18582,0 0.45202,-0.0411 -0.13956,-0.0309 0.3097,-0.0309 0.0516,0 0.10323,0 0.15484,0 0.0413,0 0.0838,-0.01 0.12389,0 0.0839,0.021 0.30661,0.1599 0.37163,0.21679 0.14812,0.12961 0.21048,0.26821 0.3097,0.43358 0.0309,0.0516 0.066,0.10101 0.0929,0.15485 0.0497,0.0994 0.0742,0.21025 0.12388,0.30969 0.0167,0.0333 0.0435,0.0606 0.0619,0.0929 0.0229,0.0401 0.0363,0.0855 0.0619,0.12388 0.0162,0.0243 0.0444,0.0386 0.0619,0.0619 0.0922,0.12288 -0.0643,0.004 0.12388,0.15485 0.018,0.0144 0.0435,0.0171 0.0619,0.0309 0.0234,0.0175 0.0376,0.0457 0.0619,0.0619 0.0384,0.0256 0.0826,0.0413 0.12387,0.0619 0.0413,0.0207 0.0807,0.0458 0.12389,0.0619 0.0398,0.0149 0.0839,0.0164 0.12387,0.0309 0.0739,0.0269 0.14291,0.066 0.21679,0.0929 0.04,0.0146 0.084,0.016 0.12388,0.031 0.0432,0.0162 0.0806,0.0457 0.12388,0.0619 0.0797,0.0299 0.1659,0.0385 0.24775,0.0619 0.21534,0.0615 -0.0475,-0.006 0.21679,0.0929 0.0144,0.005 0.23333,0.0565 0.24776,0.0619 0.0432,0.0162 0.0807,0.0457 0.12387,0.0619 0.0399,0.0149 0.0848,0.0142 0.12388,0.0309 0.0342,0.0147 0.0606,0.0435 0.0929,0.0619 0.0401,0.0229 0.0884,0.0324 0.12388,0.0619 0.0286,0.0238 0.0356,0.0666 0.0619,0.0929 0.0263,0.0263 0.0643,0.0381 0.0929,0.0619 0.0561,0.0467 0.10924,0.0979 0.15485,0.15485 0.0233,0.0291 0.0387,0.0639 0.0619,0.0929 0.0182,0.0228 0.0444,0.0386 0.0619,0.0619 0.0139,0.0185 0.0182,0.0427 0.031,0.0619 0.0223,0.0334 0.0644,0.0644 0.0929,0.0929"
       id="path5391"
       inkscape:connector-curvature="0" />
    <path
       style="fill:none;fill-opacity:1;stroke:#0e0a08;stroke-width:1.40460455;stroke-miterlimit:4;stroke-dasharray:none;stroke-opacity:1"
       d="m 228.69808,39.782768 c 0.23192,-0.009 0.4467,-0.12643 0.68134,-0.0929 0.0323,0.005 0.0607,0.0256 0.0929,0.031 0.0305,0.005 0.0625,-0.006 0.0929,0 0.0226,0.005 0.0405,0.0224 0.0619,0.031 0.063,0.0252 0.10038,0.0256 0.15485,0.0619 0.0121,0.008 0.0179,0.0244 0.031,0.0309 0.0184,0.009 0.0413,0 0.0619,0"
       id="path5393"
       inkscape:connector-curvature="0" />
    <path
       style="fill:none;fill-opacity:1;stroke:#0e0a08;stroke-width:1.40460455;stroke-miterlimit:4;stroke-dasharray:none;stroke-opacity:1"
       d="m 253.44278,38.791738 c 0.0516,0.0206 0.10512,0.0371 0.15485,0.0619 0.19379,0.0969 0.37755,0.22074 0.55745,0.34067 0.32155,0.21436 0.63402,0.44288 0.96006,0.65036 0.55063,0.3504 -0.22255,-0.14084 0.30969,0.15484 0.0451,0.025 0.0777,0.0698 0.12388,0.0929 0.0381,0.0191 0.0823,0.0217 0.12388,0.031 0.17581,0.039 0.11753,0.0309 0.27873,0.0309 0.0516,0 0.10322,0 0.15484,0 0.0516,0 0.10424,0.0101 0.15485,0 0.0807,-0.0162 0.27755,-0.12616 0.34067,-0.15485 0.241,-0.10954 0.10368,-0.006 0.37163,-0.21678 0.18651,-0.14655 0.39333,-0.32675 0.52649,-0.52649 0.0384,-0.0576 0.0532,-0.12908 0.0929,-0.18581 0.0335,-0.0478 0.0854,-0.0799 0.12388,-0.12388 0.034,-0.0389 0.0629,-0.0819 0.0929,-0.12388 0.0216,-0.0303 0.0356,-0.0666 0.0619,-0.0929 0.001,-10e-4 0.15328,-0.0929 0.15485,-0.0929 0.0326,0 0.0619,0.0207 0.0929,0.031 0.10965,0.0366 0.10198,0.0291 0.21679,0.0929 0.0526,0.0292 0.10101,0.066 0.15485,0.0929 0.0497,0.0249 0.10424,0.039 0.15485,0.0619 0.063,0.0286 0.12073,0.0692 0.18582,0.0929 0.13114,0.0477 0.49549,0.0496 0.61938,0 0.1012,-0.0405 0.27308,-0.18016 0.34067,-0.24776 0.28708,-0.28708 0.23674,-0.2615 0.43358,-0.61939 0.11,-0.2 0.17439,-0.2901 0.24775,-0.49551 0.0253,-0.0708 0.0382,-0.14549 0.0619,-0.21679 0.0176,-0.0527 0.0473,-0.10122 0.0619,-0.15485 0.0686,-0.25159 -0.005,-0.10877 0.0619,-0.30969 0.0176,-0.0527 0.046,-0.1016 0.0619,-0.15485 0.0151,-0.0504 0.0114,-0.10598 0.031,-0.15485 0.0193,-0.0483 0.1979,-0.31547 0.21679,-0.34066 0.30073,-0.40098 0.73278,-0.65899 1.14588,-0.92909 0.0386,-0.0253 0.0797,-0.0487 0.12387,-0.0619 0.25256,-0.0758 0.11407,0.0245 0.3097,-0.0929 0.0125,-0.007 0.0274,-0.0168 0.0309,-0.0309 0.008,-0.0301 0,-0.0619 0,-0.0929 0,-0.0516 0,-0.10323 0,-0.15485 0,-0.0619 0.006,-0.12413 0,-0.18581 -0.0137,-0.15091 -0.0516,-0.18922 -0.0929,-0.34067 -0.0139,-0.0508 -0.0196,-0.10347 -0.031,-0.15485 -0.0233,-0.10466 -0.0724,-0.20723 -0.0929,-0.3097 -0.004,-0.0202 -0.004,-0.0417 0,-0.0619 0.007,-0.0366 0.0751,-0.25195 0.0929,-0.27872 0.0774,-0.11611 0.28429,-0.20774 0.40261,-0.27873 0.17125,-0.10275 0.3479,-0.18943 0.52648,-0.27872 0.0619,-0.031 0.12118,-0.068 0.18582,-0.0929 0.0701,-0.027 0.14664,-0.035 0.21679,-0.0619 0.0646,-0.0249 0.12387,-0.0619 0.18582,-0.0929 0.0722,-0.0207 0.14549,-0.0382 0.21678,-0.0619 0.16953,-0.0565 0.16694,-0.0759 0.34067,-0.15485 0.10122,-0.046 0.21024,-0.0742 0.30969,-0.12388 0.0538,-0.0269 0.0999,-0.0685 0.15485,-0.0929 0.0389,-0.0173 0.0848,-0.0142 0.12388,-0.031 0.0684,-0.0293 0.11923,-0.0906 0.18582,-0.12388 0.0292,-0.0146 0.0619,-0.0206 0.0929,-0.031"
       id="path5395"
       inkscape:connector-curvature="0" />
    <path
       style="fill:none;fill-opacity:1;stroke:#0e0a08;stroke-width:1.40460455;stroke-miterlimit:4;stroke-dasharray:none;stroke-opacity:1"
       d="m 266.67391,30.965948 c 0.10086,-0.0135 0.20701,-0.006 0.30257,-0.0405 0.035,-0.0128 0.0387,-0.0639 0.0619,-0.0929 0.0182,-0.0228 0.0437,-0.0391 0.062,-0.0619 0.0465,-0.0581 0.0762,-0.12863 0.12387,-0.18581 0.0561,-0.0673 0.12881,-0.11932 0.18582,-0.18582 0.0672,-0.0784 0.11864,-0.16938 0.18582,-0.24776 0.0285,-0.0332 0.0674,-0.0573 0.0929,-0.0929 0.0268,-0.0376 0.0351,-0.0863 0.0619,-0.12387 0.0255,-0.0356 0.0649,-0.0593 0.0929,-0.0929 0.0477,-0.0572 0.0774,-0.12769 0.12388,-0.18582 0.0182,-0.0228 0.0444,-0.0386 0.0619,-0.0619 0.0408,-0.0544 0.0552,-0.12921 0.0929,-0.18582 0.0162,-0.0243 0.0489,-0.0358 0.0619,-0.0619 0.009,-0.0184 -0.0146,-0.0473 0,-0.0619 0.0413,-0.0413 0.0309,0.0516 0.0309,-0.0309"
       id="path5397"
       inkscape:connector-curvature="0" />
    <path
       style="fill:none;fill-opacity:1;stroke:#0e0a08;stroke-width:1.40460455;stroke-miterlimit:4;stroke-dasharray:none;stroke-opacity:1"
       d="m 260.84451,34.827638 c -0.52984,0 0.2245,-0.0101 -0.3097,0.0309 -0.0823,0.006 -0.16574,-0.01 -0.24776,0 -0.30466,0.0359 -0.55929,0.16473 -0.83618,0.27873 -0.80401,0.33107 0.21697,-0.11443 -0.43357,0.18582 -0.0714,0.033 -0.14983,0.0517 -0.21678,0.0929 -0.0687,0.0422 -0.12132,0.10647 -0.18582,0.15485 -0.0596,0.0447 -0.12561,0.0801 -0.18582,0.12387 -0.0534,0.0389 -0.10139,0.085 -0.15485,0.12388 -0.12041,0.0876 -0.24775,0.16517 -0.37163,0.24776 -0.32359,0.21572 -0.65073,0.43034 -0.99103,0.61939 -0.0404,0.0224 -0.0835,0.0395 -0.12388,0.0619 -0.0526,0.0292 -0.10476,0.0595 -0.15485,0.0929 -0.0429,0.0286 -0.0788,0.0678 -0.12387,0.0929 -0.0486,0.027 -0.10405,0.0394 -0.15485,0.0619 -0.0422,0.0187 -0.0817,0.0432 -0.12388,0.0619 -0.0508,0.0226 -0.10405,0.0394 -0.15485,0.0619 -0.0844,0.0375 -0.16288,0.0875 -0.24775,0.12387 -0.06,0.0257 -0.12388,0.0413 -0.18582,0.0619 -0.0929,0.031 -0.18582,0.0619 -0.27873,0.0929 -0.0619,0.0206 -0.12742,0.0327 -0.18581,0.0619 -0.0333,0.0167 -0.0596,0.0453 -0.0929,0.0619 -0.0292,0.0146 -0.0657,0.0129 -0.0929,0.031 -0.0364,0.0243 -0.0593,0.0649 -0.0929,0.0929 -0.24882,0.20735 0.0861,-0.1033 -0.21679,0.12388 -0.0321,0.0241 -0.17463,0.18065 -0.21678,0.21678 -0.0599,0.0685 -0.14857,0.098 -0.21679,0.15485 -0.0337,0.0281 -0.0619,0.0619 -0.0929,0.0929 -0.031,0.0309 -0.0619,0.0619 -0.0929,0.0929 -0.0206,0.0309 -0.0356,0.0666 -0.0619,0.0929 -0.0263,0.0263 -0.0666,0.0356 -0.0929,0.0619 -0.0263,0.0263 -0.0387,0.0638 -0.0619,0.0929 -0.0365,0.0456 -0.0888,0.0772 -0.12387,0.12388 -0.0139,0.0184 -0.009,0.0546 -0.031,0.0619 -0.079,0.0263 -0.16518,0.0206 -0.24776,0.0309"
       id="path5399"
       inkscape:connector-curvature="0" />
    <path
       style="fill:none;fill-opacity:1;stroke:#0e0a08;stroke-width:1.40460455;stroke-miterlimit:4;stroke-dasharray:none;stroke-opacity:1"
       d="m 269.98053,81.591698 c 0,1.98205 0,3.9641 0,5.94615"
       inkscape:connector-curvature="0"
       id="path5405" />
    <path
       style="fill:none;fill-opacity:1;stroke:#0e0a08;stroke-width:1.40460455;stroke-miterlimit:4;stroke-dasharray:none;stroke-opacity:1"
       d="m 254.00023,82.087208 c 0.5368,0.20646 1.13188,0.30036 1.61042,0.6194 0.10865,0.0724 -0.0754,0.25039 -0.12388,0.37163 -0.3037,0.75924 0.043,-0.38215 -0.12388,0.61939 -0.0215,0.1288 -0.0983,0.24359 -0.12388,0.37163 -0.0162,0.081 0.0162,0.16678 0,0.24776 -0.0256,0.12805 -0.0983,0.24359 -0.12387,0.37164 -0.0486,0.24294 0,0.49551 0,0.74327 0,0.39763 -0.0491,0.84628 0,1.23878 0.0211,0.16894 0.10275,0.32657 0.12387,0.49551 0.0205,0.16389 -0.0234,0.33201 0,0.49552 0.0185,0.12926 0.088,0.24608 0.12388,0.37163 0.0935,0.32741 0.19961,0.65394 0.24776,0.99102 0.0175,0.12264 -0.0204,0.24945 0,0.37164 0.18123,1.08743 0.0455,-0.18936 0.24776,0.61939 0.02,0.0801 -0.0261,0.16941 0,0.24776 0.0184,0.0554 0.1054,0.0685 0.12387,0.12388 0.0501,0.15037 0,0.45135 0,0.61939 0,0.0413 0.0292,0.0947 0,0.12388 -0.0292,0.0292 -0.0826,0 -0.12387,0"
       inkscape:connector-curvature="0"
       id="path5409" />
    <path
       style="fill:none;fill-opacity:1;stroke:#0e0a08;stroke-width:1.40460455;stroke-miterlimit:4;stroke-dasharray:none;stroke-opacity:1"
       d="m 266.88357,82.582718 c -0.78457,0.41293 -1.61032,0.75561 -2.35368,1.23879 -0.10949,0.0712 -0.0826,0.24775 -0.12388,0.37163 -0.33952,1.01854 0.0435,-0.26116 -0.12388,0.74327 -0.0215,0.12881 -0.10241,0.24283 -0.12388,0.37164 -0.0204,0.12219 0.0204,0.24944 0,0.37163 -0.0214,0.12881 -0.10241,0.24283 -0.12387,0.37163 -0.034,0.20366 0.0405,0.41694 0,0.6194 -0.0256,0.12804 -0.10241,0.24283 -0.12389,0.37163 -0.0407,0.24439 0.035,0.49801 0,0.74327 -0.0241,0.16855 -0.0998,0.32697 -0.12387,0.49551 -0.0175,0.12264 0,0.24776 0,0.37164 0,0.37163 0,0.74327 0,1.1149 0,0.23287 -0.0515,0.66116 0,0.86716 0.0224,0.0896 0.10148,0.15817 0.12387,0.24775 0.0401,0.16024 0,0.33035 0,0.49552 0,0.28904 0,0.5781 0,0.86714"
       inkscape:connector-curvature="0"
       id="path5411" />
    <path
       style="fill:none;fill-opacity:1;stroke:#0e0a08;stroke-width:2.69999814;stroke-miterlimit:4;stroke-dasharray:none;stroke-opacity:1"
       d="m 207.6448,116.80476 c -3.87723,1.76094 -7.46703,4.13327 -10.4775,7.14374 -1.75279,1.7528 -2.79839,2.4021 -3.80999,4.7625 -0.72417,1.68972 -1.24807,3.90816 -1.42875,5.715 -0.079,0.78981 0.0789,1.59143 0,2.38124 -0.0805,0.80546 -0.3957,1.5758 -0.47625,2.38125 -0.15796,1.57962 0,3.175 0,4.7625 0,0.79374 -0.0985,1.59363 0,2.38124 0.0623,0.49814 0.39372,0.93357 0.47625,1.42875 0.0783,0.46977 -0.0783,0.95899 0,1.42875 0.0685,0.41112 1.03852,3.00856 1.42875,3.33375 1.86997,1.55831 3.93843,1.81804 6.19124,2.38124 2.02001,0.50501 4.11796,1.19839 6.19125,1.42875 0.63111,0.0701 1.26999,0 1.905,0 2.22249,0 4.445,0 6.66749,0 0.53635,0 2.87923,0.15151 3.33375,0 0.21299,-0.071 0.27545,-0.37584 0.47624,-0.47624 0.142,-0.071 0.33426,0.071 0.47626,0 0.25773,-0.12887 1.3391,-1.15981 1.42875,-1.42875 0.1004,-0.30121 -0.10041,-0.65129 0,-0.9525 0.071,-0.21299 0.40525,-0.26326 0.47625,-0.47625 0.1707,-0.51213 0,-4.63858 0,-5.23875 0,-0.58432 0.16107,-1.89802 0,-2.38124 -0.071,-0.21299 -0.37585,-0.27545 -0.47625,-0.47626 -0.142,-0.28398 0.14199,-0.66851 0,-0.95249 -0.10041,-0.20081 -0.37585,-0.27545 -0.47626,-0.47626 -0.071,-0.14198 0.071,-0.33425 0,-0.47624 -0.10039,-0.20081 -0.37584,-0.27545 -0.47624,-0.47625 -0.071,-0.14199 0,-0.3175 0,-0.47625 -0.15875,-0.15875 -0.35172,-0.28945 -0.47625,-0.47625 -0.15875,-0.3175 -0.3175,-0.635 -0.47626,-0.9525 0,-0.15875 0.071,-0.33426 0,-0.47625 -0.10039,-0.20081 -0.31749,-0.3175 -0.47624,-0.47625 -0.15875,-0.15875 -0.26327,-0.40526 -0.47625,-0.47625 -0.89522,-0.29841 -2.83464,0.24384 -3.81,0 -0.34437,-0.0861 -0.61574,-0.364 -0.9525,-0.47625 -0.21064,-0.0702 -3.47294,-0.0843 -3.81,0 -0.34437,0.0861 -0.61574,0.364 -0.95249,0.47625 -0.5715,0.1905 -1.3335,-0.1905 -1.905,0 -0.33677,0.11225 -0.61575,0.364 -0.9525,0.47625 -0.5715,0.1905 -1.3335,-0.1905 -1.905,0 -0.21299,0.071 -0.27545,0.37584 -0.47625,0.47625 -0.14199,0.071 -0.47625,-0.15875 -0.47625,0 0,0.2245 0.37585,0.27544 0.47625,0.47625 0.071,0.14199 -0.071,0.33426 0,0.47625 0.14694,0.29388 2.08736,2.2343 2.38125,2.38124 0.65692,0.32847 0.42599,-0.57676 0.9525,0.47626 0.14199,0.28398 -0.142,0.66851 0,0.95249 0.1004,0.20081 0.37584,0.27545 0.47625,0.47626 0.071,0.14198 0,0.31749 0,0.47624 0.15875,0.15875 0.37585,0.27545 0.47624,0.47625 0.18521,0.37041 0,2.3341 0,2.8575"
       id="path5413"
       inkscape:connector-curvature="0" />
    <path
       style="fill:none;fill-opacity:1;stroke:#0e0a08;stroke-width:2.69999814;stroke-miterlimit:4;stroke-dasharray:none;stroke-opacity:1"
       d="m 231.45728,157.76222 c 0,-3.25246 -0.10439,-0.69799 0.47625,-4.76249 0.181,-1.26702 0.24038,-2.55203 0.47624,-3.81 2.20456,-11.75763 -0.0728,3.36715 1.42875,-7.14374 0.58975,-4.12815 1.159,-8.27942 1.905,-12.38249 0.14481,-0.79641 0.39571,-1.57579 0.47626,-2.38125 0.0789,-0.78981 0,-1.5875 0,-2.38125 0,-1.90499 0,-3.81 0,-5.715 0,-2.16802 -0.22451,-0.0273 0.47624,-1.42875 0.071,-0.14198 -0.15875,-0.47624 0,-0.47624 0.35498,0 0.73952,0.19227 0.95251,0.47624 0.3012,0.40162 0.28981,0.96265 0.47624,1.42875 0.47625,1.19063 0.95251,1.42875 1.42875,2.8575 0.25598,0.76793 0.3175,1.5875 0.47625,2.38125 0.15875,0.79375 0.40297,1.5751 0.47625,2.38125 0.0862,0.94859 -0.0634,1.90711 0,2.8575 -0.20364,2.44688 0.76825,4.74849 0.9525,7.14374 0.0852,1.10798 -0.0792,2.22532 0,3.33375 0.063,0.88141 0.76472,5.1584 0.9525,6.19124 0.1448,0.79642 0.39571,1.5758 0.47625,2.38125 0,5.46877 -0.19251,-0.39509 0.47626,4.28625 0.11225,0.78577 -0.19252,1.6112 0,2.38125 0.0861,0.34437 0.39015,0.60812 0.47624,0.95249 0.21299,0.85193 -0.26223,1.42875 0,1.42875 0.22451,0 0.4218,-0.25844 0.47625,-0.47624 0.11551,-0.46203 -0.0673,-0.95728 0,-1.42875 0.0926,-0.64796 0.33426,-1.26605 0.47626,-1.905 0.1756,-0.79019 0.29422,-1.59251 0.47624,-2.38125 1.11896,-4.8488 2.82429,-9.53612 4.28625,-14.28749 1.08394,-3.5228 0.71246,-2.91177 1.905,-6.19124 0.29216,-0.80343 0.70685,-1.56241 0.95249,-2.38125 1.38484,-4.61612 -0.56052,-0.3077 1.42875,-4.28625"
       id="path5415"
       inkscape:connector-curvature="0" />
    <path
       style="fill:none;fill-opacity:1;stroke:#0e0a08;stroke-width:2.69999814;stroke-miterlimit:4;stroke-dasharray:none;stroke-opacity:1"
       d="m 267.65226,119.186 c -0.15875,0.95251 -0.19877,1.93259 -0.47625,2.8575 -0.20401,0.68001 -0.7485,1.22499 -0.9525,1.905 -0.27748,0.92491 -0.25912,1.9166 -0.47625,2.8575 -0.69083,2.99358 -1.20279,3.25376 -1.42875,6.19125 -0.0852,1.10797 0.0852,2.22577 0,3.33374 -0.33784,4.3919 -0.84577,1.3875 -0.47625,6.19125 0.85882,11.16467 0.0778,-4.38375 0.9525,5.23874 0.0862,0.94859 -0.0862,1.90892 0,2.8575 0.14657,1.61229 0.6013,3.18211 0.9525,4.7625 0.2805,1.26227 0.78439,4.16483 1.42875,5.23874 0.23101,0.38503 0.68309,0.5933 0.95249,0.95251 0.21299,0.28397 0.22525,0.70149 0.47626,0.95249 0.251,0.25101 0.65714,0.27934 0.95249,0.47626 0.18681,0.12453 0.26327,0.40525 0.47625,0.47624 0.30121,0.1004 0.64117,-0.0623 0.9525,0 0.49226,0.0985 0.92674,0.47625 1.42875,0.47625 0.35498,0 0.62292,-0.34441 0.95251,-0.47625 0.4661,-0.18644 0.95249,-0.31749 1.42875,-0.47624 3.27061,-1.09021 3.7457,-1.52926 5.71499,-4.28625 0.46136,-0.6459 0.91217,-1.30235 1.42875,-1.905 0.43831,-0.51137 1.03726,-0.88069 1.42875,-1.42875 1.21784,-1.70498 0.80555,-1.9404 1.42874,-3.81 0.94686,-2.84059 1.12671,-2.12558 1.905,-5.23875 0.46839,-1.87361 0.51824,-3.83318 0.9525,-5.71499 0.25987,-1.12612 0.69263,-2.20763 0.9525,-3.33375 0.21712,-0.94091 0.31749,-1.905 0.47625,-2.85749 0.15875,-0.95251 0.38016,-1.89666 0.47625,-2.8575 0.0632,-0.63186 -0.0701,-1.27389 0,-1.905 0.56964,-5.12685 0.47625,-0.23117 0.47625,-3.81"
       id="path5419"
       inkscape:connector-curvature="0" />
    <path
       style="fill:none;fill-opacity:1;stroke:#0e0a08;stroke-width:2.69999814;stroke-miterlimit:4;stroke-dasharray:none;stroke-opacity:1"
       d="m 296.70348,110.61351 c 0.31749,0.79375 0.68215,1.57023 0.95251,2.38125 0.20697,0.62096 0.26927,1.28405 0.47624,1.905 0.11226,0.33676 0.34443,0.62291 0.47625,0.9525 0.18645,0.4661 0.2898,0.96264 0.47625,1.42875 0.13183,0.32959 0.39015,0.60812 0.47625,0.9525 0.077,0.30802 -0.1004,0.65129 0,0.95249 0.071,0.213 0.37586,0.27546 0.47625,0.47625 0.14199,0.28399 -0.14199,0.66852 0,0.9525 0.1004,0.20081 0.37586,0.27546 0.47625,0.47625 0.142,0.28399 -0.2245,0.728 0,0.9525 0.11225,0.11226 0.364,-0.11225 0.47625,0 0.2245,0.22451 -0.142,0.66852 0,0.95251 0.5885,1.177 0.47625,-0.1644 0.47625,0.95249"
       id="path5421"
       inkscape:connector-curvature="0" />
    <path
       style="fill:none;fill-opacity:1;stroke:#0e0a08;stroke-width:2.69999814;stroke-miterlimit:4;stroke-dasharray:none;stroke-opacity:1"
       d="m 319.08722,127.28225 c -2.72748,0.72388 -4.47306,2.24254 -6.6675,3.81 -4.445,3.17499 1.42875,-1.42875 -2.38125,2.38124 -0.40474,0.40474 -1.07118,0.50555 -1.42875,0.95251 -0.31361,0.392 -0.25174,0.97974 -0.47625,1.42874 -0.10039,0.2008 -0.37586,0.27545 -0.47624,0.47625 -0.071,0.14199 0,0.3175 0,0.47625 0,1.80783 0.68591,2.11468 1.90499,3.33375 1.23185,1.23184 2.3046,2.4305 3.81,3.33375 0.8131,0.48785 1.56815,0.46464 2.38125,0.95249 0.38502,0.23102 0.56748,0.72149 0.9525,0.95251 0.46496,0.27897 1.89935,0.4706 2.38125,0.95249 0.251,0.25101 0.26327,0.66852 0.47624,0.95251 0.26942,0.3592 0.75169,0.55089 0.95251,0.95249 0.14199,0.28398 0,0.63501 0,0.9525 0,1.50921 0.11551,1.75573 -0.47625,3.33375 -0.24928,0.66475 -0.70324,1.24025 -0.9525,1.905 -0.22981,0.61286 -0.24644,1.29213 -0.47625,1.90499 -1.05854,2.82279 -3.09153,5.5898 -4.7625,8.09625 -0.31749,0.47625 -0.65801,0.93794 -0.9525,1.42875 -0.44991,0.74986 -0.47194,1.42875 -1.42875,1.42875"
       id="path5423"
       inkscape:connector-curvature="0" />
    <path
       style="fill:none;fill-opacity:1;stroke:#0e0a08;stroke-width:2.69999814;stroke-miterlimit:4;stroke-dasharray:none;stroke-opacity:1"
       d="m 196.69105,207.2922 c 0,-2.06376 0,-4.1275 0,-6.19125 0,-0.79375 0.0985,-1.59363 0,-2.38125 -0.0623,-0.49814 -0.41398,-0.93062 -0.47624,-1.42875 -0.20695,-1.65554 0,-4.00174 0,-5.71499 0,-1.05244 0.1901,-2.85945 0,-3.81001 -0.0697,-0.34807 -0.39016,-0.60812 -0.47626,-0.9525 -0.19251,-0.77004 0,-1.58749 0,-2.38124 0,-1.74625 0,-3.4925 0,-5.23875 0,-0.79375 -0.19251,-1.6112 0,-2.38125 0.0861,-0.34438 0.39016,-0.60812 0.47626,-0.95249 0.0721,-0.28846 -0.10799,-2.74953 0,-2.8575 0.11224,-0.11226 0.36399,0.11225 0.47624,0 0.11226,-0.11226 -0.11225,-0.364 0,-0.47626 0.11226,-0.11224 0.3175,0 0.47625,0 0.15875,0 0.33426,-0.071 0.47626,0 0.89465,0.44733 0.79521,1.74772 1.42874,2.38125 0.251,0.25101 0.73952,0.19228 0.9525,0.47625 0.30121,0.40161 0.28981,0.96264 0.47625,1.42875 0.13183,0.32959 0.29362,0.64811 0.47625,0.9525 2.25199,3.75332 -0.25715,-1.162 1.42875,3.33375 0.24928,0.66475 0.66416,1.25624 0.9525,1.905 1.03825,2.33607 1.908,4.77 2.8575,7.14375 0.31749,0.79374 0.59874,1.60298 0.9525,2.38124 0.89597,1.97116 1.76785,3.19411 2.38124,5.23875 1.36073,4.53573 -0.58141,0.23962 1.42875,4.7625 0.57668,1.29752 1.34568,2.5049 1.905,3.80999 0.19775,0.46142 0.28981,0.96265 0.47625,1.42875 0.13184,0.32959 0.39015,0.60813 0.47625,0.95251 0.077,0.30801 -0.14199,0.66851 0,0.95249 0.20081,0.40161 0.70344,0.5789 0.9525,0.9525 0.088,0.13209 -0.11225,0.364 0,0.47625 0.11225,0.11225 0.33426,0.071 0.47625,0 0.78385,-0.39192 1.3124,-2.15942 1.42875,-2.8575 0.0783,-0.46977 -0.059,-0.95618 0,-1.42875 1.28269,-6.41349 -0.1619,1.61894 0.47625,-4.7625 0.0806,-0.80544 0.3175,-1.5875 0.47625,-2.38124 0.15875,-0.9525 0.38883,-1.89583 0.47624,-2.8575 0.56319,-6.19504 -0.81563,1.86663 0.47626,-5.23874 0.40307,-2.21694 0.44289,-2.24782 0.95249,-4.28625 0.15875,-0.63501 0.38369,-1.25704 0.47626,-1.905 0.1347,-0.94293 -0.1868,-1.9235 0,-2.8575 0.0696,-0.34809 0.36399,-0.61575 0.47625,-0.9525 0.18944,-0.56833 -0.24631,-1.88864 0,-2.38125 0.1004,-0.2008 0.31749,-0.31749 0.47624,-0.47624"
       id="path5425"
       inkscape:connector-curvature="0" />
    <path
       style="fill:none;fill-opacity:1;stroke:#0e0a08;stroke-width:2.69999814;stroke-miterlimit:4;stroke-dasharray:none;stroke-opacity:1"
       d="m 243.36353,181.57471 c -0.47626,0.635 -1.00806,1.2319 -1.42876,1.90499 -1.20848,2.41696 -0.55869,1.31429 -1.905,3.33376 -1.44413,2.16619 -3.37144,4.51242 -3.80999,7.14374 -0.18286,1.09709 0,3.62577 0,4.7625 0,1.74624 0,3.49249 0,5.23874 0,0.47626 -0.0783,0.95898 0,1.42875 0.0825,0.49518 0.37779,0.93649 0.47624,1.42875 0.0623,0.31134 -0.077,0.64448 0,0.9525 0.0861,0.34437 0.39016,0.60813 0.47625,0.95251 0.077,0.30801 -0.1004,0.65129 0,0.95249 0.071,0.21299 0.31751,0.3175 0.47626,0.47625 0.72167,0.72168 0.83844,0.47625 1.90499,0.47625 0.66778,0 2.86665,0.18684 3.33375,0 0.53145,-0.21257 0.93794,-0.65801 1.42875,-0.9525 1.27544,-0.76526 2.6376,-1.44333 3.81,-2.38124 0.35062,-0.28051 0.60188,-0.67201 0.9525,-0.95251 1.37519,-1.10015 1.35911,-0.62732 2.38125,-1.90499 1.4043,-1.75539 0.53844,-0.8974 1.42875,-2.38126 1.04915,-1.7486 1.96693,-3.16715 2.38124,-5.23874 0.19491,-0.97455 0,-2.77726 0,-3.80999 0,-1.11126 0.18269,-2.23763 0,-3.33376 -0.0583,-0.35014 -0.31749,-0.635 -0.47624,-0.95249 -0.15875,-0.47626 -0.39372,-0.93357 -0.47625,-1.42875 -0.0783,-0.46977 0.0934,-0.96175 0,-1.42875 -0.0696,-0.34808 -0.31751,-0.635 -0.47626,-0.95251 -0.15875,-0.31749 -0.26326,-0.66852 -0.47624,-0.95249 -0.26941,-0.35921 -0.68309,-0.59329 -0.95251,-0.9525 -0.21298,-0.28399 -0.27934,-0.65714 -0.47624,-0.95251 -0.12453,-0.18679 -0.37585,-0.27544 -0.47625,-0.47624 -0.071,-0.14199 0.071,-0.33426 0,-0.47625 -0.15875,-0.3175 -1.11125,-1.27 -1.42875,-1.42875 -0.14199,-0.071 -0.33426,0.071 -0.47625,0 -0.2008,-0.1004 -0.27545,-0.37585 -0.47625,-0.47625 -0.14199,-0.071 -0.3175,0 -0.47625,0 -0.15875,0 -0.33426,-0.071 -0.47625,0 -0.2008,0.1004 -0.27545,0.37585 -0.47624,0.47625 -0.28399,0.14199 -0.728,-0.22451 -0.95251,0 -0.11225,0.11225 0.11225,0.364 0,0.47625 -0.11225,0.11225 -0.33426,-0.071 -0.47624,0 -0.20081,0.10041 -0.27545,0.37584 -0.47626,0.47625 -0.14199,0.071 -0.36399,-0.11225 -0.47625,0 -0.11225,0.11225 0.14199,0.40526 0,0.47625 -0.58544,0.29271 -1.27,0.3175 -1.90499,0.47625 z"
       id="path5427"
       inkscape:connector-curvature="0" />
    <path
       style="fill:none;fill-opacity:1;stroke:#0e0a08;stroke-width:2.69999814;stroke-miterlimit:4;stroke-dasharray:none;stroke-opacity:1"
       d="m 277.17725,215.86469 c -0.79999,-2.78819 -1.64064,-5.66451 -1.905,-8.57249 -0.0719,-0.7905 0.0719,-1.59077 0,-2.38126 -0.0874,-0.96167 -0.38882,-1.89582 -0.47624,-2.8575 -0.19852,-2.18357 0,-4.89623 0,-7.14374 0,-1.27 0.1796,-2.55276 0,-3.81 -0.0926,-0.64796 -0.36865,-1.25936 -0.47626,-1.905 -0.21825,-1.30951 0,-3.32677 0,-4.76249 0,-0.3201 0.14054,-1.14769 0,-1.42875 -0.1004,-0.20081 -0.3175,-0.3175 -0.47625,-0.47625"
       id="path5429"
       inkscape:connector-curvature="0" />
    <path
       style="fill:none;fill-opacity:1;stroke:#0e0a08;stroke-width:2.69999814;stroke-miterlimit:4;stroke-dasharray:none;stroke-opacity:1"
       d="m 264.79476,192.0522 c 1.68061,0.16802 3.15606,-0.75169 4.76249,-0.9525 0.6301,-0.0787 1.27389,0.0701 1.905,0 0.80452,-0.0894 1.5758,-0.3957 2.38125,-0.47625 0.78981,-0.0789 1.59144,0.079 2.38125,0 2.1216,-0.21216 4.09723,-1.1296 6.19124,-1.42875 0.47147,-0.0673 0.95898,0.0783 1.42875,0 4.1806,-0.69676 -0.72799,-0.17518 2.38125,-0.9525 0.61603,-0.154 1.30259,0.20081 1.905,0 1.12945,-0.37647 -0.30168,-0.47625 1.42875,-0.47625"
       id="path5431"
       inkscape:connector-curvature="0" />
    <path
       style="fill:none;fill-opacity:1;stroke:#0e0a08;stroke-width:2.69999814;stroke-miterlimit:4;stroke-dasharray:none;stroke-opacity:1"
       d="m 188.59481,226.81843 c 0,6.28894 -0.15567,-1.55667 0.47625,4.7625 0.0789,0.7898 -0.079,1.59143 0,2.38124 0.0806,0.80546 0.40297,1.5751 0.47624,2.38125 0.0862,0.94859 -0.0862,1.90892 0,2.8575 0.0733,0.80614 0.31751,1.5875 0.47626,2.38125 0.60511,3.02556 1.23605,6.03847 1.905,9.04874 0.3512,1.58039 0.44054,3.22664 0.9525,4.7625 0.44901,1.34704 1.26999,2.53999 1.905,3.80999 1.54164,3.08331 3.76419,6.6675 7.61999,6.6675 0.635,0 1.28896,0.15401 1.905,0 0.34437,-0.0861 0.635,-0.3175 0.95249,-0.47625 0.31751,-0.15875 0.7015,-0.22524 0.95251,-0.47625 0.251,-0.251 0.26326,-0.66852 0.47624,-0.9525 0.26942,-0.35921 0.70344,-0.5789 0.95251,-0.9525 0.39381,-0.59071 0.60026,-1.28859 0.95249,-1.905 0.28399,-0.49697 0.75153,-0.89281 0.9525,-1.42875 0.28423,-0.75793 0.26327,-1.60029 0.47625,-2.38124 0.52836,-1.93729 1.41798,-3.76691 1.905,-5.715 0.2342,-0.93681 0.24205,-1.92069 0.47625,-2.85749 0.24351,-0.97406 0.78744,-1.86714 0.9525,-2.8575 0.0698,-0.41911 -0.0582,-4.59846 0,-5.23875 0.0874,-0.96167 0.3175,-1.905 0.47625,-2.8575 0.15875,-1.42875 0.35687,-2.85368 0.47625,-4.28625 0.18245,-2.18939 0,-4.46418 0,-6.66749"
       id="path5433"
       inkscape:connector-curvature="0" />
    <path
       style="fill:none;fill-opacity:1;stroke:#0e0a08;stroke-width:2.69999814;stroke-miterlimit:4;stroke-dasharray:none;stroke-opacity:1"
       d="m 225.26603,264.44215 c -0.0165,-2.76051 -1.15708,-5.3796 -1.42875,-8.09625 -0.0789,-0.78981 0.079,-1.59143 0,-2.38124 -0.63192,-6.31917 -0.47624,1.52644 -0.47624,-4.7625 0,-2.8575 0,-5.715 0,-8.57249 0,-1.5875 0,-3.175 0,-4.76249 0,-0.21186 -0.14778,-1.60946 0,-1.90501 0.1004,-0.2008 0.27544,-0.37585 0.47624,-0.47625 0.63022,-0.31511 1.03046,0.68697 1.42875,0.95251 0.29536,0.1969 0.65714,0.27934 0.9525,0.47624 0.95782,0.63855 0.96832,1.93665 1.42875,2.8575 0.25598,0.51195 0.66852,0.93178 0.9525,1.42875 1.52049,2.66084 2.57687,5.53218 4.28625,8.09625 0.44029,0.66043 1.00806,1.2319 1.42875,1.90499 0.75254,1.20408 1.15244,2.60593 1.905,3.81 0.42068,0.67309 1.00806,1.2319 1.42875,1.905 1.20847,2.41695 0.55868,1.31428 1.90499,3.33375 0.3175,0.47625 0.635,0.95249 0.9525,1.42874 0.3175,0.31751 0.6831,0.59329 0.9525,0.9525 0.21299,0.28399 0.27934,0.65715 0.47625,0.95251 0.12454,0.18679 0.35172,0.28944 0.47625,0.47624 0.19691,0.29536 0.27935,0.65714 0.47625,0.95251 0.24907,0.37359 0.7517,0.55089 0.9525,0.95249 0.071,0.14199 -0.11225,0.364 0,0.47625 0.11226,0.11225 0.40526,0.14199 0.47625,0 0.142,-0.28398 0,-0.635 0,-0.9525 0,-0.47624 0,-0.9525 0,-1.42875 0,-1.5875 0,-3.17499 0,-4.76249 0,-1.74625 0.14502,-3.49853 0,-5.23875 -0.16038,-1.92461 -0.79211,-3.7904 -0.95249,-5.715 -0.14502,-1.74021 0,-3.49249 0,-5.23874 0,-3.33375 0,-6.66749 0,-10.00124"
       id="path5435"
       inkscape:connector-curvature="0" />
    <path
       style="fill:none;fill-opacity:1;stroke:#0e0a08;stroke-width:2.69999814;stroke-miterlimit:4;stroke-dasharray:none;stroke-opacity:1"
       d="m 258.60351,269.20465 c 0,-1.11125 0.10062,-2.22706 0,-3.33375 -0.0592,-0.65186 -0.40396,-1.25446 -0.47625,-1.905 -0.0877,-0.78889 0,-1.5875 0,-2.38124 0,-2.38126 0,-4.7625 0,-7.14375 0,-5.23875 0,-10.47749 0,-15.71624"
       id="path5437"
       inkscape:connector-curvature="0" />
    <path
       style="fill:none;fill-opacity:1;stroke:#0e0a08;stroke-width:2.69999814;stroke-miterlimit:4;stroke-dasharray:none;stroke-opacity:1"
       d="m 258.19114,234.42426 c 0,-0.95415 0,-1.9083 0,-2.86246"
       id="path5441"
       inkscape:connector-curvature="0" />
    <path
       style="fill:none;fill-opacity:1;stroke:#0e0a08;stroke-width:2.69999814;stroke-miterlimit:4;stroke-dasharray:none;stroke-opacity:1"
       d="m 268.4623,267.93181 c 0.22389,-0.50374 0.93769,-2.09166 1.17866,-2.69407 0.1781,-0.44525 0.29985,-0.91366 0.50513,-1.34704 0.77988,-1.64639 1.42217,-2.42018 2.35733,-4.04111 0.41411,-0.71781 0.77929,-1.46282 1.17866,-2.18894 1.26235,-2.29521 0.13356,-0.0531 1.85217,-3.36759 0.40439,-0.77991 0.77504,-1.577 1.17865,-2.35732 0.43837,-0.84749 0.92033,-1.67227 1.34704,-2.52569 0.24721,-0.49442 0.43815,-1.01525 0.67352,-1.51542 0.21375,-0.45423 0.46123,-0.89212 0.67352,-1.34704 0.41687,-0.8933 0.52237,-1.35251 1.01027,-2.18893 0.20394,-0.34961 0.46959,-0.66068 0.67353,-1.01028 0.18971,-0.32522 0.303,-0.69264 0.50513,-1.01028 1.67057,-2.62519 -0.23317,0.8575 1.17865,-1.68379 0.12192,-0.21942 0.20374,-0.46067 0.33678,-0.67353 0.19066,-0.30508 0.66378,-0.82244 0.84189,-1.17865 0.0794,-0.15875 0.10247,-0.34035 0.16838,-0.50514 0.17066,-0.42664 0.35742,-0.69418 0.67351,-1.01028"
       id="path5443"
       inkscape:connector-curvature="0" />
    <path
       style="fill:none;fill-opacity:1;stroke:#0e0a08;stroke-width:2.69999814;stroke-miterlimit:4;stroke-dasharray:none;stroke-opacity:1"
       d="m 266.61012,238.80213 c 1.31167,1.36939 2.20098,3.06147 3.3676,4.54625 0.3197,0.40688 0.71187,0.7559 1.01028,1.17866 0.37746,0.53473 0.66337,1.12874 1.01028,1.68379 0.41003,0.65605 1.22781,1.82534 1.6838,2.35732 0.30993,0.3616 0.7199,0.63279 1.01027,1.01028 0.2759,0.35867 0.42252,0.80214 0.67352,1.17866 0.62267,0.934 1.36332,1.78406 2.02056,2.69407 0.40112,0.5554 0.75803,1.143 1.17865,1.68379 0.36629,0.47097 0.80594,0.88115 1.17866,1.34704 0.30161,0.37702 0.54751,0.79597 0.84189,1.17866 0.53455,0.69492 1.15778,1.31918 1.6838,2.02056 0.24283,0.32379 0.43548,0.68295 0.67351,1.01028 0.21138,0.29064 0.46744,0.54748 0.67353,0.84189 0.18767,0.26811 0.30878,0.58009 0.50514,0.84191 0.14287,0.19049 0.35269,0.3222 0.50513,0.50513 0.25911,0.31092 0.43068,0.68649 0.67351,1.01028 0.0476,0.0635 0.12438,0.10234 0.16841,0.16838 0.0696,0.10443 0.0796,0.24801 0.16837,0.33676 0.2363,0.2363 0.50514,0.11765 0.50514,0.50514"
       id="path5445"
       inkscape:connector-curvature="0" />
  </g>
</svg>
