<?xml version="1.0" encoding="UTF-8" standalone="no"?>
<!-- Created with Inkscape (http://www.inkscape.org/) -->

<svg
   xmlns:dc="http://purl.org/dc/elements/1.1/"
   xmlns:cc="http://creativecommons.org/ns#"
   xmlns:rdf="http://www.w3.org/1999/02/22-rdf-syntax-ns#"
   xmlns:svg="http://www.w3.org/2000/svg"
   xmlns="http://www.w3.org/2000/svg"
   xmlns:sodipodi="http://sodipodi.sourceforge.net/DTD/sodipodi-0.dtd"
   xmlns:inkscape="http://www.inkscape.org/namespaces/inkscape"
   width="1920"
   height="1080"
   viewBox="0 0 508.00002 285.74999"
   version="1.1"
   id="svg8"
   inkscape:version="0.92.4 5da689c313, 2019-01-14"
   sodipodi:docname="dibujo29.svg">
  <defs
     id="defs2" />
  <sodipodi:namedview
     id="base"
     pagecolor="#ffffff"
     bordercolor="#666666"
     borderopacity="1.0"
     inkscape:pageopacity="0.0"
     inkscape:pageshadow="2"
     inkscape:zoom="0.5"
     inkscape:cx="1032.3026"
     inkscape:cy="534.30973"
     inkscape:document-units="mm"
     inkscape:current-layer="layer1"
     showgrid="false"
     units="px"
     inkscape:window-width="1366"
     inkscape:window-height="741"
     inkscape:window-x="0"
     inkscape:window-y="27"
     inkscape:window-maximized="0"
     showguides="false" />
  <metadata
     id="metadata5">
    <rdf:RDF>
      <cc:Work
         rdf:about="">
        <dc:format>image/svg+xml</dc:format>
        <dc:type
           rdf:resource="http://purl.org/dc/dcmitype/StillImage" />
        <dc:title></dc:title>
      </cc:Work>
    </rdf:RDF>
  </metadata>
  <g
     inkscape:label="Capa 1"
     inkscape:groupmode="layer"
     id="layer1"
     transform="translate(0,-11.250015)">
    <path
       style="fill:none;fill-opacity:1;stroke:#0e0a08;stroke-width:3;stroke-miterlimit:4;stroke-dasharray:none;stroke-opacity:1"
       d="m 152.4,49.879181 c 0.52916,1.058333 1.18313,2.062988 1.5875,3.175 0.30736,0.845259 0.29251,1.778114 0.52916,2.645833 0.58706,2.152545 1.60565,4.17815 2.11667,6.35 0.45169,1.919664 0.62128,3.897786 1.05833,5.820834 1.9902,8.756856 1.25624,2.77491 2.64584,11.112499 0.64858,3.891468 1.57104,11.526422 2.11666,15.345834 0.32811,2.296715 0.78192,4.575659 1.05834,6.879169 0.25306,2.10887 0.35979,4.23276 0.52916,6.35 0.22335,2.7918 0.9633,12.34558 1.05834,14.81666 0.0746,1.93885 -0.0881,3.88256 0,5.82084 0.0885,1.94627 0.44454,3.87439 0.52916,5.82083 0.0919,2.11467 0,4.23333 0,6.35 0,3.88056 0,7.76111 0,11.64167 0,3.35139 0,6.70277 0,10.05416 0,1.5875 0.0932,3.17774 0,4.7625 -0.0835,1.41964 -0.44046,2.81401 -0.52916,4.23334 -0.25253,4.04047 0.26928,8.13156 0,12.17083 -0.0946,1.41894 -0.43457,2.81439 -0.52917,4.23333 -0.0821,1.23199 0.0947,2.47308 0,3.70417 -0.0823,1.06977 -0.36602,2.11454 -0.52917,3.175 -0.18965,1.23275 -0.33951,2.47141 -0.52916,3.70417 -0.3263,2.12091 -0.67447,4.23875 -1.05834,6.35 -0.32178,1.7698 -0.87934,3.50177 -1.05833,5.29166 -0.0878,0.87757 0.0974,1.76928 0,2.64584 -0.0803,0.72282 -0.3714,1.40671 -0.52917,2.11666 -0.1951,0.878 -0.24474,1.79258 -0.52916,2.64584 -0.24945,0.74835 -0.7476,1.39161 -1.05834,2.11666 -0.87566,2.04323 -1.29088,4.28556 -2.11666,6.35 -0.43365,1.08413 -1.21854,2.0681 -1.5875,3.175 -0.0558,0.16734 0.0789,0.3714 0,0.52917 -0.11156,0.22311 -0.30605,0.41761 -0.52917,0.52917 -0.15777,0.0789 -0.35278,0 -0.52917,0 -0.17639,0 -0.3714,0.0789 -0.52916,0 -0.57821,-0.28911 -2.09349,-2.09349 -2.64584,-2.64584 -0.39745,-0.39745 -1.17068,-1.05833 -0.52916,-1.05833 0.17639,0 0,0.35278 0,0.52917 0,0.35277 0,0.70555 0,1.05833 0,1.5875 0,3.175 0,4.7625 0,1.94028 0,3.88056 0,5.82083 0,0.52917 -0.10378,1.06861 0,1.5875 0.0773,0.38676 0.45181,0.67158 0.52916,1.05834 1.02746,5.13725 -0.52916,-1.23766 -0.52916,2.64583 0,0.39442 0.45181,0.67157 0.52916,1.05833 0.46893,2.34462 -0.46892,0.83039 0,3.175 0.0774,0.38676 0.43351,0.67569 0.52917,1.05834 0.17112,0.68449 -0.17112,1.43217 0,2.11666 0.0957,0.38264 0.43351,0.67569 0.52917,1.05834 0.15542,0.6217 -0.28538,2.07506 0,2.64583 0.0789,0.15776 0.40444,-0.12473 0.52916,0 1.09487,1.09486 -1.67309,-0.0428 0.52917,1.05833 0.15777,0.0789 0.36183,-0.0558 0.52917,0 2.62799,0.876 -0.88362,0.64732 2.64583,-0.52916 0.50201,-0.16734 1.06365,0.0748 1.5875,0 0.71996,-0.10286 1.39384,-0.44886 2.11667,-0.52917 0.87655,-0.0974 1.76751,0.0798 2.64583,0 8.05369,-0.73216 -2.11072,-0.52917 6.87917,-0.52917 4.23333,0 8.46666,0 12.7,0 2.46944,0 4.94058,0.0914 7.40833,0 2.29825,-0.0851 4.58151,-0.42927 6.87917,-0.52916 1.76222,-0.0766 3.53339,0.14066 5.29166,0 5.3215,-0.42572 10.56916,-1.52713 15.875,-2.11667 4.04735,-0.44971 8.11531,-0.68965 12.17084,-1.05833 1.94027,-0.17639 3.87411,-0.4513 5.82083,-0.52917 4.7587,-0.19035 9.525,0 14.2875,0 2.82222,0 5.64638,-0.10446 8.46667,0 1.94694,0.0721 3.87439,0.44454 5.82083,0.52917 2.11466,0.0919 4.23503,-0.0846 6.35,0 2.29799,0.0919 4.58134,0.43342 6.87917,0.52916 7.88717,0.32864 3.76996,-0.15432 11.64166,-0.52916 1.76189,-0.0839 3.5305,0.0978 5.29167,0 1.41991,-0.0789 2.82099,-0.36301 4.23333,-0.52917 1.58634,-0.18663 3.17617,-0.34254 4.7625,-0.52917 0.52554,-0.0618 8.73305,-1.02742 8.99584,-1.05833 1.41234,-0.16616 2.83884,-0.25027 4.23333,-0.52917 1.2592,-0.25184 2.46943,-0.70555 3.70417,-1.05833 1.23473,-0.35278 2.49483,-0.62643 3.70416,-1.05833 8.64711,-3.08826 -0.50845,-0.0575 6.35,-3.175 1.01558,-0.46164 2.2184,-0.48438 3.175,-1.05834 0.85561,-0.51336 1.32906,-1.50407 2.11667,-2.11666 0.81185,-0.63145 1.87711,-0.9042 2.64583,-1.5875 0.84416,-0.75036 1.44875,-1.73505 2.11667,-2.64584 4.36102,-5.94684 2.92682,-3.59049 5.29167,-8.99583 0.6963,-1.59158 1.56731,-3.11442 2.11666,-4.7625 0.51425,-1.54277 0.68167,-3.1805 1.05834,-4.7625 1.71569,-7.20586 1.93325,-6.74531 3.175,-14.81667 2.80045,-18.20292 0.53416,-5.96759 2.64583,-23.28333 0.43183,-3.54101 1.36027,-7.02333 1.5875,-10.58333 0.30337,-4.75283 0,-9.525 0,-14.2875 0,-5.29167 -0.0945,-10.58418 0,-15.875 0.58581,-32.80504 0.32001,1.81925 1.05833,-23.28334 0.083,-2.821 -0.047,-5.64483 0,-8.46666 0.12936,-7.762039 0.37076,-15.521837 0.52917,-23.283336 0.056,-2.745166 -0.24593,-5.761532 0,-8.466666 0.0971,-1.068526 0.43204,-2.106475 0.52917,-3.175 0.0799,-0.878322 -0.0974,-1.769282 0,-2.645834 0.0803,-0.72282 0.43897,-1.395013 0.52916,-2.116666 0,-4.577599 -0.22312,0.05725 0.52917,-3.704167 0.0692,-0.345927 -0.0856,-0.716089 0,-1.058333 0.0957,-0.382641 0.40444,-0.684157 0.52917,-1.058334 0.0558,-0.167338 -0.0789,-0.371398 0,-0.529166 0.11154,-0.223115 0.41761,-0.306052 0.52916,-0.529167 0.0789,-0.157766 -0.1764,-0.529167 0,-0.529167 0.1764,0 -0.12472,0.404442 0,0.529167 0.12473,0.124725 0.65389,0.124725 0.52917,0 -0.44971,-0.449704 -1.13779,-0.608629 -1.5875,-1.058333 -2.21851,-2.218505 -3.60233,-5.189829 -5.82083,-7.408334 -0.62363,-0.623628 -1.49305,-0.963871 -2.11667,-1.587499 -0.62362,-0.623629 -1.00674,-1.452936 -1.5875,-2.116667 -1.14985,-1.314119 -2.56778,-2.378382 -3.70417,-3.704167 -0.57396,-0.66962 -0.96387,-1.493038 -1.5875,-2.116666 -0.62362,-0.623629 -1.44703,-1.013537 -2.11666,-1.5875 -0.5682,-0.487024 -1.01931,-1.100477 -1.5875,-1.5875 -0.66964,-0.573962 -1.44704,-1.013538 -2.11667,-1.5875 -0.56819,-0.487023 -0.96483,-1.172388 -1.5875,-1.5875 -0.46411,-0.309407 -1.0886,-0.279715 -1.5875,-0.529167 -0.56883,-0.284418 -1.00296,-0.807809 -1.5875,-1.058333 -0.66847,-0.286486 -1.4111,-0.352778 -2.11667,-0.529167 -0.70556,-0.176389 -1.393,-0.4568 -2.11666,-0.529166 -3.54531,-0.354531 -6.64472,0.829846 -10.05417,1.5875 -1.75599,0.390219 -3.54656,0.622055 -5.29167,1.058333 -2.27904,0.569761 -9.36225,2.611939 -12.17083,3.704166 -6.12918,2.383568 -3.88035,1.896071 -10.05417,5.291667 -1.72796,0.950386 -3.54324,1.733613 -5.29166,2.645833 -2.30897,1.204685 -4.56854,2.502644 -6.87917,3.704167 -3.14941,1.637691 -6.39953,3.079559 -9.525,4.7625 -1.25211,0.674214 -2.45205,1.442453 -3.70417,2.116666 -3.6144,1.946215 -7.34215,3.675804 -11.1125,5.291667 -1.23472,0.529167 -2.43909,1.135687 -3.70416,1.5875 -1.20932,0.431901 -2.50563,0.597358 -3.70417,1.058333 -1.10438,0.424762 -2.05247,1.213324 -3.175,1.5875 -1.01787,0.339291 -2.1341,0.268944 -3.175,0.529167 -1.08227,0.270568 -2.09873,0.764805 -3.175,1.058333 -2.60316,0.709951 -5.29167,1.058334 -7.9375,1.5875 -0.88194,0.17639 -1.75192,0.429845 -2.64583,0.529167 -1.40248,0.155832 -2.82223,0 -4.23334,0 -1.41111,0 -2.8364,0.199562 -4.23333,0 -1.43992,-0.205703 -2.79003,-0.877919 -4.23333,-1.058333 -2.25778,-0.282224 -4.62139,0.282223 -6.87917,0 -1.27421,-0.159277 -2.42995,-0.899057 -3.70417,-1.058334 -0.7001,-0.08751 -1.4182,0.09978 -2.11666,0 -0.55219,-0.07888 -1.0373,-0.437467 -1.5875,-0.529166 -0.52197,-0.087 -1.06554,0.087 -1.5875,0 -0.5502,-0.0917 -1.03532,-0.450284 -1.5875,-0.529167 -0.69847,-0.09978 -1.41821,0.09978 -2.11667,0 -0.55218,-0.07888 -1.0373,-0.437467 -1.5875,-0.529167 -0.52197,-0.08699 -1.05833,0 -1.5875,0 -1.62123,0 -3.73184,0.222832 -5.29167,0 -0.71996,-0.102851 -1.3967,-0.426315 -2.11666,-0.529166 -0.52385,-0.07484 -1.06553,0.087 -1.5875,0 -1.1004,-0.183402 -2.11667,-0.705557 -3.175,-1.058334 -1.5875,-0.529166 -3.175,-1.058333 -4.7625,-1.5875 -1.05834,-0.352777 -2.0746,-0.874932 -3.175,-1.058333 -0.52197,-0.087 -1.06861,0.103778 -1.5875,0 -0.81359,-0.162716 -2.38525,-1.192625 -3.175,-1.5875 -1.63935,-0.819674 -3.79973,-1.651206 -5.29167,-2.645833 -0.8141,-0.542735 -1.30256,-1.573932 -2.11667,-2.116667 -0.32817,-0.218784 -0.73015,-0.310383 -1.05833,-0.529167 -0.82378,-0.549185 -1.06899,-1.338905 -1.5875,-2.116666 -0.65389,-0.98084 -0.52917,-0.04853 -0.52917,-1.058334"
       id="path10168"
       inkscape:connector-curvature="0" />
    <path
       style="fill:none;fill-opacity:1;stroke:#0e0a08;stroke-width:3;stroke-miterlimit:4;stroke-dasharray:none;stroke-opacity:1"
       d="m 202.14166,105.44168 c 0.70556,-0.52917 1.35093,-1.14993 2.11667,-1.5875 0.4843,-0.27674 1.06522,-0.33331 1.5875,-0.52917 0.8894,-0.33352 1.76389,-0.70555 2.64583,-1.05833 2.02712,-0.81085 4.95814,-2.00549 6.87917,-2.645833 1.21823,-0.406077 2.48593,-0.652256 3.70417,-1.058333 1.42973,-0.476576 2.8036,-1.110925 4.23333,-1.5875 3.51498,-1.17166 6.43842,-1.967881 10.05417,-2.645833 1.63701,-0.306941 6.42859,-0.857147 7.9375,-1.058334 3.36535,-0.448712 6.70598,-1.029467 10.05416,-1.5875 4.06218,-0.677029 2.12291,-0.318746 5.82084,-1.058333 0.88194,-0.17639 1.79258,-0.244748 2.64583,-0.529167 0.74836,-0.249451 1.39582,-0.737957 2.11667,-1.058333 0.86801,-0.385784 1.77782,-0.67255 2.64583,-1.058333 1.7639,-0.78395 3.52777,-1.910879 5.29167,-2.645834 1.02975,-0.429069 2.14524,-0.629263 3.175,-1.058333 1.09222,-0.455096 2.11666,-1.058333 3.175,-1.5875 2.11666,-1.058333 4.26635,-2.05304 6.35,-3.175 1.25211,-0.674214 2.43221,-1.480688 3.70416,-2.116666 2.40303,-1.201518 4.96893,-2.049127 7.40834,-3.175 1.07434,-0.495851 2.08277,-1.132404 3.175,-1.5875 1.02975,-0.42907 2.13378,-0.657863 3.175,-1.058334 3.19383,-1.228397 6.20635,-2.799085 9.525,-3.704166 4.94778,-1.349394 0.48336,0.0057 4.7625,-0.529167 0.72165,-0.09021 1.3967,-0.426315 2.11666,-0.529167 1.22232,-0.174617 2.46944,0 3.70417,0"
       id="path10170"
       inkscape:connector-curvature="0" />
    <path
       style="fill:none;fill-opacity:1;stroke:#0e0a08;stroke-width:3;stroke-miterlimit:4;stroke-dasharray:none;stroke-opacity:1"
       d="m 209.55,122.37501 c 4.08754,-2.31598 8.25339,-4.76192 12.7,-6.35 1.20932,-0.4319 2.46944,-0.70555 3.70416,-1.05833 2.46945,-0.70556 4.90585,-1.53917 7.40834,-2.11667 1.04545,-0.24125 2.11666,-0.35277 3.175,-0.52916 3.07163,-0.51194 4.92319,-0.86123 7.9375,0 0.53633,0.15323 1.12339,0.21976 1.5875,0.52916 2.45618,1.63746 3.8821,5.29631 4.7625,7.9375 0.73992,2.21978 0.57814,3.89769 2.11666,5.82084 0.31167,0.38957 0.6121,0.83522 1.05834,1.05833 0.40817,0.20409 4.59549,1.05833 4.7625,1.05833 1.83371,0 6.35643,-1.83985 7.40833,-2.11666 1.73958,-0.45779 3.55846,-0.57689 5.29167,-1.05834 1.45208,-0.40335 2.81405,-1.08062 4.23333,-1.5875 1.05058,-0.37521 2.13379,-0.65786 3.175,-1.05833 1.25381,-0.48223 2.42022,-1.19244 3.70417,-1.5875 1.88489,-0.57996 3.93192,-0.49166 5.82083,-1.05833 3.33237,-0.99971 1.85505,-1.24384 5.29167,-1.5875 0.87757,-0.0878 1.76929,0.0974 2.64583,0 1.80136,-0.20015 4.48842,-1.17382 6.35,-1.5875 7.51806,-1.67068 -1.53292,0.25776 4.7625,-0.52917 0.72165,-0.0902 1.39385,-0.44885 2.11667,-0.52917 0.87653,-0.0974 1.76389,0 2.64583,0 0.70556,0 1.41541,-0.0779 2.11667,0 0.89392,0.0993 1.75088,0.43968 2.64583,0.52917 1.40412,0.14041 2.84141,-0.23198 4.23333,0 4.17902,0.69651 -0.95258,0.52917 3.175,0.52917"
       id="path10172"
       inkscape:connector-curvature="0" />
    <path
       style="fill:none;fill-opacity:1;stroke:#0e0a08;stroke-width:3;stroke-miterlimit:4;stroke-dasharray:none;stroke-opacity:1"
       d="m 209.55,140.89585 c 5.11527,0 10.23055,0 15.34583,0 1.76389,0 3.52977,-0.0839 5.29167,0 1.94607,0.0927 3.87411,0.45129 5.82083,0.52916 2.46747,0.0987 4.94122,-0.10726 7.40833,0 1.59577,0.0694 3.175,0.35278 4.7625,0.52917 1.6509,0.18343 6.57903,0.68081 8.46667,1.05833 2.28297,0.4566 5.65646,1.46495 7.9375,2.11667 1.55874,0.44535 5.28164,1.45103 6.87917,2.11667 1.09222,0.45509 2.07637,1.14805 3.175,1.5875 0.67524,0.2701 1.43571,0.2738 2.11666,0.52916 0.73861,0.27698 1.37806,0.78136 2.11667,1.05834 3.59709,1.34891 0.68575,0.0261 3.70417,0.52916 0.5502,0.0917 1.0297,0.52917 1.5875,0.52917 0.72726,0 1.4111,-0.35278 2.11666,-0.52917 0.70557,-0.17639 1.43571,-0.2738 2.11667,-0.52916 0.73861,-0.27698 1.4111,-0.70556 2.11667,-1.05834 0.88193,-0.35277 1.75313,-0.73371 2.64583,-1.05833 2.11354,-0.76857 3.83162,-1.39331 5.82083,-2.11667 1.04841,-0.38124 2.15943,-0.5967 3.175,-1.05833 0.93634,-0.4256 1.72591,-1.12754 2.64584,-1.5875 2.36013,-1.18007 4.88315,-1.48537 7.40833,-2.11667 0.70556,-0.17639 1.42671,-0.29918 2.11667,-0.52916 0.37417,-0.12473 0.67156,-0.45182 1.05833,-0.52917 0.10234,-0.0205 3.03183,-0.0716 3.175,0 1.30778,0.65389 -0.18267,0.52917 1.05833,0.52917"
       id="path10174"
       inkscape:connector-curvature="0" />
    <path
       style="fill:none;fill-opacity:1;stroke:#0e0a08;stroke-width:3;stroke-miterlimit:4;stroke-dasharray:none;stroke-opacity:1"
       d="m 210.60833,161.00418 c 0.88194,-0.17639 1.74953,-0.45448 2.64583,-0.52917 1.23046,-0.10254 2.47259,0.088 3.70417,0 1.24409,-0.0889 2.45934,-0.45136 3.70417,-0.52916 1.58441,-0.099 3.17744,0.0881 4.7625,0 1.59481,-0.0886 3.16834,-0.42954 4.7625,-0.52917 1.23232,-0.077 2.46944,0 3.70416,0 2.64584,0 5.29167,0 7.9375,0 2.64584,0 5.29839,-0.18851 7.9375,0 1.19158,0.0851 5.54899,0.83664 6.87917,1.05833 1.05833,0.17639 2.13987,0.24686 3.175,0.52917 0.91641,0.24993 1.76389,0.70556 2.64583,1.05833 0.88195,0.35278 1.77782,0.67255 2.64584,1.05834 0.72085,0.32037 1.37805,0.78135 2.11666,1.05833 0.68096,0.25536 1.43571,0.2738 2.11667,0.52917 1.47722,0.55395 2.82223,1.41111 4.23333,2.11666 0.70557,0.35278 1.35139,0.86702 2.11667,1.05834 0.68448,0.17112 1.41655,-0.0875 2.11667,0 1.4433,0.18041 2.79857,0.8192 4.23333,1.05833 1.40274,0.23379 2.81615,0.41107 4.23333,0.52917 2.92042,0.24336 1.54676,-0.17187 4.7625,-0.52917 0.70125,-0.0779 1.41656,0.0875 2.11667,0 2.30735,-0.28842 4.57181,-1.29908 6.87917,-1.5875 0.70011,-0.0875 1.41819,0.0998 2.11666,0 0.55219,-0.0789 1.03532,-0.45028 1.5875,-0.52917 0.69848,-0.0998 1.4182,0.0998 2.11667,0 0.55218,-0.0789 1.0373,-0.43746 1.5875,-0.52916 1.12144,-0.18691 2.55085,0 3.70417,0"
       id="path10176"
       inkscape:connector-curvature="0" />
    <path
       style="fill:none;fill-opacity:1;stroke:#0e0a08;stroke-width:3;stroke-miterlimit:4;stroke-dasharray:none;stroke-opacity:1"
       d="m 209.02083,184.81668 c 0.70556,0 1.41401,-0.0639 2.11667,0 1.24213,0.11292 2.46252,0.41092 3.70416,0.52917 2.46459,0.23472 4.94669,0.26542 7.40834,0.52916 2.48032,0.26575 4.92541,0.81805 7.40833,1.05834 2.98983,0.28933 6.01041,0.19745 8.99583,0.52916 3.37216,0.37469 6.69536,1.10767 10.05417,1.5875 7.24649,1.03522 14.48817,1.86452 21.69583,3.175 3.39945,0.47312 6.68798,1.48551 10.05417,2.11667 1.22589,0.22985 2.48886,0.24871 3.70417,0.52917 1.08701,0.25084 2.10875,0.73025 3.175,1.05833 3.91422,1.20438 3.23529,0.79163 6.87916,2.11667 1.78538,0.64923 3.47202,1.57077 5.29167,2.11666 0.86148,0.25845 1.79258,0.24475 2.64583,0.52917 0.74835,0.24945 1.37806,0.78135 2.11667,1.05833 0.68096,0.25537 1.43571,0.27381 2.11667,0.52917 7.37629,2.76611 -3.92613,-0.77955 4.7625,2.11667 1.29053,0.43017 3.5043,0.77873 4.7625,1.05833 0.70995,0.15776 1.39501,0.43896 2.11666,0.52917 0.70012,0.0875 1.41656,-0.0875 2.11667,0 0.72165,0.0902 1.39671,0.42631 2.11667,0.52916 1.99591,0.28513 1.77765,-0.43409 3.70416,0.52917"
       id="path10178"
       inkscape:connector-curvature="0" />
    <path
       style="fill:none;fill-opacity:1;stroke:#0e0a08;stroke-width:3;stroke-miterlimit:4;stroke-dasharray:none;stroke-opacity:1"
       d="m 206.90416,228.20835 c 2.15998,-0.46558 2.31913,-1.68873 4.23334,-2.64584 1.34796,-0.67398 2.82222,-1.05833 4.23333,-1.5875 1.41111,-0.52916 2.77715,-1.19918 4.23333,-1.5875 1.07865,-0.28764 7.85179,-0.99001 8.46667,-1.05833 2.7708,-0.30787 6.16383,-0.86234 8.99583,-0.52917 2.27273,0.26738 6.15472,1.45611 8.46667,2.11667 2.81022,0.80292 4.19441,1.14039 6.87917,2.11667 4.98416,1.81242 0.33342,0.16671 5.29166,2.64583 0.8496,0.4248 1.77782,0.67255 2.64584,1.05833 2.49353,1.10824 4.17399,1.96954 6.87916,2.64584 0.70557,0.17639 1.39502,0.43896 2.11667,0.52916 1.22518,0.15315 2.46944,0 3.70417,0 1.5875,0 3.18471,0.17531 4.7625,0 0.72281,-0.0803 1.40671,-0.3714 2.11666,-0.52916 2.23094,-0.49577 4.72631,-0.78018 6.87917,-1.5875 2.07626,-0.7786 3.91771,-2.08751 5.82083,-3.175 2.81041,-1.60595 1.23055,-0.59806 3.70417,-1.5875 2.86663,-1.14666 -0.94345,0.24856 2.11667,-1.5875 3.88934,-1.29645 0.2695,0.17311 2.11666,-1.05834 2.31116,-1.54077 -0.17441,0.23453 2.11667,-0.52916 0.23664,-0.0789 0.29252,-0.45029 0.52917,-0.52917 1.43782,-0.47928 0.70381,0.44184 2.64583,-0.52917"
       id="path10180"
       inkscape:connector-curvature="0" />
  </g>
</svg>
